M48
;Layer_Color=9474304
;FILE_FORMAT=2:5
INCH,LZ
;TYPE=PLATED
T3F00S00C0.02165
T4F00S00C0.03346
;TYPE=NON_PLATED
%
T03
X0112692Y0019756
X0128046Y0023714
X0187513Y0022577
X0082218Y0017944
X0075735Y002109
X0071284Y001493
X0053435Y0014961
X0052266Y0023438
X004749Y0022139
X0058342Y0021557
X003158Y002109
X0025236Y0014076
X0035813Y0003937
X0006536Y0024133
X0003583Y0021557
X0020104Y0026095
X0019324Y003285
X0024432Y0034272
X0034449Y0033498
X0043949Y0029736
X0055032Y0033925
X00611Y0034114
X0072226Y0034434
X0071257Y0030525
X0071612Y0025315
X0078702Y003285
X0087562Y0031319
X0064607Y0045276
X0065357Y0052335
X0071701Y00588
X0077134
X0075735Y0063877
X0076035Y0070141
Y00768
Y0083423
Y00901
Y00965
X0076035Y0103058
X008091Y0099756
Y00933
Y0086786
Y0080102
X0080908Y0073488
X008091Y00667
X0051383Y0068903
X005456Y0073633
X0054681Y0086876
X0052605Y0093569
X0054903Y0104552
X0055629Y0118198
X0055227Y0121917
X0047895Y0123306
X0038271Y0121092
X003034Y0120746
X0026299Y0113425
Y0106706
Y0100293
Y009337
Y008727
Y0081021
X0026298Y0073703
X0026299Y0066269
X0031778Y0063877
X003178Y0070144
Y00768
Y0083423
Y00901
Y00965
Y0103058
X0005137Y0118212
X0067501Y0120456
X0074239Y0120937
X0079333Y0118423
X008091Y0112963
Y01064
X0064781Y0125149
X0065493Y0132394
X0062603Y0139689
X0060632Y0144725
X0062632Y0151725
X0060358Y0163377
X0067248Y0171899
X0043631Y0172086
X0039805Y017671
X0043199Y0163377
X0046253Y0149116
X0068938Y0141491
X0088732Y0162225
X0054858Y0044092
X0044436Y0045279
X0044378Y0049677
X0033167Y0049445
X0035813Y00588
X0030143Y0058628
X0016378Y0061915
X0009873Y0039169
X0040001Y0042323
X0093432Y0046734
X0098606Y0058276
X0099386Y0062173
X0108739Y0058428
X0115534Y005595
X0118806Y0048672
X0115756Y004257
X0109086Y0041734
X0111117Y003559
X0128881Y0040551
X0127081Y0046163
X0129724Y0060182
X0135807Y0059911
X0146299Y0060638
X0145317Y005595
X0140135Y0050197
X0139118Y004058
X0139089Y0027802
X0152566Y0038932
X0165304Y0033925
X0178401Y0035792
X0179086Y0042126
X0188509Y0043186
X0187609Y0038871
X0193508Y0052335
X0196263Y0059911
X0190135Y0060841
X0178401Y006063
X0176384Y005315
X0180417Y0053115
X0166562Y0060827
X015561Y0061452
X0161044Y0049597
X0155235Y0082948
Y0087412
X0160942Y0089435
X0167953Y0088324
X0179251Y009202
X0178626Y0079729
X0179159Y0074843
X0190219Y0074993
X018665Y0082682
X0209883Y008222
X0203103Y0097438
X0199198Y0095036
X019061Y0103479
X0184262Y0118972
X0187723Y0122636
X0180417Y0122749
X0180356Y0138839
X0192262Y0137271
X0192167Y0142126
X0196263Y0151497
X0200041Y0154467
X0204147Y0151575
X0217758Y0159536
X0232913Y016437
Y014361
X0229961Y0140157
X018823Y015748
X0162047Y0157309
X0159782Y016437
X0151644Y0164654
X0133848Y0175729
X0131742Y0147264
X0125868Y0148026
X0124291Y0144352
X011874Y0143701
X0118191Y0147632
X0112525Y0147618
X0115469Y0158354
X0108185Y0158908
X0098682Y0165723
X0098273Y0151601
X0096673Y0141087
X0096395Y013565
X0095596Y0131552
X0103701Y0134608
X0109804Y0134752
X011469Y0134
X0119374Y0139298
X012875Y0136461
X0130324Y012489
X0126762Y0120918
X011643Y0116984
X0115872Y0110201
X0109804Y0113624
X0112525Y0122104
X0109323Y0124444
X0108739Y0100693
X0098931Y0100717
X0098682Y0104954
X0099325Y0110068
X0095596Y0108454
X0110661Y0091511
X0110073Y0084399
X0121021Y0081731
Y0077991
X0118093Y0074526
X0113855Y0071545
X0109341Y0070885
X0098952Y0075288
X0120594Y0063146
X0133235Y0071446
X0139118Y0082009
X0139048Y0086207
X0139118Y0090912
X0143355Y0092092
X0140135Y0103872
Y0108246
X01385Y0115
X0144825Y012257
X0159782Y0122455
X0163535Y0119095
X0167953Y0111922
X0164016Y0100774
X0157599Y0100052
X0156031Y0104017
X0152119Y0103093
X0154174Y0115158
X0154173Y0129921
X0164694Y0142126
X0124807Y0098203
X0128881Y0091516
X0215789Y005315
X0227992Y0049803
X0223898Y0039006
X021693Y0030284
X0108739Y0189362
X0102008Y0187311
T04
X0008893Y0127718
X0142331Y013074
X0142362Y0138271
Y0181147
X0219699Y0129197
X0214858Y0118279
X0206273Y0093166
X0206143Y0031496
X0201075Y0026748
X0193129Y0028073
X0213427Y0026498
X0171939Y0026748
M30
