M48
;Layer_Color=9474304
;FILE_FORMAT=2:5
INCH,LZ
;TYPE=PLATED
T1F00S00C0.00984
T2F00S00C0.01181
T5F00S00C0.03543
T6F00S00C0.04331
;TYPE=NON_PLATED
T7F00S00C0.12598
%
T01
X0004862Y0044598
X0025888Y0029139
X003943Y0029069
X0051221Y0029028
X0066295Y0029028
X0066827Y0055701
Y0064541
X0055336Y0061687
X0055312Y0058528
X0052178
X0052153Y0061687
X0047849Y0062407
X0047842Y0057836
X0044436Y006722
X0042742Y0071992
X0044394Y0076835
X0044548Y0094461
X0047842Y0097228
X0047912Y01019
X0043381Y0100293
X0045515Y0106992
X0061967Y0106533
X0059637Y0102032
X0059866Y0096808
X0063175Y0093726
X0063962Y0100293
X0062445Y0075356
X0147276Y0029028
T02
X0035473Y0110866
Y0115984
X0040591
Y0110866
X0038032Y0113425
X0067112Y0110892
Y011601
X0072231
Y0110892
X0069672Y0113451
T05
X0100395Y0010967
X0110395
X0120395
X0130395
X0140395
X0150395
X0090395
X0080395
X0060395
X0050395
X0040395
X0030395
X0020395
X0010395
X0096395Y0200967
X0106395
X0116395
X0126395
X0136395
X0146395
X0156395
X0166395
X0176395
X0186395
X0080395
X0070395
X0060395
X0050395
X0040395
X0030395
X0020395
X0010395
T06
X0243988Y0051898
Y0061898
Y0071898
Y0081898
Y0091898
Y0101898
Y0111898
Y0121898
X0232915Y0178071
Y0188071
Y0198071
T07
X0205591Y0011142
X0000592Y0031142
Y0141142
X0241181
Y0031142
X0200591Y0201142
M30
