G04*
G04 #@! TF.GenerationSoftware,Altium Limited,Altium Designer,20.1.11 (218)*
G04*
G04 Layer_Color=16711935*
%FSLAX25Y25*%
%MOIN*%
G70*
G04*
G04 #@! TF.SameCoordinates,FBA81C19-FCCB-422B-9B6C-78DF9D3B5762*
G04*
G04*
G04 #@! TF.FilePolarity,Negative*
G04*
G01*
G75*
%ADD46C,0.02368*%
%ADD47C,0.06306*%
%ADD48R,0.06306X0.06306*%
%ADD49C,0.06693*%
%ADD50R,0.06693X0.06693*%
%ADD51C,0.12211*%
%ADD52C,0.02565*%
%ADD103C,0.06306*%
G36*
X241681Y205302D02*
Y160026D01*
X251524Y150184D01*
Y21050D01*
X242075Y11601D01*
Y184D01*
X302D01*
X301Y182D01*
Y11600D01*
X-9148Y21048D01*
Y150182D01*
X695Y160025D01*
Y205300D01*
X8176Y212782D01*
X234201D01*
X241681Y205302D01*
D02*
G37*
D46*
X69648Y113449D02*
D03*
X38032Y113425D02*
D03*
X69672Y113451D02*
D03*
X35473Y115984D02*
D03*
X40591D02*
D03*
Y110866D02*
D03*
X67112Y116010D02*
D03*
X72231D02*
D03*
X67112Y110892D02*
D03*
X72231D02*
D03*
X35473Y110866D02*
D03*
D47*
X80395Y10967D02*
D03*
X90395D02*
D03*
X100395D02*
D03*
X110395D02*
D03*
X120395D02*
D03*
X130395D02*
D03*
X140395D02*
D03*
X50395D02*
D03*
X40395D02*
D03*
X30395D02*
D03*
X20395D02*
D03*
X10395D02*
D03*
X176395Y200967D02*
D03*
X156395D02*
D03*
X146395D02*
D03*
X136395D02*
D03*
X126395D02*
D03*
X116395D02*
D03*
X106395D02*
D03*
X96395D02*
D03*
X166395D02*
D03*
X70395D02*
D03*
X60395D02*
D03*
X50395D02*
D03*
X40395D02*
D03*
X30395D02*
D03*
X20395D02*
D03*
X10395D02*
D03*
D48*
X150395Y10967D02*
D03*
X60395D02*
D03*
X186395Y200967D02*
D03*
X80395D02*
D03*
D49*
X243988Y91898D02*
D03*
Y101898D02*
D03*
Y111898D02*
D03*
Y61898D02*
D03*
Y51898D02*
D03*
Y71898D02*
D03*
Y81898D02*
D03*
X232915Y198071D02*
D03*
Y188071D02*
D03*
D50*
X243988Y121898D02*
D03*
X232915Y178071D02*
D03*
D51*
X592Y31142D02*
D03*
Y141142D02*
D03*
D03*
X241181Y31142D02*
D03*
Y141142D02*
D03*
X205591Y11142D02*
D03*
X200591Y201142D02*
D03*
X592Y141142D02*
D03*
Y31142D02*
D03*
D52*
X63962Y100293D02*
D03*
X147276Y29028D02*
D03*
X43381Y100293D02*
D03*
X44436Y67220D02*
D03*
X42742Y71992D02*
D03*
X39430Y29069D02*
D03*
X51221Y29028D02*
D03*
X25888Y29139D02*
D03*
X44394Y76835D02*
D03*
X66827Y55701D02*
D03*
X59866Y96808D02*
D03*
X66295Y29028D02*
D03*
X47842Y97228D02*
D03*
X61967Y106533D02*
D03*
X63175Y93726D02*
D03*
X55312Y58528D02*
D03*
X52178D02*
D03*
X52153Y61687D02*
D03*
X66827Y64541D02*
D03*
X59637Y102032D02*
D03*
X45515Y106992D02*
D03*
X47842Y57836D02*
D03*
X47849Y62407D02*
D03*
X44548Y94461D02*
D03*
X47912Y101900D02*
D03*
X62445Y75356D02*
D03*
X55336Y61687D02*
D03*
X4862Y44598D02*
D03*
D103*
X147089Y28890D02*
D03*
X66295Y29028D02*
D03*
X51221Y29028D02*
D03*
X39534Y29061D02*
D03*
X25888Y29139D02*
D03*
X4862Y44598D02*
D03*
M02*
