G04*
G04 #@! TF.GenerationSoftware,Altium Limited,Altium Designer,20.1.11 (218)*
G04*
G04 Layer_Color=32768*
%FSLAX25Y25*%
%MOIN*%
G70*
G04*
G04 #@! TF.SameCoordinates,FBA81C19-FCCB-422B-9B6C-78DF9D3B5762*
G04*
G04*
G04 #@! TF.FilePolarity,Positive*
G04*
G01*
G75*
%ADD104C,0.00050*%
D104*
X49060Y58978D02*
Y59293D01*
X49021Y58978D02*
X49060D01*
X49021D02*
Y59293D01*
X49060D01*
Y57659D02*
Y58132D01*
X49021Y57659D02*
X49060D01*
X49021D02*
Y58132D01*
X49060D01*
Y56478D02*
X49060Y56085D01*
X49021D02*
X49060D01*
X49021D02*
Y56478D01*
X49060D01*
X58470Y56085D02*
Y56478D01*
X58430Y56085D02*
X58470D01*
X58430D02*
Y56478D01*
X58470D01*
Y57856D02*
Y58447D01*
X58430Y57856D02*
X58470D01*
X58430D02*
Y58447D01*
X58470D01*
Y59628D02*
Y60100D01*
X58430Y59628D02*
X58470D01*
X58430D02*
Y60100D01*
X58470D01*
Y60947D02*
Y61262D01*
X58430Y60947D02*
X58470D01*
X58430D02*
Y61262D01*
X58470D01*
Y62108D02*
Y62581D01*
X58430Y62108D02*
X58470D01*
X58430D02*
Y62581D01*
X58470D01*
Y63762D02*
Y64155D01*
X58430Y63762D02*
X58470D01*
X58430D02*
Y64155D01*
X58470D01*
X54237Y64805D02*
Y64844D01*
X53765Y64805D02*
X54237D01*
X53765D02*
Y64844D01*
X54237D01*
X56009Y64805D02*
Y64844D01*
X55418Y64805D02*
X56009D01*
X55418D02*
Y64844D01*
X56009D01*
X57977Y64805D02*
Y64844D01*
X57584Y64805D02*
X57977D01*
X57584D02*
Y64844D01*
X57977D01*
X49060Y63762D02*
Y64155D01*
X49021Y63762D02*
X49060D01*
X49021D02*
Y64155D01*
X49060D01*
Y61793D02*
Y62384D01*
X49021Y61793D02*
X49060D01*
X49021D02*
Y62384D01*
X49060D01*
Y60140D02*
Y60612D01*
X49021Y60140D02*
X49060D01*
X49021D02*
Y60612D01*
X49060D01*
X49907Y64805D02*
Y64844D01*
X49513Y64805D02*
X49907D01*
X49513D02*
Y64844D01*
X49907D01*
X51757Y64805D02*
Y64844D01*
X51285Y64805D02*
X51757D01*
X51285D02*
Y64844D01*
X51757D01*
X52918Y64805D02*
Y64844D01*
X52604Y64805D02*
X52918D01*
X52604D02*
Y64844D01*
X52918D01*
M02*
