G04*
G04 #@! TF.GenerationSoftware,Altium Limited,Altium Designer,20.1.11 (218)*
G04*
G04 Layer_Physical_Order=6*
G04 Layer_Color=16711680*
%FSLAX25Y25*%
%MOIN*%
G70*
G04*
G04 #@! TF.SameCoordinates,FBA81C19-FCCB-422B-9B6C-78DF9D3B5762*
G04*
G04*
G04 #@! TF.FilePolarity,Positive*
G04*
G01*
G75*
%ADD36R,0.05906X0.05906*%
%ADD49C,0.06693*%
%ADD50R,0.06693X0.06693*%
%ADD87C,0.01968*%
%ADD88C,0.05906*%
%ADD89C,0.11811*%
%ADD91C,0.02165*%
%ADD102C,0.05906*%
G36*
X79924Y146244D02*
X80514Y146008D01*
X80987Y145653D01*
X81341Y145181D01*
X81617Y144630D01*
X81695Y144000D01*
Y138449D01*
X82483D01*
Y143213D01*
X87562D01*
Y130693D01*
X75042D01*
Y143213D01*
X80120D01*
Y138449D01*
X80908D01*
Y143961D01*
X80869Y144354D01*
X80711Y144748D01*
X80436Y145063D01*
X80120Y145338D01*
X79727Y145496D01*
X79333Y145535D01*
X66617D01*
X66144Y145457D01*
X65750Y145299D01*
X65357Y145024D01*
X65081Y144630D01*
X64924Y144236D01*
X64845Y143764D01*
Y137858D01*
X64924Y137386D01*
X65081Y136992D01*
X65357Y136598D01*
X65750Y136323D01*
X66144Y136165D01*
X66617Y136087D01*
X67443D01*
X68113Y136008D01*
X68743Y135732D01*
X69254Y135338D01*
X69648Y134787D01*
X69924Y134197D01*
X70002Y133528D01*
Y124669D01*
X79333D01*
X79924Y124591D01*
X80514Y124354D01*
X80987Y124000D01*
X81341Y123528D01*
X81617Y122976D01*
X81695Y122346D01*
Y116795D01*
X82483D01*
Y121559D01*
X87562D01*
Y109039D01*
X75042D01*
Y121559D01*
X80120D01*
Y116795D01*
X80908D01*
Y122307D01*
X80869Y122701D01*
X80711Y123094D01*
X80436Y123409D01*
X80120Y123685D01*
X79727Y123843D01*
X79333Y123882D01*
X71065D01*
Y120457D01*
X70042D01*
Y114630D01*
X70357Y114472D01*
X70593Y114236D01*
X70790Y113961D01*
X70869Y113606D01*
Y113291D01*
X70790Y112937D01*
X70593Y112661D01*
X70357Y112425D01*
X70042Y112268D01*
Y106441D01*
X71065D01*
Y103016D01*
X79333D01*
X79924Y102937D01*
X80514Y102701D01*
X80987Y102346D01*
X81341Y101874D01*
X81617Y101323D01*
X81695Y100693D01*
Y95142D01*
X82483D01*
Y99906D01*
X87562D01*
Y87386D01*
X75042D01*
Y99906D01*
X80120D01*
Y95142D01*
X80908D01*
Y100654D01*
X80869Y101047D01*
X80711Y101441D01*
X80436Y101756D01*
X80120Y102032D01*
X79727Y102189D01*
X79333Y102228D01*
X70002D01*
Y93370D01*
X69924Y92701D01*
X69648Y92110D01*
X69254Y91559D01*
X68743Y91165D01*
X68113Y90890D01*
X67443Y90811D01*
X66617D01*
X66144Y90732D01*
X65750Y90575D01*
X65357Y90299D01*
X65081Y89906D01*
X64924Y89512D01*
X64845Y89039D01*
Y83134D01*
X64924Y82661D01*
X65081Y82268D01*
X65357Y81874D01*
X65750Y81598D01*
X66144Y81441D01*
X66617Y81362D01*
X79333D01*
X79924Y81283D01*
X80514Y81047D01*
X80987Y80693D01*
X81341Y80220D01*
X81617Y79669D01*
X81695Y79039D01*
Y73488D01*
X82483D01*
Y78252D01*
X87562D01*
Y65732D01*
X75042D01*
Y78252D01*
X80120D01*
Y73488D01*
X80908D01*
Y79000D01*
X80869Y79394D01*
X80711Y79787D01*
X80436Y80102D01*
X80120Y80378D01*
X79727Y80535D01*
X79333Y80575D01*
X66617D01*
X65947Y80654D01*
X65357Y80929D01*
X64806Y81323D01*
X64412Y81874D01*
X64136Y82464D01*
X64058Y83134D01*
Y89039D01*
X64136Y89709D01*
X64412Y90299D01*
X64806Y90850D01*
X65357Y91244D01*
X65947Y91520D01*
X66617Y91598D01*
X67443D01*
X67916Y91677D01*
X68349Y91835D01*
X68703Y92110D01*
X68979Y92504D01*
X69136Y92898D01*
X69215Y93370D01*
Y102622D01*
X68152D01*
Y106441D01*
X69176D01*
Y112268D01*
X68861Y112425D01*
X68625Y112661D01*
X68428Y112937D01*
X68335Y113353D01*
X68414Y113900D01*
X68428Y113961D01*
X68625Y114236D01*
X68861Y114472D01*
X69176Y114630D01*
Y120457D01*
X68152D01*
Y124276D01*
X69215D01*
Y133528D01*
X69136Y134000D01*
X68979Y134394D01*
X68703Y134787D01*
X68349Y135063D01*
X67916Y135220D01*
X67443Y135299D01*
X66617D01*
X65947Y135378D01*
X65357Y135653D01*
X64806Y136047D01*
X64412Y136598D01*
X64136Y137189D01*
X64058Y137858D01*
Y143764D01*
X64136Y144433D01*
X64412Y145024D01*
X64806Y145575D01*
X65357Y145968D01*
X65947Y146244D01*
X66617Y146323D01*
X79333D01*
X79924Y146244D01*
D02*
G37*
G36*
X185056Y134636D02*
X185313Y134622D01*
X185566Y134596D01*
X185812Y134553D01*
X186050Y134492D01*
X186276Y134409D01*
X186490Y134300D01*
X186690Y134164D01*
X186850Y134021D01*
X186994Y133861D01*
X187120Y133681D01*
X187225Y133485D01*
X187310Y133271D01*
X187373Y133042D01*
X187411Y132799D01*
X187424Y132541D01*
X187418Y132369D01*
X187400Y132197D01*
X187371Y132026D01*
X187332Y131856D01*
X187282Y131689D01*
X187223Y131525D01*
X187156Y131364D01*
X187081Y131207D01*
X186998Y131055D01*
X186908Y130909D01*
X186812Y130768D01*
X186711Y130634D01*
X186605Y130508D01*
X186494Y130390D01*
X186380Y130280D01*
X186262Y130180D01*
X186460Y130166D01*
X186652Y130141D01*
X186834Y130107D01*
X187004Y130069D01*
X187157Y130029D01*
X187291Y129991D01*
X187401Y129957D01*
X187484Y129933D01*
X186997Y128063D01*
X186776Y128104D01*
X186539Y128148D01*
X186281Y128193D01*
X185996Y128235D01*
X185679Y128272D01*
X185326Y128302D01*
X184931Y128322D01*
X184490Y128329D01*
X176893D01*
Y130319D01*
X184553D01*
X184762Y130502D01*
X184944Y130691D01*
X185101Y130884D01*
X185231Y131075D01*
X185334Y131263D01*
X185408Y131443D01*
X185452Y131612D01*
X185468Y131765D01*
X185465Y131864D01*
X185455Y131960D01*
X185438Y132052D01*
X185412Y132139D01*
X185377Y132220D01*
X185332Y132294D01*
X185275Y132360D01*
X185205Y132418D01*
X185116Y132473D01*
X185012Y132521D01*
X184891Y132561D01*
X184747Y132594D01*
X184576Y132619D01*
X184374Y132636D01*
X184137Y132646D01*
X183860Y132650D01*
X176893D01*
Y134640D01*
X184797D01*
X185056Y134636D01*
D02*
G37*
G36*
X182454Y126642D02*
X182770Y126629D01*
X183075Y126608D01*
X183371Y126579D01*
X183657Y126541D01*
X183933Y126496D01*
X184199Y126443D01*
X184455Y126383D01*
X184701Y126315D01*
X184937Y126239D01*
X185163Y126158D01*
X185378Y126069D01*
X185584Y125974D01*
X185779Y125871D01*
X185964Y125763D01*
X186139Y125648D01*
X186303Y125528D01*
X186457Y125401D01*
X186600Y125269D01*
X186734Y125131D01*
X186856Y124987D01*
X186969Y124839D01*
X187070Y124686D01*
X187162Y124527D01*
X187242Y124364D01*
X187312Y124197D01*
X187371Y124025D01*
X187420Y123848D01*
X187458Y123668D01*
X187485Y123484D01*
X187501Y123296D01*
X187506Y123105D01*
X187498Y122865D01*
X187474Y122634D01*
X187433Y122414D01*
X187378Y122203D01*
X187308Y122001D01*
X187225Y121809D01*
X187128Y121625D01*
X187018Y121451D01*
X186896Y121286D01*
X186763Y121129D01*
X186618Y120980D01*
X186464Y120841D01*
X186299Y120709D01*
X186126Y120585D01*
X185943Y120470D01*
X185752Y120362D01*
X185555Y120262D01*
X185350Y120170D01*
X185139Y120085D01*
X184922Y120007D01*
X184700Y119936D01*
X184474Y119873D01*
X184243Y119816D01*
X184009Y119766D01*
X183773Y119723D01*
X183534Y119686D01*
X183293Y119656D01*
X183052Y119632D01*
X182810Y119613D01*
X182568Y119600D01*
X182327Y119594D01*
X182087Y119593D01*
X181850Y119597D01*
X181610Y119605D01*
X181369Y119618D01*
X181128Y119635D01*
X180886Y119658D01*
X180646Y119687D01*
X180406Y119720D01*
X180169Y119760D01*
X179934Y119805D01*
X179703Y119857D01*
X179475Y119916D01*
X179251Y119981D01*
X179032Y120053D01*
X178819Y120133D01*
X178612Y120220D01*
X178412Y120315D01*
X178219Y120417D01*
X178034Y120529D01*
X177858Y120648D01*
X177691Y120777D01*
X177534Y120914D01*
X177387Y121061D01*
X177252Y121216D01*
X177128Y121382D01*
X177016Y121558D01*
X176918Y121744D01*
X176833Y121940D01*
X176762Y122147D01*
X176705Y122364D01*
X176664Y122594D01*
X176639Y122834D01*
X176631Y123086D01*
X176639Y123333D01*
X176664Y123570D01*
X176704Y123797D01*
X176759Y124013D01*
X176829Y124220D01*
X176913Y124416D01*
X177010Y124603D01*
X177120Y124780D01*
X177243Y124948D01*
X177377Y125107D01*
X177522Y125257D01*
X177678Y125398D01*
X177843Y125530D01*
X178018Y125654D01*
X178202Y125770D01*
X178395Y125877D01*
X178594Y125978D01*
X178802Y126069D01*
X179015Y126154D01*
X179235Y126231D01*
X179460Y126301D01*
X179690Y126364D01*
X179923Y126420D01*
X180161Y126469D01*
X180402Y126512D01*
X180646Y126549D01*
X180891Y126579D01*
X181138Y126604D01*
X181386Y126622D01*
X181634Y126636D01*
X181882Y126643D01*
X182129Y126646D01*
X182454Y126642D01*
D02*
G37*
G36*
X182357Y118252D02*
X182747Y118242D01*
X183116Y118225D01*
X183464Y118200D01*
X183792Y118168D01*
X184102Y118128D01*
X184395Y118080D01*
X184671Y118025D01*
X184932Y117959D01*
X185178Y117886D01*
X185410Y117804D01*
X185630Y117713D01*
X185839Y117612D01*
X186037Y117501D01*
X186225Y117381D01*
X186404Y117251D01*
X186656Y117035D01*
X186877Y116798D01*
X187066Y116540D01*
X187223Y116263D01*
X187346Y115965D01*
X187434Y115648D01*
X187488Y115312D01*
X187506Y114957D01*
X187485Y114582D01*
X187422Y114224D01*
X187316Y113883D01*
X187167Y113562D01*
X186976Y113259D01*
X186741Y112976D01*
X186463Y112714D01*
X186142Y112473D01*
X185955Y112355D01*
X185760Y112244D01*
X185557Y112142D01*
X185345Y112048D01*
X185126Y111962D01*
X184897Y111884D01*
X184659Y111813D01*
X184413Y111750D01*
X184157Y111695D01*
X183891Y111647D01*
X183616Y111607D01*
X183331Y111574D01*
X183036Y111549D01*
X182730Y111531D01*
X182414Y111521D01*
X182087Y111517D01*
X181771Y111521D01*
X181463Y111532D01*
X181163Y111552D01*
X180871Y111579D01*
X180589Y111614D01*
X180315Y111656D01*
X180050Y111706D01*
X179794Y111763D01*
X179548Y111828D01*
X179310Y111900D01*
X179082Y111979D01*
X178863Y112065D01*
X178654Y112159D01*
X178455Y112259D01*
X178265Y112366D01*
X178085Y112481D01*
X177916Y112602D01*
X177756Y112730D01*
X177607Y112865D01*
X177468Y113007D01*
X177340Y113155D01*
X177222Y113310D01*
X177114Y113471D01*
X177018Y113638D01*
X176933Y113813D01*
X176858Y113993D01*
X176795Y114180D01*
X176743Y114372D01*
X176702Y114572D01*
X176673Y114776D01*
X176655Y114987D01*
X176650Y115204D01*
X176670Y115608D01*
X176731Y116000D01*
X176836Y116379D01*
X176983Y116748D01*
X177176Y117107D01*
X177415Y117457D01*
X177701Y117798D01*
X178036Y118132D01*
X179520Y117341D01*
X179289Y117109D01*
X179086Y116875D01*
X178911Y116639D01*
X178766Y116400D01*
X178651Y116156D01*
X178568Y115905D01*
X178518Y115647D01*
X178501Y115381D01*
X178517Y115154D01*
X178565Y114939D01*
X178645Y114736D01*
X178754Y114547D01*
X178893Y114373D01*
X179061Y114215D01*
X179256Y114075D01*
X179479Y113953D01*
X179682Y113869D01*
X179893Y113802D01*
X180110Y113749D01*
X180334Y113710D01*
X180564Y113682D01*
X180801Y113665D01*
X181044Y113656D01*
X181293Y113653D01*
X181499D01*
Y118255D01*
X181945D01*
X182357Y118252D01*
D02*
G37*
G36*
X185056Y109636D02*
X185313Y109622D01*
X185566Y109596D01*
X185812Y109553D01*
X186050Y109492D01*
X186276Y109408D01*
X186490Y109300D01*
X186690Y109163D01*
X186850Y109021D01*
X186994Y108860D01*
X187120Y108681D01*
X187225Y108484D01*
X187310Y108271D01*
X187373Y108042D01*
X187411Y107798D01*
X187424Y107541D01*
X187418Y107368D01*
X187400Y107196D01*
X187371Y107025D01*
X187332Y106856D01*
X187282Y106689D01*
X187223Y106524D01*
X187156Y106364D01*
X187081Y106207D01*
X186998Y106055D01*
X186908Y105908D01*
X186812Y105768D01*
X186711Y105634D01*
X186605Y105508D01*
X186494Y105390D01*
X186380Y105280D01*
X186262Y105179D01*
X186460Y105166D01*
X186652Y105140D01*
X186834Y105107D01*
X187004Y105069D01*
X187157Y105029D01*
X187291Y104990D01*
X187401Y104957D01*
X187484Y104932D01*
X186997Y103062D01*
X186776Y103103D01*
X186539Y103147D01*
X186281Y103191D01*
X185996Y103233D01*
X185679Y103269D01*
X185326Y103298D01*
X184931Y103317D01*
X184490Y103324D01*
X176893D01*
Y105318D01*
X184553D01*
X184762Y105501D01*
X184944Y105690D01*
X185101Y105882D01*
X185231Y106074D01*
X185334Y106261D01*
X185408Y106441D01*
X185452Y106610D01*
X185468Y106765D01*
X185465Y106864D01*
X185455Y106959D01*
X185438Y107052D01*
X185412Y107139D01*
X185377Y107220D01*
X185332Y107294D01*
X185275Y107360D01*
X185205Y107417D01*
X185116Y107473D01*
X185012Y107521D01*
X184891Y107560D01*
X184747Y107592D01*
X184576Y107615D01*
X184374Y107632D01*
X184137Y107642D01*
X183860Y107646D01*
X176893D01*
Y109639D01*
X184797D01*
X185056Y109636D01*
D02*
G37*
G36*
X187158Y98745D02*
X176893D01*
Y100773D01*
X187424D01*
X187158Y98745D01*
D02*
G37*
G36*
X190123Y101050D02*
X190254Y101031D01*
X190381Y100998D01*
X190502Y100954D01*
X190617Y100900D01*
X190726Y100834D01*
X190828Y100759D01*
X190921Y100674D01*
X191006Y100582D01*
X191082Y100481D01*
X191148Y100373D01*
X191203Y100259D01*
X191247Y100138D01*
X191280Y100013D01*
X191300Y99883D01*
X191307Y99749D01*
X191300Y99613D01*
X191280Y99480D01*
X191247Y99352D01*
X191203Y99229D01*
X191148Y99112D01*
X191082Y99001D01*
X191006Y98899D01*
X190921Y98804D01*
X190828Y98717D01*
X190726Y98640D01*
X190617Y98573D01*
X190502Y98517D01*
X190381Y98472D01*
X190254Y98439D01*
X190123Y98418D01*
X189987Y98412D01*
X189852Y98418D01*
X189720Y98438D01*
X189593Y98470D01*
X189471Y98514D01*
X189355Y98568D01*
X189246Y98633D01*
X189144Y98708D01*
X189050Y98792D01*
X188965Y98885D01*
X188889Y98985D01*
X188823Y99093D01*
X188768Y99207D01*
X188724Y99327D01*
X188691Y99452D01*
X188671Y99582D01*
X188664Y99716D01*
X188671Y99853D01*
X188691Y99986D01*
X188724Y100115D01*
X188768Y100238D01*
X188823Y100355D01*
X188889Y100466D01*
X188965Y100569D01*
X189050Y100664D01*
X189144Y100751D01*
X189246Y100828D01*
X189355Y100896D01*
X189471Y100952D01*
X189593Y100997D01*
X189720Y101030D01*
X189852Y101050D01*
X189987Y101057D01*
X190123Y101050D01*
D02*
G37*
G36*
X191448Y97449D02*
X191563Y97239D01*
X191658Y97022D01*
X191734Y96794D01*
X191792Y96557D01*
X191833Y96310D01*
X191857Y96051D01*
X191865Y95781D01*
X191859Y95587D01*
X191840Y95391D01*
X191806Y95195D01*
X191755Y95000D01*
X191686Y94806D01*
X191598Y94614D01*
X191488Y94427D01*
X191355Y94244D01*
X191274Y94155D01*
X191182Y94065D01*
X191081Y93976D01*
X190968Y93889D01*
X190844Y93805D01*
X190708Y93723D01*
X190559Y93646D01*
X190398Y93573D01*
X190223Y93506D01*
X190034Y93445D01*
X189832Y93391D01*
X189614Y93346D01*
X189381Y93309D01*
X189133Y93282D01*
X188868Y93265D01*
X188586Y93259D01*
X188340Y93260D01*
X188098Y93264D01*
X187867Y93269D01*
X187659Y93275D01*
X187481Y93282D01*
X187343Y93287D01*
X187253Y93291D01*
X187221Y93292D01*
Y92607D01*
X185468D01*
Y93292D01*
X176893D01*
Y95338D01*
X185468D01*
Y96838D01*
X187221Y97209D01*
Y95338D01*
X188807D01*
X188952Y95342D01*
X189089Y95352D01*
X189218Y95369D01*
X189339Y95393D01*
X189452Y95423D01*
X189556Y95459D01*
X189650Y95502D01*
X189736Y95550D01*
X189813Y95604D01*
X189880Y95664D01*
X189937Y95730D01*
X189984Y95800D01*
X190021Y95876D01*
X190048Y95957D01*
X190064Y96042D01*
X190070Y96133D01*
X190064Y96266D01*
X190048Y96398D01*
X190022Y96529D01*
X189987Y96655D01*
X189943Y96776D01*
X189891Y96889D01*
X189832Y96993D01*
X189766Y97085D01*
X191314Y97651D01*
X191448Y97449D01*
D02*
G37*
G36*
X185056Y90575D02*
X185313Y90562D01*
X185566Y90536D01*
X185812Y90494D01*
X186050Y90433D01*
X186276Y90350D01*
X186490Y90241D01*
X186690Y90103D01*
X186850Y89961D01*
X186994Y89800D01*
X187120Y89622D01*
X187225Y89425D01*
X187310Y89212D01*
X187373Y88983D01*
X187411Y88739D01*
X187424Y88480D01*
X187418Y88309D01*
X187400Y88137D01*
X187371Y87967D01*
X187332Y87797D01*
X187282Y87630D01*
X187223Y87466D01*
X187156Y87305D01*
X187081Y87148D01*
X186998Y86996D01*
X186908Y86849D01*
X186812Y86709D01*
X186711Y86575D01*
X186605Y86448D01*
X186494Y86330D01*
X186380Y86220D01*
X186262Y86120D01*
X186460Y86106D01*
X186652Y86080D01*
X186834Y86047D01*
X187004Y86008D01*
X187157Y85968D01*
X187291Y85930D01*
X187401Y85897D01*
X187484Y85872D01*
X186997Y84002D01*
X186776Y84043D01*
X186539Y84088D01*
X186281Y84132D01*
X185996Y84174D01*
X185679Y84211D01*
X185326Y84241D01*
X184931Y84261D01*
X184490Y84268D01*
X176893D01*
Y86258D01*
X184553D01*
X184762Y86442D01*
X184944Y86632D01*
X185101Y86825D01*
X185231Y87016D01*
X185334Y87204D01*
X185408Y87383D01*
X185452Y87551D01*
X185468Y87705D01*
X185465Y87803D01*
X185455Y87899D01*
X185438Y87991D01*
X185412Y88079D01*
X185377Y88161D01*
X185332Y88235D01*
X185275Y88302D01*
X185205Y88361D01*
X185116Y88415D01*
X185012Y88462D01*
X184891Y88502D01*
X184747Y88534D01*
X184576Y88558D01*
X184374Y88575D01*
X184137Y88586D01*
X183860Y88589D01*
X176893D01*
Y90579D01*
X184797D01*
X185056Y90575D01*
D02*
G37*
G36*
X197883Y106625D02*
X197928Y105447D01*
X197957Y104282D01*
X197968Y103131D01*
X197964Y101996D01*
X197943Y100875D01*
X197906Y99769D01*
X197854Y98678D01*
X197787Y97603D01*
X197704Y96544D01*
X197607Y95501D01*
X197496Y94474D01*
X197370Y93464D01*
X197231Y92470D01*
X197079Y91493D01*
X196913Y90534D01*
X196910Y90514D01*
X196900Y90458D01*
X196884Y90365D01*
X196862Y90240D01*
X196834Y90085D01*
X196800Y89901D01*
X196761Y89692D01*
X196716Y89459D01*
X196665Y89204D01*
X196609Y88931D01*
X196548Y88641D01*
X196481Y88336D01*
X196410Y88020D01*
X196334Y87694D01*
X196253Y87361D01*
X196167Y87023D01*
X196102Y86770D01*
X196038Y86528D01*
X195976Y86297D01*
X195916Y86076D01*
X195857Y85866D01*
X195801Y85667D01*
X195748Y85479D01*
X195697Y85304D01*
X195649Y85140D01*
X195604Y84988D01*
X195562Y84849D01*
X195523Y84722D01*
X195488Y84608D01*
X195457Y84508D01*
X195429Y84420D01*
X195406Y84347D01*
X195418D01*
X195169Y83576D01*
X194912Y82822D01*
X194716Y83002D01*
X194505Y83164D01*
X194278Y83306D01*
X194038Y83427D01*
X193786Y83525D01*
X193523Y83599D01*
X193251Y83649D01*
X192970Y83672D01*
X193232Y84283D01*
X193488Y84905D01*
X193491D01*
X193526Y85002D01*
X193568Y85116D01*
X193614Y85246D01*
X193667Y85391D01*
X193723Y85548D01*
X193784Y85717D01*
X193848Y85897D01*
X193915Y86085D01*
X193985Y86280D01*
X194056Y86481D01*
X194128Y86686D01*
X194201Y86895D01*
X194274Y87105D01*
X194347Y87315D01*
X194419Y87525D01*
X194488Y87731D01*
X194576Y87991D01*
X194665Y88259D01*
X194754Y88532D01*
X194843Y88806D01*
X194931Y89078D01*
X195016Y89344D01*
X195097Y89601D01*
X195175Y89845D01*
X195246Y90073D01*
X195312Y90282D01*
X195370Y90469D01*
X195420Y90629D01*
X195460Y90759D01*
X195490Y90857D01*
X195509Y90918D01*
X195515Y90939D01*
X195786Y91954D01*
X196042Y92981D01*
X196282Y94018D01*
X196507Y95065D01*
X196715Y96119D01*
X196907Y97180D01*
X197082Y98246D01*
X197239Y99315D01*
X197379Y100386D01*
X197500Y101458D01*
X197602Y102529D01*
X197686Y103597D01*
X197750Y104662D01*
X197794Y105721D01*
X197817Y106773D01*
X197820Y107818D01*
X197883Y106625D01*
D02*
G37*
G36*
X189069Y79861D02*
X176893D01*
Y81862D01*
X189335D01*
X189069Y79861D01*
D02*
G37*
G36*
X193079Y82912D02*
X193290Y82880D01*
X193494Y82827D01*
X193689Y82756D01*
X193874Y82666D01*
X194050Y82560D01*
X194213Y82437D01*
X194364Y82300D01*
X194501Y82149D01*
X194624Y81986D01*
X194730Y81810D01*
X194820Y81625D01*
X194891Y81429D01*
X194943Y81226D01*
X194976Y81015D01*
X194987Y80798D01*
X194976Y80581D01*
X194943Y80370D01*
X194891Y80167D01*
X194820Y79971D01*
X194730Y79786D01*
X194624Y79611D01*
X194501Y79448D01*
X194364Y79297D01*
X194213Y79161D01*
X194050Y79038D01*
X193874Y78932D01*
X193689Y78843D01*
X193494Y78772D01*
X193290Y78720D01*
X193079Y78688D01*
X192862Y78677D01*
X192645Y78688D01*
X192434Y78720D01*
X192230Y78772D01*
X192036Y78843D01*
X191850Y78932D01*
X191675Y79038D01*
X191512Y79161D01*
X191361Y79297D01*
X191225Y79448D01*
X191102Y79611D01*
X190996Y79786D01*
X190907Y79971D01*
X190836Y80167D01*
X190784Y80370D01*
X190752Y80581D01*
X190741Y80798D01*
X190752Y81015D01*
X190784Y81226D01*
X190836Y81429D01*
X190907Y81625D01*
X190996Y81810D01*
X191102Y81986D01*
X191225Y82149D01*
X191361Y82300D01*
X191512Y82437D01*
X191675Y82560D01*
X191850Y82666D01*
X192036Y82756D01*
X192230Y82827D01*
X192434Y82880D01*
X192645Y82912D01*
X192862Y82923D01*
X193079Y82912D01*
D02*
G37*
G36*
X41721Y146244D02*
X42311Y145968D01*
X42862Y145574D01*
X43256Y145023D01*
X43532Y144433D01*
X43610Y143763D01*
Y137858D01*
X43532Y137189D01*
X43256Y136598D01*
X42862Y136047D01*
X42311Y135653D01*
X41721Y135378D01*
X41051Y135299D01*
X40224D01*
X39752Y135220D01*
X39319Y135063D01*
X38965Y134787D01*
X38689Y134393D01*
X38532Y134000D01*
X38453Y133527D01*
Y124275D01*
X39516D01*
Y120456D01*
X38492D01*
Y114629D01*
X38807Y114472D01*
X39043Y114236D01*
X39240Y113960D01*
X39254Y113900D01*
X39164Y113448D01*
X39254Y112997D01*
X39240Y112937D01*
X39043Y112661D01*
X38807Y112425D01*
X38492Y112267D01*
Y106440D01*
X39516D01*
Y102622D01*
X38453D01*
Y93370D01*
X38532Y92897D01*
X38689Y92503D01*
X38965Y92110D01*
X39319Y91834D01*
X39752Y91677D01*
X40224Y91598D01*
X41051D01*
X41721Y91519D01*
X42311Y91244D01*
X42862Y90850D01*
X43256Y90299D01*
X43532Y89708D01*
X43610Y89039D01*
Y83133D01*
X43532Y82464D01*
X43256Y81874D01*
X42862Y81322D01*
X42311Y80929D01*
X41721Y80653D01*
X41051Y80574D01*
X28335D01*
X27941Y80535D01*
X27547Y80378D01*
X27232Y80102D01*
X26957Y79787D01*
X26799Y79393D01*
X26760Y79000D01*
Y73488D01*
X27547D01*
Y78251D01*
X32626D01*
Y65732D01*
X20106D01*
Y78251D01*
X25185D01*
Y73488D01*
X25972D01*
Y79039D01*
X26051Y79669D01*
X26327Y80220D01*
X26681Y80692D01*
X27154Y81047D01*
X27744Y81283D01*
X28335Y81362D01*
X41051D01*
X41524Y81441D01*
X41917Y81598D01*
X42311Y81874D01*
X42587Y82267D01*
X42744Y82661D01*
X42823Y83133D01*
Y89039D01*
X42744Y89511D01*
X42587Y89905D01*
X42311Y90299D01*
X41917Y90574D01*
X41524Y90732D01*
X41051Y90811D01*
X40224D01*
X39555Y90889D01*
X38925Y91165D01*
X38413Y91559D01*
X38020Y92110D01*
X37744Y92700D01*
X37665Y93370D01*
Y102228D01*
X28335D01*
X27941Y102189D01*
X27547Y102031D01*
X27232Y101755D01*
X26957Y101441D01*
X26799Y101047D01*
X26760Y100653D01*
Y95141D01*
X27547D01*
Y99905D01*
X32626D01*
Y87385D01*
X20106D01*
Y99905D01*
X25185D01*
Y95141D01*
X25972D01*
Y100692D01*
X26051Y101322D01*
X26327Y101874D01*
X26681Y102346D01*
X27154Y102700D01*
X27744Y102937D01*
X28335Y103015D01*
X36602D01*
Y106440D01*
X37626D01*
Y112267D01*
X37311Y112425D01*
X37075Y112661D01*
X36878Y112937D01*
X36799Y113291D01*
Y113606D01*
X36878Y113960D01*
X37075Y114236D01*
X37311Y114472D01*
X37626Y114629D01*
Y120456D01*
X36602D01*
Y123881D01*
X28335D01*
X27941Y123842D01*
X27547Y123685D01*
X27232Y123409D01*
X26957Y123094D01*
X26799Y122700D01*
X26760Y122307D01*
Y116795D01*
X27547D01*
Y121559D01*
X32626D01*
Y109039D01*
X20106D01*
Y121559D01*
X25185D01*
Y116795D01*
X25972D01*
Y122346D01*
X26051Y122976D01*
X26327Y123527D01*
X26681Y124000D01*
X27154Y124354D01*
X27744Y124590D01*
X28335Y124669D01*
X37665D01*
Y133527D01*
X37744Y134196D01*
X38020Y134787D01*
X38413Y135338D01*
X38925Y135732D01*
X39555Y136007D01*
X40224Y136086D01*
X41051D01*
X41524Y136165D01*
X41917Y136322D01*
X42311Y136598D01*
X42587Y136992D01*
X42744Y137385D01*
X42823Y137858D01*
Y143763D01*
X42744Y144236D01*
X42587Y144630D01*
X42311Y145023D01*
X41917Y145299D01*
X41524Y145456D01*
X41051Y145535D01*
X28335D01*
X27941Y145496D01*
X27547Y145338D01*
X27232Y145063D01*
X26957Y144748D01*
X26799Y144354D01*
X26760Y143960D01*
Y138448D01*
X27547D01*
Y143212D01*
X32626D01*
Y130693D01*
X20106D01*
Y143212D01*
X25185D01*
Y138448D01*
X25972D01*
Y144000D01*
X26051Y144630D01*
X26327Y145181D01*
X26681Y145653D01*
X27154Y146008D01*
X27744Y146244D01*
X28335Y146322D01*
X41051D01*
X41721Y146244D01*
D02*
G37*
G36*
X176679Y141449D02*
X176196Y140888D01*
X175725Y140285D01*
X175267Y139640D01*
X174823Y138956D01*
X174392Y138233D01*
X173974Y137471D01*
X173570Y136673D01*
X173180Y135838D01*
X172805Y134968D01*
X172443Y134065D01*
X172096Y133128D01*
X171763Y132159D01*
X171445Y131159D01*
X171142Y130129D01*
X170853Y129070D01*
X170580Y127983D01*
X170322Y126869D01*
X170080Y125729D01*
X169853Y124564D01*
X169642Y123375D01*
X169447Y122163D01*
X169268Y120929D01*
X169106Y119674D01*
X168960Y118399D01*
X168830Y117105D01*
X168717Y115793D01*
X168621Y114464D01*
X168543Y113119D01*
X168481Y111760D01*
X168437Y110386D01*
X168410Y108999D01*
X168401Y107601D01*
X168406Y106652D01*
X168419Y105714D01*
X168440Y104787D01*
X168470Y103871D01*
X168509Y102966D01*
X168555Y102071D01*
X168610Y101188D01*
X168673Y100317D01*
X168744Y99457D01*
X168823Y98608D01*
X168910Y97772D01*
X169004Y96947D01*
X169106Y96134D01*
X169216Y95333D01*
X169333Y94544D01*
X169458Y93768D01*
X169589Y93003D01*
X169728Y92252D01*
X169874Y91513D01*
X170027Y90787D01*
X170187Y90073D01*
X170353Y89373D01*
X170527Y88685D01*
X170707Y88011D01*
X170893Y87350D01*
X171086Y86703D01*
X171285Y86069D01*
X171491Y85449D01*
X171702Y84842D01*
X171920Y84250D01*
X172144Y83671D01*
X172373Y83107D01*
X172609Y82556D01*
X172850Y82021D01*
X173096Y81499D01*
X173348Y80993D01*
X173606Y80500D01*
X173869Y80023D01*
X174137Y79561D01*
X174410Y79113D01*
X174688Y78681D01*
X174971Y78264D01*
X175260Y77862D01*
X175552Y77476D01*
X175850Y77106D01*
X176152Y76751D01*
X176459Y76412D01*
X176770Y76089D01*
X177085Y75783D01*
X177404Y75492D01*
X177728Y75217D01*
X178056Y74959D01*
X178387Y74718D01*
X178723Y74493D01*
X179062Y74285D01*
X179404Y74094D01*
X179751Y73920D01*
X180101Y73763D01*
X180454Y73623D01*
X180810Y73501D01*
X181170Y73396D01*
X181533Y73308D01*
X181898Y73238D01*
X182267Y73186D01*
X182545Y73162D01*
X182823Y73154D01*
X183099Y73160D01*
X183375Y73182D01*
X183650Y73219D01*
X183924Y73270D01*
X184198Y73335D01*
X184470Y73415D01*
X184741Y73509D01*
X185012Y73617D01*
X185281Y73739D01*
X185549Y73873D01*
X185815Y74022D01*
X186081Y74183D01*
X186344Y74357D01*
X186607Y74543D01*
X186868Y74742D01*
X187127Y74953D01*
X187385Y75176D01*
X187641Y75411D01*
X187895Y75657D01*
X188148Y75915D01*
X188398Y76184D01*
X188647Y76463D01*
X188894Y76754D01*
X189138Y77055D01*
X189381Y77366D01*
X189621Y77688D01*
X189860Y78019D01*
X190096Y78360D01*
X190329Y78710D01*
X190561Y79070D01*
X190768Y78825D01*
X191001Y78604D01*
X191257Y78410D01*
X191535Y78245D01*
X191831Y78111D01*
X192143Y78011D01*
X192470Y77946D01*
X192809Y77920D01*
X192531Y77401D01*
X192247Y76897D01*
X191958Y76407D01*
X191664Y75931D01*
X191366Y75471D01*
X191062Y75026D01*
X190754Y74595D01*
X190442Y74180D01*
X190126Y73781D01*
X189806Y73396D01*
X189481Y73028D01*
X189153Y72675D01*
X188822Y72338D01*
X188487Y72017D01*
X188149Y71712D01*
X187808Y71424D01*
X187464Y71152D01*
X187118Y70896D01*
X186768Y70657D01*
X186416Y70435D01*
X186063Y70231D01*
X185706Y70043D01*
X185348Y69872D01*
X184989Y69719D01*
X184627Y69583D01*
X184264Y69465D01*
X183900Y69365D01*
X183535Y69283D01*
X183168Y69218D01*
X182801Y69172D01*
X182433Y69144D01*
X182065Y69135D01*
X181658Y69147D01*
X181253Y69181D01*
X180851Y69237D01*
X180450Y69316D01*
X180053Y69416D01*
X179658Y69539D01*
X179265Y69683D01*
X178876Y69849D01*
X178490Y70036D01*
X178107Y70245D01*
X177728Y70474D01*
X177352Y70724D01*
X176980Y70995D01*
X176611Y71286D01*
X176247Y71597D01*
X175887Y71928D01*
X175531Y72279D01*
X175179Y72650D01*
X174832Y73041D01*
X174490Y73450D01*
X174153Y73879D01*
X173820Y74327D01*
X173493Y74794D01*
X173171Y75279D01*
X172854Y75782D01*
X172543Y76304D01*
X172238Y76844D01*
X171939Y77402D01*
X171646Y77977D01*
X171359Y78570D01*
X171078Y79180D01*
X170803Y79807D01*
X170536Y80451D01*
X170275Y81112D01*
X170021Y81789D01*
X169773Y82483D01*
X169534Y83193D01*
X169301Y83919D01*
X169076Y84661D01*
X168859Y85419D01*
X168649Y86192D01*
X168447Y86980D01*
X168254Y87783D01*
X168068Y88602D01*
X167892Y89435D01*
X167723Y90282D01*
X167563Y91144D01*
X167412Y92020D01*
X167270Y92911D01*
X167137Y93814D01*
X167013Y94732D01*
X166899Y95663D01*
X166794Y96607D01*
X166698Y97565D01*
X166613Y98535D01*
X166537Y99518D01*
X166472Y100514D01*
X166417Y101521D01*
X166372Y102541D01*
X166338Y103574D01*
X166315Y104617D01*
X166302Y105673D01*
X166300Y106740D01*
X166310Y107818D01*
X166343Y109282D01*
X166400Y110722D01*
X166481Y112140D01*
X166585Y113535D01*
X166712Y114906D01*
X166861Y116253D01*
X167031Y117575D01*
X167222Y118872D01*
X167434Y120145D01*
X167665Y121391D01*
X167915Y122611D01*
X168183Y123806D01*
X168470Y124973D01*
X168773Y126113D01*
X169093Y127226D01*
X169429Y128310D01*
X169781Y129366D01*
X170148Y130393D01*
X170528Y131391D01*
X170923Y132360D01*
X171330Y133299D01*
X171750Y134207D01*
X172182Y135085D01*
X172625Y135932D01*
X173079Y136747D01*
X173543Y137530D01*
X174016Y138281D01*
X174498Y138999D01*
X174988Y139685D01*
X175487Y140337D01*
X175992Y140955D01*
X176503Y141539D01*
X176679Y141449D01*
D02*
G37*
%LPC*%
G36*
X182475Y124461D02*
X182023D01*
X181910Y124461D01*
X181789Y124460D01*
X181661Y124458D01*
X181528Y124456D01*
X181390Y124452D01*
X181247Y124447D01*
X181101Y124441D01*
X180951Y124432D01*
X180800Y124421D01*
X180648Y124407D01*
X180495Y124391D01*
X180342Y124372D01*
X180190Y124351D01*
X180039Y124325D01*
X179891Y124296D01*
X179746Y124263D01*
X179605Y124225D01*
X179469Y124184D01*
X179338Y124138D01*
X179214Y124087D01*
X179096Y124031D01*
X178986Y123970D01*
X178884Y123902D01*
X178792Y123830D01*
X178709Y123751D01*
X178637Y123666D01*
X178577Y123575D01*
X178528Y123477D01*
X178493Y123371D01*
X178471Y123258D01*
X178463Y123138D01*
X178471Y123009D01*
X178493Y122887D01*
X178528Y122774D01*
X178577Y122668D01*
X178637Y122570D01*
X178709Y122479D01*
X178792Y122395D01*
X178885Y122318D01*
X178987Y122247D01*
X179097Y122182D01*
X179215Y122123D01*
X179341Y122070D01*
X179472Y122021D01*
X179609Y121978D01*
X179751Y121940D01*
X179896Y121905D01*
X180045Y121876D01*
X180197Y121850D01*
X180350Y121828D01*
X180505Y121809D01*
X180659Y121793D01*
X180814Y121780D01*
X180967Y121769D01*
X181118Y121761D01*
X181266Y121755D01*
X181412Y121750D01*
X181553Y121748D01*
X181689Y121745D01*
X181819Y121745D01*
X181944Y121744D01*
X182061D01*
X182170Y121745D01*
X182384D01*
X182501Y121745D01*
X182625Y121747D01*
X182754Y121749D01*
X182887Y121753D01*
X183024Y121758D01*
X183165Y121765D01*
X183308Y121774D01*
X183452Y121785D01*
X183598Y121799D01*
X183745Y121815D01*
X183891Y121834D01*
X184036Y121857D01*
X184179Y121882D01*
X184320Y121912D01*
X184457Y121946D01*
X184591Y121983D01*
X184721Y122025D01*
X184845Y122072D01*
X184963Y122123D01*
X185075Y122180D01*
X185179Y122242D01*
X185275Y122310D01*
X185363Y122384D01*
X185441Y122464D01*
X185510Y122550D01*
X185567Y122643D01*
X185612Y122743D01*
X185646Y122850D01*
X185667Y122964D01*
X185674Y123086D01*
X185667Y123215D01*
X185646Y123337D01*
X185613Y123450D01*
X185567Y123555D01*
X185510Y123652D01*
X185443Y123743D01*
X185365Y123826D01*
X185277Y123903D01*
X185181Y123973D01*
X185077Y124037D01*
X184966Y124096D01*
X184848Y124149D01*
X184723Y124196D01*
X184594Y124238D01*
X184460Y124276D01*
X184321Y124309D01*
X184180Y124338D01*
X184036Y124363D01*
X183890Y124384D01*
X183743Y124402D01*
X183595Y124418D01*
X183448Y124430D01*
X183301Y124440D01*
X183155Y124447D01*
X183012Y124453D01*
X182872Y124456D01*
X182735Y124459D01*
X182603Y124460D01*
X182475Y124461D01*
D02*
G37*
G36*
X183148Y116228D02*
Y113653D01*
X183480Y113664D01*
X183789Y113682D01*
X184075Y113710D01*
X184338Y113747D01*
X184579Y113794D01*
X184798Y113849D01*
X184994Y113915D01*
X185169Y113990D01*
X185323Y114075D01*
X185455Y114171D01*
X185567Y114277D01*
X185657Y114394D01*
X185727Y114523D01*
X185777Y114662D01*
X185807Y114813D01*
X185816Y114976D01*
X185803Y115158D01*
X185765Y115323D01*
X185702Y115472D01*
X185615Y115606D01*
X185507Y115724D01*
X185378Y115829D01*
X185230Y115920D01*
X185063Y115999D01*
X184897Y116054D01*
X184706Y116101D01*
X184492Y116140D01*
X184257Y116172D01*
X184004Y116197D01*
X183733Y116214D01*
X183447Y116224D01*
X183148Y116228D01*
D02*
G37*
%LPD*%
D36*
X150395Y10967D02*
D03*
X60395D02*
D03*
X186395Y200967D02*
D03*
X80395D02*
D03*
D49*
X243988Y91898D02*
D03*
Y101898D02*
D03*
Y111898D02*
D03*
Y61898D02*
D03*
Y51898D02*
D03*
Y71898D02*
D03*
Y81898D02*
D03*
X232915Y198071D02*
D03*
Y188071D02*
D03*
D50*
X243988Y121898D02*
D03*
X232915Y178071D02*
D03*
D87*
X38020Y113448D02*
D03*
X69648Y113449D02*
D03*
X38032Y113425D02*
D03*
X69672Y113451D02*
D03*
X35473Y115984D02*
D03*
X40591D02*
D03*
Y110866D02*
D03*
X67112Y116010D02*
D03*
X72231D02*
D03*
X67112Y110892D02*
D03*
X72231D02*
D03*
X35473Y110866D02*
D03*
D88*
X80395Y10967D02*
D03*
X90395D02*
D03*
X100395D02*
D03*
X110395D02*
D03*
X120395D02*
D03*
X130395D02*
D03*
X140395D02*
D03*
X50395D02*
D03*
X40395D02*
D03*
X30395D02*
D03*
X20395D02*
D03*
X10395D02*
D03*
X176395Y200967D02*
D03*
X156395D02*
D03*
X146395D02*
D03*
X136395D02*
D03*
X126395D02*
D03*
X116395D02*
D03*
X106395D02*
D03*
X96395D02*
D03*
X166395D02*
D03*
X70395D02*
D03*
X60395D02*
D03*
X50395D02*
D03*
X40395D02*
D03*
X30395D02*
D03*
X20395D02*
D03*
X10395D02*
D03*
D89*
X592Y31142D02*
D03*
Y141142D02*
D03*
D03*
X241181Y31142D02*
D03*
Y141142D02*
D03*
X205591Y11142D02*
D03*
X200591Y201142D02*
D03*
X592Y141142D02*
D03*
Y31142D02*
D03*
D91*
X63962Y100293D02*
D03*
X147276Y29028D02*
D03*
X43381Y100293D02*
D03*
X44436Y67220D02*
D03*
X42742Y71992D02*
D03*
X39430Y29069D02*
D03*
X51221Y29028D02*
D03*
X25888Y29139D02*
D03*
X44394Y76835D02*
D03*
X66827Y55701D02*
D03*
X59866Y96808D02*
D03*
X66295Y29028D02*
D03*
X47842Y97228D02*
D03*
X61967Y106533D02*
D03*
X63175Y93726D02*
D03*
X55312Y58528D02*
D03*
X52178D02*
D03*
X52153Y61687D02*
D03*
X66827Y64541D02*
D03*
X59637Y102032D02*
D03*
X45515Y106992D02*
D03*
X47842Y57836D02*
D03*
X47849Y62407D02*
D03*
X44548Y94461D02*
D03*
X47912Y101900D02*
D03*
X62445Y75356D02*
D03*
X55336Y61687D02*
D03*
X4862Y44598D02*
D03*
D102*
X147089Y28890D02*
D03*
X66295Y29028D02*
D03*
X51221Y29028D02*
D03*
X39534Y29061D02*
D03*
X25888Y29139D02*
D03*
X4862Y44598D02*
D03*
M02*
