G04*
G04 #@! TF.GenerationSoftware,Altium Limited,Altium Designer,20.1.11 (218)*
G04*
G04 Layer_Color=2752767*
%FSLAX25Y25*%
%MOIN*%
G70*
G04*
G04 #@! TF.SameCoordinates,FBA81C19-FCCB-422B-9B6C-78DF9D3B5762*
G04*
G04*
G04 #@! TF.FilePolarity,Positive*
G04*
G01*
G75*
%ADD106C,0.00200*%
%ADD107C,0.00267*%
D106*
X37232Y112625D02*
Y114225D01*
X38832D01*
Y112625D01*
X37232D01*
X68872Y112651D02*
Y114251D01*
X70472D01*
Y112651D01*
X68872D01*
X243988Y91098D02*
X243188Y92698D01*
X244788D01*
X243988Y91098D01*
Y101098D02*
X243188Y102698D01*
X244788D01*
X243988Y101098D01*
Y121098D02*
X243188Y122698D01*
X244788D01*
X243988Y121098D01*
Y111098D02*
X243188Y112698D01*
X244788D01*
X243988Y111098D01*
Y61098D02*
X243188Y62698D01*
X244788D01*
X243988Y61098D01*
Y51098D02*
X243188Y52698D01*
X244788D01*
X243988Y51098D01*
Y71098D02*
X243188Y72698D01*
X244788D01*
X243988Y71098D01*
Y81098D02*
X243188Y82698D01*
X244788D01*
X243988Y81098D01*
X232915Y197271D02*
X232115Y198871D01*
X233715D01*
X232915Y197271D01*
Y177271D02*
X232115Y178871D01*
X233715D01*
X232915Y177271D01*
Y187271D02*
X232115Y188871D01*
X233715D01*
X232915Y187271D01*
X592Y30342D02*
X991Y30742D01*
X1391D01*
X991Y31142D01*
X1391Y31542D01*
X991D01*
X592Y31942D01*
X192Y31542D01*
X-209D01*
X192Y31142D01*
X-209Y30742D01*
X192D01*
X592Y30342D01*
Y140342D02*
X991Y140742D01*
X1391D01*
X991Y141142D01*
X1391Y141542D01*
X991D01*
X592Y141942D01*
X192Y141542D01*
X-209D01*
X192Y141142D01*
X-209Y140742D01*
X192D01*
X592Y140342D01*
X991Y140742D01*
X1391D01*
X991Y141142D01*
X1391Y141542D01*
X991D01*
X592Y141942D01*
X192Y141542D01*
X-209D01*
X192Y141142D01*
X-209Y140742D01*
X192D01*
X592Y140342D01*
X241181Y30342D02*
X241581Y30742D01*
X241981D01*
X241581Y31142D01*
X241981Y31542D01*
X241581D01*
X241181Y31942D01*
X240781Y31542D01*
X240381D01*
X240781Y31142D01*
X240381Y30742D01*
X240781D01*
X241181Y30342D01*
Y140342D02*
X241581Y140742D01*
X241981D01*
X241581Y141142D01*
X241981Y141542D01*
X241581D01*
X241181Y141942D01*
X240781Y141542D01*
X240381D01*
X240781Y141142D01*
X240381Y140742D01*
X240781D01*
X241181Y140342D01*
X205591Y10342D02*
X205991Y10742D01*
X206391D01*
X205991Y11142D01*
X206391Y11542D01*
X205991D01*
X205591Y11942D01*
X205191Y11542D01*
X204791D01*
X205191Y11142D01*
X204791Y10742D01*
X205191D01*
X205591Y10342D01*
X200591Y200342D02*
X200992Y200742D01*
X201392D01*
X200992Y201142D01*
X201392Y201542D01*
X200992D01*
X200591Y201942D01*
X200191Y201542D01*
X199792D01*
X200191Y201142D01*
X199792Y200742D01*
X200191D01*
X200591Y200342D01*
X592Y140342D02*
X991Y140742D01*
X1391D01*
X991Y141142D01*
X1391Y141542D01*
X991D01*
X592Y141942D01*
X192Y141542D01*
X-209D01*
X192Y141142D01*
X-209Y140742D01*
X192D01*
X592Y140342D01*
Y30342D02*
X991Y30742D01*
X1391D01*
X991Y31142D01*
X1391Y31542D01*
X991D01*
X592Y31942D01*
X192Y31542D01*
X-209D01*
X192Y31142D01*
X-209Y30742D01*
X192D01*
X592Y30342D01*
X34673Y115184D02*
Y116784D01*
X36273D01*
Y115184D01*
X34673D01*
X39791D02*
Y116784D01*
X41391D01*
Y115184D01*
X39791D01*
Y110066D02*
Y111666D01*
X41391D01*
Y110066D01*
X39791D01*
X63162Y99493D02*
X63562Y100293D01*
X63162Y101093D01*
X63962Y100693D01*
X64762Y101093D01*
X64362Y100293D01*
X64762Y99493D01*
X63962Y99893D01*
X63162Y99493D01*
X66312Y115210D02*
Y116810D01*
X67913D01*
Y115210D01*
X66312D01*
X71431D02*
Y116810D01*
X73031D01*
Y115210D01*
X71431D01*
X66312Y110092D02*
Y111692D01*
X67913D01*
Y110092D01*
X66312D01*
X71431D02*
Y111692D01*
X73031D01*
Y110092D01*
X71431D01*
X34673Y110066D02*
Y111666D01*
X36273D01*
Y110066D01*
X34673D01*
X146476Y28227D02*
X146876Y29028D01*
X146476Y29827D01*
X147276Y29427D01*
X148076Y29827D01*
X147676Y29028D01*
X148076Y28227D01*
X147276Y28627D01*
X146476Y28227D01*
X42581Y99493D02*
X42981Y100293D01*
X42581Y101093D01*
X43381Y100693D01*
X44181Y101093D01*
X43781Y100293D01*
X44181Y99493D01*
X43381Y99893D01*
X42581Y99493D01*
X43636Y66420D02*
X44036Y67220D01*
X43636Y68020D01*
X44436Y67620D01*
X45236Y68020D01*
X44836Y67220D01*
X45236Y66420D01*
X44436Y66820D01*
X43636Y66420D01*
X41942Y71192D02*
X42342Y71992D01*
X41942Y72792D01*
X42742Y72392D01*
X43542Y72792D01*
X43142Y71992D01*
X43542Y71192D01*
X42742Y71592D01*
X41942Y71192D01*
X38630Y28269D02*
X39030Y29069D01*
X38630Y29869D01*
X39430Y29469D01*
X40230Y29869D01*
X39830Y29069D01*
X40230Y28269D01*
X39430Y28669D01*
X38630Y28269D01*
X50420Y28227D02*
X50820Y29028D01*
X50420Y29827D01*
X51221Y29427D01*
X52021Y29827D01*
X51621Y29028D01*
X52021Y28227D01*
X51221Y28627D01*
X50420Y28227D01*
X25088Y28339D02*
X25488Y29139D01*
X25088Y29939D01*
X25888Y29539D01*
X26688Y29939D01*
X26288Y29139D01*
X26688Y28339D01*
X25888Y28739D01*
X25088Y28339D01*
X43593Y76035D02*
X43993Y76835D01*
X43593Y77635D01*
X44394Y77235D01*
X45193Y77635D01*
X44793Y76835D01*
X45193Y76035D01*
X44394Y76435D01*
X43593Y76035D01*
X66027Y54901D02*
X66427Y55701D01*
X66027Y56501D01*
X66827Y56101D01*
X67627Y56501D01*
X67227Y55701D01*
X67627Y54901D01*
X66827Y55301D01*
X66027Y54901D01*
X59066Y96008D02*
X59466Y96808D01*
X59066Y97608D01*
X59866Y97208D01*
X60666Y97608D01*
X60266Y96808D01*
X60666Y96008D01*
X59866Y96408D01*
X59066Y96008D01*
X65495Y28228D02*
X65895Y29028D01*
X65495Y29828D01*
X66295Y29428D01*
X67095Y29828D01*
X66695Y29028D01*
X67095Y28228D01*
X66295Y28628D01*
X65495Y28228D01*
X47042Y96428D02*
X47442Y97228D01*
X47042Y98028D01*
X47842Y97628D01*
X48642Y98028D01*
X48242Y97228D01*
X48642Y96428D01*
X47842Y96828D01*
X47042Y96428D01*
X61167Y105733D02*
X61567Y106533D01*
X61167Y107333D01*
X61967Y106933D01*
X62767Y107333D01*
X62367Y106533D01*
X62767Y105733D01*
X61967Y106133D01*
X61167Y105733D01*
X62375Y92927D02*
X62775Y93726D01*
X62375Y94526D01*
X63175Y94126D01*
X63975Y94526D01*
X63575Y93726D01*
X63975Y92927D01*
X63175Y93326D01*
X62375Y92927D01*
X54512Y57728D02*
X54912Y58528D01*
X54512Y59328D01*
X55312Y58928D01*
X56112Y59328D01*
X55712Y58528D01*
X56112Y57728D01*
X55312Y58128D01*
X54512Y57728D01*
X51378D02*
X51778Y58528D01*
X51378Y59328D01*
X52178Y58928D01*
X52978Y59328D01*
X52578Y58528D01*
X52978Y57728D01*
X52178Y58128D01*
X51378Y57728D01*
X51353Y60887D02*
X51753Y61687D01*
X51353Y62487D01*
X52153Y62087D01*
X52953Y62487D01*
X52553Y61687D01*
X52953Y60887D01*
X52153Y61287D01*
X51353Y60887D01*
X66027Y63741D02*
X66427Y64541D01*
X66027Y65341D01*
X66827Y64941D01*
X67627Y65341D01*
X67227Y64541D01*
X67627Y63741D01*
X66827Y64141D01*
X66027Y63741D01*
X58837Y101232D02*
X59237Y102032D01*
X58837Y102831D01*
X59637Y102431D01*
X60437Y102831D01*
X60037Y102032D01*
X60437Y101232D01*
X59637Y101631D01*
X58837Y101232D01*
X44715Y106192D02*
X45115Y106992D01*
X44715Y107792D01*
X45515Y107392D01*
X46315Y107792D01*
X45915Y106992D01*
X46315Y106192D01*
X45515Y106592D01*
X44715Y106192D01*
X47042Y57036D02*
X47442Y57836D01*
X47042Y58636D01*
X47842Y58236D01*
X48642Y58636D01*
X48242Y57836D01*
X48642Y57036D01*
X47842Y57436D01*
X47042Y57036D01*
X47049Y61607D02*
X47449Y62407D01*
X47049Y63207D01*
X47849Y62807D01*
X48649Y63207D01*
X48249Y62407D01*
X48649Y61607D01*
X47849Y62007D01*
X47049Y61607D01*
X43748Y93661D02*
X44148Y94461D01*
X43748Y95261D01*
X44548Y94861D01*
X45348Y95261D01*
X44948Y94461D01*
X45348Y93661D01*
X44548Y94061D01*
X43748Y93661D01*
X47113Y101100D02*
X47513Y101900D01*
X47113Y102700D01*
X47912Y102300D01*
X48713Y102700D01*
X48313Y101900D01*
X48713Y101100D01*
X47912Y101500D01*
X47113Y101100D01*
X61645Y74556D02*
X62045Y75356D01*
X61645Y76156D01*
X62445Y75756D01*
X63245Y76156D01*
X62845Y75356D01*
X63245Y74556D01*
X62445Y74956D01*
X61645Y74556D01*
X54536Y60887D02*
X54936Y61687D01*
X54536Y62487D01*
X55336Y62087D01*
X56136Y62487D01*
X55736Y61687D01*
X56136Y60887D01*
X55336Y61287D01*
X54536Y60887D01*
X4062Y43798D02*
X4462Y44598D01*
X4062Y45398D01*
X4862Y44998D01*
X5662Y45398D01*
X5262Y44598D01*
X5662Y43798D01*
X4862Y44198D01*
X4062Y43798D01*
D107*
X81195Y10967D02*
G03*
X81195Y10967I-800J0D01*
G01*
X91195D02*
G03*
X91195Y10967I-800J0D01*
G01*
X101195D02*
G03*
X101195Y10967I-800J0D01*
G01*
X111195D02*
G03*
X111195Y10967I-800J0D01*
G01*
X121195D02*
G03*
X121195Y10967I-800J0D01*
G01*
X131195D02*
G03*
X131195Y10967I-800J0D01*
G01*
X141195D02*
G03*
X141195Y10967I-800J0D01*
G01*
X151195D02*
G03*
X151195Y10967I-800J0D01*
G01*
X61195D02*
G03*
X61195Y10967I-800J0D01*
G01*
X51195D02*
G03*
X51195Y10967I-800J0D01*
G01*
X41195D02*
G03*
X41195Y10967I-800J0D01*
G01*
X31195D02*
G03*
X31195Y10967I-800J0D01*
G01*
X21195D02*
G03*
X21195Y10967I-800J0D01*
G01*
X11195D02*
G03*
X11195Y10967I-800J0D01*
G01*
X187195Y200967D02*
G03*
X187195Y200967I-800J0D01*
G01*
X177195D02*
G03*
X177195Y200967I-800J0D01*
G01*
X157195D02*
G03*
X157195Y200967I-800J0D01*
G01*
X147195D02*
G03*
X147195Y200967I-800J0D01*
G01*
X137195D02*
G03*
X137195Y200967I-800J0D01*
G01*
X127195D02*
G03*
X127195Y200967I-800J0D01*
G01*
X117195D02*
G03*
X117195Y200967I-800J0D01*
G01*
X107195D02*
G03*
X107195Y200967I-800J0D01*
G01*
X97195D02*
G03*
X97195Y200967I-800J0D01*
G01*
X167195D02*
G03*
X167195Y200967I-800J0D01*
G01*
X81195D02*
G03*
X81195Y200967I-800J0D01*
G01*
X71195D02*
G03*
X71195Y200967I-800J0D01*
G01*
X61195D02*
G03*
X61195Y200967I-800J0D01*
G01*
X51195D02*
G03*
X51195Y200967I-800J0D01*
G01*
X41195D02*
G03*
X41195Y200967I-800J0D01*
G01*
X31195D02*
G03*
X31195Y200967I-800J0D01*
G01*
X21195D02*
G03*
X21195Y200967I-800J0D01*
G01*
X11195D02*
G03*
X11195Y200967I-800J0D01*
G01*
M02*
