G04*
G04 #@! TF.GenerationSoftware,Altium Limited,Altium Designer,20.1.11 (218)*
G04*
G04 Layer_Color=2752767*
%FSLAX25Y25*%
%MOIN*%
G70*
G04*
G04 #@! TF.SameCoordinates,FBA81C19-FCCB-422B-9B6C-78DF9D3B5762*
G04*
G04*
G04 #@! TF.FilePolarity,Positive*
G04*
G01*
G75*
%ADD106C,0.00200*%
D106*
X64381Y124749D02*
Y124349D01*
X65181D01*
Y124749D01*
X65582D01*
Y125549D01*
X65181D01*
Y125949D01*
X64381D01*
Y125549D01*
X63981D01*
Y124749D01*
X64381D01*
X66848Y171500D02*
Y171099D01*
X67648D01*
Y171500D01*
X68048D01*
Y172300D01*
X67648D01*
Y172699D01*
X66848D01*
Y172300D01*
X66448D01*
Y171500D01*
X66848D01*
X59958Y162977D02*
Y162577D01*
X60758D01*
Y162977D01*
X61158D01*
Y163777D01*
X60758D01*
Y164177D01*
X59958D01*
Y163777D01*
X59558D01*
Y162977D01*
X59958D01*
X42799D02*
Y162577D01*
X43599D01*
Y162977D01*
X43999D01*
Y163777D01*
X43599D01*
Y164177D01*
X42799D01*
Y163777D01*
X42399D01*
Y162977D01*
X42799D01*
X88332Y161825D02*
Y161425D01*
X89132D01*
Y161825D01*
X89532D01*
Y162625D01*
X89132D01*
Y163025D01*
X88332D01*
Y162625D01*
X87932D01*
Y161825D01*
X88332D01*
X43231Y171686D02*
Y171286D01*
X44031D01*
Y171686D01*
X44431D01*
Y172486D01*
X44031D01*
Y172886D01*
X43231D01*
Y172486D01*
X42831D01*
Y171686D01*
X43231D01*
X39405Y176310D02*
Y175910D01*
X40205D01*
Y176310D01*
X40605D01*
Y177110D01*
X40205D01*
Y177510D01*
X39405D01*
Y177110D01*
X39005D01*
Y176310D01*
X39405D01*
X98282Y165323D02*
Y164923D01*
X99082D01*
Y165323D01*
X99482D01*
Y166123D01*
X99082D01*
Y166523D01*
X98282D01*
Y166123D01*
X97882D01*
Y165323D01*
X98282D01*
X43549Y29336D02*
Y28936D01*
X44349D01*
Y29336D01*
X44749D01*
Y30136D01*
X44349D01*
Y30536D01*
X43549D01*
Y30136D01*
X43149D01*
Y29336D01*
X43549D01*
X62232Y151325D02*
Y150925D01*
X63032D01*
Y151325D01*
X63432D01*
Y152125D01*
X63032D01*
Y152525D01*
X62232D01*
Y152125D01*
X61832D01*
Y151325D01*
X62232D01*
X60232Y144325D02*
Y143925D01*
X61032D01*
Y144325D01*
X61432D01*
Y145125D01*
X61032D01*
Y145525D01*
X60232D01*
Y145125D01*
X59832D01*
Y144325D01*
X60232D01*
X34049Y33099D02*
Y32699D01*
X34849D01*
Y33099D01*
X35249D01*
Y33898D01*
X34849D01*
Y34299D01*
X34049D01*
Y33898D01*
X33649D01*
Y33099D01*
X34049D01*
X71826Y34034D02*
Y33634D01*
X72626D01*
Y34034D01*
X73026D01*
Y34834D01*
X72626D01*
Y35234D01*
X71826D01*
Y34834D01*
X71426D01*
Y34034D01*
X71826D01*
X70856Y30125D02*
Y29725D01*
X71657D01*
Y30125D01*
X72057D01*
Y30925D01*
X71657D01*
Y31325D01*
X70856D01*
Y30925D01*
X70456D01*
Y30125D01*
X70856D01*
X78302Y32450D02*
Y32050D01*
X79102D01*
Y32450D01*
X79502D01*
Y33250D01*
X79102D01*
Y33650D01*
X78302D01*
Y33250D01*
X77902D01*
Y32450D01*
X78302D01*
X60700Y33714D02*
Y33314D01*
X61500D01*
Y33714D01*
X61900D01*
Y34514D01*
X61500D01*
Y34914D01*
X60700D01*
Y34514D01*
X60300D01*
Y33714D01*
X60700D01*
X93032Y46334D02*
Y45934D01*
X93832D01*
Y46334D01*
X94232D01*
Y47134D01*
X93832D01*
Y47534D01*
X93032D01*
Y47134D01*
X92632D01*
Y46334D01*
X93032D01*
X54633Y33525D02*
Y33125D01*
X55432D01*
Y33525D01*
X55832D01*
Y34325D01*
X55432D01*
Y34725D01*
X54633D01*
Y34325D01*
X54233D01*
Y33525D01*
X54633D01*
X54458Y43692D02*
Y43292D01*
X55258D01*
Y43692D01*
X55658D01*
Y44492D01*
X55258D01*
Y44892D01*
X54458D01*
Y44492D01*
X54058D01*
Y43692D01*
X54458D01*
X64207Y44876D02*
Y44476D01*
X65007D01*
Y44876D01*
X65407D01*
Y45676D01*
X65007D01*
Y46076D01*
X64207D01*
Y45676D01*
X63807D01*
Y44876D01*
X64207D01*
X39601Y41923D02*
Y41523D01*
X40400D01*
Y41923D01*
X40800D01*
Y42723D01*
X40400D01*
Y43123D01*
X39601D01*
Y42723D01*
X39200D01*
Y41923D01*
X39601D01*
X44036Y44879D02*
Y44479D01*
X44836D01*
Y44879D01*
X45236D01*
Y45679D01*
X44836D01*
Y46079D01*
X44036D01*
Y45679D01*
X43636D01*
Y44879D01*
X44036D01*
X43978Y49277D02*
Y48877D01*
X44778D01*
Y49277D01*
X45178D01*
Y50077D01*
X44778D01*
Y50477D01*
X43978D01*
Y50077D01*
X43578D01*
Y49277D01*
X43978D01*
X24032Y33872D02*
Y33472D01*
X24832D01*
Y33872D01*
X25232D01*
Y34672D01*
X24832D01*
Y35072D01*
X24032D01*
Y34672D01*
X23632D01*
Y33872D01*
X24032D01*
X18924Y32450D02*
Y32050D01*
X19724D01*
Y32450D01*
X20124D01*
Y33250D01*
X19724D01*
Y33650D01*
X18924D01*
Y33250D01*
X18524D01*
Y32450D01*
X18924D01*
X15978Y61515D02*
Y61115D01*
X16778D01*
Y61515D01*
X17178D01*
Y62315D01*
X16778D01*
Y62716D01*
X15978D01*
Y62315D01*
X15578D01*
Y61515D01*
X15978D01*
X54281Y86476D02*
Y86076D01*
X55081D01*
Y86476D01*
X55481D01*
Y87276D01*
X55081D01*
Y87676D01*
X54281D01*
Y87276D01*
X53881D01*
Y86476D01*
X54281D01*
X54503Y104152D02*
Y103752D01*
X55303D01*
Y104152D01*
X55703D01*
Y104952D01*
X55303D01*
Y105352D01*
X54503D01*
Y104952D01*
X54103D01*
Y104152D01*
X54503D01*
X54827Y121517D02*
Y121117D01*
X55627D01*
Y121517D01*
X56027D01*
Y122317D01*
X55627D01*
Y122717D01*
X54827D01*
Y122317D01*
X54427D01*
Y121517D01*
X54827D01*
X95196Y131152D02*
Y130752D01*
X95996D01*
Y131152D01*
X96396D01*
Y131952D01*
X95996D01*
Y132352D01*
X95196D01*
Y131952D01*
X94796D01*
Y131152D01*
X95196D01*
X178686Y41726D02*
Y41326D01*
X179486D01*
Y41726D01*
X179886D01*
Y42526D01*
X179486D01*
Y42926D01*
X178686D01*
Y42526D01*
X178286D01*
Y41726D01*
X178686D01*
X178001Y35392D02*
Y34992D01*
X178801D01*
Y35392D01*
X179201D01*
Y36192D01*
X178801D01*
Y36592D01*
X178001D01*
Y36192D01*
X177601D01*
Y35392D01*
X178001D01*
X171139Y25948D02*
X171539D01*
X171939Y26348D01*
X172339Y25948D01*
X172739D01*
Y26348D01*
X172339Y26748D01*
X172739Y27148D01*
Y27548D01*
X172339D01*
X171939Y27148D01*
X171539Y27548D01*
X171139D01*
Y27148D01*
X171539Y26748D01*
X171139Y26348D01*
Y25948D01*
X164904Y33525D02*
Y33125D01*
X165704D01*
Y33525D01*
X166104D01*
Y34325D01*
X165704D01*
Y34725D01*
X164904D01*
Y34325D01*
X164504D01*
Y33525D01*
X164904D01*
X126362Y120518D02*
Y120118D01*
X127162D01*
Y120518D01*
X127562D01*
Y121318D01*
X127162D01*
Y121718D01*
X126362D01*
Y121318D01*
X125962D01*
Y120518D01*
X126362D01*
X153773Y114758D02*
Y114358D01*
X154574D01*
Y114758D01*
X154973D01*
Y115558D01*
X154574D01*
Y115958D01*
X153773D01*
Y115558D01*
X153374D01*
Y114758D01*
X153773D01*
X167553Y111522D02*
Y111122D01*
X168353D01*
Y111522D01*
X168753D01*
Y112322D01*
X168353D01*
Y112722D01*
X167553D01*
Y112322D01*
X167153D01*
Y111522D01*
X167553D01*
X144425Y122170D02*
Y121770D01*
X145225D01*
Y122170D01*
X145625D01*
Y122970D01*
X145225D01*
Y123370D01*
X144425D01*
Y122970D01*
X144025D01*
Y122170D01*
X144425D01*
X123891Y143952D02*
Y143552D01*
X124691D01*
Y143952D01*
X125091D01*
Y144752D01*
X124691D01*
Y145152D01*
X123891D01*
Y144752D01*
X123491D01*
Y143952D01*
X123891D01*
X117791Y147232D02*
Y146832D01*
X118591D01*
Y147232D01*
X118991D01*
Y148032D01*
X118591D01*
Y148432D01*
X117791D01*
Y148032D01*
X117391D01*
Y147232D01*
X117791D01*
X118341Y143301D02*
Y142901D01*
X119141D01*
Y143301D01*
X119541D01*
Y144101D01*
X119141D01*
Y144501D01*
X118341D01*
Y144101D01*
X117940D01*
Y143301D01*
X118341D01*
X118974Y138898D02*
Y138498D01*
X119774D01*
Y138898D01*
X120174D01*
Y139698D01*
X119774D01*
Y140098D01*
X118974D01*
Y139698D01*
X118574D01*
Y138898D01*
X118974D01*
X128349Y136061D02*
Y135661D01*
X129149D01*
Y136061D01*
X129550D01*
Y136861D01*
X129149D01*
Y137261D01*
X128349D01*
Y136861D01*
X127950D01*
Y136061D01*
X128349D01*
X114290Y133600D02*
Y133200D01*
X115091D01*
Y133600D01*
X115490D01*
Y134400D01*
X115091D01*
Y134800D01*
X114290D01*
Y134400D01*
X113891D01*
Y133600D01*
X114290D01*
X125468Y147626D02*
Y147226D01*
X126268D01*
Y147626D01*
X126668D01*
Y148426D01*
X126268D01*
Y148826D01*
X125468D01*
Y148426D01*
X125068D01*
Y147626D01*
X125468D01*
X116030Y116584D02*
Y116184D01*
X116830D01*
Y116584D01*
X117230D01*
Y117384D01*
X116830D01*
Y117784D01*
X116030D01*
Y117384D01*
X115630D01*
Y116584D01*
X116030D01*
X108923Y124044D02*
Y123644D01*
X109723D01*
Y124044D01*
X110123D01*
Y124844D01*
X109723D01*
Y125244D01*
X108923D01*
Y124844D01*
X108523D01*
Y124044D01*
X108923D01*
X129924Y124490D02*
Y124091D01*
X130724D01*
Y124490D01*
X131124D01*
Y125291D01*
X130724D01*
Y125690D01*
X129924D01*
Y125291D01*
X129524D01*
Y124490D01*
X129924D01*
X202703Y97038D02*
Y96638D01*
X203503D01*
Y97038D01*
X203903D01*
Y97838D01*
X203503D01*
Y98238D01*
X202703D01*
Y97838D01*
X202303D01*
Y97038D01*
X202703D01*
X205473Y92366D02*
X205873D01*
X206273Y92766D01*
X206673Y92366D01*
X207073D01*
Y92766D01*
X206673Y93166D01*
X207073Y93566D01*
Y93966D01*
X206673D01*
X206273Y93566D01*
X205873Y93966D01*
X205473D01*
Y93566D01*
X205873Y93166D01*
X205473Y92766D01*
Y92366D01*
X187323Y122236D02*
Y121836D01*
X188123D01*
Y122236D01*
X188523D01*
Y123036D01*
X188123D01*
Y123436D01*
X187323D01*
Y123036D01*
X186923D01*
Y122236D01*
X187323D01*
X141562Y137471D02*
X141962D01*
X142362Y137871D01*
X142762Y137471D01*
X143162D01*
Y137871D01*
X142762Y138271D01*
X143162Y138671D01*
Y139071D01*
X142762D01*
X142362Y138671D01*
X141962Y139071D01*
X141562D01*
Y138671D01*
X141962Y138271D01*
X141562Y137871D01*
Y137471D01*
X9473Y38770D02*
Y38370D01*
X10273D01*
Y38770D01*
X10673D01*
Y39570D01*
X10273D01*
Y39970D01*
X9473D01*
Y39570D01*
X9073D01*
Y38770D01*
X9473D01*
X32767Y49045D02*
Y48645D01*
X33567D01*
Y49045D01*
X33967D01*
Y49845D01*
X33567D01*
Y50245D01*
X32767D01*
Y49845D01*
X32367D01*
Y49045D01*
X32767D01*
X64957Y51935D02*
Y51535D01*
X65757D01*
Y51935D01*
X66157D01*
Y52735D01*
X65757D01*
Y53135D01*
X64957D01*
Y52735D01*
X64557D01*
Y51935D01*
X64957D01*
X195863Y59511D02*
Y59111D01*
X196663D01*
Y59511D01*
X197063D01*
Y60311D01*
X196663D01*
Y60711D01*
X195863D01*
Y60311D01*
X195463D01*
Y59511D01*
X195863D01*
X215389Y52750D02*
Y52350D01*
X216189D01*
Y52750D01*
X216589D01*
Y53550D01*
X216189D01*
Y53950D01*
X215389D01*
Y53550D01*
X214989D01*
Y52750D01*
X215389D01*
X200275Y25948D02*
X200675D01*
X201075Y26348D01*
X201475Y25948D01*
X201875D01*
Y26348D01*
X201475Y26748D01*
X201875Y27148D01*
Y27548D01*
X201475D01*
X201075Y27148D01*
X200675Y27548D01*
X200275D01*
Y27148D01*
X200675Y26748D01*
X200275Y26348D01*
Y25948D01*
X3183Y21158D02*
Y20757D01*
X3983D01*
Y21158D01*
X4383D01*
Y21958D01*
X3983D01*
Y22357D01*
X3183D01*
Y21958D01*
X2783D01*
Y21158D01*
X3183D01*
X145899Y60238D02*
Y59838D01*
X146699D01*
Y60238D01*
X147099D01*
Y61038D01*
X146699D01*
Y61438D01*
X145899D01*
Y61038D01*
X145499D01*
Y60238D01*
X145899D01*
X52205Y93169D02*
Y92769D01*
X53005D01*
Y93169D01*
X53405D01*
Y93969D01*
X53005D01*
Y94369D01*
X52205D01*
Y93969D01*
X51805D01*
Y93169D01*
X52205D01*
X108339Y188962D02*
Y188562D01*
X109139D01*
Y188962D01*
X109539D01*
Y189762D01*
X109139D01*
Y190162D01*
X108339D01*
Y189762D01*
X107939D01*
Y188962D01*
X108339D01*
X8093Y126918D02*
X8493D01*
X8893Y127319D01*
X9293Y126918D01*
X9693D01*
Y127319D01*
X9293Y127718D01*
X9693Y128119D01*
Y128518D01*
X9293D01*
X8893Y128119D01*
X8493Y128518D01*
X8093D01*
Y128119D01*
X8493Y127718D01*
X8093Y127319D01*
Y126918D01*
X53035Y14560D02*
Y14161D01*
X53835D01*
Y14560D01*
X54235D01*
Y15360D01*
X53835D01*
Y15761D01*
X53035D01*
Y15360D01*
X52635D01*
Y14560D01*
X53035D01*
X96273Y140687D02*
Y140287D01*
X97073D01*
Y140687D01*
X97473D01*
Y141487D01*
X97073D01*
Y141887D01*
X96273D01*
Y141487D01*
X95873D01*
Y140687D01*
X96273D01*
X133448Y175329D02*
Y174929D01*
X134248D01*
Y175329D01*
X134648D01*
Y176129D01*
X134248D01*
Y176529D01*
X133448D01*
Y176129D01*
X133048D01*
Y175329D01*
X133448D01*
X187113Y22177D02*
Y21777D01*
X187913D01*
Y22177D01*
X188313D01*
Y22977D01*
X187913D01*
Y23377D01*
X187113D01*
Y22977D01*
X186713D01*
Y22177D01*
X187113D01*
X192329Y27273D02*
X192729D01*
X193129Y27673D01*
X193529Y27273D01*
X193929D01*
Y27673D01*
X193529Y28073D01*
X193929Y28473D01*
Y28873D01*
X193529D01*
X193129Y28473D01*
X192729Y28873D01*
X192329D01*
Y28473D01*
X192729Y28073D01*
X192329Y27673D01*
Y27273D01*
X205343Y30696D02*
X205743D01*
X206143Y31096D01*
X206543Y30696D01*
X206943D01*
Y31096D01*
X206543Y31496D01*
X206943Y31896D01*
Y32296D01*
X206543D01*
X206143Y31896D01*
X205743Y32296D01*
X205343D01*
Y31896D01*
X205743Y31496D01*
X205343Y31096D01*
Y30696D01*
X214058Y117479D02*
X214458D01*
X214858Y117879D01*
X215258Y117479D01*
X215658D01*
Y117879D01*
X215258Y118279D01*
X215658Y118679D01*
Y119079D01*
X215258D01*
X214858Y118679D01*
X214458Y119079D01*
X214058D01*
Y118679D01*
X214458Y118279D01*
X214058Y117879D01*
Y117479D01*
X198798Y94636D02*
Y94236D01*
X199598D01*
Y94636D01*
X199998D01*
Y95436D01*
X199598D01*
Y95836D01*
X198798D01*
Y95436D01*
X198398D01*
Y94636D01*
X198798D01*
X159382Y122055D02*
Y121655D01*
X160182D01*
Y122055D01*
X160582D01*
Y122855D01*
X160182D01*
Y123255D01*
X159382D01*
Y122855D01*
X158982D01*
Y122055D01*
X159382D01*
X155631Y103617D02*
Y103217D01*
X156431D01*
Y103617D01*
X156831D01*
Y104417D01*
X156431D01*
Y104817D01*
X155631D01*
Y104417D01*
X155231D01*
Y103617D01*
X155631D01*
X151719Y102693D02*
Y102293D01*
X152519D01*
Y102693D01*
X152919D01*
Y103493D01*
X152519D01*
Y103893D01*
X151719D01*
Y103493D01*
X151319D01*
Y102693D01*
X151719D01*
X157199Y99652D02*
Y99252D01*
X157999D01*
Y99652D01*
X158399D01*
Y100452D01*
X157999D01*
Y100852D01*
X157199D01*
Y100452D01*
X156799D01*
Y99652D01*
X157199D01*
X178226Y79329D02*
Y78929D01*
X179025D01*
Y79329D01*
X179426D01*
Y80129D01*
X179025D01*
Y80528D01*
X178226D01*
Y80129D01*
X177825D01*
Y79329D01*
X178226D01*
X232513Y163970D02*
Y163570D01*
X233313D01*
Y163970D01*
X233714D01*
Y164770D01*
X233313D01*
Y165170D01*
X232513D01*
Y164770D01*
X232114D01*
Y163970D01*
X232513D01*
X217357Y159136D02*
Y158736D01*
X218158D01*
Y159136D01*
X218558D01*
Y159936D01*
X218158D01*
Y160336D01*
X217357D01*
Y159936D01*
X216957D01*
Y159136D01*
X217357D01*
X159382Y163970D02*
Y163570D01*
X160182D01*
Y163970D01*
X160582D01*
Y164770D01*
X160182D01*
Y165170D01*
X159382D01*
Y164770D01*
X158982D01*
Y163970D01*
X159382D01*
X151244Y164253D02*
Y163854D01*
X152044D01*
Y164253D01*
X152444D01*
Y165053D01*
X152044D01*
Y165454D01*
X151244D01*
Y165053D01*
X150844D01*
Y164253D01*
X151244D01*
X164294Y141726D02*
Y141326D01*
X165094D01*
Y141726D01*
X165494D01*
Y142526D01*
X165094D01*
Y142926D01*
X164294D01*
Y142526D01*
X163894D01*
Y141726D01*
X164294D01*
X227592Y49403D02*
Y49003D01*
X228392D01*
Y49403D01*
X228792D01*
Y50203D01*
X228392D01*
Y50603D01*
X227592D01*
Y50203D01*
X227192D01*
Y49403D01*
X227592D01*
X178001Y60230D02*
Y59830D01*
X178801D01*
Y60230D01*
X179201D01*
Y61030D01*
X178801D01*
Y61430D01*
X178001D01*
Y61030D01*
X177601D01*
Y60230D01*
X178001D01*
X189735Y60441D02*
Y60041D01*
X190535D01*
Y60441D01*
X190935D01*
Y61241D01*
X190535D01*
Y61641D01*
X189735D01*
Y61241D01*
X189335D01*
Y60441D01*
X189735D01*
X193108Y51935D02*
Y51535D01*
X193908D01*
Y51935D01*
X194308D01*
Y52735D01*
X193908D01*
Y53135D01*
X193108D01*
Y52735D01*
X192708D01*
Y51935D01*
X193108D01*
X180017Y52715D02*
Y52315D01*
X180817D01*
Y52715D01*
X181217D01*
Y53515D01*
X180817D01*
Y53915D01*
X180017D01*
Y53515D01*
X179617D01*
Y52715D01*
X180017D01*
X175984Y52750D02*
Y52350D01*
X176784D01*
Y52750D01*
X177184D01*
Y53550D01*
X176784D01*
Y53950D01*
X175984D01*
Y53550D01*
X175584D01*
Y52750D01*
X175984D01*
X160644Y49197D02*
Y48797D01*
X161444D01*
Y49197D01*
X161844D01*
Y49997D01*
X161444D01*
Y50397D01*
X160644D01*
Y49997D01*
X160244D01*
Y49197D01*
X160644D01*
X166162Y60427D02*
Y60027D01*
X166962D01*
Y60427D01*
X167362D01*
Y61227D01*
X166962D01*
Y61627D01*
X166162D01*
Y61227D01*
X165762D01*
Y60427D01*
X166162D01*
X155210Y61052D02*
Y60652D01*
X156010D01*
Y61052D01*
X156410D01*
Y61852D01*
X156010D01*
Y62252D01*
X155210D01*
Y61852D01*
X154810D01*
Y61052D01*
X155210D01*
X180017Y122349D02*
Y121949D01*
X180817D01*
Y122349D01*
X181217D01*
Y123149D01*
X180817D01*
Y123549D01*
X180017D01*
Y123149D01*
X179617D01*
Y122349D01*
X180017D01*
X190210Y103079D02*
Y102679D01*
X191010D01*
Y103079D01*
X191410D01*
Y103879D01*
X191010D01*
Y104279D01*
X190210D01*
Y103879D01*
X189810D01*
Y103079D01*
X190210D01*
X188109Y42786D02*
Y42386D01*
X188909D01*
Y42786D01*
X189309D01*
Y43586D01*
X188909D01*
Y43986D01*
X188109D01*
Y43586D01*
X187709D01*
Y42786D01*
X188109D01*
X183862Y118572D02*
Y118172D01*
X184662D01*
Y118572D01*
X185062D01*
Y119372D01*
X184662D01*
Y119772D01*
X183862D01*
Y119372D01*
X183462D01*
Y118572D01*
X183862D01*
X153773Y129521D02*
Y129121D01*
X154573D01*
Y129521D01*
X154973D01*
Y130321D01*
X154573D01*
Y130721D01*
X153773D01*
Y130321D01*
X153373D01*
Y129521D01*
X153773D01*
X141562Y180347D02*
X141962D01*
X142362Y180747D01*
X142762Y180347D01*
X143162D01*
Y180747D01*
X142762Y181147D01*
X143162Y181547D01*
Y181947D01*
X142762D01*
X142362Y181547D01*
X141962Y181947D01*
X141562D01*
Y181547D01*
X141962Y181147D01*
X141562Y180747D01*
Y180347D01*
X139735Y103472D02*
Y103072D01*
X140535D01*
Y103472D01*
X140935D01*
Y104272D01*
X140535D01*
Y104672D01*
X139735D01*
Y104272D01*
X139335D01*
Y103472D01*
X139735D01*
X218899Y128397D02*
X219299D01*
X219699Y128797D01*
X220099Y128397D01*
X220499D01*
Y128797D01*
X220099Y129197D01*
X220499Y129597D01*
Y129997D01*
X220099D01*
X219699Y129597D01*
X219299Y129997D01*
X218899D01*
Y129597D01*
X219299Y129197D01*
X218899Y128797D01*
Y128397D01*
X144917Y55550D02*
Y55150D01*
X145717D01*
Y55550D01*
X146117D01*
Y56350D01*
X145717D01*
Y56750D01*
X144917D01*
Y56350D01*
X144517D01*
Y55550D01*
X144917D01*
X142955Y91692D02*
Y91292D01*
X143755D01*
Y91692D01*
X144155D01*
Y92492D01*
X143755D01*
Y92892D01*
X142955D01*
Y92492D01*
X142555D01*
Y91692D01*
X142955D01*
X195863Y151097D02*
Y150697D01*
X196663D01*
Y151097D01*
X197063D01*
Y151897D01*
X196663D01*
Y152297D01*
X195863D01*
Y151897D01*
X195463D01*
Y151097D01*
X195863D01*
X179956Y138439D02*
Y138039D01*
X180756D01*
Y138439D01*
X181156D01*
Y139239D01*
X180756D01*
Y139639D01*
X179956D01*
Y139239D01*
X179556D01*
Y138439D01*
X179956D01*
X187830Y157080D02*
Y156680D01*
X188630D01*
Y157080D01*
X189030D01*
Y157880D01*
X188630D01*
Y158280D01*
X187830D01*
Y157880D01*
X187430D01*
Y157080D01*
X187830D01*
X115069Y157954D02*
Y157554D01*
X115869D01*
Y157954D01*
X116269D01*
Y158754D01*
X115869D01*
Y159154D01*
X115069D01*
Y158754D01*
X114669D01*
Y157954D01*
X115069D01*
X203747Y151175D02*
Y150775D01*
X204547D01*
Y151175D01*
X204947D01*
Y151975D01*
X204547D01*
Y152375D01*
X203747D01*
Y151975D01*
X203347D01*
Y151175D01*
X203747D01*
X199641Y154067D02*
Y153667D01*
X200441D01*
Y154067D01*
X200841D01*
Y154867D01*
X200441D01*
Y155267D01*
X199641D01*
Y154867D01*
X199241D01*
Y154067D01*
X199641D01*
X161647Y156909D02*
Y156509D01*
X162447D01*
Y156909D01*
X162847D01*
Y157709D01*
X162447D01*
Y158109D01*
X161647D01*
Y157709D01*
X161247D01*
Y156909D01*
X161647D01*
X191767Y141726D02*
Y141326D01*
X192567D01*
Y141726D01*
X192967D01*
Y142526D01*
X192567D01*
Y142926D01*
X191767D01*
Y142526D01*
X191367D01*
Y141726D01*
X191767D01*
X101608Y186910D02*
Y186511D01*
X102408D01*
Y186910D01*
X102808D01*
Y187710D01*
X102408D01*
Y188110D01*
X101608D01*
Y187710D01*
X101208D01*
Y186910D01*
X101608D01*
X229561Y139758D02*
Y139357D01*
X230361D01*
Y139758D01*
X230761D01*
Y140558D01*
X230361D01*
Y140957D01*
X229561D01*
Y140558D01*
X229161D01*
Y139758D01*
X229561D01*
X232513Y143210D02*
Y142810D01*
X233313D01*
Y143210D01*
X233714D01*
Y144010D01*
X233313D01*
Y144410D01*
X232513D01*
Y144010D01*
X232114D01*
Y143210D01*
X232513D01*
X154835Y87012D02*
Y86612D01*
X155635D01*
Y87012D01*
X156035D01*
Y87812D01*
X155635D01*
Y88212D01*
X154835D01*
Y87812D01*
X154435D01*
Y87012D01*
X154835D01*
X167553Y87924D02*
Y87524D01*
X168353D01*
Y87924D01*
X168753D01*
Y88724D01*
X168353D01*
Y89124D01*
X167553D01*
Y88724D01*
X167153D01*
Y87924D01*
X167553D01*
X124407Y97803D02*
Y97403D01*
X125207D01*
Y97803D01*
X125607D01*
Y98603D01*
X125207D01*
Y99003D01*
X124407D01*
Y98603D01*
X124007D01*
Y97803D01*
X124407D01*
X163135Y118694D02*
Y118295D01*
X163935D01*
Y118694D01*
X164335D01*
Y119494D01*
X163935D01*
Y119895D01*
X163135D01*
Y119494D01*
X162735D01*
Y118694D01*
X163135D01*
X212627Y25698D02*
X213027D01*
X213427Y26098D01*
X213827Y25698D01*
X214227D01*
Y26098D01*
X213827Y26498D01*
X214227Y26898D01*
Y27298D01*
X213827D01*
X213427Y26898D01*
X213027Y27298D01*
X212627D01*
Y26898D01*
X213027Y26498D01*
X212627Y26098D01*
Y25698D01*
X81818Y17544D02*
Y17144D01*
X82617D01*
Y17544D01*
X83017D01*
Y18344D01*
X82617D01*
Y18744D01*
X81818D01*
Y18344D01*
X81418D01*
Y17544D01*
X81818D01*
X112292Y19356D02*
Y18956D01*
X113092D01*
Y19356D01*
X113492D01*
Y20156D01*
X113092D01*
Y20556D01*
X112292D01*
Y20156D01*
X111892D01*
Y19356D01*
X112292D01*
X98552Y74888D02*
Y74488D01*
X99352D01*
Y74888D01*
X99752D01*
Y75688D01*
X99352D01*
Y76088D01*
X98552D01*
Y75688D01*
X98152D01*
Y74888D01*
X98552D01*
X98925Y109668D02*
Y109268D01*
X99725D01*
Y109668D01*
X100125D01*
Y110468D01*
X99725D01*
Y110868D01*
X98925D01*
Y110468D01*
X98525D01*
Y109668D01*
X98925D01*
X110260Y91111D02*
Y90711D01*
X111061D01*
Y91111D01*
X111460D01*
Y91911D01*
X111061D01*
Y92311D01*
X110260D01*
Y91911D01*
X109861D01*
Y91111D01*
X110260D01*
X98532Y100317D02*
Y99917D01*
X99331D01*
Y100317D01*
X99731D01*
Y101117D01*
X99331D01*
Y101517D01*
X98532D01*
Y101117D01*
X98132D01*
Y100317D01*
X98532D01*
X95196Y108054D02*
Y107654D01*
X95996D01*
Y108054D01*
X96396D01*
Y108854D01*
X95996D01*
Y109254D01*
X95196D01*
Y108854D01*
X94796D01*
Y108054D01*
X95196D01*
X187209Y38471D02*
Y38072D01*
X188009D01*
Y38471D01*
X188409D01*
Y39272D01*
X188009D01*
Y39671D01*
X187209D01*
Y39272D01*
X186809D01*
Y38471D01*
X187209D01*
X139735Y49797D02*
Y49397D01*
X140535D01*
Y49797D01*
X140935D01*
Y50597D01*
X140535D01*
Y50997D01*
X139735D01*
Y50597D01*
X139335D01*
Y49797D01*
X139735D01*
X126681Y45763D02*
Y45363D01*
X127481D01*
Y45763D01*
X127881D01*
Y46563D01*
X127481D01*
Y46963D01*
X126681D01*
Y46563D01*
X126281D01*
Y45763D01*
X126681D01*
X135407Y59511D02*
Y59111D01*
X136207D01*
Y59511D01*
X136607D01*
Y60311D01*
X136207D01*
Y60711D01*
X135407D01*
Y60311D01*
X135007D01*
Y59511D01*
X135407D01*
X152165Y38532D02*
Y38132D01*
X152965D01*
Y38532D01*
X153366D01*
Y39332D01*
X152965D01*
Y39732D01*
X152165D01*
Y39332D01*
X151766D01*
Y38532D01*
X152165D01*
X70884Y14530D02*
Y14130D01*
X71684D01*
Y14530D01*
X72084D01*
Y15330D01*
X71684D01*
Y15730D01*
X70884D01*
Y15330D01*
X70484D01*
Y14530D01*
X70884D01*
X35412Y3537D02*
Y3137D01*
X36213D01*
Y3537D01*
X36612D01*
Y4337D01*
X36213D01*
Y4737D01*
X35412D01*
Y4337D01*
X35013D01*
Y3537D01*
X35412D01*
X154835Y82548D02*
Y82148D01*
X155635D01*
Y82548D01*
X156035D01*
Y83348D01*
X155635D01*
Y83748D01*
X154835D01*
Y83348D01*
X154435D01*
Y82548D01*
X154835D01*
X24836Y13676D02*
Y13276D01*
X25636D01*
Y13676D01*
X26036D01*
Y14476D01*
X25636D01*
Y14876D01*
X24836D01*
Y14476D01*
X24436D01*
Y13676D01*
X24836D01*
X47090Y21739D02*
Y21339D01*
X47890D01*
Y21739D01*
X48290D01*
Y22539D01*
X47890D01*
Y22939D01*
X47090D01*
Y22539D01*
X46690D01*
Y21739D01*
X47090D01*
X31180Y20690D02*
Y20290D01*
X31980D01*
Y20690D01*
X32380D01*
Y21490D01*
X31980D01*
Y21890D01*
X31180D01*
Y21490D01*
X30780D01*
Y20690D01*
X31180D01*
X51866Y23038D02*
Y22638D01*
X52666D01*
Y23038D01*
X53066D01*
Y23838D01*
X52666D01*
Y24238D01*
X51866D01*
Y23838D01*
X51466D01*
Y23038D01*
X51866D01*
X57942Y21158D02*
Y20757D01*
X58742D01*
Y21158D01*
X59142D01*
Y21958D01*
X58742D01*
Y22357D01*
X57942D01*
Y21958D01*
X57542D01*
Y21158D01*
X57942D01*
X189819Y74593D02*
Y74193D01*
X190619D01*
Y74593D01*
X191019D01*
Y75393D01*
X190619D01*
Y75793D01*
X189819D01*
Y75393D01*
X189419D01*
Y74593D01*
X189819D01*
X178759Y74443D02*
Y74043D01*
X179559D01*
Y74443D01*
X179959D01*
Y75243D01*
X179559D01*
Y75643D01*
X178759D01*
Y75243D01*
X178359D01*
Y74443D01*
X178759D01*
X178851Y91620D02*
Y91220D01*
X179651D01*
Y91620D01*
X180051D01*
Y92420D01*
X179651D01*
Y92820D01*
X178851D01*
Y92420D01*
X178451D01*
Y91620D01*
X178851D01*
X62203Y139289D02*
Y138889D01*
X63003D01*
Y139289D01*
X63403D01*
Y140089D01*
X63003D01*
Y140489D01*
X62203D01*
Y140089D01*
X61803D01*
Y139289D01*
X62203D01*
X138100Y114600D02*
Y114200D01*
X138900D01*
Y114600D01*
X139300D01*
Y115400D01*
X138900D01*
Y115800D01*
X138100D01*
Y115400D01*
X137700D01*
Y114600D01*
X138100D01*
X115472Y109801D02*
Y109401D01*
X116272D01*
Y109801D01*
X116672D01*
Y110601D01*
X116272D01*
Y111001D01*
X115472D01*
Y110601D01*
X115072D01*
Y109801D01*
X115472D01*
X163616Y100373D02*
Y99973D01*
X164416D01*
Y100373D01*
X164816D01*
Y101173D01*
X164416D01*
Y101574D01*
X163616D01*
Y101173D01*
X163216D01*
Y100373D01*
X163616D01*
X109404Y113224D02*
Y112824D01*
X110204D01*
Y113224D01*
X110604D01*
Y114024D01*
X110204D01*
Y114424D01*
X109404D01*
Y114024D01*
X109004D01*
Y113224D01*
X109404D01*
X160542Y89035D02*
Y88635D01*
X161342D01*
Y89035D01*
X161742D01*
Y89835D01*
X161342D01*
Y90235D01*
X160542D01*
Y89835D01*
X160142D01*
Y89035D01*
X160542D01*
X103301Y134208D02*
Y133808D01*
X104101D01*
Y134208D01*
X104501D01*
Y135008D01*
X104101D01*
Y135408D01*
X103301D01*
Y135008D01*
X102901D01*
Y134208D01*
X103301D01*
X95995Y135250D02*
Y134850D01*
X96795D01*
Y135250D01*
X97195D01*
Y136050D01*
X96795D01*
Y136450D01*
X95995D01*
Y136050D01*
X95595D01*
Y135250D01*
X95995D01*
X68538Y141091D02*
Y140691D01*
X69338D01*
Y141091D01*
X69738D01*
Y141891D01*
X69338D01*
Y142291D01*
X68538D01*
Y141891D01*
X68138D01*
Y141091D01*
X68538D01*
X109404Y134352D02*
Y133952D01*
X110204D01*
Y134352D01*
X110604D01*
Y135152D01*
X110204D01*
Y135552D01*
X109404D01*
Y135152D01*
X109004D01*
Y134352D01*
X109404D01*
X107785Y158508D02*
Y158108D01*
X108585D01*
Y158508D01*
X108985D01*
Y159308D01*
X108585D01*
Y159708D01*
X107785D01*
Y159308D01*
X107385D01*
Y158508D01*
X107785D01*
X97874Y151201D02*
Y150801D01*
X98673D01*
Y151201D01*
X99073D01*
Y152001D01*
X98673D01*
Y152401D01*
X97874D01*
Y152001D01*
X97474D01*
Y151201D01*
X97874D01*
X4737Y117812D02*
Y117412D01*
X5537D01*
Y117812D01*
X5937D01*
Y118612D01*
X5537D01*
Y119012D01*
X4737D01*
Y118612D01*
X4337D01*
Y117812D01*
X4737D01*
X186250Y82282D02*
Y81882D01*
X187050D01*
Y82282D01*
X187450D01*
Y83082D01*
X187050D01*
Y83482D01*
X186250D01*
Y83082D01*
X185850D01*
Y82282D01*
X186250D01*
X139735Y107845D02*
Y107446D01*
X140535D01*
Y107845D01*
X140935D01*
Y108645D01*
X140535D01*
Y109046D01*
X139735D01*
Y108645D01*
X139335D01*
Y107845D01*
X139735D01*
X209484Y81820D02*
Y81420D01*
X210283D01*
Y81820D01*
X210683D01*
Y82620D01*
X210283D01*
Y83020D01*
X209484D01*
Y82620D01*
X209084D01*
Y81820D01*
X209484D01*
X141531Y129940D02*
X141930D01*
X142331Y130340D01*
X142730Y129940D01*
X143131D01*
Y130340D01*
X142730Y130740D01*
X143131Y131140D01*
Y131540D01*
X142730D01*
X142331Y131140D01*
X141930Y131540D01*
X141531D01*
Y131140D01*
X141930Y130740D01*
X141531Y130340D01*
Y129940D01*
X131342Y146864D02*
Y146464D01*
X132142D01*
Y146864D01*
X132542D01*
Y147664D01*
X132142D01*
Y148064D01*
X131342D01*
Y147664D01*
X130942D01*
Y146864D01*
X131342D01*
X67101Y120056D02*
Y119656D01*
X67901D01*
Y120056D01*
X68301D01*
Y120856D01*
X67901D01*
Y121256D01*
X67101D01*
Y120856D01*
X66701D01*
Y120056D01*
X67101D01*
X118405Y48272D02*
Y47872D01*
X119205D01*
Y48272D01*
X119606D01*
Y49072D01*
X119205D01*
Y49472D01*
X118405D01*
Y49072D01*
X118006D01*
Y48272D01*
X118405D01*
X6135Y23733D02*
Y23333D01*
X6936D01*
Y23733D01*
X7335D01*
Y24533D01*
X6936D01*
Y24933D01*
X6135D01*
Y24533D01*
X5736D01*
Y23733D01*
X6135D01*
X98282Y104554D02*
Y104154D01*
X99082D01*
Y104554D01*
X99482D01*
Y105354D01*
X99082D01*
Y105754D01*
X98282D01*
Y105354D01*
X97882D01*
Y104554D01*
X98282D01*
X50983Y68503D02*
Y68103D01*
X51783D01*
Y68503D01*
X52183D01*
Y69303D01*
X51783D01*
Y69703D01*
X50983D01*
Y69303D01*
X50583D01*
Y68503D01*
X50983D01*
X191862Y136871D02*
Y136471D01*
X192662D01*
Y136871D01*
X193062D01*
Y137671D01*
X192662D01*
Y138071D01*
X191862D01*
Y137671D01*
X191462D01*
Y136871D01*
X191862D01*
X112125Y121704D02*
Y121304D01*
X112925D01*
Y121704D01*
X113325D01*
Y122504D01*
X112925D01*
Y122904D01*
X112125D01*
Y122504D01*
X111725D01*
Y121704D01*
X112125D01*
X98986Y61773D02*
Y61373D01*
X99786D01*
Y61773D01*
X100186D01*
Y62573D01*
X99786D01*
Y62973D01*
X98986D01*
Y62573D01*
X98586D01*
Y61773D01*
X98986D01*
X115356Y42170D02*
Y41770D01*
X116156D01*
Y42170D01*
X116556D01*
Y42970D01*
X116156D01*
Y43370D01*
X115356D01*
Y42970D01*
X114956D01*
Y42170D01*
X115356D01*
X80510Y92900D02*
Y92500D01*
X81309D01*
Y92900D01*
X81709D01*
Y93700D01*
X81309D01*
Y94100D01*
X80510D01*
Y93700D01*
X80110D01*
Y92900D01*
X80510D01*
Y99356D02*
Y98956D01*
X81309D01*
Y99356D01*
X81709D01*
Y100156D01*
X81309D01*
Y100556D01*
X80510D01*
Y100156D01*
X80110D01*
Y99356D01*
X80510D01*
Y86386D02*
Y85986D01*
X81309D01*
Y86386D01*
X81709D01*
Y87186D01*
X81309D01*
Y87586D01*
X80510D01*
Y87186D01*
X80110D01*
Y86386D01*
X80510D01*
X117693Y74126D02*
Y73726D01*
X118493D01*
Y74126D01*
X118893D01*
Y74926D01*
X118493D01*
Y75326D01*
X117693D01*
Y74926D01*
X117293D01*
Y74126D01*
X117693D01*
X120621Y81331D02*
Y80931D01*
X121421D01*
Y81331D01*
X121821D01*
Y82131D01*
X121421D01*
Y82531D01*
X120621D01*
Y82131D01*
X120221D01*
Y81331D01*
X120621D01*
Y77591D02*
Y77191D01*
X121421D01*
Y77591D01*
X121821D01*
Y78391D01*
X121421D01*
Y78791D01*
X120621D01*
Y78391D01*
X120221D01*
Y77591D01*
X120621D01*
X128481Y91116D02*
Y90716D01*
X129281D01*
Y91116D01*
X129681D01*
Y91916D01*
X129281D01*
Y92316D01*
X128481D01*
Y91916D01*
X128081D01*
Y91116D01*
X128481D01*
X109673Y83999D02*
Y83599D01*
X110473D01*
Y83999D01*
X110873D01*
Y84799D01*
X110473D01*
Y85198D01*
X109673D01*
Y84799D01*
X109273D01*
Y83999D01*
X109673D01*
X47495Y122906D02*
Y122506D01*
X48295D01*
Y122906D01*
X48695D01*
Y123706D01*
X48295D01*
Y124106D01*
X47495D01*
Y123706D01*
X47095D01*
Y122906D01*
X47495D01*
X223498Y38605D02*
Y38206D01*
X224298D01*
Y38605D01*
X224698D01*
Y39406D01*
X224298D01*
Y39805D01*
X223498D01*
Y39406D01*
X223098D01*
Y38605D01*
X223498D01*
X71212Y24915D02*
Y24515D01*
X72012D01*
Y24915D01*
X72412D01*
Y25715D01*
X72012D01*
Y26115D01*
X71212D01*
Y25715D01*
X70812D01*
Y24915D01*
X71212D01*
X112125Y147218D02*
Y146818D01*
X112925D01*
Y147218D01*
X113325D01*
Y148018D01*
X112925D01*
Y148418D01*
X112125D01*
Y148018D01*
X111725D01*
Y147218D01*
X112125D01*
X138648Y85807D02*
Y85407D01*
X139448D01*
Y85807D01*
X139848D01*
Y86607D01*
X139448D01*
Y87007D01*
X138648D01*
Y86607D01*
X138248D01*
Y85807D01*
X138648D01*
X113455Y71145D02*
Y70745D01*
X114255D01*
Y71145D01*
X114655D01*
Y71946D01*
X114255D01*
Y72346D01*
X113455D01*
Y71946D01*
X113055D01*
Y71145D01*
X113455D01*
X120194Y62746D02*
Y62346D01*
X120994D01*
Y62746D01*
X121394D01*
Y63546D01*
X120994D01*
Y63946D01*
X120194D01*
Y63546D01*
X119794D01*
Y62746D01*
X120194D01*
X132835Y71046D02*
Y70645D01*
X133635D01*
Y71046D01*
X134035D01*
Y71846D01*
X133635D01*
Y72246D01*
X132835D01*
Y71846D01*
X132435D01*
Y71046D01*
X132835D01*
X108941Y70485D02*
Y70085D01*
X109741D01*
Y70485D01*
X110141D01*
Y71285D01*
X109741D01*
Y71685D01*
X108941D01*
Y71285D01*
X108541D01*
Y70485D01*
X108941D01*
X108339Y58028D02*
Y57628D01*
X109139D01*
Y58028D01*
X109539D01*
Y58828D01*
X109139D01*
Y59228D01*
X108339D01*
Y58828D01*
X107939D01*
Y58028D01*
X108339D01*
X108686Y41334D02*
Y40934D01*
X109486D01*
Y41334D01*
X109886D01*
Y42134D01*
X109486D01*
Y42534D01*
X108686D01*
Y42134D01*
X108286D01*
Y41334D01*
X108686D01*
X98206Y57876D02*
Y57477D01*
X99006D01*
Y57876D01*
X99406D01*
Y58676D01*
X99006D01*
Y59076D01*
X98206D01*
Y58676D01*
X97806D01*
Y57876D01*
X98206D01*
X129324Y59782D02*
Y59382D01*
X130124D01*
Y59782D01*
X130524D01*
Y60582D01*
X130124D01*
Y60982D01*
X129324D01*
Y60582D01*
X128924D01*
Y59782D01*
X129324D01*
X128481Y40152D02*
Y39751D01*
X129281D01*
Y40152D01*
X129681D01*
Y40951D01*
X129281D01*
Y41352D01*
X128481D01*
Y40951D01*
X128081D01*
Y40152D01*
X128481D01*
X138717Y90512D02*
Y90112D01*
X139517D01*
Y90512D01*
X139918D01*
Y91312D01*
X139517D01*
Y91712D01*
X138717D01*
Y91312D01*
X138318D01*
Y90512D01*
X138717D01*
X108339Y100293D02*
Y99893D01*
X109139D01*
Y100293D01*
X109539D01*
Y101093D01*
X109139D01*
Y101493D01*
X108339D01*
Y101093D01*
X107939D01*
Y100293D01*
X108339D01*
X138717Y81609D02*
Y81209D01*
X139517D01*
Y81609D01*
X139918D01*
Y82409D01*
X139517D01*
Y82809D01*
X138717D01*
Y82409D01*
X138318D01*
Y81609D01*
X138717D01*
X138689Y27402D02*
Y27002D01*
X139489D01*
Y27402D01*
X139889D01*
Y28202D01*
X139489D01*
Y28602D01*
X138689D01*
Y28202D01*
X138289D01*
Y27402D01*
X138689D01*
X110717Y35190D02*
Y34791D01*
X111518D01*
Y35190D01*
X111917D01*
Y35991D01*
X111518D01*
Y36391D01*
X110717D01*
Y35991D01*
X110318D01*
Y35190D01*
X110717D01*
X127646Y23314D02*
Y22914D01*
X128446D01*
Y23314D01*
X128846D01*
Y24114D01*
X128446D01*
Y24514D01*
X127646D01*
Y24114D01*
X127246D01*
Y23314D01*
X127646D01*
X115134Y55550D02*
Y55150D01*
X115934D01*
Y55550D01*
X116334D01*
Y56350D01*
X115934D01*
Y56750D01*
X115134D01*
Y56350D01*
X114734D01*
Y55550D01*
X115134D01*
X138717Y40180D02*
Y39780D01*
X139517D01*
Y40180D01*
X139918D01*
Y40980D01*
X139517D01*
Y41380D01*
X138717D01*
Y40980D01*
X138318D01*
Y40180D01*
X138717D01*
X87161Y30919D02*
Y30519D01*
X87962D01*
Y30919D01*
X88362D01*
Y31719D01*
X87962D01*
Y32119D01*
X87161D01*
Y31719D01*
X86761D01*
Y30919D01*
X87161D01*
X75336Y20690D02*
Y20290D01*
X76135D01*
Y20690D01*
X76535D01*
Y21490D01*
X76135D01*
Y21890D01*
X75336D01*
Y21490D01*
X74936D01*
Y20690D01*
X75336D01*
X19704Y25695D02*
Y25295D01*
X20504D01*
Y25695D01*
X20904D01*
Y26495D01*
X20504D01*
Y26895D01*
X19704D01*
Y26495D01*
X19304D01*
Y25695D01*
X19704D01*
X29743Y58228D02*
Y57828D01*
X30543D01*
Y58228D01*
X30943D01*
Y59028D01*
X30543D01*
Y59428D01*
X29743D01*
Y59028D01*
X29343D01*
Y58228D01*
X29743D01*
X73839Y120537D02*
Y120137D01*
X74639D01*
Y120537D01*
X75039D01*
Y121337D01*
X74639D01*
Y121737D01*
X73839D01*
Y121337D01*
X73439D01*
Y120537D01*
X73839D01*
X80508Y73088D02*
Y72688D01*
X81308D01*
Y73088D01*
X81708D01*
Y73888D01*
X81308D01*
Y74288D01*
X80508D01*
Y73888D01*
X80108D01*
Y73088D01*
X80508D01*
X80510Y66300D02*
Y65900D01*
X81309D01*
Y66300D01*
X81709D01*
Y67100D01*
X81309D01*
Y67500D01*
X80510D01*
Y67100D01*
X80110D01*
Y66300D01*
X80510D01*
X76734Y58400D02*
Y58000D01*
X77534D01*
Y58400D01*
X77934D01*
Y59200D01*
X77534D01*
Y59600D01*
X76734D01*
Y59200D01*
X76334D01*
Y58400D01*
X76734D01*
X37871Y120692D02*
Y120292D01*
X38671D01*
Y120692D01*
X39071D01*
Y121492D01*
X38671D01*
Y121892D01*
X37871D01*
Y121492D01*
X37471D01*
Y120692D01*
X37871D01*
X216530Y29884D02*
Y29484D01*
X217330D01*
Y29884D01*
X217730D01*
Y30684D01*
X217330D01*
Y31084D01*
X216530D01*
Y30684D01*
X216130D01*
Y29884D01*
X216530D01*
X29940Y120346D02*
Y119946D01*
X30740D01*
Y120346D01*
X31140D01*
Y121146D01*
X30740D01*
Y121546D01*
X29940D01*
Y121146D01*
X29540D01*
Y120346D01*
X29940D01*
X25899Y113025D02*
Y112625D01*
X26699D01*
Y113025D01*
X27099D01*
Y113825D01*
X26699D01*
Y114225D01*
X25899D01*
Y113825D01*
X25499D01*
Y113025D01*
X25899D01*
Y106306D02*
Y105906D01*
X26699D01*
Y106306D01*
X27099D01*
Y107106D01*
X26699D01*
Y107506D01*
X25899D01*
Y107106D01*
X25499D01*
Y106306D01*
X25899D01*
Y99893D02*
Y99493D01*
X26699D01*
Y99893D01*
X27099D01*
Y100693D01*
X26699D01*
Y101093D01*
X25899D01*
Y100693D01*
X25499D01*
Y99893D01*
X25899D01*
Y92970D02*
Y92570D01*
X26699D01*
Y92970D01*
X27099D01*
Y93770D01*
X26699D01*
Y94170D01*
X25899D01*
Y93770D01*
X25499D01*
Y92970D01*
X25899D01*
Y86870D02*
Y86470D01*
X26699D01*
Y86870D01*
X27099D01*
Y87670D01*
X26699D01*
Y88070D01*
X25899D01*
Y87670D01*
X25499D01*
Y86870D01*
X25899D01*
X65093Y131994D02*
Y131594D01*
X65893D01*
Y131994D01*
X66293D01*
Y132794D01*
X65893D01*
Y133194D01*
X65093D01*
Y132794D01*
X64693D01*
Y131994D01*
X65093D01*
X54160Y73233D02*
Y72833D01*
X54960D01*
Y73233D01*
X55360D01*
Y74033D01*
X54960D01*
Y74433D01*
X54160D01*
Y74033D01*
X53760D01*
Y73233D01*
X54160D01*
X78933Y118023D02*
Y117623D01*
X79733D01*
Y118023D01*
X80133D01*
Y118823D01*
X79733D01*
Y119223D01*
X78933D01*
Y118823D01*
X78533D01*
Y118023D01*
X78933D01*
X80510Y112563D02*
Y112163D01*
X81309D01*
Y112563D01*
X81709D01*
Y113363D01*
X81309D01*
Y113763D01*
X80510D01*
Y113363D01*
X80110D01*
Y112563D01*
X80510D01*
X25899Y80621D02*
Y80221D01*
X26699D01*
Y80621D01*
X27099D01*
Y81421D01*
X26699D01*
Y81821D01*
X25899D01*
Y81421D01*
X25499D01*
Y80621D01*
X25899D01*
X25898Y73303D02*
Y72903D01*
X26698D01*
Y73303D01*
X27098D01*
Y74103D01*
X26698D01*
Y74503D01*
X25898D01*
Y74103D01*
X25498D01*
Y73303D01*
X25898D01*
X45853Y148716D02*
Y148316D01*
X46653D01*
Y148716D01*
X47053D01*
Y149516D01*
X46653D01*
Y149916D01*
X45853D01*
Y149516D01*
X45453D01*
Y148716D01*
X45853D01*
X71301Y58400D02*
Y58000D01*
X72101D01*
Y58400D01*
X72501D01*
Y59200D01*
X72101D01*
Y59600D01*
X71301D01*
Y59200D01*
X70901D01*
Y58400D01*
X71301D01*
X75336Y63477D02*
Y63077D01*
X76135D01*
Y63477D01*
X76535D01*
Y64277D01*
X76135D01*
Y64677D01*
X75336D01*
Y64277D01*
X74936D01*
Y63477D01*
X75336D01*
X75635Y69741D02*
Y69341D01*
X76436D01*
Y69741D01*
X76836D01*
Y70541D01*
X76436D01*
Y70941D01*
X75635D01*
Y70541D01*
X75235D01*
Y69741D01*
X75635D01*
Y76400D02*
Y76000D01*
X76436D01*
Y76400D01*
X76836D01*
Y77200D01*
X76436D01*
Y77600D01*
X75635D01*
Y77200D01*
X75235D01*
Y76400D01*
X75635D01*
X80510Y79702D02*
Y79302D01*
X81309D01*
Y79702D01*
X81709D01*
Y80502D01*
X81309D01*
Y80902D01*
X80510D01*
Y80502D01*
X80110D01*
Y79702D01*
X80510D01*
X75635Y83023D02*
Y82623D01*
X76436D01*
Y83023D01*
X76836D01*
Y83823D01*
X76436D01*
Y84223D01*
X75635D01*
Y83823D01*
X75235D01*
Y83023D01*
X75635D01*
Y89700D02*
Y89300D01*
X76436D01*
Y89700D01*
X76836D01*
Y90500D01*
X76436D01*
Y90900D01*
X75635D01*
Y90500D01*
X75235D01*
Y89700D01*
X75635D01*
Y96100D02*
Y95700D01*
X76436D01*
Y96100D01*
X76836D01*
Y96900D01*
X76436D01*
Y97300D01*
X75635D01*
Y96900D01*
X75235D01*
Y96100D01*
X75635D01*
X31380D02*
Y95700D01*
X32180D01*
Y96100D01*
X32580D01*
Y96900D01*
X32180D01*
Y97300D01*
X31380D01*
Y96900D01*
X30980D01*
Y96100D01*
X31380D01*
Y89700D02*
Y89300D01*
X32180D01*
Y89700D01*
X32580D01*
Y90500D01*
X32180D01*
Y90900D01*
X31380D01*
Y90500D01*
X30980D01*
Y89700D01*
X31380D01*
Y83023D02*
Y82623D01*
X32180D01*
Y83023D01*
X32580D01*
Y83823D01*
X32180D01*
Y84223D01*
X31380D01*
Y83823D01*
X30980D01*
Y83023D01*
X31380D01*
Y76400D02*
Y76000D01*
X32180D01*
Y76400D01*
X32580D01*
Y77200D01*
X32180D01*
Y77600D01*
X31380D01*
Y77200D01*
X30980D01*
Y76400D01*
X31380D01*
Y69744D02*
Y69344D01*
X32180D01*
Y69744D01*
X32580D01*
Y70544D01*
X32180D01*
Y70944D01*
X31380D01*
Y70544D01*
X30980D01*
Y69744D01*
X31380D01*
X31378Y63477D02*
Y63077D01*
X32178D01*
Y63477D01*
X32578D01*
Y64277D01*
X32178D01*
Y64677D01*
X31378D01*
Y64277D01*
X30978D01*
Y63477D01*
X31378D01*
X35412Y58400D02*
Y58000D01*
X36213D01*
Y58400D01*
X36612D01*
Y59200D01*
X36213D01*
Y59600D01*
X35412D01*
Y59200D01*
X35013D01*
Y58400D01*
X35412D01*
X55229Y117798D02*
Y117398D01*
X56028D01*
Y117798D01*
X56428D01*
Y118598D01*
X56028D01*
Y118998D01*
X55229D01*
Y118598D01*
X54829D01*
Y117798D01*
X55229D01*
X75635Y102658D02*
Y102258D01*
X76436D01*
Y102658D01*
X76836D01*
Y103458D01*
X76436D01*
Y103858D01*
X75635D01*
Y103458D01*
X75235D01*
Y102658D01*
X75635D01*
X80510Y106000D02*
Y105600D01*
X81309D01*
Y106000D01*
X81709D01*
Y106800D01*
X81309D01*
Y107200D01*
X80510D01*
Y106800D01*
X80110D01*
Y106000D01*
X80510D01*
X31380Y102658D02*
Y102258D01*
X32180D01*
Y102658D01*
X32580D01*
Y103458D01*
X32180D01*
Y103858D01*
X31380D01*
Y103458D01*
X30980D01*
Y102658D01*
X31380D01*
X25899Y65869D02*
Y65469D01*
X26699D01*
Y65869D01*
X27099D01*
Y66669D01*
X26699D01*
Y67069D01*
X25899D01*
Y66669D01*
X25499D01*
Y65869D01*
X25899D01*
M02*
