G04*
G04 #@! TF.GenerationSoftware,Altium Limited,Altium Designer,20.1.11 (218)*
G04*
G04 Layer_Physical_Order=5*
G04 Layer_Color=128*
%FSLAX25Y25*%
%MOIN*%
G70*
G04*
G04 #@! TF.SameCoordinates,FBA81C19-FCCB-422B-9B6C-78DF9D3B5762*
G04*
G04*
G04 #@! TF.FilePolarity,Negative*
G04*
G01*
G75*
%ADD93C,0.04000*%
%ADD94C,0.05181*%
%ADD95C,0.07543*%
%ADD96C,0.08331*%
%ADD97C,0.16598*%
%ADD100C,0.04984*%
D93*
X1Y-0D02*
X241773Y0D01*
X241772Y-0D02*
X241773Y0D01*
X241772Y-0D02*
Y11417D01*
X251220Y20866D01*
Y150000D01*
X241378Y159843D02*
X251220Y150000D01*
X241378Y159843D02*
Y205118D01*
X233898Y212598D02*
X241378Y205118D01*
X233898Y212598D02*
X233899Y212598D01*
X7873D02*
X233899D01*
X7873D02*
X7875Y212598D01*
X395Y205118D02*
X7875Y212598D01*
X395Y159843D02*
Y205118D01*
X-9448Y150000D02*
X395Y159843D01*
X-9448Y20866D02*
Y150000D01*
Y20866D02*
X1Y11417D01*
Y-0D02*
Y11417D01*
D94*
X38032Y113425D02*
D03*
X69672Y113451D02*
D03*
D95*
X80395Y10967D02*
D03*
X110395D02*
D03*
X120395D02*
D03*
X130395D02*
D03*
X140395D02*
D03*
X150395D02*
D03*
X60395D02*
D03*
X50395D02*
D03*
X40395D02*
D03*
X30395D02*
D03*
X20395D02*
D03*
X10395D02*
D03*
X186395Y200967D02*
D03*
X176395D02*
D03*
X146395D02*
D03*
X136395D02*
D03*
X126395D02*
D03*
X116395D02*
D03*
X106395D02*
D03*
X96395D02*
D03*
X166395D02*
D03*
X80395D02*
D03*
X70395D02*
D03*
X60395D02*
D03*
X50395D02*
D03*
X40395D02*
D03*
X30395D02*
D03*
X20395D02*
D03*
X10395D02*
D03*
D96*
X243988Y101898D02*
D03*
Y121898D02*
D03*
Y111898D02*
D03*
Y61898D02*
D03*
Y51898D02*
D03*
Y71898D02*
D03*
Y81898D02*
D03*
X232915Y198071D02*
D03*
Y178071D02*
D03*
Y188071D02*
D03*
D97*
X592Y31142D02*
D03*
Y141142D02*
D03*
D03*
X241181Y31142D02*
D03*
Y141142D02*
D03*
X205591Y11142D02*
D03*
X200591Y201142D02*
D03*
X592Y141142D02*
D03*
Y31142D02*
D03*
D100*
X147276Y29028D02*
D03*
X39430Y29069D02*
D03*
X51221Y29028D02*
D03*
X25888Y29139D02*
D03*
X66295Y29028D02*
D03*
X4862Y44598D02*
D03*
M02*
