G04*
G04 #@! TF.GenerationSoftware,Altium Limited,Altium Designer,20.1.11 (218)*
G04*
G04 Layer_Color=5220458*
%FSLAX25Y25*%
%MOIN*%
G70*
G04*
G04 #@! TF.SameCoordinates,FBA81C19-FCCB-422B-9B6C-78DF9D3B5762*
G04*
G04*
G04 #@! TF.FilePolarity,Positive*
G04*
G01*
G75*
%ADD12C,0.00394*%
%ADD56C,0.01000*%
%ADD105C,0.00197*%
D12*
X13339Y26586D02*
Y30523D01*
X11370Y28555D02*
X15307D01*
X182342Y96393D02*
X198878D01*
Y110566D01*
X182342D02*
X198878D01*
X182342Y96393D02*
Y110566D01*
X190610Y101511D02*
Y105448D01*
X188641Y103479D02*
X192578D01*
X119372Y162343D02*
Y166280D01*
X117404Y164312D02*
X121341D01*
X105396Y148957D02*
X133349D01*
X105396D02*
Y179666D01*
X133349D01*
Y148957D02*
Y179666D01*
X114689Y34352D02*
Y61911D01*
Y34352D02*
X130437D01*
Y61911D01*
X114689D02*
X130437D01*
X120594Y48131D02*
X124531D01*
X122563Y46163D02*
Y50100D01*
X52993Y94603D02*
Y98540D01*
X51025Y96571D02*
X54962D01*
X11261Y33579D02*
Y159563D01*
Y33579D02*
X94725D01*
X11261Y159563D02*
X94725D01*
Y33579D02*
Y159563D01*
X118345Y160433D02*
Y169094D01*
X108109D02*
X118345D01*
X108109Y160433D02*
Y169094D01*
Y160433D02*
X118345D01*
X111259Y164764D02*
X115196D01*
X113227Y162795D02*
Y166732D01*
X51772Y60118D02*
X55709D01*
X53740Y58149D02*
Y62086D01*
X47047Y53425D02*
X60433D01*
Y66811D01*
X47047D02*
X60433D01*
X47047Y53425D02*
Y66811D01*
X45561Y160514D02*
X59380D01*
X45561D02*
Y175711D01*
X59380D01*
Y160514D02*
Y175711D01*
X52411Y166144D02*
Y170081D01*
X50443Y168112D02*
X54380D01*
X236704Y44969D02*
Y128827D01*
Y44969D02*
X251271D01*
Y128827D01*
X236704D02*
X251271D01*
X243988Y84929D02*
Y88866D01*
X242019Y86898D02*
X245956D01*
X230946Y188071D02*
X234883D01*
X232915Y186102D02*
Y190039D01*
X240198Y170945D02*
Y205197D01*
X225632D02*
X240198D01*
X225632Y170945D02*
Y205197D01*
Y170945D02*
X240198D01*
X145317Y170866D02*
X239017D01*
Y140157D02*
Y170866D01*
X190199Y155512D02*
X194135D01*
X192167Y153543D02*
Y157480D01*
X145317Y140157D02*
Y170866D01*
Y140157D02*
X239017D01*
X50091Y132061D02*
X54028D01*
X52060Y130093D02*
Y134029D01*
X59028Y124463D02*
Y139660D01*
X45209D02*
X59028D01*
X45209Y124463D02*
Y139660D01*
Y124463D02*
X59028D01*
X125582Y162795D02*
Y166732D01*
X123613Y164764D02*
X127550D01*
X120464Y160433D02*
X130700D01*
X120464D02*
Y169094D01*
X130700D01*
Y160433D02*
Y169094D01*
X64329Y29744D02*
X68266D01*
X66297Y27776D02*
Y31713D01*
X39430Y27101D02*
Y31038D01*
X37461Y29069D02*
X41399D01*
X145317Y41732D02*
X239017D01*
X145317D02*
Y72441D01*
X192167Y55118D02*
Y59055D01*
X190199Y57087D02*
X194135D01*
X239017Y41732D02*
Y72441D01*
X145317D02*
X239017D01*
X122735Y95175D02*
Y99112D01*
X120766Y97143D02*
X124703D01*
X114861Y110923D02*
X130609D01*
Y83364D02*
Y110923D01*
X114861Y83364D02*
X130609D01*
X114861D02*
Y110923D01*
X13584Y35630D02*
X92324D01*
X92324D02*
Y157677D01*
X13584D02*
X92324D01*
X13584Y35630D02*
Y157677D01*
X50985Y96653D02*
X54922D01*
X52954Y94685D02*
Y98622D01*
D56*
X9873Y36600D02*
X84851D01*
X9873Y36598D02*
Y36600D01*
X85847Y37596D02*
Y164654D01*
X9873Y36115D02*
Y36598D01*
X10145Y165028D02*
X10417Y165300D01*
X9873Y36598D02*
X21102D01*
X9870D02*
X9873D01*
X10417Y165300D02*
X85201D01*
X9873Y165028D02*
X10145D01*
X9873Y36600D02*
Y165028D01*
X85201Y165300D02*
X85847Y164654D01*
D105*
X8024Y35641D02*
X18654D01*
X8024Y21468D02*
X18654D01*
Y35641D01*
X8024Y21468D02*
Y35641D01*
X211458Y73237D02*
Y80088D01*
X208309Y73237D02*
X211458D01*
X208309D02*
Y80088D01*
X208309D02*
X211458D01*
X159367Y106533D02*
X162516D01*
X162516D02*
Y113384D01*
X159367Y106533D02*
Y113384D01*
X162516D01*
X53327Y118012D02*
Y121162D01*
X46477D02*
X53327D01*
X46477Y118012D02*
X53327D01*
X46477Y118012D02*
Y121162D01*
X53327Y114701D02*
Y117851D01*
X46477D02*
X53327D01*
X46477Y114701D02*
X53327D01*
X46477Y114701D02*
Y117851D01*
X52090Y140104D02*
Y143253D01*
Y140104D02*
X58941D01*
X52090Y143253D02*
X58941D01*
Y140104D02*
Y143253D01*
X52266Y84317D02*
Y87467D01*
X45416Y87467D02*
X52266D01*
X45416Y84317D02*
X52266D01*
X45416D02*
Y87467D01*
X52429Y78170D02*
Y81320D01*
X45578Y81320D02*
X52429D01*
X45578Y78170D02*
X52429D01*
X45578D02*
Y81320D01*
X52346Y71933D02*
Y75083D01*
X45496Y75083D02*
X52346D01*
X45496Y71933D02*
X52346D01*
X45496D02*
Y75083D01*
X35261Y51378D02*
Y54527D01*
Y51378D02*
X42112D01*
X35261Y54527D02*
X42112D01*
Y51378D02*
Y54527D01*
X64130Y70895D02*
Y74045D01*
X57280Y74045D02*
X64130D01*
X57280Y70895D02*
X64130D01*
X57280D02*
Y74045D01*
X59942Y127038D02*
Y130188D01*
Y127038D02*
X66792D01*
X59942Y130188D02*
X66792D01*
Y127038D02*
Y130188D01*
X54037Y89171D02*
Y92320D01*
Y89171D02*
X60887D01*
X54037Y92320D02*
X60887D01*
Y89171D02*
Y92320D01*
X73046Y23240D02*
X76196D01*
X76196D02*
Y30090D01*
X73046Y23240D02*
Y30090D01*
X76196D01*
X45245Y23813D02*
X48394D01*
X48394D02*
Y30664D01*
X45245Y23813D02*
Y30664D01*
X48394D01*
X146840Y85837D02*
Y88987D01*
Y85837D02*
X153690D01*
X146840Y88987D02*
X153690D01*
Y85837D02*
Y88987D01*
X130650Y50629D02*
Y53779D01*
Y50629D02*
X137500D01*
X130650Y53779D02*
X137500D01*
Y50629D02*
Y53779D01*
X122717Y65340D02*
Y68490D01*
Y65340D02*
X129567D01*
X122717Y68490D02*
X129567D01*
Y65340D02*
Y68490D01*
X130600Y89303D02*
Y92453D01*
Y89303D02*
X137450D01*
X130600Y92453D02*
X137450D01*
Y89303D02*
Y92453D01*
X130521Y38977D02*
Y42126D01*
Y38977D02*
X137372D01*
X130521Y42126D02*
X137372D01*
Y38977D02*
Y42126D01*
X80654Y27692D02*
X83803D01*
X83803D02*
Y34543D01*
X80654Y27692D02*
Y34543D01*
X83803D01*
X130600Y102308D02*
Y105458D01*
Y102308D02*
X137450D01*
X130600Y105458D02*
X137450D01*
Y102308D02*
Y105458D01*
X100747Y99122D02*
Y102271D01*
Y99122D02*
X107597D01*
X100747Y102271D02*
X107597D01*
Y99122D02*
Y102271D01*
X128750Y111519D02*
Y114669D01*
Y111519D02*
X135600D01*
X128750Y114669D02*
X135600D01*
Y111519D02*
Y114669D01*
X90906Y32599D02*
Y35748D01*
Y32599D02*
X97756D01*
X90906Y35748D02*
X97756D01*
Y32599D02*
Y35748D01*
X107597Y82357D02*
Y85507D01*
X100747Y85507D02*
X107597D01*
X100747Y82357D02*
X107597D01*
X100747D02*
Y85507D01*
X90906Y22849D02*
Y25998D01*
Y22849D02*
X97756D01*
X90906Y25998D02*
X97756D01*
Y22849D02*
Y25998D01*
X144607Y67913D02*
Y71063D01*
X137757D02*
X144607D01*
X137757Y67913D02*
X144607D01*
X137757Y67913D02*
Y71063D01*
X80654Y26309D02*
X83803D01*
X80654Y19458D02*
Y26309D01*
X83803Y19458D02*
Y26309D01*
X80654Y19458D02*
X83803D01*
X130600Y93659D02*
Y96808D01*
Y93659D02*
X137450D01*
X130600Y96808D02*
X137450D01*
Y93659D02*
Y96808D01*
X130600Y84612D02*
Y87761D01*
Y84612D02*
X137450D01*
X130600Y87761D02*
X137450D01*
Y84612D02*
Y87761D01*
X129567Y80561D02*
Y83711D01*
X122717Y83711D02*
X129567D01*
X122717Y80561D02*
X129567D01*
X122717D02*
Y83711D01*
X114179Y26748D02*
Y29898D01*
Y26748D02*
X121030D01*
X114179Y29898D02*
X121030D01*
Y26748D02*
Y29898D01*
X137757Y59055D02*
Y62205D01*
Y59055D02*
X144607D01*
X137757Y62205D02*
X144607D01*
Y59055D02*
Y62205D01*
X114181Y18183D02*
Y21332D01*
Y18183D02*
X121032D01*
X114181Y21332D02*
X121032D01*
Y18183D02*
Y21332D01*
X163229Y29592D02*
Y32741D01*
X156379Y32741D02*
X163229D01*
X156379Y29592D02*
X163229D01*
X156379D02*
Y32741D01*
X176766Y37431D02*
Y40580D01*
X169915Y40580D02*
X176766D01*
X169915Y37431D02*
X176766D01*
X169915D02*
Y40580D01*
X178517Y108905D02*
X181667D01*
X178517Y102054D02*
Y108905D01*
X181667Y102054D02*
Y108905D01*
X178517Y102054D02*
X181667D01*
X208224Y99638D02*
Y102788D01*
X201374Y102788D02*
X208224D01*
X201374Y99638D02*
X208224D01*
X201374D02*
Y102788D01*
X101857Y143609D02*
X105007D01*
X101857Y136758D02*
Y143609D01*
X105007Y136758D02*
Y143609D01*
X101857Y136758D02*
X105007D01*
X107973Y188865D02*
X111122D01*
X107973Y182015D02*
Y188865D01*
X111122Y182015D02*
Y188865D01*
X107973Y182015D02*
X111122D01*
X98573Y143609D02*
X101723D01*
X98573Y136758D02*
Y143609D01*
X101723Y136758D02*
Y143609D01*
X98573Y136758D02*
X101723D01*
X51977Y146584D02*
X58827D01*
Y143434D02*
Y146584D01*
X51977Y143434D02*
X58827D01*
X51977Y143434D02*
Y146584D01*
X44624Y143371D02*
X51474D01*
Y140222D02*
Y143371D01*
X44624Y140222D02*
X51474D01*
X44624Y140222D02*
Y143371D01*
X53514Y106728D02*
Y113579D01*
X50365Y106728D02*
X53514D01*
X50365D02*
Y113579D01*
X50365D02*
X53514D01*
X44668Y143769D02*
X51519D01*
X44668Y143769D02*
Y146918D01*
X51519D01*
Y143769D02*
Y146918D01*
X53049Y96035D02*
Y102885D01*
X49900Y96035D02*
X53049D01*
X49900D02*
Y102885D01*
X49900D02*
X53049D01*
X38028Y163565D02*
X41178D01*
X41178D02*
Y170415D01*
X38028D02*
X41178D01*
X38028Y163565D02*
Y170415D01*
X57260Y70341D02*
X64110D01*
Y67191D02*
Y70341D01*
X57260Y67191D02*
X64110D01*
X57260Y67191D02*
Y70341D01*
X54091Y109578D02*
Y116428D01*
X54091D02*
X57241D01*
Y109578D02*
Y116428D01*
X54091Y109578D02*
X57241D01*
X112455Y136700D02*
Y143550D01*
X109306Y136700D02*
X112455D01*
X109306D02*
Y143550D01*
X109306D02*
X112455D01*
X108652Y136758D02*
Y143609D01*
X105503Y136758D02*
X108652D01*
X105503D02*
Y143609D01*
X105503D02*
X108652D01*
X35242Y47113D02*
X42092D01*
Y43963D02*
Y47113D01*
X35242Y43963D02*
X42092D01*
X35242Y43963D02*
Y47113D01*
X63199Y130740D02*
Y137591D01*
X60050Y130740D02*
X63199D01*
X60050D02*
Y137591D01*
X60050D02*
X63199D01*
X57284Y95246D02*
Y102096D01*
X54134Y95246D02*
X57284D01*
X54134D02*
Y102096D01*
X54134D02*
X57284D01*
X188985Y33570D02*
Y40420D01*
X188985D02*
X192134D01*
Y33570D02*
Y40420D01*
X188985Y33570D02*
X192134D01*
X57536Y117454D02*
Y124304D01*
X57536D02*
X60685D01*
Y117454D02*
Y124304D01*
X57536Y117454D02*
X60685D01*
X100747Y106493D02*
X107597D01*
Y103344D02*
Y106493D01*
X100747Y103344D02*
X107597D01*
X100747Y103344D02*
Y106493D01*
X146919Y81476D02*
X153770D01*
X146919Y81476D02*
Y84625D01*
X153770D01*
Y81476D02*
Y84625D01*
X130650Y57525D02*
X137500D01*
Y54375D02*
Y57525D01*
X130650Y54375D02*
X137500D01*
X130650Y54375D02*
Y57525D01*
X100747Y115199D02*
X107597D01*
Y112049D02*
Y115199D01*
X100747Y112049D02*
X107597D01*
X100747Y112049D02*
Y115199D01*
X128750Y123354D02*
X135600D01*
Y120205D02*
Y123354D01*
X128750Y120205D02*
X135600D01*
X128750Y120205D02*
Y123354D01*
X122788Y69291D02*
X129639D01*
X122788Y69291D02*
Y72440D01*
X129639D01*
Y69291D02*
Y72440D01*
X122717Y64721D02*
X129567D01*
Y61572D02*
Y64721D01*
X122717Y61572D02*
X129567D01*
X122717Y61572D02*
Y64721D01*
X100748Y47097D02*
X107598D01*
X100748Y47097D02*
Y50247D01*
X107598D01*
Y47097D02*
Y50247D01*
X118651Y126765D02*
X125502D01*
Y123615D02*
Y126765D01*
X118651Y123615D02*
X125502D01*
X118651Y123615D02*
Y126765D01*
X100748Y55484D02*
X107598D01*
Y52335D02*
Y55484D01*
X100748Y52335D02*
X107598D01*
X100748Y52335D02*
Y55484D01*
X118651Y118595D02*
X125502D01*
Y115445D02*
Y118595D01*
X118651Y115445D02*
X125502D01*
X118651Y115445D02*
Y118595D01*
X100747Y77892D02*
X107597D01*
X100747Y77892D02*
Y81041D01*
X107597D01*
Y77892D02*
Y81041D01*
X100748Y37879D02*
X107598D01*
X100748Y37879D02*
Y41028D01*
X107598D01*
Y37879D02*
Y41028D01*
X130600Y109820D02*
X137450D01*
Y106671D02*
Y109820D01*
X130600Y106671D02*
X137450D01*
X130600Y106671D02*
Y109820D01*
X187996Y73348D02*
Y80198D01*
X184846Y73348D02*
X187996D01*
X184846D02*
Y80198D01*
X184846D02*
X187996D01*
X100748Y69697D02*
X107598D01*
X100748Y69697D02*
Y72847D01*
X107598D01*
Y69697D02*
Y72847D01*
X100747Y98203D02*
X107597D01*
Y95054D02*
Y98203D01*
X100747Y95054D02*
X107597D01*
X100747Y95054D02*
Y98203D01*
X105842Y33925D02*
X112692D01*
Y30775D02*
Y33925D01*
X105842Y30775D02*
X112692D01*
X105842Y30775D02*
Y33925D01*
X130600Y101035D02*
X137450D01*
Y97885D02*
Y101035D01*
X130600Y97885D02*
X137450D01*
X130600Y97885D02*
Y101035D01*
X183858Y73452D02*
Y80303D01*
X180708Y73452D02*
X183858D01*
X180708D02*
Y80303D01*
X180708D02*
X183858D01*
X130480Y37429D02*
X137330D01*
Y34280D02*
Y37429D01*
X130480Y34280D02*
X137330D01*
X130480Y34280D02*
Y37429D01*
X130600Y76513D02*
X137450D01*
X130600Y76513D02*
Y79663D01*
X137450D01*
Y76513D02*
Y79663D01*
X130600Y83627D02*
X137450D01*
Y80477D02*
Y83627D01*
X130600Y80477D02*
X137450D01*
X130600Y80477D02*
Y83627D01*
X90906Y21332D02*
X97756D01*
Y18183D02*
Y21332D01*
X90906Y18183D02*
X97756D01*
X90906Y18183D02*
Y21332D01*
X137757Y63388D02*
X144607D01*
X137757Y63388D02*
Y66537D01*
X144607D01*
Y63388D02*
Y66537D01*
X108444Y82249D02*
X115294D01*
Y79099D02*
Y82249D01*
X108444Y79099D02*
X115294D01*
X108444Y79099D02*
Y82249D01*
X130480Y33411D02*
X137330D01*
Y30261D02*
Y33411D01*
X130480Y30261D02*
X137330D01*
X130480Y30261D02*
Y33411D01*
X114179Y33925D02*
X121030D01*
Y30775D02*
Y33925D01*
X114179Y30775D02*
X121030D01*
X114179Y30776D02*
Y33925D01*
X130480Y26227D02*
X137330D01*
X130480Y26227D02*
Y29377D01*
X137330D01*
Y26227D02*
Y29377D01*
X122717Y79922D02*
X129567D01*
Y76772D02*
Y79922D01*
X122717Y76772D02*
X129567D01*
X122717Y76772D02*
Y79922D01*
X130601Y72732D02*
X137451D01*
X130601Y72732D02*
Y75882D01*
X137451D01*
Y72732D02*
Y75882D01*
X114181Y22577D02*
X121032D01*
X114181Y22577D02*
Y25727D01*
X121032D01*
Y22577D02*
Y25727D01*
X130480Y21331D02*
X137330D01*
Y18181D02*
Y21331D01*
X130480Y18181D02*
X137330D01*
X130480Y18181D02*
Y21331D01*
X122717Y76069D02*
X129567D01*
Y72920D02*
Y76069D01*
X122717Y72920D02*
X129567D01*
X122717Y72920D02*
Y76069D01*
X130650Y45832D02*
X137500D01*
Y42682D02*
Y45832D01*
X130650Y42682D02*
X137500D01*
X130650Y42682D02*
Y45832D01*
X156378Y33453D02*
X163228D01*
X156378Y33453D02*
Y36602D01*
X163228D01*
Y33453D02*
Y36602D01*
X156389Y40507D02*
X163239D01*
Y37357D02*
Y40507D01*
X156389Y37357D02*
X163239D01*
X156389Y37357D02*
Y40507D01*
X169913Y33453D02*
X176764D01*
X169913Y33453D02*
Y36602D01*
X176764D01*
Y33453D02*
Y36602D01*
X193749Y33570D02*
Y40420D01*
X193749D02*
X196899D01*
Y33570D02*
Y40420D01*
X193749Y33570D02*
X196899D01*
X174866Y98377D02*
X181717D01*
X174866Y98377D02*
Y101527D01*
X181717D01*
Y98377D02*
Y101527D01*
X201274Y106845D02*
X208124D01*
Y103695D02*
Y106845D01*
X201274Y103695D02*
X208124D01*
X201274Y103695D02*
Y106845D01*
X220125Y172073D02*
Y178924D01*
X220125D02*
X223274D01*
Y172073D02*
Y178924D01*
X220125Y172073D02*
X223274D01*
X221274Y132656D02*
Y139506D01*
X218124Y132656D02*
X221274D01*
X218124D02*
Y139506D01*
X218124D02*
X221274D01*
X201563Y33570D02*
Y40420D01*
X198414Y33570D02*
X201563D01*
X198414D02*
Y40420D01*
X198414D02*
X201563D01*
X205914Y33570D02*
Y40420D01*
X202764Y33570D02*
X205914D01*
X202764D02*
Y40420D01*
X202764D02*
X205914D01*
X132738Y136760D02*
Y143610D01*
X132738D02*
X135887D01*
Y136760D02*
Y143610D01*
X132738Y136760D02*
X135887D01*
X136748D02*
Y143610D01*
X136748D02*
X139898D01*
Y136760D02*
Y143610D01*
X136748Y136760D02*
X139898D01*
X65954Y16724D02*
X72804D01*
X65954Y16724D02*
Y19873D01*
X72804D01*
Y16724D02*
Y19873D01*
X50230Y16724D02*
X57080D01*
X50230Y16724D02*
Y19873D01*
X57080D01*
Y16724D02*
Y19873D01*
X32874Y19873D02*
X39724D01*
Y16724D02*
Y19873D01*
X32874Y16724D02*
X39724D01*
X32874Y16724D02*
Y19873D01*
X23274D02*
X30125D01*
Y16724D02*
Y19873D01*
X23274Y16724D02*
X30125D01*
X23274Y16724D02*
Y19873D01*
X13674D02*
X20525D01*
Y16724D02*
Y19873D01*
X13674Y16724D02*
X20525D01*
X13674Y16724D02*
Y19873D01*
X4074D02*
X10925D01*
Y16724D02*
Y19873D01*
X4074Y16724D02*
X10925D01*
X4074Y16724D02*
Y19873D01*
X60982Y22658D02*
Y36831D01*
X71612Y22658D02*
Y36831D01*
X60982Y22658D02*
X71612D01*
X60982Y36831D02*
X71612D01*
X34115Y36156D02*
X44745D01*
X34115Y21983D02*
X44745D01*
Y36156D01*
X34115Y21983D02*
Y36156D01*
X222323Y30315D02*
Y37165D01*
X222323D02*
X225472D01*
Y30315D02*
Y37165D01*
X222323Y30315D02*
X225472D01*
X210277Y30316D02*
Y37167D01*
X210277D02*
X213427D01*
Y30316D02*
Y37167D01*
X210277Y30316D02*
X213427D01*
X107597Y73781D02*
Y76930D01*
X100747Y76930D02*
X107597D01*
X100747Y73781D02*
X107597D01*
X100747D02*
Y76930D01*
X33509Y22908D02*
Y29758D01*
X30360Y22908D02*
X33509D01*
X30360D02*
Y29758D01*
X30360D02*
X33509D01*
X128750Y115823D02*
X135600D01*
X128750Y115823D02*
Y118972D01*
X135600D01*
Y115823D02*
Y118972D01*
X100748Y65568D02*
X107598D01*
X100748Y65568D02*
Y68718D01*
X107598D01*
Y65568D02*
Y68718D01*
X35260Y47689D02*
X42110D01*
X35260Y47689D02*
Y50839D01*
X42110D01*
Y47689D02*
Y50839D01*
X106858Y182013D02*
Y188863D01*
X103708Y182013D02*
X106858D01*
X103708D02*
Y188863D01*
X103708D02*
X106858D01*
X100747Y107863D02*
Y111013D01*
Y107863D02*
X107597D01*
X100747Y111013D02*
X107597D01*
Y107863D02*
Y111013D01*
X59875Y23556D02*
Y30406D01*
X56726Y23556D02*
X59875D01*
X56726D02*
Y30406D01*
X56726D02*
X59875D01*
X130650Y46734D02*
X137500D01*
X130650Y46734D02*
Y49884D01*
X137500D01*
Y46734D02*
Y49884D01*
X100748Y64105D02*
X107598D01*
Y60955D02*
Y64105D01*
X100748Y60955D02*
X107598D01*
X100748Y60955D02*
Y64105D01*
X54826Y44834D02*
X61676D01*
X54826Y44834D02*
Y47984D01*
X61676D01*
Y44834D02*
Y47984D01*
X46690Y44836D02*
X53540D01*
X46690Y44836D02*
Y47986D01*
X53540D01*
Y44836D02*
Y47986D01*
X56504Y52746D02*
X63355D01*
Y49597D02*
Y52746D01*
X56504Y49597D02*
X63355D01*
X56504Y49597D02*
Y52746D01*
X58974Y19873D02*
X65825D01*
Y16724D02*
Y19873D01*
X58974Y16724D02*
X65825D01*
X58974Y16724D02*
Y19873D01*
X42374D02*
X49224D01*
Y16724D02*
Y19873D01*
X42374Y16724D02*
X49224D01*
X42374Y16724D02*
Y19873D01*
X90906Y30911D02*
X97756D01*
Y27761D02*
Y30911D01*
X90906Y27761D02*
X97756D01*
X90906Y27761D02*
Y30911D01*
X70174Y47035D02*
Y53886D01*
X67024Y47035D02*
X70174D01*
X67024D02*
Y53886D01*
X67024D02*
X70174D01*
X100747Y89973D02*
X107597D01*
Y86823D02*
Y89973D01*
X100747Y86823D02*
X107597D01*
X100747Y86823D02*
Y89973D01*
Y91311D02*
X107597D01*
X100747Y91311D02*
Y94461D01*
X107597D01*
Y91311D02*
Y94461D01*
X146919Y77424D02*
X153770D01*
X146919Y77424D02*
Y80573D01*
X153770D01*
Y77424D02*
Y80573D01*
X146919Y73194D02*
X153770D01*
X146919Y73194D02*
Y76344D01*
X153770D01*
Y73194D02*
Y76344D01*
X118652Y111519D02*
Y114669D01*
Y111519D02*
X125503D01*
X118652Y114669D02*
X125503D01*
Y111519D02*
Y114669D01*
X115430Y86638D02*
Y89787D01*
X108580Y89787D02*
X115430D01*
X108580Y86638D02*
X115430D01*
X108580D02*
Y89787D01*
X118651Y119500D02*
X125502D01*
X118651Y119500D02*
Y122650D01*
X125502D01*
Y119500D02*
Y122649D01*
X108580Y76069D02*
X115430D01*
Y72920D02*
Y76069D01*
X108580Y72920D02*
X115430D01*
X108580Y72920D02*
Y76069D01*
X100748Y60002D02*
X107598D01*
Y56853D02*
Y60002D01*
X100748Y56853D02*
X107598D01*
X100748Y56853D02*
Y60002D01*
X105842Y29899D02*
X112692D01*
Y26749D02*
Y29899D01*
X105842Y26749D02*
X112692D01*
X105842Y26749D02*
Y29899D01*
X100748Y42570D02*
X107598D01*
X100748Y42570D02*
Y45719D01*
X107598D01*
Y42570D02*
Y45719D01*
X130480Y22139D02*
X137330D01*
X130480Y22139D02*
Y25289D01*
X137330D01*
Y22139D02*
Y25289D01*
X41869Y163529D02*
X45019D01*
Y170379D01*
X41869Y163529D02*
Y170379D01*
X41869D02*
X45019D01*
X61876Y77150D02*
Y80300D01*
X55025Y80300D02*
X61876D01*
X55025Y77150D02*
Y80300D01*
Y77150D02*
X61876D01*
X113116Y136696D02*
Y143547D01*
X113116D02*
X116265D01*
Y136696D02*
Y143547D01*
X113116Y136696D02*
X116265D01*
X46970Y158382D02*
X53820D01*
X46970Y158382D02*
Y161531D01*
X53820D01*
Y158382D02*
Y161531D01*
X150923Y97725D02*
X154073D01*
X150923Y90875D02*
Y97725D01*
X154073Y90875D02*
Y97725D01*
X150923Y90875D02*
X154073D01*
X159356Y97742D02*
X162506D01*
X159356Y90892D02*
Y97742D01*
X162506Y90892D02*
Y97742D01*
X159356Y90892D02*
X162506D01*
X151323Y113384D02*
X154473D01*
X151323Y106533D02*
Y113384D01*
X154473Y106533D02*
Y113384D01*
X151323Y106533D02*
X154473D01*
X146873Y90875D02*
Y97725D01*
X146873D02*
X150022D01*
Y90875D02*
Y97725D01*
X146873Y90875D02*
X150022D01*
X158385Y90892D02*
Y97742D01*
X155235Y90892D02*
X158385D01*
X155235D02*
Y97742D01*
X155235D02*
X158385D01*
X146873Y106533D02*
Y113384D01*
X146873D02*
X150022D01*
Y106533D02*
Y113384D01*
X146873Y106533D02*
X150022D01*
X158590D02*
Y113384D01*
X155441Y106533D02*
X158590D01*
X155441D02*
Y113384D01*
X155441D02*
X158590D01*
X166328Y90892D02*
Y97742D01*
X163178Y90892D02*
X166328D01*
X163178D02*
Y97742D01*
X163178D02*
X166328D01*
X163413Y106533D02*
Y113384D01*
X163413D02*
X166562D01*
Y106533D02*
Y113384D01*
X163413Y106533D02*
X166562D01*
X52768Y84199D02*
X59619D01*
Y81049D02*
Y84199D01*
X52768Y81049D02*
X59619D01*
X52768Y81049D02*
Y84199D01*
X186655Y135835D02*
X189805D01*
X186655Y128984D02*
Y135835D01*
Y128984D02*
X189805D01*
X189805D02*
Y135835D01*
X190592D02*
X193742D01*
X190592Y128984D02*
Y135835D01*
Y128984D02*
X193742D01*
X193742D02*
Y135835D01*
X182718D02*
X185868D01*
X182718Y128984D02*
Y135835D01*
Y128984D02*
X185868D01*
X185868D02*
Y135835D01*
X178781D02*
X181931D01*
X178781Y128984D02*
Y135835D01*
Y128984D02*
X181931D01*
X181931D02*
Y135835D01*
X174844Y135835D02*
X177994D01*
X174844Y128984D02*
Y135835D01*
Y128984D02*
X177994D01*
X177994D02*
Y135835D01*
M02*
