G04*
G04 #@! TF.GenerationSoftware,Altium Limited,Altium Designer,20.1.11 (218)*
G04*
G04 Layer_Color=32768*
%FSLAX25Y25*%
%MOIN*%
G70*
G04*
G04 #@! TF.SameCoordinates,FBA81C19-FCCB-422B-9B6C-78DF9D3B5762*
G04*
G04*
G04 #@! TF.FilePolarity,Positive*
G04*
G01*
G75*
%ADD104C,0.00050*%
D104*
X51166Y62147D02*
X51371D01*
X51144Y62154D02*
X51166Y62147D01*
X51126Y62172D02*
X51144Y62154D01*
X51119Y62194D02*
X51126Y62172D01*
X51119Y62194D02*
Y62376D01*
X51126Y62398D01*
X51144Y62415D01*
X51166Y62423D01*
X51371D01*
X51393Y62415D01*
X51411Y62398D01*
X51418Y62376D01*
Y62194D02*
Y62376D01*
X51411Y62172D02*
X51418Y62194D01*
X51393Y62154D02*
X51411Y62172D01*
X51371Y62147D02*
X51393Y62154D01*
X51166Y61655D02*
X51371D01*
X51144Y61662D02*
X51166Y61655D01*
X51126Y61680D02*
X51144Y61662D01*
X51119Y61702D02*
X51126Y61680D01*
X51119Y61702D02*
Y61884D01*
X51126Y61906D01*
X51144Y61923D01*
X51166Y61931D01*
X51371D01*
X51393Y61923D01*
X51411Y61906D01*
X51418Y61884D01*
Y61702D02*
Y61884D01*
X51411Y61680D02*
X51418Y61702D01*
X51393Y61662D02*
X51411Y61680D01*
X51371Y61655D02*
X51393Y61662D01*
X51166Y60375D02*
X51371D01*
X51144Y60383D02*
X51166Y60375D01*
X51126Y60400D02*
X51144Y60383D01*
X51119Y60422D02*
X51126Y60400D01*
X51119Y60422D02*
Y60604D01*
X51126Y60626D01*
X51144Y60644D01*
X51166Y60651D01*
X51371D01*
X51393Y60644D01*
X51411Y60626D01*
X51418Y60604D01*
Y60422D02*
Y60604D01*
X51411Y60400D02*
X51418Y60422D01*
X51393Y60383D02*
X51411Y60400D01*
X51371Y60375D02*
X51393Y60383D01*
X51166Y60005D02*
X51371D01*
X51144Y60013D02*
X51166Y60005D01*
X51126Y60030D02*
X51144Y60013D01*
X51119Y60052D02*
X51126Y60030D01*
X51119Y60052D02*
Y60187D01*
X51126Y60209D01*
X51144Y60227D01*
X51166Y60234D01*
X51371D01*
X51393Y60227D01*
X51411Y60209D01*
X51418Y60187D01*
Y60052D02*
Y60187D01*
X51411Y60030D02*
X51418Y60052D01*
X51393Y60013D02*
X51411Y60030D01*
X51371Y60005D02*
X51393Y60013D01*
X51166Y59588D02*
X51371D01*
X51144Y59595D02*
X51166Y59588D01*
X51126Y59613D02*
X51144Y59595D01*
X51119Y59635D02*
X51126Y59613D01*
X51119Y59635D02*
Y59817D01*
X51126Y59839D01*
X51144Y59856D01*
X51166Y59864D01*
X51371D01*
X51393Y59856D01*
X51411Y59839D01*
X51418Y59817D01*
Y59635D02*
Y59817D01*
X51411Y59613D02*
X51418Y59635D01*
X51393Y59595D02*
X51411Y59613D01*
X51371Y59588D02*
X51393Y59595D01*
X51166Y58604D02*
X51371D01*
X51144Y58611D02*
X51166Y58604D01*
X51126Y58629D02*
X51144Y58611D01*
X51119Y58651D02*
X51126Y58629D01*
X51119Y58651D02*
Y58833D01*
X51126Y58855D01*
X51144Y58872D01*
X51166Y58879D01*
X51371D01*
X51393Y58872D01*
X51411Y58855D01*
X51418Y58833D01*
Y58651D02*
Y58833D01*
X51411Y58629D02*
X51418Y58651D01*
X51393Y58611D02*
X51411Y58629D01*
X51371Y58604D02*
X51393Y58611D01*
X51166Y59096D02*
X51371D01*
X51144Y59103D02*
X51166Y59096D01*
X51126Y59121D02*
X51144Y59103D01*
X51119Y59143D02*
X51126Y59121D01*
X51119Y59143D02*
Y59325D01*
X51126Y59347D01*
X51144Y59364D01*
X51166Y59372D01*
X51371D01*
X51393Y59364D01*
X51411Y59347D01*
X51418Y59325D01*
Y59143D02*
Y59325D01*
X51411Y59121D02*
X51418Y59143D01*
X51393Y59103D02*
X51411Y59121D01*
X51371Y59096D02*
X51393Y59103D01*
X51166Y60793D02*
X51371D01*
X51144Y60800D02*
X51166Y60793D01*
X51126Y60818D02*
X51144Y60800D01*
X51119Y60840D02*
X51126Y60818D01*
X51119Y60840D02*
Y60974D01*
X51126Y60996D01*
X51144Y61014D01*
X51166Y61021D01*
X51371D01*
X51393Y61014D01*
X51411Y60996D01*
X51418Y60974D01*
Y60840D02*
Y60974D01*
X51411Y60818D02*
X51418Y60840D01*
X51393Y60800D02*
X51411Y60818D01*
X51371Y60793D02*
X51393Y60800D01*
X51166Y61163D02*
X51371D01*
X51144Y61170D02*
X51166Y61163D01*
X51126Y61188D02*
X51144Y61170D01*
X51119Y61210D02*
X51126Y61188D01*
X51119Y61210D02*
Y61392D01*
X51126Y61414D01*
X51144Y61431D01*
X51166Y61439D01*
X51371D01*
X51393Y61431D01*
X51411Y61414D01*
X51418Y61392D01*
Y61210D02*
Y61392D01*
X51411Y61188D02*
X51418Y61210D01*
X51393Y61170D02*
X51411Y61188D01*
X51371Y61163D02*
X51393Y61170D01*
X56119Y60375D02*
X56324D01*
X56096Y60383D02*
X56119Y60375D01*
X56079Y60400D02*
X56096Y60383D01*
X56072Y60422D02*
X56079Y60400D01*
X56072Y60422D02*
Y60604D01*
X56079Y60626D01*
X56096Y60644D01*
X56119Y60651D01*
X56324D01*
X56346Y60644D01*
X56363Y60626D01*
X56371Y60604D01*
Y60422D02*
Y60604D01*
X56363Y60400D02*
X56371Y60422D01*
X56346Y60383D02*
X56363Y60400D01*
X56324Y60375D02*
X56346Y60383D01*
X56119Y60005D02*
X56324D01*
X56096Y60013D02*
X56119Y60005D01*
X56079Y60030D02*
X56096Y60013D01*
X56072Y60052D02*
X56079Y60030D01*
X56072Y60052D02*
Y60187D01*
X56079Y60209D01*
X56096Y60227D01*
X56119Y60234D01*
X56324D01*
X56346Y60227D01*
X56363Y60209D01*
X56371Y60187D01*
Y60052D02*
Y60187D01*
X56363Y60030D02*
X56371Y60052D01*
X56346Y60013D02*
X56363Y60030D01*
X56324Y60005D02*
X56346Y60013D01*
X56119Y59588D02*
X56324D01*
X56096Y59595D02*
X56119Y59588D01*
X56079Y59613D02*
X56096Y59595D01*
X56072Y59635D02*
X56079Y59613D01*
X56072Y59635D02*
Y59817D01*
X56079Y59839D01*
X56096Y59856D01*
X56119Y59864D01*
X56324D01*
X56346Y59856D01*
X56363Y59839D01*
X56371Y59817D01*
Y59635D02*
Y59817D01*
X56363Y59613D02*
X56371Y59635D01*
X56346Y59595D02*
X56363Y59613D01*
X56324Y59588D02*
X56346Y59595D01*
X56119Y58604D02*
X56324D01*
X56096Y58611D02*
X56119Y58604D01*
X56079Y58629D02*
X56096Y58611D01*
X56072Y58651D02*
X56079Y58629D01*
X56072Y58651D02*
Y58833D01*
X56079Y58855D01*
X56096Y58872D01*
X56119Y58879D01*
X56324D01*
X56346Y58872D01*
X56363Y58855D01*
X56371Y58833D01*
Y58651D02*
Y58833D01*
X56363Y58629D02*
X56371Y58651D01*
X56346Y58611D02*
X56363Y58629D01*
X56324Y58604D02*
X56346Y58611D01*
X56119Y59096D02*
X56324D01*
X56096Y59103D02*
X56119Y59096D01*
X56079Y59121D02*
X56096Y59103D01*
X56072Y59143D02*
X56079Y59121D01*
X56072Y59143D02*
Y59325D01*
X56079Y59347D01*
X56096Y59364D01*
X56119Y59372D01*
X56324D01*
X56346Y59364D01*
X56363Y59347D01*
X56371Y59325D01*
Y59143D02*
Y59325D01*
X56363Y59121D02*
X56371Y59143D01*
X56346Y59103D02*
X56363Y59121D01*
X56324Y59096D02*
X56346Y59103D01*
X56119Y60793D02*
X56324D01*
X56096Y60800D02*
X56119Y60793D01*
X56079Y60818D02*
X56096Y60800D01*
X56072Y60840D02*
X56079Y60818D01*
X56072Y60840D02*
Y60974D01*
X56079Y60996D01*
X56096Y61014D01*
X56119Y61021D01*
X56324D01*
X56346Y61014D01*
X56363Y60996D01*
X56371Y60974D01*
Y60840D02*
Y60974D01*
X56363Y60818D02*
X56371Y60840D01*
X56346Y60800D02*
X56363Y60818D01*
X56324Y60793D02*
X56346Y60800D01*
X56119Y61163D02*
X56324D01*
X56096Y61170D02*
X56119Y61163D01*
X56079Y61188D02*
X56096Y61170D01*
X56072Y61210D02*
X56079Y61188D01*
X56072Y61210D02*
Y61392D01*
X56079Y61414D01*
X56096Y61431D01*
X56119Y61439D01*
X56324D01*
X56346Y61431D01*
X56363Y61414D01*
X56371Y61392D01*
Y61210D02*
Y61392D01*
X56363Y61188D02*
X56371Y61210D01*
X56346Y61170D02*
X56363Y61188D01*
X56324Y61163D02*
X56346Y61170D01*
M02*
