G04*
G04 #@! TF.GenerationSoftware,Altium Limited,Altium Designer,20.1.11 (218)*
G04*
G04 Layer_Color=37055*
%FSLAX25Y25*%
%MOIN*%
G70*
G04*
G04 #@! TF.SameCoordinates,FBA81C19-FCCB-422B-9B6C-78DF9D3B5762*
G04*
G04*
G04 #@! TF.FilePolarity,Positive*
G04*
G01*
G75*
%ADD13C,0.00787*%
%ADD65C,0.00591*%
G36*
X25120Y159317D02*
X26865Y156693D01*
X25645D01*
X24523Y158405D01*
X23401Y156693D01*
X22181D01*
X23919Y159323D01*
X22338Y161738D01*
X23519D01*
X24516Y160229D01*
X25513Y161738D01*
X26701D01*
X25120Y159317D01*
D02*
G37*
G36*
X31437Y156693D02*
X30420D01*
Y158799D01*
X30092D01*
X29987Y158792D01*
X29902Y158779D01*
X29830Y158772D01*
X29771Y158759D01*
X29738Y158746D01*
X29712Y158740D01*
X29705D01*
X29646Y158713D01*
X29587Y158681D01*
X29535Y158648D01*
X29489Y158615D01*
X29449Y158582D01*
X29423Y158556D01*
X29403Y158536D01*
X29397Y158530D01*
X29364Y158497D01*
X29331Y158458D01*
X29292Y158405D01*
X29253Y158353D01*
X29161Y158228D01*
X29076Y158103D01*
X28990Y157985D01*
X28957Y157933D01*
X28925Y157880D01*
X28898Y157841D01*
X28879Y157815D01*
X28866Y157795D01*
X28859Y157788D01*
X28124Y156693D01*
X26904D01*
X27521Y157677D01*
X27586Y157782D01*
X27652Y157880D01*
X27711Y157972D01*
X27764Y158051D01*
X27816Y158123D01*
X27868Y158189D01*
X27908Y158248D01*
X27947Y158300D01*
X27986Y158346D01*
X28019Y158385D01*
X28065Y158444D01*
X28091Y158477D01*
X28105Y158490D01*
X28190Y158576D01*
X28275Y158654D01*
X28367Y158727D01*
X28452Y158792D01*
X28531Y158845D01*
X28590Y158884D01*
X28636Y158910D01*
X28642Y158917D01*
X28649D01*
X28524Y158936D01*
X28413Y158963D01*
X28308Y158995D01*
X28210Y159028D01*
X28118Y159068D01*
X28039Y159107D01*
X27960Y159146D01*
X27895Y159186D01*
X27836Y159225D01*
X27783Y159264D01*
X27744Y159297D01*
X27711Y159323D01*
X27678Y159350D01*
X27659Y159369D01*
X27652Y159376D01*
X27645Y159382D01*
X27586Y159455D01*
X27534Y159527D01*
X27488Y159606D01*
X27449Y159684D01*
X27390Y159842D01*
X27350Y159993D01*
X27337Y160058D01*
X27330Y160124D01*
X27324Y160176D01*
X27317Y160229D01*
X27311Y160268D01*
Y160294D01*
Y160314D01*
Y160321D01*
X27317Y160485D01*
X27344Y160635D01*
X27383Y160767D01*
X27422Y160885D01*
X27462Y160983D01*
X27481Y161022D01*
X27501Y161055D01*
X27514Y161082D01*
X27527Y161101D01*
X27534Y161108D01*
Y161114D01*
X27626Y161232D01*
X27718Y161337D01*
X27816Y161423D01*
X27914Y161488D01*
X27993Y161541D01*
X28065Y161574D01*
X28091Y161587D01*
X28105Y161593D01*
X28118Y161600D01*
X28124D01*
X28196Y161626D01*
X28275Y161646D01*
X28367Y161665D01*
X28459Y161679D01*
X28656Y161705D01*
X28846Y161718D01*
X28938Y161724D01*
X29023Y161731D01*
X29102D01*
X29167Y161738D01*
X31437D01*
Y156693D01*
D02*
G37*
G36*
X78105Y159317D02*
X79850Y156693D01*
X78630D01*
X77508Y158405D01*
X76386Y156693D01*
X75166D01*
X76905Y159323D01*
X75324Y161738D01*
X76505D01*
X77502Y160229D01*
X78499Y161738D01*
X79686D01*
X78105Y159317D01*
D02*
G37*
G36*
X83996Y160885D02*
X82500D01*
Y156693D01*
X81484D01*
Y160885D01*
X79994D01*
Y161738D01*
X83996D01*
Y160885D01*
D02*
G37*
G36*
X156721Y168128D02*
X157076Y168108D01*
X157410Y168069D01*
X157715Y168019D01*
X158001Y167970D01*
X158256Y167901D01*
X158483Y167842D01*
X158680Y167773D01*
X158857Y167704D01*
X159004Y167636D01*
X159132Y167567D01*
X159240Y167517D01*
X159319Y167468D01*
X159378Y167429D01*
X159408Y167409D01*
X159418Y167399D01*
X159555Y167281D01*
X159674Y167144D01*
X159782Y167006D01*
X159870Y166868D01*
X159949Y166730D01*
X160018Y166583D01*
X160067Y166445D01*
X160106Y166307D01*
X160136Y166179D01*
X160166Y166061D01*
X160185Y165953D01*
X160195Y165864D01*
X160205Y165786D01*
Y165677D01*
X160195Y165481D01*
X160175Y165284D01*
X160136Y165107D01*
X160087Y164949D01*
X160028Y164792D01*
X159959Y164654D01*
X159890Y164526D01*
X159821Y164408D01*
X159742Y164310D01*
X159674Y164221D01*
X159605Y164142D01*
X159546Y164074D01*
X159496Y164024D01*
X159457Y163995D01*
X159437Y163975D01*
X159427Y163965D01*
X159240Y163837D01*
X159024Y163719D01*
X158788Y163621D01*
X158542Y163542D01*
X158296Y163463D01*
X158030Y163404D01*
X157774Y163355D01*
X157528Y163316D01*
X157292Y163286D01*
X157066Y163267D01*
X156869Y163247D01*
X156692Y163237D01*
X156544D01*
X156485Y163227D01*
X156436D01*
X156387D01*
X156367D01*
X156348D01*
X156338D01*
X155944Y163237D01*
X155580Y163257D01*
X155245Y163286D01*
X154940Y163336D01*
X154665Y163385D01*
X154419Y163444D01*
X154202Y163503D01*
X154006Y163562D01*
X153838Y163621D01*
X153691Y163690D01*
X153573Y163739D01*
X153474Y163788D01*
X153395Y163837D01*
X153346Y163867D01*
X153317Y163886D01*
X153307Y163896D01*
X153159Y164024D01*
X153032Y164172D01*
X152913Y164310D01*
X152815Y164457D01*
X152736Y164615D01*
X152667Y164762D01*
X152608Y164900D01*
X152569Y165038D01*
X152530Y165176D01*
X152510Y165294D01*
X152490Y165402D01*
X152471Y165490D01*
Y165569D01*
X152461Y165628D01*
Y165677D01*
X152471Y165874D01*
X152490Y166071D01*
X152530Y166248D01*
X152579Y166406D01*
X152638Y166563D01*
X152707Y166701D01*
X152776Y166829D01*
X152845Y166947D01*
X152913Y167045D01*
X152982Y167144D01*
X153051Y167212D01*
X153110Y167281D01*
X153159Y167331D01*
X153199Y167360D01*
X153218Y167380D01*
X153228Y167390D01*
X153415Y167517D01*
X153632Y167636D01*
X153868Y167734D01*
X154114Y167823D01*
X154370Y167891D01*
X154625Y167950D01*
X154881Y168009D01*
X155137Y168049D01*
X155373Y168078D01*
X155600Y168098D01*
X155797Y168118D01*
X155974Y168128D01*
X156121Y168137D01*
X156180D01*
X156229D01*
X156279D01*
X156308D01*
X156318D01*
X156328D01*
X156721Y168128D01*
D02*
G37*
G36*
X154045Y160610D02*
X152599D01*
Y162056D01*
X154045D01*
Y160610D01*
D02*
G37*
G36*
X155108Y159380D02*
X155334Y159341D01*
X155531Y159272D01*
X155708Y159203D01*
X155846Y159134D01*
X155944Y159065D01*
X155983Y159045D01*
X156013Y159026D01*
X156023Y159006D01*
X156033D01*
X156200Y158849D01*
X156338Y158681D01*
X156446Y158514D01*
X156525Y158347D01*
X156594Y158199D01*
X156613Y158140D01*
X156633Y158081D01*
X156643Y158032D01*
X156653Y158002D01*
X156662Y157983D01*
Y157973D01*
X156781Y158169D01*
X156899Y158337D01*
X157027Y158475D01*
X157164Y158602D01*
X157292Y158711D01*
X157430Y158799D01*
X157558Y158868D01*
X157686Y158927D01*
X157804Y158976D01*
X157912Y159006D01*
X158010Y159035D01*
X158089Y159045D01*
X158158Y159055D01*
X158217Y159065D01*
X158247D01*
X158256D01*
X158384Y159055D01*
X158512Y159045D01*
X158748Y158976D01*
X158965Y158898D01*
X159152Y158799D01*
X159300Y158691D01*
X159368Y158652D01*
X159418Y158612D01*
X159457Y158573D01*
X159486Y158543D01*
X159506Y158534D01*
X159516Y158524D01*
X159634Y158396D01*
X159742Y158268D01*
X159831Y158130D01*
X159920Y157983D01*
X159978Y157845D01*
X160038Y157697D01*
X160087Y157559D01*
X160116Y157431D01*
X160146Y157304D01*
X160166Y157185D01*
X160185Y157077D01*
X160195Y156989D01*
X160205Y156920D01*
Y156812D01*
X160195Y156585D01*
X160166Y156369D01*
X160126Y156182D01*
X160087Y156015D01*
X160047Y155877D01*
X160008Y155769D01*
X159988Y155729D01*
X159978Y155700D01*
X159969Y155690D01*
Y155680D01*
X159870Y155503D01*
X159772Y155345D01*
X159664Y155208D01*
X159555Y155099D01*
X159467Y155011D01*
X159388Y154942D01*
X159339Y154903D01*
X159319Y154893D01*
X159152Y154794D01*
X158975Y154716D01*
X158788Y154637D01*
X158611Y154588D01*
X158453Y154539D01*
X158394Y154519D01*
X158335Y154509D01*
X158286Y154499D01*
X158247Y154489D01*
X158227Y154480D01*
X158217D01*
X157991Y155818D01*
X158168Y155847D01*
X158316Y155887D01*
X158443Y155936D01*
X158552Y155995D01*
X158630Y156044D01*
X158689Y156093D01*
X158729Y156123D01*
X158739Y156133D01*
X158827Y156241D01*
X158896Y156349D01*
X158935Y156448D01*
X158975Y156556D01*
X158994Y156644D01*
X159004Y156713D01*
Y156772D01*
X158994Y156910D01*
X158965Y157028D01*
X158926Y157126D01*
X158886Y157215D01*
X158847Y157284D01*
X158808Y157333D01*
X158778Y157363D01*
X158768Y157372D01*
X158680Y157451D01*
X158581Y157510D01*
X158473Y157550D01*
X158375Y157579D01*
X158296Y157599D01*
X158217Y157609D01*
X158178D01*
X158158D01*
X158001Y157599D01*
X157853Y157559D01*
X157725Y157510D01*
X157627Y157451D01*
X157538Y157392D01*
X157479Y157343D01*
X157440Y157304D01*
X157430Y157294D01*
X157341Y157166D01*
X157282Y157028D01*
X157233Y156880D01*
X157204Y156733D01*
X157194Y156605D01*
X157184Y156497D01*
Y156398D01*
X156003Y156241D01*
X156043Y156379D01*
X156072Y156507D01*
X156092Y156615D01*
X156111Y156713D01*
Y156792D01*
X156121Y156851D01*
Y156900D01*
X156111Y157058D01*
X156072Y157195D01*
X156023Y157313D01*
X155964Y157422D01*
X155895Y157500D01*
X155846Y157569D01*
X155806Y157609D01*
X155797Y157618D01*
X155669Y157717D01*
X155521Y157786D01*
X155373Y157845D01*
X155236Y157874D01*
X155108Y157894D01*
X155009Y157914D01*
X154970D01*
X154950D01*
X154931D01*
X154921D01*
X154714Y157904D01*
X154527Y157864D01*
X154370Y157815D01*
X154242Y157756D01*
X154133Y157697D01*
X154055Y157648D01*
X154016Y157609D01*
X153996Y157599D01*
X153887Y157481D01*
X153799Y157353D01*
X153740Y157225D01*
X153701Y157107D01*
X153681Y157008D01*
X153671Y156930D01*
X153661Y156871D01*
Y156851D01*
X153671Y156703D01*
X153701Y156556D01*
X153750Y156438D01*
X153799Y156329D01*
X153848Y156251D01*
X153897Y156182D01*
X153927Y156142D01*
X153937Y156133D01*
X154055Y156034D01*
X154183Y155956D01*
X154321Y155887D01*
X154458Y155847D01*
X154576Y155818D01*
X154675Y155788D01*
X154714D01*
X154744Y155778D01*
X154753D01*
X154763D01*
X154586Y154371D01*
X154409Y154401D01*
X154242Y154440D01*
X154094Y154480D01*
X153947Y154539D01*
X153809Y154598D01*
X153681Y154666D01*
X153563Y154735D01*
X153455Y154804D01*
X153366Y154863D01*
X153278Y154932D01*
X153209Y154991D01*
X153149Y155040D01*
X153100Y155090D01*
X153071Y155119D01*
X153051Y155139D01*
X153041Y155149D01*
X152943Y155277D01*
X152854Y155414D01*
X152776Y155562D01*
X152707Y155700D01*
X152648Y155847D01*
X152599Y155985D01*
X152530Y156251D01*
X152510Y156379D01*
X152490Y156487D01*
X152480Y156595D01*
X152471Y156684D01*
X152461Y156753D01*
Y156851D01*
X152471Y157048D01*
X152490Y157245D01*
X152530Y157422D01*
X152569Y157599D01*
X152618Y157756D01*
X152677Y157904D01*
X152746Y158042D01*
X152815Y158169D01*
X152874Y158288D01*
X152943Y158386D01*
X153002Y158465D01*
X153051Y158543D01*
X153091Y158593D01*
X153130Y158642D01*
X153149Y158661D01*
X153159Y158671D01*
X153297Y158799D01*
X153435Y158907D01*
X153573Y159006D01*
X153720Y159095D01*
X153868Y159163D01*
X154006Y159222D01*
X154143Y159272D01*
X154271Y159311D01*
X154399Y159341D01*
X154508Y159360D01*
X154606Y159380D01*
X154694Y159390D01*
X154763Y159399D01*
X154822D01*
X154852D01*
X154862D01*
X155108Y159380D01*
D02*
G37*
G36*
X160166Y152354D02*
X154567Y150494D01*
X160166Y148585D01*
Y146932D01*
X152599Y149628D01*
Y151262D01*
X160166Y153978D01*
Y152354D01*
D02*
G37*
G36*
Y141884D02*
X157440D01*
X157578Y141756D01*
X157696Y141619D01*
X157794Y141481D01*
X157883Y141353D01*
X157961Y141215D01*
X158020Y141077D01*
X158070Y140949D01*
X158109Y140831D01*
X158138Y140723D01*
X158168Y140615D01*
X158188Y140526D01*
X158197Y140448D01*
X158207Y140379D01*
Y140290D01*
X158197Y140103D01*
X158178Y139926D01*
X158138Y139769D01*
X158089Y139611D01*
X158040Y139464D01*
X157981Y139326D01*
X157912Y139198D01*
X157843Y139080D01*
X157774Y138981D01*
X157705Y138893D01*
X157646Y138814D01*
X157597Y138745D01*
X157548Y138696D01*
X157509Y138657D01*
X157489Y138637D01*
X157479Y138627D01*
X157332Y138509D01*
X157184Y138411D01*
X157017Y138322D01*
X156840Y138253D01*
X156662Y138184D01*
X156485Y138135D01*
X156141Y138057D01*
X155983Y138037D01*
X155836Y138017D01*
X155698Y137997D01*
X155580Y137988D01*
X155491Y137978D01*
X155413D01*
X155373D01*
X155354D01*
X155108Y137988D01*
X154871Y138007D01*
X154645Y138037D01*
X154448Y138086D01*
X154252Y138135D01*
X154084Y138194D01*
X153917Y138253D01*
X153779Y138312D01*
X153651Y138371D01*
X153543Y138440D01*
X153445Y138489D01*
X153366Y138539D01*
X153307Y138588D01*
X153268Y138617D01*
X153238Y138637D01*
X153228Y138647D01*
X153091Y138775D01*
X152982Y138913D01*
X152874Y139041D01*
X152795Y139178D01*
X152717Y139316D01*
X152657Y139454D01*
X152608Y139582D01*
X152569Y139710D01*
X152530Y139818D01*
X152510Y139926D01*
X152490Y140024D01*
X152480Y140103D01*
Y140172D01*
X152471Y140221D01*
Y140261D01*
X152480Y140438D01*
X152510Y140605D01*
X152540Y140762D01*
X152589Y140900D01*
X152628Y141018D01*
X152657Y141107D01*
X152687Y141166D01*
X152697Y141186D01*
X152795Y141353D01*
X152903Y141500D01*
X153022Y141638D01*
X153140Y141756D01*
X153238Y141855D01*
X153317Y141924D01*
X153376Y141963D01*
X153386Y141983D01*
X152599D01*
Y143331D01*
X160166D01*
Y141884D01*
D02*
G37*
G36*
Y135370D02*
X152599D01*
Y136817D01*
X160166D01*
Y135370D01*
D02*
G37*
G36*
X155501Y134170D02*
X155767Y134140D01*
X156013Y134101D01*
X156229Y134042D01*
X156436Y133993D01*
X156613Y133924D01*
X156781Y133865D01*
X156928Y133796D01*
X157046Y133737D01*
X157154Y133678D01*
X157243Y133619D01*
X157302Y133579D01*
X157351Y133540D01*
X157381Y133520D01*
X157391Y133510D01*
X157538Y133373D01*
X157656Y133225D01*
X157774Y133068D01*
X157863Y132910D01*
X157942Y132753D01*
X158010Y132586D01*
X158060Y132428D01*
X158109Y132281D01*
X158138Y132133D01*
X158168Y132005D01*
X158178Y131887D01*
X158197Y131789D01*
Y131700D01*
X158207Y131641D01*
Y131582D01*
X158197Y131385D01*
X158178Y131188D01*
X158138Y131011D01*
X158089Y130844D01*
X158030Y130676D01*
X157961Y130529D01*
X157892Y130401D01*
X157824Y130273D01*
X157745Y130165D01*
X157676Y130067D01*
X157607Y129978D01*
X157548Y129909D01*
X157499Y129850D01*
X157459Y129811D01*
X157440Y129791D01*
X157430Y129781D01*
X157282Y129653D01*
X157115Y129545D01*
X156948Y129456D01*
X156771Y129368D01*
X156594Y129299D01*
X156416Y129250D01*
X156239Y129200D01*
X156072Y129161D01*
X155915Y129132D01*
X155767Y129112D01*
X155629Y129092D01*
X155521Y129083D01*
X155423D01*
X155354Y129073D01*
X155314D01*
X155295D01*
X155088Y129083D01*
X154881Y129092D01*
X154694Y129122D01*
X154517Y129161D01*
X154350Y129200D01*
X154193Y129240D01*
X154055Y129289D01*
X153927Y129348D01*
X153809Y129397D01*
X153701Y129446D01*
X153612Y129486D01*
X153543Y129525D01*
X153484Y129565D01*
X153445Y129594D01*
X153415Y129604D01*
X153405Y129614D01*
X153238Y129752D01*
X153100Y129899D01*
X152972Y130057D01*
X152864Y130234D01*
X152776Y130401D01*
X152697Y130578D01*
X152638Y130755D01*
X152589Y130922D01*
X152549Y131080D01*
X152520Y131237D01*
X152500Y131365D01*
X152490Y131483D01*
X152480Y131582D01*
X152471Y131660D01*
Y131720D01*
X152490Y132044D01*
X152540Y132340D01*
X152599Y132595D01*
X152638Y132704D01*
X152677Y132812D01*
X152717Y132910D01*
X152756Y132989D01*
X152786Y133058D01*
X152815Y133117D01*
X152845Y133166D01*
X152864Y133196D01*
X152884Y133215D01*
Y133225D01*
X153051Y133432D01*
X153248Y133619D01*
X153445Y133766D01*
X153641Y133894D01*
X153819Y133993D01*
X153897Y134022D01*
X153966Y134062D01*
X154016Y134081D01*
X154055Y134101D01*
X154084Y134111D01*
X154094D01*
X154340Y132664D01*
X154193Y132615D01*
X154065Y132556D01*
X153966Y132497D01*
X153878Y132438D01*
X153809Y132379D01*
X153770Y132340D01*
X153740Y132310D01*
X153730Y132300D01*
X153671Y132212D01*
X153632Y132113D01*
X153592Y132025D01*
X153573Y131936D01*
X153563Y131857D01*
X153553Y131798D01*
Y131739D01*
X153573Y131562D01*
X153612Y131395D01*
X153661Y131257D01*
X153730Y131129D01*
X153799Y131031D01*
X153848Y130962D01*
X153887Y130922D01*
X153907Y130903D01*
X154055Y130795D01*
X154222Y130706D01*
X154389Y130647D01*
X154547Y130608D01*
X154694Y130578D01*
X154813Y130568D01*
X154862Y130559D01*
X154891D01*
X154911D01*
X154921D01*
Y134189D01*
X155226D01*
X155501Y134170D01*
D02*
G37*
G36*
X160166Y126563D02*
X158827D01*
Y128010D01*
X160166D01*
Y126563D01*
D02*
G37*
G36*
X158079D02*
X152599D01*
Y128010D01*
X158079D01*
Y126563D01*
D02*
G37*
G36*
X156289Y125087D02*
X156485Y125078D01*
X156633Y125058D01*
X156751Y125048D01*
X156830Y125028D01*
X156879Y125019D01*
X156899D01*
X157027Y124979D01*
X157145Y124940D01*
X157253Y124891D01*
X157351Y124851D01*
X157430Y124802D01*
X157489Y124763D01*
X157528Y124743D01*
X157538Y124733D01*
X157646Y124654D01*
X157735Y124556D01*
X157824Y124458D01*
X157892Y124359D01*
X157942Y124271D01*
X157991Y124202D01*
X158010Y124153D01*
X158020Y124133D01*
X158079Y123976D01*
X158129Y123818D01*
X158158Y123670D01*
X158188Y123533D01*
X158197Y123405D01*
X158207Y123316D01*
Y123228D01*
X158197Y123050D01*
X158168Y122873D01*
X158129Y122716D01*
X158079Y122558D01*
X158020Y122411D01*
X157942Y122273D01*
X157873Y122145D01*
X157794Y122027D01*
X157715Y121919D01*
X157646Y121830D01*
X157578Y121752D01*
X157509Y121683D01*
X157459Y121624D01*
X157420Y121584D01*
X157391Y121565D01*
X157381Y121555D01*
X160166D01*
Y120108D01*
X152599D01*
Y121555D01*
X155344D01*
X155590Y121565D01*
X155797Y121574D01*
X155974Y121594D01*
X156121Y121624D01*
X156239Y121643D01*
X156318Y121663D01*
X156367Y121673D01*
X156387Y121683D01*
X156515Y121742D01*
X156623Y121801D01*
X156712Y121870D01*
X156790Y121939D01*
X156840Y121998D01*
X156889Y122047D01*
X156908Y122086D01*
X156918Y122096D01*
X156977Y122204D01*
X157017Y122322D01*
X157056Y122431D01*
X157076Y122529D01*
X157086Y122618D01*
X157095Y122687D01*
Y122746D01*
X157086Y122854D01*
X157076Y122962D01*
X157056Y123050D01*
X157027Y123129D01*
X156997Y123188D01*
X156977Y123228D01*
X156967Y123257D01*
X156958Y123267D01*
X156899Y123346D01*
X156840Y123405D01*
X156781Y123454D01*
X156721Y123493D01*
X156662Y123523D01*
X156623Y123542D01*
X156594Y123562D01*
X156584D01*
X156535Y123582D01*
X156466Y123592D01*
X156397Y123602D01*
X156318Y123611D01*
X156131Y123631D01*
X155954Y123641D01*
X155777Y123651D01*
X155698D01*
X155629D01*
X155570D01*
X155531D01*
X155501D01*
X155491D01*
X152599D01*
Y125097D01*
X155806D01*
X156072D01*
X156289Y125087D01*
D02*
G37*
G36*
X155059Y118819D02*
X155295Y118780D01*
X155501Y118731D01*
X155669Y118682D01*
X155816Y118623D01*
X155865Y118593D01*
X155915Y118573D01*
X155954Y118554D01*
X155983Y118534D01*
X155993Y118524D01*
X156003D01*
X156180Y118396D01*
X156328Y118268D01*
X156466Y118131D01*
X156574Y117993D01*
X156662Y117875D01*
X156731Y117776D01*
X156751Y117737D01*
X156771Y117707D01*
X156781Y117698D01*
Y117688D01*
X156830Y117579D01*
X156889Y117461D01*
X156987Y117206D01*
X157076Y116930D01*
X157164Y116664D01*
X157204Y116546D01*
X157233Y116428D01*
X157263Y116320D01*
X157282Y116231D01*
X157302Y116153D01*
X157322Y116094D01*
X157332Y116054D01*
Y116044D01*
X157381Y115848D01*
X157430Y115661D01*
X157479Y115503D01*
X157518Y115356D01*
X157568Y115228D01*
X157607Y115110D01*
X157646Y115011D01*
X157686Y114933D01*
X157715Y114854D01*
X157745Y114795D01*
X157774Y114746D01*
X157794Y114706D01*
X157814Y114677D01*
X157824Y114657D01*
X157833Y114647D01*
X157912Y114568D01*
X157991Y114519D01*
X158070Y114480D01*
X158138Y114450D01*
X158197Y114431D01*
X158256Y114421D01*
X158286D01*
X158296D01*
X158404Y114431D01*
X158493Y114460D01*
X158571Y114500D01*
X158640Y114539D01*
X158699Y114578D01*
X158739Y114618D01*
X158758Y114647D01*
X158768Y114657D01*
X158857Y114805D01*
X158926Y114982D01*
X158975Y115149D01*
X159014Y115316D01*
X159034Y115474D01*
Y115533D01*
X159044Y115592D01*
Y115700D01*
X159034Y115926D01*
X159004Y116123D01*
X158965Y116290D01*
X158916Y116418D01*
X158867Y116527D01*
X158827Y116605D01*
X158798Y116645D01*
X158788Y116664D01*
X158680Y116773D01*
X158552Y116871D01*
X158414Y116940D01*
X158276Y116999D01*
X158148Y117038D01*
X158050Y117068D01*
X158010Y117078D01*
X157981Y117087D01*
X157961D01*
X157951D01*
X158010Y118613D01*
X158197Y118603D01*
X158384Y118573D01*
X158552Y118524D01*
X158709Y118475D01*
X158857Y118416D01*
X158994Y118357D01*
X159122Y118288D01*
X159231Y118219D01*
X159339Y118150D01*
X159427Y118081D01*
X159496Y118022D01*
X159565Y117973D01*
X159614Y117924D01*
X159644Y117885D01*
X159664Y117865D01*
X159674Y117855D01*
X159782Y117717D01*
X159880Y117560D01*
X159969Y117393D01*
X160038Y117215D01*
X160097Y117038D01*
X160146Y116861D01*
X160224Y116517D01*
X160254Y116349D01*
X160274Y116202D01*
X160284Y116064D01*
X160293Y115946D01*
X160303Y115848D01*
Y115710D01*
X160293Y115395D01*
X160264Y115110D01*
X160215Y114864D01*
X160195Y114746D01*
X160175Y114647D01*
X160146Y114549D01*
X160126Y114470D01*
X160097Y114391D01*
X160077Y114332D01*
X160067Y114283D01*
X160047Y114254D01*
X160038Y114234D01*
Y114224D01*
X159929Y114008D01*
X159801Y113821D01*
X159674Y113663D01*
X159546Y113525D01*
X159437Y113427D01*
X159349Y113348D01*
X159280Y113309D01*
X159270Y113289D01*
X159260D01*
X159073Y113181D01*
X158876Y113102D01*
X158699Y113043D01*
X158532Y113004D01*
X158394Y112984D01*
X158286Y112974D01*
X158247Y112964D01*
X158217D01*
X158197D01*
X158188D01*
X158020Y112974D01*
X157863Y112994D01*
X157705Y113024D01*
X157568Y113073D01*
X157302Y113181D01*
X157184Y113250D01*
X157086Y113309D01*
X156987Y113378D01*
X156899Y113437D01*
X156830Y113496D01*
X156761Y113545D01*
X156721Y113594D01*
X156682Y113624D01*
X156662Y113644D01*
X156653Y113653D01*
X156574Y113752D01*
X156495Y113870D01*
X156416Y113998D01*
X156348Y114126D01*
X156220Y114411D01*
X156111Y114696D01*
X156062Y114834D01*
X156023Y114962D01*
X155993Y115080D01*
X155964Y115179D01*
X155934Y115257D01*
X155915Y115326D01*
X155905Y115366D01*
Y115375D01*
X155865Y115543D01*
X155826Y115700D01*
X155787Y115838D01*
X155757Y115966D01*
X155728Y116084D01*
X155698Y116182D01*
X155669Y116271D01*
X155649Y116340D01*
X155629Y116409D01*
X155610Y116458D01*
X155600Y116507D01*
X155590Y116536D01*
X155580Y116586D01*
X155570Y116595D01*
X155521Y116733D01*
X155462Y116851D01*
X155403Y116940D01*
X155354Y117019D01*
X155314Y117078D01*
X155275Y117117D01*
X155255Y117137D01*
X155245Y117147D01*
X155177Y117196D01*
X155098Y117235D01*
X155019Y117265D01*
X154940Y117284D01*
X154881Y117294D01*
X154832Y117304D01*
X154793D01*
X154783D01*
X154635Y117284D01*
X154498Y117245D01*
X154370Y117186D01*
X154262Y117117D01*
X154173Y117038D01*
X154114Y116979D01*
X154065Y116940D01*
X154055Y116920D01*
X153956Y116763D01*
X153878Y116586D01*
X153829Y116409D01*
X153789Y116222D01*
X153770Y116064D01*
X153760Y115995D01*
Y115926D01*
X153750Y115877D01*
Y115808D01*
X153770Y115562D01*
X153809Y115346D01*
X153858Y115159D01*
X153927Y115001D01*
X153986Y114874D01*
X154045Y114785D01*
X154084Y114726D01*
X154094Y114706D01*
X154242Y114568D01*
X154419Y114450D01*
X154596Y114352D01*
X154783Y114283D01*
X154940Y114224D01*
X155009Y114204D01*
X155078Y114195D01*
X155127Y114185D01*
X155167Y114175D01*
X155186Y114165D01*
X155196D01*
X155049Y112679D01*
X154822Y112718D01*
X154606Y112758D01*
X154399Y112817D01*
X154212Y112886D01*
X154035Y112955D01*
X153878Y113033D01*
X153740Y113112D01*
X153612Y113191D01*
X153494Y113270D01*
X153395Y113348D01*
X153317Y113407D01*
X153248Y113476D01*
X153189Y113525D01*
X153149Y113565D01*
X153130Y113584D01*
X153120Y113594D01*
X153002Y113742D01*
X152903Y113909D01*
X152815Y114086D01*
X152736Y114263D01*
X152677Y114450D01*
X152618Y114628D01*
X152540Y114982D01*
X152520Y115149D01*
X152500Y115306D01*
X152480Y115444D01*
X152471Y115562D01*
X152461Y115661D01*
Y115798D01*
X152471Y116153D01*
X152500Y116468D01*
X152530Y116615D01*
X152549Y116753D01*
X152569Y116871D01*
X152599Y116989D01*
X152628Y117087D01*
X152648Y117186D01*
X152677Y117255D01*
X152697Y117324D01*
X152707Y117373D01*
X152726Y117412D01*
X152736Y117432D01*
Y117442D01*
X152854Y117678D01*
X152982Y117885D01*
X153120Y118052D01*
X153258Y118199D01*
X153386Y118317D01*
X153484Y118396D01*
X153524Y118426D01*
X153553Y118445D01*
X153563Y118465D01*
X153573D01*
X153789Y118583D01*
X154006Y118672D01*
X154212Y118741D01*
X154399Y118780D01*
X154567Y118809D01*
X154635Y118819D01*
X154694D01*
X154734Y118829D01*
X154773D01*
X154793D01*
X154803D01*
X155059Y118819D01*
D02*
G37*
G36*
X160205Y106470D02*
X160077Y106421D01*
X159949Y106362D01*
X159723Y106224D01*
X159516Y106077D01*
X159329Y105919D01*
X159191Y105781D01*
X159122Y105722D01*
X159073Y105663D01*
X159034Y105614D01*
X159004Y105585D01*
X158994Y105565D01*
X158985Y105555D01*
X158808Y105309D01*
X158660Y105083D01*
X158532Y104876D01*
X158443Y104699D01*
X158375Y104551D01*
X158345Y104482D01*
X158325Y104433D01*
X158306Y104394D01*
X158296Y104364D01*
X158286Y104345D01*
Y104335D01*
X156967D01*
X157115Y104719D01*
X157292Y105083D01*
X157381Y105240D01*
X157469Y105398D01*
X157558Y105545D01*
X157646Y105673D01*
X157735Y105791D01*
X157804Y105899D01*
X157883Y105988D01*
X157942Y106067D01*
X157991Y106126D01*
X158030Y106165D01*
X158050Y106195D01*
X158060Y106204D01*
X152599D01*
Y107651D01*
X160205D01*
Y106470D01*
D02*
G37*
G36*
Y100596D02*
X160077Y100547D01*
X159949Y100487D01*
X159723Y100350D01*
X159516Y100202D01*
X159329Y100045D01*
X159191Y99907D01*
X159122Y99848D01*
X159073Y99789D01*
X159034Y99740D01*
X159004Y99710D01*
X158994Y99690D01*
X158985Y99681D01*
X158808Y99435D01*
X158660Y99208D01*
X158532Y99002D01*
X158443Y98825D01*
X158375Y98677D01*
X158345Y98608D01*
X158325Y98559D01*
X158306Y98519D01*
X158296Y98490D01*
X158286Y98470D01*
Y98460D01*
X156967D01*
X157115Y98844D01*
X157292Y99208D01*
X157381Y99366D01*
X157469Y99523D01*
X157558Y99671D01*
X157646Y99799D01*
X157735Y99917D01*
X157804Y100025D01*
X157883Y100113D01*
X157942Y100192D01*
X157991Y100251D01*
X158030Y100291D01*
X158050Y100320D01*
X158060Y100330D01*
X152599D01*
Y101777D01*
X160205D01*
Y100596D01*
D02*
G37*
G36*
X154075Y96640D02*
X154232Y96542D01*
X154379Y96443D01*
X154517Y96355D01*
X154635Y96276D01*
X154744Y96197D01*
X154842Y96118D01*
X154931Y96059D01*
X155009Y96000D01*
X155078Y95941D01*
X155137Y95892D01*
X155226Y95823D01*
X155275Y95784D01*
X155295Y95764D01*
X155423Y95636D01*
X155541Y95508D01*
X155649Y95371D01*
X155747Y95243D01*
X155826Y95125D01*
X155885Y95036D01*
X155924Y94967D01*
X155934Y94957D01*
Y94947D01*
X155964Y95135D01*
X156003Y95302D01*
X156052Y95459D01*
X156102Y95607D01*
X156161Y95745D01*
X156220Y95863D01*
X156279Y95981D01*
X156338Y96079D01*
X156397Y96168D01*
X156456Y96246D01*
X156505Y96305D01*
X156544Y96355D01*
X156584Y96404D01*
X156613Y96433D01*
X156623Y96443D01*
X156633Y96453D01*
X156741Y96542D01*
X156849Y96620D01*
X156967Y96689D01*
X157086Y96748D01*
X157322Y96837D01*
X157548Y96896D01*
X157646Y96916D01*
X157745Y96925D01*
X157824Y96935D01*
X157902Y96945D01*
X157961Y96955D01*
X158001D01*
X158030D01*
X158040D01*
X158286Y96945D01*
X158512Y96906D01*
X158709Y96847D01*
X158886Y96788D01*
X159034Y96728D01*
X159093Y96699D01*
X159142Y96670D01*
X159181Y96650D01*
X159211Y96630D01*
X159221Y96620D01*
X159231D01*
X159408Y96482D01*
X159565Y96345D01*
X159693Y96197D01*
X159792Y96050D01*
X159870Y95932D01*
X159920Y95823D01*
X159939Y95784D01*
X159949Y95764D01*
X159959Y95745D01*
Y95735D01*
X159998Y95626D01*
X160028Y95508D01*
X160057Y95371D01*
X160077Y95233D01*
X160116Y94938D01*
X160136Y94652D01*
X160146Y94515D01*
X160156Y94387D01*
Y94269D01*
X160166Y94170D01*
Y90766D01*
X152599D01*
Y92291D01*
X155757D01*
Y92783D01*
X155747Y92940D01*
X155728Y93068D01*
X155718Y93176D01*
X155698Y93265D01*
X155678Y93314D01*
X155669Y93353D01*
Y93363D01*
X155629Y93452D01*
X155580Y93540D01*
X155531Y93619D01*
X155482Y93688D01*
X155432Y93747D01*
X155393Y93786D01*
X155364Y93816D01*
X155354Y93826D01*
X155305Y93875D01*
X155245Y93924D01*
X155167Y93983D01*
X155088Y94042D01*
X154901Y94180D01*
X154714Y94308D01*
X154537Y94436D01*
X154458Y94485D01*
X154379Y94534D01*
X154321Y94574D01*
X154281Y94603D01*
X154252Y94623D01*
X154242Y94633D01*
X152599Y95735D01*
Y97565D01*
X154075Y96640D01*
D02*
G37*
G36*
X160166Y83769D02*
X158886D01*
Y86013D01*
X152599D01*
Y87538D01*
X158886D01*
Y89772D01*
X160166D01*
Y83769D01*
D02*
G37*
G36*
X153878Y79410D02*
X160106D01*
Y77885D01*
X152599D01*
Y83208D01*
X153878D01*
Y79410D01*
D02*
G37*
G36*
X155393Y75897D02*
X160195D01*
Y74667D01*
X155383Y71400D01*
X154124D01*
Y74490D01*
X152599D01*
Y75897D01*
X154124D01*
Y76832D01*
X155393D01*
Y75897D01*
D02*
G37*
G36*
X158256Y70662D02*
X158414Y70643D01*
X158562Y70613D01*
X158709Y70574D01*
X158965Y70466D01*
X159073Y70416D01*
X159181Y70357D01*
X159280Y70288D01*
X159359Y70239D01*
X159427Y70180D01*
X159486Y70131D01*
X159536Y70092D01*
X159565Y70062D01*
X159585Y70043D01*
X159595Y70033D01*
X159703Y69905D01*
X159792Y69777D01*
X159880Y69629D01*
X159949Y69491D01*
X160008Y69344D01*
X160057Y69196D01*
X160126Y68911D01*
X160156Y68783D01*
X160175Y68665D01*
X160185Y68547D01*
X160195Y68458D01*
X160205Y68379D01*
Y68271D01*
X160195Y68084D01*
X160185Y67907D01*
X160156Y67730D01*
X160126Y67573D01*
X160087Y67425D01*
X160038Y67287D01*
X159988Y67150D01*
X159949Y67041D01*
X159900Y66933D01*
X159851Y66835D01*
X159801Y66756D01*
X159762Y66687D01*
X159732Y66638D01*
X159703Y66598D01*
X159693Y66579D01*
X159683Y66569D01*
X159575Y66451D01*
X159457Y66343D01*
X159329Y66244D01*
X159191Y66156D01*
X159054Y66077D01*
X158906Y66018D01*
X158630Y65910D01*
X158493Y65870D01*
X158365Y65841D01*
X158256Y65811D01*
X158158Y65792D01*
X158079Y65782D01*
X158010Y65772D01*
X157971Y65762D01*
X157961D01*
X157824Y67208D01*
X158040Y67238D01*
X158227Y67277D01*
X158384Y67327D01*
X158512Y67376D01*
X158611Y67425D01*
X158680Y67474D01*
X158719Y67504D01*
X158729Y67514D01*
X158817Y67622D01*
X158886Y67740D01*
X158935Y67858D01*
X158975Y67976D01*
X158994Y68075D01*
X159004Y68153D01*
Y68232D01*
X158994Y68399D01*
X158965Y68537D01*
X158916Y68665D01*
X158876Y68763D01*
X158827Y68842D01*
X158778Y68901D01*
X158748Y68940D01*
X158739Y68950D01*
X158630Y69039D01*
X158512Y69108D01*
X158384Y69147D01*
X158266Y69186D01*
X158158Y69206D01*
X158070Y69216D01*
X158010D01*
X158001D01*
X157991D01*
X157824Y69206D01*
X157666Y69167D01*
X157518Y69117D01*
X157381Y69068D01*
X157273Y69009D01*
X157184Y68960D01*
X157125Y68921D01*
X157115Y68911D01*
X157105D01*
X157036Y68862D01*
X156958Y68793D01*
X156869Y68724D01*
X156771Y68635D01*
X156574Y68439D01*
X156367Y68232D01*
X156170Y68035D01*
X156092Y67946D01*
X156013Y67868D01*
X155954Y67799D01*
X155905Y67750D01*
X155875Y67720D01*
X155865Y67710D01*
X155659Y67494D01*
X155462Y67297D01*
X155275Y67110D01*
X155108Y66943D01*
X154940Y66795D01*
X154793Y66667D01*
X154655Y66549D01*
X154527Y66441D01*
X154419Y66352D01*
X154321Y66284D01*
X154242Y66224D01*
X154173Y66175D01*
X154114Y66136D01*
X154075Y66106D01*
X154055Y66097D01*
X154045Y66087D01*
X153789Y65949D01*
X153533Y65841D01*
X153287Y65752D01*
X153061Y65683D01*
X152963Y65664D01*
X152874Y65644D01*
X152795Y65624D01*
X152726Y65614D01*
X152677Y65605D01*
X152628Y65595D01*
X152608D01*
X152599D01*
Y70672D01*
X153947D01*
Y67789D01*
X154084Y67878D01*
X154212Y67976D01*
X154262Y68015D01*
X154301Y68055D01*
X154330Y68075D01*
X154340Y68084D01*
X154379Y68124D01*
X154439Y68173D01*
X154557Y68301D01*
X154694Y68439D01*
X154832Y68586D01*
X154970Y68724D01*
X155078Y68842D01*
X155117Y68891D01*
X155147Y68921D01*
X155167Y68940D01*
X155177Y68950D01*
X155295Y69078D01*
X155403Y69186D01*
X155600Y69393D01*
X155767Y69551D01*
X155905Y69688D01*
X156013Y69787D01*
X156092Y69855D01*
X156131Y69895D01*
X156151Y69905D01*
X156338Y70043D01*
X156515Y70161D01*
X156672Y70259D01*
X156820Y70347D01*
X156938Y70407D01*
X157036Y70446D01*
X157095Y70475D01*
X157105Y70485D01*
X157115D01*
X157292Y70544D01*
X157459Y70594D01*
X157627Y70623D01*
X157774Y70653D01*
X157902Y70662D01*
X158001Y70672D01*
X158040D01*
X158070D01*
X158079D01*
X158089D01*
X158256Y70662D01*
D02*
G37*
G36*
X160166Y59110D02*
X158886D01*
Y61354D01*
X152599D01*
Y62879D01*
X158886D01*
Y65113D01*
X160166D01*
Y59110D01*
D02*
G37*
G36*
X156653Y54938D02*
X155373D01*
Y56690D01*
X154409D01*
X154311Y56552D01*
X154222Y56414D01*
X154153Y56266D01*
X154084Y56138D01*
X154025Y56020D01*
X153986Y55932D01*
X153966Y55873D01*
X153956Y55863D01*
Y55853D01*
X153897Y55676D01*
X153848Y55499D01*
X153819Y55342D01*
X153789Y55194D01*
X153779Y55076D01*
X153770Y54977D01*
Y54899D01*
X153779Y54722D01*
X153799Y54554D01*
X153829Y54397D01*
X153878Y54239D01*
X153927Y54102D01*
X153986Y53974D01*
X154045Y53856D01*
X154104Y53747D01*
X154163Y53649D01*
X154232Y53570D01*
X154281Y53492D01*
X154330Y53433D01*
X154379Y53383D01*
X154409Y53354D01*
X154429Y53334D01*
X154439Y53324D01*
X154576Y53216D01*
X154724Y53127D01*
X154881Y53049D01*
X155039Y52980D01*
X155206Y52931D01*
X155383Y52881D01*
X155708Y52813D01*
X155865Y52783D01*
X156003Y52763D01*
X156131Y52754D01*
X156249Y52744D01*
X156338Y52734D01*
X156407D01*
X156446D01*
X156466D01*
X156692Y52744D01*
X156908Y52763D01*
X157105Y52793D01*
X157292Y52823D01*
X157459Y52872D01*
X157617Y52921D01*
X157755Y52970D01*
X157883Y53029D01*
X157991Y53088D01*
X158089Y53137D01*
X158168Y53187D01*
X158237Y53236D01*
X158286Y53265D01*
X158325Y53295D01*
X158345Y53315D01*
X158355Y53324D01*
X158463Y53442D01*
X158562Y53561D01*
X158650Y53688D01*
X158729Y53826D01*
X158788Y53954D01*
X158837Y54082D01*
X158916Y54338D01*
X158945Y54456D01*
X158965Y54564D01*
X158975Y54663D01*
X158985Y54741D01*
X158994Y54810D01*
Y54909D01*
X158985Y55145D01*
X158945Y55361D01*
X158896Y55548D01*
X158837Y55715D01*
X158768Y55843D01*
X158719Y55932D01*
X158680Y55991D01*
X158670Y56011D01*
X158542Y56168D01*
X158394Y56296D01*
X158247Y56394D01*
X158109Y56483D01*
X157981Y56542D01*
X157883Y56591D01*
X157843Y56601D01*
X157824Y56611D01*
X157804Y56621D01*
X157794D01*
X158079Y58136D01*
X158266Y58087D01*
X158443Y58028D01*
X158611Y57949D01*
X158768Y57880D01*
X158916Y57792D01*
X159044Y57703D01*
X159172Y57614D01*
X159280Y57536D01*
X159378Y57447D01*
X159467Y57368D01*
X159536Y57300D01*
X159595Y57231D01*
X159644Y57182D01*
X159674Y57142D01*
X159693Y57113D01*
X159703Y57103D01*
X159811Y56945D01*
X159900Y56778D01*
X159978Y56611D01*
X160047Y56424D01*
X160106Y56247D01*
X160156Y56060D01*
X160224Y55715D01*
X160254Y55548D01*
X160274Y55391D01*
X160284Y55263D01*
X160293Y55145D01*
X160303Y55046D01*
Y54909D01*
X160284Y54525D01*
X160264Y54338D01*
X160244Y54171D01*
X160215Y54013D01*
X160185Y53856D01*
X160146Y53728D01*
X160116Y53600D01*
X160077Y53482D01*
X160038Y53383D01*
X160008Y53305D01*
X159978Y53226D01*
X159959Y53177D01*
X159939Y53127D01*
X159920Y53108D01*
Y53098D01*
X159821Y52921D01*
X159713Y52763D01*
X159605Y52606D01*
X159486Y52468D01*
X159368Y52340D01*
X159250Y52222D01*
X159142Y52114D01*
X159024Y52016D01*
X158916Y51927D01*
X158817Y51858D01*
X158729Y51799D01*
X158660Y51740D01*
X158591Y51701D01*
X158542Y51671D01*
X158512Y51661D01*
X158502Y51652D01*
X158325Y51563D01*
X158148Y51494D01*
X157971Y51425D01*
X157794Y51366D01*
X157440Y51278D01*
X157273Y51248D01*
X157115Y51218D01*
X156967Y51199D01*
X156830Y51189D01*
X156712Y51179D01*
X156603Y51169D01*
X156525Y51160D01*
X156456D01*
X156416D01*
X156407D01*
X156200Y51169D01*
X156003Y51179D01*
X155629Y51228D01*
X155452Y51258D01*
X155285Y51297D01*
X155127Y51337D01*
X154980Y51386D01*
X154852Y51425D01*
X154734Y51464D01*
X154625Y51504D01*
X154547Y51533D01*
X154478Y51563D01*
X154419Y51583D01*
X154389Y51602D01*
X154379D01*
X154212Y51691D01*
X154055Y51789D01*
X153907Y51888D01*
X153770Y51996D01*
X153641Y52104D01*
X153524Y52212D01*
X153415Y52321D01*
X153317Y52429D01*
X153238Y52527D01*
X153159Y52616D01*
X153100Y52704D01*
X153041Y52773D01*
X153002Y52842D01*
X152972Y52881D01*
X152963Y52911D01*
X152953Y52921D01*
X152864Y53088D01*
X152795Y53265D01*
X152726Y53442D01*
X152667Y53619D01*
X152579Y53964D01*
X152549Y54131D01*
X152520Y54289D01*
X152500Y54436D01*
X152490Y54574D01*
X152480Y54692D01*
X152471Y54800D01*
X152461Y54879D01*
Y54997D01*
X152480Y55342D01*
X152520Y55676D01*
X152569Y55991D01*
X152608Y56138D01*
X152638Y56266D01*
X152667Y56394D01*
X152707Y56503D01*
X152736Y56601D01*
X152756Y56680D01*
X152786Y56749D01*
X152795Y56798D01*
X152815Y56827D01*
Y56837D01*
X152884Y57004D01*
X152953Y57162D01*
X153022Y57310D01*
X153091Y57437D01*
X153159Y57565D01*
X153228Y57683D01*
X153297Y57782D01*
X153356Y57880D01*
X153415Y57959D01*
X153464Y58038D01*
X153514Y58097D01*
X153553Y58146D01*
X153583Y58185D01*
X153612Y58215D01*
X153622Y58225D01*
X153632Y58235D01*
X156653D01*
Y54938D01*
D02*
G37*
G36*
X155019Y50116D02*
X155236Y50077D01*
X155432Y50018D01*
X155600Y49949D01*
X155737Y49880D01*
X155836Y49821D01*
X155875Y49802D01*
X155905Y49782D01*
X155915Y49762D01*
X155924D01*
X156092Y49605D01*
X156239Y49437D01*
X156357Y49260D01*
X156446Y49093D01*
X156525Y48936D01*
X156554Y48867D01*
X156574Y48818D01*
X156594Y48768D01*
X156603Y48729D01*
X156613Y48709D01*
Y48700D01*
X156712Y48877D01*
X156810Y49024D01*
X156928Y49162D01*
X157036Y49270D01*
X157135Y49359D01*
X157213Y49428D01*
X157263Y49467D01*
X157282Y49477D01*
X157450Y49575D01*
X157617Y49644D01*
X157784Y49693D01*
X157932Y49723D01*
X158070Y49752D01*
X158168Y49762D01*
X158207D01*
X158237D01*
X158247D01*
X158256D01*
X158434Y49752D01*
X158601Y49723D01*
X158748Y49683D01*
X158886Y49644D01*
X158994Y49605D01*
X159073Y49565D01*
X159122Y49536D01*
X159142Y49526D01*
X159280Y49437D01*
X159408Y49339D01*
X159516Y49241D01*
X159605Y49152D01*
X159674Y49064D01*
X159732Y49005D01*
X159762Y48965D01*
X159772Y48946D01*
X159851Y48818D01*
X159920Y48680D01*
X159978Y48542D01*
X160018Y48424D01*
X160047Y48316D01*
X160067Y48237D01*
X160087Y48178D01*
Y48158D01*
X160097Y48070D01*
X160116Y47971D01*
X160136Y47765D01*
X160146Y47538D01*
X160156Y47322D01*
X160166Y47125D01*
Y43799D01*
X152599D01*
Y46633D01*
X152608Y46869D01*
Y47273D01*
X152618Y47440D01*
Y47725D01*
X152628Y47834D01*
Y47932D01*
X152638Y48011D01*
Y48129D01*
X152648Y48168D01*
Y48208D01*
X152687Y48424D01*
X152736Y48621D01*
X152786Y48798D01*
X152854Y48946D01*
X152903Y49064D01*
X152953Y49162D01*
X152992Y49211D01*
X153002Y49231D01*
X153120Y49378D01*
X153248Y49516D01*
X153376Y49624D01*
X153504Y49723D01*
X153612Y49792D01*
X153701Y49851D01*
X153760Y49880D01*
X153770Y49890D01*
X153779D01*
X153966Y49969D01*
X154143Y50028D01*
X154311Y50077D01*
X154468Y50107D01*
X154596Y50126D01*
X154694Y50136D01*
X154734D01*
X154763D01*
X154773D01*
X154783D01*
X155019Y50116D01*
D02*
G37*
G36*
X148847Y118272D02*
Y96608D01*
X143123D01*
Y118272D01*
X148847D01*
D02*
G37*
G36*
X134481Y112926D02*
X137682D01*
Y112106D01*
X134475Y109928D01*
X133635D01*
Y111988D01*
X132618D01*
Y112926D01*
X133635D01*
Y113549D01*
X134481D01*
Y112926D01*
D02*
G37*
G36*
X134540Y108374D02*
X136272Y109614D01*
Y108485D01*
X135262Y107796D01*
X136272Y107147D01*
Y105973D01*
X134494Y107232D01*
X132618Y105920D01*
Y107048D01*
X133747Y107796D01*
X132618Y108538D01*
Y109725D01*
X134540Y108374D01*
D02*
G37*
G36*
X137689Y103946D02*
X137604Y103913D01*
X137519Y103874D01*
X137368Y103782D01*
X137230Y103683D01*
X137105Y103578D01*
X137013Y103486D01*
X136968Y103447D01*
X136935Y103408D01*
X136908Y103375D01*
X136889Y103355D01*
X136882Y103342D01*
X136876Y103336D01*
X136758Y103172D01*
X136659Y103021D01*
X136574Y102883D01*
X136515Y102765D01*
X136469Y102666D01*
X136449Y102620D01*
X136436Y102588D01*
X136423Y102561D01*
X136416Y102542D01*
X136410Y102529D01*
Y102522D01*
X135531D01*
X135629Y102778D01*
X135747Y103021D01*
X135806Y103126D01*
X135865Y103231D01*
X135924Y103329D01*
X135984Y103414D01*
X136042Y103493D01*
X136088Y103565D01*
X136141Y103624D01*
X136180Y103677D01*
X136213Y103716D01*
X136239Y103742D01*
X136252Y103762D01*
X136259Y103769D01*
X132618D01*
Y104733D01*
X137689D01*
Y103946D01*
D02*
G37*
G36*
X109642Y103674D02*
X105910Y102434D01*
X109642Y101162D01*
Y100059D01*
X104598Y101857D01*
Y102946D01*
X109642Y104756D01*
Y103674D01*
D02*
G37*
G36*
X106585Y99804D02*
X106730Y99791D01*
X106868Y99764D01*
X106992Y99725D01*
X107110Y99686D01*
X107222Y99640D01*
X107327Y99594D01*
X107419Y99548D01*
X107504Y99495D01*
X107576Y99449D01*
X107642Y99403D01*
X107694Y99364D01*
X107740Y99331D01*
X107766Y99305D01*
X107786Y99285D01*
X107792Y99279D01*
X107891Y99174D01*
X107970Y99069D01*
X108048Y98957D01*
X108107Y98839D01*
X108160Y98728D01*
X108206Y98616D01*
X108238Y98505D01*
X108271Y98400D01*
X108291Y98295D01*
X108311Y98203D01*
X108317Y98124D01*
X108330Y98052D01*
Y97993D01*
X108337Y97954D01*
Y97914D01*
X108324Y97717D01*
X108298Y97540D01*
X108258Y97376D01*
X108219Y97232D01*
X108193Y97167D01*
X108173Y97114D01*
X108153Y97062D01*
X108133Y97022D01*
X108114Y96989D01*
X108107Y96963D01*
X108094Y96950D01*
Y96943D01*
X107996Y96793D01*
X107884Y96655D01*
X107773Y96543D01*
X107661Y96445D01*
X107563Y96373D01*
X107517Y96340D01*
X107477Y96320D01*
X107451Y96301D01*
X107425Y96287D01*
X107412Y96274D01*
X107405D01*
X107235Y96196D01*
X107071Y96136D01*
X106913Y96097D01*
X106769Y96071D01*
X106710Y96058D01*
X106651Y96051D01*
X106598Y96045D01*
X106559D01*
X106520Y96038D01*
X106494D01*
X106480D01*
X106474D01*
X106244Y96051D01*
X106041Y96078D01*
X105949Y96091D01*
X105857Y96110D01*
X105779Y96136D01*
X105706Y96156D01*
X105634Y96176D01*
X105575Y96202D01*
X105529Y96222D01*
X105483Y96235D01*
X105450Y96255D01*
X105424Y96261D01*
X105411Y96274D01*
X105405D01*
X105247Y96373D01*
X105116Y96484D01*
X104998Y96596D01*
X104906Y96707D01*
X104834Y96806D01*
X104801Y96852D01*
X104781Y96891D01*
X104762Y96917D01*
X104749Y96943D01*
X104736Y96956D01*
Y96963D01*
X104663Y97134D01*
X104604Y97311D01*
X104565Y97468D01*
X104539Y97619D01*
X104532Y97685D01*
X104525Y97744D01*
X104519Y97796D01*
Y97842D01*
X104512Y97875D01*
Y97927D01*
X104519Y98078D01*
X104539Y98216D01*
X104565Y98354D01*
X104598Y98479D01*
X104637Y98597D01*
X104683Y98708D01*
X104736Y98807D01*
X104788Y98905D01*
X104834Y98984D01*
X104886Y99062D01*
X104932Y99121D01*
X104972Y99174D01*
X105004Y99220D01*
X105031Y99246D01*
X105050Y99266D01*
X105057Y99272D01*
X105162Y99364D01*
X105273Y99449D01*
X105385Y99521D01*
X105503Y99581D01*
X105621Y99633D01*
X105733Y99679D01*
X105844Y99712D01*
X105949Y99744D01*
X106047Y99764D01*
X106139Y99784D01*
X106225Y99797D01*
X106297Y99804D01*
X106356D01*
X106395Y99810D01*
X106428D01*
X106435D01*
X106585Y99804D01*
D02*
G37*
G36*
X109642Y91971D02*
X104598D01*
Y92988D01*
X106743D01*
Y95094D01*
X107596D01*
Y92988D01*
X108790D01*
Y95428D01*
X109642D01*
Y91971D01*
D02*
G37*
G36*
X113507Y112498D02*
X113586Y112492D01*
X113737Y112452D01*
X113868Y112406D01*
X113980Y112347D01*
X114072Y112288D01*
X114137Y112236D01*
X114163Y112216D01*
X114183Y112196D01*
X114190Y112190D01*
X114196Y112183D01*
X114249Y112124D01*
X114301Y112058D01*
X114380Y111927D01*
X114432Y111796D01*
X114472Y111678D01*
X114491Y111566D01*
X114504Y111527D01*
Y111488D01*
X114511Y111455D01*
Y111429D01*
Y111416D01*
Y111409D01*
X114504Y111324D01*
X114498Y111245D01*
X114459Y111094D01*
X114413Y110963D01*
X114354Y110851D01*
X114295Y110760D01*
X114242Y110694D01*
X114222Y110668D01*
X114209Y110648D01*
X114203Y110642D01*
X114196Y110635D01*
X114137Y110582D01*
X114072Y110530D01*
X113940Y110451D01*
X113809Y110399D01*
X113691Y110359D01*
X113579Y110340D01*
X113533Y110327D01*
X113501D01*
X113468Y110320D01*
X113422D01*
X113337Y110327D01*
X113258Y110333D01*
X113107Y110373D01*
X112976Y110418D01*
X112864Y110477D01*
X112773Y110537D01*
X112707Y110589D01*
X112681Y110609D01*
X112661Y110622D01*
X112654Y110628D01*
X112648Y110635D01*
X112589Y110694D01*
X112543Y110760D01*
X112497Y110825D01*
X112464Y110891D01*
X112405Y111022D01*
X112366Y111140D01*
X112346Y111252D01*
X112333Y111298D01*
Y111330D01*
X112327Y111363D01*
Y111389D01*
Y111402D01*
Y111409D01*
X112333Y111494D01*
X112340Y111573D01*
X112379Y111724D01*
X112425Y111855D01*
X112484Y111967D01*
X112543Y112058D01*
X112595Y112124D01*
X112615Y112150D01*
X112635Y112170D01*
X112641Y112177D01*
X112648Y112183D01*
X112707Y112242D01*
X112773Y112288D01*
X112838Y112334D01*
X112904Y112367D01*
X113035Y112426D01*
X113153Y112465D01*
X113265Y112485D01*
X113304Y112498D01*
X113343D01*
X113376Y112505D01*
X113422D01*
X113507Y112498D01*
D02*
G37*
G36*
X120848Y112432D02*
X120973Y112426D01*
X121091Y112406D01*
X121202Y112380D01*
X121301Y112354D01*
X121392Y112321D01*
X121478Y112288D01*
X121550Y112255D01*
X121616Y112216D01*
X121675Y112183D01*
X121727Y112150D01*
X121766Y112124D01*
X121799Y112098D01*
X121819Y112078D01*
X121832Y112072D01*
X121838Y112065D01*
X121911Y111993D01*
X121970Y111921D01*
X122022Y111842D01*
X122068Y111763D01*
X122101Y111691D01*
X122134Y111612D01*
X122180Y111468D01*
X122212Y111337D01*
X122219Y111278D01*
X122225Y111232D01*
X122232Y111193D01*
Y111166D01*
Y111147D01*
Y111140D01*
X122225Y111015D01*
X122206Y110904D01*
X122180Y110799D01*
X122147Y110707D01*
X122121Y110635D01*
X122094Y110576D01*
X122075Y110543D01*
X122068Y110530D01*
X121996Y110432D01*
X121911Y110346D01*
X121819Y110274D01*
X121727Y110209D01*
X121648Y110163D01*
X121576Y110123D01*
X121550Y110117D01*
X121537Y110104D01*
X121524Y110097D01*
X121517D01*
X121668Y110018D01*
X121806Y109933D01*
X121911Y109848D01*
X122002Y109763D01*
X122075Y109684D01*
X122121Y109625D01*
X122153Y109579D01*
X122160Y109572D01*
Y109566D01*
X122225Y109434D01*
X122272Y109303D01*
X122311Y109179D01*
X122330Y109061D01*
X122344Y108962D01*
X122350Y108916D01*
Y108883D01*
X122357Y108851D01*
Y108831D01*
Y108818D01*
Y108811D01*
X122350Y108674D01*
X122330Y108549D01*
X122304Y108424D01*
X122272Y108313D01*
X122232Y108208D01*
X122186Y108109D01*
X122140Y108024D01*
X122088Y107945D01*
X122035Y107873D01*
X121989Y107814D01*
X121943Y107762D01*
X121904Y107716D01*
X121871Y107683D01*
X121838Y107657D01*
X121825Y107644D01*
X121819Y107637D01*
X121727Y107571D01*
X121635Y107519D01*
X121543Y107473D01*
X121445Y107427D01*
X121255Y107361D01*
X121071Y107322D01*
X120992Y107309D01*
X120914Y107296D01*
X120841Y107289D01*
X120782Y107283D01*
X120736Y107276D01*
X120671D01*
X120533Y107283D01*
X120408Y107296D01*
X120284Y107316D01*
X120172Y107342D01*
X120067Y107375D01*
X119969Y107414D01*
X119877Y107453D01*
X119798Y107493D01*
X119726Y107532D01*
X119661Y107571D01*
X119608Y107611D01*
X119562Y107644D01*
X119529Y107670D01*
X119503Y107689D01*
X119490Y107703D01*
X119483Y107709D01*
X119405Y107794D01*
X119339Y107886D01*
X119273Y107978D01*
X119228Y108070D01*
X119182Y108168D01*
X119149Y108267D01*
X119090Y108444D01*
X119077Y108529D01*
X119064Y108608D01*
X119051Y108674D01*
X119044Y108733D01*
X119037Y108785D01*
Y108818D01*
Y108844D01*
Y108851D01*
X119044Y109008D01*
X119070Y109146D01*
X119109Y109277D01*
X119149Y109382D01*
X119188Y109474D01*
X119228Y109539D01*
X119241Y109566D01*
X119254Y109585D01*
X119260Y109592D01*
Y109599D01*
X119352Y109717D01*
X119451Y109815D01*
X119556Y109900D01*
X119661Y109972D01*
X119752Y110025D01*
X119825Y110064D01*
X119857Y110077D01*
X119877Y110090D01*
X119890Y110097D01*
X119897D01*
X119779Y110156D01*
X119680Y110222D01*
X119588Y110294D01*
X119516Y110359D01*
X119457Y110418D01*
X119418Y110464D01*
X119392Y110497D01*
X119385Y110510D01*
X119326Y110615D01*
X119280Y110727D01*
X119247Y110832D01*
X119221Y110930D01*
X119208Y111015D01*
X119201Y111081D01*
Y111107D01*
Y111127D01*
Y111134D01*
Y111140D01*
X119208Y111245D01*
X119221Y111337D01*
X119241Y111435D01*
X119260Y111521D01*
X119326Y111678D01*
X119398Y111809D01*
X119438Y111868D01*
X119477Y111921D01*
X119510Y111960D01*
X119536Y111999D01*
X119562Y112026D01*
X119582Y112045D01*
X119595Y112058D01*
X119602Y112065D01*
X119680Y112131D01*
X119765Y112190D01*
X119851Y112236D01*
X119943Y112282D01*
X120035Y112321D01*
X120133Y112347D01*
X120310Y112393D01*
X120395Y112406D01*
X120467Y112419D01*
X120540Y112426D01*
X120599Y112432D01*
X120651Y112439D01*
X120717D01*
X120848Y112432D01*
D02*
G37*
G36*
X116925D02*
X117056Y112419D01*
X117174Y112393D01*
X117279Y112360D01*
X117384Y112321D01*
X117476Y112275D01*
X117561Y112229D01*
X117640Y112183D01*
X117706Y112131D01*
X117765Y112085D01*
X117817Y112039D01*
X117863Y111999D01*
X117896Y111967D01*
X117916Y111940D01*
X117929Y111927D01*
X117935Y111921D01*
X118021Y111796D01*
X118099Y111652D01*
X118165Y111494D01*
X118217Y111330D01*
X118270Y111166D01*
X118309Y110989D01*
X118342Y110819D01*
X118368Y110655D01*
X118388Y110497D01*
X118401Y110346D01*
X118414Y110215D01*
X118421Y110097D01*
Y109999D01*
X118427Y109959D01*
Y109926D01*
Y109894D01*
Y109881D01*
Y109868D01*
Y109861D01*
X118421Y109599D01*
X118408Y109356D01*
X118388Y109133D01*
X118355Y108929D01*
X118322Y108746D01*
X118283Y108582D01*
X118244Y108437D01*
X118204Y108306D01*
X118165Y108195D01*
X118119Y108096D01*
X118086Y108018D01*
X118053Y107952D01*
X118021Y107899D01*
X118001Y107867D01*
X117988Y107847D01*
X117981Y107840D01*
X117896Y107742D01*
X117798Y107657D01*
X117706Y107578D01*
X117607Y107512D01*
X117502Y107460D01*
X117404Y107414D01*
X117312Y107375D01*
X117220Y107348D01*
X117128Y107322D01*
X117050Y107309D01*
X116978Y107296D01*
X116919Y107283D01*
X116866D01*
X116827Y107276D01*
X116794D01*
X116663Y107283D01*
X116531Y107296D01*
X116413Y107322D01*
X116308Y107355D01*
X116203Y107394D01*
X116112Y107440D01*
X116026Y107486D01*
X115948Y107532D01*
X115882Y107578D01*
X115816Y107624D01*
X115770Y107670D01*
X115725Y107709D01*
X115692Y107742D01*
X115672Y107768D01*
X115659Y107781D01*
X115652Y107788D01*
X115567Y107913D01*
X115488Y108057D01*
X115423Y108214D01*
X115364Y108378D01*
X115318Y108549D01*
X115278Y108720D01*
X115239Y108890D01*
X115213Y109061D01*
X115193Y109218D01*
X115180Y109369D01*
X115167Y109500D01*
X115160Y109618D01*
X115154Y109717D01*
Y109756D01*
Y109789D01*
Y109821D01*
Y109841D01*
Y109848D01*
Y109854D01*
X115160Y110117D01*
X115173Y110353D01*
X115200Y110576D01*
X115233Y110779D01*
X115265Y110969D01*
X115311Y111140D01*
X115351Y111291D01*
X115397Y111422D01*
X115443Y111540D01*
X115488Y111639D01*
X115534Y111724D01*
X115567Y111796D01*
X115600Y111849D01*
X115626Y111888D01*
X115639Y111908D01*
X115646Y111914D01*
X115725Y112006D01*
X115816Y112085D01*
X115908Y112157D01*
X116000Y112216D01*
X116092Y112268D01*
X116190Y112314D01*
X116282Y112347D01*
X116374Y112373D01*
X116459Y112393D01*
X116538Y112413D01*
X116610Y112426D01*
X116669Y112432D01*
X116722Y112439D01*
X116794D01*
X116925Y112432D01*
D02*
G37*
G36*
X107966Y121668D02*
X108045Y121661D01*
X108195Y121622D01*
X108327Y121576D01*
X108438Y121517D01*
X108530Y121458D01*
X108596Y121405D01*
X108622Y121386D01*
X108642Y121366D01*
X108648Y121360D01*
X108655Y121353D01*
X108714Y121294D01*
X108759Y121228D01*
X108805Y121163D01*
X108838Y121097D01*
X108897Y120966D01*
X108937Y120848D01*
X108956Y120736D01*
X108969Y120697D01*
Y120658D01*
X108976Y120625D01*
Y120579D01*
X108969Y120494D01*
X108963Y120415D01*
X108923Y120264D01*
X108878Y120133D01*
X108819Y120021D01*
X108759Y119930D01*
X108707Y119864D01*
X108687Y119838D01*
X108668Y119818D01*
X108661Y119811D01*
X108655Y119805D01*
X108596Y119752D01*
X108530Y119700D01*
X108399Y119621D01*
X108267Y119569D01*
X108150Y119529D01*
X108038Y119510D01*
X107999Y119497D01*
X107959D01*
X107926Y119490D01*
X107900D01*
X107887D01*
X107880D01*
X107795Y119497D01*
X107717Y119503D01*
X107566Y119543D01*
X107434Y119588D01*
X107323Y119647D01*
X107231Y119706D01*
X107166Y119759D01*
X107139Y119779D01*
X107120Y119792D01*
X107113Y119798D01*
X107106Y119805D01*
X107054Y119864D01*
X107001Y119930D01*
X106923Y120061D01*
X106870Y120192D01*
X106831Y120310D01*
X106811Y120422D01*
X106798Y120467D01*
Y120500D01*
X106791Y120533D01*
Y120579D01*
X106798Y120664D01*
X106805Y120743D01*
X106844Y120894D01*
X106890Y121025D01*
X106949Y121137D01*
X107008Y121228D01*
X107061Y121294D01*
X107080Y121320D01*
X107093Y121340D01*
X107100Y121346D01*
X107106Y121353D01*
X107166Y121412D01*
X107231Y121458D01*
X107297Y121504D01*
X107362Y121537D01*
X107493Y121596D01*
X107612Y121635D01*
X107723Y121655D01*
X107769Y121668D01*
X107802D01*
X107835Y121675D01*
X107861D01*
X107874D01*
X107880D01*
X107966Y121668D01*
D02*
G37*
G36*
X106601Y118860D02*
X106831Y118847D01*
X107041Y118821D01*
X107238Y118788D01*
X107415Y118755D01*
X107572Y118709D01*
X107717Y118670D01*
X107848Y118624D01*
X107959Y118578D01*
X108051Y118532D01*
X108136Y118486D01*
X108202Y118454D01*
X108248Y118421D01*
X108287Y118394D01*
X108307Y118381D01*
X108313Y118375D01*
X108418Y118283D01*
X108510Y118178D01*
X108589Y118073D01*
X108661Y117968D01*
X108714Y117863D01*
X108766Y117758D01*
X108805Y117660D01*
X108838Y117561D01*
X108858Y117470D01*
X108878Y117384D01*
X108891Y117306D01*
X108904Y117240D01*
Y117187D01*
X108910Y117148D01*
Y117115D01*
X108904Y116984D01*
X108891Y116859D01*
X108864Y116748D01*
X108838Y116636D01*
X108799Y116531D01*
X108759Y116440D01*
X108720Y116348D01*
X108674Y116269D01*
X108628Y116197D01*
X108589Y116138D01*
X108550Y116079D01*
X108510Y116039D01*
X108484Y116000D01*
X108458Y115974D01*
X108445Y115961D01*
X108438Y115954D01*
X108346Y115875D01*
X108248Y115803D01*
X108150Y115744D01*
X108045Y115692D01*
X107940Y115646D01*
X107841Y115613D01*
X107736Y115580D01*
X107644Y115560D01*
X107553Y115541D01*
X107467Y115528D01*
X107388Y115515D01*
X107323Y115508D01*
X107270Y115501D01*
X107231D01*
X107205D01*
X107198D01*
X107061Y115508D01*
X106936Y115521D01*
X106811Y115541D01*
X106700Y115567D01*
X106595Y115600D01*
X106490Y115639D01*
X106404Y115672D01*
X106319Y115718D01*
X106247Y115757D01*
X106181Y115790D01*
X106129Y115830D01*
X106083Y115862D01*
X106044Y115889D01*
X106017Y115908D01*
X106004Y115921D01*
X105998Y115928D01*
X105919Y116013D01*
X105847Y116098D01*
X105788Y116184D01*
X105735Y116269D01*
X105690Y116361D01*
X105650Y116446D01*
X105617Y116525D01*
X105598Y116604D01*
X105578Y116676D01*
X105565Y116748D01*
X105552Y116807D01*
X105545Y116859D01*
X105539Y116899D01*
Y116958D01*
X105545Y117056D01*
X105558Y117155D01*
X105578Y117246D01*
X105604Y117332D01*
X105670Y117483D01*
X105748Y117620D01*
X105788Y117673D01*
X105827Y117725D01*
X105860Y117771D01*
X105893Y117804D01*
X105919Y117830D01*
X105939Y117850D01*
X105952Y117863D01*
X105958Y117870D01*
X105801Y117857D01*
X105663Y117843D01*
X105532Y117824D01*
X105414Y117804D01*
X105309Y117784D01*
X105217Y117758D01*
X105132Y117738D01*
X105066Y117712D01*
X105001Y117693D01*
X104948Y117673D01*
X104909Y117653D01*
X104876Y117633D01*
X104850Y117620D01*
X104830Y117607D01*
X104824Y117601D01*
X104817D01*
X104725Y117522D01*
X104659Y117437D01*
X104614Y117351D01*
X104581Y117273D01*
X104561Y117201D01*
X104555Y117148D01*
X104548Y117109D01*
Y117096D01*
X104555Y117010D01*
X104568Y116938D01*
X104587Y116873D01*
X104614Y116820D01*
X104640Y116774D01*
X104659Y116741D01*
X104673Y116722D01*
X104679Y116715D01*
X104738Y116669D01*
X104804Y116630D01*
X104876Y116604D01*
X104942Y116577D01*
X105007Y116564D01*
X105060Y116551D01*
X105093Y116545D01*
X105106D01*
X105001Y115606D01*
X104889Y115626D01*
X104778Y115652D01*
X104679Y115685D01*
X104587Y115718D01*
X104502Y115757D01*
X104423Y115797D01*
X104358Y115836D01*
X104292Y115875D01*
X104240Y115908D01*
X104187Y115948D01*
X104148Y115980D01*
X104115Y116007D01*
X104089Y116033D01*
X104069Y116052D01*
X104063Y116059D01*
X104056Y116066D01*
X104004Y116138D01*
X103958Y116210D01*
X103879Y116367D01*
X103826Y116531D01*
X103787Y116682D01*
X103774Y116754D01*
X103767Y116820D01*
X103754Y116873D01*
Y116925D01*
X103748Y116964D01*
Y117023D01*
X103754Y117174D01*
X103774Y117319D01*
X103807Y117450D01*
X103846Y117575D01*
X103892Y117699D01*
X103938Y117804D01*
X103997Y117909D01*
X104056Y117994D01*
X104109Y118080D01*
X104167Y118152D01*
X104213Y118211D01*
X104266Y118263D01*
X104299Y118303D01*
X104332Y118329D01*
X104351Y118349D01*
X104358Y118355D01*
X104482Y118447D01*
X104620Y118526D01*
X104771Y118591D01*
X104929Y118650D01*
X105093Y118703D01*
X105263Y118742D01*
X105427Y118775D01*
X105591Y118801D01*
X105742Y118821D01*
X105886Y118841D01*
X106017Y118854D01*
X106135Y118860D01*
X106227Y118867D01*
X106299D01*
X106326D01*
X106345D01*
X106352D01*
X106359D01*
X106601Y118860D01*
D02*
G37*
G36*
X107612Y114918D02*
X107717Y114904D01*
X107815Y114885D01*
X107913Y114859D01*
X108084Y114787D01*
X108156Y114754D01*
X108228Y114714D01*
X108294Y114668D01*
X108346Y114636D01*
X108392Y114596D01*
X108431Y114563D01*
X108464Y114537D01*
X108484Y114517D01*
X108497Y114504D01*
X108504Y114498D01*
X108576Y114413D01*
X108635Y114327D01*
X108694Y114229D01*
X108740Y114137D01*
X108779Y114039D01*
X108812Y113940D01*
X108858Y113750D01*
X108878Y113665D01*
X108891Y113586D01*
X108897Y113507D01*
X108904Y113448D01*
X108910Y113396D01*
Y113324D01*
X108904Y113199D01*
X108897Y113081D01*
X108878Y112963D01*
X108858Y112858D01*
X108832Y112759D01*
X108799Y112668D01*
X108766Y112576D01*
X108740Y112504D01*
X108707Y112431D01*
X108674Y112366D01*
X108642Y112313D01*
X108615Y112267D01*
X108596Y112235D01*
X108576Y112208D01*
X108569Y112195D01*
X108563Y112189D01*
X108491Y112110D01*
X108412Y112038D01*
X108327Y111972D01*
X108235Y111913D01*
X108143Y111861D01*
X108045Y111821D01*
X107861Y111749D01*
X107769Y111723D01*
X107684Y111703D01*
X107612Y111684D01*
X107546Y111670D01*
X107493Y111664D01*
X107448Y111657D01*
X107421Y111651D01*
X107415D01*
X107323Y112615D01*
X107467Y112635D01*
X107592Y112661D01*
X107697Y112694D01*
X107782Y112727D01*
X107848Y112759D01*
X107894Y112792D01*
X107920Y112812D01*
X107926Y112819D01*
X107985Y112891D01*
X108031Y112969D01*
X108064Y113048D01*
X108090Y113127D01*
X108104Y113192D01*
X108110Y113245D01*
Y113297D01*
X108104Y113409D01*
X108084Y113501D01*
X108051Y113586D01*
X108025Y113652D01*
X107992Y113704D01*
X107959Y113743D01*
X107940Y113770D01*
X107933Y113776D01*
X107861Y113835D01*
X107782Y113881D01*
X107697Y113907D01*
X107618Y113934D01*
X107546Y113947D01*
X107487Y113953D01*
X107448D01*
X107441D01*
X107434D01*
X107323Y113947D01*
X107218Y113921D01*
X107120Y113888D01*
X107028Y113855D01*
X106956Y113816D01*
X106896Y113783D01*
X106857Y113757D01*
X106851Y113750D01*
X106844D01*
X106798Y113717D01*
X106746Y113671D01*
X106687Y113625D01*
X106621Y113566D01*
X106490Y113435D01*
X106352Y113297D01*
X106221Y113166D01*
X106168Y113107D01*
X106116Y113055D01*
X106077Y113009D01*
X106044Y112976D01*
X106024Y112956D01*
X106017Y112950D01*
X105880Y112805D01*
X105748Y112674D01*
X105624Y112549D01*
X105512Y112438D01*
X105401Y112340D01*
X105302Y112254D01*
X105211Y112176D01*
X105125Y112103D01*
X105053Y112044D01*
X104988Y111998D01*
X104935Y111959D01*
X104889Y111926D01*
X104850Y111900D01*
X104824Y111880D01*
X104810Y111874D01*
X104804Y111867D01*
X104633Y111775D01*
X104463Y111703D01*
X104299Y111644D01*
X104148Y111598D01*
X104082Y111585D01*
X104023Y111572D01*
X103971Y111559D01*
X103925Y111552D01*
X103892Y111546D01*
X103859Y111539D01*
X103846D01*
X103840D01*
Y114924D01*
X104738D01*
Y113002D01*
X104830Y113061D01*
X104915Y113127D01*
X104948Y113153D01*
X104974Y113179D01*
X104994Y113192D01*
X105001Y113199D01*
X105027Y113225D01*
X105066Y113258D01*
X105145Y113343D01*
X105237Y113435D01*
X105329Y113533D01*
X105420Y113625D01*
X105493Y113704D01*
X105519Y113737D01*
X105539Y113757D01*
X105552Y113770D01*
X105558Y113776D01*
X105637Y113862D01*
X105709Y113934D01*
X105840Y114071D01*
X105952Y114176D01*
X106044Y114268D01*
X106116Y114334D01*
X106168Y114380D01*
X106195Y114406D01*
X106208Y114413D01*
X106332Y114504D01*
X106450Y114583D01*
X106555Y114649D01*
X106654Y114708D01*
X106732Y114747D01*
X106798Y114773D01*
X106837Y114793D01*
X106844Y114800D01*
X106851D01*
X106969Y114839D01*
X107080Y114872D01*
X107192Y114891D01*
X107290Y114911D01*
X107375Y114918D01*
X107441Y114924D01*
X107467D01*
X107487D01*
X107493D01*
X107500D01*
X107612Y114918D01*
D02*
G37*
%LPC*%
G36*
X30420Y160885D02*
X29253D01*
X29180Y160878D01*
X29023D01*
X28990Y160872D01*
X28912D01*
X28892Y160865D01*
X28885D01*
X28800Y160845D01*
X28721Y160819D01*
X28656Y160786D01*
X28597Y160754D01*
X28557Y160721D01*
X28524Y160695D01*
X28505Y160675D01*
X28498Y160668D01*
X28452Y160603D01*
X28420Y160537D01*
X28393Y160471D01*
X28380Y160406D01*
X28367Y160347D01*
X28360Y160301D01*
Y160268D01*
Y160255D01*
X28367Y160176D01*
X28374Y160104D01*
X28393Y160038D01*
X28413Y159979D01*
X28433Y159933D01*
X28446Y159901D01*
X28459Y159881D01*
X28465Y159874D01*
X28505Y159822D01*
X28557Y159776D01*
X28603Y159743D01*
X28649Y159711D01*
X28688Y159691D01*
X28721Y159678D01*
X28747Y159665D01*
X28754D01*
X28793Y159651D01*
X28846Y159645D01*
X28905Y159638D01*
X28971Y159632D01*
X29121Y159619D01*
X29279Y159612D01*
X29423D01*
X29489Y159606D01*
X30420D01*
Y160885D01*
D02*
G37*
G36*
X156653Y166622D02*
X156544D01*
X156456D01*
X156387D01*
X156348D01*
X156328D01*
X156082D01*
X155865Y166612D01*
X155659D01*
X155472Y166602D01*
X155295Y166583D01*
X155137Y166573D01*
X154999Y166563D01*
X154881Y166543D01*
X154773Y166534D01*
X154675Y166514D01*
X154596Y166504D01*
X154537Y166494D01*
X154488Y166484D01*
X154458Y166474D01*
X154439Y166465D01*
X154429D01*
X154281Y166415D01*
X154153Y166366D01*
X154045Y166317D01*
X153966Y166268D01*
X153907Y166219D01*
X153858Y166179D01*
X153838Y166160D01*
X153829Y166150D01*
X153770Y166071D01*
X153730Y165992D01*
X153701Y165914D01*
X153681Y165835D01*
X153671Y165776D01*
X153661Y165727D01*
Y165677D01*
X153671Y165579D01*
X153691Y165490D01*
X153710Y165412D01*
X153740Y165343D01*
X153770Y165284D01*
X153799Y165244D01*
X153809Y165215D01*
X153819Y165205D01*
X153897Y165136D01*
X153996Y165067D01*
X154104Y165008D01*
X154212Y164969D01*
X154321Y164930D01*
X154409Y164900D01*
X154468Y164880D01*
X154478Y164871D01*
X154488D01*
X154596Y164851D01*
X154714Y164831D01*
X154842Y164812D01*
X154990Y164802D01*
X155295Y164772D01*
X155600Y164762D01*
X155737Y164752D01*
X155875D01*
X156003Y164743D01*
X156111D01*
X156200D01*
X156269D01*
X156308D01*
X156328D01*
X156574D01*
X156790Y164752D01*
X156997D01*
X157194Y164762D01*
X157361Y164782D01*
X157518Y164792D01*
X157656Y164802D01*
X157784Y164821D01*
X157883Y164831D01*
X157981Y164841D01*
X158060Y164861D01*
X158119Y164871D01*
X158168Y164880D01*
X158197D01*
X158217Y164890D01*
X158227D01*
X158375Y164939D01*
X158502Y164989D01*
X158611Y165038D01*
X158689Y165087D01*
X158748Y165136D01*
X158798Y165176D01*
X158817Y165195D01*
X158827Y165205D01*
X158886Y165284D01*
X158926Y165363D01*
X158965Y165441D01*
X158985Y165520D01*
X158994Y165579D01*
X159004Y165628D01*
Y165677D01*
X158994Y165776D01*
X158975Y165864D01*
X158945Y165943D01*
X158916Y166012D01*
X158886Y166061D01*
X158857Y166101D01*
X158837Y166130D01*
X158827Y166140D01*
X158748Y166219D01*
X158650Y166278D01*
X158542Y166337D01*
X158434Y166386D01*
X158325Y166425D01*
X158237Y166465D01*
X158178Y166474D01*
X158168Y166484D01*
X158158D01*
X158060Y166504D01*
X157942Y166534D01*
X157804Y166553D01*
X157666Y166563D01*
X157361Y166593D01*
X157056Y166602D01*
X156918Y166612D01*
X156781D01*
X156653Y166622D01*
D02*
G37*
G36*
X155403Y141894D02*
X155354D01*
X155324D01*
X155314D01*
X155157D01*
X155009Y141875D01*
X154881Y141865D01*
X154753Y141835D01*
X154635Y141815D01*
X154537Y141786D01*
X154439Y141746D01*
X154350Y141717D01*
X154281Y141688D01*
X154212Y141648D01*
X154163Y141619D01*
X154114Y141599D01*
X154084Y141569D01*
X154055Y141560D01*
X154045Y141540D01*
X154035D01*
X153956Y141471D01*
X153897Y141402D01*
X153789Y141254D01*
X153720Y141117D01*
X153661Y140979D01*
X153632Y140861D01*
X153622Y140772D01*
X153612Y140733D01*
Y140684D01*
X153622Y140566D01*
X153632Y140457D01*
X153661Y140359D01*
X153701Y140261D01*
X153789Y140093D01*
X153897Y139956D01*
X153996Y139847D01*
X154084Y139769D01*
X154124Y139739D01*
X154153Y139719D01*
X154163Y139700D01*
X154173D01*
X154252Y139661D01*
X154340Y139621D01*
X154537Y139562D01*
X154753Y139523D01*
X154960Y139493D01*
X155147Y139473D01*
X155236D01*
X155305Y139464D01*
X155364D01*
X155413D01*
X155442D01*
X155452D01*
X155737Y139483D01*
X155993Y139523D01*
X156200Y139572D01*
X156377Y139641D01*
X156505Y139700D01*
X156603Y139759D01*
X156662Y139798D01*
X156682Y139808D01*
X156820Y139946D01*
X156918Y140093D01*
X156997Y140231D01*
X157046Y140369D01*
X157076Y140487D01*
X157086Y140585D01*
X157095Y140625D01*
Y140772D01*
X157076Y140861D01*
X157027Y141038D01*
X156958Y141186D01*
X156889Y141314D01*
X156810Y141412D01*
X156741Y141491D01*
X156692Y141530D01*
X156682Y141550D01*
X156672D01*
X156594Y141609D01*
X156495Y141668D01*
X156289Y141746D01*
X156062Y141806D01*
X155836Y141855D01*
X155639Y141875D01*
X155551Y141884D01*
X155472D01*
X155403Y141894D01*
D02*
G37*
G36*
X155865Y132753D02*
X155836D01*
X155816D01*
X155806D01*
Y130578D01*
X156013Y130588D01*
X156200Y130627D01*
X156357Y130676D01*
X156495Y130736D01*
X156603Y130785D01*
X156682Y130834D01*
X156721Y130873D01*
X156741Y130883D01*
X156859Y131011D01*
X156948Y131139D01*
X157007Y131267D01*
X157056Y131395D01*
X157076Y131503D01*
X157086Y131592D01*
X157095Y131651D01*
Y131670D01*
X157086Y131828D01*
X157046Y131975D01*
X156987Y132103D01*
X156928Y132212D01*
X156869Y132300D01*
X156810Y132359D01*
X156771Y132408D01*
X156761Y132418D01*
X156623Y132527D01*
X156475Y132605D01*
X156318Y132664D01*
X156161Y132704D01*
X156023Y132733D01*
X155915Y132743D01*
X155865Y132753D01*
D02*
G37*
G36*
X158010Y95381D02*
X157961D01*
X157942D01*
X157824Y95371D01*
X157715Y95361D01*
X157617Y95331D01*
X157528Y95302D01*
X157459Y95272D01*
X157410Y95253D01*
X157381Y95233D01*
X157371Y95223D01*
X157292Y95164D01*
X157223Y95085D01*
X157174Y95016D01*
X157125Y94947D01*
X157095Y94889D01*
X157076Y94839D01*
X157056Y94800D01*
Y94790D01*
X157036Y94731D01*
X157027Y94652D01*
X157017Y94564D01*
X157007Y94465D01*
X156987Y94239D01*
X156977Y94003D01*
Y93786D01*
X156967Y93688D01*
Y92291D01*
X158886D01*
Y94042D01*
X158876Y94151D01*
Y94387D01*
X158867Y94436D01*
Y94554D01*
X158857Y94583D01*
Y94593D01*
X158827Y94721D01*
X158788Y94839D01*
X158739Y94938D01*
X158689Y95026D01*
X158640Y95085D01*
X158601Y95135D01*
X158571Y95164D01*
X158562Y95174D01*
X158463Y95243D01*
X158365Y95292D01*
X158266Y95331D01*
X158168Y95351D01*
X158079Y95371D01*
X158010Y95381D01*
D02*
G37*
G36*
X157961Y74490D02*
X155393D01*
Y72758D01*
X157961Y74490D01*
D02*
G37*
G36*
X158099Y48276D02*
X158060D01*
X158040D01*
X157912Y48267D01*
X157794Y48237D01*
X157696Y48208D01*
X157607Y48168D01*
X157538Y48119D01*
X157489Y48089D01*
X157459Y48060D01*
X157450Y48050D01*
X157371Y47962D01*
X157312Y47853D01*
X157263Y47755D01*
X157223Y47657D01*
X157204Y47568D01*
X157184Y47499D01*
X157174Y47450D01*
Y47381D01*
X157164Y47322D01*
Y46987D01*
X157154Y46791D01*
Y45324D01*
X158906D01*
Y46859D01*
X158896Y46977D01*
Y47253D01*
X158886Y47322D01*
Y47450D01*
X158876Y47489D01*
Y47499D01*
X158847Y47637D01*
X158817Y47755D01*
X158768Y47853D01*
X158729Y47932D01*
X158680Y48001D01*
X158650Y48040D01*
X158621Y48070D01*
X158611Y48080D01*
X158522Y48149D01*
X158434Y48198D01*
X158335Y48227D01*
X158247Y48257D01*
X158168Y48267D01*
X158099Y48276D01*
D02*
G37*
G36*
X154921Y48562D02*
X154881D01*
X154862D01*
X154714Y48552D01*
X154586Y48532D01*
X154478Y48493D01*
X154389Y48454D01*
X154311Y48414D01*
X154262Y48375D01*
X154222Y48355D01*
X154212Y48345D01*
X154133Y48257D01*
X154065Y48168D01*
X154016Y48070D01*
X153976Y47981D01*
X153947Y47903D01*
X153927Y47843D01*
X153917Y47804D01*
Y47784D01*
X153907Y47735D01*
Y47676D01*
X153897Y47607D01*
Y47528D01*
X153887Y47361D01*
Y47184D01*
X153878Y47017D01*
Y45324D01*
X155895D01*
Y46909D01*
X155885Y47066D01*
X155875Y47204D01*
X155865Y47332D01*
Y47440D01*
X155856Y47538D01*
X155846Y47627D01*
X155836Y47696D01*
X155826Y47755D01*
X155816Y47804D01*
X155806Y47843D01*
X155797Y47893D01*
X155787Y47912D01*
X155737Y48020D01*
X155688Y48119D01*
X155629Y48208D01*
X155570Y48276D01*
X155521Y48326D01*
X155472Y48365D01*
X155442Y48385D01*
X155432Y48395D01*
X155344Y48454D01*
X155245Y48493D01*
X155147Y48522D01*
X155059Y48542D01*
X154980Y48552D01*
X154921Y48562D01*
D02*
G37*
G36*
X148047Y117472D02*
D01*
Y116398D01*
X148041Y116434D01*
X148036Y116471D01*
X148026Y116523D01*
X148015Y116576D01*
X148005Y116633D01*
X147958Y116759D01*
X147931Y116827D01*
X147895Y116895D01*
X147858Y116963D01*
X147806Y117026D01*
X147753Y117089D01*
X147690Y117152D01*
X147685Y117157D01*
X147675Y117168D01*
X147654Y117183D01*
X147622Y117204D01*
X147585Y117225D01*
X147544Y117252D01*
X147491Y117283D01*
X147428Y117315D01*
X147360Y117341D01*
X147282Y117372D01*
X147198Y117398D01*
X147104Y117424D01*
X147004Y117440D01*
X146899Y117456D01*
X146784Y117466D01*
X146658Y117472D01*
X146595D01*
X146548Y117466D01*
X146490D01*
X146422Y117461D01*
X146349Y117451D01*
X146260Y117446D01*
X146166Y117430D01*
X146061Y117414D01*
X145956Y117398D01*
X145841Y117372D01*
X145600Y117320D01*
X145474Y117283D01*
X145343Y117241D01*
X145338D01*
X145311Y117231D01*
X145275Y117215D01*
X145228Y117199D01*
X145175Y117178D01*
X145107Y117147D01*
X145034Y117115D01*
X144955Y117079D01*
X144782Y116990D01*
X144609Y116879D01*
X144441Y116759D01*
X144363Y116691D01*
X144290Y116618D01*
X144284Y116612D01*
X144274Y116602D01*
X144258Y116581D01*
X144232Y116549D01*
X144206Y116513D01*
X144174Y116471D01*
X144143Y116418D01*
X144106Y116361D01*
X144075Y116298D01*
X144038Y116230D01*
X143980Y116083D01*
X143954Y115999D01*
X143939Y115915D01*
X143928Y115826D01*
X143923Y115737D01*
Y115690D01*
X143928Y115659D01*
X143933Y115617D01*
X143944Y115564D01*
X143954Y115512D01*
X143965Y115454D01*
X144007Y115329D01*
X144038Y115260D01*
X144070Y115192D01*
X144111Y115124D01*
X144159Y115056D01*
X144211Y114993D01*
X144274Y114930D01*
X144279Y114925D01*
X144290Y114915D01*
X144310Y114899D01*
X144342Y114883D01*
X144379Y114857D01*
X144421Y114831D01*
X144473Y114804D01*
X144536Y114773D01*
X144604Y114742D01*
X144683Y114715D01*
X144766Y114689D01*
X144855Y114663D01*
X144955Y114647D01*
X145065Y114632D01*
X145180Y114621D01*
X145301Y114616D01*
X143923D01*
X148047D01*
Y117472D01*
D02*
G37*
G36*
Y114343D02*
D01*
Y113185D01*
X148041Y113227D01*
X148036Y113274D01*
X148031Y113327D01*
X148021Y113390D01*
X148010Y113458D01*
X147973Y113599D01*
X147947Y113673D01*
X147916Y113746D01*
X147879Y113819D01*
X147842Y113888D01*
X147790Y113956D01*
X147738Y114018D01*
X147732Y114024D01*
X147722Y114034D01*
X147706Y114050D01*
X147685Y114071D01*
X147654Y114092D01*
X147617Y114123D01*
X147575Y114149D01*
X147528Y114181D01*
X147476Y114212D01*
X147413Y114239D01*
X147282Y114291D01*
X147208Y114312D01*
X147130Y114328D01*
X147051Y114338D01*
X146962Y114343D01*
X148047D01*
X146920D01*
X146873Y114338D01*
X146810Y114333D01*
X146737Y114317D01*
X146658Y114301D01*
X146569Y114275D01*
X146480Y114244D01*
X146469Y114239D01*
X146438Y114223D01*
X146391Y114202D01*
X146328Y114165D01*
X146249Y114123D01*
X146166Y114066D01*
X146076Y113997D01*
X145977Y113919D01*
X145966Y113914D01*
X145940Y113888D01*
X145898Y113846D01*
X145841Y113793D01*
X145762Y113720D01*
X145673Y113626D01*
X145563Y113515D01*
X145442Y113384D01*
X145437Y113379D01*
X145427Y113369D01*
X145411Y113348D01*
X145390Y113327D01*
X145327Y113264D01*
X145259Y113185D01*
X145180Y113107D01*
X145102Y113023D01*
X145034Y112955D01*
X145002Y112923D01*
X144976Y112897D01*
X144971Y112892D01*
X144955Y112876D01*
X144929Y112855D01*
X144897Y112824D01*
X144855Y112787D01*
X144814Y112750D01*
X144714Y112672D01*
Y114071D01*
X143996Y113924D01*
Y111472D01*
X148047D01*
Y114343D01*
D02*
G37*
G36*
X146658Y111215D02*
X146595D01*
X146548Y111210D01*
X146490D01*
X146422Y111205D01*
X146349Y111194D01*
X146260Y111189D01*
X146166Y111173D01*
X146061Y111157D01*
X145956Y111142D01*
X145841Y111116D01*
X145600Y111063D01*
X145474Y111026D01*
X145343Y110985D01*
X145338D01*
X145311Y110974D01*
X145275Y110958D01*
X145228Y110943D01*
X145175Y110922D01*
X145107Y110890D01*
X145034Y110859D01*
X144955Y110822D01*
X144782Y110733D01*
X144609Y110623D01*
X144441Y110502D01*
X144363Y110434D01*
X144290Y110361D01*
X144284Y110356D01*
X144274Y110345D01*
X144258Y110324D01*
X144232Y110293D01*
X144206Y110256D01*
X144174Y110214D01*
X144143Y110162D01*
X144106Y110104D01*
X144075Y110041D01*
X144038Y109973D01*
X143980Y109827D01*
X143954Y109743D01*
X143939Y109659D01*
X143928Y109570D01*
X143923Y109481D01*
Y111215D01*
Y108359D01*
Y109433D01*
X143928Y109402D01*
X143933Y109360D01*
X143944Y109308D01*
X143954Y109255D01*
X143965Y109198D01*
X144007Y109072D01*
X144038Y109004D01*
X144070Y108936D01*
X144111Y108868D01*
X144159Y108800D01*
X144211Y108737D01*
X144274Y108674D01*
X144279Y108668D01*
X144290Y108658D01*
X144310Y108642D01*
X144342Y108626D01*
X144379Y108600D01*
X144421Y108574D01*
X144473Y108548D01*
X144536Y108517D01*
X144604Y108485D01*
X144683Y108459D01*
X144766Y108433D01*
X144855Y108406D01*
X144955Y108391D01*
X145065Y108375D01*
X145180Y108364D01*
X145301Y108359D01*
X143923D01*
X148047D01*
X145364D01*
X145406Y108364D01*
X145463D01*
X145526Y108370D01*
X145605Y108375D01*
X145683Y108386D01*
X145778Y108396D01*
X145872Y108412D01*
X145977Y108427D01*
X146082Y108443D01*
X146307Y108495D01*
X146537Y108564D01*
X146548Y108569D01*
X146569Y108574D01*
X146611Y108590D01*
X146663Y108611D01*
X146726Y108632D01*
X146800Y108663D01*
X146878Y108700D01*
X146967Y108737D01*
X147151Y108831D01*
X147339Y108941D01*
X147434Y109004D01*
X147517Y109067D01*
X147601Y109135D01*
X147675Y109208D01*
X147680Y109213D01*
X147690Y109224D01*
X147711Y109250D01*
X147732Y109276D01*
X147758Y109313D01*
X147790Y109360D01*
X147827Y109413D01*
X147863Y109470D01*
X147895Y109533D01*
X147931Y109601D01*
X147989Y109748D01*
X148010Y109832D01*
X148031Y109916D01*
X148041Y110005D01*
X148047Y110094D01*
Y110141D01*
X148041Y110178D01*
X148036Y110214D01*
X148026Y110267D01*
X148015Y110319D01*
X148005Y110377D01*
X147958Y110502D01*
X147931Y110571D01*
X147895Y110639D01*
X147858Y110707D01*
X147806Y110770D01*
X147753Y110833D01*
X147690Y110896D01*
X147685Y110901D01*
X147675Y110911D01*
X147654Y110927D01*
X147622Y110948D01*
X147585Y110969D01*
X147544Y110995D01*
X147491Y111026D01*
X147428Y111058D01*
X147360Y111084D01*
X147282Y111116D01*
X147198Y111142D01*
X147104Y111168D01*
X147004Y111184D01*
X146899Y111199D01*
X146784Y111210D01*
X146658Y111215D01*
D02*
G37*
G36*
X148047Y108087D02*
D01*
Y106929D01*
X148041Y106971D01*
X148036Y107018D01*
X148031Y107070D01*
X148021Y107133D01*
X148010Y107201D01*
X147973Y107343D01*
X147947Y107416D01*
X147916Y107490D01*
X147879Y107563D01*
X147842Y107631D01*
X147790Y107699D01*
X147738Y107762D01*
X147732Y107767D01*
X147722Y107778D01*
X147706Y107793D01*
X147685Y107814D01*
X147654Y107835D01*
X147617Y107867D01*
X147575Y107893D01*
X147528Y107924D01*
X147476Y107956D01*
X147413Y107982D01*
X147282Y108034D01*
X147208Y108055D01*
X147130Y108071D01*
X147051Y108082D01*
X146962Y108087D01*
X148047D01*
X146920D01*
X146873Y108082D01*
X146810Y108076D01*
X146737Y108061D01*
X146658Y108045D01*
X146569Y108019D01*
X146480Y107987D01*
X146469Y107982D01*
X146438Y107966D01*
X146391Y107945D01*
X146328Y107909D01*
X146249Y107867D01*
X146166Y107809D01*
X146076Y107741D01*
X145977Y107662D01*
X145966Y107657D01*
X145940Y107631D01*
X145898Y107589D01*
X145841Y107537D01*
X145762Y107463D01*
X145673Y107369D01*
X145563Y107259D01*
X145442Y107128D01*
X145437Y107123D01*
X145427Y107112D01*
X145411Y107091D01*
X145390Y107070D01*
X145327Y107007D01*
X145259Y106929D01*
X145180Y106850D01*
X145102Y106766D01*
X145034Y106698D01*
X145002Y106667D01*
X144976Y106641D01*
X144971Y106635D01*
X144955Y106620D01*
X144929Y106599D01*
X144897Y106567D01*
X144855Y106530D01*
X144814Y106494D01*
X144714Y106415D01*
Y107814D01*
X143996Y107668D01*
Y105215D01*
X148047D01*
Y108087D01*
D02*
G37*
G36*
X145830Y104906D02*
X145070Y104754D01*
Y104906D01*
Y103224D01*
X145830Y103376D01*
Y103224D01*
Y103376D01*
Y104906D01*
D02*
G37*
G36*
X148047Y103083D02*
D01*
Y101925D01*
X148041Y101967D01*
X148036Y102014D01*
X148031Y102066D01*
X148021Y102129D01*
X148010Y102197D01*
X147973Y102339D01*
X147947Y102412D01*
X147916Y102485D01*
X147879Y102559D01*
X147842Y102627D01*
X147790Y102695D01*
X147738Y102758D01*
X147732Y102763D01*
X147722Y102773D01*
X147706Y102789D01*
X147685Y102810D01*
X147654Y102831D01*
X147617Y102863D01*
X147575Y102889D01*
X147528Y102920D01*
X147476Y102952D01*
X147413Y102978D01*
X147282Y103030D01*
X147208Y103051D01*
X147130Y103067D01*
X147051Y103077D01*
X146962Y103083D01*
X148047D01*
X146920D01*
X146873Y103077D01*
X146810Y103072D01*
X146737Y103056D01*
X146658Y103041D01*
X146569Y103015D01*
X146480Y102983D01*
X146469Y102978D01*
X146438Y102962D01*
X146391Y102941D01*
X146328Y102904D01*
X146249Y102863D01*
X146166Y102805D01*
X146076Y102737D01*
X145977Y102658D01*
X145966Y102653D01*
X145940Y102627D01*
X145898Y102585D01*
X145841Y102532D01*
X145762Y102459D01*
X145673Y102365D01*
X145563Y102255D01*
X145442Y102124D01*
X145437Y102118D01*
X145427Y102108D01*
X145411Y102087D01*
X145390Y102066D01*
X145327Y102003D01*
X145259Y101925D01*
X145180Y101846D01*
X145102Y101762D01*
X145034Y101694D01*
X145002Y101663D01*
X144976Y101636D01*
X144971Y101631D01*
X144955Y101615D01*
X144929Y101594D01*
X144897Y101563D01*
X144855Y101526D01*
X144814Y101490D01*
X144714Y101411D01*
Y102810D01*
X143996Y102663D01*
Y100211D01*
X148047D01*
Y103083D01*
D02*
G37*
G36*
Y99608D02*
X143996Y98760D01*
Y99608D01*
Y97408D01*
Y97968D01*
X146784Y98550D01*
Y98545D01*
X146779Y98540D01*
X146768Y98524D01*
X146758Y98508D01*
X146726Y98456D01*
X146684Y98388D01*
X146642Y98304D01*
X146590Y98204D01*
X146543Y98099D01*
X146490Y97979D01*
Y97974D01*
X146485Y97963D01*
X146480Y97947D01*
X146469Y97926D01*
X146449Y97864D01*
X146417Y97790D01*
X146391Y97701D01*
X146359Y97602D01*
X146328Y97502D01*
X146307Y97408D01*
X147009Y97554D01*
Y97560D01*
X147014Y97565D01*
X147020Y97581D01*
X147030Y97602D01*
X147056Y97654D01*
X147088Y97722D01*
X147130Y97806D01*
X147182Y97905D01*
X147240Y98015D01*
X147308Y98131D01*
X147381Y98257D01*
X147460Y98388D01*
X147544Y98519D01*
X147633Y98650D01*
X147732Y98781D01*
X147832Y98901D01*
X147937Y99022D01*
X148047Y99132D01*
Y97408D01*
Y99608D01*
D02*
G37*
%LPD*%
G36*
X146946Y116696D02*
X147009Y116686D01*
X147082Y116675D01*
X147156Y116654D01*
X147224Y116628D01*
X147282Y116591D01*
X147287Y116586D01*
X147303Y116570D01*
X147324Y116549D01*
X147350Y116518D01*
X147376Y116481D01*
X147397Y116434D01*
X147413Y116376D01*
X147418Y116319D01*
Y116308D01*
X147413Y116282D01*
X147407Y116245D01*
X147392Y116193D01*
X147371Y116135D01*
X147334Y116073D01*
X147282Y116010D01*
X147213Y115947D01*
X147208D01*
X147198Y115936D01*
X147182Y115926D01*
X147156Y115905D01*
X147124Y115884D01*
X147082Y115863D01*
X147030Y115837D01*
X146973Y115805D01*
X146910Y115774D01*
X146831Y115743D01*
X146747Y115706D01*
X146653Y115669D01*
X146553Y115638D01*
X146438Y115601D01*
X146312Y115564D01*
X146181Y115533D01*
X146176D01*
X146155Y115528D01*
X146118Y115517D01*
X146076Y115512D01*
X146019Y115501D01*
X145956Y115486D01*
X145888Y115475D01*
X145809Y115460D01*
X145647Y115433D01*
X145474Y115407D01*
X145301Y115391D01*
X145217Y115386D01*
X145139D01*
X145133D01*
X145123D01*
X145107D01*
X145086D01*
X145028Y115391D01*
X144960Y115402D01*
X144887Y115412D01*
X144808Y115428D01*
X144740Y115454D01*
X144683Y115491D01*
X144677Y115496D01*
X144662Y115512D01*
X144641Y115533D01*
X144620Y115564D01*
X144594Y115601D01*
X144572Y115648D01*
X144557Y115700D01*
X144552Y115758D01*
Y115769D01*
X144557Y115795D01*
X144562Y115837D01*
X144578Y115889D01*
X144604Y115952D01*
X144635Y116015D01*
X144688Y116083D01*
X144756Y116151D01*
X144761Y116156D01*
X144772Y116162D01*
X144787Y116172D01*
X144814Y116188D01*
X144845Y116209D01*
X144887Y116235D01*
X144934Y116261D01*
X144992Y116287D01*
X145060Y116319D01*
X145139Y116350D01*
X145228Y116387D01*
X145322Y116424D01*
X145432Y116455D01*
X145552Y116492D01*
X145689Y116528D01*
X145830Y116560D01*
X145835D01*
X145856Y116565D01*
X145893Y116576D01*
X145935Y116581D01*
X145987Y116591D01*
X146050Y116607D01*
X146124Y116618D01*
X146197Y116633D01*
X146359Y116654D01*
X146527Y116680D01*
X146689Y116696D01*
X146768Y116701D01*
X146842D01*
X146847D01*
X146857D01*
X146873D01*
X146894D01*
X146946Y116696D01*
D02*
G37*
G36*
X148047Y114616D02*
X145364D01*
X145406Y114621D01*
X145463D01*
X145526Y114626D01*
X145605Y114632D01*
X145683Y114642D01*
X145778Y114653D01*
X145872Y114668D01*
X145977Y114684D01*
X146082Y114700D01*
X146307Y114752D01*
X146537Y114820D01*
X146548Y114825D01*
X146569Y114831D01*
X146611Y114846D01*
X146663Y114867D01*
X146726Y114888D01*
X146800Y114920D01*
X146878Y114956D01*
X146967Y114993D01*
X147151Y115087D01*
X147339Y115198D01*
X147434Y115260D01*
X147517Y115323D01*
X147601Y115391D01*
X147675Y115465D01*
X147680Y115470D01*
X147690Y115480D01*
X147711Y115507D01*
X147732Y115533D01*
X147758Y115569D01*
X147790Y115617D01*
X147827Y115669D01*
X147863Y115727D01*
X147895Y115790D01*
X147931Y115858D01*
X147989Y116004D01*
X148010Y116088D01*
X148031Y116172D01*
X148041Y116261D01*
X148047Y116350D01*
Y114616D01*
D02*
G37*
G36*
X147041Y113568D02*
X147088Y113557D01*
X147140Y113542D01*
X147193Y113521D01*
X147245Y113495D01*
X147297Y113453D01*
X147303Y113447D01*
X147318Y113432D01*
X147339Y113405D01*
X147365Y113369D01*
X147386Y113327D01*
X147407Y113274D01*
X147423Y113217D01*
X147428Y113149D01*
Y113117D01*
X147423Y113081D01*
X147413Y113039D01*
X147392Y112986D01*
X147365Y112929D01*
X147329Y112871D01*
X147282Y112819D01*
X147276Y112813D01*
X147255Y112798D01*
X147219Y112771D01*
X147166Y112740D01*
X147093Y112708D01*
X147009Y112677D01*
X146899Y112640D01*
X146842Y112630D01*
X146773Y112614D01*
X146889Y111844D01*
X146894D01*
X146915Y111849D01*
X146941Y111854D01*
X146983Y111865D01*
X147030Y111875D01*
X147082Y111891D01*
X147140Y111907D01*
X147208Y111933D01*
X147345Y111991D01*
X147486Y112064D01*
X147559Y112106D01*
X147627Y112158D01*
X147690Y112211D01*
X147748Y112274D01*
X147753Y112279D01*
X147758Y112289D01*
X147774Y112310D01*
X147795Y112336D01*
X147816Y112368D01*
X147842Y112410D01*
X147869Y112457D01*
X147900Y112509D01*
X147926Y112572D01*
X147952Y112635D01*
X147978Y112708D01*
X148000Y112782D01*
X148021Y112866D01*
X148036Y112950D01*
X148041Y113039D01*
X148047Y113133D01*
Y111472D01*
X144012D01*
X144028Y111477D01*
X144049Y111482D01*
X144101Y111493D01*
X144174Y111509D01*
X144263Y111530D01*
X144358Y111561D01*
X144457Y111598D01*
X144557Y111645D01*
X144562D01*
X144567Y111650D01*
X144583Y111661D01*
X144604Y111671D01*
X144656Y111697D01*
X144725Y111739D01*
X144798Y111786D01*
X144882Y111844D01*
X144971Y111907D01*
X145060Y111980D01*
X145065D01*
X145070Y111991D01*
X145086Y112001D01*
X145102Y112022D01*
X145128Y112043D01*
X145159Y112074D01*
X145196Y112111D01*
X145238Y112148D01*
X145290Y112200D01*
X145343Y112253D01*
X145406Y112310D01*
X145474Y112378D01*
X145547Y112457D01*
X145626Y112536D01*
X145710Y112625D01*
X145804Y112724D01*
X145809Y112729D01*
X145820Y112740D01*
X145841Y112761D01*
X145867Y112787D01*
X145898Y112824D01*
X145935Y112860D01*
X146013Y112939D01*
X146103Y113028D01*
X146186Y113112D01*
X146260Y113185D01*
X146286Y113212D01*
X146312Y113238D01*
X146323Y113248D01*
X146349Y113269D01*
X146391Y113301D01*
X146438Y113342D01*
X146496Y113384D01*
X146558Y113426D01*
X146621Y113468D01*
X146684Y113500D01*
X146689Y113505D01*
X146711Y113510D01*
X146742Y113521D01*
X146779Y113536D01*
X146820Y113552D01*
X146868Y113563D01*
X146920Y113568D01*
X146967Y113573D01*
X146978D01*
X147004D01*
X147041Y113568D01*
D02*
G37*
G36*
X146946Y110440D02*
X147009Y110429D01*
X147082Y110419D01*
X147156Y110398D01*
X147224Y110371D01*
X147282Y110335D01*
X147287Y110329D01*
X147303Y110314D01*
X147324Y110293D01*
X147350Y110261D01*
X147376Y110225D01*
X147397Y110178D01*
X147413Y110120D01*
X147418Y110062D01*
Y110052D01*
X147413Y110026D01*
X147407Y109989D01*
X147392Y109936D01*
X147371Y109879D01*
X147334Y109816D01*
X147282Y109753D01*
X147213Y109690D01*
X147208D01*
X147198Y109680D01*
X147182Y109669D01*
X147156Y109648D01*
X147124Y109627D01*
X147082Y109606D01*
X147030Y109580D01*
X146973Y109549D01*
X146910Y109517D01*
X146831Y109486D01*
X146747Y109449D01*
X146653Y109413D01*
X146553Y109381D01*
X146438Y109344D01*
X146312Y109308D01*
X146181Y109276D01*
X146176D01*
X146155Y109271D01*
X146118Y109261D01*
X146076Y109255D01*
X146019Y109245D01*
X145956Y109229D01*
X145888Y109219D01*
X145809Y109203D01*
X145647Y109177D01*
X145474Y109151D01*
X145301Y109135D01*
X145217Y109130D01*
X145139D01*
X145133D01*
X145123D01*
X145107D01*
X145086D01*
X145028Y109135D01*
X144960Y109145D01*
X144887Y109156D01*
X144808Y109171D01*
X144740Y109198D01*
X144683Y109234D01*
X144677Y109240D01*
X144662Y109255D01*
X144641Y109276D01*
X144620Y109308D01*
X144594Y109344D01*
X144572Y109392D01*
X144557Y109444D01*
X144552Y109502D01*
Y109512D01*
X144557Y109538D01*
X144562Y109580D01*
X144578Y109633D01*
X144604Y109695D01*
X144635Y109758D01*
X144688Y109827D01*
X144756Y109895D01*
X144761Y109900D01*
X144772Y109905D01*
X144787Y109916D01*
X144814Y109931D01*
X144845Y109952D01*
X144887Y109978D01*
X144934Y110005D01*
X144992Y110031D01*
X145060Y110062D01*
X145139Y110094D01*
X145228Y110130D01*
X145322Y110167D01*
X145432Y110198D01*
X145552Y110235D01*
X145689Y110272D01*
X145830Y110303D01*
X145835D01*
X145856Y110309D01*
X145893Y110319D01*
X145935Y110324D01*
X145987Y110335D01*
X146050Y110351D01*
X146124Y110361D01*
X146197Y110377D01*
X146359Y110398D01*
X146527Y110424D01*
X146689Y110440D01*
X146768Y110445D01*
X146842D01*
X146847D01*
X146857D01*
X146873D01*
X146894D01*
X146946Y110440D01*
D02*
G37*
G36*
X147041Y107311D02*
X147088Y107301D01*
X147140Y107285D01*
X147193Y107264D01*
X147245Y107238D01*
X147297Y107196D01*
X147303Y107191D01*
X147318Y107175D01*
X147339Y107149D01*
X147365Y107112D01*
X147386Y107070D01*
X147407Y107018D01*
X147423Y106960D01*
X147428Y106892D01*
Y106861D01*
X147423Y106824D01*
X147413Y106782D01*
X147392Y106730D01*
X147365Y106672D01*
X147329Y106614D01*
X147282Y106562D01*
X147276Y106557D01*
X147255Y106541D01*
X147219Y106515D01*
X147166Y106483D01*
X147093Y106452D01*
X147009Y106421D01*
X146899Y106384D01*
X146842Y106373D01*
X146773Y106358D01*
X146889Y105587D01*
X146894D01*
X146915Y105593D01*
X146941Y105598D01*
X146983Y105608D01*
X147030Y105619D01*
X147082Y105634D01*
X147140Y105650D01*
X147208Y105676D01*
X147345Y105734D01*
X147486Y105807D01*
X147559Y105849D01*
X147627Y105902D01*
X147690Y105954D01*
X147748Y106017D01*
X147753Y106022D01*
X147758Y106033D01*
X147774Y106054D01*
X147795Y106080D01*
X147816Y106111D01*
X147842Y106153D01*
X147869Y106200D01*
X147900Y106253D01*
X147926Y106316D01*
X147952Y106379D01*
X147978Y106452D01*
X148000Y106525D01*
X148021Y106609D01*
X148036Y106693D01*
X148041Y106782D01*
X148047Y106876D01*
Y105215D01*
X144012D01*
X144028Y105220D01*
X144049Y105226D01*
X144101Y105236D01*
X144174Y105252D01*
X144263Y105273D01*
X144358Y105304D01*
X144457Y105341D01*
X144557Y105388D01*
X144562D01*
X144567Y105394D01*
X144583Y105404D01*
X144604Y105414D01*
X144656Y105441D01*
X144725Y105482D01*
X144798Y105530D01*
X144882Y105587D01*
X144971Y105650D01*
X145060Y105724D01*
X145065D01*
X145070Y105734D01*
X145086Y105745D01*
X145102Y105765D01*
X145128Y105786D01*
X145159Y105818D01*
X145196Y105855D01*
X145238Y105891D01*
X145290Y105944D01*
X145343Y105996D01*
X145406Y106054D01*
X145474Y106122D01*
X145547Y106200D01*
X145626Y106279D01*
X145710Y106368D01*
X145804Y106468D01*
X145809Y106473D01*
X145820Y106483D01*
X145841Y106504D01*
X145867Y106530D01*
X145898Y106567D01*
X145935Y106604D01*
X146013Y106683D01*
X146103Y106772D01*
X146186Y106855D01*
X146260Y106929D01*
X146286Y106955D01*
X146312Y106981D01*
X146323Y106992D01*
X146349Y107013D01*
X146391Y107044D01*
X146438Y107086D01*
X146496Y107128D01*
X146558Y107170D01*
X146621Y107212D01*
X146684Y107243D01*
X146689Y107248D01*
X146711Y107254D01*
X146742Y107264D01*
X146779Y107280D01*
X146820Y107296D01*
X146868Y107306D01*
X146920Y107311D01*
X146967Y107317D01*
X146978D01*
X147004D01*
X147041Y107311D01*
D02*
G37*
G36*
Y102307D02*
X147088Y102297D01*
X147140Y102281D01*
X147193Y102260D01*
X147245Y102234D01*
X147297Y102192D01*
X147303Y102187D01*
X147318Y102171D01*
X147339Y102145D01*
X147365Y102108D01*
X147386Y102066D01*
X147407Y102014D01*
X147423Y101956D01*
X147428Y101888D01*
Y101856D01*
X147423Y101820D01*
X147413Y101778D01*
X147392Y101725D01*
X147365Y101668D01*
X147329Y101610D01*
X147282Y101558D01*
X147276Y101552D01*
X147255Y101537D01*
X147219Y101511D01*
X147166Y101479D01*
X147093Y101448D01*
X147009Y101416D01*
X146899Y101380D01*
X146842Y101369D01*
X146773Y101353D01*
X146889Y100583D01*
X146894D01*
X146915Y100588D01*
X146941Y100594D01*
X146983Y100604D01*
X147030Y100615D01*
X147082Y100630D01*
X147140Y100646D01*
X147208Y100672D01*
X147345Y100730D01*
X147486Y100803D01*
X147559Y100845D01*
X147627Y100898D01*
X147690Y100950D01*
X147748Y101013D01*
X147753Y101018D01*
X147758Y101029D01*
X147774Y101049D01*
X147795Y101076D01*
X147816Y101107D01*
X147842Y101149D01*
X147869Y101196D01*
X147900Y101249D01*
X147926Y101312D01*
X147952Y101374D01*
X147978Y101448D01*
X148000Y101521D01*
X148021Y101605D01*
X148036Y101689D01*
X148041Y101778D01*
X148047Y101872D01*
Y100211D01*
X144012D01*
X144028Y100216D01*
X144049Y100222D01*
X144101Y100232D01*
X144174Y100248D01*
X144263Y100269D01*
X144358Y100300D01*
X144457Y100337D01*
X144557Y100384D01*
X144562D01*
X144567Y100389D01*
X144583Y100400D01*
X144604Y100410D01*
X144656Y100436D01*
X144725Y100478D01*
X144798Y100525D01*
X144882Y100583D01*
X144971Y100646D01*
X145060Y100719D01*
X145065D01*
X145070Y100730D01*
X145086Y100740D01*
X145102Y100761D01*
X145128Y100782D01*
X145159Y100814D01*
X145196Y100850D01*
X145238Y100887D01*
X145290Y100939D01*
X145343Y100992D01*
X145406Y101049D01*
X145474Y101118D01*
X145547Y101196D01*
X145626Y101275D01*
X145710Y101364D01*
X145804Y101463D01*
X145809Y101469D01*
X145820Y101479D01*
X145841Y101500D01*
X145867Y101526D01*
X145898Y101563D01*
X145935Y101600D01*
X146013Y101678D01*
X146103Y101767D01*
X146186Y101851D01*
X146260Y101925D01*
X146286Y101951D01*
X146312Y101977D01*
X146323Y101988D01*
X146349Y102008D01*
X146391Y102040D01*
X146438Y102082D01*
X146496Y102124D01*
X146558Y102166D01*
X146621Y102208D01*
X146684Y102239D01*
X146689Y102244D01*
X146711Y102250D01*
X146742Y102260D01*
X146779Y102276D01*
X146820Y102291D01*
X146868Y102302D01*
X146920Y102307D01*
X146967Y102312D01*
X146978D01*
X147004D01*
X147041Y102307D01*
D02*
G37*
%LPC*%
G36*
X136193Y111988D02*
X134481D01*
Y110834D01*
X136193Y111988D01*
D02*
G37*
G36*
X106480Y98813D02*
X106454D01*
X106435D01*
X106428D01*
X106231Y98800D01*
X106067Y98774D01*
X105923Y98728D01*
X105805Y98682D01*
X105706Y98636D01*
X105674Y98610D01*
X105641Y98590D01*
X105621Y98577D01*
X105601Y98564D01*
X105595Y98551D01*
X105588D01*
X105536Y98505D01*
X105496Y98452D01*
X105424Y98347D01*
X105372Y98242D01*
X105339Y98137D01*
X105313Y98052D01*
X105306Y97987D01*
X105300Y97960D01*
Y97921D01*
X105306Y97849D01*
X105313Y97783D01*
X105346Y97658D01*
X105392Y97553D01*
X105444Y97462D01*
X105496Y97383D01*
X105542Y97330D01*
X105575Y97298D01*
X105588Y97285D01*
X105706Y97199D01*
X105838Y97134D01*
X105982Y97094D01*
X106113Y97062D01*
X106231Y97042D01*
X106284Y97035D01*
X106330D01*
X106369Y97029D01*
X106395D01*
X106415D01*
X106421D01*
X106612Y97042D01*
X106782Y97068D01*
X106927Y97107D01*
X107045Y97160D01*
X107136Y97206D01*
X107169Y97225D01*
X107202Y97245D01*
X107222Y97258D01*
X107241Y97271D01*
X107255Y97285D01*
X107307Y97337D01*
X107353Y97383D01*
X107425Y97495D01*
X107477Y97599D01*
X107510Y97698D01*
X107537Y97790D01*
X107543Y97855D01*
X107550Y97882D01*
Y97993D01*
X107537Y98059D01*
X107504Y98177D01*
X107458Y98282D01*
X107405Y98374D01*
X107346Y98452D01*
X107300Y98505D01*
X107268Y98537D01*
X107261Y98551D01*
X107255D01*
X107136Y98636D01*
X107005Y98702D01*
X106868Y98747D01*
X106736Y98780D01*
X106612Y98800D01*
X106559Y98807D01*
X106520D01*
X106480Y98813D01*
D02*
G37*
G36*
X113455Y111934D02*
X113422D01*
X113343Y111927D01*
X113271Y111908D01*
X113212Y111881D01*
X113160Y111855D01*
X113114Y111829D01*
X113081Y111803D01*
X113061Y111783D01*
X113055Y111776D01*
X113002Y111717D01*
X112963Y111658D01*
X112937Y111593D01*
X112917Y111534D01*
X112904Y111488D01*
X112897Y111448D01*
Y111416D01*
Y111409D01*
X112904Y111330D01*
X112924Y111258D01*
X112950Y111199D01*
X112976Y111147D01*
X113002Y111101D01*
X113028Y111068D01*
X113048Y111048D01*
X113055Y111042D01*
X113114Y110989D01*
X113173Y110956D01*
X113238Y110930D01*
X113297Y110910D01*
X113343Y110897D01*
X113383Y110891D01*
X113422D01*
X113501Y110897D01*
X113573Y110917D01*
X113632Y110937D01*
X113684Y110969D01*
X113730Y110996D01*
X113763Y111015D01*
X113783Y111035D01*
X113789Y111042D01*
X113842Y111101D01*
X113875Y111160D01*
X113901Y111225D01*
X113921Y111284D01*
X113934Y111330D01*
X113940Y111376D01*
Y111402D01*
Y111409D01*
X113934Y111488D01*
X113914Y111560D01*
X113894Y111619D01*
X113862Y111671D01*
X113835Y111717D01*
X113816Y111750D01*
X113796Y111770D01*
X113789Y111776D01*
X113730Y111829D01*
X113671Y111868D01*
X113606Y111895D01*
X113547Y111914D01*
X113501Y111927D01*
X113455Y111934D01*
D02*
G37*
G36*
X120756Y111671D02*
X120710D01*
X120612Y111665D01*
X120527Y111645D01*
X120454Y111619D01*
X120395Y111593D01*
X120343Y111560D01*
X120310Y111534D01*
X120284Y111514D01*
X120277Y111507D01*
X120218Y111442D01*
X120179Y111370D01*
X120146Y111298D01*
X120126Y111225D01*
X120113Y111166D01*
X120107Y111114D01*
Y111081D01*
Y111068D01*
X120113Y110963D01*
X120133Y110878D01*
X120159Y110799D01*
X120192Y110733D01*
X120225Y110681D01*
X120251Y110648D01*
X120271Y110622D01*
X120277Y110615D01*
X120343Y110563D01*
X120415Y110523D01*
X120487Y110497D01*
X120559Y110477D01*
X120625Y110464D01*
X120677Y110458D01*
X120723D01*
X120822Y110464D01*
X120907Y110484D01*
X120979Y110510D01*
X121038Y110537D01*
X121091Y110563D01*
X121124Y110589D01*
X121150Y110609D01*
X121156Y110615D01*
X121209Y110681D01*
X121248Y110753D01*
X121281Y110832D01*
X121301Y110904D01*
X121314Y110969D01*
X121320Y111022D01*
Y111055D01*
Y111068D01*
X121314Y111166D01*
X121294Y111252D01*
X121268Y111324D01*
X121235Y111383D01*
X121209Y111435D01*
X121183Y111468D01*
X121163Y111494D01*
X121156Y111501D01*
X121091Y111560D01*
X121019Y111599D01*
X120940Y111632D01*
X120874Y111652D01*
X120809Y111665D01*
X120756Y111671D01*
D02*
G37*
G36*
X120736Y109690D02*
X120704D01*
X120592Y109684D01*
X120494Y109658D01*
X120408Y109618D01*
X120336Y109579D01*
X120277Y109539D01*
X120231Y109500D01*
X120205Y109474D01*
X120199Y109467D01*
X120133Y109382D01*
X120080Y109290D01*
X120048Y109192D01*
X120021Y109100D01*
X120008Y109021D01*
X119995Y108956D01*
Y108929D01*
Y108910D01*
Y108903D01*
Y108897D01*
X120002Y108752D01*
X120028Y108628D01*
X120054Y108523D01*
X120094Y108431D01*
X120126Y108365D01*
X120159Y108313D01*
X120185Y108286D01*
X120192Y108273D01*
X120271Y108201D01*
X120349Y108149D01*
X120435Y108109D01*
X120513Y108083D01*
X120586Y108070D01*
X120638Y108063D01*
X120677Y108057D01*
X120691D01*
X120802Y108063D01*
X120900Y108090D01*
X120986Y108129D01*
X121064Y108168D01*
X121124Y108208D01*
X121163Y108247D01*
X121196Y108273D01*
X121202Y108280D01*
X121268Y108372D01*
X121320Y108470D01*
X121353Y108575D01*
X121379Y108680D01*
X121392Y108772D01*
X121399Y108844D01*
X121405Y108870D01*
Y108890D01*
Y108903D01*
Y108910D01*
X121399Y109015D01*
X121379Y109113D01*
X121353Y109205D01*
X121320Y109284D01*
X121287Y109349D01*
X121261Y109395D01*
X121241Y109428D01*
X121235Y109441D01*
X121163Y109526D01*
X121078Y109585D01*
X120986Y109631D01*
X120900Y109658D01*
X120822Y109677D01*
X120763Y109684D01*
X120736Y109690D01*
D02*
G37*
G36*
X116827Y111639D02*
X116794D01*
X116728Y111632D01*
X116669Y111619D01*
X116617Y111599D01*
X116571Y111580D01*
X116538Y111560D01*
X116512Y111540D01*
X116492Y111527D01*
X116486Y111521D01*
X116433Y111468D01*
X116394Y111402D01*
X116354Y111330D01*
X116322Y111258D01*
X116295Y111186D01*
X116269Y111127D01*
X116262Y111088D01*
X116256Y111081D01*
Y111074D01*
X116243Y111009D01*
X116223Y110930D01*
X116210Y110838D01*
X116203Y110747D01*
X116184Y110543D01*
X116177Y110340D01*
X116171Y110248D01*
Y110156D01*
X116164Y110071D01*
Y109999D01*
Y109940D01*
Y109894D01*
Y109868D01*
Y109854D01*
Y109690D01*
X116171Y109546D01*
Y109408D01*
X116177Y109284D01*
X116190Y109166D01*
X116197Y109061D01*
X116203Y108969D01*
X116217Y108890D01*
X116223Y108818D01*
X116236Y108752D01*
X116243Y108700D01*
X116249Y108660D01*
X116256Y108628D01*
X116262Y108608D01*
X116269Y108595D01*
Y108588D01*
X116302Y108490D01*
X116335Y108405D01*
X116367Y108332D01*
X116400Y108280D01*
X116433Y108241D01*
X116459Y108208D01*
X116472Y108195D01*
X116479Y108188D01*
X116531Y108149D01*
X116584Y108123D01*
X116636Y108103D01*
X116689Y108090D01*
X116728Y108083D01*
X116761Y108077D01*
X116794D01*
X116859Y108083D01*
X116919Y108096D01*
X116971Y108109D01*
X117017Y108129D01*
X117056Y108149D01*
X117083Y108168D01*
X117102Y108175D01*
X117109Y108182D01*
X117155Y108234D01*
X117201Y108300D01*
X117240Y108372D01*
X117266Y108444D01*
X117292Y108516D01*
X117312Y108575D01*
X117325Y108615D01*
X117332Y108621D01*
Y108628D01*
X117345Y108700D01*
X117358Y108779D01*
X117371Y108864D01*
X117378Y108962D01*
X117397Y109166D01*
X117404Y109369D01*
X117411Y109461D01*
Y109553D01*
X117417Y109638D01*
Y109710D01*
Y109769D01*
Y109815D01*
Y109841D01*
Y109854D01*
Y110018D01*
X117411Y110163D01*
Y110300D01*
X117404Y110432D01*
X117391Y110543D01*
X117384Y110648D01*
X117378Y110740D01*
X117365Y110825D01*
X117358Y110891D01*
X117351Y110956D01*
X117338Y111009D01*
X117332Y111048D01*
X117325Y111081D01*
Y111101D01*
X117319Y111114D01*
Y111120D01*
X117286Y111219D01*
X117253Y111304D01*
X117220Y111376D01*
X117187Y111429D01*
X117155Y111468D01*
X117128Y111501D01*
X117115Y111514D01*
X117109Y111521D01*
X117056Y111560D01*
X117004Y111586D01*
X116951Y111612D01*
X116899Y111626D01*
X116859Y111632D01*
X116827Y111639D01*
D02*
G37*
G36*
X107920Y121104D02*
X107887D01*
X107880D01*
X107802Y121097D01*
X107730Y121078D01*
X107671Y121051D01*
X107618Y121025D01*
X107572Y120999D01*
X107539Y120973D01*
X107520Y120953D01*
X107513Y120946D01*
X107461Y120887D01*
X107428Y120828D01*
X107402Y120763D01*
X107382Y120704D01*
X107369Y120658D01*
X107362Y120618D01*
Y120579D01*
X107369Y120500D01*
X107388Y120428D01*
X107408Y120369D01*
X107441Y120317D01*
X107467Y120271D01*
X107487Y120238D01*
X107507Y120218D01*
X107513Y120212D01*
X107572Y120159D01*
X107631Y120126D01*
X107697Y120100D01*
X107756Y120080D01*
X107802Y120067D01*
X107848Y120061D01*
X107874D01*
X107880D01*
X107959Y120067D01*
X108031Y120087D01*
X108090Y120107D01*
X108143Y120139D01*
X108189Y120166D01*
X108222Y120185D01*
X108241Y120205D01*
X108248Y120212D01*
X108300Y120271D01*
X108340Y120330D01*
X108366Y120395D01*
X108386Y120454D01*
X108399Y120500D01*
X108405Y120546D01*
Y120579D01*
X108399Y120658D01*
X108379Y120730D01*
X108353Y120789D01*
X108327Y120841D01*
X108300Y120887D01*
X108274Y120920D01*
X108254Y120940D01*
X108248Y120946D01*
X108189Y120999D01*
X108130Y121038D01*
X108064Y121064D01*
X108005Y121084D01*
X107959Y121097D01*
X107920Y121104D01*
D02*
G37*
G36*
X107198Y117784D02*
X107166D01*
X107139D01*
X107126D01*
X107120D01*
X106969Y117778D01*
X106837Y117752D01*
X106719Y117725D01*
X106628Y117686D01*
X106555Y117653D01*
X106503Y117620D01*
X106477Y117594D01*
X106464Y117588D01*
X106391Y117515D01*
X106339Y117437D01*
X106299Y117358D01*
X106273Y117286D01*
X106260Y117220D01*
X106254Y117168D01*
X106247Y117135D01*
Y117122D01*
X106260Y117017D01*
X106286Y116925D01*
X106319Y116846D01*
X106365Y116774D01*
X106404Y116722D01*
X106444Y116676D01*
X106470Y116649D01*
X106477Y116643D01*
X106575Y116577D01*
X106687Y116531D01*
X106805Y116499D01*
X106923Y116479D01*
X107028Y116466D01*
X107080Y116459D01*
X107120Y116453D01*
X107152D01*
X107179D01*
X107192D01*
X107198D01*
X107369Y116459D01*
X107513Y116479D01*
X107631Y116505D01*
X107730Y116538D01*
X107802Y116571D01*
X107854Y116597D01*
X107887Y116617D01*
X107894Y116623D01*
X107966Y116695D01*
X108018Y116768D01*
X108058Y116840D01*
X108084Y116912D01*
X108097Y116978D01*
X108110Y117023D01*
Y117069D01*
X108097Y117174D01*
X108071Y117266D01*
X108025Y117351D01*
X107979Y117424D01*
X107933Y117483D01*
X107887Y117528D01*
X107861Y117561D01*
X107848Y117568D01*
X107743Y117640D01*
X107625Y117693D01*
X107500Y117732D01*
X107388Y117758D01*
X107283Y117771D01*
X107238Y117778D01*
X107198Y117784D01*
D02*
G37*
%LPD*%
D13*
X108980Y108948D02*
X109943Y107985D01*
X110905Y108948D01*
X108980D02*
X110905D01*
X125947Y107293D02*
X126909Y106330D01*
X111057Y106268D02*
X125947D01*
Y105367D02*
X126909Y106330D01*
X125947Y105367D02*
Y107293D01*
X112020Y105305D02*
Y107231D01*
X111057Y106268D02*
X112020Y105305D01*
X111057Y106268D02*
X112020Y107231D01*
X109943Y125063D02*
X110905Y124100D01*
X108980D02*
X109943Y125063D01*
X108980Y124100D02*
X110905D01*
X109943Y107985D02*
Y124100D01*
D65*
X227208Y199293D02*
Y197247D01*
X226185Y196224D01*
X225161Y197247D01*
Y199293D01*
X224138Y195712D02*
X222092D01*
X221068Y199293D02*
Y196224D01*
X219533D01*
X219022Y196735D01*
Y198782D01*
X219533Y199293D01*
X221068D01*
X217998Y196224D02*
Y198270D01*
X216975Y199293D01*
X215952Y198270D01*
Y196224D01*
Y197758D01*
X217998D01*
X212882Y198782D02*
X213393Y199293D01*
X214417D01*
X214928Y198782D01*
Y196735D01*
X214417Y196224D01*
X213393D01*
X212882Y196735D01*
X211859Y195712D02*
X209812D01*
X208789Y196224D02*
X207765D01*
X208277D01*
Y199293D01*
X208789Y198782D01*
X41979Y189398D02*
X42635Y190054D01*
Y191366D01*
X41979Y192021D01*
X41323D01*
X40667Y191366D01*
Y190709D01*
Y191366D01*
X40011Y192021D01*
X39355D01*
X38699Y191366D01*
Y190054D01*
X39355Y189398D01*
X227008Y180051D02*
Y177427D01*
X225696Y176115D01*
X224384Y177427D01*
Y180051D01*
X223072Y175459D02*
X220448D01*
X219137Y176115D02*
Y180051D01*
X217169D01*
X216513Y179395D01*
Y178083D01*
X217169Y177427D01*
X219137D01*
X215201Y180051D02*
X212577D01*
X213889D01*
Y176115D01*
X211265D02*
Y178739D01*
X209953Y180051D01*
X208641Y178739D01*
Y176115D01*
Y178083D01*
X211265D01*
X207329Y180051D02*
X204705D01*
X206017D01*
Y176115D01*
X203394Y175459D02*
X200770D01*
X196834Y179395D02*
X197490Y180051D01*
X198802D01*
X199458Y179395D01*
Y178739D01*
X198802Y178083D01*
X197490D01*
X196834Y177427D01*
Y176771D01*
X197490Y176115D01*
X198802D01*
X199458Y176771D01*
X192898Y176115D02*
X193554Y176771D01*
X194210Y176115D01*
X194866D01*
X195522Y176771D01*
Y177427D01*
X194866Y178083D01*
X195522Y178739D01*
Y179395D01*
X194866Y180051D01*
X194210D01*
X193554Y179395D01*
Y178739D01*
X194210Y178083D01*
X193554Y177427D01*
Y176771D01*
X192898Y178083D02*
X193554Y177427D01*
X194866Y178083D02*
X194210D01*
X191586Y180051D02*
Y176115D01*
Y178083D01*
X188962D01*
Y180051D01*
Y176115D01*
X187651Y175459D02*
X185027D01*
X181091Y180051D02*
X183715D01*
Y176115D01*
X181091D01*
X183715Y178083D02*
X182403D01*
X179779Y176115D02*
Y180051D01*
X177155Y176115D01*
Y180051D01*
X227008Y189959D02*
Y186024D01*
X225040D01*
X224384Y186679D01*
Y187336D01*
X225040Y187991D01*
X227008D01*
X225040D01*
X224384Y188647D01*
Y189303D01*
X225040Y189959D01*
X227008D01*
X223072D02*
Y186024D01*
X221104D01*
X220448Y186679D01*
Y187336D01*
X221104Y187991D01*
X223072D01*
X221104D01*
X220448Y188647D01*
Y189303D01*
X221104Y189959D01*
X223072D01*
X219137Y186024D02*
X217825D01*
X218480D01*
Y189959D01*
X219137Y189303D01*
X215857Y185368D02*
X213233D01*
X209297Y189959D02*
X211921D01*
Y186024D01*
X209297D01*
X211921Y187991D02*
X210609D01*
X207985Y186024D02*
Y189959D01*
X205361Y186024D01*
Y189959D01*
X187977Y185695D02*
X188633Y185039D01*
Y183727D01*
X187977Y183071D01*
X187321D01*
X186665Y183727D01*
Y185039D01*
X186009Y185695D01*
X185353D01*
X184697Y185039D01*
Y183727D01*
X185353Y183071D01*
X187977Y189630D02*
X188633Y188974D01*
Y187662D01*
X187977Y187007D01*
X185353D01*
X184697Y187662D01*
Y188974D01*
X185353Y189630D01*
X188633Y190942D02*
X184697D01*
Y193566D01*
X178077Y185695D02*
X178733Y185039D01*
Y183727D01*
X178077Y183071D01*
X177421D01*
X176766Y183727D01*
Y185039D01*
X176110Y185695D01*
X175454D01*
X174798Y185039D01*
Y183727D01*
X175454Y183071D01*
X178733Y187007D02*
X174798D01*
Y188974D01*
X175454Y189630D01*
X178077D01*
X178733Y188974D01*
Y187007D01*
X174798Y190942D02*
X177421D01*
X178733Y192254D01*
X177421Y193566D01*
X174798D01*
X176766D01*
Y190942D01*
X164298Y181496D02*
X166921D01*
X168233Y182808D01*
X166921Y184120D01*
X164298D01*
X166266D01*
Y181496D01*
X164298Y185432D02*
X168233D01*
Y187400D01*
X167578Y188056D01*
X166266D01*
X165610Y187400D01*
Y185432D01*
Y186744D02*
X164298Y188056D01*
X168233Y191991D02*
Y189367D01*
X164298D01*
Y191991D01*
X166266Y189367D02*
Y190679D01*
X168233Y195927D02*
Y193303D01*
X166266D01*
Y194615D01*
Y193303D01*
X164298D01*
X157578Y185695D02*
X158233Y185039D01*
Y183727D01*
X157578Y183071D01*
X154954D01*
X154298Y183727D01*
Y185039D01*
X154954Y185695D01*
X156266D01*
Y184383D01*
X154298Y187007D02*
X158233D01*
X154298Y189630D01*
X158233D01*
Y190942D02*
X154298D01*
Y192910D01*
X154954Y193566D01*
X157578D01*
X158233Y192910D01*
Y190942D01*
X124698Y186898D02*
Y188210D01*
Y187554D01*
X128633D01*
X127978Y186898D01*
X124698Y190178D02*
Y191490D01*
Y190834D01*
X128633D01*
X127978Y190178D01*
X114598Y186398D02*
Y187710D01*
Y187054D01*
X118533D01*
X117877Y186398D01*
Y189678D02*
X118533Y190334D01*
Y191646D01*
X117877Y192302D01*
X115254D01*
X114598Y191646D01*
Y190334D01*
X115254Y189678D01*
X117877D01*
X105254Y189398D02*
X104598Y190054D01*
Y191366D01*
X105254Y192022D01*
X107878D01*
X108533Y191366D01*
Y190054D01*
X107878Y189398D01*
X107221D01*
X106566Y190054D01*
Y192022D01*
X72635Y192021D02*
X71979Y190709D01*
X70667Y189398D01*
X69355D01*
X68699Y190054D01*
Y191366D01*
X69355Y192021D01*
X70011D01*
X70667Y191366D01*
Y189398D01*
X62635Y192021D02*
Y189398D01*
X60667D01*
X61323Y190709D01*
Y191366D01*
X60667Y192021D01*
X59355D01*
X58699Y191366D01*
Y190054D01*
X59355Y189398D01*
X238896Y124662D02*
Y122039D01*
X237584Y120727D01*
X236272Y122039D01*
Y124662D01*
X232336Y124006D02*
X232993Y124662D01*
X234304D01*
X234960Y124006D01*
Y121383D01*
X234304Y120727D01*
X232993D01*
X232336Y121383D01*
X228401Y124006D02*
X229057Y124662D01*
X230369D01*
X231025Y124006D01*
Y121383D01*
X230369Y120727D01*
X229057D01*
X228401Y121383D01*
X227089Y120071D02*
X224465D01*
X223153Y120727D02*
Y124662D01*
X221185D01*
X220529Y124006D01*
Y122695D01*
X221185Y122039D01*
X223153D01*
X219217Y124662D02*
X216594D01*
X217905D01*
Y120727D01*
X215282D02*
Y123351D01*
X213970Y124662D01*
X212658Y123351D01*
Y120727D01*
Y122695D01*
X215282D01*
X211346Y124662D02*
X208722D01*
X210034D01*
Y120727D01*
X238896Y114137D02*
X236272D01*
X237584D01*
Y110201D01*
X234960Y114137D02*
X232336Y110201D01*
Y114137D02*
X234960Y110201D01*
X231025Y109545D02*
X228401D01*
X224465Y114137D02*
X227089D01*
Y110201D01*
X224465D01*
X227089Y112169D02*
X225777D01*
X223153Y110201D02*
Y114137D01*
X220529Y110201D01*
Y114137D01*
X238896Y104210D02*
Y101587D01*
X237584Y100275D01*
X236272Y101587D01*
Y104210D01*
X232336Y103555D02*
X232993Y104210D01*
X234304D01*
X234960Y103555D01*
Y100931D01*
X234304Y100275D01*
X232993D01*
X232336Y100931D01*
X228401Y103555D02*
X229057Y104210D01*
X230369D01*
X231025Y103555D01*
Y100931D01*
X230369Y100275D01*
X229057D01*
X228401Y100931D01*
X227089Y99619D02*
X224465D01*
X223153Y104210D02*
Y100275D01*
X221185D01*
X220529Y100931D01*
Y101587D01*
X221185Y102243D01*
X223153D01*
X221185D01*
X220529Y102899D01*
Y103555D01*
X221185Y104210D01*
X223153D01*
X216594Y103555D02*
X217249Y104210D01*
X218562D01*
X219217Y103555D01*
Y100931D01*
X218562Y100275D01*
X217249D01*
X216594Y100931D01*
Y102243D01*
X217905D01*
X215282Y104210D02*
X212658D01*
X213970D01*
Y100275D01*
X211346Y99619D02*
X208722D01*
X204786Y104210D02*
X207410D01*
Y100275D01*
X204786D01*
X207410Y102243D02*
X206098D01*
X203474Y100275D02*
Y104210D01*
X200851Y100275D01*
Y104210D01*
X236272Y93720D02*
X236928Y94376D01*
X238240D01*
X238896Y93720D01*
Y91096D01*
X238240Y90440D01*
X236928D01*
X236272Y91096D01*
Y92408D01*
X237584D01*
X234960Y90440D02*
Y94376D01*
X232336Y90440D01*
Y94376D01*
X231025D02*
Y90440D01*
X229057D01*
X228401Y91096D01*
Y93720D01*
X229057Y94376D01*
X231025D01*
X238896Y83173D02*
X237584D01*
X238240D01*
Y79238D01*
X238896D01*
X237584D01*
X232993Y83173D02*
X235616D01*
Y81205D01*
X234304D01*
X235616D01*
Y79238D01*
X231681Y83173D02*
X230369D01*
X231025D01*
Y79238D01*
X231681D01*
X230369D01*
X228401Y78582D02*
X225777D01*
X224465Y83173D02*
Y79238D01*
Y81205D01*
X221841D01*
Y83173D01*
Y79238D01*
X217905Y82517D02*
X218562Y83173D01*
X219873D01*
X220529Y82517D01*
Y79893D01*
X219873Y79238D01*
X218562D01*
X217905Y79893D01*
Y81205D01*
X219217D01*
X238896Y73270D02*
X237584D01*
X238240D01*
Y69334D01*
X238896D01*
X237584D01*
X232993Y73270D02*
X235616D01*
Y71302D01*
X234304D01*
X235616D01*
Y69334D01*
X229057Y69990D02*
Y72614D01*
X229713Y73270D01*
X231025D01*
X231681Y72614D01*
Y69990D01*
X231025Y69334D01*
X229713D01*
X230369Y70646D02*
X229057Y69334D01*
X229713D02*
X229057Y69990D01*
X227745Y68678D02*
X225121D01*
X223809Y73270D02*
Y69334D01*
Y71302D01*
X221185D01*
Y73270D01*
Y69334D01*
X217249Y72614D02*
X217905Y73270D01*
X219217D01*
X219873Y72614D01*
Y69990D01*
X219217Y69334D01*
X217905D01*
X217249Y69990D01*
Y71302D01*
X218562D01*
X238898Y62734D02*
X237586D01*
X238242D01*
Y58798D01*
X238898D01*
X237586D01*
X232994Y62734D02*
X235618D01*
Y60766D01*
X234306D01*
X235618D01*
Y58798D01*
X231682Y58142D02*
X229058D01*
X225123Y62078D02*
X225779Y62734D01*
X227091D01*
X227747Y62078D01*
Y61422D01*
X227091Y60766D01*
X225779D01*
X225123Y60110D01*
Y59454D01*
X225779Y58798D01*
X227091D01*
X227747Y59454D01*
X221187Y58798D02*
X221843Y59454D01*
X222499Y58798D01*
X223155D01*
X223811Y59454D01*
Y60110D01*
X223155Y60766D01*
X223811Y61422D01*
Y62078D01*
X223155Y62734D01*
X222499D01*
X221843Y62078D01*
Y61422D01*
X222499Y60766D01*
X221843Y60110D01*
Y59454D01*
X221187Y60766D02*
X221843Y60110D01*
X223155Y60766D02*
X222499D01*
X219875Y62734D02*
Y58798D01*
Y60766D01*
X217251D01*
Y62734D01*
Y58798D01*
X215939Y58142D02*
X213315D01*
X209380Y62734D02*
X212003D01*
Y58798D01*
X209380D01*
X212003Y60766D02*
X210692D01*
X208068Y58798D02*
Y62734D01*
X205444Y58798D01*
Y62734D01*
X238898Y53034D02*
Y50410D01*
X237586Y49098D01*
X236274Y50410D01*
Y53034D01*
X232338Y52378D02*
X232994Y53034D01*
X234306D01*
X234962Y52378D01*
Y49754D01*
X234306Y49098D01*
X232994D01*
X232338Y49754D01*
X228402Y52378D02*
X229058Y53034D01*
X230370D01*
X231026Y52378D01*
Y49754D01*
X230370Y49098D01*
X229058D01*
X228402Y49754D01*
X227091Y48442D02*
X224467D01*
X223155Y53034D02*
Y49098D01*
X221187D01*
X220531Y49754D01*
Y52378D01*
X221187Y53034D01*
X223155D01*
X219219D02*
X217907D01*
X218563D01*
Y49098D01*
X219219D01*
X217907D01*
X215939Y53034D02*
Y50410D01*
X214627Y49098D01*
X213315Y50410D01*
Y53034D01*
X212003Y48442D02*
X209380D01*
X205444Y53034D02*
X208068D01*
Y49098D01*
X205444D01*
X208068Y51066D02*
X206756D01*
X204132Y49098D02*
Y53034D01*
X201508Y49098D01*
Y53034D01*
X92378Y20222D02*
X93033Y19566D01*
Y18254D01*
X92378Y17598D01*
X89754D01*
X89098Y18254D01*
Y19566D01*
X89754Y20222D01*
X91066D01*
Y18910D01*
X89098Y21534D02*
X93033D01*
X89098Y24158D01*
X93033D01*
Y25470D02*
X89098D01*
Y27438D01*
X89754Y28094D01*
X92378D01*
X93033Y27438D01*
Y25470D01*
X102077Y20322D02*
X102733Y19666D01*
Y18354D01*
X102077Y17698D01*
X99454D01*
X98798Y18354D01*
Y19666D01*
X99454Y20322D01*
X100766D01*
Y19010D01*
X98798Y21634D02*
X102733D01*
X98798Y24258D01*
X102733D01*
Y25570D02*
X98798D01*
Y27538D01*
X99454Y28194D01*
X102077D01*
X102733Y27538D01*
Y25570D01*
X112833Y20479D02*
Y17855D01*
X110866D01*
X111521Y19167D01*
Y19823D01*
X110866Y20479D01*
X109554D01*
X108898Y19823D01*
Y18511D01*
X109554Y17855D01*
X112833Y21791D02*
X110210D01*
X108898Y23103D01*
X110210Y24415D01*
X112833D01*
X122078Y17598D02*
X122733Y18254D01*
Y19566D01*
X122078Y20222D01*
X121422D01*
X120766Y19566D01*
Y18910D01*
Y19566D01*
X120110Y20222D01*
X119454D01*
X118798Y19566D01*
Y18254D01*
X119454Y17598D01*
X118798Y21534D02*
X119454D01*
Y22190D01*
X118798D01*
Y21534D01*
X122078Y24814D02*
X122733Y25470D01*
Y26782D01*
X122078Y27438D01*
X121422D01*
X120766Y26782D01*
Y26126D01*
Y26782D01*
X120110Y27438D01*
X119454D01*
X118798Y26782D01*
Y25470D01*
X119454Y24814D01*
X122733Y28750D02*
X120110D01*
X118798Y30062D01*
X120110Y31374D01*
X122733D01*
X142833Y17298D02*
Y18610D01*
Y17954D01*
X138898D01*
Y17298D01*
Y18610D01*
X142833Y22546D02*
Y21234D01*
X142177Y20578D01*
X139554D01*
X138898Y21234D01*
Y22546D01*
X139554Y23202D01*
X142177D01*
X142833Y22546D01*
X138898Y24514D02*
X142833D01*
Y26482D01*
X142177Y27138D01*
X140866D01*
X140210Y26482D01*
Y24514D01*
Y25826D02*
X138898Y27138D01*
X142833Y31073D02*
Y28450D01*
X138898D01*
Y31073D01*
X140866Y28450D02*
Y29762D01*
X142833Y35009D02*
Y32385D01*
X140866D01*
Y33697D01*
Y32385D01*
X138898D01*
X58598Y16698D02*
X61221D01*
X62533Y18010D01*
X61221Y19322D01*
X58598D01*
X60566D01*
Y16698D01*
X61878Y20634D02*
X62533Y21290D01*
Y22602D01*
X61878Y23258D01*
X59254D01*
X58598Y22602D01*
Y21290D01*
X59254Y20634D01*
X61878D01*
X49337Y16697D02*
X51961D01*
X53273Y18009D01*
X51961Y19321D01*
X49337D01*
X51305D01*
Y16697D01*
X49337Y20633D02*
Y21945D01*
Y21289D01*
X53273D01*
X52617Y20633D01*
X38991Y16697D02*
X41615D01*
X42927Y18009D01*
X41615Y19321D01*
X38991D01*
X40959D01*
Y16697D01*
X38991Y23256D02*
Y20633D01*
X41615Y23256D01*
X42271D01*
X42927Y22600D01*
Y21289D01*
X42271Y20633D01*
X29198Y16697D02*
X31822D01*
X33133Y18009D01*
X31822Y19321D01*
X29198D01*
X31166D01*
Y16697D01*
X32478Y20633D02*
X33133Y21289D01*
Y22600D01*
X32478Y23256D01*
X31822D01*
X31166Y22600D01*
Y21945D01*
Y22600D01*
X30510Y23256D01*
X29854D01*
X29198Y22600D01*
Y21289D01*
X29854Y20633D01*
X18847Y16697D02*
X21471D01*
X22783Y18009D01*
X21471Y19321D01*
X18847D01*
X20815D01*
Y16697D01*
X18847Y22600D02*
X22783D01*
X20815Y20633D01*
Y23256D01*
X9098Y16697D02*
X11722D01*
X13033Y18009D01*
X11722Y19321D01*
X9098D01*
X11066D01*
Y16697D01*
X13033Y23256D02*
Y20633D01*
X11066D01*
X11722Y21945D01*
Y22600D01*
X11066Y23256D01*
X9754D01*
X9098Y22600D01*
Y21289D01*
X9754Y20633D01*
X148760Y34488D02*
Y37112D01*
Y35800D01*
X144825D01*
Y38424D02*
X148760D01*
Y40392D01*
X148105Y41048D01*
X146793D01*
X146137Y40392D01*
Y38424D01*
X144825Y42360D02*
Y43672D01*
Y43016D01*
X148760D01*
X148105Y42360D01*
X6534Y50197D02*
Y52821D01*
Y51509D01*
X2599D01*
Y54133D02*
X6534D01*
Y56100D01*
X5878Y56756D01*
X4566D01*
X3910Y56100D01*
Y54133D01*
X6534Y60692D02*
X5878Y59380D01*
X4566Y58068D01*
X3255D01*
X2599Y58724D01*
Y60036D01*
X3255Y60692D01*
X3910D01*
X4566Y60036D01*
Y58068D01*
X27771Y33739D02*
Y36363D01*
Y35051D01*
X23835D01*
Y37675D02*
X27771D01*
Y39643D01*
X27115Y40299D01*
X25803D01*
X25147Y39643D01*
Y37675D01*
X27771Y44234D02*
Y41611D01*
X25803D01*
X26459Y42922D01*
Y43578D01*
X25803Y44234D01*
X24491D01*
X23835Y43578D01*
Y42266D01*
X24491Y41611D01*
X41457Y33649D02*
Y36273D01*
Y34961D01*
X37521D01*
Y37584D02*
X41457D01*
Y39552D01*
X40801Y40208D01*
X39489D01*
X38833Y39552D01*
Y37584D01*
X37521Y43488D02*
X41457D01*
X39489Y41520D01*
Y44144D01*
X53217Y33727D02*
Y36351D01*
Y35039D01*
X49281D01*
Y37663D02*
X53217D01*
Y39631D01*
X52561Y40287D01*
X51249D01*
X50593Y39631D01*
Y37663D01*
X52561Y41599D02*
X53217Y42255D01*
Y43567D01*
X52561Y44223D01*
X51905D01*
X51249Y43567D01*
Y42911D01*
Y43567D01*
X50593Y44223D01*
X49937D01*
X49281Y43567D01*
Y42255D01*
X49937Y41599D01*
X68473Y33628D02*
Y36252D01*
Y34940D01*
X64537D01*
Y37563D02*
X68473D01*
Y39531D01*
X67817Y40187D01*
X66505D01*
X65849Y39531D01*
Y37563D01*
X64537Y44123D02*
Y41499D01*
X67161Y44123D01*
X67817D01*
X68473Y43467D01*
Y42155D01*
X67817Y41499D01*
M02*
