G04*
G04 #@! TF.GenerationSoftware,Altium Limited,Altium Designer,20.1.11 (218)*
G04*
G04 Layer_Physical_Order=3*
G04 Layer_Color=36540*
%FSLAX25Y25*%
%MOIN*%
G70*
G04*
G04 #@! TF.SameCoordinates,FBA81C19-FCCB-422B-9B6C-78DF9D3B5762*
G04*
G04*
G04 #@! TF.FilePolarity,Positive*
G04*
G01*
G75*
%ADD10C,0.00984*%
%ADD49C,0.06693*%
%ADD50R,0.06693X0.06693*%
%ADD55C,0.01181*%
%ADD56C,0.01000*%
%ADD57C,0.01575*%
%ADD58C,0.02756*%
%ADD60C,0.01968*%
%ADD61C,0.02362*%
%ADD88C,0.05906*%
%ADD90C,0.03347*%
%ADD91C,0.02165*%
%ADD92C,0.04724*%
%ADD101C,0.01181*%
G36*
X227384Y158513D02*
X227880Y158182D01*
X228465Y158065D01*
X237055D01*
X247813Y147307D01*
Y145247D01*
X247328Y145126D01*
X247280Y145217D01*
X246367Y146328D01*
X245256Y147240D01*
X243988Y147918D01*
X242612Y148335D01*
X241181Y148476D01*
X239750Y148335D01*
X238374Y147918D01*
X237106Y147240D01*
X235995Y146328D01*
X235392Y145593D01*
X234820Y145517D01*
X234262Y145945D01*
X233611Y146215D01*
X232913Y146307D01*
X232890Y146303D01*
X232801Y146306D01*
X232724Y146314D01*
X232653Y146326D01*
X232589Y146344D01*
X232528Y146365D01*
X232470Y146392D01*
X232413Y146424D01*
X232355Y146463D01*
X232351Y146466D01*
X228831Y149986D01*
X228305Y150337D01*
X227684Y150461D01*
X207029D01*
X206894Y150662D01*
X206762Y150961D01*
X206843Y151575D01*
X206751Y152273D01*
X206482Y152923D01*
X206053Y153481D01*
X205944Y153565D01*
X205926Y153592D01*
X205902Y153607D01*
X205885Y153630D01*
X205815Y153693D01*
X205785Y153725D01*
X205761Y153757D01*
X205741Y153790D01*
X205722Y153827D01*
X205705Y153872D01*
X205690Y153925D01*
X205678Y153989D01*
X205676Y154010D01*
Y154155D01*
X205560Y154741D01*
X205228Y155237D01*
X198041Y162424D01*
X197545Y162756D01*
X196959Y162872D01*
X110619D01*
X110034Y162756D01*
X109538Y162424D01*
X108870Y161757D01*
X108863Y161751D01*
X108815Y161721D01*
X108760Y161693D01*
X108698Y161668D01*
X108625Y161646D01*
X108541Y161627D01*
X108444Y161612D01*
X108334Y161604D01*
X108209Y161601D01*
X108185Y161604D01*
X107487Y161512D01*
X106837Y161243D01*
X106278Y160815D01*
X105989Y160438D01*
X91284D01*
X91273Y160460D01*
X91092Y160938D01*
X91337Y161527D01*
X91429Y162225D01*
X91337Y162923D01*
X91067Y163573D01*
X90639Y164131D01*
X90080Y164560D01*
X89430Y164829D01*
X88732Y164921D01*
X88376Y164874D01*
X87005Y166246D01*
X86828Y166364D01*
X86980Y166864D01*
X94963D01*
X95999Y165828D01*
X95985Y165723D01*
X96077Y165025D01*
X96347Y164374D01*
X96775Y163816D01*
X97334Y163388D01*
X97984Y163118D01*
X98682Y163026D01*
X99380Y163118D01*
X100030Y163388D01*
X100588Y163816D01*
X101017Y164374D01*
X101286Y165025D01*
X101378Y165723D01*
X101286Y166420D01*
X101017Y167071D01*
X100588Y167629D01*
X100030Y168058D01*
X99380Y168327D01*
X98682Y168419D01*
X98576Y168405D01*
X97112Y169870D01*
X97260Y170370D01*
X215527D01*
X227384Y158513D01*
D02*
G37*
G36*
X239355Y204280D02*
Y160745D01*
X238893Y160554D01*
X238770Y160676D01*
X238274Y161008D01*
X237689Y161124D01*
X229099D01*
X217242Y172981D01*
X216746Y173312D01*
X216161Y173429D01*
X69444D01*
X69155Y173806D01*
X68596Y174234D01*
X67946Y174504D01*
X67248Y174596D01*
X66550Y174504D01*
X65900Y174234D01*
X65342Y173806D01*
X64913Y173248D01*
X64644Y172597D01*
X64552Y171899D01*
X64621Y171378D01*
X64147Y171145D01*
X57293Y177999D01*
X56702Y178394D01*
X56004Y178533D01*
X56004Y178533D01*
X41776D01*
X41711Y178617D01*
X41153Y179045D01*
X40503Y179314D01*
X39805Y179406D01*
X39107Y179314D01*
X38457Y179045D01*
X37898Y178617D01*
X37470Y178058D01*
X37200Y177408D01*
X37108Y176710D01*
X37200Y176012D01*
X37470Y175362D01*
X37898Y174803D01*
X38457Y174375D01*
X39107Y174106D01*
X39805Y174014D01*
X40503Y174106D01*
X41153Y174375D01*
X41637Y174746D01*
X41855Y174723D01*
X41996Y174288D01*
X41988Y174195D01*
X41725Y173993D01*
X41296Y173435D01*
X41027Y172784D01*
X40935Y172086D01*
X41027Y171389D01*
X41296Y170738D01*
X41725Y170180D01*
X42283Y169751D01*
X42933Y169482D01*
X43631Y169390D01*
X44329Y169482D01*
X44979Y169751D01*
X45538Y170180D01*
X45756Y170465D01*
X56003D01*
X59945Y166523D01*
X59765Y165995D01*
X59660Y165981D01*
X59010Y165712D01*
X58451Y165284D01*
X58023Y164725D01*
X57753Y164075D01*
X57661Y163377D01*
X57753Y162679D01*
X58023Y162029D01*
X58451Y161470D01*
X59010Y161042D01*
X59660Y160773D01*
X60358Y160681D01*
X60829Y160743D01*
X63033Y158539D01*
X62841Y158077D01*
X3655D01*
X3070Y157961D01*
X2574Y157629D01*
X-6963Y148093D01*
X-7425Y148284D01*
Y149162D01*
X1825Y158412D01*
X2264Y159068D01*
X2418Y159843D01*
Y204280D01*
X8713Y210575D01*
X233060D01*
X239355Y204280D01*
D02*
G37*
G36*
X63727Y163478D02*
X85186D01*
X86083Y162581D01*
X86036Y162225D01*
X86128Y161527D01*
X86372Y160938D01*
X86192Y160460D01*
X86181Y160438D01*
X65460D01*
X63215Y162683D01*
X63237Y163158D01*
X63611Y163456D01*
X63667Y163489D01*
X63727Y163478D01*
D02*
G37*
G36*
X110377Y160394D02*
X110277Y160284D01*
X110187Y160166D01*
X110108Y160039D01*
X110040Y159905D01*
X109983Y159762D01*
X109936Y159611D01*
X109901Y159452D01*
X109876Y159284D01*
X109861Y159109D01*
X109858Y158925D01*
X108201Y160581D01*
X108385Y160585D01*
X108561Y160599D01*
X108728Y160624D01*
X108888Y160660D01*
X109039Y160706D01*
X109181Y160764D01*
X109316Y160832D01*
X109442Y160911D01*
X109560Y161000D01*
X109670Y161101D01*
X110377Y160394D01*
D02*
G37*
G36*
X187313Y159935D02*
X187601Y159696D01*
X187754Y159586D01*
X188080Y159384D01*
X188251Y159292D01*
X188614Y159125D01*
X188805Y159052D01*
X186671Y158087D01*
X186723Y158242D01*
X186758Y158393D01*
X186776Y158539D01*
X186776Y158681D01*
X186758Y158819D01*
X186723Y158952D01*
X186671Y159081D01*
X186601Y159205D01*
X186514Y159325D01*
X186409Y159441D01*
X187179Y160063D01*
X187313Y159935D01*
D02*
G37*
G36*
X116798Y159396D02*
X116934Y159280D01*
X117070Y159178D01*
X117209Y159090D01*
X117349Y159016D01*
X117491Y158954D01*
X117634Y158907D01*
X117778Y158873D01*
X117925Y158853D01*
X118072Y158846D01*
Y157861D01*
X117925Y157855D01*
X117778Y157834D01*
X117634Y157800D01*
X117491Y157753D01*
X117349Y157692D01*
X117209Y157617D01*
X117070Y157529D01*
X116934Y157427D01*
X116798Y157311D01*
X116664Y157182D01*
Y159525D01*
X116798Y159396D01*
D02*
G37*
G36*
X160852Y156138D02*
X160720Y156265D01*
X160586Y156379D01*
X160450Y156480D01*
X160312Y156567D01*
X160172Y156641D01*
X160030Y156701D01*
X159887Y156748D01*
X159742Y156782D01*
X159595Y156802D01*
X159447Y156809D01*
Y157809D01*
X159595Y157816D01*
X159742Y157836D01*
X159887Y157869D01*
X160030Y157916D01*
X160172Y157977D01*
X160312Y158050D01*
X160450Y158138D01*
X160586Y158238D01*
X160720Y158352D01*
X160852Y158480D01*
Y156138D01*
D02*
G37*
G36*
X198830Y157309D02*
X198749Y156902D01*
X198657Y156775D01*
X198134Y156374D01*
X198120Y156355D01*
X198056Y156294D01*
X197995Y156245D01*
X197936Y156204D01*
X197879Y156170D01*
X197821Y156143D01*
X197761Y156121D01*
X197698Y156103D01*
X197629Y156090D01*
X197624Y156089D01*
X191088D01*
X190754Y156589D01*
X190834Y156782D01*
X190926Y157480D01*
X190834Y158178D01*
X190565Y158828D01*
X190193Y159313D01*
X190322Y159813D01*
X196326D01*
X198830Y157309D01*
D02*
G37*
G36*
X185276Y158385D02*
X185594Y157935D01*
X185534Y157480D01*
X185626Y156782D01*
X185706Y156589D01*
X185372Y156089D01*
X164885D01*
X164608Y156505D01*
X164652Y156611D01*
X164744Y157309D01*
X164661Y157935D01*
X164740Y158159D01*
X164924Y158435D01*
X185191D01*
X185276Y158385D01*
D02*
G37*
G36*
X198846Y153296D02*
X198730Y153406D01*
X198609Y153505D01*
X198483Y153592D01*
X198353Y153668D01*
X198218Y153732D01*
X198078Y153784D01*
X197933Y153824D01*
X197784Y153853D01*
X197630Y153871D01*
X197471Y153877D01*
Y155058D01*
X197630Y155064D01*
X197784Y155081D01*
X197933Y155110D01*
X198078Y155151D01*
X198218Y155203D01*
X198353Y155267D01*
X198483Y155342D01*
X198609Y155429D01*
X198730Y155528D01*
X198846Y155639D01*
Y153296D01*
D02*
G37*
G36*
X204652Y153993D02*
X204669Y153839D01*
X204697Y153692D01*
X204736Y153552D01*
X204786Y153420D01*
X204848Y153295D01*
X204920Y153178D01*
X205004Y153068D01*
X205099Y152965D01*
X205205Y152871D01*
X203088D01*
X203194Y152965D01*
X203289Y153068D01*
X203373Y153178D01*
X203446Y153295D01*
X203507Y153420D01*
X203557Y153552D01*
X203596Y153692D01*
X203624Y153839D01*
X203641Y153993D01*
X203647Y154155D01*
X204647D01*
X204652Y153993D01*
D02*
G37*
G36*
X63956Y152763D02*
X64016Y152726D01*
X64093Y152693D01*
X64185Y152664D01*
X64293Y152640D01*
X64417Y152620D01*
X64713Y152594D01*
X65071Y152585D01*
X64890Y150617D01*
X64701Y150615D01*
X64003Y150563D01*
X63912Y150544D01*
X63837Y150522D01*
X63779Y150497D01*
X63737Y150468D01*
X63911Y152805D01*
X63956Y152763D01*
D02*
G37*
G36*
X104603Y154257D02*
X116218D01*
X116409Y153795D01*
X113088Y150474D01*
X113083Y150470D01*
X113025Y150431D01*
X112968Y150399D01*
X112910Y150373D01*
X112850Y150351D01*
X112785Y150334D01*
X112715Y150321D01*
X112637Y150313D01*
X112548Y150311D01*
X112525Y150314D01*
X111827Y150222D01*
X111177Y149953D01*
X110618Y149524D01*
X110190Y148966D01*
X109982Y148463D01*
X109459Y148279D01*
X103993Y153744D01*
X104007Y153866D01*
X104555Y154267D01*
X104603Y154257D01*
D02*
G37*
G36*
X195359Y150089D02*
X195219Y150173D01*
X195078Y150249D01*
X194936Y150316D01*
X194791Y150373D01*
X194645Y150422D01*
X194498Y150462D01*
X194349Y150494D01*
X194197Y150516D01*
X194045Y150529D01*
X193891Y150534D01*
X193600Y151715D01*
X193762Y151721D01*
X193916Y151741D01*
X194061Y151774D01*
X194198Y151820D01*
X194326Y151879D01*
X194445Y151952D01*
X194556Y152037D01*
X194659Y152136D01*
X194752Y152248D01*
X194837Y152373D01*
X195359Y150089D01*
D02*
G37*
G36*
X99952Y151476D02*
X99971Y151365D01*
X100002Y151252D01*
X100046Y151137D01*
X100103Y151020D01*
X100174Y150901D01*
X100257Y150780D01*
X100353Y150657D01*
X100462Y150531D01*
X100584Y150404D01*
X99471Y149290D01*
X99343Y149412D01*
X99094Y149618D01*
X98973Y149701D01*
X98854Y149771D01*
X98737Y149828D01*
X98622Y149873D01*
X98510Y149904D01*
X98399Y149922D01*
X98290Y149928D01*
X99947Y151584D01*
X99952Y151476D01*
D02*
G37*
G36*
X120504Y148823D02*
X120397Y148709D01*
X120299Y148590D01*
X120211Y148465D01*
X120132Y148335D01*
X120062Y148200D01*
X120002Y148060D01*
X119951Y147914D01*
X119909Y147763D01*
X119877Y147608D01*
X119854Y147446D01*
X118410Y149291D01*
X118566Y149277D01*
X118717Y149277D01*
X118864Y149290D01*
X119007Y149317D01*
X119146Y149358D01*
X119280Y149413D01*
X119411Y149481D01*
X119537Y149563D01*
X119659Y149658D01*
X119778Y149767D01*
X120504Y148823D01*
D02*
G37*
G36*
X133934Y148422D02*
X133821Y148306D01*
X133560Y148001D01*
X133498Y147913D01*
X133450Y147833D01*
X133414Y147759D01*
X133392Y147693D01*
X133382Y147633D01*
X133385Y147581D01*
X132330Y148831D01*
X132382Y148818D01*
X132440Y148818D01*
X132504Y148830D01*
X132572Y148854D01*
X132647Y148890D01*
X132726Y148939D01*
X132811Y149000D01*
X132902Y149074D01*
X133099Y149257D01*
X133934Y148422D01*
D02*
G37*
G36*
X114760Y149017D02*
X114651Y148901D01*
X114555Y148780D01*
X114470Y148654D01*
X114396Y148523D01*
X114334Y148387D01*
X114284Y148246D01*
X114245Y148101D01*
X114218Y147950D01*
X114202Y147795D01*
X114198Y147635D01*
X112542Y149291D01*
X112702Y149295D01*
X112857Y149311D01*
X113008Y149338D01*
X113153Y149377D01*
X113294Y149427D01*
X113430Y149489D01*
X113561Y149563D01*
X113687Y149648D01*
X113808Y149744D01*
X113924Y149852D01*
X114760Y149017D01*
D02*
G37*
G36*
X127543Y147830D02*
X127558Y147675D01*
X127584Y147525D01*
X127621Y147380D01*
X127671Y147239D01*
X127732Y147103D01*
X127805Y146972D01*
X127889Y146846D01*
X127986Y146725D01*
X128094Y146608D01*
X127249Y145783D01*
X127132Y145891D01*
X127011Y145988D01*
X126885Y146073D01*
X126754Y146147D01*
X126619Y146210D01*
X126478Y146261D01*
X126332Y146301D01*
X126182Y146330D01*
X126026Y146347D01*
X125866Y146353D01*
X127541Y147990D01*
X127543Y147830D01*
D02*
G37*
G36*
X60007Y152261D02*
X59936Y151725D01*
X60028Y151027D01*
X60297Y150377D01*
X60726Y149818D01*
X61284Y149390D01*
X61935Y149120D01*
X62632Y149029D01*
X63330Y149120D01*
X63981Y149390D01*
X64196Y149555D01*
X64500Y149578D01*
X92117D01*
X97542Y144153D01*
X97446Y143896D01*
X97285Y143702D01*
X96673Y143783D01*
X95975Y143691D01*
X95324Y143422D01*
X94766Y142993D01*
X94338Y142435D01*
X94068Y141784D01*
X93976Y141087D01*
X94068Y140389D01*
X94338Y139738D01*
X94766Y139180D01*
X95324Y138751D01*
X95975Y138482D01*
X96673Y138390D01*
X97370Y138482D01*
X98021Y138751D01*
X98579Y139180D01*
X99008Y139738D01*
X99277Y140389D01*
X99369Y141087D01*
X99288Y141699D01*
X99482Y141860D01*
X99739Y141956D01*
X103914Y137780D01*
X103721Y137349D01*
X103685Y137302D01*
X103003Y137212D01*
X102353Y136943D01*
X101794Y136514D01*
X101366Y135956D01*
X101096Y135306D01*
X101094Y135284D01*
X101002Y134978D01*
X100962Y134868D01*
X100854Y134623D01*
X100810Y134542D01*
X100762Y134462D01*
X100715Y134395D01*
X100708Y134387D01*
X98662Y132341D01*
X98102Y132488D01*
X97931Y132900D01*
X97503Y133459D01*
X96944Y133887D01*
X96294Y134157D01*
X95596Y134248D01*
X94898Y134157D01*
X94248Y133887D01*
X93689Y133459D01*
X93675Y133439D01*
X93607Y133375D01*
X93547Y133326D01*
X93489Y133285D01*
X93431Y133252D01*
X93374Y133225D01*
X93314Y133203D01*
X93251Y133185D01*
X93183Y133171D01*
X93177Y133171D01*
X71956D01*
X65557Y139569D01*
X65503Y139642D01*
X65452Y139719D01*
X65405Y139800D01*
X65363Y139886D01*
X65324Y139976D01*
X65289Y140071D01*
X65258Y140172D01*
X65224Y140304D01*
X65216Y140322D01*
X65207Y140387D01*
X64938Y141037D01*
X64509Y141596D01*
X63951Y142024D01*
X63301Y142294D01*
X62603Y142385D01*
X61905Y142294D01*
X61255Y142024D01*
X60696Y141596D01*
X60268Y141037D01*
X59998Y140387D01*
X59907Y139689D01*
X59998Y138991D01*
X60268Y138341D01*
X60696Y137783D01*
X61255Y137354D01*
X61905Y137085D01*
X62603Y136993D01*
X63141Y137064D01*
X63198Y137064D01*
X63296Y137083D01*
X63335Y137086D01*
X63366Y137086D01*
X63390Y137083D01*
X63414Y137077D01*
X63440Y137068D01*
X63473Y137052D01*
X63513Y137026D01*
X63514Y137025D01*
X65055Y135485D01*
X64894Y135011D01*
X64795Y134998D01*
X64145Y134729D01*
X63586Y134300D01*
X63158Y133742D01*
X62889Y133092D01*
X62857Y132853D01*
X62829Y132783D01*
X62820Y132732D01*
X62817Y132722D01*
X62807Y132696D01*
X62787Y132655D01*
X62756Y132601D01*
X62713Y132535D01*
X62663Y132467D01*
X62606Y132401D01*
X57529Y127324D01*
X57134Y126733D01*
X56995Y126035D01*
X56995Y126035D01*
Y124486D01*
X56495Y124285D01*
X55925Y124521D01*
X55448Y124584D01*
X55259Y124746D01*
X51742Y128263D01*
X51666Y128646D01*
X51140Y129433D01*
X50353Y129958D01*
X49426Y130143D01*
X11559D01*
X11414Y130155D01*
X11297Y130171D01*
X11206Y130189D01*
X11191Y130193D01*
X10588Y130655D01*
X9770Y130994D01*
X8893Y131110D01*
X8015Y130994D01*
X7197Y130655D01*
X6495Y130116D01*
X5956Y129414D01*
X5617Y128596D01*
X5501Y127718D01*
X5617Y126841D01*
X5956Y126023D01*
X6495Y125320D01*
X7197Y124782D01*
X8015Y124443D01*
X8452Y124385D01*
X8631Y123857D01*
X5619Y120845D01*
X5137Y120908D01*
X4439Y120817D01*
X3789Y120547D01*
X3594Y120398D01*
X3094Y120644D01*
Y130092D01*
X25763Y152761D01*
X59690D01*
X60007Y152261D01*
D02*
G37*
G36*
X231630Y145737D02*
X231752Y145640D01*
X231878Y145555D01*
X232009Y145482D01*
X232144Y145420D01*
X232285Y145369D01*
X232431Y145330D01*
X232581Y145303D01*
X232736Y145288D01*
X232897Y145283D01*
X231240Y143627D01*
X231236Y143787D01*
X231221Y143942D01*
X231193Y144093D01*
X231154Y144238D01*
X231104Y144379D01*
X231042Y144515D01*
X230969Y144646D01*
X230884Y144772D01*
X230787Y144893D01*
X230679Y145010D01*
X231514Y145845D01*
X231630Y145737D01*
D02*
G37*
G36*
X120420Y143844D02*
X120462Y143689D01*
X120512Y143540D01*
X120570Y143396D01*
X120636Y143257D01*
X120710Y143124D01*
X120792Y142995D01*
X120882Y142872D01*
X120980Y142754D01*
X121087Y142641D01*
X120426Y141631D01*
X120307Y141741D01*
X120184Y141836D01*
X120058Y141916D01*
X119928Y141982D01*
X119795Y142032D01*
X119658Y142068D01*
X119518Y142088D01*
X119374Y142094D01*
X119227Y142085D01*
X119076Y142062D01*
X120386Y144003D01*
X120420Y143844D01*
D02*
G37*
G36*
X190972Y140955D02*
X190856Y141065D01*
X190735Y141164D01*
X190609Y141251D01*
X190479Y141326D01*
X190344Y141390D01*
X190204Y141443D01*
X190059Y141483D01*
X189910Y141512D01*
X189756Y141530D01*
X189597Y141535D01*
Y142717D01*
X189756Y142722D01*
X189910Y142740D01*
X190059Y142769D01*
X190204Y142809D01*
X190344Y142862D01*
X190479Y142926D01*
X190609Y143001D01*
X190735Y143088D01*
X190856Y143187D01*
X190972Y143297D01*
Y140955D01*
D02*
G37*
G36*
X228678Y142284D02*
X228799Y142187D01*
X228925Y142102D01*
X229056Y142029D01*
X229192Y141967D01*
X229332Y141917D01*
X229478Y141878D01*
X229628Y141850D01*
X229784Y141835D01*
X229944Y141831D01*
X228288Y140174D01*
X228283Y140334D01*
X228268Y140490D01*
X228240Y140640D01*
X228202Y140786D01*
X228151Y140926D01*
X228089Y141062D01*
X228016Y141193D01*
X227931Y141319D01*
X227834Y141440D01*
X227726Y141557D01*
X228561Y142392D01*
X228678Y142284D01*
D02*
G37*
G36*
X173980Y140979D02*
X174506Y140628D01*
X174879Y140554D01*
X174830Y140054D01*
X150665D01*
X147714Y143004D01*
X147906Y143466D01*
X171493D01*
X173980Y140979D01*
D02*
G37*
G36*
X22972Y154556D02*
X8305Y139890D01*
X7825Y140117D01*
X7926Y141142D01*
X7785Y142573D01*
X7368Y143949D01*
X6690Y145217D01*
X5778Y146328D01*
X4666Y147240D01*
X3398Y147918D01*
X2022Y148335D01*
X592Y148476D01*
X-840Y148335D01*
X-2056Y147966D01*
X-2321Y148408D01*
X4289Y155018D01*
X22780D01*
X22972Y154556D01*
D02*
G37*
G36*
X120527Y140529D02*
X120661Y140444D01*
X120799Y140368D01*
X120939Y140303D01*
X121081Y140248D01*
X121227Y140202D01*
X121375Y140167D01*
X121525Y140142D01*
X121679Y140127D01*
X121835Y140122D01*
X122013Y138941D01*
X121852Y138935D01*
X121698Y138915D01*
X121551Y138884D01*
X121411Y138839D01*
X121278Y138782D01*
X121153Y138712D01*
X121034Y138629D01*
X120923Y138534D01*
X120818Y138426D01*
X120721Y138305D01*
X120395Y140625D01*
X120527Y140529D01*
D02*
G37*
G36*
X64275Y139897D02*
X64322Y139744D01*
X64377Y139597D01*
X64438Y139454D01*
X64507Y139316D01*
X64584Y139184D01*
X64668Y139056D01*
X64759Y138934D01*
X64857Y138817D01*
X64963Y138705D01*
X64340Y137658D01*
X64220Y137768D01*
X64097Y137863D01*
X63972Y137942D01*
X63842Y138006D01*
X63710Y138055D01*
X63575Y138087D01*
X63436Y138105D01*
X63295Y138107D01*
X63150Y138093D01*
X63002Y138064D01*
X64235Y140055D01*
X64275Y139897D01*
D02*
G37*
G36*
X179482Y137412D02*
X179341Y137494D01*
X179055Y137631D01*
X178910Y137687D01*
X178764Y137734D01*
X178616Y137773D01*
X178466Y137803D01*
X178315Y137824D01*
X178163Y137837D01*
X178009Y137841D01*
X177689Y139022D01*
X177851Y139029D01*
X178005Y139049D01*
X178150Y139082D01*
X178286Y139128D01*
X178412Y139188D01*
X178530Y139261D01*
X178639Y139347D01*
X178739Y139446D01*
X178830Y139559D01*
X178912Y139684D01*
X179482Y137412D01*
D02*
G37*
G36*
X189755Y140504D02*
X189824Y140490D01*
X189887Y140473D01*
X189947Y140450D01*
X190005Y140423D01*
X190062Y140389D01*
X190121Y140349D01*
X190181Y140299D01*
X190246Y140238D01*
X190260Y140219D01*
X190576Y139977D01*
X190605Y139381D01*
X190595Y139362D01*
X190355Y139178D01*
X189927Y138619D01*
X189657Y137969D01*
X189565Y137271D01*
X189657Y136573D01*
X189674Y136532D01*
X189674Y136528D01*
X189697Y136437D01*
X189701Y136409D01*
X189702Y136390D01*
X189700Y136377D01*
X189698Y136365D01*
X189692Y136347D01*
X189679Y136322D01*
X189657Y136286D01*
X189656Y136285D01*
X189133Y135762D01*
X181158D01*
X181054Y136235D01*
X181704Y136504D01*
X182263Y136933D01*
X182691Y137491D01*
X182960Y138142D01*
X183052Y138839D01*
X182960Y139537D01*
X182767Y140004D01*
X183028Y140504D01*
X189750D01*
X189755Y140504D01*
D02*
G37*
G36*
X148847Y137285D02*
X149373Y136934D01*
X149993Y136810D01*
X178204D01*
X178294Y136797D01*
X178386Y136779D01*
X178478Y136755D01*
X178571Y136725D01*
X178651Y136694D01*
X178865Y136592D01*
X178972Y136530D01*
X178977Y136528D01*
X179008Y136504D01*
X179658Y136235D01*
X179554Y135762D01*
X145305D01*
X145059Y136262D01*
X145299Y136575D01*
X145638Y137393D01*
X145754Y138271D01*
X145638Y139149D01*
X145359Y139823D01*
X145509Y140235D01*
X145618Y140373D01*
X145739Y140393D01*
X148847Y137285D01*
D02*
G37*
G36*
X192722Y135662D02*
X192568Y135614D01*
X192273Y135499D01*
X192133Y135432D01*
X191868Y135278D01*
X191742Y135192D01*
X191622Y135099D01*
X191506Y135001D01*
X191395Y134895D01*
X190291Y135461D01*
X190401Y135581D01*
X190496Y135704D01*
X190574Y135829D01*
X190636Y135957D01*
X190681Y136088D01*
X190710Y136221D01*
X190723Y136356D01*
X190719Y136494D01*
X190699Y136635D01*
X190663Y136778D01*
X192722Y135662D01*
D02*
G37*
G36*
X115447Y135493D02*
X113250Y134852D01*
X113290Y134937D01*
X113312Y135027D01*
X113316Y135122D01*
X113301Y135223D01*
X113268Y135328D01*
X113218Y135438D01*
X113149Y135553D01*
X113062Y135673D01*
X112957Y135798D01*
X112833Y135928D01*
X114105Y136883D01*
X115447Y135493D01*
D02*
G37*
G36*
X108967Y136983D02*
X109417Y136596D01*
X109509Y136534D01*
X109591Y136486D01*
X109665Y136452D01*
X109730Y136432D01*
X109787Y136425D01*
X108131Y134769D01*
X108124Y134826D01*
X108104Y134891D01*
X108070Y134965D01*
X108021Y135047D01*
X107959Y135138D01*
X107884Y135238D01*
X107690Y135463D01*
X107441Y135723D01*
X108833Y137115D01*
X108967Y136983D01*
D02*
G37*
G36*
X103246Y132998D02*
X103081Y133037D01*
X102921Y133061D01*
X102767Y133069D01*
X102618Y133061D01*
X102475Y133036D01*
X102338Y132996D01*
X102207Y132941D01*
X102081Y132869D01*
X101961Y132781D01*
X101846Y132677D01*
X101350Y133573D01*
X101443Y133673D01*
X101531Y133783D01*
X101616Y133904D01*
X101695Y134035D01*
X101771Y134175D01*
X101908Y134487D01*
X101971Y134658D01*
X102082Y135030D01*
X103246Y132998D01*
D02*
G37*
G36*
X109863Y143462D02*
X110484Y143339D01*
X116092D01*
X116136Y143003D01*
X116405Y142353D01*
X116834Y141794D01*
X117139Y141560D01*
X117372Y141308D01*
X117228Y140893D01*
X117039Y140647D01*
X116770Y139996D01*
X116678Y139298D01*
X116770Y138601D01*
X117039Y137950D01*
X117468Y137392D01*
X118026Y136963D01*
X118676Y136694D01*
X119374Y136602D01*
X120072Y136694D01*
X120722Y136963D01*
X121281Y137392D01*
X121448Y137609D01*
X121515Y137665D01*
X121583Y137750D01*
X121622Y137791D01*
X121659Y137822D01*
X121694Y137846D01*
X121729Y137866D01*
X121769Y137883D01*
X121814Y137897D01*
X121869Y137909D01*
X121873Y137910D01*
X125915D01*
X126249Y137410D01*
X126145Y137158D01*
X126053Y136461D01*
X126145Y135763D01*
X126414Y135112D01*
X126843Y134554D01*
X127401Y134125D01*
X127574Y134054D01*
X127691Y133464D01*
X126480Y132253D01*
X117280D01*
X117068Y132753D01*
X117295Y133302D01*
X117387Y134000D01*
X117295Y134698D01*
X117026Y135348D01*
X116597Y135907D01*
X116105Y136284D01*
X115979Y136473D01*
X115979Y136473D01*
X108997Y143454D01*
X109337Y143814D01*
X109863Y143462D01*
D02*
G37*
G36*
X65252Y130738D02*
X65143Y130747D01*
X65032Y130741D01*
X64919Y130720D01*
X64803Y130685D01*
X64686Y130636D01*
X64566Y130572D01*
X64445Y130493D01*
X64321Y130401D01*
X64195Y130293D01*
X64067Y130172D01*
X63125Y131457D01*
X63248Y131584D01*
X63460Y131831D01*
X63548Y131950D01*
X63625Y132065D01*
X63690Y132178D01*
X63743Y132289D01*
X63784Y132396D01*
X63814Y132500D01*
X63833Y132601D01*
X65252Y130738D01*
D02*
G37*
G36*
X94403Y130379D02*
X94287Y130489D01*
X94166Y130587D01*
X94040Y130675D01*
X93909Y130750D01*
X93774Y130814D01*
X93634Y130866D01*
X93490Y130906D01*
X93340Y130935D01*
X93186Y130953D01*
X93028Y130959D01*
X93025Y132140D01*
X93184Y132146D01*
X93338Y132163D01*
X93487Y132192D01*
X93632Y132233D01*
X93771Y132285D01*
X93906Y132349D01*
X94037Y132425D01*
X94162Y132512D01*
X94283Y132611D01*
X94399Y132721D01*
X94403Y130379D01*
D02*
G37*
G36*
X155449Y131020D02*
X155540Y130954D01*
X155642Y130897D01*
X155754Y130847D01*
X155878Y130805D01*
X156012Y130770D01*
X156156Y130743D01*
X156311Y130724D01*
X156477Y130712D01*
X156654Y130709D01*
Y129134D01*
X156477Y129130D01*
X156156Y129099D01*
X156012Y129072D01*
X155878Y129038D01*
X155754Y128996D01*
X155642Y128946D01*
X155540Y128888D01*
X155449Y128823D01*
X155368Y128750D01*
Y131093D01*
X155449Y131020D01*
D02*
G37*
G36*
X144699Y130530D02*
X144724Y130345D01*
X144765Y130161D01*
X144825Y129979D01*
X144902Y129798D01*
X144996Y129618D01*
X145107Y129440D01*
X145236Y129264D01*
X145383Y129089D01*
X145547Y128916D01*
X144155Y127524D01*
X143982Y127688D01*
X143807Y127834D01*
X143630Y127963D01*
X143452Y128075D01*
X143273Y128169D01*
X143092Y128246D01*
X142910Y128305D01*
X142726Y128347D01*
X142541Y128371D01*
X142354Y128378D01*
X144693Y130717D01*
X144699Y130530D01*
D02*
G37*
G36*
X10645Y129320D02*
X10732Y129273D01*
X10841Y129232D01*
X10973Y129196D01*
X11127Y129165D01*
X11303Y129140D01*
X11721Y129107D01*
X12229Y129096D01*
Y126340D01*
X11964Y126338D01*
X11127Y126272D01*
X10973Y126241D01*
X10841Y126206D01*
X10732Y126164D01*
X10645Y126117D01*
X10580Y126065D01*
Y129372D01*
X10645Y129320D01*
D02*
G37*
G36*
X65812Y126475D02*
X65864Y126459D01*
X65933Y126444D01*
X66019Y126432D01*
X66244Y126412D01*
X66710Y126398D01*
X66900Y126397D01*
X67295Y124428D01*
X67109Y124426D01*
X66644Y124389D01*
X66521Y124366D01*
X66414Y124339D01*
X66323Y124307D01*
X66248Y124270D01*
X66189Y124228D01*
X66146Y124181D01*
X65777Y126494D01*
X65812Y126475D01*
D02*
G37*
G36*
X227105Y140720D02*
X227108Y140716D01*
X227147Y140658D01*
X227179Y140601D01*
X227206Y140543D01*
X227227Y140482D01*
X227245Y140418D01*
X227257Y140347D01*
X227265Y140270D01*
X227268Y140181D01*
X227264Y140157D01*
X227356Y139460D01*
X227626Y138809D01*
X228054Y138251D01*
X228613Y137822D01*
X229263Y137553D01*
X229961Y137461D01*
X230659Y137553D01*
X231309Y137822D01*
X231867Y138251D01*
X232296Y138809D01*
X232565Y139460D01*
X232657Y140157D01*
X232619Y140448D01*
X232911Y140910D01*
X233027Y140929D01*
X233361Y140973D01*
X233896Y140637D01*
X233987Y139711D01*
X234405Y138335D01*
X235083Y137067D01*
X235995Y135956D01*
X237106Y135043D01*
X238374Y134366D01*
X239750Y133948D01*
X241181Y133807D01*
X242612Y133948D01*
X243988Y134366D01*
X245256Y135043D01*
X246367Y135956D01*
X247280Y137067D01*
X247328Y137158D01*
X247813Y137036D01*
Y126244D01*
X239641D01*
Y123749D01*
X239522Y123729D01*
X239422Y123720D01*
X219054D01*
X211564Y131210D01*
X210973Y131605D01*
X210276Y131744D01*
X210276Y131744D01*
X156373D01*
X156312Y131751D01*
X156233Y131766D01*
X156226Y131768D01*
X156009Y132018D01*
X156209Y132518D01*
X189805D01*
X190425Y132642D01*
X190952Y132993D01*
X192270Y134311D01*
X192342Y134367D01*
X192413Y134416D01*
X192610Y134529D01*
X192680Y134563D01*
X192905Y134652D01*
X192949Y134665D01*
X192959Y134667D01*
X192977Y134674D01*
X193025Y134689D01*
X193063Y134710D01*
X193610Y134936D01*
X194168Y135364D01*
X194597Y135923D01*
X194866Y136573D01*
X194958Y137271D01*
X194866Y137969D01*
X194597Y138619D01*
X194168Y139178D01*
X193853Y139420D01*
X193824Y140016D01*
X193834Y140035D01*
X194074Y140219D01*
X194502Y140778D01*
X194771Y141428D01*
X194863Y142126D01*
X194771Y142824D01*
X194502Y143474D01*
X194074Y144033D01*
X193515Y144461D01*
X193316Y144543D01*
X193416Y145043D01*
X222781D01*
X227105Y140720D01*
D02*
G37*
G36*
X129129Y123719D02*
X129049Y123792D01*
X128958Y123857D01*
X128856Y123915D01*
X128743Y123965D01*
X128620Y124007D01*
X128486Y124042D01*
X128341Y124069D01*
X128186Y124088D01*
X128021Y124099D01*
X127844Y124103D01*
Y125678D01*
X128021Y125682D01*
X128341Y125712D01*
X128486Y125739D01*
X128620Y125774D01*
X128743Y125816D01*
X128856Y125866D01*
X128958Y125924D01*
X129049Y125989D01*
X129129Y126062D01*
Y123719D01*
D02*
G37*
G36*
X139221Y132018D02*
X139055Y131618D01*
X138939Y130740D01*
X139055Y129862D01*
X139394Y129045D01*
X139933Y128342D01*
X140635Y127803D01*
X141453Y127465D01*
X142331Y127349D01*
X142388Y127357D01*
X142455Y127354D01*
X142546Y127342D01*
X142639Y127321D01*
X142735Y127290D01*
X142836Y127247D01*
X142944Y127191D01*
X143057Y127119D01*
X143178Y127031D01*
X143183Y127027D01*
X144484Y125726D01*
X144305Y125198D01*
X144127Y125175D01*
X143476Y124905D01*
X142918Y124477D01*
X142490Y123918D01*
X142220Y123268D01*
X142128Y122570D01*
X142220Y121872D01*
X142365Y121522D01*
X142036Y121022D01*
X134594D01*
X133896Y120884D01*
X133305Y120489D01*
X133305Y120489D01*
X131659Y118842D01*
X129170D01*
X128923Y119342D01*
X129097Y119570D01*
X129367Y120220D01*
X129459Y120918D01*
X129367Y121616D01*
X129248Y121902D01*
X129627Y122286D01*
X130324Y122194D01*
X131022Y122286D01*
X131673Y122555D01*
X132231Y122984D01*
X132659Y123542D01*
X132929Y124193D01*
X133021Y124890D01*
X132929Y125588D01*
X132659Y126239D01*
X132231Y126797D01*
X131673Y127226D01*
X131422Y127329D01*
X131305Y127919D01*
X135904Y132518D01*
X138887D01*
X139221Y132018D01*
D02*
G37*
G36*
X114760Y123503D02*
X114651Y123387D01*
X114555Y123266D01*
X114470Y123140D01*
X114396Y123009D01*
X114334Y122873D01*
X114284Y122732D01*
X114245Y122587D01*
X114218Y122436D01*
X114202Y122281D01*
X114198Y122121D01*
X112542Y123777D01*
X112702Y123781D01*
X112857Y123797D01*
X113008Y123824D01*
X113153Y123863D01*
X113294Y123913D01*
X113430Y123975D01*
X113561Y124049D01*
X113687Y124134D01*
X113808Y124230D01*
X113924Y124338D01*
X114760Y123503D01*
D02*
G37*
G36*
X54391Y124148D02*
X54841Y123761D01*
X54932Y123699D01*
X55014Y123651D01*
X55088Y123617D01*
X55154Y123597D01*
X55210Y123590D01*
X53554Y121934D01*
X53548Y121990D01*
X53527Y122056D01*
X53493Y122130D01*
X53445Y122212D01*
X53383Y122303D01*
X53307Y122403D01*
X53114Y122628D01*
X52864Y122888D01*
X54256Y124280D01*
X54391Y124148D01*
D02*
G37*
G36*
X124464Y125831D02*
X120475Y121842D01*
X115597D01*
X115423Y122015D01*
X115252Y122260D01*
X115237Y122342D01*
X115241Y122364D01*
X115258Y122428D01*
X115280Y122489D01*
X115306Y122547D01*
X115339Y122604D01*
X115377Y122662D01*
X115381Y122667D01*
X119046Y126331D01*
X124257D01*
X124464Y125831D01*
D02*
G37*
G36*
X-4595Y135956D02*
X-3483Y135043D01*
X-2215Y134366D01*
X-840Y133948D01*
X592Y133807D01*
X1616Y133908D01*
X1843Y133428D01*
X326Y131911D01*
X-26Y131384D01*
X-149Y130764D01*
Y53105D01*
X-26Y52484D01*
X326Y51958D01*
X5099Y47185D01*
X4862Y46722D01*
X4050Y46560D01*
X3361Y46100D01*
X2901Y45411D01*
X2739Y44598D01*
X2901Y43786D01*
X3361Y43097D01*
X4050Y42637D01*
X4862Y42475D01*
X5675Y42637D01*
X6364Y43097D01*
X6824Y43786D01*
X6986Y44598D01*
X7448Y44835D01*
X17424Y34860D01*
X17417Y34756D01*
X16989Y34198D01*
X16720Y33547D01*
X16628Y32850D01*
X16720Y32152D01*
X16989Y31501D01*
X17417Y30943D01*
X17976Y30515D01*
X18626Y30245D01*
X19324Y30153D01*
X20022Y30245D01*
X20672Y30515D01*
X21230Y30943D01*
X21659Y31501D01*
X21928Y32152D01*
X21948Y32297D01*
X22470Y32437D01*
X22526Y32365D01*
X23084Y31937D01*
X23734Y31667D01*
X24432Y31576D01*
X25130Y31667D01*
X25780Y31937D01*
X26339Y32365D01*
X26767Y32924D01*
X27037Y33574D01*
X27129Y34272D01*
X27037Y34970D01*
X26767Y35620D01*
X26339Y36178D01*
X25780Y36607D01*
X25130Y36876D01*
X24432Y36968D01*
X23734Y36876D01*
X23084Y36607D01*
X22526Y36178D01*
X22097Y35620D01*
X21828Y34970D01*
X21809Y34824D01*
X21347Y34700D01*
X20947Y35006D01*
X20946Y35021D01*
Y35253D01*
X20822Y35874D01*
X20471Y36400D01*
X3094Y53777D01*
Y115780D01*
X3594Y116027D01*
X3789Y115877D01*
X4439Y115608D01*
X5137Y115516D01*
X5835Y115608D01*
X6485Y115877D01*
X7044Y116306D01*
X7472Y116864D01*
X7742Y117514D01*
X7834Y118212D01*
X7770Y118693D01*
X11999Y122923D01*
X41518D01*
X49052Y115389D01*
Y104410D01*
X49168Y103828D01*
X49498Y103334D01*
X53850Y98982D01*
Y96397D01*
X53434Y96119D01*
X53303Y96174D01*
X52605Y96266D01*
X51908Y96174D01*
X51257Y95904D01*
X50699Y95476D01*
X50270Y94917D01*
X50001Y94267D01*
X49909Y93569D01*
X50001Y92871D01*
X50270Y92221D01*
X50699Y91663D01*
X51257Y91234D01*
X51908Y90965D01*
X52605Y90873D01*
X53303Y90965D01*
X53434Y91019D01*
X53850Y90741D01*
Y89455D01*
X53849Y89452D01*
X53841Y89446D01*
X53809Y89429D01*
X53712Y89388D01*
X53637Y89337D01*
X53333Y89211D01*
X52775Y88783D01*
X52346Y88224D01*
X52077Y87574D01*
X51985Y86876D01*
X52077Y86178D01*
X52346Y85528D01*
X52775Y84970D01*
X53333Y84541D01*
X53983Y84272D01*
X54681Y84180D01*
X55379Y84272D01*
X55525Y84332D01*
X55941Y84054D01*
Y76496D01*
X55441Y76162D01*
X55258Y76238D01*
X54560Y76329D01*
X53862Y76238D01*
X53212Y75968D01*
X52653Y75540D01*
X52225Y74981D01*
X51955Y74331D01*
X51864Y73633D01*
X51955Y72935D01*
X52225Y72285D01*
X52558Y71851D01*
X52243Y71441D01*
X52081Y71507D01*
X51383Y71599D01*
X50686Y71507D01*
X50035Y71238D01*
X49477Y70810D01*
X49048Y70251D01*
X48779Y69601D01*
X48687Y68903D01*
X48779Y68205D01*
X49048Y67555D01*
X49477Y66996D01*
X50035Y66568D01*
X50686Y66299D01*
X51383Y66207D01*
X52081Y66299D01*
X52732Y66568D01*
X53290Y66996D01*
X53586Y67382D01*
X54887D01*
X55469Y67497D01*
X55962Y67827D01*
X58538Y70403D01*
X58868Y70896D01*
X58983Y71478D01*
X58983Y71478D01*
Y107011D01*
X62431Y110458D01*
X62431Y110458D01*
X62760Y110952D01*
X62876Y111534D01*
X62876Y111534D01*
Y122676D01*
X63325Y122897D01*
X63433Y122814D01*
X64084Y122545D01*
X64781Y122453D01*
X65479Y122545D01*
X66130Y122814D01*
X66688Y123242D01*
X66792Y123378D01*
X66939Y123389D01*
X68165D01*
X68490Y123173D01*
X69417Y122988D01*
X98735D01*
X99662Y123173D01*
X100449Y123698D01*
X104958Y128207D01*
X115681D01*
X115873Y127745D01*
X113088Y124960D01*
X113083Y124956D01*
X113025Y124917D01*
X112968Y124885D01*
X112910Y124859D01*
X112850Y124837D01*
X112785Y124820D01*
X112715Y124807D01*
X112637Y124799D01*
X112548Y124797D01*
X112525Y124800D01*
X111982Y124729D01*
X111928Y125142D01*
X111659Y125792D01*
X111230Y126351D01*
X110672Y126779D01*
X110021Y127049D01*
X109323Y127140D01*
X108626Y127049D01*
X107975Y126779D01*
X107417Y126351D01*
X106988Y125792D01*
X106719Y125142D01*
X106627Y124444D01*
X106719Y123746D01*
X106988Y123096D01*
X107417Y122538D01*
X107975Y122109D01*
X108626Y121840D01*
X109323Y121748D01*
X109866Y121819D01*
X109921Y121406D01*
X110190Y120756D01*
X110238Y120694D01*
X110016Y120245D01*
X109148D01*
X108450Y120106D01*
X107859Y119711D01*
X107859Y119711D01*
X105106Y116958D01*
X104711Y116367D01*
X104572Y115670D01*
X104572Y115670D01*
Y107240D01*
X104572Y107240D01*
X104711Y106543D01*
X105106Y105952D01*
X106916Y104141D01*
Y102893D01*
X106909Y102832D01*
X106894Y102752D01*
X106878Y102690D01*
X106863Y102647D01*
X106851Y102620D01*
X106845Y102610D01*
X106832Y102599D01*
X106404Y102041D01*
X106134Y101391D01*
X106043Y100693D01*
X106134Y99995D01*
X106404Y99345D01*
X106832Y98786D01*
X107391Y98358D01*
X108041Y98088D01*
X108739Y97997D01*
X109437Y98088D01*
X110087Y98358D01*
X110645Y98786D01*
X111074Y99345D01*
X111343Y99995D01*
X111435Y100693D01*
X111343Y101391D01*
X111074Y102041D01*
X110645Y102599D01*
X110632Y102610D01*
X110626Y102620D01*
X110614Y102647D01*
X110600Y102690D01*
X110584Y102752D01*
X110571Y102818D01*
X110561Y102924D01*
Y104896D01*
X110561Y104896D01*
X110423Y105594D01*
X110027Y106185D01*
X110027Y106185D01*
X108217Y107995D01*
Y110874D01*
X108717Y111180D01*
X109106Y111020D01*
X109804Y110928D01*
X110502Y111020D01*
X111152Y111289D01*
X111710Y111717D01*
X111720Y111730D01*
X111731Y111736D01*
X111758Y111748D01*
X111801Y111763D01*
X111863Y111779D01*
X111928Y111791D01*
X112035Y111802D01*
X136012D01*
X136219Y111302D01*
X125756Y100838D01*
X125755Y100838D01*
X125717Y100814D01*
X125688Y100800D01*
X125666Y100792D01*
X125648Y100788D01*
X125629Y100786D01*
X125604Y100786D01*
X125570Y100790D01*
X125522Y100801D01*
X125505Y100808D01*
X124807Y100900D01*
X124109Y100808D01*
X123459Y100538D01*
X122901Y100110D01*
X122472Y99551D01*
X122203Y98901D01*
X122111Y98203D01*
X122203Y97505D01*
X122472Y96855D01*
X122901Y96297D01*
X123459Y95868D01*
X124109Y95599D01*
X124807Y95507D01*
X125505Y95599D01*
X126155Y95868D01*
X126714Y96297D01*
X127143Y96855D01*
X127412Y97505D01*
X127415Y97527D01*
X127487Y97761D01*
X127520Y97846D01*
X127562Y97938D01*
X127608Y98026D01*
X127657Y98109D01*
X127710Y98188D01*
X127766Y98261D01*
X137068Y107564D01*
X137598Y107386D01*
X137800Y106897D01*
X138228Y106339D01*
X138787Y105911D01*
X139437Y105641D01*
X140135Y105549D01*
X140833Y105641D01*
X141483Y105911D01*
X142041Y106339D01*
X142056Y106358D01*
X142120Y106419D01*
X142181Y106468D01*
X142239Y106509D01*
X142297Y106542D01*
X142355Y106570D01*
X142415Y106592D01*
X142478Y106610D01*
X142546Y106623D01*
X142552Y106624D01*
X160518D01*
X161139Y106747D01*
X161665Y107099D01*
X165140Y110573D01*
X165717Y110444D01*
X166046Y110015D01*
X166059Y110005D01*
X166065Y109995D01*
X166077Y109968D01*
X166092Y109924D01*
X166108Y109862D01*
X166120Y109797D01*
X166130Y109690D01*
Y103151D01*
X165630Y102904D01*
X165364Y103109D01*
X164714Y103378D01*
X164016Y103470D01*
X163318Y103378D01*
X162668Y103109D01*
X162109Y102680D01*
X161681Y102122D01*
X161411Y101471D01*
X161319Y100774D01*
X161411Y100076D01*
X161681Y99425D01*
X162109Y98867D01*
X162668Y98438D01*
X163266Y98190D01*
X163433Y97831D01*
X163479Y97696D01*
X162780Y96997D01*
X158516D01*
X158417Y97497D01*
X158947Y97717D01*
X159506Y98145D01*
X159934Y98704D01*
X160204Y99354D01*
X160296Y100052D01*
X160204Y100750D01*
X159934Y101400D01*
X159506Y101959D01*
X158947Y102387D01*
X158297Y102656D01*
X157599Y102748D01*
X156901Y102656D01*
X156251Y102387D01*
X155693Y101959D01*
X155264Y101400D01*
X154995Y100750D01*
X154903Y100052D01*
X154995Y99354D01*
X155264Y98704D01*
X155693Y98145D01*
X156251Y97717D01*
X156782Y97497D01*
X156682Y96997D01*
X146892D01*
X146464Y97082D01*
X146464Y97082D01*
X144100D01*
X144100Y97082D01*
X143672Y96997D01*
X137856D01*
X137856Y96997D01*
X137158Y96858D01*
X136567Y96463D01*
X136567Y96463D01*
X132028Y91924D01*
X131500Y92103D01*
X131485Y92214D01*
X131216Y92864D01*
X130788Y93422D01*
X130229Y93851D01*
X129579Y94120D01*
X128881Y94212D01*
X128183Y94120D01*
X127533Y93851D01*
X126974Y93422D01*
X126546Y92864D01*
X126277Y92214D01*
X126185Y91516D01*
X126277Y90818D01*
X126546Y90168D01*
X126735Y89921D01*
X126489Y89421D01*
X113752D01*
X113055Y89282D01*
X112464Y88887D01*
X112464Y88887D01*
X110700Y87123D01*
X110653Y87089D01*
X110603Y87057D01*
X110574Y87043D01*
X110574Y87043D01*
X110499Y87039D01*
X110073Y87095D01*
X109375Y87003D01*
X108725Y86734D01*
X108167Y86305D01*
X107738Y85747D01*
X107469Y85096D01*
X107377Y84399D01*
X107469Y83701D01*
X107738Y83050D01*
X108167Y82492D01*
X108725Y82063D01*
X109375Y81794D01*
X110073Y81702D01*
X110771Y81794D01*
X111421Y82063D01*
X111980Y82492D01*
X112408Y83050D01*
X112677Y83701D01*
X112690Y83799D01*
X112704Y83827D01*
X112715Y83874D01*
X112720Y83886D01*
X112733Y83916D01*
X112758Y83961D01*
X112795Y84021D01*
X112832Y84074D01*
X112982Y84251D01*
X114507Y85776D01*
X130279D01*
X130280Y85776D01*
X130977Y85915D01*
X131568Y86310D01*
X138611Y93352D01*
X140534D01*
X140811Y92936D01*
X140751Y92790D01*
X140659Y92092D01*
X140751Y91394D01*
X141020Y90744D01*
X141448Y90185D01*
X142007Y89757D01*
X142657Y89488D01*
X143355Y89396D01*
X144053Y89488D01*
X144703Y89757D01*
X145262Y90185D01*
X145276Y90204D01*
X145341Y90266D01*
X145402Y90315D01*
X145460Y90356D01*
X145518Y90390D01*
X145576Y90417D01*
X145635Y90439D01*
X145699Y90457D01*
X145767Y90470D01*
X145773Y90471D01*
X165600D01*
X165847Y89971D01*
X165618Y89672D01*
X165348Y89022D01*
X165257Y88324D01*
X165348Y87626D01*
X165618Y86976D01*
X166046Y86418D01*
X166605Y85989D01*
X167255Y85720D01*
X167953Y85628D01*
X168651Y85720D01*
X169301Y85989D01*
X169859Y86418D01*
X170288Y86976D01*
X170557Y87626D01*
X170649Y88324D01*
X170557Y89022D01*
X170288Y89672D01*
X170059Y89971D01*
X170305Y90471D01*
X176804D01*
X176809Y90470D01*
X176873Y90457D01*
X176931Y90440D01*
X176984Y90420D01*
X177035Y90394D01*
X177086Y90363D01*
X177138Y90324D01*
X177192Y90277D01*
X177274Y90192D01*
X177295Y90178D01*
X177344Y90113D01*
X177903Y89685D01*
X178553Y89415D01*
X179251Y89323D01*
X179949Y89415D01*
X180599Y89685D01*
X181158Y90113D01*
X181586Y90672D01*
X181855Y91322D01*
X181947Y92020D01*
X181855Y92718D01*
X181586Y93368D01*
X181158Y93926D01*
X180599Y94355D01*
X179949Y94624D01*
X179251Y94716D01*
X178553Y94624D01*
X177903Y94355D01*
X177500Y94046D01*
X177437Y94010D01*
X177343Y93927D01*
X177276Y93877D01*
X177210Y93834D01*
X177146Y93799D01*
X177081Y93770D01*
X177015Y93747D01*
X176947Y93729D01*
X176874Y93715D01*
X176868Y93714D01*
X165359D01*
X165152Y94214D01*
X169241Y98304D01*
X169241Y98304D01*
X169636Y98895D01*
X169775Y99593D01*
X169775Y99593D01*
Y109722D01*
X169783Y109783D01*
X169798Y109862D01*
X169814Y109924D01*
X169828Y109968D01*
X169840Y109994D01*
X169846Y110005D01*
X169859Y110015D01*
X170188Y110444D01*
X170766Y110573D01*
X185028Y96311D01*
Y85100D01*
X185027Y85094D01*
X185014Y85026D01*
X184996Y84962D01*
X184974Y84903D01*
X184947Y84845D01*
X184913Y84787D01*
X184872Y84728D01*
X184823Y84668D01*
X184762Y84603D01*
X184743Y84589D01*
X184315Y84030D01*
X184045Y83380D01*
X183953Y82682D01*
X184045Y81985D01*
X184315Y81334D01*
X184743Y80776D01*
X185301Y80347D01*
X185952Y80078D01*
X186650Y79986D01*
X187347Y80078D01*
X187998Y80347D01*
X188556Y80776D01*
X188985Y81334D01*
X189254Y81985D01*
X189346Y82682D01*
X189254Y83380D01*
X188985Y84030D01*
X188556Y84589D01*
X188538Y84603D01*
X188476Y84668D01*
X188427Y84728D01*
X188386Y84787D01*
X188353Y84845D01*
X188326Y84903D01*
X188303Y84962D01*
X188285Y85026D01*
X188272Y85094D01*
X188271Y85100D01*
Y96983D01*
X188148Y97604D01*
X187796Y98130D01*
X171856Y114070D01*
X172047Y114532D01*
X181444D01*
X182064Y114656D01*
X182590Y115007D01*
X183906Y116323D01*
X184262Y116276D01*
X184960Y116368D01*
X185610Y116637D01*
X186169Y117066D01*
X186597Y117624D01*
X186867Y118275D01*
X186959Y118972D01*
X186880Y119570D01*
X186888Y119596D01*
X187076Y119840D01*
X187271Y120000D01*
X187723Y119940D01*
X188421Y120032D01*
X189071Y120301D01*
X189629Y120730D01*
X190058Y121288D01*
X190327Y121939D01*
X190419Y122636D01*
X190327Y123334D01*
X190165Y123727D01*
X190469Y124227D01*
X193362D01*
X209237Y108352D01*
Y95648D01*
X208737Y95478D01*
X208671Y95564D01*
X207968Y96103D01*
X207151Y96442D01*
X206273Y96557D01*
X205395Y96442D01*
X204577Y96103D01*
X203875Y95564D01*
X203336Y94862D01*
X202997Y94044D01*
X202882Y93166D01*
X202997Y92288D01*
X203336Y91470D01*
X203875Y90768D01*
X204577Y90229D01*
X205395Y89890D01*
X206273Y89775D01*
X207151Y89890D01*
X207968Y90229D01*
X208671Y90768D01*
X208737Y90854D01*
X209237Y90684D01*
Y84831D01*
X209186Y84824D01*
X208535Y84555D01*
X207977Y84126D01*
X207548Y83568D01*
X207279Y82918D01*
X207187Y82220D01*
X207279Y81522D01*
X207548Y80872D01*
X207977Y80313D01*
X208535Y79885D01*
X209186Y79615D01*
X209883Y79523D01*
X210581Y79615D01*
X211232Y79885D01*
X211790Y80313D01*
X212219Y80872D01*
X212488Y81522D01*
X212580Y82220D01*
X212556Y82404D01*
X212690Y82538D01*
X213129Y83195D01*
X213283Y83969D01*
Y109189D01*
X213129Y109964D01*
X212690Y110620D01*
X195712Y127599D01*
X195827Y128099D01*
X209521D01*
X215534Y122086D01*
X215300Y121612D01*
X214858Y121670D01*
X213981Y121555D01*
X213163Y121216D01*
X212460Y120677D01*
X211922Y119975D01*
X211583Y119157D01*
X211467Y118279D01*
X211583Y117401D01*
X211922Y116584D01*
X212460Y115881D01*
X213163Y115342D01*
X213981Y115004D01*
X214858Y114888D01*
X215736Y115004D01*
X216554Y115342D01*
X217256Y115881D01*
X217795Y116584D01*
X218134Y117401D01*
X218250Y118279D01*
X218134Y119157D01*
X217935Y119638D01*
X218294Y120076D01*
X218299Y120075D01*
X239422D01*
X239522Y120066D01*
X239641Y120047D01*
Y117551D01*
X247813D01*
Y114874D01*
X247313Y114704D01*
X247088Y114997D01*
X246180Y115694D01*
X245123Y116132D01*
X243988Y116282D01*
X242853Y116132D01*
X241796Y115694D01*
X240888Y114997D01*
X240191Y114090D01*
X239753Y113032D01*
X239604Y111898D01*
X239753Y110763D01*
X240191Y109706D01*
X240888Y108798D01*
X241796Y108101D01*
X242853Y107663D01*
X243988Y107514D01*
X245123Y107663D01*
X246180Y108101D01*
X247088Y108798D01*
X247313Y109091D01*
X247813Y108922D01*
Y108422D01*
X246292Y106902D01*
X246199Y106842D01*
X246043Y106764D01*
X245833Y106680D01*
X245569Y106595D01*
X245274Y106518D01*
X244017Y106296D01*
X243524Y106239D01*
X243428Y106208D01*
X242853Y106132D01*
X241796Y105694D01*
X240888Y104998D01*
X240191Y104090D01*
X239753Y103032D01*
X239604Y101898D01*
X239753Y100763D01*
X240191Y99706D01*
X240888Y98798D01*
X241796Y98101D01*
X242853Y97663D01*
X243988Y97514D01*
X245123Y97663D01*
X246180Y98101D01*
X247088Y98798D01*
X247784Y99706D01*
X248222Y100763D01*
X248372Y101898D01*
X248316Y102319D01*
X248325Y102394D01*
X248253Y103266D01*
X248251Y103605D01*
X248268Y103914D01*
X248301Y104180D01*
X248348Y104401D01*
X248404Y104578D01*
X248465Y104711D01*
X248524Y104807D01*
X248527Y104810D01*
X248735Y105019D01*
X249197Y104827D01*
Y21704D01*
X240341Y12848D01*
X239903Y12192D01*
X239749Y11417D01*
Y2023D01*
X38344D01*
X38097Y2523D01*
X38148Y2589D01*
X38417Y3239D01*
X38509Y3937D01*
X38417Y4635D01*
X38148Y5285D01*
X37719Y5844D01*
X37161Y6272D01*
X36510Y6541D01*
X35813Y6633D01*
X35115Y6541D01*
X34464Y6272D01*
X33906Y5844D01*
X33477Y5285D01*
X33208Y4635D01*
X33116Y3937D01*
X33208Y3239D01*
X33477Y2589D01*
X33528Y2523D01*
X33281Y2023D01*
X2024D01*
Y11417D01*
X1870Y12192D01*
X1431Y12848D01*
X-7425Y21704D01*
Y24406D01*
X-6963Y24598D01*
X-2841Y20476D01*
X-2345Y20144D01*
X-1760Y20028D01*
X1084D01*
X1093Y20027D01*
X1148Y20014D01*
X1206Y19995D01*
X1268Y19969D01*
X1335Y19933D01*
X1408Y19887D01*
X1487Y19829D01*
X1571Y19757D01*
X1661Y19670D01*
X1676Y19651D01*
X2235Y19222D01*
X2885Y18953D01*
X3583Y18861D01*
X4281Y18953D01*
X4931Y19222D01*
X5489Y19651D01*
X5504Y19670D01*
X5595Y19757D01*
X5678Y19829D01*
X5757Y19887D01*
X5830Y19933D01*
X5897Y19969D01*
X5959Y19995D01*
X6017Y20014D01*
X6072Y20027D01*
X6082Y20028D01*
X26598D01*
X27183Y20144D01*
X27680Y20476D01*
X28446Y21243D01*
X28897Y20987D01*
X28975Y20392D01*
X29245Y19742D01*
X29673Y19184D01*
X30232Y18755D01*
X30882Y18486D01*
X31580Y18394D01*
X32278Y18486D01*
X32928Y18755D01*
X33486Y19184D01*
X33496Y19197D01*
X33507Y19203D01*
X33534Y19214D01*
X33577Y19229D01*
X33639Y19245D01*
X33705Y19257D01*
X33811Y19268D01*
X40481D01*
X42739Y17010D01*
X42739Y17010D01*
X43330Y16615D01*
X44028Y16476D01*
X50628D01*
X50963Y15976D01*
X50831Y15658D01*
X50798Y15405D01*
X50395Y14954D01*
X49363Y14818D01*
X48401Y14419D01*
X47576Y13786D01*
X46942Y12960D01*
X46544Y11998D01*
X46408Y10967D01*
X46544Y9935D01*
X46942Y8973D01*
X47576Y8147D01*
X48401Y7514D01*
X49363Y7116D01*
X50395Y6980D01*
X51427Y7116D01*
X52388Y7514D01*
X53214Y8147D01*
X53847Y8973D01*
X54246Y9935D01*
X54382Y10967D01*
X54246Y11998D01*
X54203Y12102D01*
X54133Y12356D01*
X54783Y12625D01*
X55342Y13054D01*
X55770Y13612D01*
X55942Y14026D01*
X56442Y13927D01*
Y7014D01*
X64347D01*
Y14919D01*
X56621D01*
X56426Y14936D01*
X56090Y15274D01*
X56040Y15658D01*
X55908Y15976D01*
X56242Y16476D01*
X68494D01*
X68824Y15976D01*
X68679Y15628D01*
X68587Y14930D01*
X68679Y14232D01*
X68949Y13581D01*
X69377Y13023D01*
X69396Y13009D01*
X69457Y12944D01*
X69506Y12884D01*
X69547Y12825D01*
X69581Y12767D01*
X69608Y12709D01*
X69630Y12650D01*
X69648Y12586D01*
X69661Y12518D01*
X69662Y12512D01*
Y9843D01*
X69786Y9222D01*
X70137Y8696D01*
X74013Y4820D01*
X74539Y4468D01*
X75160Y4345D01*
X155412D01*
X156032Y4468D01*
X156559Y4820D01*
X171268Y19530D01*
X185739D01*
X186359Y19653D01*
X186834Y19970D01*
X187513Y19881D01*
X188211Y19973D01*
X188861Y20242D01*
X189420Y20670D01*
X189848Y21229D01*
X190008Y21614D01*
X190579Y21749D01*
X191313Y21016D01*
X191319Y20988D01*
X191844Y20201D01*
X192631Y19676D01*
X193558Y19491D01*
X208844D01*
X209772Y19676D01*
X210559Y20201D01*
X211085Y20988D01*
X211090Y21016D01*
X212887Y22813D01*
X212965Y22876D01*
X213083Y22961D01*
X213186Y23025D01*
X213270Y23070D01*
X213334Y23097D01*
X213376Y23110D01*
X213385Y23112D01*
X213427Y23107D01*
X214305Y23222D01*
X215122Y23561D01*
X215825Y24100D01*
X216364Y24802D01*
X216703Y25620D01*
X216818Y26498D01*
X216703Y27376D01*
X216364Y28193D01*
X215825Y28896D01*
X215122Y29435D01*
X214305Y29774D01*
X213427Y29889D01*
X212549Y29774D01*
X211731Y29435D01*
X211029Y28896D01*
X210490Y28193D01*
X210151Y27376D01*
X210036Y26498D01*
X210041Y26456D01*
X210039Y26447D01*
X210026Y26405D01*
X209999Y26341D01*
X209954Y26256D01*
X209890Y26154D01*
X209812Y26046D01*
X209713Y25929D01*
X208124Y24340D01*
X204095D01*
X203849Y24840D01*
X204012Y25052D01*
X204350Y25870D01*
X204466Y26748D01*
X204350Y27626D01*
X204120Y28180D01*
X204323Y28415D01*
X204516Y28531D01*
X205266Y28221D01*
X206143Y28105D01*
X207021Y28221D01*
X207839Y28559D01*
X208541Y29098D01*
X209080Y29801D01*
X209419Y30619D01*
X209535Y31496D01*
X209419Y32374D01*
X209080Y33192D01*
X208541Y33894D01*
X207839Y34433D01*
X207021Y34772D01*
X206143Y34888D01*
X205266Y34772D01*
X204636Y34511D01*
X204606Y34531D01*
X203678Y34716D01*
X169616D01*
X168688Y34531D01*
X167901Y34006D01*
X156077Y22181D01*
X130845D01*
X130511Y22681D01*
X130650Y23016D01*
X130742Y23714D01*
X130650Y24411D01*
X130381Y25062D01*
X129952Y25620D01*
X129394Y26049D01*
X128744Y26318D01*
X128046Y26410D01*
X127348Y26318D01*
X126698Y26049D01*
X126139Y25620D01*
X126005Y25446D01*
X125952Y25405D01*
X125932Y25383D01*
X125932Y25382D01*
X125904Y25371D01*
X125858Y25357D01*
X125791Y25343D01*
X125731Y25335D01*
X123951D01*
X113962Y35323D01*
X113924Y35372D01*
X113878Y35439D01*
X113846Y35494D01*
X113825Y35535D01*
X113815Y35563D01*
X113812Y35574D01*
X113814Y35590D01*
X113722Y36288D01*
X113625Y36523D01*
X113959Y37023D01*
X119763D01*
X119763Y37023D01*
X120460Y37161D01*
X121052Y37557D01*
X126813Y43318D01*
X126862Y43356D01*
X126929Y43402D01*
X126984Y43435D01*
X127025Y43455D01*
X127053Y43465D01*
X127064Y43469D01*
X127081Y43466D01*
X127778Y43558D01*
X128429Y43828D01*
X128987Y44256D01*
X129416Y44815D01*
X129685Y45465D01*
X129777Y46163D01*
X129685Y46861D01*
X129620Y47017D01*
X130044Y47301D01*
X131757Y45587D01*
X132283Y45236D01*
X132904Y45112D01*
X178003D01*
X178103Y44612D01*
X177738Y44461D01*
X177180Y44033D01*
X176751Y43474D01*
X176482Y42824D01*
X176390Y42126D01*
X176482Y41428D01*
X176566Y41224D01*
X176232Y40724D01*
X154786D01*
X154724Y40732D01*
X154646Y40747D01*
X154587Y40762D01*
X154546Y40777D01*
X154521Y40788D01*
X154513Y40793D01*
X154491Y40813D01*
X154472Y40838D01*
X153914Y41267D01*
X153263Y41536D01*
X152566Y41628D01*
X151868Y41536D01*
X151217Y41267D01*
X150659Y40838D01*
X150230Y40280D01*
X149961Y39630D01*
X149869Y38932D01*
X149489Y38653D01*
X133357D01*
X131725Y40284D01*
X131687Y40333D01*
X131641Y40400D01*
X131609Y40455D01*
X131589Y40496D01*
X131578Y40523D01*
X131575Y40535D01*
X131577Y40551D01*
X131485Y41249D01*
X131216Y41900D01*
X130788Y42458D01*
X130229Y42886D01*
X129579Y43156D01*
X128881Y43248D01*
X128183Y43156D01*
X127533Y42886D01*
X126974Y42458D01*
X126546Y41900D01*
X126277Y41249D01*
X126185Y40551D01*
X126277Y39854D01*
X126546Y39203D01*
X126974Y38645D01*
X127533Y38216D01*
X128183Y37947D01*
X128881Y37855D01*
X128897Y37857D01*
X128909Y37854D01*
X128936Y37844D01*
X128978Y37823D01*
X129033Y37791D01*
X129088Y37753D01*
X129170Y37685D01*
X131313Y35542D01*
X131904Y35147D01*
X132602Y35008D01*
X132602Y35008D01*
X150464D01*
X150464Y35008D01*
X151162Y35147D01*
X151753Y35542D01*
X152298Y36088D01*
X152347Y36125D01*
X152414Y36171D01*
X152469Y36204D01*
X152510Y36224D01*
X152537Y36235D01*
X152549Y36238D01*
X152566Y36236D01*
X153263Y36327D01*
X153914Y36597D01*
X154378Y36953D01*
X154410Y36972D01*
X154448Y37005D01*
X154449Y37006D01*
X154463Y37013D01*
X154492Y37026D01*
X154538Y37041D01*
X154602Y37057D01*
X154670Y37069D01*
X154775Y37079D01*
X185389D01*
X185451Y37071D01*
X185528Y37057D01*
X185588Y37041D01*
X185629Y37026D01*
X185653Y37015D01*
X185661Y37011D01*
X185683Y36990D01*
X185703Y36965D01*
X186261Y36536D01*
X186911Y36267D01*
X187609Y36175D01*
X188307Y36267D01*
X188957Y36536D01*
X189516Y36965D01*
X189944Y37523D01*
X190214Y38174D01*
X190305Y38871D01*
X190214Y39569D01*
X189944Y40220D01*
X189832Y40366D01*
X190004Y40963D01*
X190416Y41279D01*
X190845Y41838D01*
X191114Y42488D01*
X191206Y43186D01*
X191114Y43884D01*
X190845Y44534D01*
X190416Y45092D01*
X189857Y45521D01*
X189207Y45790D01*
X188509Y45882D01*
X188486Y45879D01*
X188397Y45881D01*
X188320Y45889D01*
X188249Y45902D01*
X188185Y45919D01*
X188124Y45941D01*
X188066Y45967D01*
X188009Y45999D01*
X187951Y46038D01*
X187947Y46042D01*
X186108Y47881D01*
X185582Y48232D01*
X184961Y48356D01*
X133576D01*
X131188Y50744D01*
X130763Y51028D01*
X130854Y51528D01*
X173967D01*
X173972Y51527D01*
X174041Y51514D01*
X174104Y51496D01*
X174164Y51474D01*
X174222Y51446D01*
X174279Y51413D01*
X174338Y51372D01*
X174398Y51323D01*
X174463Y51262D01*
X174477Y51243D01*
X175036Y50814D01*
X175686Y50545D01*
X176384Y50453D01*
X177082Y50545D01*
X177732Y50814D01*
X178290Y51243D01*
X178719Y51801D01*
X178988Y52452D01*
X179080Y53150D01*
X178991Y53828D01*
X178989Y53932D01*
X179296Y54328D01*
X212877D01*
X213184Y53932D01*
X213182Y53828D01*
X213093Y53150D01*
X213185Y52452D01*
X213454Y51801D01*
X213882Y51243D01*
X214441Y50814D01*
X215091Y50545D01*
X215789Y50453D01*
X216487Y50545D01*
X217137Y50814D01*
X217696Y51243D01*
X218124Y51801D01*
X218393Y52452D01*
X218485Y53150D01*
X218396Y53828D01*
X218394Y53932D01*
X218701Y54328D01*
X239232D01*
X239240Y54316D01*
X239316Y54164D01*
X239391Y53971D01*
X239459Y53734D01*
X239518Y53456D01*
X239564Y53148D01*
X239618Y52366D01*
X239621Y52029D01*
X239604Y51898D01*
X239753Y50763D01*
X240191Y49706D01*
X240888Y48798D01*
X241796Y48101D01*
X242853Y47663D01*
X243988Y47514D01*
X245123Y47663D01*
X246180Y48101D01*
X247088Y48798D01*
X247784Y49706D01*
X248222Y50763D01*
X248372Y51898D01*
X248222Y53032D01*
X247784Y54090D01*
X247088Y54997D01*
X246180Y55694D01*
X245123Y56132D01*
X243988Y56282D01*
X243871Y56266D01*
X243099Y56287D01*
X242750Y56320D01*
X242430Y56367D01*
X242151Y56426D01*
X241915Y56495D01*
X241721Y56569D01*
X241570Y56645D01*
X241464Y56715D01*
X241083Y57096D01*
X240557Y57448D01*
X239936Y57571D01*
X199027D01*
X198809Y58071D01*
X198825Y58088D01*
X237499D01*
X237499Y58088D01*
X238196Y58227D01*
X238787Y58622D01*
X239261Y59096D01*
X239323D01*
X239424Y59082D01*
X239898Y58964D01*
X240127Y58887D01*
X241521Y58264D01*
X241723Y58157D01*
X241796Y58101D01*
X242853Y57663D01*
X243988Y57514D01*
X245123Y57663D01*
X246180Y58101D01*
X247088Y58798D01*
X247784Y59706D01*
X248222Y60763D01*
X248372Y61898D01*
X248222Y63032D01*
X247784Y64090D01*
X247088Y64998D01*
X246180Y65694D01*
X245123Y66132D01*
X243988Y66282D01*
X242853Y66132D01*
X241796Y65694D01*
X240888Y64998D01*
X240191Y64090D01*
X240129Y63938D01*
X239963Y63644D01*
X239812Y63418D01*
X239662Y63232D01*
X239515Y63082D01*
X239373Y62965D01*
X239234Y62876D01*
X239097Y62811D01*
X238956Y62765D01*
X238825Y62741D01*
X238506D01*
X238506Y62741D01*
X237809Y62602D01*
X237217Y62207D01*
X237217Y62207D01*
X236744Y61733D01*
X198463D01*
X198402Y61741D01*
X198322Y61756D01*
X198260Y61772D01*
X198217Y61787D01*
X198190Y61798D01*
X198180Y61804D01*
X198170Y61818D01*
X197611Y62246D01*
X196961Y62515D01*
X196263Y62607D01*
X195565Y62515D01*
X194915Y62246D01*
X194356Y61818D01*
X193928Y61259D01*
X193658Y60609D01*
X193567Y59911D01*
X193658Y59213D01*
X193928Y58563D01*
X194305Y58071D01*
X194241Y57810D01*
X194099Y57571D01*
X147734D01*
X147728Y57572D01*
X147660Y57585D01*
X147597Y57603D01*
X147537Y57626D01*
X147479Y57653D01*
X147421Y57686D01*
X147362Y57727D01*
X147302Y57776D01*
X147237Y57838D01*
X147223Y57856D01*
X146665Y58285D01*
X146014Y58554D01*
X145317Y58646D01*
X144619Y58554D01*
X143968Y58285D01*
X143410Y57856D01*
X142982Y57298D01*
X142712Y56647D01*
X142620Y55950D01*
X142710Y55271D01*
X142712Y55167D01*
X142404Y54771D01*
X118480D01*
X118140Y55249D01*
X118141Y55271D01*
X118230Y55950D01*
X118138Y56647D01*
X117869Y57298D01*
X117440Y57856D01*
X116882Y58285D01*
X116232Y58554D01*
X115534Y58646D01*
X114836Y58554D01*
X114186Y58285D01*
X113627Y57856D01*
X113199Y57298D01*
X112929Y56647D01*
X112837Y55950D01*
X112929Y55252D01*
X113199Y54602D01*
X113627Y54043D01*
X114186Y53615D01*
X114836Y53345D01*
X115106Y53310D01*
X115285Y52782D01*
X114322Y51819D01*
X91398D01*
X90777Y51695D01*
X90251Y51344D01*
X81498Y42590D01*
X66320D01*
X66150Y43091D01*
X66513Y43369D01*
X66942Y43928D01*
X67211Y44578D01*
X67303Y45276D01*
X67211Y45974D01*
X66942Y46624D01*
X66513Y47183D01*
X65955Y47611D01*
X65305Y47880D01*
X64607Y47972D01*
X63909Y47880D01*
X63259Y47611D01*
X62700Y47183D01*
X62272Y46624D01*
X62002Y45974D01*
X61910Y45276D01*
X62002Y44578D01*
X62272Y43928D01*
X62700Y43369D01*
X63064Y43091D01*
X62894Y42590D01*
X57671D01*
X57337Y43091D01*
X57462Y43394D01*
X57554Y44092D01*
X57462Y44790D01*
X57193Y45440D01*
X56765Y45998D01*
X56206Y46427D01*
X55556Y46696D01*
X54858Y46788D01*
X54160Y46696D01*
X53510Y46427D01*
X52951Y45998D01*
X52523Y45440D01*
X52254Y44790D01*
X52162Y44092D01*
X52254Y43394D01*
X52379Y43091D01*
X52045Y42590D01*
X46144D01*
X45974Y43091D01*
X46342Y43373D01*
X46771Y43931D01*
X47040Y44581D01*
X47132Y45279D01*
X47040Y45977D01*
X46771Y46627D01*
X46342Y47186D01*
X46258Y47250D01*
Y47750D01*
X46285Y47771D01*
X46714Y48329D01*
X46983Y48979D01*
X47075Y49677D01*
X46983Y50375D01*
X46714Y51025D01*
X46285Y51584D01*
X45727Y52012D01*
X45076Y52282D01*
X44378Y52374D01*
X43681Y52282D01*
X43030Y52012D01*
X42472Y51584D01*
X42043Y51025D01*
X41774Y50375D01*
X41682Y49677D01*
X41774Y48979D01*
X42043Y48329D01*
X42472Y47771D01*
X42556Y47706D01*
Y47206D01*
X42529Y47186D01*
X42101Y46627D01*
X41831Y45977D01*
X41739Y45279D01*
X41782Y44956D01*
X41447Y44726D01*
X41315Y44672D01*
X40698Y44928D01*
X40001Y45019D01*
X39303Y44928D01*
X38652Y44658D01*
X38094Y44230D01*
X37665Y43671D01*
X37396Y43021D01*
X37304Y42323D01*
X37396Y41625D01*
X37665Y40975D01*
X38094Y40417D01*
X38652Y39988D01*
X39303Y39719D01*
X40001Y39627D01*
X40698Y39719D01*
X40751Y39740D01*
X41154Y39470D01*
X41775Y39347D01*
X82170D01*
X82790Y39470D01*
X83316Y39822D01*
X90268Y46774D01*
X90759Y46558D01*
X90828Y46036D01*
X91097Y45386D01*
X91526Y44828D01*
X92084Y44399D01*
X92734Y44130D01*
X93432Y44038D01*
X94130Y44130D01*
X94780Y44399D01*
X95339Y44828D01*
X95353Y44846D01*
X95418Y44908D01*
X95478Y44957D01*
X95537Y44998D01*
X95595Y45031D01*
X95653Y45058D01*
X95713Y45081D01*
X95776Y45099D01*
X95844Y45112D01*
X95850Y45112D01*
X113857D01*
X114027Y44612D01*
X113849Y44476D01*
X113421Y43918D01*
X113152Y43267D01*
X113060Y42570D01*
X113152Y41872D01*
X113421Y41221D01*
X113502Y41116D01*
X113281Y40668D01*
X112011D01*
X111707Y41168D01*
X111782Y41734D01*
X111690Y42432D01*
X111421Y43082D01*
X110992Y43640D01*
X110434Y44069D01*
X109783Y44338D01*
X109086Y44430D01*
X108388Y44338D01*
X107738Y44069D01*
X107179Y43640D01*
X106751Y43082D01*
X106481Y42432D01*
X106389Y41734D01*
X106464Y41168D01*
X106160Y40668D01*
X100887D01*
X100887Y40668D01*
X100190Y40529D01*
X99599Y40134D01*
X99599Y40134D01*
X90719Y31254D01*
X90237Y31479D01*
X90166Y32017D01*
X89897Y32667D01*
X89468Y33226D01*
X88910Y33654D01*
X88259Y33923D01*
X87562Y34015D01*
X86864Y33923D01*
X86213Y33654D01*
X85655Y33226D01*
X85226Y32667D01*
X84957Y32017D01*
X84865Y31319D01*
X84917Y30922D01*
X84913Y30843D01*
X84913Y30838D01*
X84896Y30806D01*
X84864Y30754D01*
X84829Y30707D01*
X84267Y30145D01*
X78332D01*
X78332Y30145D01*
X77634Y30007D01*
X77043Y29612D01*
X74356Y26924D01*
X73704Y26980D01*
X73519Y27222D01*
X72960Y27650D01*
X72784Y27723D01*
X72730Y27863D01*
X72730Y28286D01*
X73163Y28618D01*
X73592Y29177D01*
X73861Y29827D01*
X73953Y30525D01*
X73861Y31223D01*
X73700Y31610D01*
X73574Y32099D01*
X74133Y32528D01*
X74561Y33086D01*
X74831Y33737D01*
X74923Y34434D01*
X74831Y35132D01*
X74561Y35783D01*
X74133Y36341D01*
X73574Y36770D01*
X72924Y37039D01*
X72226Y37131D01*
X71528Y37039D01*
X70878Y36770D01*
X70320Y36341D01*
X69891Y35783D01*
X69622Y35132D01*
X69530Y34434D01*
X69622Y33737D01*
X69782Y33349D01*
X69908Y32860D01*
X69350Y32432D01*
X68922Y31873D01*
X68652Y31223D01*
X68560Y30525D01*
X68599Y30228D01*
X68119Y30048D01*
X67797Y30529D01*
X67108Y30990D01*
X66295Y31151D01*
X65483Y30990D01*
X64794Y30529D01*
X64333Y29840D01*
X64172Y29028D01*
X64333Y28215D01*
X64709Y27654D01*
X64520Y27154D01*
X56726D01*
X55951Y27000D01*
X55295Y26561D01*
X54194Y25461D01*
X54147D01*
X54075Y25466D01*
X54007Y25475D01*
X54000Y25477D01*
X53615Y25773D01*
X52964Y26042D01*
X52487Y26105D01*
X52298Y26267D01*
X51981Y26584D01*
X52137Y27135D01*
X52722Y27526D01*
X53182Y28215D01*
X53344Y29028D01*
X53182Y29840D01*
X52722Y30529D01*
X52033Y30989D01*
X51221Y31151D01*
X50408Y30989D01*
X49719Y30529D01*
X49259Y29840D01*
X49097Y29028D01*
X49178Y28618D01*
X48768Y28118D01*
X41855D01*
X41464Y28618D01*
X41553Y29069D01*
X41392Y29882D01*
X40931Y30571D01*
X40242Y31031D01*
X39430Y31193D01*
X38617Y31031D01*
X37928Y30571D01*
X37468Y29882D01*
X37306Y29069D01*
X37396Y28618D01*
X37005Y28118D01*
X28266D01*
X27908Y28618D01*
X28011Y29139D01*
X27850Y29952D01*
X27389Y30641D01*
X26700Y31101D01*
X25888Y31262D01*
X25075Y31101D01*
X24386Y30641D01*
X23926Y29952D01*
X23764Y29139D01*
X23868Y28618D01*
X23509Y28118D01*
X21984D01*
X21912Y28124D01*
X21845Y28133D01*
X21838Y28134D01*
X21452Y28430D01*
X20802Y28699D01*
X20104Y28791D01*
X19406Y28699D01*
X18756Y28430D01*
X18239Y28033D01*
X18223Y28031D01*
X18085Y28022D01*
X13674D01*
X12900Y27867D01*
X12244Y27429D01*
X10970Y26156D01*
X8416D01*
X8344Y26161D01*
X8276Y26170D01*
X8269Y26172D01*
X7884Y26468D01*
X7233Y26737D01*
X7079Y26757D01*
X7032Y26795D01*
X6813Y27297D01*
X7368Y28335D01*
X7785Y29711D01*
X7926Y31142D01*
X7785Y32573D01*
X7368Y33949D01*
X6690Y35217D01*
X5778Y36328D01*
X4666Y37240D01*
X3398Y37918D01*
X2022Y38335D01*
X592Y38476D01*
X-840Y38335D01*
X-2215Y37918D01*
X-3483Y37240D01*
X-4595Y36328D01*
X-4692Y36210D01*
X-5163Y36378D01*
Y135905D01*
X-4692Y136074D01*
X-4595Y135956D01*
D02*
G37*
G36*
X181795Y123721D02*
X181909Y123618D01*
X182027Y123526D01*
X182152Y123447D01*
X182283Y123380D01*
X182420Y123325D01*
X182562Y123282D01*
X182710Y123251D01*
X182864Y123233D01*
X183024Y123227D01*
X182939Y122046D01*
X182782Y122040D01*
X182628Y122024D01*
X182478Y121997D01*
X182331Y121959D01*
X182188Y121909D01*
X182049Y121849D01*
X181914Y121778D01*
X181782Y121697D01*
X181654Y121604D01*
X181530Y121500D01*
X181688Y123837D01*
X181795Y123721D01*
D02*
G37*
G36*
X186528Y121465D02*
X186412Y121575D01*
X186291Y121674D01*
X186165Y121761D01*
X186035Y121837D01*
X185900Y121901D01*
X185760Y121953D01*
X185615Y121994D01*
X185466Y122023D01*
X185312Y122040D01*
X185153Y122046D01*
Y123227D01*
X185312Y123233D01*
X185466Y123250D01*
X185615Y123279D01*
X185760Y123320D01*
X185900Y123372D01*
X186035Y123436D01*
X186165Y123512D01*
X186291Y123599D01*
X186412Y123697D01*
X186528Y123808D01*
Y121465D01*
D02*
G37*
G36*
X240666Y120323D02*
X240650Y120472D01*
X240602Y120606D01*
X240523Y120724D01*
X240412Y120827D01*
X240269Y120913D01*
X240094Y120984D01*
X239888Y121039D01*
X239650Y121079D01*
X239380Y121102D01*
X239079Y121110D01*
Y122685D01*
X239380Y122693D01*
X239650Y122716D01*
X239888Y122756D01*
X240094Y122811D01*
X240269Y122882D01*
X240412Y122968D01*
X240523Y123071D01*
X240602Y123189D01*
X240650Y123323D01*
X240666Y123472D01*
Y120323D01*
D02*
G37*
G36*
X177928Y123727D02*
X177812Y123447D01*
X177720Y122749D01*
X177812Y122051D01*
X178082Y121401D01*
X178510Y120843D01*
X179069Y120414D01*
X179719Y120145D01*
X180417Y120053D01*
X181115Y120145D01*
X181354Y120244D01*
X181737Y119861D01*
X181658Y119670D01*
X181566Y118972D01*
X181613Y118616D01*
X180772Y117776D01*
X166332D01*
X166054Y118191D01*
X166139Y118397D01*
X166231Y119095D01*
X166139Y119792D01*
X165870Y120443D01*
X165442Y121001D01*
X164883Y121430D01*
X164233Y121699D01*
X163535Y121791D01*
X162837Y121699D01*
X162187Y121430D01*
X161656Y121022D01*
X147613D01*
X147284Y121522D01*
X147429Y121872D01*
X147521Y122570D01*
X147429Y123268D01*
X147239Y123727D01*
X147505Y124227D01*
X177594D01*
X177928Y123727D01*
D02*
G37*
G36*
X117682Y118110D02*
X117774Y118046D01*
X117877Y117990D01*
X117990Y117942D01*
X118114Y117901D01*
X118248Y117867D01*
X118393Y117841D01*
X118549Y117822D01*
X118891Y117807D01*
X118929Y116232D01*
X118753Y116228D01*
X118432Y116197D01*
X118288Y116169D01*
X118155Y116134D01*
X118032Y116091D01*
X117920Y116039D01*
X117819Y115980D01*
X117729Y115913D01*
X117650Y115839D01*
X117600Y118181D01*
X117682Y118110D01*
D02*
G37*
G36*
X153584Y113592D02*
X153447Y113635D01*
X153311Y113661D01*
X153177Y113671D01*
X153045Y113662D01*
X152915Y113637D01*
X152787Y113595D01*
X152661Y113535D01*
X152536Y113458D01*
X152413Y113364D01*
X152293Y113253D01*
X151791Y114421D01*
X151895Y114531D01*
X152089Y114763D01*
X152178Y114886D01*
X152339Y115145D01*
X152411Y115281D01*
X152540Y115566D01*
X152596Y115716D01*
X153584Y113592D01*
D02*
G37*
G36*
X152124Y116878D02*
X151838Y116506D01*
X151696Y116162D01*
X151642Y116075D01*
X151597Y115956D01*
X151495Y115731D01*
X151455Y115655D01*
X151330Y115455D01*
X151283Y115389D01*
X151198Y115287D01*
X148493Y112581D01*
X140561D01*
X140391Y113081D01*
X140407Y113093D01*
X140835Y113652D01*
X141104Y114302D01*
X141196Y115000D01*
X141104Y115698D01*
X140835Y116348D01*
X140429Y116878D01*
X140451Y117008D01*
X140614Y117378D01*
X151886D01*
X152124Y116878D01*
D02*
G37*
G36*
X163054Y113074D02*
X159847Y109867D01*
X151019D01*
X150827Y110329D01*
X153116Y112618D01*
X153147Y112637D01*
X153166Y112646D01*
X153174Y112649D01*
X153174Y112649D01*
X153179Y112648D01*
X153195Y112645D01*
X153277Y112619D01*
X153330Y112614D01*
X153476Y112553D01*
X154174Y112461D01*
X154871Y112553D01*
X155522Y112823D01*
X156080Y113251D01*
X156299Y113536D01*
X162862D01*
X163054Y113074D01*
D02*
G37*
G36*
X111079Y114722D02*
X111170Y114657D01*
X111272Y114599D01*
X111385Y114550D01*
X111508Y114507D01*
X111642Y114473D01*
X111786Y114446D01*
X111942Y114427D01*
X112108Y114415D01*
X112284Y114411D01*
Y112837D01*
X112108Y112833D01*
X111786Y112802D01*
X111642Y112775D01*
X111508Y112741D01*
X111385Y112698D01*
X111272Y112648D01*
X111170Y112591D01*
X111079Y112526D01*
X110999Y112453D01*
Y114795D01*
X111079Y114722D01*
D02*
G37*
G36*
X169051Y110646D02*
X168986Y110555D01*
X168928Y110453D01*
X168878Y110340D01*
X168836Y110217D01*
X168802Y110083D01*
X168775Y109939D01*
X168756Y109784D01*
X168744Y109618D01*
X168740Y109441D01*
X167165D01*
X167162Y109618D01*
X167131Y109939D01*
X167104Y110083D01*
X167069Y110217D01*
X167027Y110340D01*
X166977Y110453D01*
X166920Y110555D01*
X166855Y110646D01*
X166782Y110727D01*
X169124D01*
X169051Y110646D01*
D02*
G37*
G36*
X141446Y109306D02*
X141567Y109208D01*
X141692Y109121D01*
X141823Y109045D01*
X141958Y108981D01*
X142098Y108929D01*
X142242Y108888D01*
X142392Y108859D01*
X142546Y108842D01*
X142704Y108836D01*
Y107655D01*
X142546Y107649D01*
X142392Y107632D01*
X142242Y107603D01*
X142098Y107562D01*
X141958Y107510D01*
X141823Y107446D01*
X141692Y107370D01*
X141567Y107283D01*
X141446Y107185D01*
X141330Y107074D01*
Y109417D01*
X141446Y109306D01*
D02*
G37*
G36*
X52467Y121816D02*
X52514Y121761D01*
X52555Y121707D01*
X52559Y121701D01*
X52623Y121219D01*
X52892Y120569D01*
X53321Y120010D01*
X53528Y119851D01*
X53294Y119546D01*
X53024Y118895D01*
X52932Y118198D01*
X53024Y117500D01*
X53294Y116850D01*
X53722Y116291D01*
X54280Y115863D01*
X54931Y115593D01*
X55629Y115501D01*
X56326Y115593D01*
X56495Y115663D01*
X56995Y115329D01*
Y114327D01*
X53614Y110947D01*
X53219Y110355D01*
X53080Y109658D01*
X53080Y109658D01*
Y106752D01*
X53073Y106691D01*
X53058Y106611D01*
X53042Y106549D01*
X53027Y106506D01*
X53015Y106479D01*
X53009Y106468D01*
X52996Y106458D01*
X52595Y105935D01*
X52540Y105933D01*
X52095Y106227D01*
Y116019D01*
X51979Y116601D01*
X51649Y117095D01*
X51649Y117095D01*
X43912Y124832D01*
X44103Y125294D01*
X48989D01*
X52467Y121816D01*
D02*
G37*
G36*
X55694Y106856D02*
X55725Y106535D01*
X55752Y106390D01*
X55786Y106256D01*
X55828Y106133D01*
X55878Y106020D01*
X55936Y105919D01*
X56001Y105827D01*
X56074Y105747D01*
X53732D01*
X53805Y105827D01*
X53870Y105919D01*
X53927Y106020D01*
X53977Y106133D01*
X54019Y106256D01*
X54054Y106390D01*
X54081Y106535D01*
X54100Y106690D01*
X54112Y106856D01*
X54115Y107032D01*
X55690D01*
X55694Y106856D01*
D02*
G37*
G36*
X247858Y105597D02*
X247699Y105411D01*
X247563Y105193D01*
X247451Y104943D01*
X247361Y104662D01*
X247295Y104350D01*
X247251Y104005D01*
X247231Y103629D01*
X247234Y103221D01*
X247309Y102310D01*
X243642Y105226D01*
X244164Y105287D01*
X245492Y105521D01*
X245855Y105616D01*
X246178Y105720D01*
X246461Y105833D01*
X246703Y105954D01*
X246906Y106084D01*
X247069Y106222D01*
X247858Y105597D01*
D02*
G37*
G36*
X109530Y102997D02*
X109561Y102676D01*
X109588Y102531D01*
X109622Y102397D01*
X109664Y102274D01*
X109714Y102162D01*
X109772Y102060D01*
X109837Y101968D01*
X109910Y101888D01*
X107568D01*
X107640Y101968D01*
X107706Y102060D01*
X107763Y102162D01*
X107813Y102274D01*
X107855Y102397D01*
X107890Y102531D01*
X107917Y102676D01*
X107936Y102831D01*
X107948Y102997D01*
X107951Y103173D01*
X109526D01*
X109530Y102997D01*
D02*
G37*
G36*
X127176Y99130D02*
X127071Y99018D01*
X126972Y98902D01*
X126880Y98780D01*
X126795Y98654D01*
X126717Y98523D01*
X126646Y98386D01*
X126581Y98245D01*
X126523Y98098D01*
X126429Y97790D01*
X125253Y99816D01*
X125399Y99783D01*
X125541Y99767D01*
X125681Y99766D01*
X125819Y99781D01*
X125953Y99812D01*
X126084Y99858D01*
X126213Y99921D01*
X126338Y100000D01*
X126461Y100094D01*
X126581Y100205D01*
X127176Y99130D01*
D02*
G37*
G36*
X144666Y93153D02*
X144787Y93055D01*
X144913Y92968D01*
X145043Y92892D01*
X145178Y92828D01*
X145318Y92776D01*
X145462Y92735D01*
X145612Y92706D01*
X145766Y92689D01*
X145924Y92683D01*
X145925Y91502D01*
X145766Y91496D01*
X145612Y91479D01*
X145463Y91450D01*
X145318Y91409D01*
X145178Y91357D01*
X145043Y91293D01*
X144913Y91217D01*
X144787Y91130D01*
X144667Y91032D01*
X144550Y90921D01*
X144550Y93264D01*
X144666Y93153D01*
D02*
G37*
G36*
X178006Y90902D02*
X177895Y91016D01*
X177779Y91118D01*
X177658Y91208D01*
X177531Y91286D01*
X177399Y91352D01*
X177261Y91406D01*
X177118Y91448D01*
X176969Y91478D01*
X176815Y91496D01*
X176656Y91502D01*
X176711Y92683D01*
X176869Y92689D01*
X177023Y92706D01*
X177173Y92734D01*
X177318Y92773D01*
X177460Y92823D01*
X177598Y92884D01*
X177731Y92957D01*
X177861Y93041D01*
X177987Y93136D01*
X178108Y93242D01*
X178006Y90902D01*
D02*
G37*
G36*
X55864Y89064D02*
X55867Y88934D01*
X55879Y88798D01*
X55923Y88509D01*
X55957Y88355D01*
X56046Y88029D01*
X56165Y87678D01*
X56236Y87494D01*
X54107Y88448D01*
X54254Y88510D01*
X54385Y88582D01*
X54501Y88665D01*
X54601Y88758D01*
X54686Y88862D01*
X54756Y88977D01*
X54810Y89102D01*
X54848Y89238D01*
X54872Y89384D01*
X54879Y89541D01*
X55864Y89064D01*
D02*
G37*
G36*
X112454Y85187D02*
X112330Y85059D01*
X112025Y84698D01*
X111945Y84585D01*
X111877Y84475D01*
X111820Y84370D01*
X111774Y84268D01*
X111739Y84170D01*
X111715Y84076D01*
X110428Y86034D01*
X110536Y86018D01*
X110645Y86018D01*
X110757Y86033D01*
X110871Y86063D01*
X110988Y86109D01*
X111107Y86170D01*
X111228Y86246D01*
X111352Y86337D01*
X111477Y86444D01*
X111606Y86565D01*
X112454Y85187D01*
D02*
G37*
G36*
X187246Y85093D02*
X187264Y84939D01*
X187293Y84790D01*
X187333Y84645D01*
X187385Y84505D01*
X187449Y84370D01*
X187525Y84240D01*
X187612Y84114D01*
X187711Y83993D01*
X187821Y83877D01*
X185478D01*
X185589Y83993D01*
X185687Y84114D01*
X185775Y84240D01*
X185850Y84370D01*
X185914Y84505D01*
X185966Y84645D01*
X186007Y84790D01*
X186036Y84939D01*
X186053Y85093D01*
X186059Y85252D01*
X187240D01*
X187246Y85093D01*
D02*
G37*
G36*
X242388Y58958D02*
X241968Y59181D01*
X240498Y59838D01*
X240184Y59943D01*
X239619Y60084D01*
X239368Y60119D01*
X239138Y60131D01*
X238639Y61706D01*
X238929Y61723D01*
X239208Y61775D01*
X239475Y61862D01*
X239730Y61983D01*
X239973Y62139D01*
X240205Y62329D01*
X240426Y62555D01*
X240634Y62814D01*
X240832Y63109D01*
X241017Y63438D01*
X242388Y58958D01*
D02*
G37*
G36*
X197538Y61009D02*
X197630Y60944D01*
X197732Y60886D01*
X197844Y60836D01*
X197967Y60794D01*
X198101Y60760D01*
X198246Y60733D01*
X198401Y60714D01*
X198567Y60702D01*
X198743Y60698D01*
Y59123D01*
X198567Y59120D01*
X198246Y59089D01*
X198101Y59062D01*
X197967Y59027D01*
X197844Y58985D01*
X197732Y58935D01*
X197630Y58878D01*
X197538Y58813D01*
X197458Y58740D01*
Y61082D01*
X197538Y61009D01*
D02*
G37*
G36*
X146628Y57011D02*
X146749Y56912D01*
X146874Y56825D01*
X147005Y56749D01*
X147140Y56685D01*
X147280Y56633D01*
X147424Y56593D01*
X147573Y56563D01*
X147727Y56546D01*
X147886Y56540D01*
Y55359D01*
X147727Y55353D01*
X147573Y55336D01*
X147424Y55307D01*
X147280Y55266D01*
X147140Y55214D01*
X147005Y55150D01*
X146874Y55075D01*
X146749Y54987D01*
X146628Y54889D01*
X146511Y54778D01*
Y57121D01*
X146628Y57011D01*
D02*
G37*
G36*
X175189Y51978D02*
X175073Y52089D01*
X174952Y52187D01*
X174826Y52275D01*
X174696Y52350D01*
X174561Y52414D01*
X174421Y52466D01*
X174276Y52507D01*
X174127Y52536D01*
X173973Y52553D01*
X173814Y52559D01*
Y53740D01*
X173973Y53746D01*
X174127Y53763D01*
X174276Y53792D01*
X174421Y53833D01*
X174561Y53885D01*
X174696Y53949D01*
X174826Y54025D01*
X174952Y54112D01*
X175073Y54211D01*
X175189Y54321D01*
Y51978D01*
D02*
G37*
G36*
X240842Y55904D02*
X241059Y55761D01*
X241308Y55635D01*
X241590Y55527D01*
X241903Y55437D01*
X242249Y55363D01*
X242627Y55307D01*
X243038Y55269D01*
X243954Y55244D01*
X240642Y51931D01*
X240638Y52406D01*
X240578Y53258D01*
X240522Y53636D01*
X240449Y53982D01*
X240358Y54296D01*
X240250Y54577D01*
X240125Y54827D01*
X239982Y55044D01*
X239821Y55229D01*
X240657Y56064D01*
X240842Y55904D01*
D02*
G37*
G36*
X94743Y47795D02*
X94864Y47696D01*
X94990Y47609D01*
X95120Y47534D01*
X95256Y47470D01*
X95395Y47418D01*
X95540Y47377D01*
X95689Y47348D01*
X95843Y47330D01*
X96002Y47325D01*
Y46144D01*
X95843Y46138D01*
X95689Y46120D01*
X95540Y46091D01*
X95395Y46051D01*
X95256Y45998D01*
X95120Y45935D01*
X94990Y45859D01*
X94864Y45772D01*
X94743Y45673D01*
X94627Y45563D01*
Y47905D01*
X94743Y47795D01*
D02*
G37*
G36*
X127064Y44490D02*
X126955Y44484D01*
X126845Y44466D01*
X126732Y44434D01*
X126617Y44390D01*
X126500Y44333D01*
X126381Y44263D01*
X126260Y44179D01*
X126136Y44083D01*
X126011Y43974D01*
X125883Y43852D01*
X124770Y44966D01*
X124892Y45093D01*
X125097Y45342D01*
X125180Y45463D01*
X125251Y45582D01*
X125308Y45699D01*
X125352Y45814D01*
X125384Y45927D01*
X125402Y46038D01*
X125407Y46146D01*
X127064Y44490D01*
D02*
G37*
G36*
X187226Y45312D02*
X187348Y45215D01*
X187474Y45131D01*
X187605Y45057D01*
X187741Y44995D01*
X187881Y44945D01*
X188027Y44906D01*
X188177Y44879D01*
X188332Y44863D01*
X188493Y44859D01*
X186836Y43202D01*
X186832Y43363D01*
X186816Y43518D01*
X186789Y43668D01*
X186750Y43814D01*
X186700Y43955D01*
X186638Y44091D01*
X186565Y44221D01*
X186480Y44348D01*
X186383Y44469D01*
X186275Y44585D01*
X187110Y45420D01*
X187226Y45312D01*
D02*
G37*
G36*
X130560Y40426D02*
X130578Y40316D01*
X130609Y40203D01*
X130654Y40088D01*
X130711Y39971D01*
X130781Y39852D01*
X130864Y39731D01*
X130960Y39607D01*
X131070Y39482D01*
X131192Y39354D01*
X130078Y38241D01*
X129950Y38363D01*
X129702Y38568D01*
X129581Y38651D01*
X129462Y38722D01*
X129344Y38779D01*
X129230Y38823D01*
X129117Y38855D01*
X129006Y38873D01*
X128898Y38878D01*
X130554Y40535D01*
X130560Y40426D01*
D02*
G37*
G36*
X153861Y40007D02*
X153951Y39940D01*
X154052Y39881D01*
X154164Y39830D01*
X154287Y39787D01*
X154420Y39752D01*
X154564Y39724D01*
X154719Y39705D01*
X154885Y39693D01*
X155061Y39689D01*
X155029Y38114D01*
X154853Y38111D01*
X154531Y38080D01*
X154386Y38054D01*
X154252Y38021D01*
X154128Y37979D01*
X154015Y37931D01*
X153913Y37874D01*
X153821Y37811D01*
X153739Y37739D01*
X153781Y40081D01*
X153861Y40007D01*
D02*
G37*
G36*
X186393Y37722D02*
X186314Y37797D01*
X186223Y37863D01*
X186122Y37922D01*
X186010Y37973D01*
X185888Y38016D01*
X185754Y38052D01*
X185610Y38079D01*
X185455Y38099D01*
X185290Y38110D01*
X185113Y38114D01*
X185145Y39689D01*
X185322Y39693D01*
X185643Y39723D01*
X185788Y39749D01*
X185922Y39783D01*
X186046Y39824D01*
X186159Y39873D01*
X186262Y39929D01*
X186354Y39993D01*
X186435Y40064D01*
X186393Y37722D01*
D02*
G37*
G36*
X152549Y37259D02*
X152440Y37253D01*
X152330Y37235D01*
X152217Y37204D01*
X152102Y37159D01*
X151985Y37102D01*
X151866Y37032D01*
X151745Y36949D01*
X151621Y36852D01*
X151496Y36743D01*
X151368Y36621D01*
X150255Y37735D01*
X150377Y37862D01*
X150582Y38111D01*
X150665Y38232D01*
X150736Y38351D01*
X150793Y38468D01*
X150837Y38583D01*
X150869Y38696D01*
X150887Y38807D01*
X150892Y38915D01*
X152549Y37259D01*
D02*
G37*
G36*
X19917Y35098D02*
X19938Y34827D01*
X19956Y34711D01*
X19980Y34608D01*
X20009Y34518D01*
X20043Y34441D01*
X20082Y34378D01*
X20126Y34327D01*
X20176Y34290D01*
X18472D01*
X18521Y34327D01*
X18566Y34378D01*
X18605Y34441D01*
X18639Y34518D01*
X18668Y34608D01*
X18692Y34711D01*
X18710Y34827D01*
X18723Y34956D01*
X18733Y35253D01*
X19915D01*
X19917Y35098D01*
D02*
G37*
G36*
X112796Y35465D02*
X112814Y35355D01*
X112846Y35242D01*
X112890Y35127D01*
X112947Y35010D01*
X113018Y34891D01*
X113101Y34770D01*
X113197Y34646D01*
X113306Y34521D01*
X113428Y34393D01*
X112315Y33280D01*
X112187Y33402D01*
X111938Y33607D01*
X111817Y33690D01*
X111698Y33761D01*
X111581Y33818D01*
X111466Y33862D01*
X111354Y33894D01*
X111243Y33912D01*
X111134Y33917D01*
X112791Y35574D01*
X112796Y35465D01*
D02*
G37*
G36*
X87868Y29674D02*
X87773Y29651D01*
X87673Y29617D01*
X87571Y29571D01*
X87465Y29515D01*
X87355Y29447D01*
X87241Y29368D01*
X87004Y29176D01*
X86879Y29063D01*
X86752Y28939D01*
X85387Y29801D01*
X85508Y29929D01*
X85615Y30055D01*
X85706Y30178D01*
X85783Y30300D01*
X85844Y30419D01*
X85890Y30536D01*
X85921Y30650D01*
X85937Y30762D01*
X85938Y30872D01*
X85923Y30980D01*
X87868Y29674D01*
D02*
G37*
G36*
X21343Y27231D02*
X21404Y27199D01*
X21481Y27171D01*
X21573Y27147D01*
X21681Y27126D01*
X21805Y27109D01*
X22101Y27087D01*
X22461Y27079D01*
Y25111D01*
X22273Y25109D01*
X21681Y25064D01*
X21573Y25043D01*
X21481Y25019D01*
X21404Y24991D01*
X21343Y24959D01*
X21299Y24924D01*
Y27266D01*
X21343Y27231D01*
D02*
G37*
G36*
X18979Y24857D02*
X18936Y24887D01*
X18877Y24913D01*
X18802Y24937D01*
X18711Y24958D01*
X18603Y24975D01*
X18340Y25000D01*
X18011Y25013D01*
X17823Y25014D01*
X17682Y26983D01*
X17869Y26985D01*
X18336Y27017D01*
X18460Y27036D01*
X18568Y27059D01*
X18661Y27087D01*
X18737Y27119D01*
X18798Y27155D01*
X18843Y27195D01*
X18979Y24857D01*
D02*
G37*
G36*
X70554Y24019D02*
X70514Y24043D01*
X70458Y24065D01*
X70385Y24084D01*
X70296Y24101D01*
X70067Y24126D01*
X69772Y24141D01*
X69411Y24146D01*
X69139Y26115D01*
X69326Y26117D01*
X69792Y26152D01*
X69915Y26173D01*
X70023Y26199D01*
X70115Y26229D01*
X70191Y26264D01*
X70251Y26303D01*
X70296Y26348D01*
X70554Y24019D01*
D02*
G37*
G36*
X51430Y25669D02*
X51880Y25282D01*
X51971Y25220D01*
X52054Y25172D01*
X52128Y25138D01*
X52193Y25117D01*
X52250Y25111D01*
X50593Y23454D01*
X50587Y23511D01*
X50567Y23576D01*
X50532Y23650D01*
X50484Y23733D01*
X50422Y23824D01*
X50346Y23923D01*
X50153Y24149D01*
X49904Y24408D01*
X51296Y25800D01*
X51430Y25669D01*
D02*
G37*
G36*
X213403Y24136D02*
X213268Y24128D01*
X213128Y24101D01*
X212982Y24056D01*
X212831Y23991D01*
X212675Y23909D01*
X212513Y23807D01*
X212346Y23687D01*
X212174Y23548D01*
X211813Y23214D01*
X210143Y24884D01*
X210319Y25067D01*
X210616Y25417D01*
X210736Y25584D01*
X210838Y25746D01*
X210920Y25902D01*
X210985Y26053D01*
X211030Y26199D01*
X211057Y26339D01*
X211065Y26474D01*
X213403Y24136D01*
D02*
G37*
G36*
X7775Y25268D02*
X7836Y25237D01*
X7912Y25209D01*
X8004Y25184D01*
X8113Y25164D01*
X8237Y25147D01*
X8533Y25124D01*
X8893Y25117D01*
Y23148D01*
X8705Y23146D01*
X8113Y23102D01*
X8004Y23081D01*
X7912Y23057D01*
X7836Y23029D01*
X7775Y22997D01*
X7730Y22961D01*
Y25304D01*
X7775Y25268D01*
D02*
G37*
G36*
X108610Y36523D02*
X108513Y36288D01*
X108421Y35590D01*
X108513Y34893D01*
X108782Y34242D01*
X109211Y33684D01*
X109769Y33255D01*
X110420Y32986D01*
X111117Y32894D01*
X111134Y32896D01*
X111145Y32893D01*
X111173Y32883D01*
X111214Y32862D01*
X111269Y32830D01*
X111324Y32792D01*
X111407Y32724D01*
X121449Y22681D01*
X121242Y22181D01*
X118789D01*
X117861Y21997D01*
X117075Y21471D01*
X110538Y14935D01*
X110395Y14954D01*
X109363Y14818D01*
X108401Y14419D01*
X107576Y13786D01*
X106942Y12960D01*
X106544Y11998D01*
X106408Y10967D01*
X106544Y9935D01*
X106942Y8973D01*
X107576Y8147D01*
X107687Y8062D01*
X107526Y7588D01*
X83263D01*
X83102Y8062D01*
X83214Y8147D01*
X83847Y8973D01*
X84246Y9935D01*
X84382Y10967D01*
X84246Y11998D01*
X83847Y12960D01*
X83214Y13786D01*
X82388Y14419D01*
X81427Y14818D01*
X80395Y14954D01*
X79363Y14818D01*
X78401Y14419D01*
X77575Y13786D01*
X76942Y12960D01*
X76544Y11998D01*
X76408Y10967D01*
X76544Y9935D01*
X76942Y8973D01*
X77575Y8147D01*
X77687Y8062D01*
X77526Y7588D01*
X75831D01*
X72905Y10514D01*
Y12512D01*
X72906Y12518D01*
X72919Y12586D01*
X72937Y12650D01*
X72960Y12709D01*
X72987Y12767D01*
X73020Y12825D01*
X73061Y12884D01*
X73110Y12944D01*
X73172Y13009D01*
X73190Y13023D01*
X73619Y13581D01*
X73888Y14232D01*
X73980Y14930D01*
X73888Y15628D01*
X73687Y16114D01*
X73664Y16365D01*
X73872Y16769D01*
X74233Y17010D01*
X75468Y18246D01*
X75517Y18284D01*
X75584Y18329D01*
X75639Y18362D01*
X75680Y18382D01*
X75707Y18393D01*
X75719Y18396D01*
X75735Y18394D01*
X76433Y18486D01*
X77084Y18755D01*
X77642Y19184D01*
X78070Y19742D01*
X78340Y20392D01*
X78432Y21090D01*
X78430Y21106D01*
X78433Y21118D01*
X78443Y21145D01*
X78464Y21187D01*
X78496Y21241D01*
X78534Y21297D01*
X78602Y21379D01*
X79962Y22739D01*
X86603D01*
X86604Y22739D01*
X87301Y22878D01*
X87892Y23273D01*
X101642Y37023D01*
X108276D01*
X108610Y36523D01*
D02*
G37*
G36*
X127000Y22407D02*
X126916Y22467D01*
X126821Y22522D01*
X126716Y22569D01*
X126600Y22611D01*
X126475Y22645D01*
X126339Y22674D01*
X126192Y22696D01*
X125869Y22722D01*
X125692Y22725D01*
X125474Y24300D01*
X125651Y24304D01*
X125816Y24317D01*
X125969Y24339D01*
X126111Y24369D01*
X126241Y24408D01*
X126360Y24455D01*
X126467Y24512D01*
X126562Y24577D01*
X126646Y24650D01*
X126718Y24733D01*
X127000Y22407D01*
D02*
G37*
G36*
X53506Y24573D02*
X53566Y24542D01*
X53643Y24514D01*
X53735Y24489D01*
X53844Y24469D01*
X53968Y24452D01*
X54264Y24429D01*
X54624Y24422D01*
Y22453D01*
X54436Y22452D01*
X53844Y22407D01*
X53735Y22386D01*
X53643Y22362D01*
X53566Y22334D01*
X53506Y22302D01*
X53461Y22266D01*
Y24609D01*
X53506Y24573D01*
D02*
G37*
G36*
X45819Y24027D02*
X45939Y23939D01*
X46065Y23865D01*
X46198Y23807D01*
X46336Y23763D01*
X46481Y23735D01*
X46631Y23721D01*
X46788Y23723D01*
X46951Y23739D01*
X47120Y23771D01*
X45851Y21802D01*
X45808Y21991D01*
X45705Y22340D01*
X45645Y22500D01*
X45578Y22651D01*
X45506Y22792D01*
X45428Y22924D01*
X45344Y23047D01*
X45254Y23159D01*
X45159Y23263D01*
X45705Y24131D01*
X45819Y24027D01*
D02*
G37*
G36*
X78046Y22287D02*
X77924Y22160D01*
X77719Y21911D01*
X77636Y21790D01*
X77565Y21671D01*
X77508Y21554D01*
X77464Y21439D01*
X77432Y21326D01*
X77414Y21215D01*
X77409Y21107D01*
X75752Y22763D01*
X75861Y22769D01*
X75971Y22787D01*
X76084Y22818D01*
X76199Y22863D01*
X76316Y22920D01*
X76435Y22990D01*
X76556Y23073D01*
X76680Y23169D01*
X76805Y23279D01*
X76933Y23401D01*
X78046Y22287D01*
D02*
G37*
G36*
X186717Y21105D02*
X186690Y21113D01*
X186656Y21111D01*
X186615Y21100D01*
X186568Y21078D01*
X186515Y21045D01*
X186456Y21003D01*
X186391Y20951D01*
X186241Y20816D01*
X186156Y20734D01*
X185321Y21569D01*
X185430Y21679D01*
X185832Y22141D01*
X185858Y22185D01*
X185871Y22220D01*
X185873Y22245D01*
X186717Y21105D01*
D02*
G37*
G36*
X59618Y22656D02*
X59709Y22591D01*
X59811Y22533D01*
X59923Y22483D01*
X60046Y22441D01*
X60180Y22406D01*
X60325Y22379D01*
X60480Y22360D01*
X60646Y22349D01*
X60822Y22345D01*
Y20770D01*
X60646Y20766D01*
X60325Y20735D01*
X60180Y20709D01*
X60046Y20674D01*
X59923Y20632D01*
X59811Y20582D01*
X59709Y20524D01*
X59618Y20459D01*
X59537Y20386D01*
Y22729D01*
X59618Y22656D01*
D02*
G37*
G36*
X4910Y22601D02*
X5045Y22487D01*
X5181Y22386D01*
X5318Y22299D01*
X5458Y22225D01*
X5600Y22165D01*
X5743Y22118D01*
X5888Y22084D01*
X6035Y22064D01*
X6183Y22058D01*
Y21057D01*
X6035Y21051D01*
X5888Y21031D01*
X5743Y20997D01*
X5600Y20950D01*
X5458Y20890D01*
X5318Y20816D01*
X5181Y20729D01*
X5045Y20628D01*
X4910Y20514D01*
X4778Y20386D01*
Y22729D01*
X4910Y22601D01*
D02*
G37*
G36*
X2388Y20386D02*
X2255Y20514D01*
X2121Y20628D01*
X1985Y20729D01*
X1847Y20816D01*
X1707Y20890D01*
X1566Y20950D01*
X1423Y20997D01*
X1278Y21031D01*
X1131Y21051D01*
X982Y21057D01*
Y22058D01*
X1131Y22064D01*
X1278Y22084D01*
X1423Y22118D01*
X1566Y22165D01*
X1707Y22225D01*
X1847Y22299D01*
X1985Y22386D01*
X2121Y22487D01*
X2255Y22601D01*
X2388Y22729D01*
Y20386D01*
D02*
G37*
G36*
X32855Y22188D02*
X32947Y22123D01*
X33048Y22065D01*
X33161Y22016D01*
X33284Y21973D01*
X33418Y21939D01*
X33563Y21912D01*
X33718Y21893D01*
X33884Y21881D01*
X34060Y21877D01*
Y20303D01*
X33884Y20299D01*
X33563Y20268D01*
X33418Y20241D01*
X33284Y20207D01*
X33161Y20164D01*
X33048Y20114D01*
X32947Y20057D01*
X32855Y19992D01*
X32775Y19919D01*
Y22261D01*
X32855Y22188D01*
D02*
G37*
G36*
X75719Y19417D02*
X75610Y19411D01*
X75499Y19393D01*
X75387Y19362D01*
X75272Y19318D01*
X75155Y19260D01*
X75036Y19190D01*
X74915Y19107D01*
X74791Y19011D01*
X74666Y18902D01*
X74538Y18779D01*
X73425Y19893D01*
X73547Y20020D01*
X73752Y20269D01*
X73835Y20390D01*
X73906Y20509D01*
X73963Y20626D01*
X74007Y20741D01*
X74038Y20854D01*
X74057Y20965D01*
X74062Y21073D01*
X75719Y19417D01*
D02*
G37*
G36*
X72345Y13619D02*
X72246Y13498D01*
X72159Y13372D01*
X72083Y13241D01*
X72019Y13106D01*
X71967Y12967D01*
X71927Y12822D01*
X71898Y12673D01*
X71880Y12519D01*
X71874Y12360D01*
X70693D01*
X70688Y12519D01*
X70670Y12673D01*
X70641Y12822D01*
X70600Y12967D01*
X70548Y13106D01*
X70484Y13241D01*
X70409Y13372D01*
X70322Y13498D01*
X70223Y13619D01*
X70113Y13735D01*
X72455D01*
X72345Y13619D01*
D02*
G37*
G36*
X168599Y27139D02*
X168548Y26748D01*
X168663Y25870D01*
X169002Y25052D01*
X169541Y24350D01*
X170243Y23811D01*
X171061Y23472D01*
X171939Y23357D01*
X172817Y23472D01*
X173635Y23811D01*
X174302Y24323D01*
X184923D01*
X185136Y23823D01*
X184909Y23275D01*
X184843Y22773D01*
X170596D01*
X169976Y22649D01*
X169450Y22298D01*
X154847Y7696D01*
X154347Y7847D01*
Y14919D01*
X146442D01*
Y7588D01*
X143263D01*
X143102Y8062D01*
X143214Y8147D01*
X143847Y8973D01*
X144246Y9935D01*
X144381Y10967D01*
X144246Y11998D01*
X143847Y12960D01*
X143214Y13786D01*
X142388Y14419D01*
X141427Y14818D01*
X140395Y14954D01*
X139363Y14818D01*
X138401Y14419D01*
X137575Y13786D01*
X136942Y12960D01*
X136544Y11998D01*
X136408Y10967D01*
X136544Y9935D01*
X136942Y8973D01*
X137575Y8147D01*
X137687Y8062D01*
X137526Y7588D01*
X133263D01*
X133102Y8062D01*
X133214Y8147D01*
X133847Y8973D01*
X134246Y9935D01*
X134381Y10967D01*
X134246Y11998D01*
X133847Y12960D01*
X133214Y13786D01*
X132388Y14419D01*
X131427Y14818D01*
X130395Y14954D01*
X129363Y14818D01*
X128401Y14419D01*
X127576Y13786D01*
X126942Y12960D01*
X126544Y11998D01*
X126408Y10967D01*
X126544Y9935D01*
X126942Y8973D01*
X127576Y8147D01*
X127687Y8062D01*
X127526Y7588D01*
X123263D01*
X123102Y8062D01*
X123214Y8147D01*
X123847Y8973D01*
X124246Y9935D01*
X124381Y10967D01*
X124246Y11998D01*
X123847Y12960D01*
X123214Y13786D01*
X122388Y14419D01*
X121426Y14818D01*
X120395Y14954D01*
X119363Y14818D01*
X118401Y14419D01*
X117576Y13786D01*
X116942Y12960D01*
X116544Y11998D01*
X116408Y10967D01*
X116544Y9935D01*
X116942Y8973D01*
X117576Y8147D01*
X117687Y8062D01*
X117526Y7588D01*
X113263D01*
X113102Y8062D01*
X113214Y8147D01*
X113847Y8973D01*
X114246Y9935D01*
X114382Y10967D01*
X114271Y11809D01*
X119793Y17332D01*
X157081D01*
X158009Y17517D01*
X158796Y18042D01*
X168126Y27372D01*
X168599Y27139D01*
D02*
G37*
%LPC*%
G36*
X190347Y204919D02*
X182442D01*
Y197014D01*
X190347D01*
Y204919D01*
D02*
G37*
G36*
X84347D02*
X76442D01*
Y197014D01*
X84347D01*
Y204919D01*
D02*
G37*
G36*
X176395Y204954D02*
X175363Y204818D01*
X174401Y204419D01*
X173575Y203786D01*
X172942Y202960D01*
X172544Y201998D01*
X172408Y200967D01*
X172544Y199935D01*
X172942Y198973D01*
X173575Y198147D01*
X174401Y197514D01*
X175363Y197116D01*
X176395Y196980D01*
X177427Y197116D01*
X178388Y197514D01*
X179214Y198147D01*
X179847Y198973D01*
X180246Y199935D01*
X180382Y200967D01*
X180246Y201998D01*
X179847Y202960D01*
X179214Y203786D01*
X178388Y204419D01*
X177427Y204818D01*
X176395Y204954D01*
D02*
G37*
G36*
X166395D02*
X165363Y204818D01*
X164401Y204419D01*
X163575Y203786D01*
X162942Y202960D01*
X162544Y201998D01*
X162408Y200967D01*
X162544Y199935D01*
X162942Y198973D01*
X163575Y198147D01*
X164401Y197514D01*
X165363Y197116D01*
X166395Y196980D01*
X167427Y197116D01*
X168388Y197514D01*
X169214Y198147D01*
X169847Y198973D01*
X170246Y199935D01*
X170381Y200967D01*
X170246Y201998D01*
X169847Y202960D01*
X169214Y203786D01*
X168388Y204419D01*
X167427Y204818D01*
X166395Y204954D01*
D02*
G37*
G36*
X146395D02*
X145363Y204818D01*
X144401Y204419D01*
X143576Y203786D01*
X142942Y202960D01*
X142544Y201998D01*
X142408Y200967D01*
X142544Y199935D01*
X142942Y198973D01*
X143576Y198147D01*
X144401Y197514D01*
X145363Y197116D01*
X146395Y196980D01*
X147426Y197116D01*
X148388Y197514D01*
X149214Y198147D01*
X149847Y198973D01*
X150246Y199935D01*
X150382Y200967D01*
X150246Y201998D01*
X149847Y202960D01*
X149214Y203786D01*
X148388Y204419D01*
X147426Y204818D01*
X146395Y204954D01*
D02*
G37*
G36*
X136395D02*
X135363Y204818D01*
X134401Y204419D01*
X133575Y203786D01*
X132942Y202960D01*
X132544Y201998D01*
X132408Y200967D01*
X132544Y199935D01*
X132942Y198973D01*
X133575Y198147D01*
X134401Y197514D01*
X135363Y197116D01*
X136395Y196980D01*
X137426Y197116D01*
X138388Y197514D01*
X139214Y198147D01*
X139847Y198973D01*
X140246Y199935D01*
X140382Y200967D01*
X140246Y201998D01*
X139847Y202960D01*
X139214Y203786D01*
X138388Y204419D01*
X137426Y204818D01*
X136395Y204954D01*
D02*
G37*
G36*
X126395D02*
X125363Y204818D01*
X124401Y204419D01*
X123575Y203786D01*
X122942Y202960D01*
X122544Y201998D01*
X122408Y200967D01*
X122544Y199935D01*
X122942Y198973D01*
X123575Y198147D01*
X124401Y197514D01*
X125363Y197116D01*
X126395Y196980D01*
X127427Y197116D01*
X128388Y197514D01*
X129214Y198147D01*
X129847Y198973D01*
X130246Y199935D01*
X130382Y200967D01*
X130246Y201998D01*
X129847Y202960D01*
X129214Y203786D01*
X128388Y204419D01*
X127427Y204818D01*
X126395Y204954D01*
D02*
G37*
G36*
X116395D02*
X115363Y204818D01*
X114401Y204419D01*
X113575Y203786D01*
X112942Y202960D01*
X112544Y201998D01*
X112408Y200967D01*
X112544Y199935D01*
X112942Y198973D01*
X113575Y198147D01*
X114401Y197514D01*
X115363Y197116D01*
X116395Y196980D01*
X117427Y197116D01*
X118388Y197514D01*
X119214Y198147D01*
X119847Y198973D01*
X120246Y199935D01*
X120381Y200967D01*
X120246Y201998D01*
X119847Y202960D01*
X119214Y203786D01*
X118388Y204419D01*
X117427Y204818D01*
X116395Y204954D01*
D02*
G37*
G36*
X106395D02*
X105363Y204818D01*
X104401Y204419D01*
X103576Y203786D01*
X102942Y202960D01*
X102544Y201998D01*
X102408Y200967D01*
X102544Y199935D01*
X102942Y198973D01*
X103576Y198147D01*
X104401Y197514D01*
X105363Y197116D01*
X106395Y196980D01*
X107427Y197116D01*
X108388Y197514D01*
X109214Y198147D01*
X109847Y198973D01*
X110246Y199935D01*
X110381Y200967D01*
X110246Y201998D01*
X109847Y202960D01*
X109214Y203786D01*
X108388Y204419D01*
X107427Y204818D01*
X106395Y204954D01*
D02*
G37*
G36*
X96395D02*
X95363Y204818D01*
X94401Y204419D01*
X93576Y203786D01*
X92942Y202960D01*
X92544Y201998D01*
X92408Y200967D01*
X92544Y199935D01*
X92942Y198973D01*
X93576Y198147D01*
X94401Y197514D01*
X95363Y197116D01*
X96395Y196980D01*
X97426Y197116D01*
X98388Y197514D01*
X99214Y198147D01*
X99847Y198973D01*
X100246Y199935D01*
X100382Y200967D01*
X100246Y201998D01*
X99847Y202960D01*
X99214Y203786D01*
X98388Y204419D01*
X97426Y204818D01*
X96395Y204954D01*
D02*
G37*
G36*
X70395D02*
X69363Y204818D01*
X68401Y204419D01*
X67576Y203786D01*
X66942Y202960D01*
X66544Y201998D01*
X66408Y200967D01*
X66544Y199935D01*
X66942Y198973D01*
X67576Y198147D01*
X68401Y197514D01*
X69363Y197116D01*
X70395Y196980D01*
X71426Y197116D01*
X72388Y197514D01*
X73214Y198147D01*
X73847Y198973D01*
X74246Y199935D01*
X74382Y200967D01*
X74246Y201998D01*
X73847Y202960D01*
X73214Y203786D01*
X72388Y204419D01*
X71426Y204818D01*
X70395Y204954D01*
D02*
G37*
G36*
X60395D02*
X59363Y204818D01*
X58401Y204419D01*
X57576Y203786D01*
X56942Y202960D01*
X56544Y201998D01*
X56408Y200967D01*
X56544Y199935D01*
X56942Y198973D01*
X57576Y198147D01*
X58401Y197514D01*
X59363Y197116D01*
X60395Y196980D01*
X61427Y197116D01*
X62388Y197514D01*
X63214Y198147D01*
X63847Y198973D01*
X64246Y199935D01*
X64381Y200967D01*
X64246Y201998D01*
X63847Y202960D01*
X63214Y203786D01*
X62388Y204419D01*
X61427Y204818D01*
X60395Y204954D01*
D02*
G37*
G36*
X50395D02*
X49363Y204818D01*
X48401Y204419D01*
X47576Y203786D01*
X46942Y202960D01*
X46544Y201998D01*
X46408Y200967D01*
X46544Y199935D01*
X46942Y198973D01*
X47576Y198147D01*
X48401Y197514D01*
X49363Y197116D01*
X50395Y196980D01*
X51427Y197116D01*
X52388Y197514D01*
X53214Y198147D01*
X53847Y198973D01*
X54246Y199935D01*
X54382Y200967D01*
X54246Y201998D01*
X53847Y202960D01*
X53214Y203786D01*
X52388Y204419D01*
X51427Y204818D01*
X50395Y204954D01*
D02*
G37*
G36*
X40395D02*
X39363Y204818D01*
X38401Y204419D01*
X37576Y203786D01*
X36942Y202960D01*
X36544Y201998D01*
X36408Y200967D01*
X36544Y199935D01*
X36942Y198973D01*
X37576Y198147D01*
X38401Y197514D01*
X39363Y197116D01*
X40395Y196980D01*
X41427Y197116D01*
X42388Y197514D01*
X43214Y198147D01*
X43847Y198973D01*
X44246Y199935D01*
X44381Y200967D01*
X44246Y201998D01*
X43847Y202960D01*
X43214Y203786D01*
X42388Y204419D01*
X41427Y204818D01*
X40395Y204954D01*
D02*
G37*
G36*
X30395D02*
X29363Y204818D01*
X28401Y204419D01*
X27575Y203786D01*
X26942Y202960D01*
X26544Y201998D01*
X26408Y200967D01*
X26544Y199935D01*
X26942Y198973D01*
X27575Y198147D01*
X28401Y197514D01*
X29363Y197116D01*
X30395Y196980D01*
X31427Y197116D01*
X32388Y197514D01*
X33214Y198147D01*
X33847Y198973D01*
X34246Y199935D01*
X34381Y200967D01*
X34246Y201998D01*
X33847Y202960D01*
X33214Y203786D01*
X32388Y204419D01*
X31427Y204818D01*
X30395Y204954D01*
D02*
G37*
G36*
X20395D02*
X19363Y204818D01*
X18401Y204419D01*
X17575Y203786D01*
X16942Y202960D01*
X16544Y201998D01*
X16408Y200967D01*
X16544Y199935D01*
X16942Y198973D01*
X17575Y198147D01*
X18401Y197514D01*
X19363Y197116D01*
X20395Y196980D01*
X21427Y197116D01*
X22388Y197514D01*
X23214Y198147D01*
X23847Y198973D01*
X24246Y199935D01*
X24382Y200967D01*
X24246Y201998D01*
X23847Y202960D01*
X23214Y203786D01*
X22388Y204419D01*
X21427Y204818D01*
X20395Y204954D01*
D02*
G37*
G36*
X10395D02*
X9363Y204818D01*
X8401Y204419D01*
X7576Y203786D01*
X6942Y202960D01*
X6544Y201998D01*
X6408Y200967D01*
X6544Y199935D01*
X6942Y198973D01*
X7576Y198147D01*
X8401Y197514D01*
X9363Y197116D01*
X10395Y196980D01*
X11427Y197116D01*
X12388Y197514D01*
X13214Y198147D01*
X13847Y198973D01*
X14246Y199935D01*
X14381Y200967D01*
X14246Y201998D01*
X13847Y202960D01*
X13214Y203786D01*
X12388Y204419D01*
X11427Y204818D01*
X10395Y204954D01*
D02*
G37*
G36*
X200591Y208476D02*
X199161Y208335D01*
X197785Y207918D01*
X196517Y207240D01*
X195405Y206328D01*
X194493Y205217D01*
X193815Y203949D01*
X193398Y202573D01*
X193257Y201142D01*
X193398Y199711D01*
X193815Y198335D01*
X194493Y197067D01*
X195405Y195956D01*
X196517Y195043D01*
X197785Y194366D01*
X199161Y193948D01*
X200591Y193807D01*
X202022Y193948D01*
X203398Y194366D01*
X204666Y195043D01*
X205778Y195956D01*
X206690Y197067D01*
X207368Y198335D01*
X207785Y199711D01*
X207926Y201142D01*
X207785Y202573D01*
X207368Y203949D01*
X206690Y205217D01*
X205778Y206328D01*
X204666Y207240D01*
X203398Y207918D01*
X202022Y208335D01*
X200591Y208476D01*
D02*
G37*
G36*
X232915Y202455D02*
X231780Y202305D01*
X230723Y201868D01*
X229815Y201171D01*
X229118Y200263D01*
X228680Y199206D01*
X228531Y198071D01*
X228680Y196936D01*
X229118Y195879D01*
X229815Y194971D01*
X230723Y194274D01*
X231780Y193836D01*
X232915Y193687D01*
X234050Y193836D01*
X235107Y194274D01*
X236015Y194971D01*
X236712Y195879D01*
X237150Y196936D01*
X237299Y198071D01*
X237150Y199206D01*
X236712Y200263D01*
X236015Y201171D01*
X235107Y201868D01*
X234050Y202305D01*
X232915Y202455D01*
D02*
G37*
G36*
X102008Y190007D02*
X101310Y189915D01*
X100660Y189646D01*
X100101Y189217D01*
X99673Y188659D01*
X99404Y188008D01*
X99312Y187311D01*
X99404Y186613D01*
X99673Y185962D01*
X100101Y185404D01*
X100660Y184975D01*
X101310Y184706D01*
X102008Y184614D01*
X102706Y184706D01*
X103356Y184975D01*
X103914Y185404D01*
X104343Y185962D01*
X104612Y186613D01*
X104704Y187311D01*
X104612Y188008D01*
X104343Y188659D01*
X103914Y189217D01*
X103356Y189646D01*
X102706Y189915D01*
X102008Y190007D01*
D02*
G37*
G36*
X232915Y192455D02*
X231780Y192305D01*
X230723Y191867D01*
X229815Y191171D01*
X229118Y190263D01*
X228680Y189206D01*
X228531Y188071D01*
X228680Y186936D01*
X229118Y185879D01*
X229815Y184971D01*
X230723Y184274D01*
X231780Y183836D01*
X232915Y183687D01*
X234050Y183836D01*
X235107Y184274D01*
X236015Y184971D01*
X236712Y185879D01*
X237150Y186936D01*
X237299Y188071D01*
X237150Y189206D01*
X236712Y190263D01*
X236015Y191171D01*
X235107Y191867D01*
X234050Y192305D01*
X232915Y192455D01*
D02*
G37*
G36*
X142362Y184538D02*
X141485Y184422D01*
X140667Y184084D01*
X139964Y183545D01*
X139425Y182842D01*
X139087Y182024D01*
X138971Y181147D01*
X139087Y180269D01*
X139425Y179451D01*
X139964Y178749D01*
X140667Y178210D01*
X141485Y177871D01*
X142362Y177755D01*
X143240Y177871D01*
X144058Y178210D01*
X144760Y178749D01*
X145299Y179451D01*
X145638Y180269D01*
X145754Y181147D01*
X145638Y182024D01*
X145299Y182842D01*
X144760Y183545D01*
X144058Y184084D01*
X143240Y184422D01*
X142362Y184538D01*
D02*
G37*
G36*
X237262Y182417D02*
X228569D01*
Y173724D01*
X237262D01*
Y182417D01*
D02*
G37*
G36*
X46253Y151813D02*
X45555Y151721D01*
X44905Y151451D01*
X44346Y151023D01*
X43918Y150464D01*
X43649Y149814D01*
X43557Y149116D01*
X43649Y148418D01*
X43918Y147768D01*
X44346Y147210D01*
X44905Y146781D01*
X45555Y146512D01*
X46253Y146420D01*
X46951Y146512D01*
X47601Y146781D01*
X48160Y147210D01*
X48588Y147768D01*
X48858Y148418D01*
X48949Y149116D01*
X48858Y149814D01*
X48588Y150464D01*
X48160Y151023D01*
X47601Y151451D01*
X46951Y151721D01*
X46253Y151813D01*
D02*
G37*
G36*
X219699Y132588D02*
X218821Y132472D01*
X218004Y132134D01*
X217301Y131595D01*
X216762Y130892D01*
X216424Y130075D01*
X216308Y129197D01*
X216424Y128319D01*
X216762Y127501D01*
X217301Y126799D01*
X218004Y126260D01*
X218821Y125921D01*
X219699Y125805D01*
X220577Y125921D01*
X221395Y126260D01*
X222097Y126799D01*
X222636Y127501D01*
X222975Y128319D01*
X223090Y129197D01*
X222975Y130075D01*
X222636Y130892D01*
X222097Y131595D01*
X221395Y132134D01*
X220577Y132472D01*
X219699Y132588D01*
D02*
G37*
G36*
X69653Y115722D02*
X68802Y115552D01*
X68080Y115070D01*
X67598Y114349D01*
X67429Y113498D01*
X67598Y112647D01*
X68080Y111925D01*
X68802Y111443D01*
X69653Y111274D01*
X70504Y111443D01*
X71225Y111925D01*
X71707Y112647D01*
X71876Y113498D01*
X71707Y114349D01*
X71225Y115070D01*
X70504Y115552D01*
X69653Y115722D01*
D02*
G37*
G36*
X38013Y115696D02*
X37162Y115526D01*
X36441Y115044D01*
X35959Y114323D01*
X35789Y113472D01*
X35959Y112621D01*
X36441Y111899D01*
X37162Y111417D01*
X38013Y111248D01*
X38864Y111417D01*
X39586Y111899D01*
X40068Y112621D01*
X40237Y113472D01*
X40068Y114323D01*
X39586Y115044D01*
X38864Y115526D01*
X38013Y115696D01*
D02*
G37*
G36*
X95596Y111150D02*
X94898Y111058D01*
X94248Y110789D01*
X93689Y110360D01*
X93261Y109802D01*
X92992Y109152D01*
X92900Y108454D01*
X92992Y107756D01*
X93261Y107106D01*
X93689Y106547D01*
X94248Y106119D01*
X94898Y105849D01*
X95596Y105757D01*
X95606Y105759D01*
X96032Y105311D01*
X95985Y104954D01*
X96077Y104256D01*
X96347Y103606D01*
X96775Y103047D01*
X97334Y102619D01*
X97984Y102350D01*
X98682Y102258D01*
X99380Y102350D01*
X100030Y102619D01*
X100588Y103047D01*
X101017Y103606D01*
X101286Y104256D01*
X101378Y104954D01*
X101286Y105652D01*
X101017Y106302D01*
X100588Y106861D01*
X100030Y107289D01*
X99380Y107558D01*
X98682Y107650D01*
X98672Y107649D01*
X98245Y108097D01*
X98292Y108454D01*
X98201Y109152D01*
X97931Y109802D01*
X97503Y110360D01*
X96944Y110789D01*
X96294Y111058D01*
X95596Y111150D01*
D02*
G37*
G36*
X152119Y105789D02*
X151421Y105697D01*
X150771Y105428D01*
X150213Y104999D01*
X149784Y104441D01*
X149515Y103791D01*
X149423Y103093D01*
X149515Y102395D01*
X149784Y101745D01*
X150213Y101186D01*
X150771Y100758D01*
X151421Y100488D01*
X152119Y100396D01*
X152817Y100488D01*
X153468Y100758D01*
X154026Y101186D01*
X154454Y101745D01*
X154724Y102395D01*
X154816Y103093D01*
X154724Y103791D01*
X154454Y104441D01*
X154026Y104999D01*
X153468Y105428D01*
X152817Y105697D01*
X152119Y105789D01*
D02*
G37*
G36*
X199198Y97733D02*
X198500Y97641D01*
X197850Y97371D01*
X197292Y96943D01*
X196863Y96384D01*
X196594Y95734D01*
X196502Y95036D01*
X196594Y94338D01*
X196863Y93688D01*
X197292Y93130D01*
X197850Y92701D01*
X198500Y92432D01*
X199198Y92340D01*
X199896Y92432D01*
X200546Y92701D01*
X201105Y93130D01*
X201533Y93688D01*
X201802Y94338D01*
X201894Y95036D01*
X201802Y95734D01*
X201533Y96384D01*
X201105Y96943D01*
X200546Y97371D01*
X199896Y97641D01*
X199198Y97733D01*
D02*
G37*
G36*
X243988Y86282D02*
X242853Y86132D01*
X241796Y85694D01*
X241081Y85145D01*
X241056Y85132D01*
X240990Y85076D01*
X240888Y84997D01*
X240870Y84974D01*
X240446Y84614D01*
X240190Y84428D01*
X239939Y84266D01*
X239702Y84134D01*
X239482Y84031D01*
X239279Y83956D01*
X239094Y83907D01*
X238956Y83884D01*
X237689D01*
X237689Y83884D01*
X236991Y83745D01*
X236400Y83350D01*
X236400Y83350D01*
X229865Y76815D01*
X192419D01*
X192358Y76823D01*
X192278Y76837D01*
X192216Y76853D01*
X192173Y76868D01*
X192146Y76880D01*
X192136Y76886D01*
X192125Y76899D01*
X191567Y77328D01*
X190917Y77597D01*
X190219Y77689D01*
X189521Y77597D01*
X188871Y77328D01*
X188312Y76899D01*
X187884Y76341D01*
X187615Y75691D01*
X187523Y74993D01*
X187615Y74295D01*
X187729Y74019D01*
X187394Y73519D01*
X182776D01*
X182015Y74280D01*
X182011Y74285D01*
X181972Y74342D01*
X181940Y74400D01*
X181914Y74458D01*
X181892Y74518D01*
X181875Y74583D01*
X181862Y74653D01*
X181854Y74730D01*
X181852Y74820D01*
X181855Y74843D01*
X181763Y75541D01*
X181494Y76191D01*
X181065Y76749D01*
X180507Y77178D01*
X180440Y77205D01*
X180375Y77701D01*
X180532Y77822D01*
X180961Y78380D01*
X181230Y79031D01*
X181322Y79729D01*
X181230Y80426D01*
X180961Y81077D01*
X180532Y81635D01*
X179974Y82064D01*
X179323Y82333D01*
X178626Y82425D01*
X177928Y82333D01*
X177277Y82064D01*
X176719Y81635D01*
X176291Y81077D01*
X176021Y80426D01*
X175929Y79729D01*
X176021Y79031D01*
X176291Y78380D01*
X176719Y77822D01*
X177277Y77393D01*
X177344Y77366D01*
X177409Y76870D01*
X177252Y76749D01*
X176824Y76191D01*
X176554Y75541D01*
X176462Y74843D01*
X176554Y74145D01*
X176824Y73495D01*
X177252Y72936D01*
X177811Y72508D01*
X178461Y72238D01*
X179159Y72146D01*
X179182Y72149D01*
X179271Y72147D01*
X179349Y72139D01*
X179419Y72127D01*
X179483Y72110D01*
X179544Y72088D01*
X179602Y72061D01*
X179659Y72029D01*
X179717Y71990D01*
X179721Y71987D01*
X180957Y70751D01*
X181483Y70399D01*
X182104Y70276D01*
X238797D01*
X238921Y70250D01*
X239082Y70197D01*
X239271Y70113D01*
X239487Y69994D01*
X239726Y69839D01*
X239976Y69653D01*
X240567Y69139D01*
X240807Y68903D01*
X240888Y68798D01*
X241796Y68101D01*
X242853Y67663D01*
X243988Y67514D01*
X245123Y67663D01*
X246180Y68101D01*
X247088Y68798D01*
X247784Y69706D01*
X248222Y70763D01*
X248372Y71898D01*
X248222Y73032D01*
X247784Y74090D01*
X247088Y74998D01*
X246180Y75694D01*
X245123Y76132D01*
X243988Y76282D01*
X242853Y76132D01*
X241796Y75694D01*
X240888Y74998D01*
X240816Y74904D01*
X240256Y74373D01*
X239985Y74149D01*
X239726Y73957D01*
X239487Y73801D01*
X239271Y73682D01*
X239082Y73598D01*
X238921Y73545D01*
X238797Y73519D01*
X232431D01*
X232224Y74019D01*
X238444Y80239D01*
X238876D01*
X239014Y80215D01*
X239188Y80165D01*
X239373Y80090D01*
X239571Y79988D01*
X239782Y79856D01*
X240004Y79691D01*
X240235Y79494D01*
X240476Y79263D01*
X240741Y78979D01*
X240758Y78966D01*
X240888Y78798D01*
X241796Y78101D01*
X242853Y77663D01*
X243988Y77514D01*
X245123Y77663D01*
X246180Y78101D01*
X247088Y78798D01*
X247784Y79706D01*
X248222Y80763D01*
X248372Y81898D01*
X248222Y83032D01*
X247784Y84090D01*
X247088Y84997D01*
X246180Y85694D01*
X245123Y86132D01*
X243988Y86282D01*
D02*
G37*
G36*
X139048Y88904D02*
X138350Y88812D01*
X137700Y88542D01*
X137142Y88114D01*
X136713Y87556D01*
X136444Y86905D01*
X136352Y86207D01*
X136444Y85510D01*
X136713Y84859D01*
X137122Y84326D01*
X137137Y84145D01*
X137136Y84100D01*
X137125Y84051D01*
X137035Y83844D01*
X136996Y83783D01*
X136949Y83773D01*
X136841Y83763D01*
X123073D01*
X122984Y83770D01*
X122902Y83782D01*
X122825Y83798D01*
X122766Y83814D01*
X122724Y83829D01*
X122700Y83840D01*
X122691Y83845D01*
X122649Y83875D01*
X122576Y83907D01*
X122369Y84066D01*
X121719Y84335D01*
X121021Y84427D01*
X120323Y84335D01*
X119673Y84066D01*
X119114Y83637D01*
X118686Y83079D01*
X118417Y82429D01*
X118325Y81731D01*
X118417Y81033D01*
X118686Y80383D01*
X119086Y79861D01*
X118686Y79339D01*
X118417Y78689D01*
X118325Y77991D01*
X118364Y77691D01*
X118098Y77232D01*
X117955Y77204D01*
X117395Y77131D01*
X116745Y76861D01*
X116186Y76433D01*
X115758Y75874D01*
X115488Y75224D01*
X115396Y74526D01*
X115425Y74313D01*
X114964Y73980D01*
X114553Y74150D01*
X113855Y74242D01*
X113157Y74150D01*
X112507Y73881D01*
X111949Y73452D01*
X111660Y73076D01*
X111419Y72909D01*
X111012Y72973D01*
X110689Y73220D01*
X110039Y73489D01*
X109341Y73581D01*
X108643Y73489D01*
X107993Y73220D01*
X107435Y72791D01*
X107006Y72233D01*
X106737Y71583D01*
X106645Y70885D01*
X106737Y70187D01*
X107006Y69537D01*
X107435Y68978D01*
X107993Y68550D01*
X108643Y68280D01*
X109341Y68189D01*
X109358Y68191D01*
X109369Y68187D01*
X109397Y68177D01*
X109438Y68157D01*
X109493Y68124D01*
X109548Y68086D01*
X109630Y68019D01*
X112180Y65469D01*
X111973Y64969D01*
X106507D01*
X106507Y64969D01*
X105810Y64830D01*
X105219Y64435D01*
X105219Y64435D01*
X102530Y61747D01*
X102057Y61980D01*
X102082Y62173D01*
X101990Y62871D01*
X101721Y63521D01*
X101292Y64080D01*
X100734Y64508D01*
X100083Y64778D01*
X99386Y64869D01*
X98688Y64778D01*
X98037Y64508D01*
X97479Y64080D01*
X97051Y63521D01*
X96781Y62871D01*
X96689Y62173D01*
X96781Y61475D01*
X97051Y60825D01*
X97231Y60590D01*
X96700Y60183D01*
X96271Y59625D01*
X96002Y58974D01*
X95910Y58276D01*
X96002Y57579D01*
X96271Y56928D01*
X96700Y56370D01*
X97258Y55941D01*
X97908Y55672D01*
X98606Y55580D01*
X99304Y55672D01*
X99954Y55941D01*
X100513Y56370D01*
X100523Y56383D01*
X100533Y56389D01*
X100560Y56401D01*
X100603Y56416D01*
X100665Y56432D01*
X100731Y56444D01*
X100837Y56454D01*
X101637D01*
X101637Y56454D01*
X102335Y56593D01*
X102926Y56988D01*
X106003Y60065D01*
X106404Y59776D01*
X106134Y59126D01*
X106043Y58428D01*
X106134Y57730D01*
X106404Y57080D01*
X106832Y56521D01*
X107391Y56093D01*
X108041Y55823D01*
X108739Y55731D01*
X109437Y55823D01*
X110087Y56093D01*
X110645Y56521D01*
X111074Y57080D01*
X111343Y57730D01*
X111435Y58428D01*
X111343Y59126D01*
X111074Y59776D01*
X110645Y60334D01*
X110087Y60763D01*
X109939Y60824D01*
X110038Y61324D01*
X118394D01*
X118455Y61316D01*
X118535Y61302D01*
X118596Y61286D01*
X118640Y61271D01*
X118667Y61259D01*
X118677Y61253D01*
X118687Y61240D01*
X119246Y60811D01*
X119896Y60542D01*
X120594Y60450D01*
X121292Y60542D01*
X121942Y60811D01*
X122501Y61240D01*
X122929Y61798D01*
X123198Y62449D01*
X123290Y63146D01*
X123198Y63844D01*
X123045Y64215D01*
X123054Y64237D01*
X123464Y64511D01*
X127059Y60915D01*
X127091Y60872D01*
X127114Y60834D01*
X127028Y60182D01*
X127120Y59484D01*
X127389Y58834D01*
X127818Y58275D01*
X128376Y57847D01*
X129026Y57578D01*
X129724Y57486D01*
X130422Y57578D01*
X131072Y57847D01*
X131631Y58275D01*
X132059Y58834D01*
X132329Y59484D01*
X132421Y60182D01*
X132329Y60880D01*
X132059Y61530D01*
X131631Y62089D01*
X131072Y62517D01*
X130508Y62751D01*
X130483Y62765D01*
X130444Y62778D01*
X130433Y62782D01*
X130414Y62792D01*
X130281Y62879D01*
X130231Y62917D01*
X130079Y63049D01*
X125303Y67826D01*
X124711Y68221D01*
X124014Y68360D01*
X124014Y68360D01*
X114836D01*
X114749Y68481D01*
X114925Y69095D01*
X115203Y69210D01*
X115629Y69537D01*
X115677Y69564D01*
X115716Y69597D01*
X115718Y69599D01*
X115733Y69607D01*
X115763Y69619D01*
X115811Y69635D01*
X115876Y69651D01*
X115946Y69664D01*
X116050Y69673D01*
X131002D01*
X131064Y69665D01*
X131140Y69650D01*
X131198Y69635D01*
X131238Y69621D01*
X131261Y69610D01*
X131266Y69607D01*
X131300Y69574D01*
X131302Y69573D01*
X131328Y69539D01*
X131887Y69111D01*
X132537Y68841D01*
X133235Y68749D01*
X133933Y68841D01*
X134583Y69111D01*
X135142Y69539D01*
X135570Y70097D01*
X135839Y70748D01*
X135931Y71446D01*
X135839Y72143D01*
X135731Y72404D01*
X136065Y72904D01*
X146813D01*
X147434Y73028D01*
X147960Y73379D01*
X154672Y80092D01*
X154677Y80095D01*
X154735Y80134D01*
X154792Y80167D01*
X154850Y80193D01*
X154910Y80215D01*
X154975Y80232D01*
X155045Y80245D01*
X155123Y80252D01*
X155212Y80255D01*
X155235Y80252D01*
X155933Y80344D01*
X156583Y80613D01*
X157141Y81041D01*
X157570Y81600D01*
X157839Y82250D01*
X157931Y82948D01*
X157839Y83646D01*
X157570Y84296D01*
X157141Y84855D01*
X156583Y85283D01*
X155933Y85552D01*
X155235Y85644D01*
X154537Y85552D01*
X153887Y85283D01*
X153328Y84855D01*
X152900Y84296D01*
X152630Y83646D01*
X152539Y82948D01*
X152542Y82925D01*
X152539Y82836D01*
X152532Y82758D01*
X152519Y82688D01*
X152502Y82623D01*
X152480Y82563D01*
X152454Y82505D01*
X152421Y82448D01*
X152383Y82390D01*
X152379Y82385D01*
X146141Y76148D01*
X142141D01*
X141989Y76648D01*
X142070Y76702D01*
X143651Y78283D01*
X143651Y78283D01*
X144046Y78874D01*
X144185Y79572D01*
X144185Y79572D01*
Y83505D01*
X144046Y84202D01*
X143651Y84794D01*
X143651Y84794D01*
X142728Y85716D01*
X142330Y85983D01*
X141920Y86392D01*
X141813Y86524D01*
X141770Y86585D01*
X141733Y86644D01*
X141709Y86690D01*
X141695Y86719D01*
X141691Y86732D01*
X141679Y86779D01*
X141666Y86807D01*
X141653Y86905D01*
X141383Y87556D01*
X140955Y88114D01*
X140396Y88542D01*
X139746Y88812D01*
X139048Y88904D01*
D02*
G37*
G36*
X16378Y64612D02*
X15680Y64520D01*
X15030Y64251D01*
X14471Y63822D01*
X14043Y63264D01*
X13774Y62613D01*
X13682Y61915D01*
X13774Y61218D01*
X14043Y60567D01*
X14471Y60009D01*
X15030Y59580D01*
X15680Y59311D01*
X16378Y59219D01*
X17076Y59311D01*
X17726Y59580D01*
X18285Y60009D01*
X18713Y60567D01*
X18982Y61218D01*
X19074Y61915D01*
X18982Y62613D01*
X18713Y63264D01*
X18285Y63822D01*
X17726Y64251D01*
X17076Y64520D01*
X16378Y64612D01*
D02*
G37*
G36*
X135807Y62607D02*
X135109Y62515D01*
X134459Y62246D01*
X133900Y61818D01*
X133472Y61259D01*
X133203Y60609D01*
X133111Y59911D01*
X133203Y59213D01*
X133472Y58563D01*
X133900Y58004D01*
X134459Y57576D01*
X135109Y57306D01*
X135807Y57215D01*
X136505Y57306D01*
X137155Y57576D01*
X137714Y58004D01*
X138142Y58563D01*
X138411Y59213D01*
X138503Y59911D01*
X138411Y60609D01*
X138142Y61259D01*
X137714Y61818D01*
X137155Y62246D01*
X136505Y62515D01*
X135807Y62607D01*
D02*
G37*
G36*
X65357Y55031D02*
X64659Y54939D01*
X64009Y54670D01*
X63450Y54241D01*
X63022Y53683D01*
X62752Y53033D01*
X62660Y52335D01*
X62752Y51637D01*
X63022Y50987D01*
X63450Y50428D01*
X64009Y50000D01*
X64659Y49730D01*
X65357Y49639D01*
X66055Y49730D01*
X66705Y50000D01*
X67263Y50428D01*
X67692Y50987D01*
X67961Y51637D01*
X68053Y52335D01*
X67961Y53033D01*
X67692Y53683D01*
X67263Y54241D01*
X66705Y54670D01*
X66055Y54939D01*
X65357Y55031D01*
D02*
G37*
G36*
X33167Y52141D02*
X32469Y52050D01*
X31819Y51780D01*
X31261Y51352D01*
X30832Y50793D01*
X30563Y50143D01*
X30471Y49445D01*
X30563Y48747D01*
X30832Y48097D01*
X31261Y47539D01*
X31819Y47110D01*
X32469Y46841D01*
X33167Y46749D01*
X33865Y46841D01*
X34516Y47110D01*
X35074Y47539D01*
X35502Y48097D01*
X35772Y48747D01*
X35864Y49445D01*
X35772Y50143D01*
X35502Y50793D01*
X35074Y51352D01*
X34516Y51780D01*
X33865Y52050D01*
X33167Y52141D01*
D02*
G37*
G36*
X223898Y41702D02*
X223200Y41610D01*
X222550Y41341D01*
X221991Y40912D01*
X221563Y40354D01*
X221293Y39703D01*
X221201Y39006D01*
X221293Y38308D01*
X221563Y37657D01*
X221991Y37099D01*
X222550Y36671D01*
X223200Y36401D01*
X223898Y36309D01*
X224596Y36401D01*
X225246Y36671D01*
X225804Y37099D01*
X226233Y37657D01*
X226502Y38308D01*
X226594Y39006D01*
X226502Y39703D01*
X226233Y40354D01*
X225804Y40912D01*
X225246Y41341D01*
X224596Y41610D01*
X223898Y41702D01*
D02*
G37*
G36*
X55032Y36621D02*
X54335Y36529D01*
X53684Y36260D01*
X53126Y35832D01*
X52697Y35273D01*
X52428Y34623D01*
X52336Y33925D01*
X52428Y33227D01*
X52697Y32577D01*
X53126Y32019D01*
X53684Y31590D01*
X54335Y31321D01*
X55032Y31229D01*
X55730Y31321D01*
X56381Y31590D01*
X56939Y32019D01*
X57368Y32577D01*
X57637Y33227D01*
X57729Y33925D01*
X57637Y34623D01*
X57368Y35273D01*
X56939Y35832D01*
X56381Y36260D01*
X55730Y36529D01*
X55032Y36621D01*
D02*
G37*
G36*
X147276Y31151D02*
X146463Y30989D01*
X145774Y30529D01*
X145314Y29840D01*
X145152Y29028D01*
X145314Y28215D01*
X145774Y27526D01*
X146463Y27066D01*
X147276Y26904D01*
X148088Y27066D01*
X148777Y27526D01*
X149238Y28215D01*
X149399Y29028D01*
X149238Y29840D01*
X148777Y30529D01*
X148088Y30989D01*
X147276Y31151D01*
D02*
G37*
G36*
X241181Y38476D02*
X239750Y38335D01*
X238374Y37918D01*
X237106Y37240D01*
X235995Y36328D01*
X235083Y35217D01*
X234405Y33949D01*
X233987Y32573D01*
X233847Y31142D01*
X233987Y29711D01*
X234405Y28335D01*
X235083Y27067D01*
X235995Y25956D01*
X237106Y25043D01*
X238374Y24366D01*
X239750Y23948D01*
X241181Y23807D01*
X242612Y23948D01*
X243988Y24366D01*
X245256Y25043D01*
X246367Y25956D01*
X247280Y27067D01*
X247957Y28335D01*
X248375Y29711D01*
X248516Y31142D01*
X248375Y32573D01*
X247957Y33949D01*
X247280Y35217D01*
X246367Y36328D01*
X245256Y37240D01*
X243988Y37918D01*
X242612Y38335D01*
X241181Y38476D01*
D02*
G37*
G36*
X25236Y16772D02*
X24538Y16680D01*
X23888Y16411D01*
X23330Y15982D01*
X22901Y15424D01*
X22654Y14826D01*
X22614Y14766D01*
X22097Y14540D01*
X21427Y14818D01*
X20395Y14954D01*
X19363Y14818D01*
X18401Y14419D01*
X17575Y13786D01*
X16942Y12960D01*
X16544Y11998D01*
X16408Y10967D01*
X16544Y9935D01*
X16942Y8973D01*
X17575Y8147D01*
X18401Y7514D01*
X19363Y7116D01*
X20395Y6980D01*
X21427Y7116D01*
X22388Y7514D01*
X23214Y8147D01*
X23847Y8973D01*
X24246Y9935D01*
X24382Y10967D01*
X24373Y11033D01*
X24824Y11434D01*
X25236Y11379D01*
X25934Y11471D01*
X26043Y11516D01*
X26440Y11212D01*
X26408Y10967D01*
X26544Y9935D01*
X26942Y8973D01*
X27575Y8147D01*
X28401Y7514D01*
X29363Y7116D01*
X30395Y6980D01*
X31427Y7116D01*
X32388Y7514D01*
X33214Y8147D01*
X33847Y8973D01*
X34246Y9935D01*
X34381Y10967D01*
X34246Y11998D01*
X33847Y12960D01*
X33214Y13786D01*
X32388Y14419D01*
X31427Y14818D01*
X30395Y14954D01*
X29363Y14818D01*
X28401Y14419D01*
X28392Y14413D01*
X27859Y14634D01*
X27841Y14773D01*
X27571Y15424D01*
X27143Y15982D01*
X26584Y16411D01*
X25934Y16680D01*
X25236Y16772D01*
D02*
G37*
G36*
X40395Y14954D02*
X39363Y14818D01*
X38401Y14419D01*
X37576Y13786D01*
X36942Y12960D01*
X36544Y11998D01*
X36408Y10967D01*
X36544Y9935D01*
X36942Y8973D01*
X37576Y8147D01*
X38401Y7514D01*
X39363Y7116D01*
X40395Y6980D01*
X41427Y7116D01*
X42388Y7514D01*
X43214Y8147D01*
X43847Y8973D01*
X44246Y9935D01*
X44381Y10967D01*
X44246Y11998D01*
X43847Y12960D01*
X43214Y13786D01*
X42388Y14419D01*
X41427Y14818D01*
X40395Y14954D01*
D02*
G37*
G36*
X10395D02*
X9363Y14818D01*
X8401Y14419D01*
X7576Y13786D01*
X6942Y12960D01*
X6544Y11998D01*
X6408Y10967D01*
X6544Y9935D01*
X6942Y8973D01*
X7576Y8147D01*
X8401Y7514D01*
X9363Y7116D01*
X10395Y6980D01*
X11427Y7116D01*
X12388Y7514D01*
X13214Y8147D01*
X13847Y8973D01*
X14246Y9935D01*
X14381Y10967D01*
X14246Y11998D01*
X13847Y12960D01*
X13214Y13786D01*
X12388Y14419D01*
X11427Y14818D01*
X10395Y14954D01*
D02*
G37*
G36*
X205591Y18476D02*
X204160Y18335D01*
X202785Y17918D01*
X201517Y17240D01*
X200405Y16328D01*
X199493Y15217D01*
X198815Y13949D01*
X198398Y12573D01*
X198257Y11142D01*
X198398Y9711D01*
X198815Y8335D01*
X199493Y7067D01*
X200405Y5956D01*
X201517Y5043D01*
X202785Y4366D01*
X204160Y3948D01*
X205591Y3807D01*
X207022Y3948D01*
X208398Y4366D01*
X209666Y5043D01*
X210778Y5956D01*
X211690Y7067D01*
X212368Y8335D01*
X212785Y9711D01*
X212926Y11142D01*
X212785Y12573D01*
X212368Y13949D01*
X211690Y15217D01*
X210778Y16328D01*
X209666Y17240D01*
X208398Y17918D01*
X207022Y18335D01*
X205591Y18476D01*
D02*
G37*
%LPD*%
G36*
X241486Y79675D02*
X241203Y79979D01*
X240920Y80251D01*
X240638Y80490D01*
X240357Y80698D01*
X240077Y80874D01*
X239798Y81018D01*
X239520Y81130D01*
X239243Y81210D01*
X238967Y81258D01*
X238692Y81274D01*
X238772Y82849D01*
X239038Y82864D01*
X239311Y82909D01*
X239589Y82984D01*
X239875Y83090D01*
X240166Y83225D01*
X240463Y83391D01*
X240767Y83586D01*
X241077Y83812D01*
X241716Y84354D01*
X241486Y79675D01*
D02*
G37*
G36*
X191495Y76091D02*
X191586Y76026D01*
X191688Y75968D01*
X191800Y75918D01*
X191923Y75876D01*
X192057Y75841D01*
X192202Y75815D01*
X192357Y75795D01*
X192523Y75784D01*
X192699Y75780D01*
Y74205D01*
X192523Y74201D01*
X192202Y74171D01*
X192057Y74144D01*
X191923Y74109D01*
X191800Y74067D01*
X191688Y74017D01*
X191586Y73960D01*
X191495Y73894D01*
X191414Y73821D01*
Y76164D01*
X191495Y76091D01*
D02*
G37*
G36*
X180836Y74666D02*
X180852Y74511D01*
X180879Y74360D01*
X180918Y74215D01*
X180968Y74074D01*
X181030Y73938D01*
X181104Y73807D01*
X181188Y73681D01*
X181285Y73560D01*
X181393Y73443D01*
X180558Y72608D01*
X180442Y72716D01*
X180321Y72813D01*
X180194Y72898D01*
X180063Y72971D01*
X179928Y73033D01*
X179787Y73084D01*
X179641Y73123D01*
X179491Y73150D01*
X179336Y73166D01*
X179175Y73170D01*
X180832Y74826D01*
X180836Y74666D01*
D02*
G37*
G36*
X241598Y69555D02*
X241260Y69888D01*
X240615Y70449D01*
X240308Y70676D01*
X240011Y70869D01*
X239725Y71027D01*
X239450Y71149D01*
X239185Y71237D01*
X238930Y71289D01*
X238686Y71307D01*
Y72488D01*
X238930Y72506D01*
X239185Y72558D01*
X239450Y72646D01*
X239725Y72768D01*
X240011Y72926D01*
X240308Y73119D01*
X240615Y73347D01*
X240932Y73609D01*
X241598Y74240D01*
Y69555D01*
D02*
G37*
G36*
X140714Y86436D02*
X140749Y86338D01*
X140795Y86236D01*
X140852Y86130D01*
X140920Y86021D01*
X141000Y85908D01*
X141192Y85671D01*
X141305Y85547D01*
X141429Y85419D01*
X140581Y84041D01*
X140453Y84162D01*
X140327Y84269D01*
X140203Y84360D01*
X140082Y84436D01*
X139963Y84497D01*
X139847Y84543D01*
X139732Y84573D01*
X139620Y84588D01*
X139511Y84588D01*
X139403Y84572D01*
X140690Y86530D01*
X140714Y86436D01*
D02*
G37*
G36*
X137972Y80790D02*
X137890Y80859D01*
X137797Y80920D01*
X137693Y80975D01*
X137579Y81022D01*
X137455Y81062D01*
X137320Y81095D01*
X137175Y81120D01*
X137019Y81138D01*
X136676Y81153D01*
X136602Y82727D01*
X136779Y82731D01*
X137099Y82764D01*
X137242Y82792D01*
X137375Y82828D01*
X137497Y82872D01*
X137608Y82925D01*
X137708Y82985D01*
X137797Y83054D01*
X137875Y83130D01*
X137972Y80790D01*
D02*
G37*
G36*
X122144Y82982D02*
X122239Y82929D01*
X122345Y82882D01*
X122460Y82841D01*
X122586Y82806D01*
X122722Y82778D01*
X122868Y82756D01*
X123192Y82731D01*
X123369Y82727D01*
X123595Y81153D01*
X123418Y81148D01*
X123254Y81135D01*
X123100Y81114D01*
X122959Y81083D01*
X122829Y81044D01*
X122710Y80996D01*
X122603Y80940D01*
X122508Y80875D01*
X122425Y80801D01*
X122353Y80718D01*
X122060Y83042D01*
X122144Y82982D01*
D02*
G37*
G36*
X155218Y81275D02*
X155058Y81271D01*
X154903Y81255D01*
X154752Y81228D01*
X154607Y81189D01*
X154466Y81139D01*
X154330Y81077D01*
X154199Y81003D01*
X154073Y80918D01*
X153952Y80822D01*
X153836Y80713D01*
X153000Y81549D01*
X153109Y81665D01*
X153205Y81786D01*
X153290Y81912D01*
X153364Y82043D01*
X153426Y82179D01*
X153476Y82320D01*
X153515Y82465D01*
X153542Y82616D01*
X153558Y82771D01*
X153562Y82931D01*
X155218Y81275D01*
D02*
G37*
G36*
X122296Y79089D02*
X122388Y79024D01*
X122490Y78966D01*
X122602Y78916D01*
X122725Y78874D01*
X122859Y78839D01*
X123004Y78813D01*
X123159Y78793D01*
X123325Y78782D01*
X123501Y78778D01*
Y77203D01*
X123325Y77199D01*
X123004Y77169D01*
X122859Y77142D01*
X122725Y77107D01*
X122602Y77065D01*
X122490Y77015D01*
X122388Y76958D01*
X122296Y76892D01*
X122216Y76819D01*
Y79162D01*
X122296Y79089D01*
D02*
G37*
G36*
X119404Y75587D02*
X119525Y75488D01*
X119650Y75401D01*
X119781Y75326D01*
X119916Y75262D01*
X120056Y75210D01*
X120200Y75169D01*
X120350Y75140D01*
X120503Y75122D01*
X120662Y75117D01*
Y73936D01*
X120503Y73930D01*
X120350Y73912D01*
X120200Y73883D01*
X120056Y73843D01*
X119916Y73790D01*
X119781Y73727D01*
X119650Y73651D01*
X119525Y73564D01*
X119404Y73465D01*
X119288Y73355D01*
Y75697D01*
X119404Y75587D01*
D02*
G37*
G36*
X115164Y72605D02*
X115253Y72537D01*
X115354Y72478D01*
X115465Y72426D01*
X115587Y72382D01*
X115720Y72347D01*
X115865Y72319D01*
X116019Y72299D01*
X116185Y72287D01*
X116361Y72283D01*
X116308Y70708D01*
X116131Y70704D01*
X115810Y70675D01*
X115665Y70649D01*
X115530Y70616D01*
X115406Y70575D01*
X115293Y70527D01*
X115189Y70472D01*
X115097Y70409D01*
X115015Y70339D01*
X115085Y72680D01*
X115164Y72605D01*
D02*
G37*
G36*
X132006Y70310D02*
X131927Y70386D01*
X131837Y70454D01*
X131736Y70513D01*
X131625Y70565D01*
X131503Y70609D01*
X131370Y70644D01*
X131226Y70672D01*
X131071Y70692D01*
X130905Y70704D01*
X130729Y70708D01*
X130782Y72283D01*
X130959Y72287D01*
X131281Y72316D01*
X131426Y72342D01*
X131560Y72375D01*
X131684Y72416D01*
X131798Y72464D01*
X131901Y72519D01*
X131993Y72582D01*
X132076Y72652D01*
X132006Y70310D01*
D02*
G37*
G36*
X111020Y70760D02*
X111038Y70649D01*
X111070Y70536D01*
X111114Y70421D01*
X111171Y70304D01*
X111241Y70185D01*
X111325Y70064D01*
X111421Y69941D01*
X111530Y69815D01*
X111652Y69688D01*
X110538Y68574D01*
X110411Y68696D01*
X110162Y68902D01*
X110041Y68985D01*
X109922Y69055D01*
X109805Y69112D01*
X109690Y69157D01*
X109577Y69188D01*
X109467Y69206D01*
X109358Y69212D01*
X111014Y70868D01*
X111020Y70760D01*
D02*
G37*
G36*
X119399Y61975D02*
X119318Y62048D01*
X119227Y62113D01*
X119125Y62171D01*
X119013Y62221D01*
X118890Y62263D01*
X118756Y62298D01*
X118611Y62325D01*
X118456Y62344D01*
X118290Y62355D01*
X118114Y62359D01*
Y63934D01*
X118290Y63938D01*
X118611Y63968D01*
X118756Y63995D01*
X118890Y64030D01*
X119013Y64072D01*
X119125Y64122D01*
X119227Y64179D01*
X119318Y64245D01*
X119399Y64318D01*
Y61975D01*
D02*
G37*
G36*
X129231Y62437D02*
X129587Y62125D01*
X129696Y62043D01*
X129898Y61912D01*
X129992Y61862D01*
X130081Y61824D01*
X130164Y61796D01*
X128119Y60654D01*
X128141Y60758D01*
X128148Y60865D01*
X128138Y60975D01*
X128112Y61087D01*
X128070Y61202D01*
X128012Y61319D01*
X127938Y61440D01*
X127848Y61563D01*
X127743Y61689D01*
X127620Y61817D01*
X129102Y62563D01*
X129231Y62437D01*
D02*
G37*
G36*
X99882Y59375D02*
X99973Y59310D01*
X100075Y59252D01*
X100187Y59202D01*
X100311Y59160D01*
X100444Y59125D01*
X100589Y59098D01*
X100744Y59079D01*
X100910Y59068D01*
X101086Y59064D01*
Y57489D01*
X100910Y57485D01*
X100589Y57455D01*
X100444Y57428D01*
X100311Y57393D01*
X100187Y57351D01*
X100075Y57301D01*
X99973Y57243D01*
X99882Y57178D01*
X99801Y57105D01*
Y59448D01*
X99882Y59375D01*
D02*
G37*
D10*
X54887Y68903D02*
X57462Y71478D01*
X51383Y68903D02*
X54887D01*
X57462Y71478D02*
Y107641D01*
X63101Y127953D02*
X96425D01*
X61355Y111534D02*
Y126207D01*
X63101Y127953D01*
X57462Y107641D02*
X61355Y111534D01*
X5137Y118212D02*
X11369Y124444D01*
X42148D02*
X50573Y116019D01*
X11369Y124444D02*
X42148D01*
X96425Y127953D02*
X103081Y134608D01*
X50573Y104410D02*
Y116019D01*
X54681Y86876D02*
X55371Y87566D01*
Y99612D01*
X50573Y104410D02*
X55371Y99612D01*
X188230Y157480D02*
Y158119D01*
X187638Y158712D02*
X188230Y158119D01*
X187638Y158712D02*
Y158908D01*
X150236Y159957D02*
X186589D01*
X187638Y158908D01*
X115469Y158354D02*
X148633D01*
X150236Y159957D01*
X103081Y134608D02*
X103701D01*
D49*
X243988Y91898D02*
D03*
Y101898D02*
D03*
Y61898D02*
D03*
Y51898D02*
D03*
Y71898D02*
D03*
Y81898D02*
D03*
D50*
Y121898D02*
D03*
D55*
X91398Y50197D02*
X114994D01*
X41775Y40969D02*
X82170D01*
X91398Y50197D01*
X181444Y116154D02*
X184262Y118972D01*
X164926Y116154D02*
X181444D01*
X154174Y115158D02*
X163929D01*
X164926Y116154D01*
X153362Y115158D02*
X154174D01*
X85858Y165099D02*
X88732Y162225D01*
X63727Y165099D02*
X85858D01*
X56675Y172086D02*
X63651Y165110D01*
X43631Y172086D02*
X56675D01*
X25091Y154382D02*
X101062D01*
X1472Y130764D02*
X25091Y154382D01*
X101062D02*
X110484Y144960D01*
X115429Y46734D02*
X117132Y45031D01*
X93432Y46734D02*
X115429D01*
X40421Y42323D02*
X41775Y40969D01*
X40001Y42323D02*
X40421D01*
X19324Y32850D02*
Y35253D01*
X1472Y53105D02*
X19324Y35253D01*
X71284Y131549D02*
X95593D01*
X95596Y131552D01*
X155412Y5967D02*
X170596Y21151D01*
X187164Y22577D02*
X187513D01*
X185739Y21151D02*
X187164Y22577D01*
X170596Y21151D02*
X185739D01*
X160518Y108246D02*
X166852Y114579D01*
X140135Y108246D02*
X160518D01*
X169054Y114579D02*
X186650Y96983D01*
Y82682D02*
Y96983D01*
X149164Y110960D02*
X153362Y115158D01*
X166852Y114579D02*
X169054D01*
X118740Y143701D02*
X119192D01*
X121197Y141695D02*
X135217D01*
X119192Y143701D02*
X121197Y141695D01*
X117481Y144960D02*
X118740Y143701D01*
X135217Y141695D02*
X138610Y145088D01*
X110484Y144960D02*
X117481D01*
X118191Y147632D02*
X118477D01*
X112525Y147618D02*
X119374Y154467D01*
Y139298D02*
X119607Y139531D01*
X136590D02*
X139407Y142348D01*
X119607Y139531D02*
X136590D01*
X125868Y147999D02*
Y148026D01*
X129260Y144607D02*
X134475D01*
X125868Y147999D02*
X129260Y144607D01*
X134475D02*
X136533Y146665D01*
X146077Y142348D02*
X149993Y138432D01*
X139407Y142348D02*
X146077D01*
X180417Y122749D02*
X180529Y122636D01*
X187723D01*
X223453Y146665D02*
X229961Y140157D01*
X136533Y146665D02*
X223453D01*
X138610Y145088D02*
X172165D01*
X131742Y147264D02*
X131941D01*
X133516Y148839D01*
X227684D01*
X138171Y110960D02*
X149164D01*
X146813Y74526D02*
X155235Y82948D01*
X118093Y74526D02*
X146813D01*
X1472Y53105D02*
Y130764D01*
X184961Y46734D02*
X188509Y43186D01*
X239936Y55950D02*
X243988Y51898D01*
X145317Y55950D02*
X239936D01*
X143356Y92093D02*
X179178D01*
X179251Y92020D01*
X143355Y92092D02*
X143356Y92093D01*
X175127Y142126D02*
X192167D01*
X172165Y145088D02*
X175127Y142126D01*
X129045Y127953D02*
X135233Y134140D01*
X189805D01*
X192262Y136597D02*
Y137271D01*
X189805Y134140D02*
X192262Y136597D01*
X227684Y148839D02*
X232913Y143610D01*
X195890Y151124D02*
X196263Y151497D01*
X121969Y151124D02*
X195890D01*
X149993Y138432D02*
X179948D01*
X180356Y138839D01*
X119374Y154467D02*
X200041D01*
X118477Y147632D02*
X121969Y151124D01*
X124807Y98203D02*
X125415D01*
X138171Y110960D01*
X130041Y49597D02*
X132904Y46734D01*
X184961D01*
X124807Y49597D02*
X130041D01*
X120242Y45031D02*
X124807Y49597D01*
X117132Y45031D02*
X120242D01*
X117947Y53150D02*
X175827D01*
X71284Y9843D02*
Y14930D01*
Y9843D02*
X75160Y5967D01*
X155412D01*
X114994Y50197D02*
X117947Y53150D01*
X182104Y71898D02*
X243988D01*
X179159Y74843D02*
X182104Y71898D01*
X63144Y139689D02*
X71284Y131549D01*
X62603Y139689D02*
X63144D01*
X112525Y122104D02*
X118374Y127953D01*
X129045D01*
D56*
X64827Y158908D02*
X108185D01*
X60358Y163377D02*
Y163377D01*
Y163377D02*
X64827Y158908D01*
X67248Y171899D02*
X216161D01*
X66949D02*
X67248D01*
X216161D02*
X228465Y159595D01*
X-6692Y26490D02*
Y146201D01*
X3655Y156548D02*
X103842D01*
X-6692Y146201D02*
X3655Y156548D01*
X103842D02*
X104603Y155787D01*
X228465Y159595D02*
X237689D01*
X-1760Y21557D02*
X3583D01*
X104603Y155787D02*
X118595D01*
X119356Y156548D01*
X151485D02*
X152246Y157309D01*
X119356Y156548D02*
X151485D01*
X110619Y161343D02*
X196959D01*
X204147Y154155D01*
X108185Y158908D02*
X110619Y161343D01*
X204147Y151575D02*
Y154155D01*
X152246Y157309D02*
X162047D01*
X3583Y21557D02*
X26598D01*
X29173Y24133D01*
X-6692Y26490D02*
X-1760Y21557D01*
X46990Y22139D02*
X47490D01*
X44996Y24133D02*
X46990Y22139D01*
X29173Y24133D02*
X44996D01*
X249343Y107789D02*
Y147941D01*
X237689Y159595D02*
X249343Y147941D01*
X243988Y102434D02*
X249343Y107789D01*
X243988Y101898D02*
Y102434D01*
D57*
X109148Y118423D02*
X113234D01*
X114831Y120020D02*
X121230D01*
X113234Y118423D02*
X114831Y120020D01*
X132414Y117020D02*
X134594Y119200D01*
X163429D02*
X163535Y119095D01*
X134594Y119200D02*
X163429D01*
X56004Y176710D02*
X64028Y168686D01*
X95718D02*
X98682Y165723D01*
X64028Y168686D02*
X95718D01*
X39805Y176710D02*
X56004D01*
X78332Y28323D02*
X85022D01*
X87562Y30862D01*
X74467Y24458D02*
X78332Y28323D01*
X58817Y126035D02*
X65176Y132394D01*
X58817Y113572D02*
Y126035D01*
X65176Y132394D02*
X65493D01*
X54903Y109658D02*
X58817Y113572D01*
X54903Y104552D02*
Y109658D01*
X126101Y124890D02*
X130324D01*
X121230Y120020D02*
X126101Y124890D01*
X167953Y99593D02*
Y111922D01*
X98273Y151601D02*
X114690Y135184D01*
Y134000D02*
Y135184D01*
X116430Y116984D02*
X116466Y117020D01*
X132414D01*
X108739Y100693D02*
Y104896D01*
X106395Y107240D02*
Y115670D01*
Y107240D02*
X108739Y104896D01*
X238506Y60918D02*
X243009D01*
X237499Y59911D02*
X238506Y60918D01*
X196263Y59911D02*
X237499D01*
X243009Y60918D02*
X243988Y61898D01*
X113752Y87598D02*
X130280D01*
X110552Y84399D02*
X113752Y87598D01*
X130280D02*
X137856Y95175D01*
X110073Y84399D02*
X110552D01*
X123196Y23512D02*
X127844D01*
X111117Y35590D02*
X123196Y23512D01*
X154173Y129921D02*
X210276D01*
X218299Y121898D02*
X243988D01*
X210276Y129921D02*
X218299Y121898D01*
X152566Y38932D02*
X152596Y38902D01*
X187579D01*
X187609Y38871D01*
X119763Y38845D02*
X127081Y46163D01*
X100887Y38845D02*
X119763D01*
X132602Y36831D02*
X150464D01*
X152566Y38932D01*
X128881Y40551D02*
X132602Y36831D01*
X31580Y21090D02*
X41236D01*
X44028Y18298D01*
X72944D01*
X75735Y21090D01*
X58342Y21557D02*
X71566D01*
X72470Y22461D01*
X190219Y74993D02*
X230620D01*
X243824Y82061D02*
X243988Y81898D01*
X237689Y82061D02*
X243824D01*
X230620Y74993D02*
X237689Y82061D01*
X138021Y115000D02*
X138500D01*
X109804Y113624D02*
X136644D01*
X138021Y115000D01*
X163535Y95175D02*
X167953Y99593D01*
X146549Y95175D02*
X163535D01*
X146464Y95260D02*
X146549Y95175D01*
X144100Y95260D02*
X146464D01*
X106395Y115670D02*
X109148Y118423D01*
X137856Y95175D02*
X144015D01*
X144100Y95260D01*
X121230Y81940D02*
X139048D01*
X139118Y82009D01*
X121021Y81731D02*
X121230Y81940D01*
X121021Y77991D02*
X140781D01*
X72795Y22461D02*
X74467Y24133D01*
X72470Y22461D02*
X72795D01*
X74467Y24133D02*
Y24458D01*
X139048Y86207D02*
X139528D01*
X141307Y84428D01*
X141440D01*
X142362Y83505D01*
Y79572D02*
Y83505D01*
X140781Y77991D02*
X142362Y79572D01*
X113855Y71545D02*
X113905Y71495D01*
X133185D01*
X133235Y71446D01*
X124014Y66537D02*
X129724Y60827D01*
X109341Y70885D02*
X113689Y66537D01*
X124014D01*
X106507Y63146D02*
X120594D01*
X86604Y24561D02*
X100887Y38845D01*
X98606Y58276D02*
X101637D01*
X106507Y63146D01*
X129724Y60182D02*
Y60827D01*
X127844Y23512D02*
X128046Y23714D01*
X87562Y30862D02*
Y31319D01*
X75735Y21090D02*
X79207Y24561D01*
X86604D01*
D58*
X8893Y127718D02*
X49426D01*
X69417Y125413D02*
X98735D01*
X103552Y130230D01*
X110395Y11362D02*
X118789Y19757D01*
X157081D01*
X169616Y32291D01*
X205691Y31948D02*
X206143Y31496D01*
X204021Y31948D02*
X205691D01*
X203678Y32291D02*
X204021Y31948D01*
X169616Y32291D02*
X203678D01*
X193558Y21915D02*
X208844D01*
X171939Y26748D02*
X188726D01*
X141830Y138271D02*
X142362D01*
X140319Y136760D02*
X141830Y138271D01*
X133848Y136760D02*
X140319D01*
X110395Y10967D02*
Y11362D01*
D60*
X65045Y125413D02*
X69417D01*
X64781Y125149D02*
X65045Y125413D01*
X62632Y151601D02*
X92955D01*
X49426Y127718D02*
X55227Y121917D01*
X103552Y130230D02*
X127318D01*
X133848Y136760D01*
X194200Y126250D02*
X211260Y109189D01*
X209883Y82220D02*
Y82593D01*
X211260Y83969D02*
Y109189D01*
X209883Y82593D02*
X211260Y83969D01*
X55032Y23438D02*
X56726Y25131D01*
X71428D01*
X52266Y23438D02*
X55032D01*
X49609Y26095D02*
X52266Y23438D01*
X20104Y26095D02*
X49609D01*
X142331Y130740D02*
X146821Y126250D01*
X194200D01*
X71428Y25131D02*
X71612Y25315D01*
X92955Y151601D02*
X109804Y134752D01*
X20007Y25998D02*
X20104Y26095D01*
X13674Y25998D02*
X20007D01*
X6536Y24133D02*
X11808D01*
X13674Y25998D01*
D61*
X188726Y26748D02*
X193558Y21915D01*
X208844D02*
X213427Y26498D01*
D88*
X90395Y10967D02*
D03*
X100395D02*
D03*
X110395D02*
D03*
X156395Y200967D02*
D03*
D90*
X64781Y125149D02*
D03*
X67248Y171899D02*
D03*
X60358Y163377D02*
D03*
X43199D02*
D03*
X88732Y162225D02*
D03*
X43631Y172086D02*
D03*
X39805Y176710D02*
D03*
X98682Y165723D02*
D03*
X43949Y29736D02*
D03*
X62632Y151725D02*
D03*
X60632Y144725D02*
D03*
X34449Y33498D02*
D03*
X78702Y32850D02*
D03*
X61100Y34114D02*
D03*
X93432Y46734D02*
D03*
X40001Y42323D02*
D03*
X19324Y32850D02*
D03*
X54681Y86876D02*
D03*
X54903Y104552D02*
D03*
X55227Y121917D02*
D03*
X95596Y131552D02*
D03*
X178401Y35792D02*
D03*
X165304Y33925D02*
D03*
X154174Y115158D02*
D03*
X167953Y111922D02*
D03*
X118191Y147632D02*
D03*
X118740Y143701D02*
D03*
X119374Y139298D02*
D03*
X114690Y134000D02*
D03*
X125868Y148026D02*
D03*
X116430Y116984D02*
D03*
X130324Y124890D02*
D03*
X203103Y97438D02*
D03*
X187723Y122636D02*
D03*
X9873Y39169D02*
D03*
X196263Y59911D02*
D03*
X3583Y21557D02*
D03*
X146299Y60638D02*
D03*
X108739Y189362D02*
D03*
X133848Y175729D02*
D03*
X187513Y22577D02*
D03*
X159782Y122455D02*
D03*
X156031Y104017D02*
D03*
X232913Y164370D02*
D03*
X217758Y159536D02*
D03*
X159782Y164370D02*
D03*
X151644Y164654D02*
D03*
X164694Y142126D02*
D03*
X227992Y49803D02*
D03*
X178401Y60630D02*
D03*
X190135Y60841D02*
D03*
X193508Y52335D02*
D03*
X180417Y53115D02*
D03*
X176384Y53150D02*
D03*
X161044Y49597D02*
D03*
X166562Y60827D02*
D03*
X155610Y61452D02*
D03*
X180417Y122749D02*
D03*
X190610Y103479D02*
D03*
X188509Y43186D02*
D03*
X184262Y118972D02*
D03*
X154173Y129921D02*
D03*
X140135Y103872D02*
D03*
X145317Y55950D02*
D03*
X143355Y92092D02*
D03*
X196263Y151497D02*
D03*
X180356Y138839D02*
D03*
X188230Y157480D02*
D03*
X115469Y158354D02*
D03*
X204147Y151575D02*
D03*
X200041Y154467D02*
D03*
X162047Y157309D02*
D03*
X192167Y142126D02*
D03*
X229961Y140157D02*
D03*
X232913Y143610D02*
D03*
X155235Y87412D02*
D03*
X124807Y98203D02*
D03*
X163535Y119095D02*
D03*
X82218Y17944D02*
D03*
X112692Y19756D02*
D03*
X98952Y75288D02*
D03*
X99325Y110068D02*
D03*
X110661Y91511D02*
D03*
X98931Y100717D02*
D03*
X187609Y38871D02*
D03*
X140135Y50197D02*
D03*
X127081Y46163D02*
D03*
X152566Y38932D02*
D03*
X71284Y14930D02*
D03*
X155235Y82948D02*
D03*
X47490Y22139D02*
D03*
X31580Y21090D02*
D03*
X52266Y23438D02*
D03*
X58342Y21557D02*
D03*
X190219Y74993D02*
D03*
X179159Y74843D02*
D03*
X179251Y92020D02*
D03*
X62603Y139689D02*
D03*
X138500Y115000D02*
D03*
X115872Y110201D02*
D03*
X109804Y113624D02*
D03*
X160942Y89435D02*
D03*
X103701Y134608D02*
D03*
X96395Y135650D02*
D03*
X68938Y141491D02*
D03*
X109804Y134752D02*
D03*
X108185Y158908D02*
D03*
X98273Y151601D02*
D03*
X5137Y118212D02*
D03*
X186650Y82682D02*
D03*
X140135Y108246D02*
D03*
X209883Y82220D02*
D03*
X131742Y147264D02*
D03*
X67501Y120456D02*
D03*
X6536Y24133D02*
D03*
X51383Y68903D02*
D03*
X192262Y137271D02*
D03*
X112525Y122104D02*
D03*
X80910Y93300D02*
D03*
Y99756D02*
D03*
Y86786D02*
D03*
X118093Y74526D02*
D03*
X121021Y81731D02*
D03*
Y77991D02*
D03*
X110073Y84399D02*
D03*
X47895Y123306D02*
D03*
X71612Y25315D02*
D03*
X112525Y147618D02*
D03*
X139048Y86207D02*
D03*
X113855Y71545D02*
D03*
X120594Y63146D02*
D03*
X133235Y71446D02*
D03*
X109341Y70885D02*
D03*
X98606Y58276D02*
D03*
X129724Y60182D02*
D03*
X128881Y40551D02*
D03*
X139118Y90912D02*
D03*
X108739Y100693D02*
D03*
X139118Y82009D02*
D03*
X139089Y27802D02*
D03*
X111117Y35590D02*
D03*
X128046Y23714D02*
D03*
X139118Y40580D02*
D03*
X87562Y31319D02*
D03*
X75735Y21090D02*
D03*
X20104Y26095D02*
D03*
X30143Y58628D02*
D03*
X74239Y120937D02*
D03*
X80908Y73488D02*
D03*
X80910Y66700D02*
D03*
X77134Y58800D02*
D03*
X38271Y121092D02*
D03*
X216930Y30284D02*
D03*
X30340Y120746D02*
D03*
X26299Y113425D02*
D03*
Y106706D02*
D03*
Y100293D02*
D03*
Y93370D02*
D03*
Y87270D02*
D03*
X65493Y132394D02*
D03*
X79333Y118423D02*
D03*
X80910Y112963D02*
D03*
X26299Y81021D02*
D03*
X26298Y73703D02*
D03*
X71701Y58800D02*
D03*
X75735Y63877D02*
D03*
X76035Y70141D02*
D03*
Y76800D02*
D03*
X80910Y80102D02*
D03*
X76035Y83423D02*
D03*
Y90100D02*
D03*
Y96500D02*
D03*
X31780D02*
D03*
Y90100D02*
D03*
Y83423D02*
D03*
Y76800D02*
D03*
Y70144D02*
D03*
X31778Y63877D02*
D03*
X35813Y58800D02*
D03*
X76035Y103058D02*
D03*
X80910Y106400D02*
D03*
X31780Y103058D02*
D03*
X26299Y66269D02*
D03*
D91*
X63962Y100293D02*
D03*
X43381D02*
D03*
X44436Y67220D02*
D03*
X42742Y71992D02*
D03*
X44394Y76835D02*
D03*
X66827Y55701D02*
D03*
X59866Y96808D02*
D03*
X47842Y97228D02*
D03*
X61967Y106533D02*
D03*
X63175Y93726D02*
D03*
X55312Y58528D02*
D03*
X52178D02*
D03*
X52153Y61687D02*
D03*
X66827Y64541D02*
D03*
X59637Y102032D02*
D03*
X45515Y106992D02*
D03*
X47842Y57836D02*
D03*
X47849Y62407D02*
D03*
X44548Y94461D02*
D03*
X47912Y101900D02*
D03*
X62445Y75356D02*
D03*
X55336Y61687D02*
D03*
D92*
X171939Y26748D02*
D03*
X142362Y138271D02*
D03*
X8893Y127718D02*
D03*
X206143Y31496D02*
D03*
X213427Y26498D02*
D03*
X142331Y130740D02*
D03*
D101*
X35473Y115984D02*
D03*
X40591D02*
D03*
Y110866D02*
D03*
X67112Y116010D02*
D03*
X72231D02*
D03*
X67112Y110892D02*
D03*
X72231D02*
D03*
X35473Y110866D02*
D03*
M02*
