G04*
G04 #@! TF.GenerationSoftware,Altium Limited,Altium Designer,20.1.11 (218)*
G04*
G04 Layer_Color=16711935*
%FSLAX25Y25*%
%MOIN*%
G70*
G04*
G04 #@! TF.SameCoordinates,FBA81C19-FCCB-422B-9B6C-78DF9D3B5762*
G04*
G04*
G04 #@! TF.FilePolarity,Positive*
G04*
G01*
G75*
%ADD104C,0.00050*%
D104*
X51534Y60110D02*
X51763D01*
X51534Y58377D02*
Y60110D01*
X51083Y58377D02*
X51534D01*
X51083Y58240D02*
Y58377D01*
Y58240D02*
X51534D01*
Y57909D02*
Y58240D01*
Y57909D02*
X54308D01*
X54310Y57909D01*
X54312Y57908D01*
X54313Y57907D01*
X54315Y57905D01*
X54316Y57904D01*
X54316Y57902D01*
X54317Y57900D01*
Y57898D02*
Y57900D01*
X54316Y57896D02*
X54317Y57898D01*
X54316Y57894D02*
X54316Y57896D01*
X54315Y57893D02*
X54316Y57894D01*
X54313Y57891D02*
X54315Y57893D01*
X54312Y57890D02*
X54313Y57891D01*
X54310Y57890D02*
X54312Y57890D01*
X54308Y57889D02*
X54310Y57890D01*
X51515Y57889D02*
X54308D01*
X51515D02*
Y58220D01*
X51064D02*
X51515D01*
X51064D02*
Y58397D01*
X51515D01*
Y60110D01*
X51416D02*
X51515D01*
X51416Y60007D02*
Y60110D01*
X51385Y60007D02*
X51416D01*
X51385D02*
Y60232D01*
X51416D01*
Y60129D02*
Y60232D01*
Y60129D02*
X51515D01*
Y60759D01*
X51551D01*
X51553Y60759D01*
X51555Y60758D01*
X51556Y60757D01*
X51558Y60756D01*
X51559Y60754D01*
X51559Y60752D01*
X51560Y60751D01*
Y60748D02*
Y60751D01*
X51559Y60747D02*
X51560Y60748D01*
X51559Y60745D02*
X51559Y60747D01*
X51558Y60743D02*
X51559Y60745D01*
X51556Y60742D02*
X51558Y60743D01*
X51555Y60741D02*
X51556Y60742D01*
X51553Y60740D02*
X51555Y60741D01*
X51551Y60740D02*
X51553Y60740D01*
X51534Y60740D02*
X51551D01*
X51534Y60129D02*
Y60740D01*
Y60129D02*
X51783D01*
Y59988D02*
Y60129D01*
Y59988D02*
X51943D01*
Y59635D02*
Y59988D01*
X51616Y59635D02*
X51943D01*
X51616D02*
Y59959D01*
X51914D01*
Y59664D02*
Y59959D01*
X51646Y59664D02*
X51914D01*
X51646D02*
Y59930D01*
X51885D01*
Y59694D02*
Y59930D01*
X51675Y59694D02*
X51885D01*
X51675D02*
Y59901D01*
X51856D01*
Y59723D02*
Y59901D01*
X51763Y59723D02*
X51856D01*
X51763D02*
Y59743D01*
X51783D01*
Y59742D02*
Y59743D01*
Y59742D02*
X51836D01*
Y59881D01*
X51695D02*
X51836D01*
X51695Y59713D02*
Y59881D01*
Y59713D02*
X51865D01*
Y59910D01*
X51665D02*
X51865D01*
X51665Y59684D02*
Y59910D01*
Y59684D02*
X51894D01*
Y59939D01*
X51636D02*
X51894D01*
X51636Y59655D02*
Y59939D01*
Y59655D02*
X51923D01*
Y59968D01*
X51763D02*
X51923D01*
X51763D02*
Y60110D01*
X55906Y60129D02*
X55955D01*
Y61901D01*
X56406D01*
Y62039D01*
X55955D02*
X56406D01*
X55955D02*
Y62216D01*
X56406D01*
Y62354D01*
X55955D02*
X56406D01*
X55955D02*
Y62749D01*
X55585D02*
X55955D01*
X55585Y62633D02*
Y62749D01*
Y62633D02*
X55818D01*
Y62488D02*
Y62633D01*
X55583Y62488D02*
X55818D01*
X55583Y62350D02*
Y62488D01*
Y62350D02*
X55762D01*
X55764Y62349D01*
X55765Y62349D01*
X55767Y62348D01*
X55768Y62346D01*
X55769Y62345D01*
X55770Y62343D01*
X55770Y62341D01*
Y62339D02*
Y62341D01*
X55770Y62337D02*
X55770Y62339D01*
X55769Y62335D02*
X55770Y62337D01*
X55768Y62334D02*
X55769Y62335D01*
X55767Y62332D02*
X55768Y62334D01*
X55765Y62331D02*
X55767Y62332D01*
X55764Y62331D02*
X55765Y62331D01*
X55762Y62330D02*
X55764Y62331D01*
X55564Y62330D02*
X55762D01*
X55564D02*
Y62507D01*
X55798D01*
Y62614D01*
X55566D02*
X55798D01*
X55566D02*
Y62769D01*
X55975D01*
Y62374D02*
Y62769D01*
Y62374D02*
X56426D01*
Y62196D02*
Y62374D01*
X55975Y62196D02*
X56426D01*
X55975Y62059D02*
Y62196D01*
Y62059D02*
X56426D01*
Y61881D02*
Y62059D01*
X55975Y61881D02*
X56426D01*
X55975Y60129D02*
Y61881D01*
Y60129D02*
X56074D01*
Y60232D01*
X56098D01*
Y60007D02*
Y60232D01*
X56074Y60007D02*
X56098D01*
X56074D02*
Y60110D01*
X55975D02*
X56074D01*
X55975Y59598D02*
Y60110D01*
X55687Y59598D02*
X55975D01*
X55687Y59496D02*
Y59598D01*
X55527Y59496D02*
X55687D01*
X55527Y59183D02*
Y59496D01*
Y59183D02*
X55814D01*
Y59467D01*
X55556D02*
X55814D01*
X55556Y59212D02*
Y59467D01*
Y59212D02*
X55785D01*
Y59438D01*
X55585D02*
X55785D01*
X55585Y59241D02*
Y59438D01*
Y59241D02*
X55756D01*
Y59409D01*
X55614D02*
X55756D01*
X55614Y59270D02*
Y59409D01*
Y59270D02*
X55667D01*
Y59271D01*
X55687D01*
Y59250D02*
Y59271D01*
X55595Y59250D02*
X55687D01*
X55595D02*
Y59428D01*
X55776D01*
Y59221D02*
Y59428D01*
X55566Y59221D02*
X55776D01*
X55566D02*
Y59457D01*
X55805D01*
Y59192D02*
Y59457D01*
X55536Y59192D02*
X55805D01*
X55536D02*
Y59487D01*
X55834D01*
Y59163D02*
Y59487D01*
X55507Y59163D02*
X55834D01*
X55507D02*
Y59516D01*
X55667D01*
Y59618D01*
X55955D01*
Y60110D01*
X55906D02*
X55955D01*
X55906D02*
Y60129D01*
X51355Y58606D02*
X51416D01*
X51355D02*
Y58877D01*
X51416D01*
Y58606D02*
Y58877D01*
X51355Y62149D02*
X51416D01*
X51355D02*
Y62421D01*
X51416D01*
Y62149D02*
Y62421D01*
X51355Y61165D02*
X51416D01*
X51355D02*
Y61436D01*
X51416D01*
Y61165D02*
Y61436D01*
X51355Y60378D02*
X51416D01*
X51355D02*
Y60649D01*
X51416D01*
Y60378D02*
Y60649D01*
X51355Y59590D02*
X51416D01*
X51355D02*
Y59862D01*
X51416D01*
Y59590D02*
Y59862D01*
X51355Y59098D02*
X51416D01*
X51355D02*
Y59370D01*
X51416D01*
Y59098D02*
Y59370D01*
X51355Y60795D02*
X51416D01*
X51355D02*
Y61019D01*
X51416D01*
Y60795D02*
Y61019D01*
X51355Y61657D02*
X51416D01*
X51355D02*
Y61929D01*
X51416D01*
Y61657D02*
Y61929D01*
X56074Y58606D02*
X56135D01*
X56074D02*
Y58877D01*
X56135D01*
Y58606D02*
Y58877D01*
X56074Y61165D02*
X56135D01*
X56074D02*
Y61436D01*
X56135D01*
Y61165D02*
Y61436D01*
X56074Y60378D02*
X56135D01*
X56074D02*
Y60649D01*
X56135D01*
Y60378D02*
Y60649D01*
X56074Y59590D02*
X56135D01*
X56074D02*
Y59862D01*
X56135D01*
Y59590D02*
Y59862D01*
X56074Y59098D02*
X56135D01*
X56074D02*
Y59370D01*
X56135D01*
Y59098D02*
Y59370D01*
X56074Y60795D02*
X56135D01*
X56074D02*
Y61019D01*
X56135D01*
Y60795D02*
Y61019D01*
M02*
