G04*
G04 #@! TF.GenerationSoftware,Altium Limited,Altium Designer,20.1.11 (218)*
G04*
G04 Layer_Color=8388736*
%FSLAX25Y25*%
%MOIN*%
G70*
G04*
G04 #@! TF.SameCoordinates,FBA81C19-FCCB-422B-9B6C-78DF9D3B5762*
G04*
G04*
G04 #@! TF.FilePolarity,Positive*
G04*
G01*
G75*
%ADD104C,0.00050*%
D104*
X51163Y59986D02*
X51374D01*
X51133Y59996D02*
X51163Y59986D01*
X51109Y60019D02*
X51133Y59996D01*
X51099Y60049D02*
X51109Y60019D01*
X51099Y60049D02*
Y60190D01*
X51109Y60220D01*
X51133Y60244D01*
X51163Y60253D01*
X51374D01*
X51404Y60244D01*
X51428Y60220D01*
X51438Y60190D01*
Y60049D02*
Y60190D01*
X51428Y60019D02*
X51438Y60049D01*
X51404Y59996D02*
X51428Y60019D01*
X51374Y59986D02*
X51404Y59996D01*
X51163Y61635D02*
X51374D01*
X51133Y61645D02*
X51163Y61635D01*
X51109Y61669D02*
X51133Y61645D01*
X51099Y61699D02*
X51109Y61669D01*
X51099Y61699D02*
Y61887D01*
X51109Y61917D01*
X51133Y61940D01*
X51163Y61950D01*
X51374D01*
X51404Y61940D01*
X51428Y61917D01*
X51438Y61887D01*
Y61699D02*
Y61887D01*
X51428Y61669D02*
X51438Y61699D01*
X51404Y61645D02*
X51428Y61669D01*
X51374Y61635D02*
X51404Y61645D01*
X51163Y61143D02*
X51374D01*
X51133Y61153D02*
X51163Y61143D01*
X51109Y61177D02*
X51133Y61153D01*
X51099Y61207D02*
X51109Y61177D01*
X51099Y61207D02*
Y61395D01*
X51109Y61424D01*
X51133Y61448D01*
X51163Y61458D01*
X51374D01*
X51404Y61448D01*
X51428Y61424D01*
X51438Y61395D01*
Y61207D02*
Y61395D01*
X51428Y61177D02*
X51438Y61207D01*
X51404Y61153D02*
X51428Y61177D01*
X51374Y61143D02*
X51404Y61153D01*
X51163Y62128D02*
X51374D01*
X51133Y62137D02*
X51163Y62128D01*
X51109Y62161D02*
X51133Y62137D01*
X51099Y62191D02*
X51109Y62161D01*
X51099Y62191D02*
Y62379D01*
X51109Y62409D01*
X51133Y62433D01*
X51163Y62442D01*
X51374D01*
X51404Y62433D01*
X51428Y62409D01*
X51438Y62379D01*
Y62191D02*
Y62379D01*
X51428Y62161D02*
X51438Y62191D01*
X51404Y62137D02*
X51428Y62161D01*
X51374Y62128D02*
X51404Y62137D01*
X51163Y60356D02*
X51374D01*
X51133Y60366D02*
X51163Y60356D01*
X51109Y60390D02*
X51133Y60366D01*
X51099Y60419D02*
X51109Y60390D01*
X51099Y60419D02*
Y60607D01*
X51109Y60637D01*
X51133Y60661D01*
X51163Y60671D01*
X51374D01*
X51404Y60661D01*
X51428Y60637D01*
X51438Y60607D01*
Y60419D02*
Y60607D01*
X51428Y60390D02*
X51438Y60419D01*
X51404Y60366D02*
X51428Y60390D01*
X51374Y60356D02*
X51404Y60366D01*
X51163Y60773D02*
X51374D01*
X51133Y60783D02*
X51163Y60773D01*
X51109Y60807D02*
X51133Y60783D01*
X51099Y60836D02*
X51109Y60807D01*
X51099Y60836D02*
Y60978D01*
X51109Y61007D01*
X51133Y61031D01*
X51163Y61041D01*
X51374D01*
X51404Y61031D01*
X51428Y61007D01*
X51438Y60978D01*
Y60836D02*
Y60978D01*
X51428Y60807D02*
X51438Y60836D01*
X51404Y60783D02*
X51428Y60807D01*
X51374Y60773D02*
X51404Y60783D01*
X51163Y59568D02*
X51374D01*
X51133Y59578D02*
X51163Y59568D01*
X51109Y59602D02*
X51133Y59578D01*
X51099Y59632D02*
X51109Y59602D01*
X51099Y59632D02*
Y59820D01*
X51109Y59850D01*
X51133Y59873D01*
X51163Y59883D01*
X51374D01*
X51404Y59873D01*
X51428Y59850D01*
X51438Y59820D01*
Y59632D02*
Y59820D01*
X51428Y59602D02*
X51438Y59632D01*
X51404Y59578D02*
X51428Y59602D01*
X51374Y59568D02*
X51404Y59578D01*
X51163Y58584D02*
X51374D01*
X51133Y58594D02*
X51163Y58584D01*
X51109Y58618D02*
X51133Y58594D01*
X51099Y58648D02*
X51109Y58618D01*
X51099Y58648D02*
Y58836D01*
X51109Y58865D01*
X51133Y58889D01*
X51163Y58899D01*
X51374D01*
X51404Y58889D01*
X51428Y58865D01*
X51438Y58836D01*
Y58648D02*
Y58836D01*
X51428Y58618D02*
X51438Y58648D01*
X51404Y58594D02*
X51428Y58618D01*
X51374Y58584D02*
X51404Y58594D01*
X51163Y59076D02*
X51374D01*
X51133Y59086D02*
X51163Y59076D01*
X51109Y59110D02*
X51133Y59086D01*
X51099Y59140D02*
X51109Y59110D01*
X51099Y59140D02*
Y59328D01*
X51109Y59358D01*
X51133Y59381D01*
X51163Y59391D01*
X51374D01*
X51404Y59381D01*
X51428Y59358D01*
X51438Y59328D01*
Y59140D02*
Y59328D01*
X51428Y59110D02*
X51438Y59140D01*
X51404Y59086D02*
X51428Y59110D01*
X51374Y59076D02*
X51404Y59086D01*
X56115Y59986D02*
X56327D01*
X56086Y59996D02*
X56115Y59986D01*
X56062Y60019D02*
X56086Y59996D01*
X56052Y60049D02*
X56062Y60019D01*
X56052Y60049D02*
Y60190D01*
X56062Y60220D01*
X56086Y60244D01*
X56115Y60253D01*
X56327D01*
X56357Y60244D01*
X56381Y60220D01*
X56391Y60190D01*
Y60049D02*
Y60190D01*
X56381Y60019D02*
X56391Y60049D01*
X56357Y59996D02*
X56381Y60019D01*
X56327Y59986D02*
X56357Y59996D01*
X56115Y61143D02*
X56327D01*
X56086Y61153D02*
X56115Y61143D01*
X56062Y61177D02*
X56086Y61153D01*
X56052Y61207D02*
X56062Y61177D01*
X56052Y61207D02*
Y61395D01*
X56062Y61424D01*
X56086Y61448D01*
X56115Y61458D01*
X56327D01*
X56357Y61448D01*
X56381Y61424D01*
X56391Y61395D01*
Y61207D02*
Y61395D01*
X56381Y61177D02*
X56391Y61207D01*
X56357Y61153D02*
X56381Y61177D01*
X56327Y61143D02*
X56357Y61153D01*
X56115Y60356D02*
X56327D01*
X56086Y60366D02*
X56115Y60356D01*
X56062Y60390D02*
X56086Y60366D01*
X56052Y60419D02*
X56062Y60390D01*
X56052Y60419D02*
Y60607D01*
X56062Y60637D01*
X56086Y60661D01*
X56115Y60671D01*
X56327D01*
X56357Y60661D01*
X56381Y60637D01*
X56391Y60607D01*
Y60419D02*
Y60607D01*
X56381Y60390D02*
X56391Y60419D01*
X56357Y60366D02*
X56381Y60390D01*
X56327Y60356D02*
X56357Y60366D01*
X56115Y60773D02*
X56327D01*
X56086Y60783D02*
X56115Y60773D01*
X56062Y60807D02*
X56086Y60783D01*
X56052Y60836D02*
X56062Y60807D01*
X56052Y60836D02*
Y60978D01*
X56062Y61007D01*
X56086Y61031D01*
X56115Y61041D01*
X56327D01*
X56357Y61031D01*
X56381Y61007D01*
X56391Y60978D01*
Y60836D02*
Y60978D01*
X56381Y60807D02*
X56391Y60836D01*
X56357Y60783D02*
X56381Y60807D01*
X56327Y60773D02*
X56357Y60783D01*
X56115Y59568D02*
X56327D01*
X56086Y59578D02*
X56115Y59568D01*
X56062Y59602D02*
X56086Y59578D01*
X56052Y59632D02*
X56062Y59602D01*
X56052Y59632D02*
Y59820D01*
X56062Y59850D01*
X56086Y59873D01*
X56115Y59883D01*
X56327D01*
X56357Y59873D01*
X56381Y59850D01*
X56391Y59820D01*
Y59632D02*
Y59820D01*
X56381Y59602D02*
X56391Y59632D01*
X56357Y59578D02*
X56381Y59602D01*
X56327Y59568D02*
X56357Y59578D01*
X56115Y58584D02*
X56327D01*
X56086Y58594D02*
X56115Y58584D01*
X56062Y58618D02*
X56086Y58594D01*
X56052Y58648D02*
X56062Y58618D01*
X56052Y58648D02*
Y58836D01*
X56062Y58865D01*
X56086Y58889D01*
X56115Y58899D01*
X56327D01*
X56357Y58889D01*
X56381Y58865D01*
X56391Y58836D01*
Y58648D02*
Y58836D01*
X56381Y58618D02*
X56391Y58648D01*
X56357Y58594D02*
X56381Y58618D01*
X56327Y58584D02*
X56357Y58594D01*
X56115Y59076D02*
X56327D01*
X56086Y59086D02*
X56115Y59076D01*
X56062Y59110D02*
X56086Y59086D01*
X56052Y59140D02*
X56062Y59110D01*
X56052Y59140D02*
Y59328D01*
X56062Y59358D01*
X56086Y59381D01*
X56115Y59391D01*
X56327D01*
X56357Y59381D01*
X56381Y59358D01*
X56391Y59328D01*
Y59140D02*
Y59328D01*
X56381Y59110D02*
X56391Y59140D01*
X56357Y59086D02*
X56381Y59110D01*
X56327Y59076D02*
X56357Y59086D01*
M02*
