G04*
G04 #@! TF.GenerationSoftware,Altium Limited,Altium Designer,20.1.11 (218)*
G04*
G04 Layer_Color=65535*
%FSLAX25Y25*%
%MOIN*%
G70*
G04*
G04 #@! TF.SameCoordinates,FBA81C19-FCCB-422B-9B6C-78DF9D3B5762*
G04*
G04*
G04 #@! TF.FilePolarity,Positive*
G04*
G01*
G75*
%ADD12C,0.00394*%
%ADD104C,0.00050*%
G36*
X125585Y47730D02*
X123840D01*
X123836D01*
X123824D01*
X123800D01*
X123777D01*
X123741Y47727D01*
X123706D01*
X123663Y47723D01*
X123620D01*
X123525Y47715D01*
X123427Y47699D01*
X123337Y47683D01*
X123297Y47671D01*
X123258Y47660D01*
X123254D01*
X123250Y47656D01*
X123227Y47644D01*
X123195Y47628D01*
X123152Y47601D01*
X123109Y47565D01*
X123058Y47522D01*
X123014Y47471D01*
X122971Y47408D01*
Y47404D01*
X122967Y47400D01*
X122956Y47377D01*
X122940Y47337D01*
X122924Y47286D01*
X122904Y47223D01*
X122889Y47149D01*
X122877Y47066D01*
X122873Y46972D01*
Y46929D01*
X122877Y46901D01*
X122881Y46866D01*
X122885Y46823D01*
X122889Y46775D01*
X122897Y46728D01*
X122920Y46626D01*
X122956Y46520D01*
X122979Y46473D01*
X123006Y46426D01*
X123034Y46382D01*
X123069Y46343D01*
X123073Y46339D01*
X123081Y46335D01*
X123093Y46327D01*
X123109Y46312D01*
X123132Y46300D01*
X123164Y46284D01*
X123199Y46264D01*
X123242Y46249D01*
X123290Y46229D01*
X123345Y46213D01*
X123407Y46198D01*
X123478Y46182D01*
X123557Y46170D01*
X123643Y46162D01*
X123738Y46158D01*
X123840Y46154D01*
X125585D01*
Y45754D01*
X123836D01*
X123832D01*
X123816D01*
X123793D01*
X123761D01*
X123722Y45757D01*
X123679D01*
X123627Y45761D01*
X123576Y45765D01*
X123459Y45781D01*
X123337Y45797D01*
X123219Y45824D01*
X123164Y45840D01*
X123113Y45860D01*
X123109D01*
X123101Y45864D01*
X123085Y45871D01*
X123069Y45879D01*
X123046Y45891D01*
X123018Y45907D01*
X122959Y45946D01*
X122889Y45997D01*
X122818Y46060D01*
X122743Y46139D01*
X122708Y46186D01*
X122676Y46233D01*
Y46237D01*
X122669Y46245D01*
X122661Y46261D01*
X122649Y46280D01*
X122637Y46308D01*
X122625Y46339D01*
X122610Y46378D01*
X122594Y46422D01*
X122578Y46469D01*
X122563Y46524D01*
X122551Y46579D01*
X122539Y46642D01*
X122527Y46709D01*
X122519Y46779D01*
X122515Y46858D01*
X122511Y46937D01*
Y46976D01*
X122515Y47007D01*
Y47043D01*
X122519Y47086D01*
X122523Y47133D01*
X122531Y47184D01*
X122547Y47294D01*
X122574Y47408D01*
X122610Y47526D01*
X122657Y47632D01*
Y47636D01*
X122665Y47644D01*
X122672Y47660D01*
X122684Y47675D01*
X122716Y47723D01*
X122763Y47782D01*
X122822Y47844D01*
X122897Y47907D01*
X122979Y47966D01*
X123077Y48017D01*
X123081D01*
X123089Y48021D01*
X123105Y48029D01*
X123128Y48033D01*
X123156Y48045D01*
X123191Y48053D01*
X123231Y48064D01*
X123278Y48072D01*
X123329Y48084D01*
X123384Y48096D01*
X123447Y48104D01*
X123513Y48112D01*
X123588Y48120D01*
X123667Y48127D01*
X123749Y48131D01*
X123836D01*
X125585D01*
Y47730D01*
D02*
G37*
G36*
X123380Y44846D02*
X123376D01*
X123368Y44842D01*
X123352D01*
X123333Y44838D01*
X123309Y44830D01*
X123282Y44822D01*
X123223Y44807D01*
X123152Y44779D01*
X123081Y44744D01*
X123014Y44700D01*
X122956Y44649D01*
X122951Y44641D01*
X122936Y44622D01*
X122912Y44586D01*
X122889Y44543D01*
X122861Y44488D01*
X122842Y44421D01*
X122826Y44351D01*
X122818Y44268D01*
Y44241D01*
X122822Y44221D01*
X122826Y44201D01*
X122830Y44174D01*
X122842Y44111D01*
X122865Y44036D01*
X122904Y43962D01*
X122924Y43922D01*
X122951Y43883D01*
X122983Y43848D01*
X123018Y43812D01*
X123022Y43808D01*
X123026Y43804D01*
X123038Y43797D01*
X123054Y43785D01*
X123073Y43769D01*
X123101Y43753D01*
X123128Y43738D01*
X123160Y43718D01*
X123238Y43686D01*
X123329Y43655D01*
X123435Y43635D01*
X123490Y43628D01*
X123553D01*
X123557D01*
X123568D01*
X123584D01*
X123604Y43631D01*
X123631D01*
X123663Y43635D01*
X123734Y43651D01*
X123816Y43671D01*
X123899Y43702D01*
X123981Y43745D01*
X124021Y43773D01*
X124056Y43804D01*
X124060D01*
X124064Y43812D01*
X124072Y43824D01*
X124083Y43836D01*
X124115Y43875D01*
X124150Y43930D01*
X124182Y43997D01*
X124213Y44076D01*
X124233Y44170D01*
X124241Y44217D01*
Y44303D01*
X124237Y44335D01*
X124229Y44382D01*
X124221Y44429D01*
X124205Y44484D01*
X124182Y44543D01*
X124154Y44598D01*
X124150Y44606D01*
X124138Y44622D01*
X124123Y44645D01*
X124095Y44677D01*
X124068Y44712D01*
X124028Y44751D01*
X123989Y44787D01*
X123942Y44818D01*
X123993Y45168D01*
X125545Y44877D01*
Y43376D01*
X125192D01*
Y44583D01*
X124374Y44744D01*
X124378Y44740D01*
X124382Y44732D01*
X124394Y44716D01*
X124406Y44696D01*
X124417Y44673D01*
X124437Y44641D01*
X124453Y44610D01*
X124472Y44571D01*
X124508Y44484D01*
X124535Y44390D01*
X124559Y44284D01*
X124563Y44229D01*
X124567Y44174D01*
Y44134D01*
X124563Y44107D01*
X124559Y44076D01*
X124551Y44036D01*
X124543Y43993D01*
X124531Y43942D01*
X124520Y43891D01*
X124500Y43840D01*
X124476Y43785D01*
X124453Y43726D01*
X124417Y43671D01*
X124382Y43616D01*
X124339Y43561D01*
X124292Y43510D01*
X124288Y43506D01*
X124280Y43498D01*
X124264Y43486D01*
X124241Y43466D01*
X124213Y43447D01*
X124182Y43423D01*
X124142Y43396D01*
X124099Y43372D01*
X124052Y43345D01*
X123997Y43321D01*
X123942Y43297D01*
X123879Y43278D01*
X123808Y43258D01*
X123738Y43246D01*
X123663Y43238D01*
X123584Y43235D01*
X123580D01*
X123565D01*
X123545D01*
X123518Y43238D01*
X123482Y43242D01*
X123439Y43246D01*
X123392Y43254D01*
X123345Y43266D01*
X123231Y43293D01*
X123172Y43313D01*
X123113Y43337D01*
X123054Y43364D01*
X122995Y43396D01*
X122936Y43431D01*
X122877Y43474D01*
X122873Y43478D01*
X122861Y43486D01*
X122842Y43506D01*
X122822Y43529D01*
X122790Y43557D01*
X122763Y43592D01*
X122728Y43635D01*
X122696Y43683D01*
X122661Y43738D01*
X122625Y43797D01*
X122598Y43859D01*
X122570Y43930D01*
X122547Y44009D01*
X122527Y44091D01*
X122515Y44178D01*
X122511Y44268D01*
Y44307D01*
X122515Y44335D01*
X122519Y44370D01*
X122523Y44414D01*
X122531Y44457D01*
X122539Y44508D01*
X122566Y44614D01*
X122586Y44669D01*
X122610Y44724D01*
X122633Y44783D01*
X122665Y44838D01*
X122700Y44889D01*
X122739Y44940D01*
X122743Y44944D01*
X122751Y44952D01*
X122763Y44964D01*
X122783Y44979D01*
X122806Y45003D01*
X122834Y45023D01*
X122865Y45050D01*
X122904Y45074D01*
X122944Y45101D01*
X122991Y45125D01*
X123042Y45152D01*
X123097Y45172D01*
X123156Y45195D01*
X123215Y45211D01*
X123282Y45227D01*
X123352Y45235D01*
X123380Y44846D01*
D02*
G37*
G36*
X52993Y102710D02*
X52985D01*
X52969D01*
X52946D01*
X52910Y102714D01*
X52871Y102718D01*
X52828Y102726D01*
X52785Y102737D01*
X52737Y102753D01*
X52734D01*
X52730Y102757D01*
X52718Y102761D01*
X52702Y102769D01*
X52663Y102785D01*
X52612Y102812D01*
X52549Y102847D01*
X52482Y102887D01*
X52411Y102938D01*
X52337Y102997D01*
X52333Y103001D01*
X52329Y103005D01*
X52317Y103016D01*
X52301Y103028D01*
X52258Y103067D01*
X52203Y103122D01*
X52136Y103189D01*
X52058Y103272D01*
X51971Y103370D01*
X51877Y103484D01*
X51873Y103488D01*
X51857Y103504D01*
X51837Y103531D01*
X51810Y103563D01*
X51775Y103602D01*
X51735Y103649D01*
X51692Y103700D01*
X51645Y103751D01*
X51543Y103861D01*
X51531Y103873D01*
X50592D01*
X50596Y103865D01*
X50611Y103849D01*
X50639Y103818D01*
X50670Y103779D01*
X50710Y103727D01*
X50753Y103665D01*
X50800Y103598D01*
X50847Y103519D01*
Y103515D01*
X50851Y103511D01*
X50859Y103500D01*
X50867Y103484D01*
X50890Y103441D01*
X50918Y103390D01*
X50949Y103331D01*
X50981Y103264D01*
X51012Y103197D01*
X51040Y103130D01*
X50867D01*
X50832Y102780D01*
X50827D01*
X50812Y102785D01*
X50792D01*
X50761Y102788D01*
X50725Y102796D01*
X50686Y102804D01*
X50639Y102816D01*
X50592Y102832D01*
X50486Y102867D01*
X50431Y102891D01*
X50380Y102918D01*
X50324Y102950D01*
X50273Y102985D01*
X50226Y103024D01*
X50183Y103071D01*
X50179Y103075D01*
X50175Y103083D01*
X50163Y103099D01*
X50148Y103119D01*
X50132Y103146D01*
X50112Y103177D01*
X50093Y103213D01*
X50069Y103256D01*
X50049Y103303D01*
X50030Y103354D01*
X50010Y103409D01*
X49994Y103472D01*
X49979Y103535D01*
X49967Y103606D01*
X49963Y103681D01*
X49959Y103759D01*
Y103802D01*
X49963Y103830D01*
X49967Y103869D01*
X49971Y103912D01*
X49979Y103960D01*
X49981Y103967D01*
X49920Y104003D01*
Y104242D01*
X50065D01*
X50089Y104294D01*
X50124Y104349D01*
X50159Y104400D01*
X50203Y104451D01*
X50207Y104455D01*
X50214Y104463D01*
X50226Y104474D01*
X50246Y104490D01*
X50270Y104510D01*
X50297Y104533D01*
X50328Y104553D01*
X50368Y104580D01*
X50407Y104604D01*
X50454Y104624D01*
X50556Y104667D01*
X50611Y104683D01*
X50670Y104694D01*
X50733Y104702D01*
X50800Y104706D01*
X50808D01*
X50832D01*
X50867Y104702D01*
X50914Y104698D01*
X50965Y104687D01*
X51028Y104675D01*
X51091Y104655D01*
X51158Y104632D01*
X51165Y104628D01*
X51189Y104616D01*
X51224Y104600D01*
X51268Y104573D01*
X51323Y104537D01*
X51386Y104494D01*
X51456Y104443D01*
X51527Y104384D01*
X51531D01*
X51535Y104376D01*
X51547Y104364D01*
X51562Y104352D01*
X51582Y104333D01*
X51606Y104309D01*
X51633Y104282D01*
X51665Y104246D01*
X51669Y104242D01*
X52635D01*
Y104710D01*
X52993D01*
Y102710D01*
D02*
G37*
G36*
X50871Y102482D02*
X50906Y102478D01*
X50945Y102474D01*
X50989Y102466D01*
X51032Y102454D01*
X51138Y102427D01*
X51189Y102407D01*
X51244Y102380D01*
X51299Y102352D01*
X51354Y102321D01*
X51409Y102281D01*
X51460Y102238D01*
X51464Y102234D01*
X51472Y102226D01*
X51484Y102211D01*
X51503Y102191D01*
X51523Y102163D01*
X51543Y102128D01*
X51570Y102085D01*
X51594Y102038D01*
X51605Y102009D01*
X51610Y102002D01*
X51633Y101955D01*
X51657Y101896D01*
X51680Y101833D01*
X51704Y101759D01*
X51724Y101680D01*
X51743Y101590D01*
X51755Y101491D01*
X51763Y101385D01*
X51767Y101271D01*
Y100584D01*
X52954D01*
Y100501D01*
X52993D01*
Y100100D01*
X49971D01*
Y100183D01*
X49931D01*
Y101425D01*
X49935Y101491D01*
X49939Y101562D01*
X49943Y101641D01*
X49951Y101715D01*
X49963Y101778D01*
Y101790D01*
X49967Y101798D01*
X49971Y101814D01*
X49979Y101857D01*
X49994Y101908D01*
X50014Y101967D01*
X50037Y102026D01*
X50069Y102089D01*
X50104Y102148D01*
X50108Y102155D01*
X50124Y102171D01*
X50148Y102203D01*
X50179Y102234D01*
X50218Y102273D01*
X50269Y102317D01*
X50328Y102356D01*
X50395Y102391D01*
X50399D01*
X50403Y102395D01*
X50415Y102399D01*
X50427Y102407D01*
X50466Y102423D01*
X50517Y102438D01*
X50580Y102454D01*
X50651Y102470D01*
X50725Y102482D01*
X50808Y102486D01*
X50812D01*
X50824D01*
X50843D01*
X50871Y102482D01*
D02*
G37*
G36*
X52954Y99456D02*
X52993D01*
Y99071D01*
X50659D01*
X52954Y98269D01*
Y98200D01*
X52993Y98186D01*
Y97829D01*
X50662Y97039D01*
X52954D01*
Y96956D01*
X52993D01*
Y96571D01*
X49971D01*
Y96653D01*
X49931D01*
Y97251D01*
X52073Y97966D01*
X52077D01*
X52085Y97970D01*
X52101Y97974D01*
X52121Y97982D01*
X52148Y97990D01*
X52175Y98001D01*
X52242Y98021D01*
X52313Y98045D01*
X52388Y98068D01*
X52413Y98077D01*
X52368Y98092D01*
X52286Y98120D01*
X52187Y98151D01*
X52073Y98190D01*
X49971Y98917D01*
Y98986D01*
X49931Y99000D01*
Y99538D01*
X52954D01*
Y99456D01*
D02*
G37*
G36*
X53995Y168108D02*
X54034D01*
X54081Y168104D01*
X54132Y168096D01*
X54188Y168089D01*
X54250Y168081D01*
X54313Y168069D01*
X54451Y168038D01*
X54588Y167990D01*
X54659Y167963D01*
X54730Y167931D01*
X54734Y167928D01*
X54746Y167924D01*
X54765Y167912D01*
X54789Y167896D01*
X54820Y167880D01*
X54856Y167857D01*
X54895Y167829D01*
X54938Y167798D01*
X55028Y167727D01*
X55123Y167637D01*
X55213Y167534D01*
X55252Y167476D01*
X55292Y167417D01*
X55296Y167413D01*
X55300Y167401D01*
X55311Y167381D01*
X55323Y167358D01*
X55335Y167326D01*
X55355Y167287D01*
X55370Y167248D01*
X55390Y167197D01*
X55406Y167146D01*
X55425Y167087D01*
X55441Y167024D01*
X55453Y166961D01*
X55476Y166819D01*
X55480Y166745D01*
X55484Y166666D01*
Y166627D01*
X55480Y166595D01*
X55476Y166560D01*
X55473Y166517D01*
X55469Y166470D01*
X55461Y166414D01*
X55437Y166300D01*
X55402Y166175D01*
X55378Y166108D01*
X55351Y166045D01*
X55319Y165978D01*
X55284Y165915D01*
X55280Y165911D01*
X55276Y165900D01*
X55264Y165884D01*
X55249Y165860D01*
X55225Y165833D01*
X55201Y165797D01*
X55174Y165762D01*
X55138Y165723D01*
X55103Y165683D01*
X55060Y165640D01*
X55013Y165597D01*
X54966Y165554D01*
X54911Y165515D01*
X54852Y165475D01*
X54726Y165401D01*
X54722Y165397D01*
X54710Y165393D01*
X54690Y165385D01*
X54663Y165373D01*
X54632Y165361D01*
X54588Y165346D01*
X54545Y165330D01*
X54494Y165310D01*
X54435Y165294D01*
X54372Y165279D01*
X54309Y165263D01*
X54238Y165251D01*
X54085Y165232D01*
X54003Y165224D01*
X53920D01*
X53916D01*
X53904D01*
X53885D01*
X53857D01*
X53826Y165228D01*
X53787D01*
X53743Y165232D01*
X53696Y165239D01*
X53594Y165251D01*
X53480Y165271D01*
X53362Y165298D01*
X53248Y165338D01*
X53244D01*
X53236Y165342D01*
X53221Y165349D01*
X53197Y165357D01*
X53174Y165369D01*
X53142Y165385D01*
X53075Y165424D01*
X52993Y165471D01*
X52906Y165530D01*
X52820Y165601D01*
X52733Y165680D01*
X52729Y165676D01*
X52725Y165668D01*
X52714Y165652D01*
X52702Y165632D01*
X52686Y165609D01*
X52666Y165577D01*
X52627Y165511D01*
X52580Y165432D01*
X52533Y165346D01*
X52490Y165255D01*
X52454Y165165D01*
X52179Y165287D01*
Y165290D01*
X52183Y165302D01*
X52191Y165318D01*
X52203Y165342D01*
X52215Y165373D01*
X52230Y165408D01*
X52250Y165448D01*
X52270Y165491D01*
X52321Y165589D01*
X52384Y165699D01*
X52458Y165813D01*
X52545Y165935D01*
Y165939D01*
X52537Y165951D01*
X52529Y165966D01*
X52517Y165994D01*
X52501Y166025D01*
X52486Y166061D01*
X52470Y166104D01*
X52454Y166151D01*
X52435Y166206D01*
X52419Y166261D01*
X52403Y166324D01*
X52387Y166391D01*
X52368Y166528D01*
X52364Y166603D01*
X52360Y166678D01*
Y166717D01*
X52364Y166748D01*
X52368Y166784D01*
X52372Y166823D01*
X52376Y166870D01*
X52384Y166925D01*
X52407Y167039D01*
X52443Y167165D01*
X52466Y167228D01*
X52494Y167291D01*
X52521Y167358D01*
X52557Y167421D01*
X52560Y167424D01*
X52564Y167436D01*
X52576Y167452D01*
X52592Y167476D01*
X52612Y167503D01*
X52639Y167534D01*
X52666Y167570D01*
X52698Y167609D01*
X52737Y167652D01*
X52777Y167692D01*
X52824Y167735D01*
X52875Y167778D01*
X52926Y167821D01*
X52985Y167861D01*
X53111Y167935D01*
X53115D01*
X53126Y167943D01*
X53146Y167951D01*
X53174Y167963D01*
X53209Y167975D01*
X53248Y167990D01*
X53295Y168006D01*
X53346Y168022D01*
X53405Y168042D01*
X53468Y168057D01*
X53535Y168073D01*
X53606Y168085D01*
X53755Y168104D01*
X53838Y168108D01*
X53920Y168112D01*
X53924D01*
X53940D01*
X53963D01*
X53995Y168108D01*
D02*
G37*
G36*
X52494Y164886D02*
X52533Y164882D01*
X52576Y164874D01*
X52619Y164862D01*
X52666Y164846D01*
X52671D01*
X52674Y164842D01*
X52686Y164839D01*
X52702Y164831D01*
X52741Y164815D01*
X52792Y164787D01*
X52855Y164752D01*
X52922Y164713D01*
X52993Y164662D01*
X53067Y164603D01*
X53071Y164599D01*
X53075Y164595D01*
X53087Y164583D01*
X53103Y164571D01*
X53146Y164532D01*
X53201Y164477D01*
X53268Y164410D01*
X53346Y164328D01*
X53433Y164229D01*
X53527Y164115D01*
X53531Y164111D01*
X53547Y164096D01*
X53566Y164068D01*
X53594Y164037D01*
X53629Y163997D01*
X53669Y163950D01*
X53712Y163899D01*
X53759Y163848D01*
X53861Y163738D01*
X53967Y163628D01*
X54022Y163577D01*
X54074Y163530D01*
X54121Y163487D01*
X54168Y163451D01*
X54172Y163447D01*
X54180Y163443D01*
X54191Y163435D01*
X54207Y163424D01*
X54231Y163412D01*
X54254Y163396D01*
X54313Y163361D01*
X54380Y163329D01*
X54455Y163302D01*
X54537Y163282D01*
X54576Y163274D01*
X54616D01*
X54620D01*
X54628D01*
X54636D01*
X54651Y163278D01*
X54694Y163282D01*
X54746Y163294D01*
X54804Y163314D01*
X54863Y163341D01*
X54926Y163381D01*
X54985Y163435D01*
X54993Y163443D01*
X55009Y163463D01*
X55032Y163498D01*
X55064Y163546D01*
X55091Y163604D01*
X55115Y163675D01*
X55131Y163758D01*
X55138Y163848D01*
Y163876D01*
X55135Y163891D01*
Y163915D01*
X55131Y163943D01*
X55119Y164002D01*
X55099Y164068D01*
X55072Y164143D01*
X55032Y164214D01*
X54977Y164277D01*
X54970Y164284D01*
X54950Y164300D01*
X54911Y164328D01*
X54863Y164355D01*
X54797Y164387D01*
X54722Y164414D01*
X54636Y164430D01*
X54533Y164438D01*
X54573Y164819D01*
X54576D01*
X54592Y164815D01*
X54612D01*
X54643Y164811D01*
X54679Y164803D01*
X54718Y164795D01*
X54765Y164784D01*
X54812Y164768D01*
X54918Y164732D01*
X54974Y164709D01*
X55024Y164681D01*
X55080Y164650D01*
X55131Y164614D01*
X55178Y164575D01*
X55221Y164528D01*
X55225Y164524D01*
X55229Y164516D01*
X55241Y164501D01*
X55256Y164481D01*
X55272Y164453D01*
X55292Y164422D01*
X55311Y164387D01*
X55335Y164343D01*
X55355Y164296D01*
X55374Y164245D01*
X55394Y164190D01*
X55410Y164127D01*
X55425Y164064D01*
X55437Y163994D01*
X55441Y163919D01*
X55445Y163840D01*
Y163797D01*
X55441Y163770D01*
X55437Y163730D01*
X55433Y163687D01*
X55425Y163640D01*
X55414Y163589D01*
X55386Y163479D01*
X55366Y163424D01*
X55343Y163365D01*
X55315Y163306D01*
X55280Y163251D01*
X55245Y163200D01*
X55201Y163149D01*
X55198Y163145D01*
X55190Y163137D01*
X55178Y163125D01*
X55158Y163109D01*
X55135Y163090D01*
X55107Y163066D01*
X55076Y163047D01*
X55036Y163019D01*
X54997Y162995D01*
X54950Y162976D01*
X54848Y162933D01*
X54793Y162917D01*
X54734Y162905D01*
X54671Y162897D01*
X54604Y162893D01*
X54596D01*
X54573D01*
X54537Y162897D01*
X54490Y162901D01*
X54439Y162913D01*
X54376Y162925D01*
X54313Y162944D01*
X54246Y162968D01*
X54238Y162972D01*
X54215Y162984D01*
X54180Y162999D01*
X54136Y163027D01*
X54081Y163062D01*
X54018Y163105D01*
X53948Y163156D01*
X53877Y163215D01*
X53873D01*
X53869Y163223D01*
X53857Y163235D01*
X53842Y163247D01*
X53822Y163267D01*
X53798Y163290D01*
X53771Y163318D01*
X53739Y163353D01*
X53704Y163388D01*
X53665Y163432D01*
X53618Y163479D01*
X53570Y163530D01*
X53519Y163589D01*
X53468Y163648D01*
X53409Y163718D01*
X53346Y163789D01*
X53342Y163793D01*
X53335Y163805D01*
X53319Y163821D01*
X53303Y163844D01*
X53280Y163868D01*
X53252Y163899D01*
X53193Y163966D01*
X53130Y164041D01*
X53067Y164111D01*
X53040Y164143D01*
X53012Y164171D01*
X52985Y164198D01*
X52965Y164218D01*
X52961Y164222D01*
X52950Y164233D01*
X52930Y164249D01*
X52902Y164273D01*
X52875Y164296D01*
X52839Y164324D01*
X52769Y164375D01*
Y162889D01*
X52411D01*
Y164890D01*
X52419D01*
X52435D01*
X52458D01*
X52494Y164886D01*
D02*
G37*
G36*
X247010Y85656D02*
X247006Y85589D01*
X247002Y85518D01*
X246998Y85440D01*
X246990Y85365D01*
X246979Y85302D01*
Y85290D01*
X246975Y85282D01*
X246971Y85267D01*
X246963Y85223D01*
X246947Y85172D01*
X246928Y85113D01*
X246904Y85054D01*
X246872Y84992D01*
X246837Y84933D01*
X246833Y84925D01*
X246817Y84909D01*
X246794Y84878D01*
X246762Y84846D01*
X246723Y84807D01*
X246672Y84764D01*
X246613Y84724D01*
X246546Y84689D01*
X246542D01*
X246538Y84685D01*
X246527Y84681D01*
X246515Y84673D01*
X246476Y84658D01*
X246425Y84642D01*
X246362Y84626D01*
X246291Y84610D01*
X246216Y84599D01*
X246134Y84595D01*
X246130D01*
X246118D01*
X246098D01*
X246071Y84599D01*
X246035Y84602D01*
X245996Y84606D01*
X245953Y84614D01*
X245910Y84626D01*
X245804Y84654D01*
X245753Y84673D01*
X245697Y84701D01*
X245642Y84728D01*
X245587Y84760D01*
X245532Y84799D01*
X245481Y84842D01*
X245477Y84846D01*
X245469Y84854D01*
X245458Y84870D01*
X245438Y84889D01*
X245418Y84917D01*
X245399Y84952D01*
X245371Y84996D01*
X245348Y85043D01*
X245324Y85102D01*
X245301Y85164D01*
X245277Y85239D01*
X245257Y85318D01*
X245238Y85408D01*
X245226Y85506D01*
X245218Y85612D01*
X245214Y85726D01*
Y86497D01*
X243988D01*
Y86898D01*
X247010D01*
Y85656D01*
D02*
G37*
G36*
X246263Y83946D02*
X246271Y83934D01*
X246279Y83919D01*
X246291Y83899D01*
X246303Y83872D01*
X246322Y83840D01*
X246362Y83765D01*
X246413Y83683D01*
X246476Y83588D01*
X246542Y83498D01*
X246617Y83408D01*
X246621Y83404D01*
X246625Y83396D01*
X246637Y83384D01*
X246652Y83368D01*
X246692Y83329D01*
X246747Y83278D01*
X246806Y83227D01*
X246877Y83172D01*
X246947Y83121D01*
X247022Y83078D01*
Y82838D01*
X243988D01*
Y83207D01*
X246350D01*
X246346Y83215D01*
X246330Y83231D01*
X246303Y83262D01*
X246271Y83302D01*
X246232Y83353D01*
X246189Y83416D01*
X246142Y83482D01*
X246094Y83561D01*
Y83565D01*
X246091Y83569D01*
X246083Y83581D01*
X246075Y83596D01*
X246051Y83640D01*
X246024Y83691D01*
X245992Y83750D01*
X245961Y83816D01*
X245929Y83883D01*
X245902Y83950D01*
X246263D01*
Y83946D01*
D02*
G37*
G36*
X232011Y192708D02*
X232039Y192704D01*
X232109Y192696D01*
X232188Y192681D01*
X232278Y192661D01*
X232369Y192630D01*
X232463Y192586D01*
X232467D01*
X232475Y192582D01*
X232487Y192575D01*
X232502Y192563D01*
X232546Y192535D01*
X232601Y192500D01*
X232660Y192449D01*
X232722Y192394D01*
X232781Y192327D01*
X232836Y192248D01*
Y192245D01*
X232840Y192241D01*
X232848Y192229D01*
X232856Y192213D01*
X232868Y192190D01*
X232876Y192166D01*
X232899Y192107D01*
X232927Y192036D01*
X232946Y191954D01*
X232962Y191863D01*
X232966Y191765D01*
Y191745D01*
X232962Y191722D01*
Y191686D01*
X232954Y191647D01*
X232946Y191604D01*
X232939Y191553D01*
X232923Y191498D01*
X232907Y191439D01*
X232884Y191376D01*
X232856Y191313D01*
X232825Y191250D01*
X232785Y191187D01*
X232738Y191124D01*
X232687Y191066D01*
X232628Y191007D01*
X232624Y191003D01*
X232612Y190995D01*
X232593Y190979D01*
X232561Y190959D01*
X232526Y190940D01*
X232479Y190916D01*
X232424Y190889D01*
X232361Y190861D01*
X232286Y190834D01*
X232204Y190806D01*
X232109Y190782D01*
X232011Y190763D01*
X231897Y190743D01*
X231775Y190727D01*
X231646Y190720D01*
X231504Y190716D01*
X231500D01*
X231492D01*
X231481D01*
X231465D01*
X231445D01*
X231422Y190720D01*
X231363D01*
X231288Y190727D01*
X231206Y190731D01*
X231115Y190743D01*
X231017Y190755D01*
X230915Y190775D01*
X230808Y190794D01*
X230702Y190822D01*
X230596Y190853D01*
X230494Y190889D01*
X230400Y190932D01*
X230309Y190983D01*
X230231Y191038D01*
X230227Y191042D01*
X230215Y191050D01*
X230199Y191066D01*
X230176Y191089D01*
X230148Y191117D01*
X230121Y191152D01*
X230089Y191195D01*
X230054Y191238D01*
X230023Y191289D01*
X229991Y191349D01*
X229964Y191411D01*
X229936Y191478D01*
X229912Y191553D01*
X229897Y191631D01*
X229885Y191714D01*
X229881Y191800D01*
Y191836D01*
X229885Y191859D01*
X229889Y191891D01*
X229893Y191926D01*
X229897Y191965D01*
X229905Y192009D01*
X229928Y192099D01*
X229964Y192197D01*
X229987Y192248D01*
X230015Y192296D01*
X230046Y192343D01*
X230082Y192386D01*
X230085Y192390D01*
X230089Y192398D01*
X230101Y192406D01*
X230117Y192421D01*
X230140Y192441D01*
X230164Y192461D01*
X230191Y192484D01*
X230227Y192508D01*
X230262Y192531D01*
X230306Y192555D01*
X230349Y192575D01*
X230400Y192598D01*
X230506Y192638D01*
X230569Y192649D01*
X230632Y192661D01*
X230659Y192292D01*
X230655D01*
X230651Y192288D01*
X230640D01*
X230624Y192284D01*
X230585Y192272D01*
X230537Y192256D01*
X230486Y192237D01*
X230435Y192209D01*
X230388Y192182D01*
X230345Y192150D01*
X230337Y192142D01*
X230321Y192123D01*
X230294Y192091D01*
X230266Y192048D01*
X230239Y191993D01*
X230211Y191930D01*
X230195Y191855D01*
X230188Y191777D01*
Y191745D01*
X230191Y191714D01*
X230199Y191671D01*
X230211Y191624D01*
X230231Y191569D01*
X230254Y191517D01*
X230290Y191462D01*
X230294Y191455D01*
X230313Y191435D01*
X230341Y191403D01*
X230384Y191364D01*
X230435Y191321D01*
X230498Y191274D01*
X230573Y191230D01*
X230659Y191187D01*
X230663D01*
X230671Y191183D01*
X230683Y191180D01*
X230702Y191172D01*
X230730Y191164D01*
X230761Y191156D01*
X230797Y191148D01*
X230836Y191136D01*
X230883Y191128D01*
X230938Y191121D01*
X230993Y191113D01*
X231056Y191105D01*
X231123Y191097D01*
X231198Y191089D01*
X231276Y191085D01*
X231355D01*
X231351Y191093D01*
X231323Y191109D01*
X231288Y191136D01*
X231245Y191175D01*
X231194Y191223D01*
X231147Y191278D01*
X231095Y191341D01*
X231056Y191411D01*
Y191415D01*
X231052Y191419D01*
X231048Y191431D01*
X231040Y191447D01*
X231025Y191482D01*
X231005Y191533D01*
X230985Y191596D01*
X230970Y191663D01*
X230958Y191737D01*
X230954Y191816D01*
Y191851D01*
X230958Y191879D01*
X230962Y191910D01*
X230970Y191950D01*
X230978Y191989D01*
X230989Y192036D01*
X231001Y192083D01*
X231021Y192134D01*
X231044Y192185D01*
X231068Y192241D01*
X231103Y192296D01*
X231139Y192347D01*
X231182Y192398D01*
X231229Y192449D01*
X231233Y192453D01*
X231241Y192461D01*
X231257Y192472D01*
X231280Y192492D01*
X231308Y192512D01*
X231339Y192531D01*
X231378Y192555D01*
X231422Y192582D01*
X231469Y192606D01*
X231524Y192630D01*
X231579Y192649D01*
X231642Y192673D01*
X231712Y192689D01*
X231783Y192700D01*
X231858Y192708D01*
X231937Y192712D01*
X231940D01*
X231948D01*
X231964D01*
X231984D01*
X232011Y192708D01*
D02*
G37*
G36*
X230832Y190370D02*
X230868Y190366D01*
X230907Y190362D01*
X230950Y190354D01*
X230993Y190342D01*
X231099Y190315D01*
X231151Y190295D01*
X231206Y190268D01*
X231260Y190240D01*
X231315Y190209D01*
X231370Y190170D01*
X231422Y190126D01*
X231426Y190122D01*
X231433Y190114D01*
X231445Y190099D01*
X231465Y190079D01*
X231485Y190051D01*
X231504Y190016D01*
X231532Y189973D01*
X231555Y189926D01*
X231579Y189867D01*
X231602Y189804D01*
X231626Y189729D01*
X231646Y189651D01*
X231665Y189560D01*
X231677Y189462D01*
X231685Y189356D01*
X231689Y189242D01*
Y188472D01*
X232915D01*
Y188071D01*
X229893D01*
Y189313D01*
X229897Y189380D01*
X229901Y189450D01*
X229905Y189529D01*
X229912Y189603D01*
X229924Y189666D01*
Y189678D01*
X229928Y189686D01*
X229932Y189702D01*
X229940Y189745D01*
X229956Y189796D01*
X229975Y189855D01*
X229999Y189914D01*
X230030Y189977D01*
X230066Y190036D01*
X230070Y190044D01*
X230085Y190059D01*
X230109Y190091D01*
X230140Y190122D01*
X230180Y190162D01*
X230231Y190205D01*
X230290Y190244D01*
X230357Y190279D01*
X230361D01*
X230364Y190283D01*
X230376Y190287D01*
X230388Y190295D01*
X230427Y190311D01*
X230478Y190327D01*
X230541Y190342D01*
X230612Y190358D01*
X230687Y190370D01*
X230769Y190374D01*
X230773D01*
X230785D01*
X230805D01*
X230832Y190370D01*
D02*
G37*
G36*
X193802Y157096D02*
X194930Y155512D01*
X194439D01*
X193676Y156589D01*
X193672Y156593D01*
X193664Y156604D01*
X193652Y156624D01*
X193637Y156648D01*
X193617Y156675D01*
X193597Y156707D01*
X193550Y156773D01*
X193546Y156765D01*
X193535Y156750D01*
X193519Y156722D01*
X193495Y156691D01*
X193448Y156616D01*
X193429Y156585D01*
X193409Y156557D01*
X192642Y155512D01*
X192163D01*
X193330Y157080D01*
X192301Y158534D01*
X192780D01*
X193330Y157760D01*
X193334Y157756D01*
X193338Y157748D01*
X193346Y157736D01*
X193358Y157720D01*
X193389Y157677D01*
X193425Y157622D01*
X193464Y157563D01*
X193503Y157500D01*
X193539Y157441D01*
X193570Y157390D01*
X193574Y157398D01*
X193590Y157418D01*
X193609Y157449D01*
X193637Y157492D01*
X193672Y157544D01*
X193715Y157603D01*
X193759Y157661D01*
X193810Y157728D01*
X194411Y158534D01*
X194847D01*
X193802Y157096D01*
D02*
G37*
G36*
X196144Y158542D02*
X196172D01*
X196231Y158534D01*
X196301Y158518D01*
X196376Y158502D01*
X196455Y158475D01*
X196533Y158440D01*
X196537D01*
X196541Y158436D01*
X196553Y158428D01*
X196569Y158420D01*
X196604Y158396D01*
X196651Y158365D01*
X196702Y158322D01*
X196757Y158271D01*
X196808Y158216D01*
X196852Y158149D01*
Y158145D01*
X196855Y158141D01*
X196871Y158117D01*
X196887Y158078D01*
X196911Y158031D01*
X196930Y157972D01*
X196950Y157905D01*
X196962Y157834D01*
X196966Y157760D01*
Y157756D01*
Y157752D01*
Y157728D01*
X196962Y157689D01*
X196954Y157642D01*
X196938Y157587D01*
X196922Y157528D01*
X196895Y157465D01*
X196859Y157402D01*
X196855Y157394D01*
X196840Y157375D01*
X196816Y157347D01*
X196781Y157312D01*
X196738Y157269D01*
X196683Y157225D01*
X196620Y157186D01*
X196549Y157147D01*
X196553D01*
X196561Y157143D01*
X196576Y157139D01*
X196592Y157135D01*
X196616Y157127D01*
X196643Y157115D01*
X196702Y157092D01*
X196769Y157056D01*
X196836Y157009D01*
X196907Y156954D01*
X196966Y156887D01*
Y156883D01*
X196973Y156879D01*
X196981Y156868D01*
X196989Y156852D01*
X197001Y156832D01*
X197013Y156813D01*
X197040Y156754D01*
X197068Y156683D01*
X197091Y156600D01*
X197107Y156510D01*
X197115Y156404D01*
Y156400D01*
Y156388D01*
Y156365D01*
X197111Y156337D01*
X197107Y156302D01*
X197099Y156262D01*
X197091Y156219D01*
X197080Y156172D01*
X197064Y156121D01*
X197044Y156066D01*
X197020Y156011D01*
X196993Y155952D01*
X196958Y155897D01*
X196918Y155838D01*
X196875Y155783D01*
X196824Y155732D01*
X196820Y155728D01*
X196812Y155720D01*
X196797Y155708D01*
X196773Y155689D01*
X196745Y155669D01*
X196710Y155645D01*
X196671Y155622D01*
X196627Y155598D01*
X196576Y155571D01*
X196521Y155547D01*
X196463Y155524D01*
X196396Y155504D01*
X196329Y155484D01*
X196254Y155473D01*
X196179Y155465D01*
X196097Y155461D01*
X196058D01*
X196030Y155465D01*
X195999Y155469D01*
X195959Y155473D01*
X195912Y155480D01*
X195865Y155492D01*
X195763Y155520D01*
X195708Y155539D01*
X195653Y155559D01*
X195594Y155587D01*
X195539Y155618D01*
X195488Y155653D01*
X195437Y155696D01*
X195433Y155701D01*
X195425Y155708D01*
X195413Y155720D01*
X195394Y155740D01*
X195374Y155763D01*
X195350Y155791D01*
X195327Y155826D01*
X195299Y155862D01*
X195276Y155905D01*
X195248Y155952D01*
X195224Y156003D01*
X195201Y156058D01*
X195177Y156117D01*
X195162Y156176D01*
X195146Y156243D01*
X195138Y156314D01*
X195508Y156365D01*
Y156361D01*
X195511Y156349D01*
X195515Y156333D01*
X195519Y156314D01*
X195527Y156286D01*
X195535Y156258D01*
X195559Y156188D01*
X195586Y156113D01*
X195625Y156038D01*
X195669Y155964D01*
X195692Y155932D01*
X195720Y155905D01*
X195728Y155901D01*
X195747Y155885D01*
X195779Y155862D01*
X195826Y155838D01*
X195881Y155810D01*
X195944Y155791D01*
X196018Y155775D01*
X196097Y155767D01*
X196124D01*
X196140Y155771D01*
X196164D01*
X196191Y155775D01*
X196250Y155791D01*
X196321Y155810D01*
X196396Y155842D01*
X196470Y155889D01*
X196506Y155917D01*
X196541Y155948D01*
X196545Y155952D01*
X196549Y155956D01*
X196557Y155968D01*
X196569Y155980D01*
X196600Y156019D01*
X196632Y156074D01*
X196663Y156137D01*
X196694Y156215D01*
X196714Y156302D01*
X196722Y156349D01*
Y156396D01*
Y156400D01*
Y156408D01*
Y156420D01*
X196718Y156439D01*
Y156459D01*
X196714Y156486D01*
X196702Y156545D01*
X196683Y156612D01*
X196651Y156683D01*
X196608Y156750D01*
X196584Y156785D01*
X196553Y156817D01*
X196545Y156824D01*
X196521Y156844D01*
X196486Y156868D01*
X196439Y156899D01*
X196376Y156930D01*
X196305Y156954D01*
X196223Y156974D01*
X196128Y156982D01*
X196085D01*
X196058Y156978D01*
X196018Y156974D01*
X195971Y156966D01*
X195920Y156954D01*
X195865Y156942D01*
X195908Y157269D01*
X195916D01*
X195928Y157265D01*
X195948Y157261D01*
X195991D01*
X196007Y157265D01*
X196054Y157269D01*
X196109Y157276D01*
X196176Y157292D01*
X196246Y157312D01*
X196321Y157343D01*
X196392Y157383D01*
X196396D01*
X196400Y157390D01*
X196423Y157406D01*
X196455Y157438D01*
X196490Y157477D01*
X196525Y157532D01*
X196553Y157599D01*
X196576Y157677D01*
X196580Y157720D01*
X196584Y157768D01*
Y157772D01*
Y157775D01*
X196580Y157803D01*
X196576Y157838D01*
X196569Y157886D01*
X196549Y157937D01*
X196525Y157992D01*
X196490Y158051D01*
X196443Y158102D01*
X196435Y158109D01*
X196419Y158125D01*
X196388Y158145D01*
X196349Y158172D01*
X196297Y158196D01*
X196235Y158220D01*
X196168Y158235D01*
X196089Y158239D01*
X196070D01*
X196054Y158235D01*
X196010Y158231D01*
X195959Y158223D01*
X195904Y158204D01*
X195842Y158180D01*
X195783Y158149D01*
X195724Y158102D01*
X195716Y158094D01*
X195700Y158078D01*
X195677Y158047D01*
X195649Y158000D01*
X195617Y157945D01*
X195586Y157874D01*
X195563Y157791D01*
X195543Y157697D01*
X195173Y157764D01*
Y157768D01*
X195177Y157779D01*
X195181Y157799D01*
X195189Y157827D01*
X195197Y157854D01*
X195209Y157893D01*
X195221Y157933D01*
X195236Y157976D01*
X195280Y158066D01*
X195331Y158161D01*
X195397Y158255D01*
X195437Y158298D01*
X195480Y158337D01*
X195484Y158341D01*
X195492Y158345D01*
X195504Y158357D01*
X195523Y158369D01*
X195547Y158385D01*
X195574Y158404D01*
X195610Y158424D01*
X195645Y158444D01*
X195688Y158459D01*
X195731Y158479D01*
X195834Y158514D01*
X195952Y158538D01*
X196014Y158542D01*
X196081Y158546D01*
X196124D01*
X196144Y158542D01*
D02*
G37*
G36*
X193802Y58670D02*
X194930Y57087D01*
X194439D01*
X193676Y58163D01*
X193672Y58167D01*
X193664Y58179D01*
X193652Y58199D01*
X193637Y58222D01*
X193617Y58250D01*
X193597Y58281D01*
X193550Y58348D01*
X193546Y58340D01*
X193535Y58325D01*
X193519Y58297D01*
X193495Y58266D01*
X193448Y58191D01*
X193429Y58160D01*
X193409Y58132D01*
X192642Y57087D01*
X192163D01*
X193330Y58655D01*
X192301Y60109D01*
X192780D01*
X193330Y59335D01*
X193334Y59331D01*
X193338Y59323D01*
X193346Y59311D01*
X193358Y59295D01*
X193389Y59252D01*
X193425Y59197D01*
X193464Y59138D01*
X193503Y59075D01*
X193539Y59016D01*
X193570Y58965D01*
X193574Y58973D01*
X193590Y58993D01*
X193609Y59024D01*
X193637Y59067D01*
X193672Y59118D01*
X193715Y59177D01*
X193759Y59236D01*
X193810Y59303D01*
X194411Y60109D01*
X194847D01*
X193802Y58670D01*
D02*
G37*
G36*
X196203Y60117D02*
X196242Y60113D01*
X196286Y60109D01*
X196333Y60101D01*
X196384Y60089D01*
X196494Y60062D01*
X196549Y60042D01*
X196608Y60018D01*
X196667Y59991D01*
X196722Y59956D01*
X196773Y59920D01*
X196824Y59877D01*
X196828Y59873D01*
X196836Y59865D01*
X196848Y59853D01*
X196863Y59834D01*
X196883Y59810D01*
X196907Y59783D01*
X196926Y59751D01*
X196954Y59712D01*
X196977Y59673D01*
X196997Y59625D01*
X197040Y59523D01*
X197056Y59468D01*
X197068Y59409D01*
X197076Y59346D01*
X197080Y59280D01*
Y59272D01*
Y59248D01*
X197076Y59213D01*
X197072Y59166D01*
X197060Y59114D01*
X197048Y59052D01*
X197028Y58989D01*
X197005Y58922D01*
X197001Y58914D01*
X196989Y58890D01*
X196973Y58855D01*
X196946Y58812D01*
X196911Y58757D01*
X196867Y58694D01*
X196816Y58623D01*
X196757Y58552D01*
Y58549D01*
X196749Y58545D01*
X196738Y58533D01*
X196726Y58517D01*
X196706Y58498D01*
X196683Y58474D01*
X196655Y58446D01*
X196620Y58415D01*
X196584Y58380D01*
X196541Y58340D01*
X196494Y58293D01*
X196443Y58246D01*
X196384Y58195D01*
X196325Y58144D01*
X196254Y58085D01*
X196183Y58022D01*
X196179Y58018D01*
X196168Y58010D01*
X196152Y57994D01*
X196128Y57979D01*
X196105Y57955D01*
X196073Y57928D01*
X196007Y57869D01*
X195932Y57806D01*
X195861Y57743D01*
X195830Y57715D01*
X195802Y57688D01*
X195775Y57660D01*
X195755Y57641D01*
X195751Y57637D01*
X195739Y57625D01*
X195724Y57605D01*
X195700Y57578D01*
X195677Y57550D01*
X195649Y57515D01*
X195598Y57444D01*
X197083D01*
Y57087D01*
X195083D01*
Y57095D01*
Y57110D01*
Y57134D01*
X195087Y57169D01*
X195091Y57208D01*
X195099Y57252D01*
X195111Y57295D01*
X195126Y57342D01*
Y57346D01*
X195130Y57350D01*
X195134Y57362D01*
X195142Y57377D01*
X195158Y57417D01*
X195185Y57468D01*
X195221Y57531D01*
X195260Y57598D01*
X195311Y57668D01*
X195370Y57743D01*
X195374Y57747D01*
X195378Y57751D01*
X195390Y57763D01*
X195401Y57778D01*
X195441Y57822D01*
X195496Y57876D01*
X195563Y57943D01*
X195645Y58022D01*
X195743Y58108D01*
X195857Y58203D01*
X195861Y58207D01*
X195877Y58222D01*
X195904Y58242D01*
X195936Y58270D01*
X195975Y58305D01*
X196022Y58344D01*
X196073Y58387D01*
X196124Y58435D01*
X196235Y58537D01*
X196345Y58643D01*
X196396Y58698D01*
X196443Y58749D01*
X196486Y58796D01*
X196521Y58843D01*
X196525Y58847D01*
X196529Y58855D01*
X196537Y58867D01*
X196549Y58883D01*
X196561Y58906D01*
X196576Y58930D01*
X196612Y58989D01*
X196643Y59056D01*
X196671Y59130D01*
X196690Y59213D01*
X196698Y59252D01*
Y59291D01*
Y59295D01*
Y59303D01*
Y59311D01*
X196694Y59327D01*
X196690Y59370D01*
X196679Y59421D01*
X196659Y59480D01*
X196632Y59539D01*
X196592Y59602D01*
X196537Y59661D01*
X196529Y59669D01*
X196510Y59684D01*
X196474Y59708D01*
X196427Y59739D01*
X196368Y59767D01*
X196297Y59790D01*
X196215Y59806D01*
X196124Y59814D01*
X196097D01*
X196081Y59810D01*
X196058D01*
X196030Y59806D01*
X195971Y59794D01*
X195904Y59775D01*
X195830Y59747D01*
X195759Y59708D01*
X195696Y59653D01*
X195688Y59645D01*
X195673Y59625D01*
X195645Y59586D01*
X195617Y59539D01*
X195586Y59472D01*
X195559Y59398D01*
X195543Y59311D01*
X195535Y59209D01*
X195154Y59248D01*
Y59252D01*
X195158Y59268D01*
Y59287D01*
X195162Y59319D01*
X195169Y59354D01*
X195177Y59394D01*
X195189Y59441D01*
X195205Y59488D01*
X195240Y59594D01*
X195264Y59649D01*
X195291Y59700D01*
X195323Y59755D01*
X195358Y59806D01*
X195397Y59853D01*
X195445Y59897D01*
X195449Y59900D01*
X195456Y59904D01*
X195472Y59916D01*
X195492Y59932D01*
X195519Y59948D01*
X195551Y59967D01*
X195586Y59987D01*
X195629Y60010D01*
X195677Y60030D01*
X195728Y60050D01*
X195783Y60070D01*
X195845Y60085D01*
X195908Y60101D01*
X195979Y60113D01*
X196054Y60117D01*
X196132Y60121D01*
X196176D01*
X196203Y60117D01*
D02*
G37*
G36*
X125757Y96742D02*
X124012D01*
X124008D01*
X123996D01*
X123973D01*
X123949D01*
X123914Y96738D01*
X123878D01*
X123835Y96734D01*
X123792D01*
X123698Y96727D01*
X123599Y96711D01*
X123509Y96695D01*
X123470Y96683D01*
X123430Y96672D01*
X123426D01*
X123423Y96668D01*
X123399Y96656D01*
X123368Y96640D01*
X123324Y96613D01*
X123281Y96577D01*
X123230Y96534D01*
X123187Y96483D01*
X123143Y96420D01*
Y96416D01*
X123140Y96412D01*
X123128Y96389D01*
X123112Y96349D01*
X123096Y96298D01*
X123077Y96235D01*
X123061Y96161D01*
X123049Y96078D01*
X123045Y95984D01*
Y95941D01*
X123049Y95913D01*
X123053Y95878D01*
X123057Y95834D01*
X123061Y95787D01*
X123069Y95740D01*
X123092Y95638D01*
X123128Y95532D01*
X123151Y95485D01*
X123179Y95438D01*
X123206Y95394D01*
X123242Y95355D01*
X123246Y95351D01*
X123254Y95347D01*
X123265Y95339D01*
X123281Y95324D01*
X123305Y95312D01*
X123336Y95296D01*
X123372Y95276D01*
X123415Y95261D01*
X123462Y95241D01*
X123517Y95225D01*
X123580Y95210D01*
X123651Y95194D01*
X123729Y95182D01*
X123816Y95174D01*
X123910Y95170D01*
X124012Y95166D01*
X125757D01*
Y94766D01*
X124008D01*
X124004D01*
X123988D01*
X123965D01*
X123933D01*
X123894Y94770D01*
X123851D01*
X123800Y94773D01*
X123749Y94777D01*
X123631Y94793D01*
X123509Y94809D01*
X123391Y94836D01*
X123336Y94852D01*
X123285Y94872D01*
X123281D01*
X123273Y94876D01*
X123258Y94883D01*
X123242Y94891D01*
X123218Y94903D01*
X123191Y94919D01*
X123132Y94958D01*
X123061Y95009D01*
X122990Y95072D01*
X122916Y95151D01*
X122880Y95198D01*
X122849Y95245D01*
Y95249D01*
X122841Y95257D01*
X122833Y95272D01*
X122821Y95292D01*
X122810Y95320D01*
X122798Y95351D01*
X122782Y95390D01*
X122766Y95434D01*
X122750Y95481D01*
X122735Y95536D01*
X122723Y95591D01*
X122711Y95654D01*
X122699Y95720D01*
X122692Y95791D01*
X122688Y95870D01*
X122684Y95948D01*
Y95988D01*
X122688Y96019D01*
Y96055D01*
X122692Y96098D01*
X122696Y96145D01*
X122703Y96196D01*
X122719Y96306D01*
X122747Y96420D01*
X122782Y96538D01*
X122829Y96644D01*
Y96648D01*
X122837Y96656D01*
X122845Y96672D01*
X122857Y96687D01*
X122888Y96734D01*
X122935Y96793D01*
X122994Y96856D01*
X123069Y96919D01*
X123151Y96978D01*
X123250Y97029D01*
X123254D01*
X123261Y97033D01*
X123277Y97041D01*
X123301Y97045D01*
X123328Y97057D01*
X123364Y97065D01*
X123403Y97076D01*
X123450Y97084D01*
X123501Y97096D01*
X123556Y97108D01*
X123619Y97116D01*
X123686Y97123D01*
X123760Y97131D01*
X123839Y97139D01*
X123922Y97143D01*
X124008D01*
X125757D01*
Y96742D01*
D02*
G37*
G36*
Y92993D02*
Y92690D01*
X123800D01*
Y92282D01*
X123458D01*
Y92690D01*
X122735D01*
Y93060D01*
X123458D01*
Y94372D01*
X123800D01*
X125757Y92993D01*
D02*
G37*
%LPC*%
G36*
X50827Y104325D02*
X50788D01*
X50784D01*
X50776D01*
X50769D01*
X50753Y104321D01*
X50710Y104317D01*
X50659Y104305D01*
X50600Y104286D01*
X50541Y104258D01*
X50515Y104242D01*
X51083D01*
X51024Y104270D01*
X50949Y104297D01*
X50867Y104317D01*
X50827Y104325D01*
D02*
G37*
G36*
X52635Y103873D02*
X52002D01*
X52058Y103810D01*
X52061Y103806D01*
X52069Y103795D01*
X52085Y103779D01*
X52101Y103755D01*
X52124Y103732D01*
X52152Y103700D01*
X52211Y103633D01*
X52274Y103559D01*
X52337Y103488D01*
X52364Y103456D01*
X52392Y103429D01*
X52419Y103402D01*
X52439Y103382D01*
X52443Y103378D01*
X52455Y103366D01*
X52474Y103350D01*
X52502Y103327D01*
X52529Y103303D01*
X52565Y103276D01*
X52635Y103225D01*
Y103873D01*
D02*
G37*
G36*
X50266Y103735D02*
Y103724D01*
X50270Y103708D01*
Y103684D01*
X50273Y103657D01*
X50285Y103598D01*
X50305Y103531D01*
X50332Y103456D01*
X50372Y103386D01*
X50427Y103323D01*
X50434Y103315D01*
X50454Y103299D01*
X50494Y103272D01*
X50541Y103244D01*
X50607Y103213D01*
X50643Y103200D01*
X50639Y103209D01*
X50619Y103240D01*
X50580Y103315D01*
X50529Y103397D01*
X50466Y103492D01*
X50399Y103582D01*
X50324Y103673D01*
X50321Y103676D01*
X50317Y103684D01*
X50305Y103696D01*
X50289Y103712D01*
X50266Y103735D01*
D02*
G37*
G36*
X50859Y101991D02*
X50855D01*
X50851D01*
X50827D01*
X50792Y101987D01*
X50749Y101979D01*
X50698Y101967D01*
X50643Y101947D01*
X50588Y101924D01*
X50537Y101892D01*
X50529Y101888D01*
X50513Y101877D01*
X50489Y101853D01*
X50462Y101825D01*
X50431Y101790D01*
X50403Y101747D01*
X50376Y101696D01*
X50356Y101641D01*
Y101637D01*
X50352Y101621D01*
X50348Y101594D01*
X50340Y101558D01*
X50336Y101507D01*
X50332Y101444D01*
X50328Y101366D01*
Y100584D01*
X51370D01*
Y101397D01*
X51366Y101425D01*
Y101456D01*
X51362Y101491D01*
X51350Y101574D01*
X51335Y101664D01*
X51311Y101755D01*
X51301Y101778D01*
X51291Y101794D01*
X51268Y101825D01*
X51260Y101833D01*
X51240Y101853D01*
X51209Y101877D01*
X51162Y101908D01*
X51103Y101939D01*
X51032Y101963D01*
X50953Y101983D01*
X50859Y101991D01*
D02*
G37*
G36*
X53920Y167700D02*
X53912D01*
X53893D01*
X53865Y167696D01*
X53822D01*
X53775Y167692D01*
X53716Y167684D01*
X53653Y167676D01*
X53586Y167664D01*
X53515Y167648D01*
X53441Y167629D01*
X53366Y167605D01*
X53291Y167578D01*
X53217Y167542D01*
X53146Y167503D01*
X53079Y167460D01*
X53016Y167409D01*
X53012Y167405D01*
X53004Y167397D01*
X52989Y167377D01*
X52969Y167358D01*
X52942Y167326D01*
X52918Y167291D01*
X52887Y167252D01*
X52859Y167208D01*
X52832Y167157D01*
X52800Y167098D01*
X52777Y167039D01*
X52753Y166972D01*
X52729Y166902D01*
X52714Y166827D01*
X52706Y166748D01*
X52702Y166666D01*
Y166631D01*
X52706Y166587D01*
X52714Y166532D01*
X52722Y166473D01*
X52733Y166403D01*
X52753Y166332D01*
X52780Y166261D01*
Y166265D01*
X52784Y166269D01*
X52800Y166293D01*
X52824Y166332D01*
X52847Y166383D01*
X52875Y166442D01*
X52906Y166509D01*
X52930Y166579D01*
X52953Y166658D01*
X53244Y166560D01*
Y166556D01*
X53240Y166544D01*
X53233Y166525D01*
X53225Y166501D01*
X53217Y166473D01*
X53205Y166438D01*
X53189Y166399D01*
X53170Y166359D01*
X53130Y166269D01*
X53079Y166175D01*
X53020Y166080D01*
X52953Y165990D01*
X52957Y165986D01*
X52969Y165974D01*
X52989Y165959D01*
X53012Y165935D01*
X53048Y165908D01*
X53091Y165876D01*
X53138Y165845D01*
X53197Y165813D01*
X53260Y165782D01*
X53331Y165746D01*
X53409Y165719D01*
X53496Y165691D01*
X53590Y165668D01*
X53692Y165652D01*
X53802Y165640D01*
X53920Y165636D01*
X53924D01*
X53936D01*
X53956D01*
X53983D01*
X54014Y165640D01*
X54050Y165644D01*
X54093Y165648D01*
X54136Y165652D01*
X54238Y165668D01*
X54345Y165687D01*
X54455Y165719D01*
X54561Y165762D01*
X54565D01*
X54573Y165766D01*
X54588Y165774D01*
X54608Y165786D01*
X54628Y165797D01*
X54655Y165813D01*
X54718Y165856D01*
X54785Y165908D01*
X54856Y165970D01*
X54922Y166041D01*
X54985Y166128D01*
Y166131D01*
X54993Y166139D01*
X55001Y166151D01*
X55009Y166171D01*
X55021Y166191D01*
X55032Y166218D01*
X55048Y166249D01*
X55064Y166285D01*
X55091Y166363D01*
X55115Y166454D01*
X55131Y166556D01*
X55138Y166666D01*
Y166709D01*
X55135Y166741D01*
X55131Y166780D01*
X55123Y166823D01*
X55111Y166874D01*
X55099Y166925D01*
X55084Y166984D01*
X55064Y167043D01*
X55040Y167106D01*
X55009Y167169D01*
X54974Y167232D01*
X54934Y167291D01*
X54887Y167350D01*
X54832Y167409D01*
X54828Y167413D01*
X54816Y167421D01*
X54800Y167436D01*
X54773Y167456D01*
X54742Y167476D01*
X54702Y167499D01*
X54655Y167527D01*
X54604Y167554D01*
X54541Y167582D01*
X54474Y167609D01*
X54400Y167633D01*
X54317Y167652D01*
X54231Y167672D01*
X54132Y167688D01*
X54030Y167696D01*
X53920Y167700D01*
D02*
G37*
G36*
X246652Y86497D02*
X245572D01*
Y85683D01*
X245576Y85656D01*
Y85624D01*
X245580Y85589D01*
X245591Y85506D01*
X245607Y85416D01*
X245631Y85326D01*
X245666Y85243D01*
X245690Y85204D01*
X245713Y85172D01*
X245721Y85164D01*
X245741Y85145D01*
X245772Y85121D01*
X245819Y85090D01*
X245878Y85058D01*
X245949Y85035D01*
X246028Y85015D01*
X246122Y85007D01*
X246126D01*
X246130D01*
X246153D01*
X246189Y85011D01*
X246232Y85019D01*
X246283Y85031D01*
X246338Y85050D01*
X246393Y85074D01*
X246444Y85106D01*
X246452Y85110D01*
X246468Y85121D01*
X246491Y85145D01*
X246519Y85172D01*
X246550Y85208D01*
X246578Y85251D01*
X246605Y85302D01*
X246625Y85357D01*
Y85361D01*
X246629Y85377D01*
X246633Y85404D01*
X246641Y85440D01*
X246645Y85491D01*
X246649Y85553D01*
X246652Y85632D01*
Y86497D01*
D02*
G37*
G36*
X232015Y192331D02*
X231956D01*
X231952D01*
X231940D01*
X231925D01*
X231905Y192327D01*
X231877D01*
X231846Y192323D01*
X231775Y192311D01*
X231697Y192292D01*
X231614Y192260D01*
X231536Y192217D01*
X231496Y192193D01*
X231461Y192162D01*
X231457D01*
X231453Y192154D01*
X231433Y192130D01*
X231402Y192095D01*
X231370Y192048D01*
X231339Y191985D01*
X231308Y191914D01*
X231288Y191832D01*
X231280Y191789D01*
Y191718D01*
X231284Y191698D01*
Y191679D01*
X231288Y191651D01*
X231304Y191596D01*
X231323Y191529D01*
X231355Y191455D01*
X231402Y191384D01*
X231430Y191349D01*
X231461Y191317D01*
X231465D01*
X231469Y191309D01*
X231481Y191301D01*
X231492Y191289D01*
X231532Y191262D01*
X231587Y191230D01*
X231657Y191199D01*
X231736Y191172D01*
X231830Y191152D01*
X231881Y191148D01*
X231937Y191144D01*
X231940D01*
X231944D01*
X231968D01*
X232007Y191148D01*
X232054Y191156D01*
X232109Y191164D01*
X232172Y191175D01*
X232239Y191195D01*
X232306Y191223D01*
X232314Y191227D01*
X232333Y191238D01*
X232365Y191258D01*
X232404Y191282D01*
X232447Y191313D01*
X232491Y191352D01*
X232530Y191400D01*
X232569Y191451D01*
X232573Y191458D01*
X232585Y191474D01*
X232597Y191506D01*
X232612Y191545D01*
X232632Y191588D01*
X232644Y191643D01*
X232656Y191698D01*
X232660Y191757D01*
Y191781D01*
X232656Y191797D01*
X232648Y191840D01*
X232636Y191895D01*
X232612Y191962D01*
X232581Y192028D01*
X232534Y192095D01*
X232502Y192130D01*
X232471Y192162D01*
X232467Y192166D01*
X232463Y192170D01*
X232451Y192178D01*
X232436Y192190D01*
X232416Y192201D01*
X232392Y192217D01*
X232365Y192233D01*
X232337Y192248D01*
X232263Y192276D01*
X232172Y192303D01*
X232070Y192323D01*
X232015Y192331D01*
D02*
G37*
G36*
X230781Y189961D02*
X230777D01*
X230773D01*
X230750D01*
X230714Y189957D01*
X230671Y189949D01*
X230620Y189938D01*
X230565Y189918D01*
X230510Y189894D01*
X230459Y189863D01*
X230451Y189859D01*
X230435Y189847D01*
X230412Y189824D01*
X230384Y189796D01*
X230353Y189761D01*
X230325Y189717D01*
X230298Y189666D01*
X230278Y189611D01*
Y189608D01*
X230274Y189592D01*
X230270Y189564D01*
X230262Y189529D01*
X230258Y189478D01*
X230254Y189415D01*
X230251Y189336D01*
Y188472D01*
X231331D01*
Y189285D01*
X231327Y189313D01*
Y189344D01*
X231323Y189380D01*
X231312Y189462D01*
X231296Y189552D01*
X231272Y189643D01*
X231237Y189725D01*
X231213Y189765D01*
X231190Y189796D01*
X231182Y189804D01*
X231162Y189824D01*
X231131Y189847D01*
X231084Y189879D01*
X231025Y189910D01*
X230954Y189934D01*
X230875Y189953D01*
X230781Y189961D01*
D02*
G37*
G36*
X123800Y94011D02*
Y93060D01*
X125164D01*
X123800Y94011D01*
D02*
G37*
%LPD*%
D12*
X217685Y33239D02*
Y35608D01*
X216501Y34423D02*
X218869D01*
X216110Y32864D02*
X219285D01*
X219260D02*
Y36014D01*
X216110D02*
X219260D01*
X216110Y32889D02*
Y36014D01*
D104*
X61873Y96049D02*
Y97230D01*
X60692Y96049D02*
X61873D01*
X60692D02*
Y97230D01*
X61873D01*
X59865Y98766D02*
X61046D01*
X59865Y97585D02*
Y98766D01*
Y97585D02*
X61046D01*
Y98766D01*
X59865Y101482D02*
X61046D01*
X59865Y100301D02*
Y101482D01*
Y100301D02*
X61046D01*
Y101482D01*
X60652Y104199D02*
X61833D01*
X60652Y103018D02*
Y104199D01*
Y103018D02*
X61833D01*
Y104199D01*
X61479Y106561D02*
X62660D01*
X61479Y105380D02*
Y106561D01*
Y105380D02*
X62660D01*
Y106561D01*
X73762Y106443D02*
X74944D01*
X73762Y105262D02*
Y106443D01*
Y105262D02*
X74944D01*
Y106443D01*
X73841Y104041D02*
X75022D01*
X73841Y102860D02*
Y104041D01*
Y102860D02*
X75022D01*
Y104041D01*
X74983Y99632D02*
X76164D01*
X74983Y98451D02*
Y99632D01*
Y98451D02*
X76164D01*
Y99632D01*
X75377Y97348D02*
X76558D01*
X75377Y96167D02*
Y97348D01*
Y96167D02*
X76558D01*
Y97348D01*
X64357Y99576D02*
X64363Y99508D01*
X64339Y99641D02*
X64357Y99576D01*
X64310Y99703D02*
X64339Y99641D01*
X64272Y99758D02*
X64310Y99703D01*
X64224Y99806D02*
X64272Y99758D01*
X64168Y99845D02*
X64224Y99806D01*
X64106Y99874D02*
X64168Y99845D01*
X64041Y99892D02*
X64106Y99874D01*
X63973Y99897D02*
X64041Y99892D01*
X63906D02*
X63973Y99897D01*
X63840Y99874D02*
X63906Y99892D01*
X63779Y99845D02*
X63840Y99874D01*
X63723Y99806D02*
X63779Y99845D01*
X63675Y99758D02*
X63723Y99806D01*
X63636Y99703D02*
X63675Y99758D01*
X63608Y99641D02*
X63636Y99703D01*
X63590Y99576D02*
X63608Y99641D01*
X63584Y99508D02*
X63590Y99576D01*
X63584Y99508D02*
X63590Y99441D01*
X63608Y99375D01*
X63636Y99313D01*
X63675Y99258D01*
X63723Y99210D01*
X63779Y99171D01*
X63840Y99142D01*
X63906Y99125D01*
X63973Y99119D01*
X64041Y99125D01*
X64106Y99142D01*
X64168Y99171D01*
X64224Y99210D01*
X64272Y99258D01*
X64310Y99313D01*
X64339Y99375D01*
X64357Y99441D01*
X64363Y99508D01*
X66442Y64542D02*
X66447Y64479D01*
X66464Y64418D01*
X66490Y64360D01*
X66527Y64308D01*
X66572Y64263D01*
X66623Y64227D01*
X66681Y64201D01*
X66742Y64184D01*
X66805Y64179D01*
X66868Y64184D01*
X66930Y64201D01*
X66987Y64227D01*
X67039Y64263D01*
X67084Y64308D01*
X67120Y64360D01*
X67147Y64418D01*
X67163Y64479D01*
X67169Y64542D01*
X67163Y64605D02*
X67169Y64542D01*
X67147Y64666D02*
X67163Y64605D01*
X67120Y64724D02*
X67147Y64666D01*
X67084Y64776D02*
X67120Y64724D01*
X67039Y64820D02*
X67084Y64776D01*
X66987Y64857D02*
X67039Y64820D01*
X66930Y64884D02*
X66987Y64857D01*
X66868Y64900D02*
X66930Y64884D01*
X66805Y64906D02*
X66868Y64900D01*
X66742D02*
X66805Y64906D01*
X66681Y64884D02*
X66742Y64900D01*
X66623Y64857D02*
X66681Y64884D01*
X66572Y64820D02*
X66623Y64857D01*
X66527Y64776D02*
X66572Y64820D01*
X66490Y64724D02*
X66527Y64776D01*
X66464Y64666D02*
X66490Y64724D01*
X66447Y64605D02*
X66464Y64666D01*
X66442Y64542D02*
X66447Y64605D01*
X66443Y55703D02*
X66448Y55640D01*
X66465Y55579D01*
X66492Y55521D01*
X66528Y55470D01*
X66573Y55425D01*
X66625Y55388D01*
X66682Y55361D01*
X66743Y55345D01*
X66807Y55339D01*
X66870Y55345D01*
X66931Y55361D01*
X66988Y55388D01*
X67040Y55425D01*
X67085Y55470D01*
X67121Y55521D01*
X67148Y55579D01*
X67165Y55640D01*
X67170Y55703D01*
X67165Y55766D02*
X67170Y55703D01*
X67148Y55827D02*
X67165Y55766D01*
X67121Y55885D02*
X67148Y55827D01*
X67085Y55937D02*
X67121Y55885D01*
X67040Y55981D02*
X67085Y55937D01*
X66988Y56018D02*
X67040Y55981D01*
X66931Y56045D02*
X66988Y56018D01*
X66870Y56061D02*
X66931Y56045D01*
X66807Y56067D02*
X66870Y56061D01*
X66743D02*
X66807Y56067D01*
X66682Y56045D02*
X66743Y56061D01*
X66625Y56018D02*
X66682Y56045D01*
X66573Y55981D02*
X66625Y56018D01*
X66528Y55937D02*
X66573Y55981D01*
X66492Y55885D02*
X66528Y55937D01*
X66465Y55827D02*
X66492Y55885D01*
X66448Y55766D02*
X66465Y55827D01*
X66443Y55703D02*
X66448Y55766D01*
X53097Y59474D02*
Y60655D01*
Y59474D02*
X54278D01*
Y60655D01*
X53097D02*
X54278D01*
X54750Y61089D02*
Y62270D01*
Y61089D02*
X55931D01*
Y62270D01*
X54750D02*
X55931D01*
X54750Y57821D02*
Y59002D01*
Y57821D02*
X55931D01*
Y59002D01*
X54750D02*
X55931D01*
X56285Y65774D02*
Y66955D01*
Y65774D02*
X57467D01*
Y66955D01*
X56285D02*
X57467D01*
X59514Y54475D02*
Y55655D01*
Y54475D02*
X60695D01*
Y55655D01*
X59514D02*
X60695D01*
X60656Y74199D02*
Y75380D01*
Y74199D02*
X61837D01*
Y75380D01*
X60656D02*
X61837D01*
X61482Y68963D02*
Y70144D01*
Y68963D02*
X62663D01*
Y70144D01*
X61482D02*
X62663D01*
X62034Y88411D02*
Y89592D01*
Y88411D02*
X63215D01*
Y89592D01*
X62034D02*
X63215D01*
X62073Y83687D02*
Y84868D01*
Y83687D02*
X63254D01*
Y84868D01*
X62073D02*
X63254D01*
X62073Y76561D02*
Y77742D01*
Y76561D02*
X63254D01*
Y77742D01*
X62073D02*
X63254D01*
X62112Y86089D02*
Y87270D01*
Y86089D02*
X63293D01*
Y87270D01*
X62112D02*
X63293D01*
X62112Y81364D02*
Y82545D01*
Y81364D02*
X63293D01*
Y82545D01*
X62112D02*
X63293D01*
X62112Y78963D02*
Y80144D01*
Y78963D02*
X63293D01*
Y80144D01*
X62112D02*
X63293D01*
X62545Y91404D02*
Y92585D01*
Y91404D02*
X63726D01*
Y92585D01*
X62545D02*
X63726D01*
X62585Y93726D02*
Y94907D01*
Y93726D02*
X63766D01*
Y94907D01*
X62585D02*
X63766D01*
X64317Y117034D02*
Y118215D01*
Y117034D02*
X65498D01*
Y118215D01*
X64317D02*
X65498D01*
X64356Y112388D02*
Y113569D01*
Y112388D02*
X65537D01*
Y113569D01*
X64356D02*
X65537D01*
X64356Y109986D02*
Y111167D01*
Y109986D02*
X65537D01*
Y111167D01*
X64356D02*
X65537D01*
X64356Y107624D02*
Y108805D01*
Y107624D02*
X65537D01*
Y108805D01*
X64356D02*
X65537D01*
X64396Y114711D02*
Y115892D01*
Y114711D02*
X65577D01*
Y115892D01*
X64396D02*
X65577D01*
X65537Y119238D02*
Y120419D01*
Y119238D02*
X66719D01*
Y120419D01*
X65537D02*
X66719D01*
X67978Y120341D02*
Y121522D01*
Y120341D02*
X69160D01*
Y121522D01*
X67978D02*
X69160D01*
X68726Y56128D02*
Y57309D01*
Y56128D02*
X69908D01*
Y57309D01*
X68726D02*
X69908D01*
X70380Y120262D02*
Y121443D01*
Y120262D02*
X71561D01*
Y121443D01*
X70380D02*
X71561D01*
X71167Y58175D02*
Y59356D01*
Y58175D02*
X72348D01*
Y59356D01*
X71167D02*
X72348D01*
X72545Y119278D02*
Y120459D01*
Y119278D02*
X73726D01*
Y120459D01*
X72545D02*
X73726D01*
X72821Y59986D02*
Y61167D01*
Y59986D02*
X74002D01*
Y61167D01*
X72821D02*
X74002D01*
X73530Y107230D02*
Y108412D01*
Y107230D02*
X74711D01*
Y108412D01*
X73530D02*
X74711D01*
X73569Y110065D02*
Y111246D01*
Y110065D02*
X74750D01*
Y111246D01*
X73569D02*
X74750D01*
X73648Y117034D02*
Y118215D01*
Y117034D02*
X74829D01*
Y118215D01*
X73648D02*
X74829D01*
X73648Y114671D02*
Y115852D01*
Y114671D02*
X74829D01*
Y115852D01*
X73648D02*
X74829D01*
X73648Y112309D02*
Y113490D01*
Y112309D02*
X74829D01*
Y113490D01*
X73648D02*
X74829D01*
X74356Y62309D02*
Y63490D01*
Y62309D02*
X75537D01*
Y63490D01*
X74356D02*
X75537D01*
X75065Y93884D02*
Y95065D01*
Y93884D02*
X76246D01*
Y95065D01*
X75065D02*
X76246D01*
X75537Y64711D02*
Y65892D01*
Y64711D02*
X76719D01*
Y65892D01*
X75537D02*
X76719D01*
X75734Y91167D02*
Y92348D01*
Y91167D02*
X76915D01*
Y92348D01*
X75734D02*
X76915D01*
X76049Y88372D02*
Y89553D01*
Y88372D02*
X77230D01*
Y89553D01*
X76049D02*
X77230D01*
X76089Y83687D02*
Y84868D01*
Y83687D02*
X77270D01*
Y84868D01*
X76089D02*
X77270D01*
X76167Y86089D02*
Y87270D01*
Y86089D02*
X77348D01*
Y87270D01*
X76167D02*
X77348D01*
X76207Y81364D02*
Y82545D01*
Y81364D02*
X77388D01*
Y82545D01*
X76207D02*
X77388D01*
X76207Y78923D02*
Y80104D01*
Y78923D02*
X77388D01*
Y80104D01*
X76207D02*
X77388D01*
X76207Y76600D02*
Y77781D01*
Y76600D02*
X77388D01*
Y77781D01*
X76207D02*
X77388D01*
X76246Y69475D02*
Y70656D01*
Y69475D02*
X77427D01*
Y70656D01*
X76246D02*
X77427D01*
X76285Y74238D02*
Y75419D01*
Y74238D02*
X77467D01*
Y75419D01*
X76285D02*
X77467D01*
X76325Y71837D02*
Y73018D01*
Y71837D02*
X77506D01*
Y73018D01*
X76325D02*
X77506D01*
X76325Y67112D02*
Y68293D01*
Y67112D02*
X77506D01*
Y68293D01*
X76325D02*
X77506D01*
M02*
