G04*
G04 #@! TF.GenerationSoftware,Altium Limited,Altium Designer,20.1.11 (218)*
G04*
G04 Layer_Color=16711935*
%FSLAX25Y25*%
%MOIN*%
G70*
G04*
G04 #@! TF.SameCoordinates,FBA81C19-FCCB-422B-9B6C-78DF9D3B5762*
G04*
G04*
G04 #@! TF.FilePolarity,Positive*
G04*
G01*
G75*
%ADD104C,0.00050*%
D104*
X55490Y57968D02*
G03*
X55538Y57813I281J2D01*
G01*
X55538Y58124D02*
G03*
X55490Y57968I233J-157D01*
G01*
X55640Y58202D02*
G03*
X55542Y58129I138J-287D01*
G01*
X55751Y58237D02*
G03*
X55640Y58202I152J-678D01*
G01*
X55919Y58254D02*
G03*
X55751Y58237I-4J-813D01*
G01*
X56035Y58248D02*
G03*
X55919Y58254I-99J-860D01*
G01*
X56136Y58231D02*
G03*
X56035Y58248I-235J-1098D01*
G01*
X56233Y58194D02*
G03*
X56136Y58231I-234J-461D01*
G01*
X56307Y58138D02*
G03*
X56233Y58194I-198J-184D01*
G01*
X56344Y58084D02*
G03*
X56307Y58138I-178J-83D01*
G01*
X56368Y57968D02*
G03*
X56344Y58084I-315J-6D01*
G01*
X56367Y57940D02*
G03*
X56368Y57968I-313J34D01*
G01*
X56231Y57955D02*
G03*
X56231Y57968I-75J8D01*
G01*
D02*
G03*
X56229Y57993I-75J6D01*
G01*
X56229D02*
G03*
X56202Y58037I-77J-16D01*
G01*
X56186Y58050D02*
G03*
X56130Y58077I-127J-190D01*
G01*
D02*
G03*
X56035Y58095I-178J-674D01*
G01*
D02*
G03*
X55886Y58099I-102J-965D01*
G01*
D02*
G03*
X55793Y58091I33J-885D01*
G01*
D02*
G03*
X55691Y58061I79J-461D01*
G01*
X55691D02*
G03*
X55648Y58023I80J-131D01*
G01*
D02*
G03*
X55631Y57968I108J-64D01*
G01*
D02*
G03*
X55648Y57914I125J10D01*
G01*
D02*
G03*
X55691Y57876I122J93D01*
G01*
X55691D02*
G03*
X55793Y57846I181J431D01*
G01*
Y57846D02*
G03*
X55886Y57838I127J877D01*
G01*
Y57838D02*
G03*
X56035Y57842I47J969D01*
G01*
D02*
G03*
X56130Y57860I-84J692D01*
G01*
D02*
G03*
X56186Y57887I-71J218D01*
G01*
X56202Y57900D02*
G03*
X56229Y57944I-51J61D01*
G01*
X56229D02*
G03*
X56231Y57955I-73J19D01*
G01*
X56344Y57853D02*
G03*
X56367Y57940I-291J121D01*
G01*
X56307Y57799D02*
G03*
X56344Y57853I-141J137D01*
G01*
X56233Y57743D02*
G03*
X56307Y57799I-123J241D01*
G01*
X56136Y57706D02*
G03*
X56233Y57743I-137J498D01*
G01*
X56035Y57689D02*
G03*
X56136Y57706I-134J1115D01*
G01*
X55919Y57683D02*
G03*
X56035Y57689I17J866D01*
G01*
X55751Y57700D02*
G03*
X55919Y57683I164J796D01*
G01*
X55640Y57735D02*
G03*
X55751Y57700I264J642D01*
G01*
X55542Y57808D02*
G03*
X55640Y57735I236J214D01*
G01*
X55666Y58555D02*
G03*
X55788Y58526I114J210D01*
G01*
X55563Y58454D02*
G03*
X55751Y58382I200J238D01*
G01*
X55512Y58522D02*
G03*
X55545Y58472I221J108D01*
G01*
X55491Y58667D02*
G03*
X55512Y58522I265J-35D01*
G01*
X55519Y58761D02*
G03*
X55491Y58667I265J-130D01*
G01*
X55575Y58827D02*
G03*
X55519Y58761I146J-180D01*
G01*
X55631Y58863D02*
G03*
X55575Y58827I315J-567D01*
G01*
X55933Y58909D02*
G03*
X55631Y58863I-34J-776D01*
G01*
X56064Y58901D02*
G03*
X55933Y58909I-137J-1098D01*
G01*
X56259Y58843D02*
G03*
X56064Y58901I-250J-483D01*
G01*
X56363Y58705D02*
G03*
X56259Y58843I-228J-64D01*
G01*
X56357Y58556D02*
G03*
X56363Y58705I-277J85D01*
G01*
X56295Y58454D02*
G03*
X56357Y58556I-165J170D01*
G01*
X56171Y58395D02*
G03*
X56295Y58454I-64J291D01*
G01*
X55976Y58374D02*
G03*
X56171Y58395I-8J984D01*
G01*
X56086Y58527D02*
G03*
X56184Y58545I4J244D01*
G01*
Y58545D02*
G03*
X56224Y58578I-35J84D01*
G01*
D02*
G03*
X56241Y58648I-102J62D01*
G01*
D02*
G03*
X56214Y58710I-90J-3D01*
G01*
D02*
G03*
X56133Y58752I-99J-91D01*
G01*
D02*
G03*
X56023Y58760I-83J-362D01*
G01*
X55899D02*
G03*
X55767Y58756I2J-2122D01*
G01*
D02*
G03*
X55685Y58733I33J-277D01*
G01*
D02*
G03*
X55631Y58680I45J-99D01*
G01*
D02*
G03*
X55647Y58573I90J-42D01*
G01*
D02*
G03*
X55666Y58555I55J39D01*
G01*
X56801Y60249D02*
G03*
X56670Y60295I-129J-154D01*
G01*
X56838Y60204D02*
G03*
X56801Y60249I-161J-97D01*
G01*
X56862Y60108D02*
G03*
X56838Y60204I-196J2D01*
G01*
X56839Y60011D02*
G03*
X56862Y60108I-255J113D01*
G01*
X56699Y60011D02*
G03*
X56713Y60072I-122J61D01*
G01*
D02*
G03*
X56677Y60132I-65J2D01*
G01*
D02*
G03*
X56643Y60138I-32J-79D01*
G01*
X56358Y59275D02*
G03*
X56269Y59415I-211J-36D01*
G01*
X56352Y59163D02*
G03*
X56358Y59275I-205J68D01*
G01*
X56273Y59075D02*
G03*
X56352Y59163I-62J134D01*
G01*
X56186Y59054D02*
G03*
X56273Y59075I10J150D01*
G01*
X56103Y59207D02*
G03*
X56192Y59228I4J181D01*
G01*
Y59228D02*
G03*
X56214Y59357I-82J80D01*
G01*
D02*
G03*
X56125Y59411I-87J-44D01*
G01*
X56707Y59841D02*
G03*
X56707Y59841I-101J0D01*
G01*
X56358Y60716D02*
G03*
X56269Y60857I-211J-36D01*
G01*
X56352Y60604D02*
G03*
X56358Y60716I-205J68D01*
G01*
X56273Y60517D02*
G03*
X56352Y60604I-62J134D01*
G01*
X56186Y60495D02*
G03*
X56273Y60517I10J150D01*
G01*
X56103Y60648D02*
G03*
X56192Y60670I4J181D01*
G01*
Y60670D02*
G03*
X56214Y60799I-82J80D01*
G01*
D02*
G03*
X56125Y60852I-87J-44D01*
G01*
X56358Y57252D02*
G03*
X56269Y57392I-211J-36D01*
G01*
X56352Y57140D02*
G03*
X56358Y57252I-205J68D01*
G01*
X56273Y57052D02*
G03*
X56352Y57140I-62J134D01*
G01*
X56186Y57031D02*
G03*
X56273Y57052I10J150D01*
G01*
X56103Y57184D02*
G03*
X56192Y57205I4J181D01*
G01*
D02*
G03*
X56214Y57334I-82J80D01*
G01*
D02*
G03*
X56125Y57388I-87J-44D01*
G01*
X56509Y63221D02*
G03*
X56367Y63343I-492J-430D01*
G01*
D02*
G03*
X56163Y63407I-229J-374D01*
G01*
D02*
G03*
X55974Y63374I-25J-411D01*
G01*
Y63374D02*
G03*
X55787Y63239I220J-503D01*
G01*
Y63239D02*
G03*
X55661Y63047I521J-479D01*
G01*
D02*
G03*
X55591Y62836I818J-389D01*
G01*
D02*
G03*
X55567Y62588I1101J-230D01*
G01*
X55567D02*
G03*
X55613Y62310I921J9D01*
G01*
X55613D02*
G03*
X55647Y62222I705J219D01*
G01*
X56705Y62468D02*
G03*
X56690Y62671I-1998J-50D01*
G01*
D02*
G03*
X56764Y62686I-22J298D01*
G01*
X56711Y62368D02*
G03*
X56764Y62686I-1039J339D01*
G01*
X55559Y62338D02*
G03*
X55662Y62124I890J297D01*
G01*
X55517Y62906D02*
G03*
X55559Y62338I1267J-190D01*
G01*
X55571Y63111D02*
G03*
X55517Y62906I1063J-389D01*
G01*
X55681Y63331D02*
G03*
X55571Y63111I909J-593D01*
G01*
X55858Y63527D02*
G03*
X55681Y63331I456J-590D01*
G01*
X56087Y63617D02*
G03*
X55858Y63527I52J-470D01*
G01*
X56323Y63574D02*
G03*
X56087Y63617I-194J-397D01*
G01*
X56502Y63437D02*
G03*
X56323Y63574I-437J-384D01*
G01*
X56617Y63263D02*
G03*
X56502Y63437I-709J-345D01*
G01*
X56617Y63263D02*
G03*
X56509Y63221I51J-294D01*
G01*
X56876Y62969D02*
G03*
X56876Y62969I-208J0D01*
G01*
X55538Y58124D02*
X55542Y58129D01*
X56231Y57955D02*
X56367Y57940D01*
X56186Y58050D02*
X56202Y58037D01*
X56186Y57887D02*
X56202Y57900D01*
X56231Y57955D02*
X56367Y57940D01*
X55538Y57813D02*
X55542Y57808D01*
X55788Y58526D02*
X55789Y58526D01*
Y58382D02*
Y58526D01*
X55751Y58382D02*
X55789D01*
X55545Y58472D02*
X55563Y58454D01*
X55899Y58374D02*
X55976D01*
X55899D02*
Y58527D01*
X56023D01*
X56086D01*
X56023D02*
Y58760D01*
X55899Y58527D02*
X56023D01*
X55899D02*
Y58760D01*
X55508Y59917D02*
X56350D01*
Y59764D02*
Y59917D01*
X55508Y59764D02*
X56350D01*
X55508D02*
Y59917D01*
X56350Y60295D02*
Y60380D01*
Y60295D02*
X56670D01*
X56699Y60011D02*
X56839D01*
X56350Y60138D02*
X56643D01*
X56350Y60019D02*
Y60138D01*
X56231Y60019D02*
X56350D01*
X56231D02*
Y60138D01*
X55508D02*
X56231D01*
X55508D02*
Y60295D01*
X56231D01*
Y60380D01*
X56350D01*
X55508Y61388D02*
X56766D01*
Y61222D02*
Y61388D01*
X55508Y61222D02*
X56766D01*
X55508D02*
Y61388D01*
X56269Y59415D02*
X56350D01*
X55508Y59054D02*
X56186D01*
X55508D02*
Y59207D01*
X56103D01*
X55508Y59411D02*
X56125D01*
X55508D02*
Y59568D01*
X56350D01*
Y59415D02*
Y59568D01*
X56269Y60857D02*
X56350D01*
X55508Y60495D02*
X56186D01*
X55508D02*
Y60648D01*
X56103Y60648D01*
X55508Y60852D02*
X56125D01*
X55508D02*
Y61010D01*
X56350D01*
Y60857D02*
Y61010D01*
X56269Y57392D02*
X56350D01*
X55508Y57031D02*
X56186D01*
X55508D02*
Y57184D01*
X56103D01*
X55508Y57388D02*
X56125D01*
X55508D02*
Y57545D01*
X56350D01*
Y57392D02*
Y57545D01*
X55647Y62222D02*
X56692Y62465D01*
X56705Y62468D01*
X55662Y62124D02*
X56711Y62368D01*
X56351Y63095D02*
X56351Y62696D01*
X55708Y62546D02*
X56351Y62696D01*
X55708Y62546D02*
Y62945D01*
X56351Y63095D01*
M02*
