G04*
G04 #@! TF.GenerationSoftware,Altium Limited,Altium Designer,20.1.11 (218)*
G04*
G04 Layer_Physical_Order=4*
G04 Layer_Color=16737945*
%FSLAX25Y25*%
%MOIN*%
G70*
G04*
G04 #@! TF.SameCoordinates,FBA81C19-FCCB-422B-9B6C-78DF9D3B5762*
G04*
G04*
G04 #@! TF.FilePolarity,Positive*
G04*
G01*
G75*
%ADD10C,0.00984*%
%ADD49C,0.06693*%
%ADD50R,0.06693X0.06693*%
%ADD55C,0.01181*%
%ADD56C,0.01000*%
%ADD57C,0.01575*%
%ADD58C,0.02756*%
%ADD59C,0.01378*%
%ADD60C,0.01968*%
%ADD88C,0.05906*%
%ADD90C,0.03347*%
%ADD91C,0.02165*%
%ADD92C,0.04724*%
%ADD101C,0.01181*%
G36*
X103685Y187110D02*
X103699Y186934D01*
X103724Y186767D01*
X103760Y186608D01*
X103806Y186457D01*
X103864Y186314D01*
X103932Y186179D01*
X104010Y186053D01*
X104100Y185935D01*
X104200Y185825D01*
X103493Y185118D01*
X103384Y185218D01*
X103265Y185308D01*
X103139Y185387D01*
X103005Y185455D01*
X102862Y185512D01*
X102711Y185559D01*
X102552Y185595D01*
X102384Y185620D01*
X102209Y185634D01*
X102025Y185637D01*
X103681Y187294D01*
X103685Y187110D01*
D02*
G37*
G36*
X239355Y204280D02*
Y159843D01*
X239509Y159068D01*
X239947Y158412D01*
X249197Y149162D01*
Y109490D01*
X249085Y109443D01*
X248697Y109396D01*
X248686Y109413D01*
X248612Y109562D01*
X248541Y109751D01*
X248477Y109983D01*
X248423Y110257D01*
X248383Y110559D01*
X248345Y111330D01*
X248352Y111742D01*
X248372Y111898D01*
X248222Y113032D01*
X247784Y114090D01*
X247088Y114997D01*
X246180Y115694D01*
X245123Y116132D01*
X243988Y116282D01*
X242853Y116132D01*
X241796Y115694D01*
X240888Y114997D01*
X240191Y114090D01*
X239753Y113032D01*
X239604Y111898D01*
X239753Y110763D01*
X240191Y109706D01*
X240888Y108798D01*
X241796Y108101D01*
X242853Y107663D01*
X243988Y107514D01*
X244087Y107527D01*
X244356Y107518D01*
X245149Y107446D01*
X245463Y107394D01*
X245747Y107330D01*
X245987Y107258D01*
X246184Y107180D01*
X246338Y107102D01*
X246443Y107033D01*
X247040Y106436D01*
Y105600D01*
X246591Y105378D01*
X246180Y105694D01*
X245123Y106132D01*
X243988Y106282D01*
X242853Y106132D01*
X241796Y105694D01*
X240888Y104998D01*
X240191Y104090D01*
X239753Y103032D01*
X239604Y101898D01*
X239753Y100763D01*
X240191Y99706D01*
X240888Y98798D01*
X241796Y98101D01*
X242853Y97663D01*
X243988Y97514D01*
X245123Y97663D01*
X246180Y98101D01*
X246591Y98417D01*
X247040Y98196D01*
Y85600D01*
X246591Y85378D01*
X246180Y85694D01*
X245123Y86132D01*
X243988Y86282D01*
X242853Y86132D01*
X241796Y85694D01*
X240888Y84997D01*
X240191Y84090D01*
X239753Y83032D01*
X239604Y81898D01*
X239753Y80763D01*
X240191Y79706D01*
X240888Y78798D01*
X241796Y78101D01*
X242853Y77663D01*
X243988Y77514D01*
X245123Y77663D01*
X246180Y78101D01*
X246591Y78417D01*
X247040Y78196D01*
Y75600D01*
X246591Y75379D01*
X246180Y75694D01*
X245123Y76132D01*
X243988Y76282D01*
X242853Y76132D01*
X241796Y75694D01*
X240888Y74998D01*
X240191Y74090D01*
X239753Y73032D01*
X239604Y71898D01*
X239753Y70763D01*
X240191Y69706D01*
X240888Y68798D01*
X241796Y68101D01*
X242853Y67663D01*
X243988Y67514D01*
X245123Y67663D01*
X246180Y68101D01*
X246591Y68417D01*
X247040Y68196D01*
Y65600D01*
X246591Y65378D01*
X246180Y65694D01*
X245123Y66132D01*
X243988Y66282D01*
X242853Y66132D01*
X241796Y65694D01*
X240888Y64998D01*
X240191Y64090D01*
X239753Y63032D01*
X239604Y61898D01*
X239753Y60763D01*
X240191Y59706D01*
X240888Y58798D01*
X241796Y58101D01*
X242853Y57663D01*
X243988Y57514D01*
X245123Y57663D01*
X246180Y58101D01*
X246591Y58417D01*
X247040Y58196D01*
Y55600D01*
X246591Y55379D01*
X246180Y55694D01*
X245123Y56132D01*
X243988Y56282D01*
X242853Y56132D01*
X241796Y55694D01*
X240888Y54997D01*
X240191Y54090D01*
X239753Y53032D01*
X239604Y51898D01*
X239753Y50763D01*
X240191Y49706D01*
X240888Y48798D01*
X241796Y48101D01*
X242853Y47663D01*
X243988Y47514D01*
X245123Y47663D01*
X246180Y48101D01*
X246591Y48417D01*
X247040Y48195D01*
Y36251D01*
X246569Y36083D01*
X246367Y36328D01*
X245256Y37240D01*
X243988Y37918D01*
X242612Y38335D01*
X241181Y38476D01*
X239750Y38335D01*
X238374Y37918D01*
X237106Y37240D01*
X235995Y36328D01*
X235083Y35217D01*
X234405Y33949D01*
X233987Y32573D01*
X233847Y31142D01*
X233987Y29711D01*
X234405Y28335D01*
X235083Y27067D01*
X235995Y25956D01*
X237106Y25043D01*
X238374Y24366D01*
X239750Y23948D01*
X241181Y23807D01*
X242612Y23948D01*
X243988Y24366D01*
X245256Y25043D01*
X246367Y25956D01*
X246569Y26201D01*
X247040Y26033D01*
Y24294D01*
X227321Y4574D01*
X209784D01*
X209707Y4880D01*
X209704Y5074D01*
X210778Y5956D01*
X211690Y7067D01*
X212368Y8335D01*
X212785Y9711D01*
X212926Y11142D01*
X212785Y12573D01*
X212368Y13949D01*
X211690Y15217D01*
X210778Y16328D01*
X209666Y17240D01*
X208398Y17918D01*
X207022Y18335D01*
X205591Y18476D01*
X204160Y18335D01*
X202785Y17918D01*
X201517Y17240D01*
X200405Y16328D01*
X199493Y15217D01*
X198815Y13949D01*
X198398Y12573D01*
X198257Y11142D01*
X198398Y9711D01*
X198815Y8335D01*
X199493Y7067D01*
X200405Y5956D01*
X201479Y5074D01*
X201476Y4880D01*
X201399Y4574D01*
X167885D01*
X167694Y5036D01*
X184221Y21563D01*
X184409Y21845D01*
X184606Y21858D01*
X184956Y21764D01*
X185178Y21229D01*
X185607Y20670D01*
X186165Y20242D01*
X186815Y19973D01*
X187513Y19881D01*
X188211Y19973D01*
X188861Y20242D01*
X189420Y20670D01*
X189848Y21229D01*
X190118Y21879D01*
X190209Y22577D01*
X190118Y23275D01*
X189848Y23925D01*
X189420Y24484D01*
X189401Y24498D01*
X189340Y24562D01*
X189290Y24623D01*
X189250Y24681D01*
X189216Y24739D01*
X189189Y24797D01*
X189167Y24857D01*
X189149Y24920D01*
X189136Y24989D01*
X189135Y24994D01*
Y32884D01*
X190243Y33992D01*
X190704Y33801D01*
Y30740D01*
X190693Y30594D01*
X190676Y30477D01*
X190658Y30386D01*
X190654Y30371D01*
X190192Y29768D01*
X189853Y28950D01*
X189738Y28073D01*
X189853Y27195D01*
X190192Y26377D01*
X190731Y25675D01*
X191433Y25136D01*
X192251Y24797D01*
X193129Y24681D01*
X194007Y24797D01*
X194596Y25041D01*
X195096Y24754D01*
Y23761D01*
X195250Y22987D01*
X195689Y22331D01*
X196842Y21178D01*
X197499Y20739D01*
X198273Y20585D01*
X209537D01*
X210311Y20739D01*
X210968Y21178D01*
X212575Y22784D01*
X212580Y22789D01*
X212700Y22877D01*
X212814Y22948D01*
X212921Y23005D01*
X213023Y23048D01*
X213119Y23079D01*
X213211Y23100D01*
X213302Y23112D01*
X213369Y23114D01*
X213427Y23107D01*
X214305Y23222D01*
X215122Y23561D01*
X215825Y24100D01*
X216364Y24802D01*
X216703Y25620D01*
X216818Y26498D01*
X216703Y27376D01*
X216364Y28193D01*
X215825Y28896D01*
X215122Y29435D01*
X214305Y29774D01*
X213427Y29889D01*
X212549Y29774D01*
X211731Y29435D01*
X211029Y28896D01*
X210490Y28193D01*
X210151Y27376D01*
X210036Y26498D01*
X210043Y26440D01*
X210041Y26373D01*
X210029Y26282D01*
X210008Y26190D01*
X209977Y26094D01*
X209934Y25992D01*
X209877Y25885D01*
X209806Y25771D01*
X209718Y25651D01*
X209714Y25646D01*
X208699Y24631D01*
X204244D01*
X204044Y25131D01*
X204350Y25870D01*
X204466Y26748D01*
X204350Y27626D01*
X204120Y28180D01*
X204323Y28415D01*
X204516Y28531D01*
X205266Y28221D01*
X206143Y28105D01*
X207021Y28221D01*
X207839Y28559D01*
X208541Y29098D01*
X209080Y29801D01*
X209419Y30619D01*
X209508Y31292D01*
X209525Y31321D01*
X209562Y31375D01*
X209835Y31693D01*
X213566Y35424D01*
X214092Y36211D01*
X214277Y37139D01*
Y50341D01*
X214777Y50675D01*
X215091Y50545D01*
X215789Y50453D01*
X216487Y50545D01*
X217137Y50814D01*
X217696Y51243D01*
X217710Y51262D01*
X217775Y51323D01*
X217835Y51372D01*
X217894Y51413D01*
X217951Y51446D01*
X218009Y51474D01*
X218069Y51496D01*
X218132Y51514D01*
X218201Y51527D01*
X218206Y51528D01*
X221284D01*
X221904Y51651D01*
X222430Y52003D01*
X230792Y60364D01*
X231292Y60157D01*
Y48214D01*
X224774Y41695D01*
X224771Y41694D01*
X224729Y41667D01*
X224694Y41649D01*
X224664Y41638D01*
X224635Y41631D01*
X224605Y41627D01*
X224570Y41625D01*
X224525Y41629D01*
X224424Y41646D01*
X224341Y41644D01*
X223898Y41702D01*
X223200Y41610D01*
X222550Y41341D01*
X221991Y40912D01*
X221563Y40354D01*
X221293Y39703D01*
X221201Y39006D01*
X221293Y38308D01*
X221563Y37657D01*
X221991Y37099D01*
X222550Y36671D01*
X223200Y36401D01*
X223898Y36309D01*
X224596Y36401D01*
X225246Y36671D01*
X225804Y37099D01*
X226233Y37657D01*
X226502Y38308D01*
X226517Y38420D01*
X226534Y38460D01*
X226564Y38592D01*
X226592Y38691D01*
X226624Y38784D01*
X226660Y38872D01*
X226701Y38955D01*
X226745Y39034D01*
X226794Y39110D01*
X226847Y39182D01*
X234060Y46395D01*
X234412Y46921D01*
X234535Y47542D01*
Y137062D01*
X235020Y137184D01*
X235083Y137067D01*
X235995Y135956D01*
X237106Y135043D01*
X238374Y134366D01*
X239750Y133948D01*
X241181Y133807D01*
X242612Y133948D01*
X243988Y134366D01*
X245256Y135043D01*
X246367Y135956D01*
X247280Y137067D01*
X247957Y138335D01*
X248375Y139711D01*
X248516Y141142D01*
X248375Y142573D01*
X247957Y143949D01*
X247280Y145217D01*
X246367Y146328D01*
X245256Y147240D01*
X243988Y147918D01*
X242612Y148335D01*
X241181Y148476D01*
X239750Y148335D01*
X238374Y147918D01*
X237106Y147240D01*
X235995Y146328D01*
X235392Y145593D01*
X234820Y145517D01*
X234262Y145945D01*
X233611Y146215D01*
X232913Y146307D01*
X232216Y146215D01*
X231565Y145945D01*
X231007Y145517D01*
X230578Y144958D01*
X230309Y144308D01*
X230217Y143610D01*
X230256Y143319D01*
X229963Y142857D01*
X229847Y142839D01*
X229263Y142762D01*
X228613Y142492D01*
X228054Y142064D01*
X227626Y141506D01*
X227356Y140855D01*
X227264Y140157D01*
X227356Y139460D01*
X227626Y138809D01*
X228054Y138251D01*
X228073Y138237D01*
X228134Y138172D01*
X228183Y138112D01*
X228224Y138053D01*
X228257Y137995D01*
X228285Y137937D01*
X228307Y137877D01*
X228325Y137814D01*
X228338Y137746D01*
X228339Y137740D01*
Y62498D01*
X220612Y54771D01*
X218206D01*
X218201Y54772D01*
X218132Y54785D01*
X218069Y54803D01*
X218009Y54825D01*
X217951Y54853D01*
X217894Y54886D01*
X217835Y54927D01*
X217775Y54976D01*
X217710Y55038D01*
X217696Y55056D01*
X217137Y55485D01*
X216487Y55754D01*
X215789Y55846D01*
X215443Y55800D01*
X215210Y56274D01*
X221413Y62478D01*
X221939Y63264D01*
X222124Y64192D01*
Y126530D01*
X222135Y126675D01*
X222152Y126793D01*
X222170Y126883D01*
X222174Y126899D01*
X222636Y127501D01*
X222975Y128319D01*
X223090Y129197D01*
X222975Y130075D01*
X222636Y130892D01*
X222097Y131595D01*
X221395Y132134D01*
X220577Y132472D01*
X219699Y132588D01*
X218821Y132472D01*
X218004Y132134D01*
X217301Y131595D01*
X216762Y130892D01*
X216424Y130075D01*
X216308Y129197D01*
X216316Y129139D01*
X216313Y129072D01*
X216301Y128981D01*
X216280Y128889D01*
X216249Y128793D01*
X216206Y128691D01*
X216149Y128584D01*
X216078Y128470D01*
X215990Y128350D01*
X215986Y128345D01*
X198347Y110705D01*
X197885Y110897D01*
Y149079D01*
X197885Y149085D01*
X197899Y149153D01*
X197916Y149216D01*
X197939Y149276D01*
X197966Y149334D01*
X198000Y149392D01*
X198040Y149451D01*
X198090Y149511D01*
X198151Y149576D01*
X198170Y149590D01*
X198598Y150148D01*
X198867Y150799D01*
X198959Y151497D01*
X198951Y151556D01*
X199417Y151853D01*
X200041Y151771D01*
X200739Y151863D01*
X200998Y151970D01*
X201456Y151619D01*
X201450Y151575D01*
X201542Y150877D01*
X201812Y150227D01*
X202240Y149668D01*
X202799Y149240D01*
X203449Y148970D01*
X204147Y148879D01*
X204844Y148970D01*
X205495Y149240D01*
X206053Y149668D01*
X206482Y150227D01*
X206751Y150877D01*
X206843Y151575D01*
X206751Y152273D01*
X206482Y152923D01*
X206053Y153481D01*
X205495Y153910D01*
X204844Y154179D01*
X204147Y154271D01*
X203449Y154179D01*
X203190Y154072D01*
X202731Y154423D01*
X202737Y154467D01*
X202645Y155165D01*
X202376Y155815D01*
X201948Y156374D01*
X201389Y156802D01*
X200739Y157072D01*
X200041Y157164D01*
X199343Y157072D01*
X198693Y156802D01*
X198134Y156374D01*
X197706Y155815D01*
X197437Y155165D01*
X197345Y154467D01*
X197353Y154408D01*
X196887Y154111D01*
X196263Y154193D01*
X195565Y154101D01*
X194915Y153832D01*
X194489Y153505D01*
X193989Y153691D01*
Y171865D01*
X198372Y176248D01*
X228569D01*
Y173724D01*
X237262D01*
Y182417D01*
X228569D01*
Y179893D01*
X197618D01*
X197618Y179893D01*
X196920Y179754D01*
X196329Y179359D01*
X196329Y179359D01*
X190878Y173909D01*
X190483Y173318D01*
X190345Y172620D01*
X190345Y172620D01*
Y159857D01*
X189845Y159611D01*
X189578Y159815D01*
X188928Y160085D01*
X188230Y160177D01*
X187532Y160085D01*
X186882Y159815D01*
X186384Y159433D01*
X186142Y159490D01*
X185884Y159635D01*
Y174820D01*
X197514Y186449D01*
X228882D01*
X229118Y185879D01*
X229815Y184971D01*
X230723Y184274D01*
X231780Y183836D01*
X232915Y183687D01*
X234050Y183836D01*
X235107Y184274D01*
X236015Y184971D01*
X236712Y185879D01*
X237150Y186936D01*
X237299Y188071D01*
X237150Y189206D01*
X236712Y190263D01*
X236015Y191171D01*
X235107Y191867D01*
X234050Y192305D01*
X232915Y192455D01*
X231780Y192305D01*
X230723Y191867D01*
X229815Y191171D01*
X229118Y190263D01*
X228882Y189692D01*
X196842D01*
X196221Y189569D01*
X195695Y189218D01*
X183116Y176638D01*
X182764Y176112D01*
X182641Y175491D01*
Y141015D01*
X182141Y140840D01*
X181704Y141174D01*
X181054Y141444D01*
X180356Y141536D01*
X179658Y141444D01*
X179008Y141174D01*
X178449Y140746D01*
X178021Y140188D01*
X177752Y139537D01*
X177660Y138839D01*
X177752Y138142D01*
X178021Y137491D01*
X178449Y136933D01*
X179008Y136504D01*
X179658Y136235D01*
X180356Y136143D01*
X181054Y136235D01*
X181704Y136504D01*
X182141Y136839D01*
X182641Y136664D01*
Y125030D01*
X182141Y124796D01*
X181765Y125084D01*
X181115Y125354D01*
X180417Y125445D01*
X179719Y125354D01*
X179069Y125084D01*
X178510Y124656D01*
X178082Y124097D01*
X177812Y123447D01*
X177720Y122749D01*
X177812Y122051D01*
X178082Y121401D01*
X178510Y120843D01*
X179069Y120414D01*
X179719Y120145D01*
X180417Y120053D01*
X181115Y120145D01*
X181354Y120244D01*
X181737Y119861D01*
X181658Y119670D01*
X181566Y118972D01*
X181658Y118275D01*
X181927Y117624D01*
X182356Y117066D01*
X182914Y116637D01*
X183564Y116368D01*
X184262Y116276D01*
X184960Y116368D01*
X185610Y116637D01*
X186169Y117066D01*
X186597Y117624D01*
X186867Y118275D01*
X186959Y118972D01*
X186880Y119570D01*
X186888Y119596D01*
X187076Y119840D01*
X187271Y120000D01*
X187723Y119940D01*
X188421Y120032D01*
X189071Y120301D01*
X189629Y120730D01*
X190058Y121288D01*
X190327Y121939D01*
X190419Y122636D01*
X190327Y123334D01*
X190058Y123985D01*
X189629Y124543D01*
X189611Y124557D01*
X189549Y124622D01*
X189500Y124682D01*
X189459Y124741D01*
X189426Y124799D01*
X189399Y124857D01*
X189376Y124917D01*
X189358Y124980D01*
X189345Y125048D01*
X189345Y125054D01*
Y132060D01*
X191699Y134415D01*
X191703Y134418D01*
X191761Y134457D01*
X191818Y134490D01*
X191876Y134516D01*
X191937Y134538D01*
X192001Y134555D01*
X192072Y134568D01*
X192149Y134575D01*
X192238Y134578D01*
X192262Y134575D01*
X192959Y134667D01*
X193610Y134936D01*
X194141Y135344D01*
X194263Y135323D01*
X194641Y135160D01*
Y66315D01*
X194141Y66164D01*
X193939Y66466D01*
X191841Y68565D01*
Y72575D01*
X191841Y72581D01*
X191855Y72650D01*
X191872Y72712D01*
X191895Y72772D01*
X191922Y72830D01*
X191956Y72888D01*
X191996Y72947D01*
X192045Y73007D01*
X192107Y73072D01*
X192125Y73086D01*
X192554Y73645D01*
X192823Y74295D01*
X192915Y74993D01*
X192823Y75691D01*
X192554Y76341D01*
X192125Y76899D01*
X191567Y77328D01*
X190917Y77597D01*
X190219Y77689D01*
X189521Y77597D01*
X188871Y77328D01*
X188312Y76899D01*
X187884Y76341D01*
X187615Y75691D01*
X187523Y74993D01*
X187615Y74295D01*
X187884Y73645D01*
X188312Y73086D01*
X188331Y73072D01*
X188392Y73007D01*
X188442Y72947D01*
X188482Y72888D01*
X188516Y72830D01*
X188543Y72772D01*
X188566Y72712D01*
X188583Y72650D01*
X188597Y72581D01*
X188597Y72575D01*
Y67893D01*
X188721Y67272D01*
X189072Y66746D01*
X191170Y64648D01*
Y57807D01*
X189072Y55708D01*
X188721Y55182D01*
X188597Y54562D01*
Y50028D01*
X188721Y49407D01*
X189072Y48881D01*
X189545Y48408D01*
Y46128D01*
X189045Y45812D01*
X188509Y45882D01*
X187812Y45790D01*
X187161Y45521D01*
X186603Y45092D01*
X186174Y44534D01*
X185905Y43884D01*
X185813Y43186D01*
X185905Y42488D01*
X186174Y41838D01*
X186364Y41591D01*
X186261Y41206D01*
X185703Y40778D01*
X185274Y40220D01*
X185196Y40031D01*
X184696Y40130D01*
Y70927D01*
X184573Y71548D01*
X184221Y72074D01*
X182015Y74280D01*
X182011Y74285D01*
X181972Y74342D01*
X181940Y74400D01*
X181914Y74458D01*
X181892Y74518D01*
X181875Y74583D01*
X181862Y74653D01*
X181854Y74730D01*
X181852Y74820D01*
X181855Y74843D01*
X181763Y75541D01*
X181494Y76191D01*
X181065Y76749D01*
X180507Y77178D01*
X180440Y77205D01*
X180375Y77701D01*
X180532Y77822D01*
X180961Y78380D01*
X181230Y79031D01*
X181322Y79729D01*
X181230Y80426D01*
X180961Y81077D01*
X180532Y81635D01*
X179974Y82064D01*
X179323Y82333D01*
X178626Y82425D01*
X178605Y82422D01*
X178558Y82424D01*
X178518Y82429D01*
X178477Y82438D01*
X178432Y82452D01*
X178383Y82473D01*
X178328Y82502D01*
X178266Y82540D01*
X178205Y82584D01*
X174596Y86193D01*
Y87702D01*
X174465Y88361D01*
X174092Y88920D01*
X165686Y97326D01*
X165127Y97699D01*
X164964Y97732D01*
X164913Y98252D01*
X165364Y98438D01*
X165922Y98867D01*
X166351Y99425D01*
X166620Y100076D01*
X166712Y100774D01*
X166620Y101471D01*
X166351Y102122D01*
X165922Y102680D01*
X165707Y102846D01*
X165659Y102905D01*
X165641Y102920D01*
X165634Y102938D01*
X165620Y102982D01*
X165606Y103046D01*
X165598Y103106D01*
Y109778D01*
X165884Y109930D01*
X166098Y109976D01*
X166605Y109587D01*
X167255Y109317D01*
X167953Y109225D01*
X168651Y109317D01*
X169301Y109587D01*
X169859Y110015D01*
X170288Y110573D01*
X170557Y111224D01*
X170649Y111922D01*
X170557Y112619D01*
X170288Y113270D01*
X169859Y113828D01*
X169301Y114257D01*
X168651Y114526D01*
X167953Y114618D01*
X167255Y114526D01*
X166605Y114257D01*
X166098Y113868D01*
X165884Y113914D01*
X165598Y114065D01*
Y117075D01*
X165604Y117160D01*
X165616Y117244D01*
X165632Y117323D01*
X165648Y117385D01*
X165663Y117428D01*
X165675Y117455D01*
X165680Y117465D01*
X165709Y117507D01*
X165737Y117573D01*
X165870Y117746D01*
X166139Y118397D01*
X166231Y119095D01*
X166139Y119792D01*
X165870Y120443D01*
X165442Y121001D01*
X164883Y121430D01*
X164233Y121699D01*
X163535Y121791D01*
X162837Y121699D01*
X162187Y121430D01*
X161628Y121001D01*
X161200Y120443D01*
X160931Y119792D01*
X160839Y119095D01*
X160931Y118397D01*
X161200Y117746D01*
X161628Y117188D01*
X161844Y117022D01*
X161892Y116963D01*
X161909Y116948D01*
X161917Y116930D01*
X161930Y116886D01*
X161944Y116822D01*
X161953Y116762D01*
Y102793D01*
X161947Y102708D01*
X161934Y102623D01*
X161919Y102545D01*
X161902Y102483D01*
X161888Y102440D01*
X161876Y102413D01*
X161871Y102403D01*
X161842Y102361D01*
X161814Y102295D01*
X161681Y102122D01*
X161411Y101471D01*
X161319Y100774D01*
X161411Y100076D01*
X161681Y99425D01*
X162109Y98867D01*
X162668Y98438D01*
X162929Y98330D01*
X162829Y97830D01*
X162256D01*
X160455Y99632D01*
X160411Y99692D01*
X160372Y99754D01*
X160344Y99809D01*
X160323Y99859D01*
X160309Y99903D01*
X160300Y99944D01*
X160294Y99984D01*
X160293Y100031D01*
X160296Y100052D01*
X160204Y100750D01*
X159934Y101400D01*
X159506Y101959D01*
X158947Y102387D01*
X158297Y102656D01*
X157599Y102748D01*
X156901Y102656D01*
X156251Y102387D01*
X155693Y101959D01*
X155264Y101400D01*
X154995Y100750D01*
X154903Y100052D01*
X154429Y99821D01*
X153776Y100475D01*
Y100645D01*
X153777Y100656D01*
X153791Y100719D01*
X153811Y100787D01*
X153840Y100860D01*
X153878Y100940D01*
X153927Y101025D01*
X153987Y101117D01*
X154059Y101215D01*
X154162Y101338D01*
X154208Y101424D01*
X154454Y101745D01*
X154724Y102395D01*
X154816Y103093D01*
X154724Y103791D01*
X154454Y104441D01*
X154026Y104999D01*
X153468Y105428D01*
X152817Y105697D01*
X152119Y105789D01*
X151421Y105697D01*
X151197Y105604D01*
X150781Y105882D01*
Y140066D01*
X150665Y140652D01*
X150333Y141148D01*
X104857Y186625D01*
X104851Y186632D01*
X104821Y186680D01*
X104793Y186735D01*
X104768Y186797D01*
X104746Y186870D01*
X104727Y186954D01*
X104712Y187051D01*
X104703Y187161D01*
X104701Y187286D01*
X104704Y187311D01*
X104612Y188008D01*
X104343Y188659D01*
X103914Y189217D01*
X103356Y189646D01*
X102706Y189915D01*
X102008Y190007D01*
X101310Y189915D01*
X100660Y189646D01*
X100101Y189217D01*
X99673Y188659D01*
X99404Y188008D01*
X99312Y187311D01*
X99404Y186613D01*
X99673Y185962D01*
X100101Y185404D01*
X100660Y184975D01*
X101310Y184706D01*
X102008Y184614D01*
X102032Y184617D01*
X102158Y184615D01*
X102268Y184606D01*
X102364Y184592D01*
X102448Y184573D01*
X102521Y184550D01*
X102584Y184525D01*
X102638Y184498D01*
X102686Y184468D01*
X102694Y184462D01*
X147723Y139433D01*
Y123866D01*
X147223Y123766D01*
X147160Y123918D01*
X146731Y124477D01*
X146173Y124905D01*
X145522Y125175D01*
X144825Y125266D01*
X144127Y125175D01*
X143724Y125008D01*
X143648Y124991D01*
X143639Y124987D01*
X141698Y126928D01*
X141932Y127401D01*
X142331Y127349D01*
X143208Y127465D01*
X144026Y127803D01*
X144728Y128342D01*
X145267Y129045D01*
X145606Y129862D01*
X145722Y130740D01*
X145606Y131618D01*
X145267Y132436D01*
X144728Y133138D01*
X144026Y133677D01*
X143208Y134016D01*
X142331Y134131D01*
X141453Y134016D01*
X140635Y133677D01*
X139933Y133138D01*
X139394Y132436D01*
X139055Y131618D01*
X138939Y130740D01*
X138992Y130342D01*
X138518Y130108D01*
X136690Y131936D01*
Y135887D01*
X136567Y136507D01*
X136215Y137034D01*
X130407Y142842D01*
X129881Y143193D01*
X129260Y143317D01*
X127621D01*
X127147Y143790D01*
X127144Y143794D01*
X127105Y143852D01*
X127073Y143909D01*
X127046Y143967D01*
X127025Y144028D01*
X127007Y144092D01*
X126995Y144163D01*
X126987Y144240D01*
X126985Y144329D01*
X126988Y144352D01*
X126896Y145050D01*
X126716Y145484D01*
X127216Y145691D01*
X127775Y146120D01*
X128203Y146678D01*
X128473Y147328D01*
X128565Y148026D01*
X128473Y148724D01*
X128203Y149374D01*
X127775Y149933D01*
X127216Y150361D01*
X126566Y150631D01*
X125868Y150723D01*
X125170Y150631D01*
X124520Y150361D01*
X123962Y149933D01*
X123533Y149374D01*
X123264Y148724D01*
X123172Y148026D01*
X123264Y147328D01*
X123443Y146895D01*
X122943Y146687D01*
X122385Y146259D01*
X121956Y145701D01*
X121687Y145050D01*
X121670Y144921D01*
X121157Y144853D01*
X121075Y145049D01*
X120647Y145607D01*
X120244Y145916D01*
X120526Y146284D01*
X120796Y146934D01*
X120887Y147632D01*
X120796Y148330D01*
X120526Y148980D01*
X120098Y149539D01*
X119539Y149967D01*
X118889Y150237D01*
X118191Y150329D01*
X117493Y150237D01*
X116843Y149967D01*
X116285Y149539D01*
X115856Y148980D01*
X115615Y148398D01*
X115384Y148359D01*
X115094Y148401D01*
X114860Y148966D01*
X114432Y149524D01*
X113873Y149953D01*
X113223Y150222D01*
X112525Y150314D01*
X111827Y150222D01*
X111177Y149953D01*
X110618Y149524D01*
X110604Y149506D01*
X110539Y149444D01*
X110479Y149395D01*
X110420Y149355D01*
X110363Y149321D01*
X110305Y149294D01*
X110245Y149271D01*
X110182Y149254D01*
X110113Y149240D01*
X110108Y149240D01*
X100409D01*
X100254Y149548D01*
X100215Y149740D01*
X100609Y150253D01*
X100878Y150903D01*
X100970Y151601D01*
X100878Y152299D01*
X100609Y152949D01*
X100180Y153508D01*
X100096Y153572D01*
Y163438D01*
X100588Y163816D01*
X101017Y164374D01*
X101286Y165025D01*
X101378Y165723D01*
X101286Y166420D01*
X101017Y167071D01*
X100588Y167629D01*
X100030Y168058D01*
X99380Y168327D01*
X98682Y168419D01*
X97984Y168327D01*
X97334Y168058D01*
X96775Y167629D01*
X96347Y167071D01*
X96077Y166420D01*
X95985Y165723D01*
X96077Y165025D01*
X96347Y164374D01*
X96451Y164238D01*
Y153572D01*
X96367Y153508D01*
X95938Y152949D01*
X95669Y152299D01*
X95577Y151601D01*
X95669Y150903D01*
X95938Y150253D01*
X96332Y149740D01*
X96277Y149464D01*
X96158Y149225D01*
X95612Y149116D01*
X95086Y148765D01*
X90816Y144495D01*
X90354Y144686D01*
Y160100D01*
X90639Y160318D01*
X91067Y160877D01*
X91337Y161527D01*
X91429Y162225D01*
X91337Y162923D01*
X91067Y163573D01*
X90639Y164131D01*
X90080Y164560D01*
X89430Y164829D01*
X88732Y164921D01*
X88034Y164829D01*
X87384Y164560D01*
X86826Y164131D01*
X86397Y163573D01*
X86128Y162923D01*
X86036Y162225D01*
X86128Y161527D01*
X86397Y160877D01*
X86826Y160318D01*
X87111Y160100D01*
Y63587D01*
X77480Y53957D01*
X67774D01*
X67769Y53957D01*
X67700Y53970D01*
X67637Y53988D01*
X67577Y54011D01*
X67519Y54038D01*
X67461Y54071D01*
X67403Y54112D01*
X67342Y54161D01*
X67278Y54223D01*
X67263Y54241D01*
X66705Y54670D01*
X66055Y54939D01*
X65357Y55031D01*
X64659Y54939D01*
X64009Y54670D01*
X63450Y54241D01*
X63022Y53683D01*
X62752Y53033D01*
X62702Y52649D01*
X62174Y52470D01*
X60348Y54296D01*
X59821Y54648D01*
X59201Y54771D01*
X39100D01*
X38480Y54648D01*
X37953Y54296D01*
X35037Y51380D01*
X34516Y51780D01*
X33865Y52050D01*
X33167Y52141D01*
X32469Y52050D01*
X31819Y51780D01*
X31261Y51352D01*
X30832Y50793D01*
X30563Y50143D01*
X30471Y49445D01*
X30563Y48747D01*
X30832Y48097D01*
X31261Y47539D01*
X31819Y47110D01*
X32469Y46841D01*
X33167Y46749D01*
X33865Y46841D01*
X34516Y47110D01*
X35074Y47539D01*
X35409Y47975D01*
X35547D01*
X36168Y48098D01*
X36694Y48450D01*
X39772Y51528D01*
X41864D01*
X42085Y51079D01*
X42043Y51025D01*
X41774Y50375D01*
X41682Y49677D01*
X41774Y48979D01*
X42043Y48329D01*
X42471Y47772D01*
X42556Y47660D01*
Y47337D01*
X42486Y47130D01*
X42101Y46627D01*
X41831Y45977D01*
X41739Y45279D01*
X41782Y44956D01*
X41447Y44726D01*
X41315Y44672D01*
X40698Y44928D01*
X40001Y45019D01*
X39303Y44928D01*
X38652Y44658D01*
X38094Y44230D01*
X38080Y44211D01*
X38015Y44150D01*
X37955Y44100D01*
X37896Y44060D01*
X37838Y44026D01*
X37780Y43999D01*
X37720Y43977D01*
X37657Y43959D01*
X37589Y43946D01*
X37583Y43945D01*
X32484D01*
X31863Y43821D01*
X31337Y43470D01*
X24995Y37128D01*
X24990Y37124D01*
X24933Y37085D01*
X24875Y37053D01*
X24817Y37027D01*
X24757Y37005D01*
X24692Y36988D01*
X24622Y36975D01*
X24545Y36967D01*
X24455Y36965D01*
X24432Y36968D01*
X23734Y36876D01*
X23084Y36607D01*
X22526Y36178D01*
X22097Y35620D01*
X21828Y34970D01*
X21809Y34824D01*
X21286Y34684D01*
X21230Y34756D01*
X20672Y35185D01*
X20022Y35454D01*
X19324Y35546D01*
X18626Y35454D01*
X17976Y35185D01*
X17417Y34756D01*
X16989Y34198D01*
X16720Y33547D01*
X16628Y32850D01*
X16720Y32152D01*
X16989Y31501D01*
X17417Y30943D01*
X17976Y30515D01*
X18626Y30245D01*
X19324Y30153D01*
X20022Y30245D01*
X20672Y30515D01*
X21230Y30943D01*
X21659Y31501D01*
X21928Y32152D01*
X21948Y32297D01*
X22470Y32437D01*
X22526Y32365D01*
X23084Y31937D01*
X23734Y31667D01*
X24432Y31576D01*
X25130Y31667D01*
X25780Y31937D01*
X26274Y32315D01*
X26604Y31939D01*
X25921Y31256D01*
X25888Y31262D01*
X25075Y31101D01*
X24386Y30641D01*
X23926Y29952D01*
X23764Y29139D01*
X23926Y28326D01*
X24386Y27637D01*
X25075Y27177D01*
X25888Y27016D01*
X26700Y27177D01*
X27389Y27637D01*
X27850Y28326D01*
X27978Y28971D01*
X27986Y28985D01*
X27997Y29001D01*
X28022Y29030D01*
X28387Y29396D01*
X31158D01*
X31350Y28934D01*
X24160Y21745D01*
X23831Y21251D01*
X23715Y20669D01*
Y16581D01*
X23714Y16572D01*
X23701Y16518D01*
X23682Y16461D01*
X23655Y16398D01*
X23619Y16330D01*
X23571Y16256D01*
X23512Y16175D01*
X23438Y16090D01*
X23349Y15997D01*
X23330Y15982D01*
X22901Y15424D01*
X22654Y14826D01*
X22614Y14766D01*
X22097Y14540D01*
X21427Y14818D01*
X20395Y14954D01*
X19363Y14818D01*
X18401Y14419D01*
X17575Y13786D01*
X16942Y12960D01*
X16544Y11998D01*
X16408Y10967D01*
X16544Y9935D01*
X16942Y8973D01*
X17575Y8147D01*
X18401Y7514D01*
X19363Y7116D01*
X20395Y6980D01*
X21427Y7116D01*
X22388Y7514D01*
X23214Y8147D01*
X23847Y8973D01*
X24246Y9935D01*
X24382Y10967D01*
X24373Y11033D01*
X24824Y11434D01*
X25236Y11379D01*
X25934Y11471D01*
X26043Y11516D01*
X26440Y11212D01*
X26408Y10967D01*
X26544Y9935D01*
X26942Y8973D01*
X27575Y8147D01*
X28401Y7514D01*
X29363Y7116D01*
X30395Y6980D01*
X31427Y7116D01*
X32388Y7514D01*
X33214Y8147D01*
X33791Y8900D01*
X34068Y8869D01*
X34291Y8764D01*
Y6443D01*
X34290Y6433D01*
X34277Y6379D01*
X34258Y6322D01*
X34231Y6260D01*
X34195Y6191D01*
X34147Y6117D01*
X34088Y6037D01*
X34014Y5951D01*
X33926Y5859D01*
X33906Y5844D01*
X33477Y5285D01*
X33208Y4635D01*
X33116Y3937D01*
X33208Y3239D01*
X33477Y2589D01*
X33528Y2523D01*
X33281Y2023D01*
X2024D01*
Y11417D01*
X1870Y12192D01*
X1431Y12848D01*
X-7425Y21704D01*
Y149162D01*
X1825Y158412D01*
X2264Y159068D01*
X2418Y159843D01*
Y204280D01*
X8713Y210575D01*
X233060D01*
X239355Y204280D01*
D02*
G37*
G36*
X197324Y150186D02*
X197225Y150065D01*
X197138Y149939D01*
X197063Y149809D01*
X196999Y149673D01*
X196946Y149534D01*
X196906Y149389D01*
X196877Y149240D01*
X196859Y149086D01*
X196853Y148927D01*
X195672D01*
X195667Y149086D01*
X195649Y149240D01*
X195620Y149389D01*
X195580Y149534D01*
X195527Y149673D01*
X195463Y149809D01*
X195388Y149939D01*
X195301Y150065D01*
X195202Y150186D01*
X195092Y150302D01*
X197434D01*
X197324Y150186D01*
D02*
G37*
G36*
X111330Y146447D02*
X111214Y146557D01*
X111093Y146656D01*
X110967Y146743D01*
X110837Y146818D01*
X110702Y146882D01*
X110562Y146934D01*
X110417Y146975D01*
X110268Y147004D01*
X110114Y147021D01*
X109956Y147027D01*
Y148208D01*
X110114Y148214D01*
X110268Y148232D01*
X110417Y148261D01*
X110562Y148301D01*
X110702Y148354D01*
X110837Y148417D01*
X110967Y148493D01*
X111093Y148580D01*
X111214Y148679D01*
X111330Y148789D01*
Y146447D01*
D02*
G37*
G36*
X118175Y145959D02*
X118014Y145955D01*
X117859Y145939D01*
X117709Y145912D01*
X117563Y145873D01*
X117422Y145823D01*
X117286Y145761D01*
X117156Y145687D01*
X117029Y145602D01*
X116908Y145506D01*
X116792Y145398D01*
X115957Y146233D01*
X116065Y146349D01*
X116161Y146470D01*
X116246Y146597D01*
X116320Y146727D01*
X116382Y146863D01*
X116432Y147004D01*
X116471Y147150D01*
X116498Y147300D01*
X116514Y147455D01*
X116518Y147615D01*
X118175Y145959D01*
D02*
G37*
G36*
X192954Y144606D02*
X192958Y144430D01*
X192989Y144109D01*
X193016Y143964D01*
X193050Y143830D01*
X193093Y143707D01*
X193142Y143595D01*
X193200Y143493D01*
X193265Y143402D01*
X193338Y143321D01*
X190996Y143321D01*
X191069Y143402D01*
X191134Y143493D01*
X191191Y143595D01*
X191241Y143707D01*
X191284Y143830D01*
X191318Y143964D01*
X191345Y144109D01*
X191364Y144264D01*
X191376Y144430D01*
X191380Y144606D01*
X192954Y144606D01*
D02*
G37*
G36*
X125969Y144176D02*
X125984Y144020D01*
X126012Y143870D01*
X126050Y143724D01*
X126101Y143584D01*
X126163Y143448D01*
X126236Y143317D01*
X126321Y143191D01*
X126418Y143069D01*
X126526Y142953D01*
X125691Y142118D01*
X125574Y142226D01*
X125453Y142323D01*
X125327Y142408D01*
X125196Y142481D01*
X125060Y142543D01*
X124920Y142593D01*
X124774Y142632D01*
X124624Y142659D01*
X124468Y142675D01*
X124308Y142679D01*
X125965Y144336D01*
X125969Y144176D01*
D02*
G37*
G36*
X233974Y142299D02*
X233876Y142178D01*
X233789Y142052D01*
X233713Y141922D01*
X233649Y141787D01*
X233597Y141647D01*
X233556Y141503D01*
X233527Y141353D01*
X233510Y141199D01*
X233504Y141041D01*
X232323D01*
X232317Y141199D01*
X232300Y141353D01*
X232271Y141503D01*
X232230Y141647D01*
X232178Y141787D01*
X232114Y141922D01*
X232038Y142052D01*
X231951Y142178D01*
X231853Y142299D01*
X231742Y142415D01*
X234085D01*
X233974Y142299D01*
D02*
G37*
G36*
X97948Y142185D02*
X98039Y142120D01*
X98141Y142062D01*
X98254Y142012D01*
X98377Y141970D01*
X98511Y141935D01*
X98655Y141909D01*
X98811Y141889D01*
X98976Y141878D01*
X99153Y141874D01*
Y140299D01*
X98976Y140295D01*
X98655Y140265D01*
X98511Y140238D01*
X98377Y140203D01*
X98254Y140161D01*
X98141Y140111D01*
X98039Y140053D01*
X97948Y139988D01*
X97868Y139915D01*
Y142258D01*
X97948Y142185D01*
D02*
G37*
G36*
X231022Y138846D02*
X230923Y138725D01*
X230836Y138600D01*
X230760Y138469D01*
X230696Y138334D01*
X230644Y138195D01*
X230604Y138050D01*
X230574Y137901D01*
X230557Y137747D01*
X230551Y137588D01*
X229370D01*
X229364Y137747D01*
X229347Y137901D01*
X229318Y138050D01*
X229277Y138195D01*
X229225Y138334D01*
X229161Y138469D01*
X229086Y138600D01*
X228998Y138725D01*
X228900Y138846D01*
X228789Y138962D01*
X231132D01*
X231022Y138846D01*
D02*
G37*
G36*
X94766Y139180D02*
X95324Y138751D01*
X95975Y138482D01*
X96673Y138390D01*
X97370Y138482D01*
X98021Y138751D01*
X98579Y139180D01*
X98589Y139193D01*
X98600Y139199D01*
X98627Y139211D01*
X98670Y139226D01*
X98732Y139242D01*
X98797Y139254D01*
X98904Y139264D01*
X112795D01*
X114884Y137175D01*
X114726Y136785D01*
X114660Y136692D01*
X113993Y136604D01*
X113342Y136335D01*
X112784Y135907D01*
X112768Y135886D01*
X112196Y135962D01*
X112139Y136100D01*
X111710Y136659D01*
X111152Y137087D01*
X110502Y137357D01*
X109804Y137449D01*
X109106Y137357D01*
X108456Y137087D01*
X107897Y136659D01*
X107469Y136100D01*
X107199Y135450D01*
X107107Y134752D01*
X107199Y134054D01*
X107444Y133464D01*
X107267Y132994D01*
X107252Y132964D01*
X106394D01*
X106121Y133464D01*
X106305Y133910D01*
X106397Y134608D01*
X106305Y135306D01*
X106036Y135956D01*
X105607Y136514D01*
X105049Y136943D01*
X104399Y137212D01*
X103701Y137304D01*
X103003Y137212D01*
X102353Y136943D01*
X101794Y136514D01*
X101366Y135956D01*
X101096Y135306D01*
X101005Y134608D01*
X101096Y133910D01*
X101281Y133464D01*
X101008Y132964D01*
X98088D01*
X98084Y132965D01*
X98028Y132977D01*
X97981Y132992D01*
X97939Y133009D01*
X97901Y133030D01*
X97864Y133056D01*
X97825Y133088D01*
X97784Y133130D01*
X97714Y133215D01*
X97650Y133266D01*
X97503Y133459D01*
X96944Y133887D01*
X96294Y134157D01*
X95596Y134248D01*
X94898Y134157D01*
X94602Y134034D01*
X94102Y134368D01*
Y139224D01*
X94602Y139394D01*
X94766Y139180D01*
D02*
G37*
G36*
X127566Y135278D02*
X127485Y135350D01*
X127393Y135414D01*
X127291Y135471D01*
X127178Y135520D01*
X127055Y135562D01*
X126921Y135596D01*
X126776Y135623D01*
X126621Y135642D01*
X126455Y135653D01*
X126278Y135657D01*
X126260Y137231D01*
X126437Y137235D01*
X126758Y137266D01*
X126902Y137294D01*
X127036Y137329D01*
X127159Y137371D01*
X127271Y137422D01*
X127372Y137480D01*
X127463Y137546D01*
X127543Y137620D01*
X127566Y135278D01*
D02*
G37*
G36*
X192245Y135598D02*
X192085Y135594D01*
X191929Y135578D01*
X191779Y135551D01*
X191633Y135512D01*
X191493Y135462D01*
X191357Y135400D01*
X191226Y135326D01*
X191100Y135241D01*
X190979Y135145D01*
X190862Y135037D01*
X190027Y135872D01*
X190135Y135988D01*
X190232Y136109D01*
X190317Y136235D01*
X190390Y136366D01*
X190452Y136502D01*
X190503Y136643D01*
X190541Y136788D01*
X190569Y136939D01*
X190584Y137094D01*
X190588Y137254D01*
X192245Y135598D01*
D02*
G37*
G36*
X186882Y155145D02*
X187532Y154876D01*
X188230Y154784D01*
X188928Y154876D01*
X189578Y155145D01*
X189845Y155350D01*
X190345Y155103D01*
Y144326D01*
X190337Y144265D01*
X190322Y144185D01*
X190306Y144123D01*
X190291Y144080D01*
X190279Y144053D01*
X190273Y144043D01*
X190260Y144033D01*
X189832Y143474D01*
X189563Y142824D01*
X189471Y142126D01*
X189563Y141428D01*
X189832Y140778D01*
X190260Y140219D01*
X190576Y139977D01*
X190605Y139381D01*
X190595Y139362D01*
X190355Y139178D01*
X189927Y138619D01*
X189657Y137969D01*
X189565Y137271D01*
X189568Y137248D01*
X189566Y137159D01*
X189558Y137081D01*
X189545Y137011D01*
X189528Y136946D01*
X189507Y136886D01*
X189480Y136828D01*
X189448Y136771D01*
X189409Y136713D01*
X189406Y136708D01*
X186576Y133879D01*
X186384Y133591D01*
X185884Y133743D01*
Y155325D01*
X186142Y155471D01*
X186384Y155527D01*
X186882Y155145D01*
D02*
G37*
G36*
X116115Y134903D02*
X116223Y134796D01*
X116336Y134702D01*
X116457Y134620D01*
X116584Y134551D01*
X116718Y134494D01*
X116859Y134450D01*
X117006Y134419D01*
X117160Y134400D01*
X117321Y134394D01*
X117171Y133213D01*
X117014Y133207D01*
X116861Y133192D01*
X116710Y133166D01*
X116563Y133130D01*
X116418Y133083D01*
X116277Y133027D01*
X116138Y132960D01*
X116002Y132882D01*
X115869Y132794D01*
X115739Y132696D01*
X116015Y135022D01*
X116115Y134903D01*
D02*
G37*
G36*
X97028Y132445D02*
X97134Y132337D01*
X97247Y132242D01*
X97367Y132160D01*
X97493Y132091D01*
X97627Y132034D01*
X97767Y131990D01*
X97914Y131958D01*
X98068Y131939D01*
X98229Y131933D01*
X98069Y130752D01*
X97913Y130747D01*
X97760Y130731D01*
X97609Y130706D01*
X97461Y130670D01*
X97316Y130624D01*
X97174Y130568D01*
X97035Y130501D01*
X96899Y130425D01*
X96765Y130338D01*
X96635Y130240D01*
X96928Y132564D01*
X97028Y132445D01*
D02*
G37*
G36*
X129272Y127889D02*
X129155Y127300D01*
X128976Y127226D01*
X128418Y126797D01*
X127989Y126239D01*
X127720Y125588D01*
X127628Y124890D01*
X127720Y124193D01*
X127838Y123907D01*
X127460Y123522D01*
X126762Y123614D01*
X126065Y123522D01*
X125414Y123253D01*
X124856Y122824D01*
X124427Y122266D01*
X124158Y121616D01*
X124066Y120918D01*
X124158Y120220D01*
X124427Y119570D01*
X124856Y119011D01*
X124869Y119001D01*
X124875Y118991D01*
X124887Y118964D01*
X124902Y118920D01*
X124918Y118859D01*
X124930Y118793D01*
X124940Y118686D01*
Y111024D01*
X124940Y111024D01*
X125079Y110327D01*
X125474Y109736D01*
X131412Y103797D01*
Y93429D01*
X130912Y93260D01*
X130788Y93422D01*
X130229Y93851D01*
X129579Y94120D01*
X128881Y94212D01*
X128183Y94120D01*
X127533Y93851D01*
X126974Y93422D01*
X126929Y93363D01*
X126429Y93533D01*
Y95786D01*
X126430Y95792D01*
X126443Y95860D01*
X126461Y95923D01*
X126483Y95983D01*
X126511Y96041D01*
X126544Y96099D01*
X126585Y96157D01*
X126634Y96218D01*
X126695Y96282D01*
X126714Y96297D01*
X127143Y96855D01*
X127412Y97505D01*
X127504Y98203D01*
X127412Y98901D01*
X127143Y99551D01*
X126714Y100110D01*
X126155Y100538D01*
X125505Y100808D01*
X124807Y100900D01*
X124109Y100808D01*
X123459Y100538D01*
X122901Y100110D01*
X122472Y99551D01*
X122203Y98901D01*
X122111Y98203D01*
X122203Y97505D01*
X122472Y96855D01*
X122901Y96297D01*
X122919Y96282D01*
X122981Y96218D01*
X123030Y96157D01*
X123071Y96099D01*
X123104Y96041D01*
X123132Y95983D01*
X123154Y95923D01*
X123172Y95860D01*
X123185Y95792D01*
X123186Y95786D01*
Y84070D01*
X122686Y83823D01*
X122369Y84066D01*
X121719Y84335D01*
X121021Y84427D01*
X120323Y84335D01*
X119673Y84066D01*
X119114Y83637D01*
X118686Y83079D01*
X118417Y82429D01*
X118325Y81731D01*
X118417Y81033D01*
X118686Y80383D01*
X119086Y79861D01*
X118686Y79339D01*
X118417Y78689D01*
X118325Y77991D01*
X118364Y77691D01*
X118098Y77232D01*
X117955Y77204D01*
X117395Y77131D01*
X116745Y76861D01*
X116186Y76433D01*
X115758Y75874D01*
X115488Y75224D01*
X115396Y74526D01*
X115425Y74313D01*
X114964Y73980D01*
X114553Y74150D01*
X113855Y74242D01*
X113157Y74150D01*
X112507Y73881D01*
X111949Y73452D01*
X111660Y73076D01*
X111419Y72909D01*
X111012Y72973D01*
X110689Y73220D01*
X110039Y73489D01*
X109341Y73581D01*
X108643Y73489D01*
X107993Y73220D01*
X107435Y72791D01*
X107006Y72233D01*
X106737Y71583D01*
X106645Y70885D01*
X106737Y70187D01*
X107006Y69537D01*
X107435Y68978D01*
X107993Y68550D01*
X108643Y68280D01*
X109341Y68189D01*
X110039Y68280D01*
X110689Y68550D01*
X111248Y68978D01*
X111537Y69355D01*
X111778Y69521D01*
X112185Y69458D01*
X112507Y69210D01*
X113157Y68941D01*
X113855Y68849D01*
X114553Y68941D01*
X115203Y69210D01*
X115762Y69639D01*
X116190Y70197D01*
X116460Y70848D01*
X116552Y71545D01*
X116524Y71759D01*
X116984Y72092D01*
X117395Y71922D01*
X118093Y71830D01*
X118791Y71922D01*
X119316Y72139D01*
X119599Y71715D01*
X114387Y66503D01*
X114035Y65977D01*
X113912Y65357D01*
Y58367D01*
X113911Y58361D01*
X113898Y58293D01*
X113880Y58230D01*
X113858Y58170D01*
X113830Y58112D01*
X113797Y58054D01*
X113756Y57995D01*
X113707Y57935D01*
X113646Y57871D01*
X113627Y57856D01*
X113199Y57298D01*
X112929Y56647D01*
X112837Y55950D01*
X112929Y55252D01*
X113199Y54602D01*
X113627Y54043D01*
X113646Y54029D01*
X113707Y53964D01*
X113756Y53904D01*
X113797Y53845D01*
X113830Y53787D01*
X113858Y53729D01*
X113880Y53670D01*
X113898Y53606D01*
X113911Y53538D01*
X113912Y53532D01*
Y44865D01*
X113912Y44861D01*
X113898Y44780D01*
X113879Y44700D01*
X113854Y44622D01*
X113824Y44544D01*
X113787Y44466D01*
X113743Y44387D01*
X113692Y44307D01*
X113614Y44201D01*
X113576Y44120D01*
X113421Y43918D01*
X113152Y43267D01*
X113060Y42570D01*
X113152Y41872D01*
X113421Y41221D01*
X113849Y40663D01*
X114408Y40235D01*
X115058Y39965D01*
X115756Y39873D01*
X116454Y39965D01*
X117104Y40235D01*
X117663Y40663D01*
X118091Y41221D01*
X118360Y41872D01*
X118452Y42570D01*
X118360Y43267D01*
X118091Y43918D01*
X117663Y44476D01*
X117457Y44634D01*
X117403Y44699D01*
X117318Y44769D01*
X117277Y44809D01*
X117245Y44846D01*
X117220Y44882D01*
X117200Y44919D01*
X117183Y44959D01*
X117168Y45006D01*
X117156Y45061D01*
X117155Y45065D01*
Y53532D01*
X117156Y53538D01*
X117169Y53606D01*
X117187Y53670D01*
X117209Y53729D01*
X117237Y53787D01*
X117270Y53845D01*
X117311Y53904D01*
X117360Y53964D01*
X117422Y54029D01*
X117440Y54043D01*
X117869Y54602D01*
X118138Y55252D01*
X118230Y55950D01*
X118138Y56647D01*
X117869Y57298D01*
X117440Y57856D01*
X117422Y57871D01*
X117360Y57935D01*
X117311Y57995D01*
X117270Y58054D01*
X117237Y58112D01*
X117209Y58170D01*
X117187Y58230D01*
X117169Y58293D01*
X117156Y58361D01*
X117155Y58367D01*
Y64685D01*
X125954Y73484D01*
X126306Y74010D01*
X126429Y74630D01*
Y89075D01*
X126445Y89106D01*
X126584Y89223D01*
X126929Y89322D01*
X127058Y89184D01*
Y65460D01*
X127058Y65460D01*
X127197Y64763D01*
X127592Y64172D01*
X128674Y63090D01*
X128576Y62600D01*
X128376Y62517D01*
X127818Y62089D01*
X127389Y61530D01*
X127120Y60880D01*
X127028Y60182D01*
X127120Y59484D01*
X127389Y58834D01*
X127818Y58275D01*
X128376Y57847D01*
X129026Y57578D01*
X129724Y57486D01*
X130256Y57556D01*
X130756Y57237D01*
Y45004D01*
X129148Y43396D01*
X129099Y43358D01*
X129033Y43312D01*
X128978Y43280D01*
X128936Y43259D01*
X128909Y43249D01*
X128897Y43246D01*
X128881Y43248D01*
X128183Y43156D01*
X127533Y42886D01*
X126974Y42458D01*
X126546Y41900D01*
X126277Y41249D01*
X126185Y40551D01*
X126277Y39854D01*
X126546Y39203D01*
X126974Y38645D01*
X127533Y38216D01*
X128183Y37947D01*
X128881Y37855D01*
X129579Y37947D01*
X130229Y38216D01*
X130788Y38645D01*
X131216Y39203D01*
X131485Y39854D01*
X131577Y40551D01*
X131575Y40568D01*
X131578Y40580D01*
X131589Y40607D01*
X131609Y40648D01*
X131641Y40703D01*
X131679Y40758D01*
X131747Y40841D01*
X133867Y42961D01*
X134262Y43552D01*
X134401Y44249D01*
X134401Y44249D01*
Y47601D01*
X134901Y47808D01*
X143656Y39054D01*
Y30775D01*
X143794Y30078D01*
X144189Y29487D01*
X144781Y29092D01*
X144990Y29050D01*
X145183Y28872D01*
X145314Y28215D01*
X145774Y27526D01*
X146463Y27066D01*
X147276Y26904D01*
X147336Y26916D01*
X147723Y26599D01*
Y20851D01*
X142332Y15460D01*
X142258Y15411D01*
X142129Y15345D01*
X141956Y15273D01*
X141739Y15202D01*
X141502Y15139D01*
X140452Y14964D01*
X140046Y14923D01*
X139953Y14895D01*
X139363Y14818D01*
X138401Y14419D01*
X137575Y13786D01*
X136942Y12960D01*
X136544Y11998D01*
X136408Y10967D01*
X136544Y9935D01*
X136942Y8973D01*
X137575Y8147D01*
X138401Y7514D01*
X139363Y7116D01*
X139915Y7043D01*
X139882Y6543D01*
X130907D01*
X130875Y7043D01*
X131427Y7116D01*
X132388Y7514D01*
X133214Y8147D01*
X133847Y8973D01*
X134246Y9935D01*
X134381Y10967D01*
X134246Y11998D01*
X133847Y12960D01*
X133214Y13786D01*
X132388Y14419D01*
X131427Y14818D01*
X130395Y14954D01*
X129363Y14818D01*
X128401Y14419D01*
X127576Y13786D01*
X126942Y12960D01*
X126544Y11998D01*
X126408Y10967D01*
X126544Y9935D01*
X126942Y8973D01*
X127576Y8147D01*
X128401Y7514D01*
X129363Y7116D01*
X129915Y7043D01*
X129882Y6543D01*
X120907D01*
X120875Y7043D01*
X121426Y7116D01*
X122388Y7514D01*
X123214Y8147D01*
X123847Y8973D01*
X124246Y9935D01*
X124381Y10967D01*
X124246Y11998D01*
X123847Y12960D01*
X123214Y13786D01*
X122388Y14419D01*
X121426Y14818D01*
X120395Y14954D01*
X119363Y14818D01*
X118401Y14419D01*
X117576Y13786D01*
X116942Y12960D01*
X116544Y11998D01*
X116408Y10967D01*
X116544Y9935D01*
X116942Y8973D01*
X117576Y8147D01*
X118401Y7514D01*
X119363Y7116D01*
X119915Y7043D01*
X119882Y6543D01*
X110907D01*
X110875Y7043D01*
X111426Y7116D01*
X112388Y7514D01*
X113214Y8147D01*
X113847Y8973D01*
X114246Y9935D01*
X114382Y10967D01*
X114246Y11998D01*
X113847Y12960D01*
X113214Y13786D01*
X112388Y14419D01*
X111426Y14818D01*
X110395Y14954D01*
X109363Y14818D01*
X108401Y14419D01*
X107576Y13786D01*
X106942Y12960D01*
X106544Y11998D01*
X106408Y10967D01*
X106544Y9935D01*
X106942Y8973D01*
X107576Y8147D01*
X108401Y7514D01*
X109363Y7116D01*
X109915Y7043D01*
X109882Y6543D01*
X80907D01*
X80875Y7043D01*
X81427Y7116D01*
X82388Y7514D01*
X83214Y8147D01*
X83847Y8973D01*
X84246Y9935D01*
X84382Y10967D01*
X84246Y11998D01*
X83847Y12960D01*
X83214Y13786D01*
X82388Y14419D01*
X81427Y14818D01*
X80395Y14954D01*
X79363Y14818D01*
X78401Y14419D01*
X77575Y13786D01*
X76942Y12960D01*
X76544Y11998D01*
X76408Y10967D01*
X76544Y9935D01*
X76942Y8973D01*
X77575Y8147D01*
X78401Y7514D01*
X79363Y7116D01*
X79915Y7043D01*
X79882Y6543D01*
X64418D01*
X64347Y7014D01*
X64347D01*
Y14919D01*
X56621D01*
X56426Y14936D01*
X56090Y15274D01*
X56040Y15658D01*
X55770Y16309D01*
X55342Y16867D01*
X54783Y17296D01*
X54133Y17565D01*
X53435Y17657D01*
X52737Y17565D01*
X52087Y17296D01*
X51529Y16867D01*
X51100Y16309D01*
X50831Y15658D01*
X50798Y15405D01*
X50395Y14954D01*
X49363Y14818D01*
X48401Y14419D01*
X47576Y13786D01*
X46942Y12960D01*
X46544Y11998D01*
X46500Y11668D01*
X46000Y11701D01*
Y19321D01*
X46500Y19655D01*
X46792Y19534D01*
X47490Y19443D01*
X48188Y19534D01*
X48838Y19804D01*
X49396Y20232D01*
X49825Y20791D01*
X49997Y21207D01*
X50021Y21228D01*
X50522Y21371D01*
X50581Y21361D01*
X50918Y21103D01*
X51569Y20833D01*
X52266Y20741D01*
X52964Y20833D01*
X53615Y21103D01*
X54173Y21531D01*
X54602Y22090D01*
X54871Y22740D01*
X54963Y23438D01*
X54871Y24136D01*
X54602Y24786D01*
X54173Y25344D01*
X54109Y25394D01*
X54076Y25893D01*
X55485Y27302D01*
X61842D01*
X62428Y27419D01*
X62924Y27750D01*
X63802Y28628D01*
X64280Y28483D01*
X64333Y28215D01*
X64794Y27526D01*
X65483Y27066D01*
X66295Y26904D01*
X67108Y27066D01*
X67797Y27526D01*
X68257Y28215D01*
X68419Y29028D01*
X68397Y29135D01*
X68878Y29281D01*
X68922Y29177D01*
X69350Y28618D01*
X69908Y28190D01*
X70085Y28117D01*
X70138Y27977D01*
X70138Y27553D01*
X69706Y27222D01*
X69277Y26663D01*
X69008Y26013D01*
X68916Y25315D01*
X69008Y24617D01*
X69277Y23967D01*
X69706Y23408D01*
X70264Y22980D01*
X70914Y22711D01*
X71612Y22619D01*
X72310Y22711D01*
X72960Y22980D01*
X73519Y23408D01*
X73947Y23967D01*
X74217Y24617D01*
X74309Y25315D01*
X74217Y26013D01*
X73947Y26663D01*
X73519Y27222D01*
X72960Y27650D01*
X72784Y27723D01*
X72730Y27863D01*
X72730Y28286D01*
X73163Y28618D01*
X73592Y29177D01*
X73602Y29203D01*
X73657Y29293D01*
X73695Y29345D01*
X73727Y29380D01*
X73753Y29403D01*
X73774Y29418D01*
X73793Y29429D01*
X73814Y29437D01*
X73842Y29445D01*
X74297D01*
X74883Y29561D01*
X75379Y29892D01*
X76817Y31330D01*
X77148Y31827D01*
X77265Y32412D01*
Y33292D01*
X78924Y34951D01*
X87909D01*
X88116Y34451D01*
X87829Y34163D01*
X87780Y34125D01*
X87713Y34080D01*
X87658Y34047D01*
X87617Y34027D01*
X87590Y34016D01*
X87578Y34013D01*
X87562Y34015D01*
X86864Y33923D01*
X86213Y33654D01*
X85655Y33226D01*
X85226Y32667D01*
X84957Y32017D01*
X84865Y31319D01*
X84957Y30621D01*
X85226Y29971D01*
X85655Y29412D01*
X86213Y28984D01*
X86864Y28714D01*
X87562Y28623D01*
X88259Y28714D01*
X88910Y28984D01*
X89468Y29412D01*
X89897Y29971D01*
X90166Y30621D01*
X90258Y31319D01*
X90256Y31335D01*
X90259Y31347D01*
X90269Y31374D01*
X90290Y31416D01*
X90322Y31471D01*
X90360Y31526D01*
X90428Y31608D01*
X97683Y38863D01*
X97683Y38864D01*
X98078Y39455D01*
X98217Y40152D01*
Y45063D01*
X98248Y45219D01*
X98248Y45219D01*
Y52641D01*
X98248Y52641D01*
X98109Y53338D01*
X97714Y53930D01*
X97714Y53930D01*
X97574Y54070D01*
Y55331D01*
X98074Y55650D01*
X98606Y55580D01*
X99304Y55672D01*
X99954Y55941D01*
X100513Y56370D01*
X100941Y56928D01*
X101210Y57579D01*
X101302Y58276D01*
X101210Y58974D01*
X100941Y59625D01*
X100761Y59859D01*
X101292Y60267D01*
X101721Y60825D01*
X101990Y61475D01*
X102082Y62173D01*
X101990Y62871D01*
X101721Y63521D01*
X101292Y64080D01*
X100734Y64508D01*
X100083Y64778D01*
X99386Y64869D01*
X98688Y64778D01*
X98037Y64508D01*
X97718Y64263D01*
X97218Y64509D01*
Y101197D01*
X98119Y102098D01*
X98124Y102102D01*
X98181Y102140D01*
X98239Y102173D01*
X98297Y102199D01*
X98357Y102221D01*
X98422Y102238D01*
X98492Y102251D01*
X98569Y102259D01*
X98659Y102261D01*
X98682Y102258D01*
X99380Y102350D01*
X100030Y102619D01*
X100588Y103047D01*
X101017Y103606D01*
X101286Y104256D01*
X101378Y104954D01*
X101286Y105652D01*
X101017Y106302D01*
X100588Y106861D01*
X100030Y107289D01*
X99380Y107558D01*
X98682Y107650D01*
X98672Y107649D01*
X98245Y108097D01*
X98292Y108454D01*
X98201Y109152D01*
X97931Y109802D01*
X97503Y110360D01*
X97484Y110375D01*
X97423Y110439D01*
X97373Y110500D01*
X97333Y110558D01*
X97299Y110616D01*
X97272Y110674D01*
X97249Y110734D01*
X97232Y110797D01*
X97218Y110865D01*
X97218Y110871D01*
Y119325D01*
X100715Y122822D01*
X106906D01*
X106912Y122822D01*
X106980Y122809D01*
X107043Y122791D01*
X107103Y122768D01*
X107161Y122741D01*
X107219Y122707D01*
X107278Y122667D01*
X107338Y122618D01*
X107403Y122556D01*
X107417Y122538D01*
X107975Y122109D01*
X108626Y121840D01*
X109323Y121748D01*
X109866Y121819D01*
X109921Y121406D01*
X110190Y120756D01*
X110618Y120197D01*
X111177Y119769D01*
X111827Y119499D01*
X112525Y119407D01*
X113223Y119499D01*
X113873Y119769D01*
X114432Y120197D01*
X114860Y120756D01*
X115129Y121406D01*
X115221Y122104D01*
X115129Y122802D01*
X114860Y123452D01*
X114432Y124010D01*
X113873Y124439D01*
X113223Y124708D01*
X112525Y124800D01*
X111982Y124729D01*
X111928Y125142D01*
X111659Y125792D01*
X111230Y126351D01*
X110672Y126779D01*
X110021Y127049D01*
X109323Y127140D01*
X108626Y127049D01*
X107975Y126779D01*
X107417Y126351D01*
X107403Y126332D01*
X107338Y126271D01*
X107278Y126222D01*
X107219Y126181D01*
X107161Y126147D01*
X107103Y126120D01*
X107043Y126098D01*
X106980Y126080D01*
X106912Y126067D01*
X106906Y126066D01*
X100043D01*
X99423Y125943D01*
X98897Y125591D01*
X94602Y121296D01*
X94102Y121503D01*
Y128736D01*
X94602Y129070D01*
X94898Y128948D01*
X95596Y128856D01*
X96294Y128948D01*
X96944Y129217D01*
X97160Y129383D01*
X97243Y129422D01*
X97348Y129501D01*
X97428Y129552D01*
X97505Y129596D01*
X97582Y129633D01*
X97659Y129663D01*
X97736Y129688D01*
X97815Y129707D01*
X97896Y129720D01*
X97899Y129721D01*
X127441D01*
X129272Y127889D01*
D02*
G37*
G36*
X219000Y127510D02*
X221353D01*
X221300Y127445D01*
X221253Y127357D01*
X221212Y127248D01*
X221176Y127116D01*
X221146Y126962D01*
X221121Y126786D01*
X221088Y126368D01*
X221077Y125861D01*
X218321D01*
X218318Y126126D01*
X218301Y126348D01*
X218223Y126291D01*
X218048Y126144D01*
X217874Y125980D01*
X216482Y127372D01*
X216647Y127546D01*
X216793Y127721D01*
X216922Y127897D01*
X217034Y128075D01*
X217128Y128254D01*
X217205Y128435D01*
X217264Y128617D01*
X217306Y128801D01*
X217330Y128986D01*
X217337Y129173D01*
X219000Y127510D01*
D02*
G37*
G36*
X188319Y125047D02*
X188337Y124893D01*
X188366Y124744D01*
X188406Y124599D01*
X188459Y124460D01*
X188522Y124325D01*
X188598Y124194D01*
X188685Y124068D01*
X188784Y123948D01*
X188894Y123831D01*
X186551D01*
X186662Y123948D01*
X186760Y124068D01*
X186848Y124194D01*
X186923Y124325D01*
X186987Y124460D01*
X187039Y124599D01*
X187080Y124744D01*
X187109Y124893D01*
X187126Y125047D01*
X187132Y125206D01*
X188313D01*
X188319Y125047D01*
D02*
G37*
G36*
X108128Y123273D02*
X108012Y123383D01*
X107891Y123482D01*
X107766Y123569D01*
X107635Y123645D01*
X107500Y123708D01*
X107360Y123761D01*
X107216Y123801D01*
X107067Y123830D01*
X106913Y123848D01*
X106754Y123854D01*
Y125035D01*
X106913Y125041D01*
X107067Y125058D01*
X107216Y125087D01*
X107360Y125128D01*
X107500Y125180D01*
X107635Y125244D01*
X107766Y125319D01*
X107891Y125406D01*
X108012Y125505D01*
X108128Y125616D01*
Y123273D01*
D02*
G37*
G36*
X139031Y118131D02*
X138797Y117657D01*
X138500Y117696D01*
X137802Y117604D01*
X137152Y117335D01*
X136593Y116907D01*
X136165Y116348D01*
X135896Y115698D01*
X135804Y115000D01*
X135896Y114302D01*
X136165Y113652D01*
X136593Y113093D01*
X137152Y112665D01*
X137802Y112396D01*
X138500Y112304D01*
X139198Y112396D01*
X139848Y112665D01*
X140407Y113093D01*
X140835Y113652D01*
X141104Y114302D01*
X141168Y114787D01*
X141604Y115043D01*
X141689Y115052D01*
X141733Y115024D01*
Y110983D01*
X141233Y110684D01*
X140833Y110850D01*
X140135Y110942D01*
X139437Y110850D01*
X138787Y110581D01*
X138228Y110152D01*
X137800Y109594D01*
X137530Y108943D01*
X137438Y108246D01*
X137530Y107548D01*
X137800Y106897D01*
X138228Y106339D01*
X138787Y105911D01*
X139437Y105641D01*
X140135Y105549D01*
X140833Y105641D01*
X141233Y105807D01*
X141733Y105508D01*
Y94509D01*
X141733Y94504D01*
X141719Y94435D01*
X141702Y94372D01*
X141679Y94312D01*
X141652Y94254D01*
X141618Y94197D01*
X141578Y94138D01*
X141528Y94078D01*
X141467Y94013D01*
X141448Y93999D01*
X141020Y93440D01*
X140751Y92790D01*
X140659Y92092D01*
X140751Y91394D01*
X141020Y90744D01*
X141448Y90185D01*
X142007Y89757D01*
X142657Y89488D01*
X143355Y89396D01*
X143891Y89466D01*
X144391Y89149D01*
Y69531D01*
X142200Y67340D01*
X141848Y66814D01*
X141725Y66193D01*
Y57920D01*
X141848Y57299D01*
X142200Y56773D01*
X142461Y56512D01*
X142464Y56508D01*
X142503Y56450D01*
X142535Y56393D01*
X142562Y56335D01*
X142583Y56274D01*
X142601Y56210D01*
X142613Y56139D01*
X142621Y56062D01*
X142623Y55973D01*
X142620Y55950D01*
X142712Y55252D01*
X142982Y54602D01*
X143410Y54043D01*
X143968Y53615D01*
X144619Y53345D01*
X145317Y53253D01*
X146014Y53345D01*
X146665Y53615D01*
X147223Y54043D01*
X147723Y53873D01*
Y40249D01*
X147223Y40199D01*
X147162Y40506D01*
X146767Y41098D01*
X146766Y41098D01*
X137629Y50235D01*
Y57711D01*
X137637Y57772D01*
X137652Y57852D01*
X137668Y57914D01*
X137683Y57957D01*
X137695Y57984D01*
X137700Y57994D01*
X137714Y58004D01*
X138142Y58563D01*
X138411Y59213D01*
X138503Y59911D01*
X138411Y60609D01*
X138142Y61259D01*
X137714Y61818D01*
X137656Y61861D01*
X137646Y61915D01*
X137635Y61990D01*
X137629Y62066D01*
Y62506D01*
X137491Y63204D01*
X137096Y63795D01*
X137096Y63795D01*
X135057Y65833D01*
Y69245D01*
X135065Y69307D01*
X135080Y69386D01*
X135096Y69448D01*
X135111Y69492D01*
X135122Y69518D01*
X135128Y69529D01*
X135142Y69539D01*
X135570Y70097D01*
X135839Y70748D01*
X135931Y71446D01*
X135839Y72143D01*
X135570Y72794D01*
X135142Y73352D01*
X135128Y73362D01*
X135122Y73373D01*
X135111Y73399D01*
X135096Y73443D01*
X135080Y73505D01*
X135067Y73570D01*
X135057Y73677D01*
Y104552D01*
X135057Y104552D01*
X134919Y105249D01*
X134523Y105840D01*
X134523Y105840D01*
X128585Y111779D01*
Y118718D01*
X128592Y118779D01*
X128607Y118859D01*
X128623Y118920D01*
X128638Y118964D01*
X128650Y118991D01*
X128656Y119001D01*
X128669Y119011D01*
X129097Y119570D01*
X129367Y120220D01*
X129459Y120918D01*
X129367Y121616D01*
X129248Y121902D01*
X129627Y122286D01*
X130324Y122194D01*
X131022Y122286D01*
X131673Y122555D01*
X132231Y122984D01*
X132659Y123542D01*
X132733Y123721D01*
X133323Y123838D01*
X139031Y118131D01*
D02*
G37*
G36*
X142946Y124232D02*
X143068Y124138D01*
X143191Y124063D01*
X143314Y124006D01*
X143437Y123968D01*
X143561Y123949D01*
X143685Y123948D01*
X143809Y123966D01*
X143934Y124003D01*
X144059Y124058D01*
X143305Y121869D01*
X143247Y121989D01*
X143113Y122227D01*
X143037Y122344D01*
X142868Y122578D01*
X142675Y122810D01*
X142459Y123039D01*
X142824Y124344D01*
X142946Y124232D01*
D02*
G37*
G36*
X184859Y121383D02*
X184876Y121229D01*
X184905Y121080D01*
X184946Y120935D01*
X184998Y120796D01*
X185062Y120660D01*
X185137Y120530D01*
X185224Y120405D01*
X185323Y120283D01*
X185433Y120167D01*
X183091D01*
X183201Y120283D01*
X183300Y120405D01*
X183387Y120530D01*
X183463Y120660D01*
X183527Y120796D01*
X183579Y120935D01*
X183619Y121080D01*
X183649Y121229D01*
X183666Y121383D01*
X183672Y121542D01*
X184853D01*
X184859Y121383D01*
D02*
G37*
G36*
X127861Y119642D02*
X127796Y119551D01*
X127738Y119449D01*
X127688Y119336D01*
X127646Y119213D01*
X127611Y119079D01*
X127584Y118935D01*
X127565Y118780D01*
X127554Y118614D01*
X127550Y118437D01*
X125975D01*
X125971Y118614D01*
X125940Y118935D01*
X125914Y119079D01*
X125879Y119213D01*
X125837Y119336D01*
X125787Y119449D01*
X125729Y119551D01*
X125664Y119642D01*
X125591Y119723D01*
X127934D01*
X127861Y119642D01*
D02*
G37*
G36*
X164808Y117996D02*
X164757Y117901D01*
X164711Y117795D01*
X164672Y117680D01*
X164638Y117554D01*
X164611Y117418D01*
X164590Y117271D01*
X164566Y116947D01*
X164563Y116770D01*
X162988Y116509D01*
X162984Y116686D01*
X162970Y116851D01*
X162948Y117004D01*
X162917Y117145D01*
X162878Y117274D01*
X162829Y117392D01*
X162772Y117497D01*
X162706Y117591D01*
X162631Y117673D01*
X162548Y117744D01*
X164866Y118080D01*
X164808Y117996D01*
D02*
G37*
G36*
X216459Y116527D02*
X216413Y116440D01*
X216371Y116330D01*
X216336Y116199D01*
X216305Y116045D01*
X216280Y115869D01*
X216247Y115450D01*
X216236Y114943D01*
X213480D01*
X213478Y115208D01*
X213411Y116045D01*
X213381Y116199D01*
X213345Y116330D01*
X213304Y116440D01*
X213257Y116527D01*
X213205Y116592D01*
X216512D01*
X216459Y116527D01*
D02*
G37*
G36*
X96192Y110865D02*
X96210Y110711D01*
X96239Y110561D01*
X96280Y110417D01*
X96332Y110277D01*
X96396Y110142D01*
X96471Y110011D01*
X96558Y109886D01*
X96657Y109765D01*
X96767Y109649D01*
X94425D01*
X94535Y109765D01*
X94634Y109886D01*
X94721Y110011D01*
X94796Y110142D01*
X94860Y110277D01*
X94913Y110417D01*
X94953Y110561D01*
X94982Y110711D01*
X95000Y110865D01*
X95006Y111023D01*
X96187D01*
X96192Y110865D01*
D02*
G37*
G36*
X247325Y111312D02*
X247367Y110468D01*
X247416Y110092D01*
X247484Y109748D01*
X247571Y109435D01*
X247676Y109154D01*
X247801Y108904D01*
X247944Y108686D01*
X248106Y108498D01*
X247250Y107684D01*
X247067Y107842D01*
X246851Y107985D01*
X246603Y108111D01*
X246321Y108222D01*
X246007Y108317D01*
X245659Y108395D01*
X245279Y108458D01*
X244419Y108536D01*
X243939Y108552D01*
X247332Y111782D01*
X247325Y111312D01*
D02*
G37*
G36*
X98665Y103281D02*
X98505Y103277D01*
X98349Y103261D01*
X98199Y103234D01*
X98053Y103195D01*
X97913Y103145D01*
X97777Y103083D01*
X97646Y103009D01*
X97520Y102924D01*
X97399Y102828D01*
X97282Y102719D01*
X96447Y103555D01*
X96555Y103671D01*
X96652Y103792D01*
X96737Y103918D01*
X96810Y104049D01*
X96872Y104185D01*
X96923Y104326D01*
X96961Y104471D01*
X96989Y104622D01*
X97004Y104777D01*
X97009Y104937D01*
X98665Y103281D01*
D02*
G37*
G36*
X164567Y103182D02*
X164580Y103017D01*
X164602Y102864D01*
X164633Y102723D01*
X164673Y102594D01*
X164721Y102476D01*
X164779Y102371D01*
X164845Y102277D01*
X164919Y102195D01*
X165003Y102124D01*
X162685Y101788D01*
X162743Y101872D01*
X162794Y101967D01*
X162839Y102073D01*
X162879Y102188D01*
X162912Y102314D01*
X162940Y102450D01*
X162961Y102597D01*
X162985Y102920D01*
X162988Y103098D01*
X164563Y103359D01*
X164567Y103182D01*
D02*
G37*
G36*
X153258Y101846D02*
X153150Y101701D01*
X153056Y101557D01*
X152973Y101412D01*
X152904Y101266D01*
X152847Y101121D01*
X152803Y100976D01*
X152771Y100830D01*
X152752Y100684D01*
X152746Y100537D01*
X151746Y100458D01*
X151739Y100609D01*
X151718Y100756D01*
X151683Y100900D01*
X151634Y101040D01*
X151570Y101178D01*
X151493Y101311D01*
X151401Y101442D01*
X151295Y101569D01*
X151176Y101692D01*
X151042Y101813D01*
X153378Y101990D01*
X153258Y101846D01*
D02*
G37*
G36*
X159277Y99901D02*
X159294Y99768D01*
X159324Y99636D01*
X159365Y99506D01*
X159420Y99376D01*
X159486Y99249D01*
X159565Y99122D01*
X159656Y98997D01*
X159759Y98873D01*
X159874Y98751D01*
X158900Y97777D01*
X158778Y97892D01*
X158654Y97996D01*
X158529Y98087D01*
X158403Y98165D01*
X158275Y98232D01*
X158146Y98286D01*
X158015Y98327D01*
X157884Y98357D01*
X157750Y98374D01*
X157616Y98379D01*
X159272Y100035D01*
X159277Y99901D01*
D02*
G37*
G36*
X200184Y97206D02*
X200229Y96613D01*
X200250Y96505D01*
X200274Y96413D01*
X200302Y96336D01*
X200334Y96276D01*
X200369Y96231D01*
X198027D01*
X198062Y96276D01*
X198094Y96336D01*
X198122Y96413D01*
X198146Y96505D01*
X198167Y96613D01*
X198184Y96737D01*
X198206Y97034D01*
X198214Y97393D01*
X200182D01*
X200184Y97206D01*
D02*
G37*
G36*
X125868Y96892D02*
X125770Y96771D01*
X125682Y96645D01*
X125607Y96515D01*
X125543Y96380D01*
X125491Y96240D01*
X125450Y96096D01*
X125421Y95946D01*
X125404Y95792D01*
X125398Y95634D01*
X124217D01*
X124211Y95792D01*
X124194Y95946D01*
X124165Y96096D01*
X124124Y96240D01*
X124072Y96380D01*
X124008Y96515D01*
X123932Y96645D01*
X123845Y96771D01*
X123747Y96892D01*
X123636Y97008D01*
X125979D01*
X125868Y96892D01*
D02*
G37*
G36*
X143951Y94503D02*
X143969Y94349D01*
X143998Y94200D01*
X144038Y94055D01*
X144091Y93915D01*
X144155Y93780D01*
X144230Y93650D01*
X144317Y93524D01*
X144416Y93403D01*
X144526Y93287D01*
X142184D01*
X142294Y93403D01*
X142393Y93524D01*
X142480Y93650D01*
X142555Y93780D01*
X142619Y93915D01*
X142672Y94055D01*
X142712Y94200D01*
X142741Y94349D01*
X142759Y94503D01*
X142764Y94662D01*
X143946D01*
X143951Y94503D01*
D02*
G37*
G36*
X206249Y90804D02*
X206166Y90795D01*
X206071Y90766D01*
X205965Y90718D01*
X205846Y90650D01*
X205716Y90563D01*
X205574Y90456D01*
X205255Y90184D01*
X204888Y89833D01*
X202940Y91781D01*
X203125Y91970D01*
X203670Y92609D01*
X203757Y92739D01*
X203825Y92858D01*
X203873Y92964D01*
X203902Y93059D01*
X203911Y93142D01*
X206249Y90804D01*
D02*
G37*
G36*
X129979Y90240D02*
X129914Y90149D01*
X129856Y90047D01*
X129806Y89934D01*
X129764Y89811D01*
X129730Y89677D01*
X129703Y89533D01*
X129684Y89378D01*
X129672Y89212D01*
X129668Y89035D01*
X128094D01*
X128090Y89212D01*
X128059Y89533D01*
X128032Y89677D01*
X127998Y89811D01*
X127955Y89934D01*
X127905Y90047D01*
X127848Y90149D01*
X127783Y90240D01*
X127710Y90321D01*
X130052D01*
X129979Y90240D01*
D02*
G37*
G36*
X166577Y90416D02*
X166695Y90327D01*
X166822Y90248D01*
X166956Y90180D01*
X167099Y90123D01*
X167250Y90076D01*
X167409Y90040D01*
X167577Y90015D01*
X167752Y90001D01*
X167936Y89997D01*
X166280Y88341D01*
X166276Y88525D01*
X166262Y88700D01*
X166237Y88868D01*
X166201Y89027D01*
X166155Y89178D01*
X166097Y89321D01*
X166029Y89455D01*
X165950Y89582D01*
X165861Y89700D01*
X165760Y89810D01*
X166467Y90517D01*
X166577Y90416D01*
D02*
G37*
G36*
X211561Y117564D02*
X211583Y117401D01*
X211922Y116584D01*
X212384Y115981D01*
X212388Y115966D01*
X212400Y115906D01*
X212434Y115474D01*
Y84109D01*
X211934Y83939D01*
X211790Y84126D01*
X211232Y84555D01*
X210581Y84824D01*
X209883Y84916D01*
X209186Y84824D01*
X208535Y84555D01*
X207977Y84126D01*
X207548Y83568D01*
X207279Y82918D01*
X207187Y82220D01*
X207279Y81522D01*
X207548Y80872D01*
X207842Y80489D01*
X207860Y80242D01*
Y76428D01*
X202927Y71495D01*
X202466Y71687D01*
Y85930D01*
X206101Y89566D01*
X206212Y89660D01*
X206307Y89732D01*
X206384Y89783D01*
X206398Y89791D01*
X207151Y89890D01*
X207968Y90229D01*
X208671Y90768D01*
X209210Y91470D01*
X209548Y92288D01*
X209664Y93166D01*
X209548Y94044D01*
X209210Y94862D01*
X208671Y95564D01*
X207968Y96103D01*
X207151Y96442D01*
X206273Y96557D01*
X205395Y96442D01*
X204577Y96103D01*
X203875Y95564D01*
X203336Y94862D01*
X202997Y94044D01*
X202898Y93291D01*
X202890Y93277D01*
X202856Y93226D01*
X202575Y92897D01*
X198385Y88707D01*
X197885Y88789D01*
Y92237D01*
X198300Y92515D01*
X198500Y92432D01*
X199198Y92340D01*
X199896Y92432D01*
X200546Y92701D01*
X201105Y93130D01*
X201533Y93688D01*
X201802Y94338D01*
X201894Y95036D01*
X201802Y95734D01*
X201533Y96384D01*
X201240Y96766D01*
X201221Y97014D01*
Y107858D01*
X211088Y117724D01*
X211561Y117564D01*
D02*
G37*
G36*
X156296Y81637D02*
X156197Y81516D01*
X156110Y81390D01*
X156035Y81260D01*
X155971Y81125D01*
X155918Y80985D01*
X155878Y80840D01*
X155849Y80691D01*
X155831Y80537D01*
X155825Y80379D01*
X154644D01*
X154639Y80537D01*
X154621Y80691D01*
X154592Y80840D01*
X154551Y80985D01*
X154499Y81125D01*
X154435Y81260D01*
X154360Y81390D01*
X154273Y81516D01*
X154174Y81637D01*
X154064Y81753D01*
X156406D01*
X156296Y81637D01*
D02*
G37*
G36*
X211019Y80980D02*
X210987Y80920D01*
X210959Y80843D01*
X210935Y80751D01*
X210914Y80643D01*
X210898Y80518D01*
X210875Y80222D01*
X210868Y79863D01*
X208899D01*
X208897Y80050D01*
X208853Y80643D01*
X208832Y80751D01*
X208808Y80843D01*
X208780Y80920D01*
X208748Y80980D01*
X208712Y81025D01*
X211055D01*
X211019Y80980D01*
D02*
G37*
G36*
X177447Y81888D02*
X177571Y81785D01*
X177696Y81694D01*
X177822Y81615D01*
X177950Y81549D01*
X178079Y81495D01*
X178210Y81453D01*
X178341Y81424D01*
X178474Y81406D01*
X178609Y81402D01*
X176952Y79745D01*
X176948Y79880D01*
X176930Y80013D01*
X176901Y80144D01*
X176859Y80275D01*
X176805Y80404D01*
X176739Y80532D01*
X176660Y80658D01*
X176569Y80783D01*
X176466Y80907D01*
X176350Y81029D01*
X177325Y82004D01*
X177447Y81888D01*
D02*
G37*
G36*
X134026Y73749D02*
X134057Y73428D01*
X134084Y73284D01*
X134118Y73150D01*
X134160Y73027D01*
X134210Y72914D01*
X134268Y72812D01*
X134333Y72721D01*
X134406Y72640D01*
X132064D01*
X132137Y72721D01*
X132202Y72812D01*
X132259Y72914D01*
X132309Y73027D01*
X132352Y73150D01*
X132386Y73284D01*
X132413Y73428D01*
X132432Y73584D01*
X132444Y73749D01*
X132448Y73926D01*
X134022D01*
X134026Y73749D01*
D02*
G37*
G36*
X180836Y74666D02*
X180852Y74511D01*
X180879Y74360D01*
X180918Y74215D01*
X180968Y74074D01*
X181030Y73938D01*
X181104Y73807D01*
X181188Y73681D01*
X181285Y73560D01*
X181393Y73443D01*
X180558Y72608D01*
X180442Y72716D01*
X180321Y72813D01*
X180194Y72898D01*
X180063Y72971D01*
X179928Y73033D01*
X179787Y73084D01*
X179641Y73123D01*
X179491Y73150D01*
X179336Y73166D01*
X179175Y73170D01*
X180832Y74826D01*
X180836Y74666D01*
D02*
G37*
G36*
X191280Y73681D02*
X191181Y73561D01*
X191094Y73435D01*
X191019Y73305D01*
X190955Y73169D01*
X190902Y73030D01*
X190862Y72885D01*
X190833Y72736D01*
X190815Y72582D01*
X190810Y72423D01*
X189628D01*
X189623Y72582D01*
X189605Y72736D01*
X189576Y72885D01*
X189535Y73030D01*
X189483Y73169D01*
X189419Y73305D01*
X189344Y73435D01*
X189257Y73561D01*
X189158Y73681D01*
X189048Y73798D01*
X191390D01*
X191280Y73681D01*
D02*
G37*
G36*
X134333Y70170D02*
X134268Y70079D01*
X134210Y69977D01*
X134160Y69864D01*
X134118Y69741D01*
X134084Y69607D01*
X134057Y69463D01*
X134038Y69308D01*
X134026Y69142D01*
X134022Y68965D01*
X132448D01*
X132444Y69142D01*
X132413Y69463D01*
X132386Y69607D01*
X132352Y69741D01*
X132309Y69864D01*
X132259Y69977D01*
X132202Y70079D01*
X132137Y70170D01*
X132064Y70251D01*
X134406D01*
X134333Y70170D01*
D02*
G37*
G36*
X136597Y62207D02*
X136620Y61882D01*
X136641Y61740D01*
X136667Y61613D01*
X136698Y61501D01*
X136736Y61402D01*
X136779Y61318D01*
X136828Y61248D01*
X136883Y61193D01*
X134731D01*
X134786Y61248D01*
X134835Y61318D01*
X134878Y61402D01*
X134916Y61501D01*
X134948Y61613D01*
X134974Y61740D01*
X134994Y61882D01*
X135017Y62207D01*
X135020Y62391D01*
X136594D01*
X136597Y62207D01*
D02*
G37*
G36*
X196859Y62322D02*
X196877Y62168D01*
X196906Y62018D01*
X196946Y61874D01*
X196999Y61734D01*
X197063Y61599D01*
X197138Y61469D01*
X197225Y61343D01*
X197324Y61222D01*
X197434Y61106D01*
X195092D01*
X195202Y61222D01*
X195301Y61343D01*
X195388Y61469D01*
X195463Y61599D01*
X195527Y61734D01*
X195580Y61874D01*
X195620Y62018D01*
X195649Y62168D01*
X195667Y62322D01*
X195672Y62480D01*
X196853D01*
X196859Y62322D01*
D02*
G37*
G36*
X98720Y60638D02*
X98624Y60670D01*
X98524Y60685D01*
X98421Y60683D01*
X98314Y60664D01*
X98203Y60628D01*
X98088Y60574D01*
X97970Y60503D01*
X97848Y60415D01*
X97723Y60310D01*
X97594Y60187D01*
X97054Y61874D01*
X97184Y62006D01*
X97723Y62617D01*
X97773Y62689D01*
X97811Y62753D01*
X97838Y62808D01*
X98720Y60638D01*
D02*
G37*
G36*
X217275Y69706D02*
Y65196D01*
X210247Y58169D01*
X209747Y58324D01*
Y62730D01*
X216573Y69555D01*
X216775Y69857D01*
X217275Y69706D01*
D02*
G37*
G36*
X136905Y58635D02*
X136840Y58544D01*
X136783Y58442D01*
X136733Y58330D01*
X136690Y58206D01*
X136656Y58073D01*
X136629Y57928D01*
X136610Y57773D01*
X136598Y57607D01*
X136594Y57431D01*
X135020D01*
X135016Y57607D01*
X134985Y57928D01*
X134958Y58073D01*
X134924Y58206D01*
X134881Y58330D01*
X134832Y58442D01*
X134774Y58544D01*
X134709Y58635D01*
X134636Y58716D01*
X136978D01*
X136905Y58635D01*
D02*
G37*
G36*
X116130Y58360D02*
X116147Y58206D01*
X116176Y58057D01*
X116217Y57913D01*
X116270Y57773D01*
X116333Y57638D01*
X116409Y57507D01*
X116496Y57382D01*
X116595Y57261D01*
X116705Y57145D01*
X114363D01*
X114473Y57261D01*
X114571Y57382D01*
X114659Y57507D01*
X114734Y57638D01*
X114798Y57773D01*
X114850Y57913D01*
X114891Y58057D01*
X114920Y58206D01*
X114937Y58360D01*
X114943Y58519D01*
X116124D01*
X116130Y58360D01*
D02*
G37*
G36*
X144034Y58076D02*
X144155Y57979D01*
X144281Y57894D01*
X144412Y57821D01*
X144548Y57759D01*
X144688Y57709D01*
X144834Y57670D01*
X144984Y57643D01*
X145140Y57627D01*
X145300Y57623D01*
X143643Y55966D01*
X143639Y56127D01*
X143624Y56282D01*
X143596Y56432D01*
X143558Y56578D01*
X143507Y56719D01*
X143445Y56854D01*
X143372Y56985D01*
X143287Y57111D01*
X143190Y57233D01*
X143082Y57349D01*
X143917Y58184D01*
X144034Y58076D01*
D02*
G37*
G36*
X116595Y54638D02*
X116496Y54518D01*
X116409Y54392D01*
X116333Y54262D01*
X116270Y54127D01*
X116217Y53987D01*
X116176Y53842D01*
X116147Y53693D01*
X116130Y53539D01*
X116124Y53380D01*
X114943D01*
X114937Y53539D01*
X114920Y53693D01*
X114891Y53842D01*
X114850Y53987D01*
X114798Y54127D01*
X114734Y54262D01*
X114659Y54392D01*
X114571Y54518D01*
X114473Y54638D01*
X114363Y54755D01*
X116705D01*
X116595Y54638D01*
D02*
G37*
G36*
X217100Y54211D02*
X217221Y54112D01*
X217347Y54025D01*
X217477Y53949D01*
X217612Y53885D01*
X217752Y53833D01*
X217897Y53792D01*
X218046Y53763D01*
X218200Y53746D01*
X218358Y53740D01*
Y52559D01*
X218200Y52553D01*
X218046Y52536D01*
X217897Y52507D01*
X217752Y52466D01*
X217612Y52414D01*
X217477Y52350D01*
X217347Y52275D01*
X217221Y52187D01*
X217100Y52089D01*
X216984Y51978D01*
Y54321D01*
X217100Y54211D01*
D02*
G37*
G36*
X66668Y53396D02*
X66789Y53297D01*
X66914Y53210D01*
X67045Y53135D01*
X67180Y53071D01*
X67320Y53018D01*
X67464Y52978D01*
X67614Y52949D01*
X67768Y52931D01*
X67926Y52925D01*
Y51744D01*
X67768Y51739D01*
X67614Y51721D01*
X67464Y51692D01*
X67320Y51651D01*
X67180Y51599D01*
X67045Y51535D01*
X66914Y51460D01*
X66789Y51373D01*
X66668Y51274D01*
X66552Y51164D01*
Y53506D01*
X66668Y53396D01*
D02*
G37*
G36*
X34575Y50364D02*
X34627Y50327D01*
X34693Y50294D01*
X34773Y50266D01*
X34866Y50242D01*
X34975Y50222D01*
X35097Y50207D01*
X35383Y50190D01*
X35547Y50187D01*
Y49006D01*
X35405Y49004D01*
X35159Y48983D01*
X35054Y48965D01*
X34962Y48942D01*
X34883Y48913D01*
X34815Y48880D01*
X34761Y48841D01*
X34718Y48797D01*
X34688Y48748D01*
X34537Y50406D01*
X34575Y50364D01*
D02*
G37*
G36*
X45752Y50657D02*
X45865Y50554D01*
X45985Y50463D01*
X46110Y50383D01*
X46242Y50317D01*
X46378Y50262D01*
X46521Y50219D01*
X46669Y50189D01*
X46823Y50171D01*
X46983Y50165D01*
X46905Y48983D01*
X46747Y48978D01*
X46593Y48961D01*
X46444Y48934D01*
X46297Y48896D01*
X46155Y48846D01*
X46016Y48786D01*
X45881Y48715D01*
X45750Y48632D01*
X45622Y48539D01*
X45499Y48434D01*
X45643Y50773D01*
X45752Y50657D01*
D02*
G37*
G36*
X94029Y49145D02*
X94046Y48991D01*
X94075Y48842D01*
X94116Y48697D01*
X94168Y48557D01*
X94232Y48422D01*
X94307Y48292D01*
X94394Y48166D01*
X94493Y48045D01*
X94604Y47929D01*
X92261D01*
X92371Y48045D01*
X92470Y48166D01*
X92557Y48292D01*
X92633Y48422D01*
X92697Y48557D01*
X92749Y48697D01*
X92790Y48842D01*
X92818Y48991D01*
X92836Y49145D01*
X92842Y49304D01*
X94023D01*
X94029Y49145D01*
D02*
G37*
G36*
X72365Y47512D02*
X72140Y47500D01*
X71939Y47465D01*
X71762Y47406D01*
X71609Y47323D01*
X71479Y47217D01*
X71372Y47087D01*
X71290Y46933D01*
X71231Y46756D01*
X71195Y46555D01*
X71184Y46331D01*
X70002D01*
X69991Y46555D01*
X69955Y46756D01*
X69896Y46933D01*
X69814Y47087D01*
X69707Y47217D01*
X69577Y47323D01*
X69424Y47406D01*
X69247Y47465D01*
X69046Y47500D01*
X68821Y47512D01*
X70593Y48693D01*
X72365Y47512D01*
D02*
G37*
G36*
X94476Y45407D02*
X94362Y45272D01*
X94261Y45136D01*
X94174Y44998D01*
X94100Y44859D01*
X94040Y44717D01*
X93993Y44574D01*
X93959Y44429D01*
X93939Y44282D01*
X93932Y44133D01*
X92932D01*
X92926Y44282D01*
X92905Y44429D01*
X92872Y44574D01*
X92825Y44717D01*
X92765Y44859D01*
X92691Y44998D01*
X92603Y45136D01*
X92503Y45272D01*
X92389Y45407D01*
X92261Y45539D01*
X94604D01*
X94476Y45407D01*
D02*
G37*
G36*
X157840Y92084D02*
X158336Y91753D01*
X158922Y91637D01*
X162478D01*
X165104Y89010D01*
X165110Y89002D01*
X165140Y88954D01*
X165167Y88900D01*
X165193Y88837D01*
X165215Y88765D01*
X165234Y88680D01*
X165248Y88584D01*
X165257Y88474D01*
X165260Y88349D01*
X165257Y88324D01*
X165348Y87626D01*
X165618Y86976D01*
X166046Y86418D01*
X166605Y85989D01*
X167255Y85720D01*
X167953Y85628D01*
X168651Y85720D01*
X169301Y85989D01*
X169859Y86418D01*
X170288Y86976D01*
X170334Y87086D01*
X170835Y87196D01*
X171152Y86916D01*
Y85480D01*
X171283Y84821D01*
X171656Y84262D01*
X175770Y80149D01*
X175814Y80088D01*
X175852Y80027D01*
X175881Y79971D01*
X175902Y79922D01*
X175916Y79877D01*
X175925Y79836D01*
X175930Y79796D01*
X175932Y79750D01*
X175929Y79729D01*
X176021Y79031D01*
X176291Y78380D01*
X176719Y77822D01*
X177277Y77393D01*
X177344Y77366D01*
X177409Y76870D01*
X177252Y76749D01*
X176824Y76191D01*
X176554Y75541D01*
X176462Y74843D01*
X176554Y74145D01*
X176824Y73495D01*
X177252Y72936D01*
X177811Y72508D01*
X178461Y72238D01*
X179159Y72146D01*
X179182Y72149D01*
X179271Y72147D01*
X179349Y72139D01*
X179419Y72127D01*
X179483Y72110D01*
X179544Y72088D01*
X179602Y72061D01*
X179659Y72029D01*
X179717Y71990D01*
X179721Y71987D01*
X181453Y70256D01*
Y44255D01*
X181126Y44097D01*
X180953Y44064D01*
X180434Y44461D01*
X179784Y44731D01*
X179086Y44823D01*
X178388Y44731D01*
X177738Y44461D01*
X177180Y44033D01*
X177165Y44014D01*
X177101Y43953D01*
X177040Y43904D01*
X176981Y43863D01*
X176924Y43830D01*
X176866Y43802D01*
X176806Y43780D01*
X176743Y43762D01*
X176674Y43749D01*
X176669Y43748D01*
X175904D01*
X163591Y56061D01*
Y60476D01*
X163467Y61097D01*
X163116Y61623D01*
X156857Y67882D01*
Y80531D01*
X156857Y80536D01*
X156871Y80605D01*
X156888Y80668D01*
X156911Y80728D01*
X156938Y80786D01*
X156972Y80843D01*
X157012Y80902D01*
X157062Y80962D01*
X157123Y81027D01*
X157141Y81041D01*
X157570Y81600D01*
X157839Y82250D01*
X157931Y82948D01*
X157839Y83646D01*
X157570Y84296D01*
X157141Y84855D01*
X156583Y85283D01*
X155933Y85552D01*
X155235Y85644D01*
X154537Y85552D01*
X153887Y85283D01*
X153328Y84855D01*
X152900Y84296D01*
X152630Y83646D01*
X152539Y82948D01*
X152630Y82250D01*
X152900Y81600D01*
X153328Y81041D01*
X153347Y81027D01*
X153408Y80963D01*
X153458Y80902D01*
X153498Y80843D01*
X153532Y80786D01*
X153559Y80728D01*
X153582Y80668D01*
X153599Y80605D01*
X153613Y80536D01*
X153613Y80531D01*
Y67210D01*
X153737Y66590D01*
X154088Y66063D01*
X160347Y59804D01*
Y55389D01*
X160471Y54769D01*
X160822Y54242D01*
X174085Y40980D01*
X174611Y40628D01*
X175232Y40505D01*
X176669D01*
X176674Y40504D01*
X176743Y40491D01*
X176806Y40473D01*
X176866Y40451D01*
X176924Y40423D01*
X176982Y40390D01*
X177040Y40349D01*
X177101Y40300D01*
X177165Y40238D01*
X177180Y40220D01*
X177738Y39791D01*
X178388Y39522D01*
X179086Y39430D01*
X179784Y39522D01*
X180434Y39791D01*
X180953Y40189D01*
X181126Y40155D01*
X181453Y39998D01*
Y23382D01*
X164614Y6543D01*
X154418D01*
X154347Y7014D01*
X154347Y7043D01*
Y14919D01*
X146824D01*
X146617Y15419D01*
X150333Y19136D01*
X150665Y19632D01*
X150781Y20217D01*
Y36379D01*
X151281Y36570D01*
X151868Y36327D01*
X152566Y36236D01*
X153263Y36327D01*
X153914Y36597D01*
X154472Y37025D01*
X154901Y37584D01*
X155170Y38234D01*
X155262Y38932D01*
X155170Y39630D01*
X154901Y40280D01*
X154472Y40838D01*
X153914Y41267D01*
X153263Y41536D01*
X152566Y41628D01*
X151868Y41536D01*
X151281Y41293D01*
X150781Y41484D01*
Y98460D01*
X150821Y98491D01*
X151281Y98643D01*
X157840Y92084D01*
D02*
G37*
G36*
X116131Y45045D02*
X116150Y44891D01*
X116181Y44744D01*
X116226Y44604D01*
X116283Y44471D01*
X116352Y44344D01*
X116435Y44225D01*
X116530Y44113D01*
X116638Y44008D01*
X116758Y43909D01*
X114436Y43598D01*
X114533Y43730D01*
X114619Y43864D01*
X114695Y44001D01*
X114761Y44140D01*
X114816Y44283D01*
X114862Y44428D01*
X114898Y44576D01*
X114923Y44726D01*
X114938Y44880D01*
X114943Y45036D01*
X116124Y45206D01*
X116131Y45045D01*
D02*
G37*
G36*
X45479Y43952D02*
X45365Y43818D01*
X45265Y43681D01*
X45177Y43544D01*
X45103Y43404D01*
X45043Y43262D01*
X44996Y43119D01*
X44962Y42974D01*
X44942Y42827D01*
X44936Y42679D01*
X43936D01*
X43929Y42827D01*
X43909Y42974D01*
X43875Y43119D01*
X43828Y43262D01*
X43768Y43404D01*
X43694Y43544D01*
X43607Y43681D01*
X43506Y43818D01*
X43392Y43952D01*
X43264Y44084D01*
X45607D01*
X45479Y43952D01*
D02*
G37*
G36*
X65650Y43949D02*
X65536Y43814D01*
X65436Y43678D01*
X65348Y43540D01*
X65275Y43400D01*
X65214Y43259D01*
X65167Y43116D01*
X65134Y42971D01*
X65113Y42824D01*
X65107Y42675D01*
X64107D01*
X64100Y42824D01*
X64080Y42971D01*
X64046Y43116D01*
X63999Y43259D01*
X63939Y43400D01*
X63865Y43540D01*
X63778Y43678D01*
X63677Y43814D01*
X63563Y43949D01*
X63436Y44081D01*
X65778D01*
X65650Y43949D01*
D02*
G37*
G36*
X54841Y42419D02*
X54655Y42415D01*
X54478Y42401D01*
X54309Y42376D01*
X54149Y42341D01*
X53997Y42295D01*
X53853Y42238D01*
X53719Y42170D01*
X53592Y42092D01*
X53474Y42003D01*
X53365Y41903D01*
X52669Y42599D01*
X52769Y42708D01*
X52858Y42826D01*
X52936Y42952D01*
X53004Y43087D01*
X53061Y43231D01*
X53107Y43382D01*
X53142Y43543D01*
X53167Y43712D01*
X53181Y43889D01*
X53185Y44075D01*
X54841Y42419D01*
D02*
G37*
G36*
X61196Y48861D02*
X59953Y47619D01*
X59602Y47093D01*
X59478Y46472D01*
Y43363D01*
X53886Y37770D01*
X53534Y37244D01*
X53411Y36624D01*
Y36385D01*
X53302Y36219D01*
X53276Y36201D01*
X53242Y36182D01*
X52883Y36339D01*
X52742Y36502D01*
Y39824D01*
X54162Y41244D01*
X54169Y41250D01*
X54217Y41279D01*
X54271Y41306D01*
X54334Y41331D01*
X54408Y41354D01*
X54494Y41373D01*
X54593Y41387D01*
X54705Y41396D01*
X54833Y41399D01*
X54858Y41396D01*
X55556Y41487D01*
X56206Y41757D01*
X56765Y42185D01*
X57193Y42744D01*
X57462Y43394D01*
X57554Y44092D01*
X57462Y44790D01*
X57193Y45440D01*
X56765Y45998D01*
X56206Y46427D01*
X55556Y46696D01*
X54858Y46788D01*
X54160Y46696D01*
X53510Y46427D01*
X52951Y45998D01*
X52523Y45440D01*
X52254Y44790D01*
X52162Y44092D01*
X52165Y44067D01*
X52162Y43939D01*
X52153Y43826D01*
X52139Y43727D01*
X52120Y43641D01*
X52097Y43568D01*
X52072Y43505D01*
X52045Y43451D01*
X52016Y43403D01*
X52010Y43396D01*
X50996Y42381D01*
X50534Y42573D01*
Y48415D01*
X50410Y49035D01*
X50059Y49562D01*
X48900Y50721D01*
X48440Y51028D01*
X48446Y51292D01*
X48523Y51528D01*
X58529D01*
X61196Y48861D01*
D02*
G37*
G36*
X38805Y41152D02*
X38689Y41262D01*
X38568Y41361D01*
X38443Y41448D01*
X38312Y41524D01*
X38177Y41587D01*
X38037Y41640D01*
X37893Y41680D01*
X37744Y41709D01*
X37590Y41727D01*
X37431Y41733D01*
Y42914D01*
X37590Y42919D01*
X37744Y42937D01*
X37893Y42966D01*
X38037Y43007D01*
X38177Y43059D01*
X38312Y43123D01*
X38443Y43198D01*
X38568Y43285D01*
X38689Y43384D01*
X38805Y43494D01*
Y41152D01*
D02*
G37*
G36*
X177891Y40955D02*
X177775Y41065D01*
X177654Y41164D01*
X177528Y41251D01*
X177398Y41327D01*
X177263Y41391D01*
X177123Y41443D01*
X176979Y41484D01*
X176829Y41513D01*
X176675Y41530D01*
X176517Y41536D01*
Y42717D01*
X176675Y42723D01*
X176829Y42740D01*
X176979Y42769D01*
X177123Y42810D01*
X177263Y42862D01*
X177398Y42926D01*
X177528Y43001D01*
X177654Y43088D01*
X177775Y43187D01*
X177891Y43298D01*
Y40955D01*
D02*
G37*
G36*
X226249Y40042D02*
X226143Y39929D01*
X226044Y39812D01*
X225954Y39689D01*
X225871Y39560D01*
X225796Y39427D01*
X225729Y39289D01*
X225670Y39145D01*
X225619Y38996D01*
X225575Y38842D01*
X225540Y38683D01*
X224253Y40641D01*
X224403Y40615D01*
X224550Y40605D01*
X224693Y40609D01*
X224833Y40629D01*
X224969Y40664D01*
X225102Y40714D01*
X225232Y40778D01*
X225358Y40858D01*
X225480Y40953D01*
X225599Y41063D01*
X226249Y40042D01*
D02*
G37*
G36*
X131192Y41749D02*
X131070Y41621D01*
X130864Y41372D01*
X130781Y41251D01*
X130711Y41132D01*
X130654Y41015D01*
X130609Y40900D01*
X130578Y40787D01*
X130560Y40677D01*
X130554Y40568D01*
X128898Y42225D01*
X129006Y42230D01*
X129117Y42248D01*
X129230Y42280D01*
X129344Y42324D01*
X129462Y42381D01*
X129581Y42452D01*
X129702Y42535D01*
X129825Y42631D01*
X129950Y42740D01*
X130078Y42862D01*
X131192Y41749D01*
D02*
G37*
G36*
X42906Y41046D02*
Y38453D01*
X36908Y32455D01*
X27754D01*
X27169Y32338D01*
X26673Y32007D01*
X26644Y32008D01*
X26365Y32399D01*
X26767Y32924D01*
X27037Y33574D01*
X27129Y34272D01*
X27126Y34295D01*
X27128Y34384D01*
X27136Y34462D01*
X27149Y34532D01*
X27166Y34596D01*
X27187Y34657D01*
X27214Y34715D01*
X27246Y34772D01*
X27285Y34830D01*
X27288Y34834D01*
X33155Y40701D01*
X37583D01*
X37589Y40701D01*
X37657Y40688D01*
X37720Y40670D01*
X37780Y40647D01*
X37838Y40620D01*
X37896Y40587D01*
X37955Y40546D01*
X38015Y40497D01*
X38080Y40435D01*
X38094Y40417D01*
X38652Y39988D01*
X39303Y39719D01*
X40001Y39627D01*
X40698Y39719D01*
X41349Y39988D01*
X41907Y40417D01*
X42336Y40975D01*
X42406Y41146D01*
X42906Y41046D01*
D02*
G37*
G36*
X194915Y57576D02*
X195565Y57306D01*
X196263Y57215D01*
X196961Y57306D01*
X197116Y57371D01*
X197617Y57037D01*
Y43159D01*
X193251Y38793D01*
X192789Y38984D01*
Y49080D01*
X192665Y49700D01*
X192314Y50227D01*
X191841Y50700D01*
Y53890D01*
X193939Y55988D01*
X194290Y56514D01*
X194414Y57135D01*
Y57395D01*
X194862Y57616D01*
X194915Y57576D01*
D02*
G37*
G36*
X91811Y58572D02*
Y49152D01*
X91810Y49146D01*
X91797Y49077D01*
X91779Y49014D01*
X91756Y48954D01*
X91729Y48897D01*
X91696Y48839D01*
X91655Y48780D01*
X91606Y48720D01*
X91544Y48655D01*
X91526Y48641D01*
X91097Y48082D01*
X90828Y47432D01*
X90736Y46734D01*
X90828Y46036D01*
X91097Y45386D01*
X91526Y44828D01*
X91545Y44813D01*
X91632Y44722D01*
X91703Y44638D01*
X91762Y44560D01*
X91808Y44487D01*
X91843Y44420D01*
X91870Y44358D01*
X91889Y44300D01*
X91902Y44244D01*
X91903Y44235D01*
Y42103D01*
X87809Y38009D01*
X78290D01*
X77705Y37893D01*
X77209Y37561D01*
X75134Y35486D01*
X74643Y35584D01*
X74561Y35783D01*
X74133Y36341D01*
X73829Y36574D01*
X73725Y37100D01*
X73373Y37627D01*
X72215Y38785D01*
Y46465D01*
X72217Y46479D01*
X72231Y46481D01*
X78395D01*
X79015Y46604D01*
X79541Y46956D01*
X91349Y58763D01*
X91811Y58572D01*
D02*
G37*
G36*
X55629Y36336D02*
X55646Y36182D01*
X55675Y36033D01*
X55716Y35888D01*
X55768Y35748D01*
X55832Y35613D01*
X55908Y35483D01*
X55995Y35357D01*
X56093Y35236D01*
X56204Y35120D01*
X53861D01*
X53972Y35236D01*
X54070Y35357D01*
X54157Y35483D01*
X54233Y35613D01*
X54297Y35748D01*
X54349Y35888D01*
X54390Y36033D01*
X54419Y36182D01*
X54436Y36336D01*
X54442Y36495D01*
X55623D01*
X55629Y36336D01*
D02*
G37*
G36*
X26667Y35671D02*
X26559Y35555D01*
X26462Y35434D01*
X26377Y35307D01*
X26304Y35177D01*
X26242Y35041D01*
X26191Y34900D01*
X26153Y34754D01*
X26125Y34604D01*
X26110Y34449D01*
X26105Y34288D01*
X24449Y35945D01*
X24609Y35949D01*
X24765Y35965D01*
X24915Y35992D01*
X25061Y36031D01*
X25201Y36081D01*
X25337Y36143D01*
X25468Y36217D01*
X25594Y36302D01*
X25715Y36398D01*
X25832Y36506D01*
X26667Y35671D01*
D02*
G37*
G36*
X209485Y32823D02*
X209300Y32634D01*
X208752Y31997D01*
X208664Y31868D01*
X208595Y31752D01*
X208546Y31647D01*
X208516Y31554D01*
X208506Y31473D01*
X206214Y33858D01*
X206299Y33865D01*
X206396Y33892D01*
X206504Y33939D01*
X206624Y34006D01*
X206755Y34092D01*
X206898Y34198D01*
X207218Y34470D01*
X207584Y34820D01*
X209485Y32823D01*
D02*
G37*
G36*
X89872Y32516D02*
X89750Y32388D01*
X89545Y32140D01*
X89461Y32019D01*
X89391Y31899D01*
X89334Y31782D01*
X89290Y31668D01*
X89258Y31555D01*
X89240Y31444D01*
X89235Y31336D01*
X87578Y32992D01*
X87687Y32998D01*
X87797Y33016D01*
X87910Y33047D01*
X88025Y33092D01*
X88142Y33149D01*
X88261Y33219D01*
X88382Y33302D01*
X88506Y33398D01*
X88631Y33507D01*
X88759Y33630D01*
X89872Y32516D01*
D02*
G37*
G36*
X63077Y41771D02*
Y32229D01*
X61209Y30361D01*
X54852D01*
X54266Y30244D01*
X53770Y29913D01*
X53661Y29803D01*
X53105Y29955D01*
X52744Y30497D01*
X52742Y30513D01*
Y31760D01*
X53242Y31929D01*
X53684Y31590D01*
X54335Y31321D01*
X55032Y31229D01*
X55730Y31321D01*
X56381Y31590D01*
X56939Y32019D01*
X57368Y32577D01*
X57637Y33227D01*
X57729Y33925D01*
X57637Y34623D01*
X57368Y35273D01*
X56939Y35832D01*
X57004Y36302D01*
X62247Y41544D01*
X62577Y42039D01*
X62614Y42044D01*
X63077Y41771D01*
D02*
G37*
G36*
X27397Y29862D02*
X27319Y29780D01*
X27185Y29619D01*
X27131Y29541D01*
X27084Y29463D01*
X27045Y29387D01*
X27014Y29312D01*
X26991Y29238D01*
X26976Y29165D01*
X26970Y29093D01*
X25955Y30220D01*
X26028Y30219D01*
X26102Y30228D01*
X26178Y30245D01*
X26254Y30271D01*
X26331Y30306D01*
X26409Y30349D01*
X26488Y30402D01*
X26568Y30463D01*
X26650Y30532D01*
X26732Y30610D01*
X27397Y29862D01*
D02*
G37*
G36*
X68969Y46479D02*
X68971Y46465D01*
Y38113D01*
X69095Y37492D01*
X69446Y36966D01*
X70212Y36201D01*
X69891Y35783D01*
X69622Y35132D01*
X69530Y34434D01*
X69622Y33737D01*
X69891Y33086D01*
X69610Y32631D01*
X69350Y32432D01*
X68922Y31873D01*
X68652Y31223D01*
X68560Y30525D01*
X68599Y30228D01*
X68119Y30048D01*
X67797Y30529D01*
X67108Y30990D01*
X66548Y31101D01*
X66149Y31574D01*
X66136Y31629D01*
Y42777D01*
X66137Y42786D01*
X66150Y42842D01*
X66169Y42899D01*
X66196Y42961D01*
X66231Y43029D01*
X66277Y43101D01*
X66336Y43180D01*
X66407Y43264D01*
X66494Y43354D01*
X66513Y43369D01*
X66942Y43928D01*
X67211Y44578D01*
X67303Y45276D01*
X67211Y45974D01*
X67173Y46065D01*
X67451Y46481D01*
X68955D01*
X68969Y46479D01*
D02*
G37*
G36*
X51715Y30529D02*
X51737Y30322D01*
X51755Y30228D01*
X51779Y30141D01*
X51808Y30060D01*
X51843Y29986D01*
X51883Y29918D01*
X51928Y29856D01*
X51978Y29801D01*
X50463D01*
X50513Y29856D01*
X50558Y29918D01*
X50598Y29986D01*
X50633Y30060D01*
X50662Y30141D01*
X50686Y30228D01*
X50704Y30322D01*
X50718Y30422D01*
X50726Y30529D01*
X50728Y30641D01*
X51713D01*
X51715Y30529D01*
D02*
G37*
G36*
X194510Y31144D02*
X194576Y30307D01*
X194606Y30153D01*
X194642Y30021D01*
X194683Y29912D01*
X194730Y29825D01*
X194782Y29760D01*
X191475D01*
X191528Y29825D01*
X191575Y29912D01*
X191616Y30021D01*
X191652Y30153D01*
X191682Y30307D01*
X191707Y30483D01*
X191740Y30901D01*
X191751Y31409D01*
X194507D01*
X194510Y31144D01*
D02*
G37*
G36*
X72265Y31879D02*
X72596Y31719D01*
X72756Y31654D01*
X73065Y31554D01*
X73214Y31519D01*
X73359Y31494D01*
X73501Y31479D01*
X73638Y31474D01*
X73933Y30474D01*
X73778Y30466D01*
X73630Y30444D01*
X73490Y30406D01*
X73358Y30353D01*
X73233Y30285D01*
X73116Y30202D01*
X73006Y30103D01*
X72904Y29990D01*
X72809Y29861D01*
X72722Y29717D01*
X72093Y31974D01*
X72265Y31879D01*
D02*
G37*
G36*
X146276Y30748D02*
X146310Y30699D01*
X146365Y30629D01*
X146622Y30346D01*
X146688Y30296D01*
X146768Y30244D01*
X146847Y30200D01*
X146925Y30165D01*
X147002Y30138D01*
X147079Y30120D01*
X147155Y30110D01*
X147230Y30109D01*
X147045Y29912D01*
X147374Y29575D01*
X146678Y28879D01*
X146356Y29177D01*
X146193Y29003D01*
X146188Y29078D01*
X146174Y29153D01*
X146152Y29228D01*
X146122Y29305D01*
X146084Y29383D01*
X146039Y29461D01*
X146022Y29485D01*
X145477Y29988D01*
X146265Y30776D01*
X146276Y30748D01*
D02*
G37*
G36*
X202455Y29819D02*
X202521Y28982D01*
X202552Y28828D01*
X202588Y28697D01*
X202629Y28587D01*
X202676Y28500D01*
X202728Y28435D01*
X199421D01*
X199473Y28500D01*
X199520Y28587D01*
X199562Y28697D01*
X199597Y28828D01*
X199628Y28982D01*
X199653Y29158D01*
X199686Y29577D01*
X199697Y30084D01*
X202452D01*
X202455Y29819D01*
D02*
G37*
G36*
X38657Y28311D02*
X38601Y28362D01*
X38540Y28407D01*
X38472Y28447D01*
X38397Y28482D01*
X38316Y28511D01*
X38229Y28535D01*
X38135Y28553D01*
X38035Y28567D01*
X37929Y28575D01*
X37816Y28577D01*
Y29561D01*
X37929Y29564D01*
X38135Y29585D01*
X38229Y29604D01*
X38316Y29628D01*
X38397Y29657D01*
X38472Y29692D01*
X38540Y29732D01*
X38601Y29777D01*
X38657Y29827D01*
Y28311D01*
D02*
G37*
G36*
X40137Y28241D02*
X40092Y28179D01*
X40052Y28111D01*
X40018Y28037D01*
X39988Y27956D01*
X39965Y27868D01*
X39946Y27775D01*
X39933Y27675D01*
X39925Y27568D01*
X39922Y27455D01*
X38938D01*
X38935Y27568D01*
X38914Y27775D01*
X38895Y27868D01*
X38871Y27956D01*
X38842Y28037D01*
X38808Y28111D01*
X38768Y28179D01*
X38723Y28241D01*
X38672Y28296D01*
X40188D01*
X40137Y28241D01*
D02*
G37*
G36*
X188110Y24988D02*
X188127Y24834D01*
X188156Y24684D01*
X188197Y24540D01*
X188249Y24400D01*
X188313Y24265D01*
X188388Y24135D01*
X188475Y24009D01*
X188574Y23888D01*
X188684Y23772D01*
X186342D01*
X186452Y23888D01*
X186551Y24009D01*
X186638Y24135D01*
X186714Y24265D01*
X186777Y24400D01*
X186830Y24540D01*
X186870Y24684D01*
X186899Y24834D01*
X186917Y24988D01*
X186923Y25146D01*
X188104D01*
X188110Y24988D01*
D02*
G37*
G36*
X213403Y24136D02*
X213216Y24129D01*
X213031Y24104D01*
X212847Y24063D01*
X212665Y24003D01*
X212484Y23927D01*
X212305Y23833D01*
X212127Y23721D01*
X211951Y23592D01*
X211776Y23445D01*
X211602Y23281D01*
X210210Y24673D01*
X210374Y24847D01*
X210521Y25022D01*
X210650Y25198D01*
X210762Y25376D01*
X210856Y25555D01*
X210932Y25736D01*
X210992Y25918D01*
X211034Y26102D01*
X211058Y26287D01*
X211065Y26474D01*
X213403Y24136D01*
D02*
G37*
G36*
X48934Y24352D02*
X48825Y24232D01*
X48736Y24114D01*
X48669Y23996D01*
X48623Y23879D01*
X48597Y23763D01*
X48593Y23648D01*
X48610Y23533D01*
X48648Y23420D01*
X48707Y23307D01*
X48787Y23195D01*
X46597Y23554D01*
X46673Y23606D01*
X46763Y23675D01*
X47125Y23989D01*
X48033Y24865D01*
X48934Y24352D01*
D02*
G37*
G36*
X37909Y16722D02*
X34737Y13550D01*
X34407Y13057D01*
X34388Y12961D01*
X33868Y12910D01*
X33847Y12960D01*
X33214Y13786D01*
X32388Y14419D01*
X31427Y14818D01*
X30395Y14954D01*
X29363Y14818D01*
X28401Y14419D01*
X28392Y14413D01*
X27859Y14634D01*
X27841Y14773D01*
X27571Y15424D01*
X27143Y15982D01*
X27123Y15997D01*
X27034Y16090D01*
X26961Y16175D01*
X26901Y16256D01*
X26854Y16330D01*
X26818Y16398D01*
X26791Y16461D01*
X26772Y16518D01*
X26759Y16572D01*
X26758Y16581D01*
Y20039D01*
X28466Y21747D01*
X28939Y21514D01*
X28883Y21090D01*
X28975Y20392D01*
X29245Y19742D01*
X29673Y19184D01*
X30232Y18755D01*
X30882Y18486D01*
X31580Y18394D01*
X32278Y18486D01*
X32928Y18755D01*
X33486Y19184D01*
X33915Y19742D01*
X34184Y20392D01*
X34276Y21090D01*
X34184Y21788D01*
X33915Y22438D01*
X33486Y22997D01*
X32928Y23425D01*
X32278Y23695D01*
X31580Y23786D01*
X31156Y23731D01*
X30923Y24204D01*
X34266Y27548D01*
X37909D01*
Y16722D01*
D02*
G37*
G36*
X25735Y16531D02*
X25756Y16385D01*
X25789Y16240D01*
X25837Y16097D01*
X25898Y15955D01*
X25973Y15815D01*
X26061Y15677D01*
X26163Y15540D01*
X26278Y15404D01*
X26408Y15270D01*
X24065D01*
X24194Y15404D01*
X24309Y15540D01*
X24411Y15677D01*
X24500Y15815D01*
X24574Y15955D01*
X24635Y16097D01*
X24683Y16240D01*
X24717Y16385D01*
X24737Y16531D01*
X24744Y16679D01*
X25728D01*
X25735Y16531D01*
D02*
G37*
G36*
X47291Y43880D02*
Y29840D01*
X43232Y25781D01*
X42880Y25255D01*
X42757Y24634D01*
Y14704D01*
X42257Y14474D01*
X41427Y14818D01*
X41011Y14872D01*
X40768Y15409D01*
X40835Y15510D01*
X40951Y16092D01*
Y27597D01*
X41392Y28257D01*
X41553Y29069D01*
X41392Y29882D01*
X40931Y30571D01*
X40407Y30921D01*
X40275Y31496D01*
X45517Y36738D01*
X45849Y37234D01*
X45965Y37820D01*
Y42780D01*
X45966Y42790D01*
X45979Y42845D01*
X45998Y42903D01*
X46025Y42965D01*
X46060Y43032D01*
X46106Y43105D01*
X46164Y43184D01*
X46236Y43268D01*
X46323Y43358D01*
X46342Y43373D01*
X46771Y43931D01*
X46791Y43979D01*
X47291Y43880D01*
D02*
G37*
G36*
X55107Y14749D02*
X55120Y14619D01*
X55146Y14490D01*
X55185Y14361D01*
X55237Y14234D01*
X55302Y14107D01*
X55379Y13981D01*
X55470Y13856D01*
X55574Y13732D01*
X55690Y13608D01*
X54881Y12748D01*
X54757Y12864D01*
X54632Y12967D01*
X54507Y13057D01*
X54381Y13132D01*
X54254Y13194D01*
X54127Y13242D01*
X53999Y13276D01*
X53870Y13297D01*
X53741Y13303D01*
X53611Y13296D01*
X55107Y14880D01*
X55107Y14749D01*
D02*
G37*
G36*
X143886Y14144D02*
X143741Y13976D01*
X143616Y13782D01*
X143511Y13561D01*
X143426Y13314D01*
X143360Y13040D01*
X143315Y12739D01*
X143289Y12413D01*
X143283Y12060D01*
X143297Y11680D01*
X143331Y11274D01*
X140146Y13909D01*
X140587Y13952D01*
X141717Y14141D01*
X142029Y14224D01*
X142309Y14317D01*
X142558Y14419D01*
X142774Y14530D01*
X142959Y14652D01*
X143111Y14784D01*
X143886Y14144D01*
D02*
G37*
G36*
X36311Y6392D02*
X36332Y6246D01*
X36366Y6101D01*
X36413Y5958D01*
X36474Y5817D01*
X36549Y5677D01*
X36637Y5538D01*
X36739Y5401D01*
X36855Y5266D01*
X36984Y5132D01*
X34641D01*
X34770Y5266D01*
X34886Y5401D01*
X34988Y5538D01*
X35076Y5677D01*
X35151Y5817D01*
X35212Y5958D01*
X35259Y6101D01*
X35293Y6246D01*
X35313Y6392D01*
X35320Y6540D01*
X36305D01*
X36311Y6392D01*
D02*
G37*
G36*
X239821Y11781D02*
X239749Y11417D01*
Y2023D01*
X230009D01*
X229818Y2485D01*
X239360Y12027D01*
X239821Y11781D01*
D02*
G37*
G36*
X38401Y7514D02*
X39363Y7116D01*
X40395Y6980D01*
X41427Y7116D01*
X42334Y7491D01*
X42528Y7479D01*
X42799Y7377D01*
X42900Y7277D01*
X43232Y6781D01*
X47527Y2485D01*
X47336Y2023D01*
X38344D01*
X38097Y2523D01*
X38148Y2589D01*
X38417Y3239D01*
X38509Y3937D01*
X38417Y4635D01*
X38148Y5285D01*
X37719Y5844D01*
X37699Y5859D01*
X37610Y5951D01*
X37537Y6037D01*
X37477Y6117D01*
X37430Y6191D01*
X37394Y6260D01*
X37367Y6322D01*
X37348Y6379D01*
X37335Y6434D01*
X37334Y6443D01*
Y7703D01*
X37834Y7949D01*
X38401Y7514D01*
D02*
G37*
%LPC*%
G36*
X190347Y204919D02*
X182442D01*
Y197014D01*
X190347D01*
Y204919D01*
D02*
G37*
G36*
X84347D02*
X76442D01*
Y197014D01*
X84347D01*
Y204919D01*
D02*
G37*
G36*
X176395Y204954D02*
X175363Y204818D01*
X174401Y204419D01*
X173575Y203786D01*
X172942Y202960D01*
X172544Y201998D01*
X172408Y200967D01*
X172544Y199935D01*
X172942Y198973D01*
X173575Y198147D01*
X174401Y197514D01*
X175363Y197116D01*
X176395Y196980D01*
X177427Y197116D01*
X178388Y197514D01*
X179214Y198147D01*
X179847Y198973D01*
X180246Y199935D01*
X180382Y200967D01*
X180246Y201998D01*
X179847Y202960D01*
X179214Y203786D01*
X178388Y204419D01*
X177427Y204818D01*
X176395Y204954D01*
D02*
G37*
G36*
X166395D02*
X165363Y204818D01*
X164401Y204419D01*
X163575Y203786D01*
X162942Y202960D01*
X162544Y201998D01*
X162408Y200967D01*
X162419Y200884D01*
X162417Y200850D01*
X162403Y200762D01*
X162375Y200660D01*
X162330Y200543D01*
X162266Y200411D01*
X162181Y200265D01*
X162080Y200117D01*
X161911Y199912D01*
X145834Y183835D01*
X144668D01*
X144488Y183850D01*
X144393Y183863D01*
X144330Y183875D01*
X144058Y184084D01*
X143240Y184422D01*
X142362Y184538D01*
X141485Y184422D01*
X140667Y184084D01*
X139964Y183545D01*
X139425Y182842D01*
X139087Y182024D01*
X138971Y181147D01*
X139087Y180269D01*
X139425Y179451D01*
X139964Y178749D01*
X140667Y178210D01*
X141485Y177871D01*
X142362Y177755D01*
X143240Y177871D01*
X144058Y178210D01*
X144760Y178749D01*
X144899Y178930D01*
X144976Y178949D01*
X145069Y178965D01*
X145335Y178986D01*
X146838D01*
X147766Y179170D01*
X148553Y179696D01*
X165387Y196531D01*
X165534Y196644D01*
X165693Y196753D01*
X165839Y196838D01*
X165971Y196902D01*
X166088Y196947D01*
X166190Y196975D01*
X166278Y196989D01*
X166312Y196991D01*
X166395Y196980D01*
X167427Y197116D01*
X168388Y197514D01*
X169214Y198147D01*
X169847Y198973D01*
X170246Y199935D01*
X170381Y200967D01*
X170246Y201998D01*
X169847Y202960D01*
X169214Y203786D01*
X168388Y204419D01*
X167427Y204818D01*
X166395Y204954D01*
D02*
G37*
G36*
X146395D02*
X145363Y204818D01*
X144401Y204419D01*
X143576Y203786D01*
X142942Y202960D01*
X142544Y201998D01*
X142408Y200967D01*
X142544Y199935D01*
X142942Y198973D01*
X143576Y198147D01*
X144401Y197514D01*
X145363Y197116D01*
X146395Y196980D01*
X147426Y197116D01*
X148388Y197514D01*
X149214Y198147D01*
X149847Y198973D01*
X150246Y199935D01*
X150382Y200967D01*
X150246Y201998D01*
X149847Y202960D01*
X149214Y203786D01*
X148388Y204419D01*
X147426Y204818D01*
X146395Y204954D01*
D02*
G37*
G36*
X136395D02*
X135363Y204818D01*
X134401Y204419D01*
X133575Y203786D01*
X132942Y202960D01*
X132544Y201998D01*
X132408Y200967D01*
X132544Y199935D01*
X132942Y198973D01*
X133575Y198147D01*
X134401Y197514D01*
X135363Y197116D01*
X136395Y196980D01*
X137426Y197116D01*
X138388Y197514D01*
X139214Y198147D01*
X139847Y198973D01*
X140246Y199935D01*
X140382Y200967D01*
X140246Y201998D01*
X139847Y202960D01*
X139214Y203786D01*
X138388Y204419D01*
X137426Y204818D01*
X136395Y204954D01*
D02*
G37*
G36*
X126395D02*
X125363Y204818D01*
X124401Y204419D01*
X123575Y203786D01*
X122942Y202960D01*
X122544Y201998D01*
X122408Y200967D01*
X122544Y199935D01*
X122942Y198973D01*
X123575Y198147D01*
X124401Y197514D01*
X125363Y197116D01*
X126395Y196980D01*
X127427Y197116D01*
X128388Y197514D01*
X129214Y198147D01*
X129847Y198973D01*
X130246Y199935D01*
X130382Y200967D01*
X130246Y201998D01*
X129847Y202960D01*
X129214Y203786D01*
X128388Y204419D01*
X127427Y204818D01*
X126395Y204954D01*
D02*
G37*
G36*
X116395D02*
X115363Y204818D01*
X114401Y204419D01*
X113575Y203786D01*
X112942Y202960D01*
X112544Y201998D01*
X112408Y200967D01*
X112544Y199935D01*
X112942Y198973D01*
X113575Y198147D01*
X114401Y197514D01*
X115363Y197116D01*
X116395Y196980D01*
X117427Y197116D01*
X118388Y197514D01*
X119214Y198147D01*
X119847Y198973D01*
X120246Y199935D01*
X120381Y200967D01*
X120246Y201998D01*
X119847Y202960D01*
X119214Y203786D01*
X118388Y204419D01*
X117427Y204818D01*
X116395Y204954D01*
D02*
G37*
G36*
X106395D02*
X105363Y204818D01*
X104401Y204419D01*
X103576Y203786D01*
X102942Y202960D01*
X102544Y201998D01*
X102408Y200967D01*
X102544Y199935D01*
X102942Y198973D01*
X103576Y198147D01*
X104401Y197514D01*
X105363Y197116D01*
X106395Y196980D01*
X107427Y197116D01*
X108388Y197514D01*
X109214Y198147D01*
X109847Y198973D01*
X110246Y199935D01*
X110381Y200967D01*
X110246Y201998D01*
X109847Y202960D01*
X109214Y203786D01*
X108388Y204419D01*
X107427Y204818D01*
X106395Y204954D01*
D02*
G37*
G36*
X96395D02*
X95363Y204818D01*
X94401Y204419D01*
X93576Y203786D01*
X92942Y202960D01*
X92544Y201998D01*
X92408Y200967D01*
X92544Y199935D01*
X92942Y198973D01*
X93576Y198147D01*
X94401Y197514D01*
X95363Y197116D01*
X96395Y196980D01*
X97426Y197116D01*
X98388Y197514D01*
X99214Y198147D01*
X99847Y198973D01*
X100246Y199935D01*
X100382Y200967D01*
X100246Y201998D01*
X99847Y202960D01*
X99214Y203786D01*
X98388Y204419D01*
X97426Y204818D01*
X96395Y204954D01*
D02*
G37*
G36*
X70395D02*
X69363Y204818D01*
X68401Y204419D01*
X67576Y203786D01*
X66942Y202960D01*
X66544Y201998D01*
X66408Y200967D01*
X66544Y199935D01*
X66942Y198973D01*
X67576Y198147D01*
X68401Y197514D01*
X69363Y197116D01*
X70395Y196980D01*
X71426Y197116D01*
X72388Y197514D01*
X73214Y198147D01*
X73847Y198973D01*
X74246Y199935D01*
X74382Y200967D01*
X74246Y201998D01*
X73847Y202960D01*
X73214Y203786D01*
X72388Y204419D01*
X71426Y204818D01*
X70395Y204954D01*
D02*
G37*
G36*
X60395D02*
X59363Y204818D01*
X58401Y204419D01*
X57576Y203786D01*
X56942Y202960D01*
X56544Y201998D01*
X56408Y200967D01*
X56544Y199935D01*
X56942Y198973D01*
X57576Y198147D01*
X58401Y197514D01*
X59363Y197116D01*
X60395Y196980D01*
X61427Y197116D01*
X62388Y197514D01*
X63214Y198147D01*
X63847Y198973D01*
X64246Y199935D01*
X64381Y200967D01*
X64246Y201998D01*
X63847Y202960D01*
X63214Y203786D01*
X62388Y204419D01*
X61427Y204818D01*
X60395Y204954D01*
D02*
G37*
G36*
X50395D02*
X49363Y204818D01*
X48401Y204419D01*
X47576Y203786D01*
X46942Y202960D01*
X46544Y201998D01*
X46408Y200967D01*
X46544Y199935D01*
X46942Y198973D01*
X47576Y198147D01*
X48401Y197514D01*
X49363Y197116D01*
X50395Y196980D01*
X51427Y197116D01*
X52388Y197514D01*
X53214Y198147D01*
X53847Y198973D01*
X54246Y199935D01*
X54382Y200967D01*
X54246Y201998D01*
X53847Y202960D01*
X53214Y203786D01*
X52388Y204419D01*
X51427Y204818D01*
X50395Y204954D01*
D02*
G37*
G36*
X40395D02*
X39363Y204818D01*
X38401Y204419D01*
X37576Y203786D01*
X36942Y202960D01*
X36544Y201998D01*
X36408Y200967D01*
X36544Y199935D01*
X36942Y198973D01*
X37576Y198147D01*
X38401Y197514D01*
X39363Y197116D01*
X40395Y196980D01*
X41427Y197116D01*
X42388Y197514D01*
X43214Y198147D01*
X43847Y198973D01*
X44246Y199935D01*
X44381Y200967D01*
X44246Y201998D01*
X43847Y202960D01*
X43214Y203786D01*
X42388Y204419D01*
X41427Y204818D01*
X40395Y204954D01*
D02*
G37*
G36*
X30395D02*
X29363Y204818D01*
X28401Y204419D01*
X27575Y203786D01*
X26942Y202960D01*
X26544Y201998D01*
X26408Y200967D01*
X26544Y199935D01*
X26942Y198973D01*
X27575Y198147D01*
X28401Y197514D01*
X29363Y197116D01*
X30395Y196980D01*
X31427Y197116D01*
X32388Y197514D01*
X33214Y198147D01*
X33847Y198973D01*
X34246Y199935D01*
X34381Y200967D01*
X34246Y201998D01*
X33847Y202960D01*
X33214Y203786D01*
X32388Y204419D01*
X31427Y204818D01*
X30395Y204954D01*
D02*
G37*
G36*
X20395D02*
X19363Y204818D01*
X18401Y204419D01*
X17575Y203786D01*
X16942Y202960D01*
X16544Y201998D01*
X16408Y200967D01*
X16544Y199935D01*
X16942Y198973D01*
X17575Y198147D01*
X18401Y197514D01*
X19363Y197116D01*
X20395Y196980D01*
X21427Y197116D01*
X22388Y197514D01*
X23214Y198147D01*
X23847Y198973D01*
X24246Y199935D01*
X24382Y200967D01*
X24246Y201998D01*
X23847Y202960D01*
X23214Y203786D01*
X22388Y204419D01*
X21427Y204818D01*
X20395Y204954D01*
D02*
G37*
G36*
X10395D02*
X9363Y204818D01*
X8401Y204419D01*
X7576Y203786D01*
X6942Y202960D01*
X6544Y201998D01*
X6408Y200967D01*
X6544Y199935D01*
X6942Y198973D01*
X7576Y198147D01*
X8401Y197514D01*
X9363Y197116D01*
X10395Y196980D01*
X11427Y197116D01*
X12388Y197514D01*
X13214Y198147D01*
X13847Y198973D01*
X14246Y199935D01*
X14381Y200967D01*
X14246Y201998D01*
X13847Y202960D01*
X13214Y203786D01*
X12388Y204419D01*
X11427Y204818D01*
X10395Y204954D01*
D02*
G37*
G36*
X200591Y208476D02*
X199161Y208335D01*
X197785Y207918D01*
X196517Y207240D01*
X195405Y206328D01*
X194493Y205217D01*
X193815Y203949D01*
X193398Y202573D01*
X193257Y201142D01*
X193398Y199711D01*
X193815Y198335D01*
X194493Y197067D01*
X195405Y195956D01*
X196517Y195043D01*
X197785Y194366D01*
X199161Y193948D01*
X200591Y193807D01*
X202022Y193948D01*
X203398Y194366D01*
X204666Y195043D01*
X205778Y195956D01*
X206690Y197067D01*
X207368Y198335D01*
X207785Y199711D01*
X207926Y201142D01*
X207785Y202573D01*
X207368Y203949D01*
X206690Y205217D01*
X205778Y206328D01*
X204666Y207240D01*
X203398Y207918D01*
X202022Y208335D01*
X200591Y208476D01*
D02*
G37*
G36*
X232915Y202455D02*
X231780Y202305D01*
X230723Y201868D01*
X229815Y201171D01*
X229118Y200263D01*
X228680Y199206D01*
X228531Y198071D01*
X228680Y196936D01*
X229118Y195879D01*
X229815Y194971D01*
X230723Y194274D01*
X231780Y193836D01*
X232915Y193687D01*
X234050Y193836D01*
X235107Y194274D01*
X236015Y194971D01*
X236712Y195879D01*
X237150Y196936D01*
X237299Y198071D01*
X237150Y199206D01*
X236712Y200263D01*
X236015Y201171D01*
X235107Y201868D01*
X234050Y202305D01*
X232915Y202455D01*
D02*
G37*
G36*
X39805Y179406D02*
X39107Y179314D01*
X38457Y179045D01*
X37898Y178617D01*
X37470Y178058D01*
X37200Y177408D01*
X37108Y176710D01*
X37200Y176012D01*
X37470Y175362D01*
X37898Y174803D01*
X38457Y174375D01*
X39107Y174106D01*
X39805Y174014D01*
X40503Y174106D01*
X41153Y174375D01*
X41711Y174803D01*
X42140Y175362D01*
X42409Y176012D01*
X42501Y176710D01*
X42409Y177408D01*
X42140Y178058D01*
X41711Y178617D01*
X41153Y179045D01*
X40503Y179314D01*
X39805Y179406D01*
D02*
G37*
G36*
X43631Y174783D02*
X42933Y174691D01*
X42283Y174422D01*
X41725Y173993D01*
X41296Y173435D01*
X41027Y172784D01*
X40935Y172086D01*
X41027Y171389D01*
X41296Y170738D01*
X41725Y170180D01*
X42283Y169751D01*
X42933Y169482D01*
X43631Y169390D01*
X44329Y169482D01*
X44979Y169751D01*
X45538Y170180D01*
X45966Y170738D01*
X46235Y171389D01*
X46327Y172086D01*
X46235Y172784D01*
X45966Y173435D01*
X45538Y173993D01*
X44979Y174422D01*
X44329Y174691D01*
X43631Y174783D01*
D02*
G37*
G36*
X67248Y174596D02*
X66550Y174504D01*
X65900Y174234D01*
X65342Y173806D01*
X64913Y173248D01*
X64644Y172597D01*
X64552Y171899D01*
X64644Y171202D01*
X64913Y170551D01*
X65342Y169993D01*
X65900Y169564D01*
X66550Y169295D01*
X67248Y169203D01*
X67946Y169295D01*
X68596Y169564D01*
X69155Y169993D01*
X69583Y170551D01*
X69853Y171202D01*
X69945Y171899D01*
X69853Y172597D01*
X69583Y173248D01*
X69155Y173806D01*
X68596Y174234D01*
X67946Y174504D01*
X67248Y174596D01*
D02*
G37*
G36*
X60358Y166073D02*
X59660Y165981D01*
X59010Y165712D01*
X58451Y165284D01*
X58023Y164725D01*
X57753Y164075D01*
X57661Y163377D01*
X57664Y163358D01*
X46098Y151792D01*
X45555Y151721D01*
X44905Y151451D01*
X44346Y151023D01*
X43918Y150464D01*
X43649Y149814D01*
X43557Y149116D01*
X43649Y148418D01*
X43918Y147768D01*
X44346Y147210D01*
X44905Y146781D01*
X45555Y146512D01*
X46253Y146420D01*
X46951Y146512D01*
X47601Y146781D01*
X48160Y147210D01*
X48588Y147768D01*
X48858Y148418D01*
X48949Y149116D01*
X48858Y149814D01*
X48737Y150105D01*
X59479Y160847D01*
X59660Y160773D01*
X60358Y160681D01*
X61056Y160773D01*
X61706Y161042D01*
X62264Y161470D01*
X62693Y162029D01*
X62962Y162679D01*
X63054Y163377D01*
X62962Y164075D01*
X62693Y164725D01*
X62264Y165284D01*
X61706Y165712D01*
X61056Y165981D01*
X60358Y166073D01*
D02*
G37*
G36*
X108185Y161604D02*
X107487Y161512D01*
X106837Y161243D01*
X106278Y160815D01*
X105850Y160256D01*
X105580Y159606D01*
X105488Y158908D01*
X105580Y158210D01*
X105850Y157560D01*
X106278Y157001D01*
X106837Y156573D01*
X107487Y156304D01*
X108185Y156212D01*
X108883Y156304D01*
X109533Y156573D01*
X110091Y157001D01*
X110520Y157560D01*
X110789Y158210D01*
X110881Y158908D01*
X110789Y159606D01*
X110520Y160256D01*
X110091Y160815D01*
X109533Y161243D01*
X108883Y161512D01*
X108185Y161604D01*
D02*
G37*
G36*
X115469Y161050D02*
X114771Y160958D01*
X114121Y160689D01*
X113563Y160260D01*
X113134Y159702D01*
X112865Y159051D01*
X112773Y158354D01*
X112865Y157656D01*
X113134Y157005D01*
X113563Y156447D01*
X114121Y156018D01*
X114771Y155749D01*
X115469Y155657D01*
X116167Y155749D01*
X116817Y156018D01*
X117376Y156447D01*
X117804Y157005D01*
X118074Y157656D01*
X118166Y158354D01*
X118074Y159051D01*
X117804Y159702D01*
X117376Y160260D01*
X116817Y160689D01*
X116167Y160958D01*
X115469Y161050D01*
D02*
G37*
G36*
X162047Y160005D02*
X161349Y159913D01*
X160699Y159644D01*
X160141Y159215D01*
X159712Y158657D01*
X159443Y158007D01*
X159351Y157309D01*
X159443Y156611D01*
X159712Y155961D01*
X160141Y155402D01*
X160699Y154974D01*
X161349Y154704D01*
X162047Y154613D01*
X162745Y154704D01*
X163396Y154974D01*
X163954Y155402D01*
X164382Y155961D01*
X164652Y156611D01*
X164744Y157309D01*
X164652Y158007D01*
X164382Y158657D01*
X163954Y159215D01*
X163396Y159644D01*
X162745Y159913D01*
X162047Y160005D01*
D02*
G37*
G36*
X131742Y149961D02*
X131044Y149869D01*
X130394Y149599D01*
X129835Y149171D01*
X129407Y148612D01*
X129137Y147962D01*
X129045Y147264D01*
X129137Y146566D01*
X129407Y145916D01*
X129835Y145358D01*
X130394Y144929D01*
X131044Y144660D01*
X131742Y144568D01*
X132439Y144660D01*
X133090Y144929D01*
X133648Y145358D01*
X134077Y145916D01*
X134346Y146566D01*
X134438Y147264D01*
X134346Y147962D01*
X134077Y148612D01*
X133648Y149171D01*
X133090Y149599D01*
X132439Y149869D01*
X131742Y149961D01*
D02*
G37*
G36*
X62603Y142385D02*
X61905Y142294D01*
X61255Y142024D01*
X60696Y141596D01*
X60268Y141037D01*
X59998Y140387D01*
X59907Y139689D01*
X59998Y138991D01*
X60268Y138341D01*
X60696Y137783D01*
X61255Y137354D01*
X61905Y137085D01*
X62603Y136993D01*
X63301Y137085D01*
X63951Y137354D01*
X64509Y137783D01*
X64938Y138341D01*
X65207Y138991D01*
X65299Y139689D01*
X65207Y140387D01*
X64938Y141037D01*
X64509Y141596D01*
X63951Y142024D01*
X63301Y142294D01*
X62603Y142385D01*
D02*
G37*
G36*
X142362Y141662D02*
X141485Y141547D01*
X140667Y141208D01*
X139964Y140669D01*
X139425Y139967D01*
X139087Y139149D01*
X138971Y138271D01*
X139087Y137393D01*
X139425Y136575D01*
X139964Y135873D01*
X140667Y135334D01*
X141485Y134995D01*
X142362Y134880D01*
X143240Y134995D01*
X144058Y135334D01*
X144760Y135873D01*
X145299Y136575D01*
X145638Y137393D01*
X145754Y138271D01*
X145638Y139149D01*
X145299Y139967D01*
X144760Y140669D01*
X144058Y141208D01*
X143240Y141547D01*
X142362Y141662D01*
D02*
G37*
G36*
X592Y148476D02*
X-840Y148335D01*
X-2215Y147918D01*
X-3483Y147240D01*
X-4595Y146328D01*
X-5507Y145217D01*
X-6185Y143949D01*
X-6602Y142573D01*
X-6743Y141142D01*
X-6602Y139711D01*
X-6185Y138335D01*
X-5507Y137067D01*
X-4595Y135956D01*
X-3483Y135043D01*
X-2215Y134366D01*
X-840Y133948D01*
X592Y133807D01*
X2022Y133948D01*
X3398Y134366D01*
X4666Y135043D01*
X5778Y135956D01*
X6690Y137067D01*
X7368Y138335D01*
X7785Y139711D01*
X7926Y141142D01*
X7785Y142573D01*
X7368Y143949D01*
X6690Y145217D01*
X5778Y146328D01*
X4666Y147240D01*
X3398Y147918D01*
X2022Y148335D01*
X592Y148476D01*
D02*
G37*
G36*
X65493Y135090D02*
X64795Y134998D01*
X64145Y134729D01*
X63586Y134300D01*
X63158Y133742D01*
X62889Y133092D01*
X62797Y132394D01*
X62889Y131696D01*
X63158Y131046D01*
X63586Y130487D01*
X64145Y130059D01*
X64795Y129789D01*
X65493Y129698D01*
X66191Y129789D01*
X66841Y130059D01*
X67400Y130487D01*
X67828Y131046D01*
X68097Y131696D01*
X68189Y132394D01*
X68097Y133092D01*
X67828Y133742D01*
X67400Y134300D01*
X66841Y134729D01*
X66191Y134998D01*
X65493Y135090D01*
D02*
G37*
G36*
X154173Y132617D02*
X153475Y132526D01*
X152825Y132256D01*
X152267Y131828D01*
X151838Y131269D01*
X151569Y130619D01*
X151477Y129921D01*
X151569Y129223D01*
X151838Y128573D01*
X152267Y128015D01*
X152825Y127586D01*
X153475Y127317D01*
X154173Y127225D01*
X154871Y127317D01*
X155522Y127586D01*
X156080Y128015D01*
X156508Y128573D01*
X156778Y129223D01*
X156870Y129921D01*
X156778Y130619D01*
X156508Y131269D01*
X156080Y131828D01*
X155522Y132256D01*
X154871Y132526D01*
X154173Y132617D01*
D02*
G37*
G36*
X8893Y131110D02*
X8015Y130994D01*
X7197Y130655D01*
X6495Y130116D01*
X5956Y129414D01*
X5617Y128596D01*
X5501Y127718D01*
X5617Y126841D01*
X5956Y126023D01*
X6418Y125420D01*
X6422Y125405D01*
X6434Y125345D01*
X6468Y124914D01*
Y121004D01*
X6052Y120727D01*
X5835Y120817D01*
X5137Y120908D01*
X4439Y120817D01*
X3789Y120547D01*
X3231Y120119D01*
X2802Y119560D01*
X2533Y118910D01*
X2441Y118212D01*
X2533Y117514D01*
X2802Y116864D01*
X3231Y116306D01*
X3250Y116290D01*
X3339Y116198D01*
X3413Y116112D01*
X3472Y116032D01*
X3520Y115958D01*
X3556Y115890D01*
X3583Y115827D01*
X3602Y115770D01*
X3615Y115716D01*
X3616Y115706D01*
Y46270D01*
X3361Y46100D01*
X2901Y45411D01*
X2739Y44598D01*
X2901Y43786D01*
X3361Y43097D01*
X4050Y42637D01*
X4862Y42475D01*
X5675Y42637D01*
X6364Y43097D01*
X6824Y43786D01*
X6986Y44598D01*
X6824Y45411D01*
X6717Y45572D01*
X6737Y45767D01*
X6765Y45846D01*
X6859Y45909D01*
X7323Y46029D01*
X7965Y45600D01*
X8348Y45524D01*
X11402Y42469D01*
Y32133D01*
X8015Y28745D01*
X7572Y29010D01*
X7785Y29711D01*
X7926Y31142D01*
X7785Y32573D01*
X7368Y33949D01*
X6690Y35217D01*
X5778Y36328D01*
X4666Y37240D01*
X3398Y37918D01*
X2022Y38335D01*
X592Y38476D01*
X-840Y38335D01*
X-2215Y37918D01*
X-3483Y37240D01*
X-4595Y36328D01*
X-5507Y35217D01*
X-6185Y33949D01*
X-6602Y32573D01*
X-6743Y31142D01*
X-6602Y29711D01*
X-6185Y28335D01*
X-5507Y27067D01*
X-4595Y25956D01*
X-3483Y25043D01*
X-2215Y24366D01*
X-840Y23948D01*
X592Y23807D01*
X1407Y23888D01*
X1575Y23623D01*
X1633Y23407D01*
X1248Y22906D01*
X978Y22255D01*
X886Y21557D01*
X978Y20860D01*
X1248Y20209D01*
X1676Y19651D01*
X2235Y19222D01*
X2885Y18953D01*
X3583Y18861D01*
X4281Y18953D01*
X4931Y19222D01*
X5489Y19651D01*
X5918Y20209D01*
X6187Y20860D01*
X6268Y21472D01*
X6536Y21436D01*
X7233Y21528D01*
X7884Y21798D01*
X8442Y22226D01*
X8871Y22784D01*
X9140Y23435D01*
X9232Y24133D01*
X9221Y24213D01*
X9318Y24327D01*
X14856Y29864D01*
X15294Y30520D01*
X15448Y31295D01*
Y43307D01*
X15294Y44081D01*
X14856Y44738D01*
X11317Y48276D01*
Y125052D01*
X11329Y125197D01*
X11345Y125314D01*
X11363Y125405D01*
X11367Y125420D01*
X11829Y126023D01*
X12168Y126841D01*
X12284Y127718D01*
X12168Y128596D01*
X11829Y129414D01*
X11291Y130116D01*
X10588Y130655D01*
X9770Y130994D01*
X8893Y131110D01*
D02*
G37*
G36*
X62632Y154421D02*
X61935Y154329D01*
X61284Y154060D01*
X60726Y153631D01*
X60297Y153073D01*
X60028Y152423D01*
X59965Y151945D01*
X59803Y151757D01*
X50745Y142699D01*
X50307Y142043D01*
X50153Y141269D01*
Y119861D01*
X49691Y119669D01*
X42267Y127093D01*
X41741Y127445D01*
X41120Y127568D01*
X20742D01*
X20122Y127445D01*
X19596Y127093D01*
X15231Y122729D01*
X14880Y122203D01*
X14756Y121582D01*
Y64333D01*
X14756Y64327D01*
X14742Y64259D01*
X14725Y64196D01*
X14702Y64136D01*
X14675Y64078D01*
X14641Y64020D01*
X14601Y63961D01*
X14551Y63901D01*
X14490Y63836D01*
X14471Y63822D01*
X14043Y63264D01*
X13774Y62613D01*
X13682Y61915D01*
X13774Y61218D01*
X14043Y60567D01*
X14471Y60009D01*
X15030Y59580D01*
X15680Y59311D01*
X16378Y59219D01*
X17076Y59311D01*
X17726Y59580D01*
X18285Y60009D01*
X18713Y60567D01*
X18982Y61218D01*
X19074Y61915D01*
X18982Y62613D01*
X18713Y63264D01*
X18285Y63822D01*
X18266Y63836D01*
X18205Y63901D01*
X18155Y63961D01*
X18115Y64020D01*
X18081Y64078D01*
X18054Y64136D01*
X18031Y64196D01*
X18014Y64259D01*
X18000Y64327D01*
X18000Y64333D01*
Y120911D01*
X21414Y124325D01*
X40448D01*
X48875Y115898D01*
Y102096D01*
X48952Y101711D01*
Y95967D01*
X48801Y95817D01*
X48450Y95290D01*
X48326Y94670D01*
Y85589D01*
X48450Y84969D01*
X48801Y84443D01*
X52938Y80306D01*
Y76051D01*
X52938Y76045D01*
X52924Y75976D01*
X52907Y75913D01*
X52884Y75854D01*
X52857Y75796D01*
X52823Y75738D01*
X52782Y75679D01*
X52733Y75619D01*
X52672Y75554D01*
X52653Y75540D01*
X52225Y74981D01*
X51955Y74331D01*
X51864Y73633D01*
X51955Y72935D01*
X52225Y72285D01*
X52558Y71851D01*
X52243Y71441D01*
X52081Y71507D01*
X51383Y71599D01*
X50686Y71507D01*
X50035Y71238D01*
X49477Y70810D01*
X49048Y70251D01*
X48779Y69601D01*
X48687Y68903D01*
X48779Y68205D01*
X49048Y67555D01*
X49477Y66996D01*
X50035Y66568D01*
X50686Y66299D01*
X51383Y66207D01*
X52081Y66299D01*
X52732Y66568D01*
X53290Y66996D01*
X53719Y67555D01*
X53988Y68205D01*
X54080Y68903D01*
X53988Y69601D01*
X53719Y70251D01*
X53386Y70685D01*
X53701Y71096D01*
X53862Y71029D01*
X54560Y70937D01*
X55258Y71029D01*
X55908Y71298D01*
X56466Y71727D01*
X56895Y72285D01*
X57164Y72935D01*
X57256Y73633D01*
X57164Y74331D01*
X56895Y74981D01*
X56466Y75540D01*
X56448Y75554D01*
X56387Y75619D01*
X56337Y75679D01*
X56296Y75738D01*
X56263Y75796D01*
X56236Y75854D01*
X56213Y75913D01*
X56196Y75976D01*
X56182Y76045D01*
X56182Y76051D01*
Y80978D01*
X56058Y81598D01*
X55707Y82124D01*
X54076Y83755D01*
X54309Y84229D01*
X54681Y84180D01*
X55379Y84272D01*
X56029Y84541D01*
X56588Y84970D01*
X57016Y85528D01*
X57286Y86178D01*
X57377Y86876D01*
X57286Y87574D01*
X57016Y88224D01*
X56588Y88783D01*
X56029Y89211D01*
X55379Y89481D01*
X54681Y89572D01*
X53983Y89481D01*
X53333Y89211D01*
X52775Y88783D01*
X52346Y88224D01*
X52077Y87574D01*
X52070Y87520D01*
X51570Y87553D01*
Y90626D01*
X52070Y90943D01*
X52605Y90873D01*
X53303Y90965D01*
X53954Y91234D01*
X54512Y91663D01*
X54940Y92221D01*
X55210Y92871D01*
X55302Y93569D01*
X55210Y94267D01*
X54940Y94917D01*
X54647Y95299D01*
X54628Y95547D01*
Y101240D01*
X54578Y101494D01*
X55013Y101870D01*
X55601Y101947D01*
X56251Y102217D01*
X56810Y102645D01*
X57238Y103204D01*
X57507Y103854D01*
X57599Y104552D01*
X57507Y105250D01*
X57238Y105900D01*
X56810Y106458D01*
X56251Y106887D01*
X55601Y107156D01*
X54903Y107248D01*
X54367Y107177D01*
X53867Y107494D01*
Y109961D01*
X53934Y110005D01*
X54372Y110662D01*
X54526Y111436D01*
Y115317D01*
X55026Y115581D01*
X55629Y115501D01*
X56326Y115593D01*
X56977Y115863D01*
X57535Y116291D01*
X57643Y116431D01*
X57779Y116438D01*
X58135D01*
X58329Y116477D01*
X58332Y116477D01*
X58335Y116478D01*
X58909Y116592D01*
X59566Y117031D01*
X64928Y122393D01*
X65040Y122484D01*
X65046Y122487D01*
X65479Y122545D01*
X66130Y122814D01*
X66688Y123242D01*
X67116Y123801D01*
X67386Y124451D01*
X67478Y125149D01*
X67386Y125847D01*
X67116Y126497D01*
X66688Y127056D01*
X66130Y127484D01*
X65479Y127753D01*
X64781Y127845D01*
X64084Y127753D01*
X63433Y127484D01*
X62875Y127056D01*
X62446Y126497D01*
X62177Y125847D01*
X62108Y125323D01*
X61949Y125137D01*
X58382Y121570D01*
X57908Y121803D01*
X57923Y121917D01*
X57832Y122615D01*
X57562Y123265D01*
X57134Y123824D01*
X56575Y124252D01*
X55925Y124521D01*
X55227Y124613D01*
X54699Y124544D01*
X54199Y124864D01*
Y140430D01*
X62733Y148965D01*
X62788Y149012D01*
X62842Y149053D01*
X62848Y149057D01*
X63330Y149120D01*
X63981Y149390D01*
X64539Y149818D01*
X64967Y150377D01*
X65237Y151027D01*
X65329Y151725D01*
X65237Y152423D01*
X64967Y153073D01*
X64539Y153631D01*
X63981Y154060D01*
X63330Y154329D01*
X62632Y154421D01*
D02*
G37*
G36*
X248334Y126244D02*
X239641D01*
Y117551D01*
X248334D01*
Y126244D01*
D02*
G37*
G36*
X154174Y117854D02*
X153476Y117762D01*
X152825Y117493D01*
X152267Y117064D01*
X151838Y116506D01*
X151569Y115856D01*
X151477Y115158D01*
X151569Y114460D01*
X151838Y113810D01*
X152267Y113251D01*
X152825Y112823D01*
X153476Y112553D01*
X154174Y112461D01*
X154871Y112553D01*
X155522Y112823D01*
X156080Y113251D01*
X156509Y113810D01*
X156778Y114460D01*
X156870Y115158D01*
X156778Y115856D01*
X156509Y116506D01*
X156080Y117064D01*
X155522Y117493D01*
X154871Y117762D01*
X154174Y117854D01*
D02*
G37*
G36*
X69655Y115696D02*
X68804Y115527D01*
X68082Y115045D01*
X67600Y114323D01*
X67431Y113472D01*
X67600Y112621D01*
X68082Y111900D01*
X68804Y111418D01*
X69655Y111249D01*
X70506Y111418D01*
X71227Y111900D01*
X71709Y112621D01*
X71879Y113472D01*
X71709Y114323D01*
X71227Y115045D01*
X70506Y115527D01*
X69655Y115696D01*
D02*
G37*
G36*
X38026Y115672D02*
X37175Y115503D01*
X36454Y115021D01*
X35971Y114299D01*
X35802Y113448D01*
X35971Y112597D01*
X36454Y111876D01*
X37175Y111394D01*
X38026Y111225D01*
X38877Y111394D01*
X39599Y111876D01*
X40080Y112597D01*
X40250Y113448D01*
X40080Y114299D01*
X39599Y115021D01*
X38877Y115503D01*
X38026Y115672D01*
D02*
G37*
G36*
X179251Y94716D02*
X178553Y94624D01*
X177903Y94355D01*
X177344Y93926D01*
X176916Y93368D01*
X176646Y92718D01*
X176555Y92020D01*
X176646Y91322D01*
X176916Y90672D01*
X177344Y90113D01*
X177903Y89685D01*
X178553Y89415D01*
X179251Y89323D01*
X179949Y89415D01*
X180599Y89685D01*
X181158Y90113D01*
X181586Y90672D01*
X181855Y91322D01*
X181947Y92020D01*
X181855Y92718D01*
X181586Y93368D01*
X181158Y93926D01*
X180599Y94355D01*
X179949Y94624D01*
X179251Y94716D01*
D02*
G37*
G36*
X186650Y85379D02*
X185952Y85287D01*
X185301Y85017D01*
X184743Y84589D01*
X184315Y84030D01*
X184045Y83380D01*
X183953Y82682D01*
X184045Y81985D01*
X184315Y81334D01*
X184743Y80776D01*
X185301Y80347D01*
X185952Y80078D01*
X186650Y79986D01*
X187347Y80078D01*
X187998Y80347D01*
X188556Y80776D01*
X188985Y81334D01*
X189254Y81985D01*
X189346Y82682D01*
X189254Y83380D01*
X188985Y84030D01*
X188556Y84589D01*
X187998Y85017D01*
X187347Y85287D01*
X186650Y85379D01*
D02*
G37*
G36*
X20104Y28791D02*
X19406Y28699D01*
X18756Y28430D01*
X18197Y28002D01*
X17769Y27443D01*
X17500Y26793D01*
X17408Y26095D01*
X17500Y25397D01*
X17769Y24747D01*
X18197Y24189D01*
X18756Y23760D01*
X19406Y23491D01*
X20104Y23399D01*
X20802Y23491D01*
X21452Y23760D01*
X22011Y24189D01*
X22439Y24747D01*
X22708Y25397D01*
X22800Y26095D01*
X22708Y26793D01*
X22439Y27443D01*
X22011Y28002D01*
X21452Y28430D01*
X20802Y28699D01*
X20104Y28791D01*
D02*
G37*
G36*
X10395Y14954D02*
X9363Y14818D01*
X8401Y14419D01*
X7576Y13786D01*
X6942Y12960D01*
X6544Y11998D01*
X6408Y10967D01*
X6544Y9935D01*
X6942Y8973D01*
X7576Y8147D01*
X8401Y7514D01*
X9363Y7116D01*
X10395Y6980D01*
X11427Y7116D01*
X12388Y7514D01*
X13214Y8147D01*
X13847Y8973D01*
X14246Y9935D01*
X14381Y10967D01*
X14246Y11998D01*
X13847Y12960D01*
X13214Y13786D01*
X12388Y14419D01*
X11427Y14818D01*
X10395Y14954D01*
D02*
G37*
%LPD*%
G36*
X166365Y198014D02*
X166171Y198004D01*
X165973Y197972D01*
X165771Y197917D01*
X165567Y197839D01*
X165359Y197739D01*
X165148Y197615D01*
X164933Y197469D01*
X164715Y197300D01*
X164494Y197108D01*
X164270Y196893D01*
X162321Y198842D01*
X162536Y199066D01*
X162897Y199505D01*
X163043Y199720D01*
X163167Y199931D01*
X163267Y200139D01*
X163345Y200343D01*
X163400Y200545D01*
X163433Y200743D01*
X163442Y200937D01*
X166365Y198014D01*
D02*
G37*
G36*
X143912Y182942D02*
X143994Y182910D01*
X144098Y182881D01*
X144226Y182857D01*
X144377Y182836D01*
X144748Y182805D01*
X145478Y182788D01*
X145862Y180032D01*
X145599Y180029D01*
X144941Y179978D01*
X144766Y179947D01*
X144613Y179910D01*
X144483Y179866D01*
X144374Y179814D01*
X144288Y179756D01*
X144223Y179692D01*
X143854Y182978D01*
X143912Y182942D01*
D02*
G37*
G36*
X10494Y125966D02*
X10447Y125879D01*
X10406Y125770D01*
X10370Y125638D01*
X10339Y125484D01*
X10315Y125308D01*
X10282Y124890D01*
X10271Y124382D01*
X7515D01*
X7512Y124647D01*
X7446Y125484D01*
X7415Y125638D01*
X7380Y125770D01*
X7338Y125879D01*
X7291Y125966D01*
X7239Y126031D01*
X10546D01*
X10494Y125966D01*
D02*
G37*
G36*
X6179Y116883D02*
X6064Y116748D01*
X5962Y116611D01*
X5874Y116472D01*
X5799Y116332D01*
X5738Y116191D01*
X5691Y116048D01*
X5657Y115903D01*
X5636Y115757D01*
X5629Y115609D01*
X4645D01*
X4638Y115757D01*
X4618Y115903D01*
X4584Y116048D01*
X4536Y116191D01*
X4475Y116332D01*
X4401Y116472D01*
X4312Y116611D01*
X4211Y116748D01*
X4095Y116883D01*
X3966Y117017D01*
X6308D01*
X6179Y116883D01*
D02*
G37*
G36*
X5629Y46012D02*
X5631Y45898D01*
X5655Y45593D01*
X5670Y45504D01*
X5709Y45345D01*
X5733Y45275D01*
X5761Y45211D01*
X5792Y45154D01*
X4326Y45539D01*
X4386Y45579D01*
X4441Y45628D01*
X4488Y45685D01*
X4530Y45749D01*
X4565Y45822D01*
X4594Y45903D01*
X4616Y45993D01*
X4632Y46090D01*
X4642Y46195D01*
X4645Y46309D01*
X5629Y46012D01*
D02*
G37*
G36*
X8848Y25325D02*
X8717Y25191D01*
X8413Y24837D01*
X8340Y24735D01*
X8282Y24640D01*
X8239Y24554D01*
X8210Y24475D01*
X8196Y24404D01*
X8196Y24342D01*
X6360Y25797D01*
X6404Y25807D01*
X6458Y25832D01*
X6523Y25870D01*
X6597Y25922D01*
X6776Y26065D01*
X6995Y26263D01*
X7255Y26516D01*
X8848Y25325D01*
D02*
G37*
G36*
X62616Y150052D02*
X62559Y150045D01*
X62494Y150025D01*
X62420Y149991D01*
X62337Y149943D01*
X62246Y149881D01*
X62147Y149805D01*
X61921Y149611D01*
X61662Y149362D01*
X60270Y150754D01*
X60401Y150888D01*
X60788Y151339D01*
X60850Y151430D01*
X60898Y151512D01*
X60932Y151586D01*
X60953Y151652D01*
X60959Y151708D01*
X62616Y150052D01*
D02*
G37*
G36*
X64794Y123476D02*
X64739Y123468D01*
X64675Y123447D01*
X64602Y123412D01*
X64520Y123364D01*
X64430Y123301D01*
X64223Y123135D01*
X63981Y122913D01*
X63847Y122781D01*
X62425Y124143D01*
X62556Y124277D01*
X62941Y124729D01*
X63003Y124821D01*
X63050Y124904D01*
X63084Y124979D01*
X63103Y125045D01*
X63109Y125103D01*
X64794Y123476D01*
D02*
G37*
G36*
X58135Y117477D02*
X57113Y117425D01*
X56799Y119394D01*
X57747Y119446D01*
X58135Y117477D01*
D02*
G37*
G36*
X53592Y95738D02*
X53636Y95146D01*
X53657Y95038D01*
X53681Y94946D01*
X53709Y94869D01*
X53741Y94809D01*
X53777Y94764D01*
X51434D01*
X51470Y94809D01*
X51502Y94869D01*
X51530Y94946D01*
X51554Y95038D01*
X51574Y95146D01*
X51591Y95270D01*
X51614Y95566D01*
X51621Y95926D01*
X53590D01*
X53592Y95738D01*
D02*
G37*
G36*
X55156Y76044D02*
X55174Y75890D01*
X55203Y75741D01*
X55243Y75596D01*
X55296Y75456D01*
X55360Y75321D01*
X55435Y75191D01*
X55522Y75065D01*
X55621Y74944D01*
X55731Y74828D01*
X53389D01*
X53499Y74944D01*
X53598Y75065D01*
X53685Y75191D01*
X53760Y75321D01*
X53824Y75456D01*
X53876Y75596D01*
X53917Y75741D01*
X53946Y75890D01*
X53964Y76044D01*
X53969Y76203D01*
X55150D01*
X55156Y76044D01*
D02*
G37*
G36*
X16974Y64326D02*
X16992Y64172D01*
X17021Y64023D01*
X17062Y63879D01*
X17114Y63739D01*
X17178Y63604D01*
X17253Y63473D01*
X17340Y63348D01*
X17439Y63227D01*
X17549Y63110D01*
X15207D01*
X15317Y63227D01*
X15416Y63348D01*
X15503Y63473D01*
X15578Y63604D01*
X15642Y63739D01*
X15695Y63879D01*
X15735Y64023D01*
X15764Y64172D01*
X15782Y64326D01*
X15788Y64485D01*
X16969D01*
X16974Y64326D01*
D02*
G37*
%LPC*%
G36*
X116430Y119680D02*
X115732Y119589D01*
X115082Y119319D01*
X114524Y118891D01*
X114095Y118332D01*
X113826Y117682D01*
X113734Y116984D01*
X113826Y116286D01*
X114095Y115636D01*
X114524Y115077D01*
X115082Y114649D01*
X115732Y114380D01*
X116430Y114288D01*
X117128Y114380D01*
X117778Y114649D01*
X118337Y115077D01*
X118765Y115636D01*
X119035Y116286D01*
X119127Y116984D01*
X119035Y117682D01*
X118765Y118332D01*
X118337Y118891D01*
X117778Y119319D01*
X117128Y119589D01*
X116430Y119680D01*
D02*
G37*
G36*
X109804Y116320D02*
X109106Y116228D01*
X108456Y115959D01*
X107897Y115531D01*
X107469Y114972D01*
X107199Y114322D01*
X107107Y113624D01*
X107199Y112926D01*
X107469Y112276D01*
X107897Y111717D01*
X108456Y111289D01*
X109106Y111020D01*
X109804Y110928D01*
X110502Y111020D01*
X111152Y111289D01*
X111710Y111717D01*
X112139Y112276D01*
X112408Y112926D01*
X112500Y113624D01*
X112408Y114322D01*
X112139Y114972D01*
X111710Y115531D01*
X111152Y115959D01*
X110502Y116228D01*
X109804Y116320D01*
D02*
G37*
G36*
X108739Y103389D02*
X108041Y103297D01*
X107391Y103028D01*
X106832Y102599D01*
X106404Y102041D01*
X106134Y101391D01*
X106043Y100693D01*
X106134Y99995D01*
X106404Y99345D01*
X106832Y98786D01*
X107391Y98358D01*
X108041Y98088D01*
X108739Y97997D01*
X109437Y98088D01*
X110087Y98358D01*
X110645Y98786D01*
X111074Y99345D01*
X111343Y99995D01*
X111435Y100693D01*
X111343Y101391D01*
X111074Y102041D01*
X110645Y102599D01*
X110087Y103028D01*
X109437Y103297D01*
X108739Y103389D01*
D02*
G37*
G36*
X110073Y87095D02*
X109375Y87003D01*
X108725Y86734D01*
X108167Y86305D01*
X107738Y85747D01*
X107469Y85096D01*
X107377Y84399D01*
X107469Y83701D01*
X107738Y83050D01*
X108167Y82492D01*
X108725Y82063D01*
X109375Y81794D01*
X110073Y81702D01*
X110771Y81794D01*
X111421Y82063D01*
X111980Y82492D01*
X112408Y83050D01*
X112677Y83701D01*
X112769Y84399D01*
X112677Y85096D01*
X112408Y85747D01*
X111980Y86305D01*
X111421Y86734D01*
X110771Y87003D01*
X110073Y87095D01*
D02*
G37*
G36*
X120594Y65843D02*
X119896Y65751D01*
X119246Y65482D01*
X118687Y65053D01*
X118259Y64495D01*
X117990Y63844D01*
X117898Y63146D01*
X117990Y62449D01*
X118259Y61798D01*
X118687Y61240D01*
X119246Y60811D01*
X119896Y60542D01*
X120594Y60450D01*
X121292Y60542D01*
X121942Y60811D01*
X122501Y61240D01*
X122929Y61798D01*
X123198Y62449D01*
X123290Y63146D01*
X123198Y63844D01*
X122929Y64495D01*
X122501Y65053D01*
X121942Y65482D01*
X121292Y65751D01*
X120594Y65843D01*
D02*
G37*
G36*
X127081Y48859D02*
X126383Y48767D01*
X125732Y48498D01*
X125174Y48069D01*
X124746Y47511D01*
X124476Y46861D01*
X124384Y46163D01*
X124476Y45465D01*
X124746Y44815D01*
X125174Y44256D01*
X125732Y43828D01*
X126383Y43558D01*
X127081Y43466D01*
X127778Y43558D01*
X128429Y43828D01*
X128987Y44256D01*
X129416Y44815D01*
X129685Y45465D01*
X129777Y46163D01*
X129685Y46861D01*
X129416Y47511D01*
X128987Y48069D01*
X128429Y48498D01*
X127778Y48767D01*
X127081Y48859D01*
D02*
G37*
G36*
X108739Y61124D02*
X108041Y61032D01*
X107391Y60763D01*
X106832Y60334D01*
X106404Y59776D01*
X106134Y59126D01*
X106043Y58428D01*
X106134Y57730D01*
X106404Y57080D01*
X106832Y56521D01*
X106845Y56511D01*
X106851Y56501D01*
X106863Y56474D01*
X106878Y56430D01*
X106894Y56369D01*
X106906Y56303D01*
X106916Y56196D01*
Y43624D01*
X106899Y43456D01*
X106886Y43381D01*
X106871Y43313D01*
X106856Y43263D01*
X106845Y43232D01*
X106839Y43220D01*
X106815Y43179D01*
X106806Y43154D01*
X106751Y43082D01*
X106481Y42432D01*
X106389Y41734D01*
X106481Y41036D01*
X106751Y40385D01*
X107179Y39827D01*
X107738Y39399D01*
X108388Y39129D01*
X109086Y39037D01*
X109783Y39129D01*
X110434Y39399D01*
X110992Y39827D01*
X111421Y40385D01*
X111690Y41036D01*
X111782Y41734D01*
X111690Y42432D01*
X111421Y43082D01*
X110992Y43640D01*
X110640Y43911D01*
X110592Y43963D01*
X110583Y43992D01*
X110570Y44049D01*
X110561Y44106D01*
Y56228D01*
X110569Y56289D01*
X110584Y56369D01*
X110600Y56430D01*
X110614Y56474D01*
X110626Y56501D01*
X110632Y56511D01*
X110645Y56521D01*
X111074Y57080D01*
X111343Y57730D01*
X111435Y58428D01*
X111343Y59126D01*
X111074Y59776D01*
X110645Y60334D01*
X110087Y60763D01*
X109437Y61032D01*
X108739Y61124D01*
D02*
G37*
G36*
X111117Y38287D02*
X110420Y38195D01*
X109769Y37926D01*
X109211Y37497D01*
X108782Y36939D01*
X108513Y36288D01*
X108421Y35590D01*
X108513Y34893D01*
X108782Y34242D01*
X109211Y33684D01*
X109769Y33255D01*
X110420Y32986D01*
X111117Y32894D01*
X111815Y32986D01*
X112466Y33255D01*
X113024Y33684D01*
X113453Y34242D01*
X113722Y34893D01*
X113814Y35590D01*
X113722Y36288D01*
X113453Y36939D01*
X113024Y37497D01*
X112466Y37926D01*
X111815Y38195D01*
X111117Y38287D01*
D02*
G37*
G36*
X128046Y26410D02*
X127348Y26318D01*
X126698Y26049D01*
X126139Y25620D01*
X125710Y25062D01*
X125441Y24411D01*
X125349Y23714D01*
X125441Y23016D01*
X125710Y22366D01*
X126139Y21807D01*
X126698Y21379D01*
X127348Y21109D01*
X128046Y21017D01*
X128744Y21109D01*
X129394Y21379D01*
X129952Y21807D01*
X130381Y22366D01*
X130650Y23016D01*
X130742Y23714D01*
X130650Y24411D01*
X130381Y25062D01*
X129952Y25620D01*
X129394Y26049D01*
X128744Y26318D01*
X128046Y26410D01*
D02*
G37*
G36*
X58342Y24254D02*
X57644Y24162D01*
X56994Y23892D01*
X56436Y23464D01*
X56007Y22906D01*
X55738Y22255D01*
X55646Y21557D01*
X55738Y20860D01*
X56007Y20209D01*
X56436Y19651D01*
X56994Y19222D01*
X57644Y18953D01*
X58342Y18861D01*
X59040Y18953D01*
X59690Y19222D01*
X60249Y19651D01*
X60677Y20209D01*
X60947Y20860D01*
X61038Y21557D01*
X60947Y22255D01*
X60677Y22906D01*
X60249Y23464D01*
X59690Y23892D01*
X59040Y24162D01*
X58342Y24254D01*
D02*
G37*
G36*
X75735Y23786D02*
X75038Y23695D01*
X74387Y23425D01*
X73829Y22997D01*
X73400Y22438D01*
X73131Y21788D01*
X73039Y21090D01*
X73131Y20392D01*
X73400Y19742D01*
X73829Y19184D01*
X74387Y18755D01*
X75038Y18486D01*
X75735Y18394D01*
X76433Y18486D01*
X77084Y18755D01*
X77642Y19184D01*
X78070Y19742D01*
X78340Y20392D01*
X78432Y21090D01*
X78340Y21788D01*
X78070Y22438D01*
X77642Y22997D01*
X77084Y23425D01*
X76433Y23695D01*
X75735Y23786D01*
D02*
G37*
G36*
X71284Y17626D02*
X70586Y17534D01*
X69936Y17265D01*
X69377Y16836D01*
X68949Y16278D01*
X68679Y15628D01*
X68587Y14930D01*
X68679Y14232D01*
X68949Y13581D01*
X69377Y13023D01*
X69936Y12595D01*
X70586Y12325D01*
X71284Y12233D01*
X71982Y12325D01*
X72632Y12595D01*
X73190Y13023D01*
X73619Y13581D01*
X73888Y14232D01*
X73980Y14930D01*
X73888Y15628D01*
X73619Y16278D01*
X73190Y16836D01*
X72632Y17265D01*
X71982Y17534D01*
X71284Y17626D01*
D02*
G37*
%LPD*%
G36*
X109837Y57152D02*
X109772Y57061D01*
X109714Y56959D01*
X109664Y56846D01*
X109622Y56723D01*
X109588Y56589D01*
X109561Y56445D01*
X109541Y56290D01*
X109530Y56124D01*
X109526Y55947D01*
X107951D01*
X107948Y56124D01*
X107917Y56445D01*
X107890Y56589D01*
X107855Y56723D01*
X107813Y56846D01*
X107763Y56959D01*
X107706Y57061D01*
X107640Y57152D01*
X107568Y57233D01*
X109910D01*
X109837Y57152D01*
D02*
G37*
G36*
X109531Y44175D02*
X109545Y44011D01*
X109567Y43859D01*
X109599Y43719D01*
X109641Y43593D01*
X109691Y43478D01*
X109750Y43376D01*
X109819Y43287D01*
X109897Y43210D01*
X109984Y43145D01*
X107692Y42660D01*
X107741Y42743D01*
X107785Y42837D01*
X107824Y42941D01*
X107858Y43056D01*
X107887Y43182D01*
X107910Y43318D01*
X107941Y43622D01*
X107949Y43789D01*
X107951Y43968D01*
X109526Y44352D01*
X109531Y44175D01*
D02*
G37*
%LPC*%
G36*
X139048Y88904D02*
X138350Y88812D01*
X137700Y88542D01*
X137142Y88114D01*
X136713Y87556D01*
X136444Y86905D01*
X136352Y86207D01*
X136444Y85510D01*
X136713Y84859D01*
X137049Y84422D01*
X137211Y83916D01*
X136782Y83358D01*
X136513Y82707D01*
X136421Y82009D01*
X136513Y81312D01*
X136782Y80661D01*
X137211Y80103D01*
X137769Y79674D01*
X138420Y79405D01*
X139118Y79313D01*
X139815Y79405D01*
X140466Y79674D01*
X141024Y80103D01*
X141453Y80661D01*
X141722Y81312D01*
X141814Y82009D01*
X141722Y82707D01*
X141453Y83358D01*
X141024Y83916D01*
X141099Y84489D01*
X141383Y84859D01*
X141653Y85510D01*
X141744Y86207D01*
X141653Y86905D01*
X141383Y87556D01*
X140955Y88114D01*
X140396Y88542D01*
X139746Y88812D01*
X139048Y88904D01*
D02*
G37*
G36*
X176384Y55846D02*
X175686Y55754D01*
X175036Y55485D01*
X174477Y55056D01*
X174049Y54498D01*
X173779Y53847D01*
X173688Y53150D01*
X173779Y52452D01*
X174049Y51801D01*
X174477Y51243D01*
X175036Y50814D01*
X175686Y50545D01*
X176384Y50453D01*
X177082Y50545D01*
X177732Y50814D01*
X178290Y51243D01*
X178719Y51801D01*
X178988Y52452D01*
X179080Y53150D01*
X178988Y53847D01*
X178719Y54498D01*
X178290Y55056D01*
X177732Y55485D01*
X177082Y55754D01*
X176384Y55846D01*
D02*
G37*
G36*
X171939Y30139D02*
X171061Y30024D01*
X170243Y29685D01*
X169541Y29146D01*
X169002Y28444D01*
X168663Y27626D01*
X168548Y26748D01*
X168663Y25870D01*
X169002Y25052D01*
X169541Y24350D01*
X170243Y23811D01*
X171061Y23472D01*
X171939Y23357D01*
X172817Y23472D01*
X173635Y23811D01*
X174337Y24350D01*
X174876Y25052D01*
X175215Y25870D01*
X175330Y26748D01*
X175215Y27626D01*
X174876Y28444D01*
X174337Y29146D01*
X173635Y29685D01*
X172817Y30024D01*
X171939Y30139D01*
D02*
G37*
%LPD*%
D10*
X51221Y29028D02*
Y40455D01*
X54858Y44092D01*
X145478Y30775D02*
X147226Y29028D01*
X35813Y3937D02*
Y12474D01*
X25236Y14076D02*
Y20669D01*
X33636Y29069D02*
X39430D01*
X25236Y20669D02*
X33636Y29069D01*
X39430Y16092D02*
Y29069D01*
X35813Y12474D02*
X39430Y16092D01*
X5137Y44873D02*
Y118212D01*
X4862Y44598D02*
X5137Y44873D01*
D49*
X243988Y91898D02*
D03*
Y111898D02*
D03*
X232915Y188071D02*
D03*
D50*
Y178071D02*
D03*
D55*
X88732Y62915D02*
Y162225D01*
X78152Y52335D02*
X88732Y62915D01*
X44275Y49574D02*
X47753D01*
X44378Y7927D02*
Y24634D01*
X48912Y29168D01*
X72226Y34434D02*
Y36480D01*
X70593Y38113D02*
X72226Y36480D01*
X93432Y46734D02*
Y59978D01*
X95596Y62142D01*
X55032Y36624D02*
X61100Y42691D01*
X55032Y33925D02*
Y36624D01*
X61100Y42691D02*
Y46472D01*
X62730Y48103D01*
X32484Y42323D02*
X40001D01*
X47753Y49574D02*
X48912Y48415D01*
Y29168D02*
Y48415D01*
X44378Y7927D02*
X49353Y2953D01*
X227992D01*
X33319Y49597D02*
X35547D01*
X39100Y53150D01*
X59201D01*
X62673Y49677D01*
X77722D01*
X33167Y49445D02*
X33319Y49597D01*
X24432Y34272D02*
X32484Y42323D01*
X16378Y61915D02*
Y121582D01*
X41120Y125947D02*
X50497Y116570D01*
Y102096D02*
X50573Y102020D01*
X52245Y111178D02*
X52503Y111436D01*
X52245Y101600D02*
Y111178D01*
X50573Y95296D02*
Y102020D01*
X50497Y102096D02*
Y116570D01*
X49948Y94670D02*
X50573Y95296D01*
X52245Y101600D02*
X52605Y101240D01*
X95596Y131552D02*
X95806Y131342D01*
X128113D01*
X161969Y55389D02*
X175232Y42126D01*
X179086D01*
X161969Y55389D02*
Y60476D01*
X155235Y67210D02*
X161969Y60476D01*
X135068Y131264D02*
X143763Y122570D01*
X144825D01*
X129260Y141695D02*
X135068Y135887D01*
Y131264D02*
Y135887D01*
X124291Y144352D02*
X126949Y141695D01*
X129260D01*
X118191Y147632D02*
Y147632D01*
X114887Y133803D02*
X127879D01*
X114690Y134000D02*
X114887Y133803D01*
X143347Y66193D02*
X146013Y68859D01*
Y115670D01*
X127879Y133803D02*
X146013Y115670D01*
X128113Y131342D02*
X143355Y116100D01*
X95596Y119997D02*
X100043Y124444D01*
X109323D01*
X95596Y108454D02*
Y119997D01*
X196842Y188071D02*
X232915D01*
X184262Y175491D02*
X196842Y188071D01*
X184262Y118972D02*
Y175491D01*
X187723Y132732D02*
X192262Y137271D01*
X187723Y122636D02*
Y132732D01*
X77722Y49677D02*
X90395Y62350D01*
Y141780D02*
X96233Y147618D01*
X90395Y62350D02*
Y141780D01*
X16378Y121582D02*
X20742Y125947D01*
X41120D01*
X62730Y48103D02*
X70593D01*
X65357Y52335D02*
X78152D01*
X191167Y37210D02*
Y49080D01*
X190219Y50028D02*
Y54562D01*
Y50028D02*
X191167Y49080D01*
X53503Y14961D02*
X55312Y13151D01*
Y8752D02*
X59143Y4921D01*
X55312Y8752D02*
Y13151D01*
X53435Y14961D02*
X53503D01*
X192792Y57135D02*
Y65320D01*
X190219Y54562D02*
X192792Y57135D01*
X190219Y67893D02*
Y74993D01*
Y67893D02*
X192792Y65320D01*
X196263Y59911D02*
Y151497D01*
X215789Y53150D02*
X221284D01*
X143347Y57920D02*
X145317Y55950D01*
X143347Y57920D02*
Y66193D01*
X155235Y67210D02*
Y82948D01*
X78395Y48103D02*
X92480Y62188D01*
X70593Y48103D02*
X78395D01*
X92480Y62188D02*
Y141168D01*
X96190Y144878D02*
X115437D01*
X92480Y141168D02*
X96190Y144878D01*
X96233Y147618D02*
X112525D01*
X187513Y33556D02*
X191167Y37210D01*
X187513Y22577D02*
Y33556D01*
X183074Y22710D02*
Y70927D01*
X179159Y74843D02*
X183074Y70927D01*
X165286Y4921D02*
X183074Y22710D01*
X143355Y92092D02*
Y116100D01*
X229961Y61827D02*
Y140157D01*
X221284Y53150D02*
X229961Y61827D01*
X232913Y47542D02*
Y143610D01*
X224377Y39006D02*
X232913Y47542D01*
X124807Y74630D02*
Y98203D01*
X115534Y65357D02*
X124807Y74630D01*
X115534Y55950D02*
Y65357D01*
X95596Y101868D02*
X98682Y104954D01*
X95596Y62142D02*
Y101868D01*
X59143Y4921D02*
X165286D01*
X115437Y144878D02*
X118191Y147632D01*
X243988Y111781D02*
Y111898D01*
Y111781D02*
X248661Y107108D01*
Y23622D02*
Y107108D01*
X227992Y2953D02*
X248661Y23622D01*
X49948Y85589D02*
Y94670D01*
Y85589D02*
X54560Y80978D01*
X70593Y38113D02*
Y48103D01*
X54560Y73633D02*
Y80978D01*
X115534Y42792D02*
X115756Y42570D01*
X115534Y42792D02*
Y55950D01*
X223898Y39006D02*
X224377D01*
D56*
X47163Y150694D02*
X59846Y163377D01*
X46253Y149116D02*
Y149751D01*
X47163Y150661D01*
Y150694D01*
X59846Y163377D02*
X60358D01*
X93432Y41469D02*
Y46734D01*
X88443Y36480D02*
X93432Y41469D01*
X78290Y36480D02*
X88443D01*
X75735Y33925D02*
X78290Y36480D01*
X74297Y30974D02*
X75735Y32412D01*
Y33925D01*
X71257Y30525D02*
X71706Y30974D01*
X74297D01*
X64607Y31596D02*
Y45276D01*
X54852Y28831D02*
X61842D01*
X64607Y31596D01*
X25888Y29139D02*
X25968D01*
X27754Y30925D01*
X37541D01*
X44436Y37820D02*
Y45279D01*
X37541Y30925D02*
X44436Y37820D01*
X102008Y187311D02*
X149252Y140066D01*
Y20217D02*
Y140066D01*
X140395Y11360D02*
X149252Y20217D01*
X152246Y99841D02*
X158922Y93166D01*
X163111D02*
X167953Y88324D01*
X158922Y93166D02*
X163111D01*
X152246Y99841D02*
Y102966D01*
X152119Y103093D02*
X152246Y102966D01*
X147226Y29028D02*
X147276D01*
X47490Y23615D02*
X50365Y26490D01*
X47490Y22139D02*
Y23615D01*
X50365Y26490D02*
X52510D01*
X54852Y28831D01*
X140395Y10967D02*
Y11360D01*
D57*
X98273Y151601D02*
Y165314D01*
X98682Y165723D01*
X95752Y53315D02*
Y59459D01*
X96425Y45219D02*
Y52641D01*
X95752Y59459D02*
X98466Y62173D01*
X95752Y53315D02*
X96425Y52641D01*
X87562Y31319D02*
X96395Y40152D01*
Y45188D02*
X96425Y45219D01*
X96395Y40152D02*
Y45188D01*
X98466Y62173D02*
X99386D01*
X126762Y111024D02*
Y120918D01*
X118192Y136444D02*
X128733D01*
X128750Y136461D01*
X113549Y141087D02*
X118192Y136444D01*
X96673Y141087D02*
X113549D01*
X197618Y178071D02*
X232915D01*
X192167Y172620D02*
X197618Y178071D01*
X192167Y142126D02*
Y172620D01*
X145478Y30775D02*
Y39809D01*
X135807Y49480D02*
X145478Y39809D01*
X163535Y119095D02*
X163775Y118854D01*
Y101014D02*
Y118854D01*
X135807Y49480D02*
Y59911D01*
X133235Y65078D02*
X135807Y62506D01*
Y59911D02*
Y62506D01*
X133235Y65078D02*
Y71446D01*
Y104552D01*
X126762Y111024D02*
X133235Y104552D01*
X163775Y101014D02*
X164016Y100774D01*
X128881Y65460D02*
Y91516D01*
X108739Y42081D02*
Y58428D01*
Y42081D02*
X109086Y41734D01*
X132579Y44249D02*
Y61763D01*
X128881Y65460D02*
X132579Y61763D01*
X128881Y40551D02*
X132579Y44249D01*
D58*
X200041Y86934D02*
X206273Y93166D01*
X8893Y47840D02*
Y127718D01*
X207323Y39900D02*
Y63734D01*
X214858Y71270D02*
Y118279D01*
X207323Y63734D02*
X214858Y71270D01*
X211852Y37139D02*
Y56345D01*
X219699Y64192D01*
Y129197D01*
X206210Y31496D02*
X211852Y37139D01*
X201075Y33652D02*
X207323Y39900D01*
X201075Y26748D02*
Y33652D01*
X206143Y31496D02*
X206210D01*
X193129Y28073D02*
Y35242D01*
X200041Y42154D02*
Y86934D01*
X193129Y35242D02*
X200041Y42154D01*
X146838Y181410D02*
X166395Y200967D01*
X142626Y181410D02*
X146838D01*
X142362Y181147D02*
X142626Y181410D01*
D59*
X161543Y96108D02*
X164468D01*
X157599Y100052D02*
X161543Y96108D01*
X164468D02*
X172874Y87702D01*
Y85480D02*
Y87702D01*
Y85480D02*
X178626Y79729D01*
D60*
X58135Y118461D02*
X64781Y125108D01*
Y125149D01*
X52176Y141269D02*
X62632Y151725D01*
X52176Y118539D02*
Y141269D01*
Y118539D02*
X52503Y118212D01*
X52444Y93731D02*
X52605Y93569D01*
X55629Y118198D02*
X55892Y118461D01*
X58135D01*
X52503Y111436D02*
Y118212D01*
X8893Y47840D02*
X13425Y43307D01*
X6536Y24405D02*
X13425Y31295D01*
Y43307D01*
X197119Y34560D02*
X203250Y40691D01*
X198273Y22608D02*
X209537D01*
X197119Y23761D02*
X198273Y22608D01*
X197119Y23761D02*
Y34560D01*
X6536Y24133D02*
Y24405D01*
X209883Y75590D02*
Y82220D01*
X203250Y40691D02*
Y68957D01*
X209883Y75590D01*
X209537Y22608D02*
X213427Y26498D01*
X52605Y93569D02*
Y101240D01*
X199198Y95036D02*
Y108696D01*
X219699Y129197D01*
D88*
X90395Y10967D02*
D03*
X100395D02*
D03*
X140395D02*
D03*
X156395Y200967D02*
D03*
X166395D02*
D03*
D90*
X64781Y125149D02*
D03*
X67248Y171899D02*
D03*
X60358Y163377D02*
D03*
X43199D02*
D03*
X88732Y162225D02*
D03*
X43631Y172086D02*
D03*
X39805Y176710D02*
D03*
X98682Y165723D02*
D03*
X43949Y29736D02*
D03*
X62632Y151725D02*
D03*
X60632Y144725D02*
D03*
X34449Y33498D02*
D03*
X72226Y34434D02*
D03*
X71257Y30525D02*
D03*
X78702Y32850D02*
D03*
X61100Y34114D02*
D03*
X93432Y46734D02*
D03*
X55032Y33925D02*
D03*
X54858Y44092D02*
D03*
X64607Y45276D02*
D03*
X40001Y42323D02*
D03*
X44436Y45279D02*
D03*
X44378Y49677D02*
D03*
X24432Y34272D02*
D03*
X19324Y32850D02*
D03*
X16378Y61915D02*
D03*
X54681Y86876D02*
D03*
X54903Y104552D02*
D03*
X55227Y121917D02*
D03*
X95596Y131552D02*
D03*
X179086Y42126D02*
D03*
X178401Y35792D02*
D03*
X165304Y33925D02*
D03*
X126762Y120918D02*
D03*
X154174Y115158D02*
D03*
X167953Y111922D02*
D03*
X144825Y122570D02*
D03*
X124291Y144352D02*
D03*
X118191Y147632D02*
D03*
X118740Y143701D02*
D03*
X119374Y139298D02*
D03*
X128750Y136461D02*
D03*
X114690Y134000D02*
D03*
X125868Y148026D02*
D03*
X116430Y116984D02*
D03*
X109323Y124444D02*
D03*
X130324Y124890D02*
D03*
X203103Y97438D02*
D03*
X187723Y122636D02*
D03*
X9873Y39169D02*
D03*
X33167Y49445D02*
D03*
X65357Y52335D02*
D03*
X196263Y59911D02*
D03*
X215789Y53150D02*
D03*
X3583Y21557D02*
D03*
X146299Y60638D02*
D03*
X52605Y93569D02*
D03*
X108739Y189362D02*
D03*
X53435Y14961D02*
D03*
X96673Y141087D02*
D03*
X133848Y175729D02*
D03*
X187513Y22577D02*
D03*
X199198Y95036D02*
D03*
X159782Y122455D02*
D03*
X156031Y104017D02*
D03*
X152119Y103093D02*
D03*
X157599Y100052D02*
D03*
X178626Y79729D02*
D03*
X232913Y164370D02*
D03*
X217758Y159536D02*
D03*
X159782Y164370D02*
D03*
X151644Y164654D02*
D03*
X164694Y142126D02*
D03*
X227992Y49803D02*
D03*
X178401Y60630D02*
D03*
X190135Y60841D02*
D03*
X193508Y52335D02*
D03*
X180417Y53115D02*
D03*
X176384Y53150D02*
D03*
X161044Y49597D02*
D03*
X166562Y60827D02*
D03*
X155610Y61452D02*
D03*
X180417Y122749D02*
D03*
X190610Y103479D02*
D03*
X188509Y43186D02*
D03*
X184262Y118972D02*
D03*
X154173Y129921D02*
D03*
X140135Y103872D02*
D03*
X145317Y55950D02*
D03*
X143355Y92092D02*
D03*
X196263Y151497D02*
D03*
X180356Y138839D02*
D03*
X188230Y157480D02*
D03*
X115469Y158354D02*
D03*
X204147Y151575D02*
D03*
X200041Y154467D02*
D03*
X162047Y157309D02*
D03*
X192167Y142126D02*
D03*
X102008Y187311D02*
D03*
X229961Y140157D02*
D03*
X232913Y143610D02*
D03*
X155235Y87412D02*
D03*
X167953Y88324D02*
D03*
X124807Y98203D02*
D03*
X163535Y119095D02*
D03*
X82218Y17944D02*
D03*
X112692Y19756D02*
D03*
X98952Y75288D02*
D03*
X99325Y110068D02*
D03*
X110661Y91511D02*
D03*
X98931Y100717D02*
D03*
X95596Y108454D02*
D03*
X187609Y38871D02*
D03*
X140135Y50197D02*
D03*
X127081Y46163D02*
D03*
X135807Y59911D02*
D03*
X152566Y38932D02*
D03*
X71284Y14930D02*
D03*
X35813Y3937D02*
D03*
X155235Y82948D02*
D03*
X25236Y14076D02*
D03*
X47490Y22139D02*
D03*
X31580Y21090D02*
D03*
X52266Y23438D02*
D03*
X58342Y21557D02*
D03*
X190219Y74993D02*
D03*
X179159Y74843D02*
D03*
X179251Y92020D02*
D03*
X62603Y139689D02*
D03*
X138500Y115000D02*
D03*
X115872Y110201D02*
D03*
X164016Y100774D02*
D03*
X109804Y113624D02*
D03*
X160942Y89435D02*
D03*
X103701Y134608D02*
D03*
X96395Y135650D02*
D03*
X68938Y141491D02*
D03*
X109804Y134752D02*
D03*
X108185Y158908D02*
D03*
X98273Y151601D02*
D03*
X5137Y118212D02*
D03*
X186650Y82682D02*
D03*
X140135Y108246D02*
D03*
X209883Y82220D02*
D03*
X131742Y147264D02*
D03*
X67501Y120456D02*
D03*
X118806Y48672D02*
D03*
X6536Y24133D02*
D03*
X98682Y104954D02*
D03*
X51383Y68903D02*
D03*
X192262Y137271D02*
D03*
X112525Y122104D02*
D03*
X99386Y62173D02*
D03*
X115756Y42570D02*
D03*
X80910Y93300D02*
D03*
Y99756D02*
D03*
Y86786D02*
D03*
X118093Y74526D02*
D03*
X121021Y81731D02*
D03*
Y77991D02*
D03*
X128881Y91516D02*
D03*
X110073Y84399D02*
D03*
X47895Y123306D02*
D03*
X223898Y39006D02*
D03*
X71612Y25315D02*
D03*
X112525Y147618D02*
D03*
X139048Y86207D02*
D03*
X113855Y71545D02*
D03*
X120594Y63146D02*
D03*
X133235Y71446D02*
D03*
X109341Y70885D02*
D03*
X108739Y58428D02*
D03*
X109086Y41734D02*
D03*
X98606Y58276D02*
D03*
X129724Y60182D02*
D03*
X128881Y40551D02*
D03*
X139118Y90912D02*
D03*
X108739Y100693D02*
D03*
X139118Y82009D02*
D03*
X139089Y27802D02*
D03*
X111117Y35590D02*
D03*
X128046Y23714D02*
D03*
X115534Y55950D02*
D03*
X139118Y40580D02*
D03*
X87562Y31319D02*
D03*
X75735Y21090D02*
D03*
X20104Y26095D02*
D03*
X30143Y58628D02*
D03*
X74239Y120937D02*
D03*
X80908Y73488D02*
D03*
X80910Y66700D02*
D03*
X77134Y58800D02*
D03*
X38271Y121092D02*
D03*
X216930Y30284D02*
D03*
X30340Y120746D02*
D03*
X26299Y113425D02*
D03*
Y106706D02*
D03*
Y100293D02*
D03*
Y93370D02*
D03*
Y87270D02*
D03*
X65493Y132394D02*
D03*
X54560Y73633D02*
D03*
X79333Y118423D02*
D03*
X80910Y112963D02*
D03*
X26299Y81021D02*
D03*
X26298Y73703D02*
D03*
X46253Y149116D02*
D03*
X71701Y58800D02*
D03*
X75735Y63877D02*
D03*
X76035Y70141D02*
D03*
Y76800D02*
D03*
X80910Y80102D02*
D03*
X76035Y83423D02*
D03*
Y90100D02*
D03*
Y96500D02*
D03*
X31780D02*
D03*
Y90100D02*
D03*
Y83423D02*
D03*
Y76800D02*
D03*
Y70144D02*
D03*
X31778Y63877D02*
D03*
X35813Y58800D02*
D03*
X55629Y118198D02*
D03*
X76035Y103058D02*
D03*
X80910Y106400D02*
D03*
X31780Y103058D02*
D03*
X26299Y66269D02*
D03*
D91*
X63962Y100293D02*
D03*
X147276Y29028D02*
D03*
X43381Y100293D02*
D03*
X44436Y67220D02*
D03*
X42742Y71992D02*
D03*
X39430Y29069D02*
D03*
X51221Y29028D02*
D03*
X25888Y29139D02*
D03*
X44394Y76835D02*
D03*
X66827Y55701D02*
D03*
X59866Y96808D02*
D03*
X47842Y97228D02*
D03*
X61967Y106533D02*
D03*
X63175Y93726D02*
D03*
X55312Y58528D02*
D03*
X52178D02*
D03*
X52153Y61687D02*
D03*
X66827Y64541D02*
D03*
X59637Y102032D02*
D03*
X45515Y106992D02*
D03*
X47842Y57836D02*
D03*
X47849Y62407D02*
D03*
X44548Y94461D02*
D03*
X47912Y101900D02*
D03*
X62445Y75356D02*
D03*
X55336Y61687D02*
D03*
X4862Y44598D02*
D03*
D92*
X171939Y26748D02*
D03*
X206273Y93166D02*
D03*
X142362Y138271D02*
D03*
X201075Y26748D02*
D03*
X8893Y127718D02*
D03*
X193129Y28073D02*
D03*
X206143Y31496D02*
D03*
X214858Y118279D02*
D03*
X142362Y181147D02*
D03*
X219699Y129197D02*
D03*
X213427Y26498D02*
D03*
X142331Y130740D02*
D03*
D101*
X35473Y115984D02*
D03*
X40591D02*
D03*
Y110866D02*
D03*
X67112Y116010D02*
D03*
X72231D02*
D03*
X67112Y110892D02*
D03*
X72231D02*
D03*
X35473Y110866D02*
D03*
M02*
